<svg width="33" height="32" viewBox="0 0 33 32" fill="none" xmlns="http://www.w3.org/2000/svg">
<path d="M23.3662 11.1962V10.5C23.3662 7.365 18.6375 5 12.3662 5C6.09496 5 1.36621 7.365 1.36621 10.5V15.5C1.36621 18.1112 4.64746 20.1863 9.36621 20.8075V21.5C9.36621 24.635 14.095 27 20.3662 27C26.6375 27 31.3662 24.635 31.3662 21.5V16.5C31.3662 13.9125 28.1887 11.835 23.3662 11.1962ZM7.36621 18.3587C4.91746 17.675 3.36621 16.5487 3.36621 15.5V13.7413C4.38621 14.4637 5.75246 15.0463 7.36621 15.4375V18.3587ZM17.3662 15.4375C18.98 15.0463 20.3462 14.4637 21.3662 13.7413V15.5C21.3662 16.5487 19.815 17.675 17.3662 18.3587V15.4375ZM15.3662 24.3587C12.9175 23.675 11.3662 22.5487 11.3662 21.5V20.9788C11.695 20.9913 12.0275 21 12.3662 21C12.8512 21 13.325 20.9837 13.79 20.9562C14.3065 21.1412 14.8327 21.2981 15.3662 21.4263V24.3587ZM15.3662 18.7812C14.373 18.928 13.3702 19.0011 12.3662 19C11.3622 19.0011 10.3595 18.928 9.36621 18.7812V15.8075C10.3609 15.9371 11.3631 16.0014 12.3662 16C13.3693 16.0014 14.3715 15.9371 15.3662 15.8075V18.7812ZM23.3662 24.7812C21.3768 25.0729 19.3556 25.0729 17.3662 24.7812V21.8C18.3606 21.9337 19.3629 22.0005 20.3662 22C21.3693 22.0014 22.3715 21.9371 23.3662 21.8075V24.7812ZM29.3662 21.5C29.3662 22.5487 27.815 23.675 25.3662 24.3587V21.4375C26.98 21.0462 28.3462 20.4637 29.3662 19.7412V21.5Z" fill="white"/>
</svg>
