<svg width="33" height="32" viewBox="0 0 33 32" fill="none" xmlns="http://www.w3.org/2000/svg">
<path d="M30.0203 24.765L28.2378 9.765C28.18 9.27627 27.944 8.82602 27.575 8.50039C27.206 8.17475 26.7299 7.99659 26.2378 8H22.034C22.034 6.4087 21.4019 4.88258 20.2767 3.75736C19.1514 2.63214 17.6253 2 16.034 2C14.4427 2 12.9166 2.63214 11.7914 3.75736C10.6662 4.88258 10.034 6.4087 10.034 8H5.82527C5.33315 7.99659 4.85705 8.17475 4.48806 8.50039C4.11906 8.82602 3.88309 9.27627 3.82527 9.765L2.04277 24.765C2.01011 25.045 2.03699 25.3287 2.12165 25.5975C2.20631 25.8664 2.34684 26.1143 2.53402 26.325C2.72256 26.5366 2.9536 26.7061 3.21206 26.8224C3.47052 26.9387 3.7506 26.9992 4.03402 27H28.024C28.3091 27.0006 28.5911 26.9408 28.8514 26.8245C29.1117 26.7081 29.3444 26.5379 29.534 26.325C29.7203 26.1139 29.8599 25.8658 29.9437 25.5969C30.0275 25.3281 30.0536 25.0446 30.0203 24.765ZM12.034 13C12.034 13.2652 11.9287 13.5196 11.7411 13.7071C11.5536 13.8946 11.2992 14 11.034 14C10.7688 14 10.5145 13.8946 10.3269 13.7071C10.1394 13.5196 10.034 13.2652 10.034 13V11C10.034 10.7348 10.1394 10.4804 10.3269 10.2929C10.5145 10.1054 10.7688 10 11.034 10C11.2992 10 11.5536 10.1054 11.7411 10.2929C11.9287 10.4804 12.034 10.7348 12.034 11V13ZM16.034 4C17.0949 4 18.1123 4.42143 18.8624 5.17157C19.6126 5.92172 20.034 6.93913 20.034 8H12.034C12.034 6.93913 12.4555 5.92172 13.2056 5.17157C13.9557 4.42143 14.9732 4 16.034 4ZM22.034 13C22.034 13.2652 21.9287 13.5196 21.7411 13.7071C21.5536 13.8946 21.2992 14 21.034 14C20.7688 14 20.5145 13.8946 20.3269 13.7071C20.1394 13.5196 20.034 13.2652 20.034 13V11C20.034 10.7348 20.1394 10.4804 20.3269 10.2929C20.5145 10.1054 20.7688 10 21.034 10C21.2992 10 21.5536 10.1054 21.7411 10.2929C21.9287 10.4804 22.034 10.7348 22.034 11V13Z" fill="white"/>
</svg>
