<svg width="33" height="32" viewBox="0 0 33 32" fill="none" xmlns="http://www.w3.org/2000/svg">
<path d="M27.6992 9.00004H23.3142C23.363 8.95879 23.413 8.91879 23.4605 8.87504C23.8401 8.53776 24.1461 8.12577 24.3592 7.66485C24.5724 7.20393 24.6881 6.70398 24.6992 6.19629C24.7156 5.64088 24.6184 5.08798 24.4134 4.57152C24.2084 4.05506 23.9 3.58596 23.5072 3.19299C23.1143 2.80003 22.6453 2.49151 22.1289 2.28636C21.6125 2.08122 21.0596 1.98378 20.5042 2.00004C19.9963 2.01098 19.4961 2.12664 19.035 2.33979C18.5738 2.55295 18.1616 2.859 17.8242 3.23879C17.3573 3.7799 16.9777 4.39059 16.6992 5.04879C16.4207 4.39059 16.0411 3.7799 15.5742 3.23879C15.2368 2.859 14.8246 2.55295 14.3635 2.33979C13.9023 2.12664 13.4021 2.01098 12.8942 2.00004C12.3388 1.98378 11.7859 2.08122 11.2695 2.28636C10.7531 2.49151 10.2841 2.80003 9.89128 3.19299C9.49843 3.58596 9.19005 4.05506 8.98506 4.57152C8.78007 5.08798 8.6828 5.64088 8.69922 6.19629C8.71033 6.70398 8.82608 7.20393 9.03922 7.66485C9.25237 8.12577 9.55833 8.53776 9.93797 8.87504C9.98547 8.91629 10.0355 8.95629 10.0842 9.00004H5.69922C5.16879 9.00004 4.66008 9.21075 4.28501 9.58582C3.90993 9.9609 3.69922 10.4696 3.69922 11V15C3.69922 15.5305 3.90993 16.0392 4.28501 16.4142C4.66008 16.7893 5.16879 17 5.69922 17V25C5.69922 25.5305 5.90993 26.0392 6.28501 26.4142C6.66008 26.7893 7.16879 27 7.69922 27H15.1992C15.3318 27 15.459 26.9474 15.5528 26.8536C15.6465 26.7598 15.6992 26.6326 15.6992 26.5V15H5.69922V11H15.6992V15H17.6992V11H27.6992V15H17.6992V26.5C17.6992 26.6326 17.7519 26.7598 17.8457 26.8536C17.9394 26.9474 18.0666 27 18.1992 27H25.6992C26.2297 27 26.7384 26.7893 27.1134 26.4142C27.4885 26.0392 27.6992 25.5305 27.6992 25V17C28.2297 17 28.7384 16.7893 29.1134 16.4142C29.4885 16.0392 29.6992 15.5305 29.6992 15V11C29.6992 10.4696 29.4885 9.9609 29.1134 9.58582C28.7384 9.21075 28.2297 9.00004 27.6992 9.00004ZM11.263 7.37504C11.0881 7.2167 10.9479 7.02393 10.8511 6.80882C10.7543 6.59371 10.703 6.36091 10.7005 6.12504C10.6941 5.84866 10.743 5.57381 10.8443 5.31658C10.9456 5.05935 11.0971 4.82491 11.2902 4.627C11.4832 4.4291 11.7137 4.27171 11.9684 4.16405C12.223 4.05639 12.4965 4.00063 12.773 4.00004H12.8342C13.0701 4.00258 13.3029 4.05386 13.518 4.15066C13.7331 4.24746 13.9259 4.38769 14.0842 4.56254C15.133 5.74754 15.503 7.71254 15.633 8.92754C14.413 8.79879 12.4492 8.42879 11.263 7.37504ZM22.138 7.37504C20.9517 8.42504 18.983 8.79504 17.763 8.92504C17.9117 7.61129 18.3242 5.68754 19.3242 4.56379C19.4826 4.38894 19.6753 4.24871 19.8904 4.15191C20.1055 4.05511 20.3383 4.00383 20.5742 4.00129H20.6355C20.9119 4.00301 21.1853 4.05991 21.4395 4.16863C21.6936 4.27735 21.9236 4.43571 22.1158 4.63443C22.308 4.83315 22.4586 5.06824 22.5588 5.32592C22.659 5.58359 22.7067 5.85867 22.6992 6.13504C22.6951 6.36931 22.643 6.60025 22.546 6.81355C22.4491 7.02684 22.3093 7.21795 22.1355 7.37504H22.138Z" fill="white"/>
</svg>
