<svg width="33" height="32" viewBox="0 0 33 32" fill="none" xmlns="http://www.w3.org/2000/svg">
<path d="M27.0332 9H7.0332C6.76799 9 6.51363 8.89464 6.3261 8.70711C6.13856 8.51957 6.0332 8.26522 6.0332 8C6.0332 7.73478 6.13856 7.48043 6.3261 7.29289C6.51363 7.10536 6.76799 7 7.0332 7H24.0332C24.2984 7 24.5528 6.89464 24.7403 6.70711C24.9278 6.51957 25.0332 6.26522 25.0332 6C25.0332 5.73478 24.9278 5.48043 24.7403 5.29289C24.5528 5.10536 24.2984 5 24.0332 5H7.0332C6.23755 5 5.47449 5.31607 4.91188 5.87868C4.34927 6.44129 4.0332 7.20435 4.0332 8V24C4.0332 24.7956 4.34927 25.5587 4.91188 26.1213C5.47449 26.6839 6.23755 27 7.0332 27H27.0332C27.5636 27 28.0723 26.7893 28.4474 26.4142C28.8225 26.0391 29.0332 25.5304 29.0332 25V11C29.0332 10.4696 28.8225 9.96086 28.4474 9.58579C28.0723 9.21071 27.5636 9 27.0332 9ZM22.5332 19C22.2365 19 21.9465 18.912 21.6998 18.7472C21.4532 18.5824 21.2609 18.3481 21.1474 18.074C21.0339 17.7999 21.0041 17.4983 21.062 17.2074C21.1199 16.9164 21.2628 16.6491 21.4725 16.4393C21.6823 16.2296 21.9496 16.0867 22.2406 16.0288C22.5315 15.9709 22.8331 16.0007 23.1072 16.1142C23.3813 16.2277 23.6156 16.42 23.7804 16.6666C23.9452 16.9133 24.0332 17.2033 24.0332 17.5C24.0332 17.8978 23.8752 18.2794 23.5939 18.5607C23.3126 18.842 22.931 19 22.5332 19Z" fill="white"/>
</svg>
