<svg xmlns="http://www.w3.org/2000/svg" width="116" height="41" viewBox="0 0 116 41" fill="none">
  <rect y="0.760254" width="115.569" height="39.4799" rx="6.63526" fill="#1B2537"/>
  <rect x="0.165882" y="0.926135" width="115.237" height="39.1481" rx="6.46938" stroke="#6F767E" stroke-opacity="0.4" stroke-width="0.331763"/>
  <path d="M47.5611 29.7139L46.5268 26.8412H42.3087L41.3011 29.7139H39.8906L43.6789 19.4271H45.1969L48.9851 29.7139H47.5611ZM44.4043 20.907L42.7788 25.5209H46.0566L44.4043 20.907ZM51.3814 32.4707H50.1321V22.7351H51.3545V23.8233C51.5426 23.4558 51.8247 23.1559 52.2008 22.9238C52.577 22.6916 53.0158 22.5755 53.5173 22.5755C54.4487 22.5755 55.1741 22.9189 55.6935 23.6057C56.2219 24.2924 56.4861 25.163 56.4861 26.2173C56.4861 27.2813 56.2129 28.1615 55.6667 28.8579C55.1293 29.5544 54.3994 29.9026 53.477 29.9026C53.0023 29.9026 52.5814 29.7962 52.2142 29.5834C51.8471 29.3706 51.5694 29.0997 51.3814 28.7709V32.4707ZM55.1965 26.2173C55.1965 25.5112 55.0218 24.9308 54.6726 24.4762C54.3323 24.0119 53.871 23.7798 53.2889 23.7798C52.7158 23.7798 52.2501 24.0119 51.8918 24.4762C51.5426 24.9308 51.3679 25.5112 51.3679 26.2173C51.3679 26.9427 51.5426 27.5376 51.8918 28.0019C52.2501 28.4565 52.7158 28.6838 53.2889 28.6838C53.8621 28.6838 54.3233 28.4565 54.6726 28.0019C55.0218 27.5376 55.1965 26.9427 55.1965 26.2173ZM59.3444 32.4707H58.0951V22.7351H59.3176V23.8233C59.5056 23.4558 59.7877 23.1559 60.1639 22.9238C60.54 22.6916 60.9788 22.5755 61.4803 22.5755C62.4117 22.5755 63.1371 22.9189 63.6566 23.6057C64.185 24.2924 64.4491 25.163 64.4491 26.2173C64.4491 27.2813 64.176 28.1615 63.6297 28.8579C63.0924 29.5544 62.3625 29.9026 61.44 29.9026C60.9654 29.9026 60.5445 29.7962 60.1773 29.5834C59.8101 29.3706 59.5325 29.0997 59.3444 28.7709V32.4707ZM63.1595 26.2173C63.1595 25.5112 62.9849 24.9308 62.6356 24.4762C62.2953 24.0119 61.8341 23.7798 61.252 23.7798C60.6788 23.7798 60.2131 24.0119 59.8549 24.4762C59.5056 24.9308 59.331 25.5112 59.331 26.2173C59.331 26.9427 59.5056 27.5376 59.8549 28.0019C60.2131 28.4565 60.6788 28.6838 61.252 28.6838C61.8251 28.6838 62.2864 28.4565 62.6356 28.0019C62.9849 27.5376 63.1595 26.9427 63.1595 26.2173ZM75.6231 21.763L74.4409 22.2128C74.3782 21.7679 74.1767 21.3665 73.8364 21.0086C73.4961 20.641 73.0259 20.4572 72.4259 20.4572C71.8975 20.4572 71.4587 20.6217 71.1094 20.9505C70.7598 21.2794 70.5852 21.6857 70.5852 22.1693C70.5852 22.5465 70.6882 22.8657 70.8941 23.1269C71.1094 23.388 71.4139 23.567 71.8079 23.6637L73.2319 23.9974C74.02 24.1812 74.629 24.5294 75.0588 25.0421C75.4887 25.545 75.7037 26.1593 75.7037 26.8847C75.7037 27.7166 75.3992 28.4323 74.7902 29.032C74.1812 29.6317 73.3886 29.9316 72.4125 29.9316C71.3467 29.9316 70.5091 29.6317 69.9001 29.032C69.3 28.4227 68.9508 27.702 68.8523 26.8702L70.115 26.4349C70.1687 27.054 70.3926 27.5763 70.7867 28.0019C71.181 28.4275 71.7184 28.6403 72.399 28.6403C73.0259 28.6403 73.5095 28.4855 73.8498 28.176C74.1901 27.8665 74.3603 27.4747 74.3603 27.0008C74.3603 26.6139 74.2394 26.2802 73.9976 25.9997C73.7558 25.7095 73.4021 25.5112 72.9364 25.4048L71.5796 25.0856C70.8718 24.9212 70.3076 24.5971 69.8866 24.1135C69.4657 23.6299 69.2553 23.0157 69.2553 22.2709C69.2553 21.4584 69.5598 20.7474 70.1687 20.138C70.7867 19.519 71.5303 19.2095 72.399 19.2095C73.3752 19.2095 74.123 19.4658 74.6424 19.9784C75.1618 20.4911 75.4887 21.086 75.6231 21.763ZM78.9411 20.5298V22.7351H80.3382V23.9684H78.9411V27.5956C78.9411 27.9245 79.0083 28.1663 79.1426 28.3211C79.2859 28.4759 79.5188 28.5532 79.8412 28.5532C80.0292 28.5532 80.1949 28.5339 80.3382 28.4952V29.6559C80.1233 29.743 79.8367 29.7865 79.4785 29.7865C78.9232 29.7865 78.4844 29.6124 78.162 29.2642C77.8396 28.916 77.6784 28.4275 77.6784 27.7988V23.9684H76.4425V22.7351H76.7918C77.1231 22.7351 77.3694 22.6384 77.5306 22.445C77.7008 22.2418 77.7858 21.9807 77.7858 21.6615V20.5298H78.9411ZM83.2878 28.0599C83.6819 28.4952 84.161 28.7128 84.7252 28.7128C85.2894 28.7128 85.7641 28.4952 86.1492 28.0599C86.5432 27.615 86.7402 27.0008 86.7402 26.2173C86.7402 25.4435 86.5432 24.8389 86.1492 24.4037C85.7641 23.9587 85.2894 23.7363 84.7252 23.7363C84.161 23.7363 83.6819 23.9587 83.2878 24.4037C82.9027 24.8389 82.7102 25.4435 82.7102 26.2173C82.7102 27.0008 82.9027 27.615 83.2878 28.0599ZM82.3475 23.5767C82.9744 22.8706 83.7669 22.5175 84.7252 22.5175C85.6835 22.5175 86.4716 22.8706 87.0895 23.5767C87.7164 24.2731 88.0298 25.1533 88.0298 26.2173C88.0298 27.291 87.7209 28.1808 87.1029 28.8869C86.485 29.5834 85.6924 29.9316 84.7252 29.9316C83.758 29.9316 82.9654 29.5834 82.3475 28.8869C81.7295 28.1808 81.4206 27.291 81.4206 26.2173C81.4206 25.1533 81.7295 24.2731 82.3475 23.5767ZM93.2324 22.6626V24.1135C93.0444 24.0845 92.8608 24.07 92.6817 24.07C91.4995 24.07 90.9084 24.7857 90.9084 26.2173V29.7139H89.6457V22.7351H90.8816V23.9539C91.2756 23.064 91.9204 22.6191 92.816 22.6191C92.9593 22.6191 93.0981 22.6336 93.2324 22.6626ZM95.3319 25.5064H98.8649C98.847 24.984 98.6858 24.5584 98.3813 24.2296C98.0768 23.891 97.6469 23.7218 97.0917 23.7218C96.5902 23.7218 96.1782 23.9007 95.8558 24.2586C95.5334 24.6068 95.3588 25.0227 95.3319 25.5064ZM99.053 27.32L100.141 27.7262C99.953 28.3743 99.6037 28.9063 99.0933 29.3222C98.5828 29.7285 97.9649 29.9316 97.2394 29.9316C96.3349 29.9316 95.5647 29.5979 94.9289 28.9305C94.302 28.2534 93.9886 27.3442 93.9886 26.2028C93.9886 25.1388 94.293 24.2586 94.902 23.5622C95.511 22.8657 96.2364 22.5175 97.0782 22.5175C98.0544 22.5175 98.8156 22.8512 99.3619 23.5186C99.9082 24.1764 100.181 25.0614 100.181 26.1738C100.181 26.3479 100.172 26.493 100.155 26.609H95.2916C95.3005 27.2281 95.4886 27.7359 95.8558 28.1325C96.2319 28.5291 96.6931 28.7273 97.2394 28.7273C98.1619 28.7273 98.7664 28.2582 99.053 27.32Z" fill="white"/>
  <path d="M40.8761 13.1155V10.6117H41.4442C42.0378 10.6117 42.5291 11.0152 42.5291 11.8664C42.5291 12.7176 42.0327 13.1155 41.4391 13.1155H40.8761ZM41.4647 13.823C42.4984 13.823 43.2609 13.1045 43.2609 11.8664C43.2609 10.6283 42.5035 9.9042 41.4698 9.9042H40.1699V13.823H41.4647ZM45.0297 11.8608C45.0297 10.9765 45.6029 10.5564 46.1607 10.5564C46.7236 10.5564 47.2968 10.9765 47.2968 11.8608C47.2968 12.7452 46.7236 13.1653 46.1607 13.1653C45.6029 13.1653 45.0297 12.7452 45.0297 11.8608ZM44.2979 11.8664C44.2979 13.1266 45.1781 13.9059 46.1607 13.9059C47.1484 13.9059 48.0286 13.1266 48.0286 11.8664C48.0286 10.6006 47.1484 9.82129 46.1607 9.82129C45.1781 9.82129 44.2979 10.6006 44.2979 11.8664ZM52.5637 12.6125L51.7551 9.9042H51.0233L50.2199 12.6015L49.5546 9.9042H48.8075L49.8156 13.823H50.5525L51.3816 11.0317L52.2106 13.823H52.9373L53.9403 9.9042H53.2188L52.5637 12.6125ZM58.1538 13.823V9.9042H57.4476V12.4965L55.9379 9.9042H55.0577V13.823H55.7639V11.0428L57.4117 13.823H58.1538ZM61.9439 13.823V13.0934H60.3267V9.9042H59.6205V13.823H61.9439ZM63.5207 11.8608C63.5207 10.9765 64.0939 10.5564 64.6517 10.5564C65.2146 10.5564 65.7878 10.9765 65.7878 11.8608C65.7878 12.7452 65.2146 13.1653 64.6517 13.1653C64.0939 13.1653 63.5207 12.7452 63.5207 11.8608ZM62.7889 11.8664C62.7889 13.1266 63.6691 13.9059 64.6517 13.9059C65.6394 13.9059 66.5196 13.1266 66.5196 11.8664C66.5196 10.6006 65.6394 9.82129 64.6517 9.82129C63.6691 9.82129 62.7889 10.6006 62.7889 11.8664ZM70.0581 13.823H70.8258L69.444 9.9042H68.6252L67.2333 13.823H67.9804L68.2824 12.9276H69.7562L70.0581 13.823ZM69.0193 10.7499L69.5208 12.2312H68.5178L69.0193 10.7499ZM72.6355 13.1155V10.6117H73.2035C73.7971 10.6117 74.2884 11.0152 74.2884 11.8664C74.2884 12.7176 73.792 13.1155 73.1984 13.1155H72.6355ZM73.224 13.823C74.2577 13.823 75.0202 13.1045 75.0202 11.8664C75.0202 10.6283 74.2628 9.9042 73.2291 9.9042H71.9292V13.823H73.224ZM78.6933 11.8608C78.6933 10.9765 79.2665 10.5564 79.8243 10.5564C80.3872 10.5564 80.9604 10.9765 80.9604 11.8608C80.9604 12.7452 80.3872 13.1653 79.8243 13.1653C79.2665 13.1653 78.6933 12.7452 78.6933 11.8608ZM77.9615 11.8664C77.9615 13.1266 78.8417 13.9059 79.8243 13.9059C80.812 13.9059 81.6922 13.1266 81.6922 11.8664C81.6922 10.6006 80.812 9.82129 79.8243 9.82129C78.8417 9.82129 77.9615 10.6006 77.9615 11.8664ZM86.0401 13.823V9.9042H85.3339V12.4965L83.8243 9.9042H82.944V13.823H83.6503V11.0428L85.2981 13.823H86.0401ZM92.0827 10.6283V9.9042H89.0787V10.6283H90.225V13.823H90.9363V10.6283H92.0827ZM96.2183 13.823V9.9042H95.5069V11.4795H93.9256V9.9042H93.2194V13.823H93.9256V12.198H95.5069V13.823H96.2183ZM99.9592 13.823V13.1045H98.3932V12.198H99.8107V11.5181H98.3932V10.6227H99.9592V9.9042H97.687V13.823H99.9592Z" fill="white"/>
  <path d="M31.3582 25.5797C30.9428 26.5733 30.7445 27.0168 30.2096 27.8946C29.4643 29.1206 28.4128 30.6475 27.1098 30.6604C25.9524 30.6721 25.655 29.8469 24.0837 29.8568C22.5125 29.8668 22.1851 30.6751 21.0276 30.6634C19.7246 30.6509 18.7291 29.2721 17.9831 28.0453C15.8977 24.6167 15.6798 20.5935 16.966 18.4548C17.8799 16.9339 19.3224 16.0453 20.6782 16.0453C22.0587 16.0453 22.9267 16.8627 24.0686 16.8627C25.176 16.8627 25.8505 16.0439 27.4469 16.0439C28.6535 16.0439 29.9321 16.7534 30.8433 17.9793C27.8579 19.7459 28.3433 24.3486 31.3582 25.5797Z" fill="white"/>
  <path d="M26.4041 13.898C26.9842 13.0939 27.424 11.9596 27.264 10.7993C26.3165 10.8693 25.209 11.5205 24.5622 12.369C23.9749 13.1389 23.4899 14.281 23.6786 15.3912C24.7121 15.4262 25.7824 14.759 26.4041 13.898Z" fill="white"/>
</svg>