<svg xmlns="http://www.w3.org/2000/svg" width="24" height="25" viewBox="0 0 24 25" fill="none">
  <path d="M16.3634 6.62524C14.4734 6.62524 13.6746 7.52712 12.3584 7.52712C11.0089 7.52712 9.97949 6.63181 8.34168 6.63181C6.73855 6.63181 5.02902 7.61056 3.94339 9.2779C2.41902 11.6291 2.67777 16.0574 5.14668 19.8299C6.0298 21.1804 7.20918 22.6949 8.75605 22.7113H8.78418C10.1286 22.7113 10.5279 21.831 12.3781 21.8207H12.4062C14.2287 21.8207 14.5943 22.7062 15.9331 22.7062H15.9612C17.5081 22.6898 18.7507 21.0117 19.6339 19.6663C20.2695 18.6988 20.5057 18.2132 20.9932 17.1187C17.4218 15.7631 16.8481 10.7001 20.3801 8.75899C19.302 7.40899 17.787 6.62712 16.3587 6.62712L16.3634 6.62524Z" fill="white"/>
  <path d="M15.9472 1.71252C14.8222 1.78893 13.5097 2.50518 12.741 3.44034C12.0435 4.28784 11.4697 5.54502 11.6947 6.76424H11.7847C12.9828 6.76424 14.2091 6.04284 14.9253 5.11846C15.6153 4.23862 16.1385 2.99174 15.9472 1.71252Z" fill="white"/>
</svg>