<svg width="25" height="25" viewBox="0 0 25 25" fill="none" xmlns="http://www.w3.org/2000/svg">
<path d="M19.2499 6.89648V16.6465C19.2499 16.8454 19.1709 17.0362 19.0303 17.1768C18.8896 17.3175 18.6988 17.3965 18.4999 17.3965C18.301 17.3965 18.1103 17.3175 17.9696 17.1768C17.8289 17.0362 17.7499 16.8454 17.7499 16.6465V8.7068L7.03055 19.4271C6.88982 19.5678 6.69895 19.6469 6.49993 19.6469C6.30091 19.6469 6.11003 19.5678 5.9693 19.4271C5.82857 19.2864 5.74951 19.0955 5.74951 18.8965C5.74951 18.6975 5.82857 18.5066 5.9693 18.3659L16.6896 7.64648H8.74993C8.55102 7.64648 8.36025 7.56747 8.2196 7.42681C8.07895 7.28616 7.99993 7.0954 7.99993 6.89648C7.99993 6.69757 8.07895 6.50681 8.2196 6.36615C8.36025 6.2255 8.55102 6.14648 8.74993 6.14648H18.4999C18.6988 6.14648 18.8896 6.2255 19.0303 6.36615C19.1709 6.50681 19.2499 6.69757 19.2499 6.89648Z" fill="#060A1D"/>
</svg>
