<svg xmlns="http://www.w3.org/2000/svg" width="45" height="42" viewBox="0 0 45 42" fill="none">
  <g clip-path="url(#clip0_1207_41965)">
    <path d="M43.8549 25.8664C40.894 36.6431 28.865 43.2017 16.9871 40.5143C5.11415 37.8276 -2.11366 26.9118 0.848508 16.1359C3.80808 5.35796 15.8371 -1.20106 27.7113 1.48563C39.5884 4.17233 46.8158 15.0893 43.8546 25.8666L43.8548 25.8664H43.8549Z" fill="#F7931A"/>
    <path d="M32.1432 18.1145C32.5844 15.4375 30.3383 13.9985 27.2669 13.0385L28.2633 9.41217L25.8306 8.86213L24.8607 12.393C24.2211 12.2482 23.5643 12.1118 22.9116 11.9766L23.8885 8.42251L21.4573 7.87247L20.4604 11.4976C19.9312 11.3883 19.4114 11.2802 18.9071 11.1663L18.9099 11.1549L15.5551 10.3948L14.908 12.7525C14.908 12.7525 16.7129 13.1279 16.6748 13.151C17.6599 13.3741 17.8381 13.9658 17.8085 14.4348L16.6735 18.5661C16.7414 18.5817 16.8293 18.6043 16.9264 18.6397C16.8453 18.6214 16.7589 18.6014 16.6693 18.582L15.0784 24.3692C14.958 24.6408 14.6525 25.0484 13.9637 24.8936C13.9881 24.9257 12.1956 24.4932 12.1956 24.4932L10.9878 27.02L14.1536 27.7361C14.7425 27.8702 15.3197 28.0104 15.888 28.1422L14.8813 31.8101L17.3112 32.3602L18.3081 28.7312C18.972 28.8947 19.6162 29.0456 20.2468 29.1878L19.2533 32.7996L21.6861 33.3497L22.6927 29.6886C26.841 30.401 29.9601 30.1138 31.2731 26.7091C32.331 23.968 31.2204 22.3869 29.038 21.3558C30.6275 21.0232 31.8248 20.0745 32.1441 18.1148L32.1433 18.1143L32.1432 18.1145ZM26.585 25.1868C25.8332 27.928 20.7469 26.4462 19.0979 26.0746L20.4338 21.2153C22.0827 21.5888 27.3707 22.3281 26.5851 25.1868H26.585ZM27.3374 18.0748C26.6515 20.5682 22.4182 19.3014 21.0449 18.9908L22.2561 14.5837C23.6293 14.8943 28.0518 15.4741 27.3376 18.0748H27.3374Z" fill="white"/>
  </g>
  <defs>
    <clipPath id="clip0_1207_41965">
      <rect width="44.3386" height="40.2329" fill="white" transform="translate(0.18457 0.883682)"/>
    </clipPath>
  </defs>
</svg>