 <svg xmlns="http://www.w3.org/2000/svg" width="33" height="32" viewBox="0 0 33 32" fill="none">
  <path d="M30.8191 24.765L29.0366 9.765C28.9788 9.27627 28.7428 8.82602 28.3738 8.50039C28.0048 8.17475 27.5287 7.99659 27.0366 8H22.8329C22.8329 6.4087 22.2007 4.88258 21.0755 3.75736C19.9503 2.63214 18.4242 2 16.8329 2C15.2416 2 13.7154 2.63214 12.5902 3.75736C11.465 4.88258 10.8329 6.4087 10.8329 8H6.6241C6.13198 7.99659 5.65588 8.17475 5.28689 8.50039C4.91789 8.82602 4.68192 9.27627 4.6241 9.765L2.8416 24.765C2.80894 25.045 2.83581 25.3287 2.92048 25.5975C3.00514 25.8664 3.14567 26.1143 3.33285 26.325C3.52139 26.5366 3.75243 26.7061 4.01089 26.8224C4.26935 26.9387 4.54943 26.9992 4.83285 27H28.8229C29.108 27.0006 29.39 26.9408 29.6503 26.8245C29.9105 26.7081 30.1432 26.5379 30.3329 26.325C30.5192 26.1139 30.6588 25.8658 30.7426 25.5969C30.8264 25.3281 30.8524 25.0446 30.8191 24.765ZM12.8329 13C12.8329 13.2652 12.7275 13.5196 12.54 13.7071C12.3524 13.8946 12.0981 14 11.8329 14C11.5676 14 11.3133 13.8946 11.1257 13.7071C10.9382 13.5196 10.8329 13.2652 10.8329 13V11C10.8329 10.7348 10.9382 10.4804 11.1257 10.2929C11.3133 10.1054 11.5676 10 11.8329 10C12.0981 10 12.3524 10.1054 12.54 10.2929C12.7275 10.4804 12.8329 10.7348 12.8329 11V13ZM16.8329 4C17.8937 4 18.9111 4.42143 19.6613 5.17157C20.4114 5.92172 20.8329 6.93913 20.8329 8H12.8329C12.8329 6.93913 13.2543 5.92172 14.0044 5.17157C14.7546 4.42143 15.772 4 16.8329 4ZM22.8329 13C22.8329 13.2652 22.7275 13.5196 22.54 13.7071C22.3524 13.8946 22.0981 14 21.8329 14C21.5676 14 21.3133 13.8946 21.1257 13.7071C20.9382 13.5196 20.8329 13.2652 20.8329 13V11C20.8329 10.7348 20.9382 10.4804 21.1257 10.2929C21.3133 10.1054 21.5676 10 21.8329 10C22.0981 10 22.3524 10.1054 22.54 10.2929C22.7275 10.4804 22.8329 10.7348 22.8329 11V13Z" fill="#2873FF"/>
</svg>