<svg width="107" height="55" viewBox="0 0 107 55" fill="none" xmlns="http://www.w3.org/2000/svg">
<rect x="0.334961" y="0.402405" width="106.259" height="54.3846" rx="9.2623" fill="#18202A"/>
<path d="M82.6871 8.71766H81.7068V9.72391H81.0221V8.71766H80.0418V8.08485H81.0221V7.0786H81.7068V8.08485H82.6871V8.71766ZM86.0525 9.20522C86.0525 9.38504 86.0058 9.55447 85.9124 9.71354C85.8225 9.86914 85.6877 9.99882 85.5079 10.1026C85.3315 10.2028 85.1223 10.2616 84.8803 10.2789V10.699H84.5483V10.2737C84.2025 10.2426 83.9241 10.1389 83.7132 9.96251C83.5023 9.7827 83.3933 9.54064 83.3864 9.23634H84.1645C84.1852 9.48531 84.3132 9.63573 84.5483 9.6876V8.69691C84.2993 8.63467 84.0988 8.57242 83.9466 8.51018C83.7945 8.44794 83.6631 8.34766 83.5524 8.20934C83.4418 8.07102 83.3864 7.88257 83.3864 7.64397C83.3864 7.34313 83.4936 7.09762 83.708 6.90743C83.9259 6.71725 84.206 6.60832 84.5483 6.58066V6.16052H84.8803V6.58066C85.2122 6.60832 85.4767 6.7086 85.6738 6.8815C85.8744 7.05439 85.9868 7.29299 86.011 7.59729H85.2278C85.2174 7.49701 85.1811 7.41056 85.1189 7.33794C85.0601 7.26187 84.9805 7.20827 84.8803 7.17715V8.15747C85.1396 8.22317 85.3436 8.28714 85.4923 8.34939C85.6445 8.40817 85.7759 8.50672 85.8865 8.64504C85.9972 8.7799 86.0525 8.96663 86.0525 9.20522ZM84.1437 7.60766C84.1437 7.72177 84.1783 7.81514 84.2475 7.88775C84.3166 7.95691 84.4169 8.01397 84.5483 8.05892V7.16159C84.4238 7.17888 84.3253 7.22556 84.2526 7.30163C84.18 7.37771 84.1437 7.47972 84.1437 7.60766ZM84.8803 9.69798C85.0117 9.67377 85.1137 9.62017 85.1863 9.53718C85.2624 9.45419 85.3004 9.35391 85.3004 9.23634C85.3004 9.12223 85.2641 9.0306 85.1915 8.96144C85.1189 8.89228 85.0151 8.83522 84.8803 8.79027V9.69798ZM87.0084 9.42826C87.3404 9.15163 87.6049 8.92167 87.802 8.7384C87.9991 8.55167 88.1634 8.35803 88.2948 8.15747C88.4262 7.95691 88.4919 7.75981 88.4919 7.56617C88.4919 7.38981 88.4504 7.25149 88.3674 7.15122C88.2844 7.05094 88.1565 7.0008 87.9836 7.0008C87.8107 7.0008 87.6775 7.05958 87.5842 7.17715C87.4908 7.29126 87.4424 7.4486 87.4389 7.64916H86.7335C86.7473 7.23421 86.8701 6.91953 87.1018 6.70514C87.3369 6.49075 87.6343 6.38356 87.9939 6.38356C88.3881 6.38356 88.6907 6.48902 88.9016 6.69996C89.1126 6.90743 89.218 7.18234 89.218 7.52467C89.218 7.79439 89.1454 8.052 89.0002 8.29752C88.855 8.54303 88.689 8.75742 88.5022 8.94069C88.3155 9.1205 88.0717 9.33835 87.7709 9.59424H89.301V10.1959H86.7387V9.65648L87.0084 9.42826ZM90.1632 10.2841C90.0318 10.2841 89.9229 10.2443 89.8364 10.1648C89.7534 10.0818 89.7119 9.9798 89.7119 9.85877C89.7119 9.73774 89.7534 9.63746 89.8364 9.55793C89.9229 9.47494 90.0318 9.43345 90.1632 9.43345C90.2911 9.43345 90.3966 9.47494 90.4796 9.55793C90.5626 9.63746 90.6041 9.73774 90.6041 9.85877C90.6041 9.9798 90.5626 10.0818 90.4796 10.1648C90.3966 10.2443 90.2911 10.2841 90.1632 10.2841ZM91.3342 9.42826C91.6662 9.15163 91.9307 8.92167 92.1278 8.7384C92.3249 8.55167 92.4892 8.35803 92.6206 8.15747C92.752 7.95691 92.8177 7.75981 92.8177 7.56617C92.8177 7.38981 92.7762 7.25149 92.6932 7.15122C92.6102 7.05094 92.4822 7.0008 92.3093 7.0008C92.1364 7.0008 92.0033 7.05958 91.9099 7.17715C91.8166 7.29126 91.7682 7.4486 91.7647 7.64916H91.0593C91.0731 7.23421 91.1959 6.91953 91.4276 6.70514C91.6627 6.49075 91.9601 6.38356 92.3197 6.38356C92.7139 6.38356 93.0165 6.48902 93.2274 6.69996C93.4384 6.90743 93.5438 7.18234 93.5438 7.52467C93.5438 7.79439 93.4712 8.052 93.326 8.29752C93.1807 8.54303 93.0148 8.75742 92.828 8.94069C92.6413 9.1205 92.3975 9.33835 92.0967 9.59424H93.6268V10.1959H91.0645V9.65648L91.3342 9.42826ZM94.3126 9.42826C94.6446 9.15163 94.9091 8.92167 95.1062 8.7384C95.3033 8.55167 95.4676 8.35803 95.599 8.15747C95.7304 7.95691 95.7961 7.75981 95.7961 7.56617C95.7961 7.38981 95.7546 7.25149 95.6716 7.15122C95.5886 7.05094 95.4606 7.0008 95.2877 7.0008C95.1149 7.0008 94.9817 7.05958 94.8884 7.17715C94.795 7.29126 94.7466 7.4486 94.7431 7.64916H94.0377C94.0515 7.23421 94.1743 6.91953 94.406 6.70514C94.6411 6.49075 94.9385 6.38356 95.2981 6.38356C95.6923 6.38356 95.9949 6.48902 96.2058 6.69996C96.4168 6.90743 96.5222 7.18234 96.5222 7.52467C96.5222 7.79439 96.4496 8.052 96.3044 8.29752C96.1591 8.54303 95.9932 8.75742 95.8064 8.94069C95.6197 9.1205 95.3759 9.33835 95.0751 9.59424H96.6052V10.1959H94.0429V9.65648L94.3126 9.42826Z" fill="#2873FF"/>
<path d="M95.201 5.58177L94.1858 9.70164H93.8524L94.8638 5.58177H95.201ZM95.607 8.80135C95.9206 8.54941 96.1664 8.34317 96.3442 8.18263C96.5221 8.01961 96.6715 7.85042 96.7925 7.67505C96.916 7.49722 96.9778 7.32309 96.9778 7.15266C96.9778 6.99211 96.9383 6.86615 96.8592 6.77476C96.7827 6.6809 96.6579 6.63397 96.485 6.63397C96.3171 6.63397 96.1862 6.68707 96.0923 6.79328C96.0009 6.89702 95.9515 7.03657 95.9441 7.21194H95.6181C95.628 6.9353 95.7119 6.72165 95.87 6.57099C96.0281 6.42032 96.2319 6.34499 96.4813 6.34499C96.7357 6.34499 96.937 6.41538 97.0852 6.55617C97.2359 6.69695 97.3112 6.89084 97.3112 7.13784C97.3112 7.34285 97.2495 7.54291 97.126 7.73804C97.005 7.93069 96.8666 8.10112 96.711 8.24932C96.5554 8.39504 96.3566 8.56547 96.1145 8.76059H97.389V9.04217H95.607V8.80135ZM97.6973 8.47532V8.21968L98.9977 6.41909H99.4015V8.18263H99.772V8.47532H99.4015V9.07181H99.0681V8.47532H97.6973ZM99.0829 6.77105L98.0863 8.18263H99.0829V6.77105ZM101.172 7.00446C101.325 7.00446 101.464 7.03781 101.587 7.1045C101.711 7.16871 101.807 7.26628 101.876 7.39718C101.948 7.52809 101.984 7.6874 101.984 7.87512V9.07181H101.65V7.92328C101.65 7.72075 101.599 7.56638 101.498 7.46017C101.397 7.35149 101.259 7.29715 101.083 7.29715C100.905 7.29715 100.763 7.35272 100.657 7.46387C100.553 7.57502 100.502 7.7368 100.502 7.94922V9.07181H100.164V6.33017H100.502V7.3305C100.568 7.22676 100.66 7.14648 100.776 7.08968C100.894 7.03287 101.026 7.00446 101.172 7.00446Z" fill="#A4A8AB"/>
<rect x="89.5266" y="42.9762" width="27.1923" height="0.275284" rx="0.137642" transform="rotate(-90 89.5266 42.9762)" fill="#212A36"/>
<rect x="39.9756" y="42.9762" width="27.1923" height="0.275287" rx="0.137644" transform="rotate(-90 39.9756 42.9762)" fill="#212A36"/>
<rect x="73.0098" y="42.9762" width="27.1923" height="0.27529" rx="0.137645" transform="rotate(-90 73.0098 42.9762)" fill="#212A36"/>
<rect x="23.4587" y="42.9762" width="27.1923" height="0.275286" rx="0.137643" transform="rotate(-90 23.4587 42.9762)" fill="#212A36"/>
<rect x="15.2002" y="42.9762" width="27.1923" height="0.275284" rx="0.137642" transform="rotate(-90 15.2002 42.9762)" fill="#212A36"/>
<rect x="56.4927" y="42.9762" width="27.1923" height="0.275284" rx="0.137642" transform="rotate(-90 56.4927 42.9762)" fill="#212A36"/>
<rect x="6.94165" y="42.9762" width="27.1923" height="0.275285" rx="0.137642" transform="rotate(-90 6.94165 42.9762)" fill="#212A36"/>
<rect x="97.7852" y="42.9762" width="27.1923" height="0.27529" rx="0.137645" transform="rotate(-90 97.7852 42.9762)" fill="#212A36"/>
<rect x="48.2341" y="42.9762" width="27.1923" height="0.27529" rx="0.137645" transform="rotate(-90 48.2341 42.9762)" fill="#212A36"/>
<rect x="81.2681" y="42.9762" width="27.1923" height="0.275284" rx="0.137642" transform="rotate(-90 81.2681 42.9762)" fill="#212A36"/>
<rect x="31.7173" y="42.9762" width="27.1923" height="0.275284" rx="0.137642" transform="rotate(-90 31.7173 42.9762)" fill="#212A36"/>
<path d="M7.21682 45.2985V47.3496H6.9471V45.8202L6.26539 47.3496H6.0757L5.39103 45.8172V47.3496H5.12131V45.2985H5.41178L6.17055 46.9939L6.92932 45.2985H7.21682ZM8.38262 47.3763C8.23047 47.3763 8.09215 47.3417 7.96767 47.2725C7.84516 47.2034 7.74833 47.1055 7.6772 46.9791C7.60804 46.8506 7.57346 46.7025 7.57346 46.5345C7.57346 46.3685 7.60903 46.2223 7.68016 46.0958C7.75327 45.9674 7.85207 45.8696 7.97656 45.8024C8.10104 45.7332 8.24035 45.6987 8.39447 45.6987C8.5486 45.6987 8.6879 45.7332 8.81239 45.8024C8.93687 45.8696 9.03468 45.9664 9.10582 46.0929C9.17893 46.2193 9.21548 46.3665 9.21548 46.5345C9.21548 46.7025 9.17794 46.8506 9.10285 46.9791C9.02974 47.1055 8.92996 47.2034 8.8035 47.2725C8.67703 47.3417 8.53674 47.3763 8.38262 47.3763ZM8.38262 47.1391C8.47944 47.1391 8.57033 47.1164 8.6553 47.071C8.74027 47.0255 8.80844 46.9574 8.85981 46.8665C8.91316 46.7756 8.93984 46.6649 8.93984 46.5345C8.93984 46.4041 8.91415 46.2934 8.86277 46.2025C8.8114 46.1116 8.74422 46.0445 8.66123 46.001C8.57824 45.9555 8.48833 45.9328 8.39151 45.9328C8.29271 45.9328 8.20182 45.9555 8.11883 46.001C8.03781 46.0445 7.97261 46.1116 7.92321 46.2025C7.87381 46.2934 7.84911 46.4041 7.84911 46.5345C7.84911 46.6669 7.87282 46.7785 7.92024 46.8694C7.96964 46.9603 8.03485 47.0285 8.11586 47.0739C8.19688 47.1174 8.2858 47.1391 8.38262 47.1391ZM10.3615 45.6957C10.5591 45.6957 10.7191 45.756 10.8416 45.8765C10.9642 45.9951 11.0254 46.167 11.0254 46.3922V47.3496H10.7587V46.4308C10.7587 46.2687 10.7181 46.1452 10.6371 46.0603C10.5561 45.9733 10.4455 45.9299 10.3052 45.9299C10.1629 45.9299 10.0493 45.9743 9.96432 46.0632C9.88133 46.1521 9.83983 46.2816 9.83983 46.4515V47.3496H9.57011V45.7253H9.83983V45.9565C9.89318 45.8735 9.9653 45.8093 10.0562 45.7639C10.1491 45.7184 10.2508 45.6957 10.3615 45.6957Z" fill="#A4A8AB"/>
<path d="M73.2847 45.2985V47.3496H73.015V45.8202L72.3333 47.3496H72.1436L71.4589 45.8172V47.3496H71.1892V45.2985H71.4797L72.2384 46.9939L72.9972 45.2985H73.2847ZM74.4505 47.3763C74.2983 47.3763 74.16 47.3417 74.0355 47.2725C73.913 47.2034 73.8162 47.1055 73.7451 46.9791C73.6759 46.8506 73.6413 46.7025 73.6413 46.5345C73.6413 46.3685 73.6769 46.2223 73.748 46.0958C73.8211 45.9674 73.9199 45.8696 74.0444 45.8024C74.1689 45.7332 74.3082 45.6987 74.4623 45.6987C74.6165 45.6987 74.7558 45.7332 74.8803 45.8024C75.0047 45.8696 75.1026 45.9664 75.1737 46.0929C75.2468 46.2193 75.2834 46.3665 75.2834 46.5345C75.2834 46.7025 75.2458 46.8506 75.1707 46.9791C75.0976 47.1055 74.9978 47.2034 74.8714 47.2725C74.7449 47.3417 74.6046 47.3763 74.4505 47.3763ZM74.4505 47.1391C74.5473 47.1391 74.6382 47.1164 74.7232 47.071C74.8081 47.0255 74.8763 46.9574 74.9277 46.8665C74.981 46.7756 75.0077 46.6649 75.0077 46.5345C75.0077 46.4041 74.982 46.2934 74.9306 46.2025C74.8793 46.1116 74.8121 46.0445 74.7291 46.001C74.6461 45.9555 74.5562 45.9328 74.4594 45.9328C74.3606 45.9328 74.2697 45.9555 74.1867 46.001C74.1057 46.0445 74.0405 46.1116 73.9911 46.2025C73.9417 46.2934 73.917 46.4041 73.917 46.5345C73.917 46.6669 73.9407 46.7785 73.9881 46.8694C74.0375 46.9603 74.1027 47.0285 74.1837 47.0739C74.2647 47.1174 74.3537 47.1391 74.4505 47.1391ZM76.4294 45.6957C76.627 45.6957 76.787 45.756 76.9095 45.8765C77.032 45.9951 77.0933 46.167 77.0933 46.3922V47.3496H76.8265V46.4308C76.8265 46.2687 76.786 46.1452 76.705 46.0603C76.624 45.9733 76.5133 45.9299 76.373 45.9299C76.2308 45.9299 76.1172 45.9743 76.0322 46.0632C75.9492 46.1521 75.9077 46.2816 75.9077 46.4515V47.3496H75.638V45.7253H75.9077V45.9565C75.9611 45.8735 76.0332 45.8093 76.1241 45.7639C76.2169 45.7184 76.3187 45.6957 76.4294 45.6957Z" fill="#A4A8AB"/>
<path d="M15.2056 45.2837V45.503H14.6424V47.3496H14.3727V45.503H13.8066V45.2837H15.2056ZM16.978 45.7253V47.3496H16.7083V47.1095C16.657 47.1925 16.5848 47.2577 16.492 47.3051C16.4011 47.3506 16.3003 47.3733 16.1896 47.3733C16.0632 47.3733 15.9496 47.3476 15.8488 47.2962C15.748 47.2429 15.668 47.1638 15.6087 47.0591C15.5514 46.9544 15.5228 46.8269 15.5228 46.6768V45.7253H15.7895V46.6412C15.7895 46.8013 15.83 46.9247 15.911 47.0117C15.992 47.0967 16.1027 47.1391 16.243 47.1391C16.3872 47.1391 16.5008 47.0947 16.5838 47.0058C16.6668 46.9168 16.7083 46.7874 16.7083 46.6175V45.7253H16.978ZM18.9154 46.4752C18.9154 46.5266 18.9125 46.5809 18.9065 46.6382H17.6083C17.6182 46.7983 17.6725 46.9238 17.7713 47.0147C17.8721 47.1036 17.9936 47.148 18.1359 47.148C18.2525 47.148 18.3493 47.1214 18.4264 47.068C18.5054 47.0127 18.5607 46.9396 18.5923 46.8487H18.8828C18.8393 47.0048 18.7524 47.1322 18.622 47.231C18.4916 47.3278 18.3295 47.3763 18.1359 47.3763C17.9818 47.3763 17.8435 47.3417 17.7209 47.2725C17.6004 47.2034 17.5056 47.1055 17.4364 46.9791C17.3673 46.8506 17.3327 46.7025 17.3327 46.5345C17.3327 46.3665 17.3663 46.2193 17.4334 46.0929C17.5006 45.9664 17.5945 45.8696 17.715 45.8024C17.8375 45.7332 17.9778 45.6987 18.1359 45.6987C18.29 45.6987 18.4264 45.7323 18.5449 45.7994C18.6635 45.8666 18.7544 45.9595 18.8176 46.0781C18.8828 46.1946 18.9154 46.327 18.9154 46.4752ZM18.6368 46.4189C18.6368 46.3162 18.6141 46.2282 18.5686 46.1551C18.5232 46.08 18.4609 46.0237 18.3819 45.9862C18.3048 45.9466 18.2189 45.9269 18.124 45.9269C17.9877 45.9269 17.8711 45.9704 17.7743 46.0573C17.6795 46.1442 17.6251 46.2648 17.6113 46.4189H18.6368Z" fill="#A4A8AB"/>
<path d="M81.2734 45.2837V45.503H80.7103V47.3496H80.4406V45.503H79.8745V45.2837H81.2734ZM83.0459 45.7253V47.3496H82.7762V47.1095C82.7248 47.1925 82.6527 47.2577 82.5598 47.3051C82.4689 47.3506 82.3682 47.3733 82.2575 47.3733C82.131 47.3733 82.0174 47.3476 81.9167 47.2962C81.8159 47.2429 81.7359 47.1638 81.6766 47.0591C81.6193 46.9544 81.5906 46.8269 81.5906 46.6768V45.7253H81.8574V46.6412C81.8574 46.8013 81.8979 46.9247 81.9789 47.0117C82.0599 47.0967 82.1706 47.1391 82.3109 47.1391C82.4551 47.1391 82.5687 47.0947 82.6517 47.0058C82.7347 46.9168 82.7762 46.7874 82.7762 46.6175V45.7253H83.0459ZM84.9833 46.4752C84.9833 46.5266 84.9803 46.5809 84.9744 46.6382H83.6762C83.6861 46.7983 83.7404 46.9238 83.8392 47.0147C83.94 47.1036 84.0615 47.148 84.2038 47.148C84.3204 47.148 84.4172 47.1214 84.4942 47.068C84.5733 47.0127 84.6286 46.9396 84.6602 46.8487H84.9507C84.9072 47.0048 84.8203 47.1322 84.6899 47.231C84.5594 47.3278 84.3974 47.3763 84.2038 47.3763C84.0496 47.3763 83.9113 47.3417 83.7888 47.2725C83.6683 47.2034 83.5734 47.1055 83.5043 46.9791C83.4351 46.8506 83.4005 46.7025 83.4005 46.5345C83.4005 46.3665 83.4341 46.2193 83.5013 46.0929C83.5685 45.9664 83.6624 45.8696 83.7829 45.8024C83.9054 45.7332 84.0457 45.6987 84.2038 45.6987C84.3579 45.6987 84.4942 45.7323 84.6128 45.7994C84.7314 45.8666 84.8222 45.9595 84.8855 46.0781C84.9507 46.1946 84.9833 46.327 84.9833 46.4752ZM84.7047 46.4189C84.7047 46.3162 84.682 46.2282 84.6365 46.1551C84.5911 46.08 84.5288 46.0237 84.4498 45.9862C84.3727 45.9466 84.2868 45.9269 84.1919 45.9269C84.0556 45.9269 83.939 45.9704 83.8422 46.0573C83.7473 46.1442 83.693 46.2648 83.6792 46.4189H84.7047Z" fill="white"/>
<path d="M23.7655 45.2837L23.1668 47.3496H22.8645L22.3843 45.6868L21.8864 47.3496L21.587 47.3525L21.009 45.2837H21.2965L21.7471 47.0354L22.245 45.2837H22.5473L23.0215 47.0295L23.475 45.2837H23.7655ZM25.5426 46.4752C25.5426 46.5266 25.5397 46.5809 25.5337 46.6382H24.2355C24.2454 46.7983 24.2998 46.9238 24.3985 47.0147C24.4993 47.1036 24.6208 47.148 24.7631 47.148C24.8797 47.148 24.9765 47.1214 25.0536 47.068C25.1326 47.0127 25.1879 46.9396 25.2196 46.8487H25.51C25.4666 47.0048 25.3796 47.1322 25.2492 47.231C25.1188 47.3278 24.9568 47.3763 24.7631 47.3763C24.609 47.3763 24.4707 47.3417 24.3482 47.2725C24.2276 47.2034 24.1328 47.1055 24.0636 46.9791C23.9945 46.8506 23.9599 46.7025 23.9599 46.5345C23.9599 46.3665 23.9935 46.2193 24.0607 46.0929C24.1278 45.9664 24.2217 45.8696 24.3422 45.8024C24.4647 45.7332 24.605 45.6987 24.7631 45.6987C24.9172 45.6987 25.0536 45.7323 25.1721 45.7994C25.2907 45.8666 25.3816 45.9595 25.4448 46.0781C25.51 46.1946 25.5426 46.327 25.5426 46.4752ZM25.264 46.4189C25.264 46.3162 25.2413 46.2282 25.1958 46.1551C25.1504 46.08 25.0882 46.0237 25.0091 45.9862C24.9321 45.9466 24.8461 45.9269 24.7513 45.9269C24.6149 45.9269 24.4983 45.9704 24.4015 46.0573C24.3067 46.1442 24.2523 46.2648 24.2385 46.4189H25.264ZM25.7979 46.5315C25.7979 46.3656 25.8315 46.2203 25.8986 46.0958C25.9658 45.9694 26.0577 45.8716 26.1743 45.8024C26.2929 45.7332 26.4252 45.6987 26.5715 45.6987C26.6979 45.6987 26.8155 45.7283 26.9242 45.7876C27.0328 45.8449 27.1158 45.921 27.1731 46.0158V45.1563H27.4458V47.3496H27.1731V47.0443C27.1198 47.1411 27.0408 47.2211 26.936 47.2844C26.8313 47.3456 26.7088 47.3763 26.5685 47.3763C26.4243 47.3763 26.2929 47.3407 26.1743 47.2696C26.0577 47.1984 25.9658 47.0986 25.8986 46.9702C25.8315 46.8418 25.7979 46.6955 25.7979 46.5315ZM27.1731 46.5345C27.1731 46.412 27.1484 46.3053 27.099 46.2144C27.0496 46.1235 26.9825 46.0543 26.8975 46.0069C26.8145 45.9575 26.7226 45.9328 26.6218 45.9328C26.5211 45.9328 26.4292 45.9565 26.3462 46.004C26.2632 46.0514 26.197 46.1205 26.1476 46.2114C26.0982 46.3023 26.0735 46.409 26.0735 46.5315C26.0735 46.656 26.0982 46.7647 26.1476 46.8576C26.197 46.9485 26.2632 47.0186 26.3462 47.068C26.4292 47.1154 26.5211 47.1391 26.6218 47.1391C26.7226 47.1391 26.8145 47.1154 26.8975 47.068C26.9825 47.0186 27.0496 46.9485 27.099 46.8576C27.1484 46.7647 27.1731 46.657 27.1731 46.5345Z" fill="#A4A8AB"/>
<path d="M90.1088 45.2837L89.51 47.3496H89.2077L88.7276 45.6868L88.2296 47.3496L87.9303 47.3525L87.3523 45.2837H87.6398L88.0903 47.0354L88.5883 45.2837H88.8906L89.3648 47.0295L89.8183 45.2837H90.1088ZM91.8859 46.4752C91.8859 46.5266 91.8829 46.5809 91.877 46.6382H90.5788C90.5887 46.7983 90.643 46.9238 90.7418 47.0147C90.8426 47.1036 90.9641 47.148 91.1064 47.148C91.223 47.148 91.3198 47.1214 91.3968 47.068C91.4759 47.0127 91.5312 46.9396 91.5628 46.8487H91.8533C91.8098 47.0048 91.7229 47.1322 91.5925 47.231C91.462 47.3278 91.3 47.3763 91.1064 47.3763C90.9522 47.3763 90.8139 47.3417 90.6914 47.2725C90.5709 47.2034 90.476 47.1055 90.4069 46.9791C90.3377 46.8506 90.3031 46.7025 90.3031 46.5345C90.3031 46.3665 90.3367 46.2193 90.4039 46.0929C90.4711 45.9664 90.565 45.8696 90.6855 45.8024C90.808 45.7332 90.9483 45.6987 91.1064 45.6987C91.2605 45.6987 91.3968 45.7323 91.5154 45.7994C91.634 45.8666 91.7248 45.9595 91.7881 46.0781C91.8533 46.1946 91.8859 46.327 91.8859 46.4752ZM91.6073 46.4189C91.6073 46.3162 91.5846 46.2282 91.5391 46.1551C91.4937 46.08 91.4314 46.0237 91.3524 45.9862C91.2753 45.9466 91.1894 45.9269 91.0945 45.9269C90.9582 45.9269 90.8416 45.9704 90.7448 46.0573C90.6499 46.1442 90.5956 46.2648 90.5818 46.4189H91.6073ZM92.1411 46.5315C92.1411 46.3656 92.1747 46.2203 92.2419 46.0958C92.3091 45.9694 92.401 45.8716 92.5176 45.8024C92.6361 45.7332 92.7685 45.6987 92.9147 45.6987C93.0412 45.6987 93.1588 45.7283 93.2674 45.7876C93.3761 45.8449 93.4591 45.921 93.5164 46.0158V45.1563H93.7891V47.3496H93.5164V47.0443C93.4631 47.1411 93.384 47.2211 93.2793 47.2844C93.1746 47.3456 93.0521 47.3763 92.9118 47.3763C92.7675 47.3763 92.6361 47.3407 92.5176 47.2696C92.401 47.1984 92.3091 47.0986 92.2419 46.9702C92.1747 46.8418 92.1411 46.6955 92.1411 46.5315ZM93.5164 46.5345C93.5164 46.412 93.4917 46.3053 93.4423 46.2144C93.3929 46.1235 93.3257 46.0543 93.2408 46.0069C93.1578 45.9575 93.0659 45.9328 92.9651 45.9328C92.8643 45.9328 92.7725 45.9565 92.6895 46.004C92.6065 46.0514 92.5403 46.1205 92.4909 46.2114C92.4415 46.3023 92.4168 46.409 92.4168 46.5315C92.4168 46.656 92.4415 46.7647 92.4909 46.8576C92.5403 46.9485 92.6065 47.0186 92.6895 47.068C92.7725 47.1154 92.8643 47.1391 92.9651 47.1391C93.0659 47.1391 93.1578 47.1154 93.2408 47.068C93.3257 47.0186 93.3929 46.9485 93.4423 46.8576C93.4917 46.7647 93.5164 46.657 93.5164 46.5345Z" fill="#A4A8AB"/>
<path d="M31.6937 45.2837V45.503H31.1306V47.3496H30.8608V45.503H30.2947V45.2837H31.6937ZM32.8319 45.6957C32.9544 45.6957 33.0651 45.7224 33.1639 45.7757C33.2627 45.8271 33.3397 45.9052 33.3951 46.0099C33.4524 46.1146 33.481 46.2421 33.481 46.3922V47.3496H33.2143V46.4308C33.2143 46.2687 33.1737 46.1452 33.0927 46.0603C33.0117 45.9733 32.9011 45.9299 32.7608 45.9299C32.6185 45.9299 32.5049 45.9743 32.4199 46.0632C32.3369 46.1521 32.2954 46.2816 32.2954 46.4515V47.3496H32.0257V45.1563H32.2954V45.9565C32.3488 45.8735 32.4219 45.8093 32.5148 45.7639C32.6096 45.7184 32.7153 45.6957 32.8319 45.6957ZM35.3621 45.7253V47.3496H35.0923V47.1095C35.041 47.1925 34.9689 47.2577 34.876 47.3051C34.7851 47.3506 34.6843 47.3733 34.5737 47.3733C34.4472 47.3733 34.3336 47.3476 34.2328 47.2962C34.132 47.2429 34.052 47.1638 33.9927 47.0591C33.9354 46.9544 33.9068 46.8269 33.9068 46.6768V45.7253H34.1735V46.6412C34.1735 46.8013 34.214 46.9247 34.295 47.0117C34.3761 47.0967 34.4867 47.1391 34.627 47.1391C34.7713 47.1391 34.8849 47.0947 34.9679 47.0058C35.0509 46.9168 35.0923 46.7874 35.0923 46.6175V45.7253H35.3621Z" fill="#A4A8AB"/>
<path d="M97.7616 45.2837V45.503H97.1984V47.3496H96.9287V45.503H96.3626V45.2837H97.7616ZM98.8998 45.6957C99.0223 45.6957 99.1329 45.7224 99.2317 45.7757C99.3305 45.8271 99.4076 45.9052 99.4629 46.0099C99.5202 46.1146 99.5489 46.2421 99.5489 46.3922V47.3496H99.2821V46.4308C99.2821 46.2687 99.2416 46.1452 99.1606 46.0603C99.0796 45.9733 98.9689 45.9299 98.8286 45.9299C98.6864 45.9299 98.5728 45.9743 98.4878 46.0632C98.4048 46.1521 98.3633 46.2816 98.3633 46.4515V47.3496H98.0936V45.1563H98.3633V45.9565C98.4167 45.8735 98.4898 45.8093 98.5826 45.7639C98.6775 45.7184 98.7832 45.6957 98.8998 45.6957ZM101.43 45.7253V47.3496H101.16V47.1095C101.109 47.1925 101.037 47.2577 100.944 47.3051C100.853 47.3506 100.752 47.3733 100.642 47.3733C100.515 47.3733 100.401 47.3476 100.301 47.2962C100.2 47.2429 100.12 47.1638 100.061 47.0591C100.003 46.9544 99.9746 46.8269 99.9746 46.6768V45.7253H100.241V46.6412C100.241 46.8013 100.282 46.9247 100.363 47.0117C100.444 47.0967 100.555 47.1391 100.695 47.1391C100.839 47.1391 100.953 47.0947 101.036 47.0058C101.119 46.9168 101.16 46.7874 101.16 46.6175V45.7253H101.43Z" fill="#A4A8AB"/>
<path d="M40.7075 45.2837V45.503H39.8095V46.1996H40.5386V46.4189H39.8095V47.3496H39.5397V45.2837H40.7075ZM41.303 45.9891C41.3504 45.8963 41.4176 45.8241 41.5045 45.7728C41.5935 45.7214 41.7012 45.6957 41.8276 45.6957V45.9743H41.7565C41.4542 45.9743 41.303 46.1383 41.303 46.4663V47.3496H41.0333V45.7253H41.303V45.9891ZM42.2783 45.4616C42.2269 45.4616 42.1834 45.4438 42.1479 45.4082C42.1123 45.3726 42.0945 45.3292 42.0945 45.2778C42.0945 45.2264 42.1123 45.1829 42.1479 45.1474C42.1834 45.1118 42.2269 45.094 42.2783 45.094C42.3277 45.094 42.3692 45.1118 42.4028 45.1474C42.4383 45.1829 42.4561 45.2264 42.4561 45.2778C42.4561 45.3292 42.4383 45.3726 42.4028 45.4082C42.3692 45.4438 42.3277 45.4616 42.2783 45.4616ZM42.4087 45.7253V47.3496H42.139V45.7253H42.4087Z" fill="#A4A8AB"/>
<path d="M47.3806 47.3703C47.2443 47.3703 47.1218 47.3466 47.0131 47.2992C46.9064 47.2498 46.8224 47.1826 46.7611 47.0976C46.6999 47.0107 46.6683 46.9109 46.6663 46.7983H46.9538C46.9637 46.8951 47.0032 46.9771 47.0724 47.0443C47.1435 47.1095 47.2462 47.1421 47.3806 47.1421C47.509 47.1421 47.6098 47.1105 47.6829 47.0473C47.758 46.9821 47.7956 46.8991 47.7956 46.7983C47.7956 46.7192 47.7738 46.655 47.7304 46.6056C47.6869 46.5562 47.6325 46.5187 47.5673 46.493C47.5021 46.4673 47.4142 46.4397 47.3035 46.41C47.1672 46.3744 47.0575 46.3389 46.9745 46.3033C46.8935 46.2677 46.8234 46.2124 46.7641 46.1373C46.7068 46.0603 46.6782 45.9575 46.6782 45.8291C46.6782 45.7164 46.7068 45.6167 46.7641 45.5297C46.8214 45.4428 46.9014 45.3756 47.0042 45.3282C47.1089 45.2808 47.2285 45.257 47.3628 45.257C47.5565 45.257 47.7145 45.3055 47.8371 45.4023C47.9615 45.4991 48.0317 45.6275 48.0475 45.7876H47.7511C47.7412 45.7085 47.6997 45.6394 47.6266 45.5801C47.5535 45.5189 47.4567 45.4882 47.3361 45.4882C47.2235 45.4882 47.1316 45.5179 47.0605 45.5771C46.9894 45.6344 46.9538 45.7155 46.9538 45.8202C46.9538 45.8953 46.9745 45.9565 47.016 46.004C47.0595 46.0514 47.1119 46.0879 47.1731 46.1136C47.2364 46.1373 47.3243 46.165 47.4369 46.1966C47.5733 46.2342 47.6829 46.2717 47.7659 46.3092C47.8489 46.3448 47.92 46.4011 47.9793 46.4782C48.0386 46.5533 48.0682 46.656 48.0682 46.7864C48.0682 46.8872 48.0416 46.9821 47.9882 47.071C47.9349 47.1599 47.8558 47.232 47.7511 47.2873C47.6464 47.3427 47.5229 47.3703 47.3806 47.3703ZM48.3644 46.5315C48.3644 46.3656 48.398 46.2203 48.4652 46.0958C48.5323 45.9694 48.6242 45.8716 48.7408 45.8024C48.8594 45.7332 48.9908 45.6987 49.135 45.6987C49.2773 45.6987 49.4008 45.7293 49.5055 45.7905C49.6102 45.8518 49.6883 45.9289 49.7396 46.0217V45.7253H50.0123V47.3496H49.7396V47.0473C49.6863 47.1421 49.6063 47.2211 49.4996 47.2844C49.3948 47.3456 49.2723 47.3763 49.132 47.3763C48.9878 47.3763 48.8574 47.3407 48.7408 47.2696C48.6242 47.1984 48.5323 47.0986 48.4652 46.9702C48.398 46.8418 48.3644 46.6955 48.3644 46.5315ZM49.7396 46.5345C49.7396 46.412 49.7149 46.3053 49.6655 46.2144C49.6161 46.1235 49.549 46.0543 49.464 46.0069C49.381 45.9575 49.2891 45.9328 49.1884 45.9328C49.0876 45.9328 48.9957 45.9565 48.9127 46.004C48.8297 46.0514 48.7635 46.1205 48.7141 46.2114C48.6647 46.3023 48.64 46.409 48.64 46.5315C48.64 46.656 48.6647 46.7647 48.7141 46.8576C48.7635 46.9485 48.8297 47.0186 48.9127 47.068C48.9957 47.1154 49.0876 47.1391 49.1884 47.1391C49.2891 47.1391 49.381 47.1154 49.464 47.068C49.549 47.0186 49.6161 46.9485 49.6655 46.8576C49.7149 46.7647 49.7396 46.657 49.7396 46.5345ZM50.7971 45.9476V46.905C50.7971 46.984 50.8139 47.0403 50.8475 47.0739C50.8811 47.1055 50.9394 47.1214 51.0224 47.1214H51.221V47.3496H50.9779C50.8278 47.3496 50.7151 47.315 50.64 47.2458C50.5649 47.1767 50.5274 47.0631 50.5274 46.905V45.9476H50.317V45.7253H50.5274V45.3163H50.7971V45.7253H51.221V45.9476H50.7971Z" fill="#A4A8AB"/>
<path d="M55.7846 47.3703C55.6482 47.3703 55.5257 47.3466 55.4171 47.2992C55.3104 47.2498 55.2264 47.1826 55.1651 47.0976C55.1039 47.0107 55.0722 46.9109 55.0703 46.7983H55.3578C55.3677 46.8951 55.4072 46.9771 55.4763 47.0443C55.5475 47.1095 55.6502 47.1421 55.7846 47.1421C55.913 47.1421 56.0138 47.1105 56.0869 47.0473C56.162 46.9821 56.1995 46.8991 56.1995 46.7983C56.1995 46.7192 56.1778 46.655 56.1343 46.6056C56.0909 46.5562 56.0365 46.5187 55.9713 46.493C55.9061 46.4673 55.8182 46.4397 55.7075 46.41C55.5712 46.3744 55.4615 46.3389 55.3785 46.3033C55.2975 46.2677 55.2274 46.2124 55.1681 46.1373C55.1108 46.0603 55.0821 45.9575 55.0821 45.8291C55.0821 45.7164 55.1108 45.6167 55.1681 45.5297C55.2254 45.4428 55.3054 45.3756 55.4082 45.3282C55.5129 45.2808 55.6324 45.257 55.7668 45.257C55.9604 45.257 56.1185 45.3055 56.241 45.4023C56.3655 45.4991 56.4357 45.6275 56.4515 45.7876H56.1551C56.1452 45.7085 56.1037 45.6394 56.0306 45.5801C55.9575 45.5189 55.8607 45.4882 55.7401 45.4882C55.6275 45.4882 55.5356 45.5179 55.4645 45.5771C55.3933 45.6344 55.3578 45.7155 55.3578 45.8202C55.3578 45.8953 55.3785 45.9565 55.42 46.004C55.4635 46.0514 55.5158 46.0879 55.5771 46.1136C55.6403 46.1373 55.7283 46.165 55.8409 46.1966C55.9772 46.2342 56.0869 46.2717 56.1699 46.3092C56.2529 46.3448 56.324 46.4011 56.3833 46.4782C56.4426 46.5533 56.4722 46.656 56.4722 46.7864C56.4722 46.8872 56.4455 46.9821 56.3922 47.071C56.3388 47.1599 56.2598 47.232 56.1551 47.2873C56.0503 47.3427 55.9268 47.3703 55.7846 47.3703ZM58.3096 45.7253V47.3496H58.0399V47.1095C57.9885 47.1925 57.9164 47.2577 57.8235 47.3051C57.7326 47.3506 57.6318 47.3733 57.5212 47.3733C57.3947 47.3733 57.2811 47.3476 57.1803 47.2962C57.0796 47.2429 56.9995 47.1638 56.9403 47.0591C56.883 46.9544 56.8543 46.8269 56.8543 46.6768V45.7253H57.1211V46.6412C57.1211 46.8013 57.1616 46.9247 57.2426 47.0117C57.3236 47.0967 57.4342 47.1391 57.5745 47.1391C57.7188 47.1391 57.8324 47.0947 57.9154 47.0058C57.9984 46.9168 58.0399 46.7874 58.0399 46.6175V45.7253H58.3096ZM59.5564 45.6957C59.754 45.6957 59.914 45.756 60.0365 45.8765C60.159 45.9951 60.2203 46.167 60.2203 46.3922V47.3496H59.9535V46.4308C59.9535 46.2687 59.913 46.1452 59.832 46.0603C59.751 45.9733 59.6404 45.9299 59.5001 45.9299C59.3578 45.9299 59.2442 45.9743 59.1592 46.0632C59.0762 46.1521 59.0347 46.2816 59.0347 46.4515V47.3496H58.765V45.7253H59.0347V45.9565C59.0881 45.8735 59.1602 45.8093 59.2511 45.7639C59.344 45.7184 59.4457 45.6957 59.5564 45.6957Z" fill="#A4A8AB"/>
<path d="M65.0264 45.2985V47.3496H64.7567V45.8202L64.075 47.3496H63.8853L63.2006 45.8172V47.3496H62.9309V45.2985H63.2214L63.9801 46.9939L64.7389 45.2985H65.0264ZM66.1922 47.3763C66.04 47.3763 65.9017 47.3417 65.7772 47.2725C65.6547 47.2034 65.5579 47.1055 65.4868 46.9791C65.4176 46.8506 65.383 46.7025 65.383 46.5345C65.383 46.3685 65.4186 46.2223 65.4897 46.0958C65.5628 45.9674 65.6616 45.8696 65.7861 45.8024C65.9106 45.7332 66.0499 45.6987 66.204 45.6987C66.3582 45.6987 66.4975 45.7332 66.622 45.8024C66.7464 45.8696 66.8443 45.9664 66.9154 46.0929C66.9885 46.2193 67.0251 46.3665 67.0251 46.5345C67.0251 46.7025 66.9875 46.8506 66.9124 46.9791C66.8393 47.1055 66.7395 47.2034 66.6131 47.2725C66.4866 47.3417 66.3463 47.3763 66.1922 47.3763ZM66.1922 47.1391C66.289 47.1391 66.3799 47.1164 66.4649 47.071C66.5498 47.0255 66.618 46.9574 66.6694 46.8665C66.7227 46.7756 66.7494 46.6649 66.7494 46.5345C66.7494 46.4041 66.7237 46.2934 66.6723 46.2025C66.621 46.1116 66.5538 46.0445 66.4708 46.001C66.3878 45.9555 66.2979 45.9328 66.2011 45.9328C66.1023 45.9328 66.0114 45.9555 65.9284 46.001C65.8474 46.0445 65.7822 46.1116 65.7328 46.2025C65.6834 46.2934 65.6587 46.4041 65.6587 46.5345C65.6587 46.6669 65.6824 46.7785 65.7298 46.8694C65.7792 46.9603 65.8444 47.0285 65.9254 47.0739C66.0064 47.1174 66.0954 47.1391 66.1922 47.1391ZM68.1711 45.6957C68.3687 45.6957 68.5287 45.756 68.6512 45.8765C68.7737 45.9951 68.835 46.167 68.835 46.3922V47.3496H68.5682V46.4308C68.5682 46.2687 68.5277 46.1452 68.4467 46.0603C68.3657 45.9733 68.255 45.9299 68.1147 45.9299C67.9725 45.9299 67.8589 45.9743 67.7739 46.0632C67.6909 46.1521 67.6494 46.2816 67.6494 46.4515V47.3496H67.3797V45.7253H67.6494V45.9565C67.7028 45.8735 67.7749 45.8093 67.8658 45.7639C67.9586 45.7184 68.0604 45.6957 68.1711 45.6957Z" fill="#A4A8AB"/>
<path d="M7.21704 42.9763C7.49232 40.7332 8.86874 36.4392 12.1721 37.2082C15.2002 37.9132 17.0486 40.2295 18.6413 36.5215C19.8801 33.6375 19.8801 30.6161 23.3211 32.1268C26.7621 33.6375 26.7621 31.4401 27.1751 30.6161C27.588 29.7921 28.1385 23.7493 31.8549 23.7493C35.5712 23.7493 36.5347 26.496 36.81 28.4187C37.0852 30.3414 36.9476 35.2855 40.3886 34.8735C43.8297 34.4615 43.4167 31.0281 45.8943 30.6161C48.3718 30.2041 49.1977 32.8134 50.8494 35.1481C52.5011 37.4828 54.841 37.3455 55.9421 34.8735C57.0432 32.4014 58.0067 26.084 62.2736 26.3587C64.8029 26.5215 66.2645 30.8107 68.1669 31.8713C70.1192 32.9598 71.287 30.3607 72.1838 28.2814C74.3861 23.1754 77.0013 25.6913 78.1024 30.6161C79.2035 35.5409 83.2854 36.5215 85.3974 32.4014C87.5093 28.2814 91.5912 31.3028 92.5547 33.8827C93.5182 36.4627 96.684 39.4055 98.0604 35.0108" stroke="#2873FF" stroke-width="0.370492" stroke-linecap="round"/>
<path d="M18.6413 36.5215C17.0486 40.2295 15.2002 37.9132 12.1721 37.2082C8.86878 36.4392 7.49235 40.7332 7.21704 42.9763L98.0604 42.9762V35.0108C96.684 39.4055 93.5182 36.4627 92.5547 33.8827C91.5912 31.3028 87.5093 28.2814 85.3974 32.4014C83.2854 36.5215 79.2035 35.5409 78.1024 30.6161C77.0013 25.6913 74.3861 23.1754 72.1838 28.2814C71.287 30.3607 69.9815 32.8831 68.1669 31.8713C66.2645 30.8107 64.8029 26.5215 62.2736 26.3587C58.0067 26.084 57.0432 32.4014 55.9421 34.8735C54.841 37.3455 52.5011 37.4828 50.8494 35.1481C49.1977 32.8134 48.3718 30.2041 45.8943 30.6161C43.4167 31.0281 43.8297 34.4615 40.3886 34.8735C36.9476 35.2855 37.0852 30.3414 36.81 28.4187C36.5347 26.496 35.5712 23.7493 31.8549 23.7493C28.1385 23.7493 27.588 29.7921 27.1751 30.6161C26.7621 31.4401 26.7621 33.6375 23.3211 32.1268C19.8801 30.6161 19.8801 33.6375 18.6413 36.5215Z" fill="url(#paint0_linear_1207_41949)" fill-opacity="0.5"/>
<rect x="69.1558" y="43.5256" width="8.53377" height="29.939" transform="rotate(-180 69.1558 43.5256)" fill="url(#paint1_linear_1207_41949)" fill-opacity="0.2"/>
<line x1="65.2116" y1="15.9692" x2="65.2116" y2="42.791" stroke="#2873FF" stroke-width="0.370492" stroke-linecap="round" stroke-dasharray="2.22 2.22"/>
<path d="M65.0263 26.4896C66.0922 26.4896 66.9585 27.3521 66.9585 28.4187C66.9585 29.4853 66.0922 30.3478 65.0263 30.3478C63.9604 30.3478 63.0942 29.4853 63.0942 28.4187C63.0942 27.3521 63.9604 26.4896 65.0263 26.4896Z" fill="#2873FF" stroke="#1D252F" stroke-width="1.11148"/>
<ellipse cx="0.550565" cy="0.54934" rx="0.550565" ry="0.54934" transform="matrix(1 0 0 -1 64.4758 28.9681)" fill="white"/>
<path d="M9.9735 8.57626C10.2067 8.61973 10.3983 8.73631 10.5485 8.92601C10.6987 9.1157 10.7738 9.33305 10.7738 9.57807C10.7738 9.79938 10.7184 9.995 10.6078 10.1649C10.5011 10.3309 10.345 10.4613 10.1395 10.5562C9.93398 10.651 9.69094 10.6984 9.41035 10.6984H7.62606V6.56079H9.33329C9.61388 6.56079 9.85494 6.60623 10.0565 6.69713C10.262 6.78802 10.4161 6.91448 10.5189 7.07651C10.6256 7.23854 10.6789 7.4223 10.6789 7.6278C10.6789 7.86887 10.6137 8.07042 10.4833 8.23245C10.3568 8.39447 10.1869 8.50908 9.9735 8.57626ZM8.45597 8.26801H9.21473C9.41233 8.26801 9.56448 8.22454 9.67118 8.1376C9.77788 8.04671 9.83123 7.91827 9.83123 7.75229C9.83123 7.58631 9.77788 7.45787 9.67118 7.36698C9.56448 7.27608 9.41233 7.23064 9.21473 7.23064H8.45597V8.26801ZM9.2918 10.0227C9.49334 10.0227 9.64944 9.97524 9.7601 9.88039C9.8747 9.78555 9.93201 9.65118 9.93201 9.4773C9.93201 9.29946 9.87273 9.16115 9.75417 9.06235C9.63561 8.9596 9.47556 8.90822 9.27401 8.90822H8.45597V10.0227H9.2918ZM11.2218 9.04456C11.2218 8.7126 11.287 8.41819 11.4174 8.16131C11.5518 7.90444 11.7316 7.70684 11.9568 7.56852C12.186 7.43021 12.4409 7.36105 12.7215 7.36105C12.9666 7.36105 13.18 7.41045 13.3617 7.50925C13.5475 7.60804 13.6957 7.73253 13.8063 7.8827V7.4144H14.6422V10.6984H13.8063V10.2183C13.6996 10.3724 13.5514 10.5008 13.3617 10.6036C13.176 10.7024 12.9606 10.7518 12.7156 10.7518C12.439 10.7518 12.186 10.6807 11.9568 10.5384C11.7316 10.3961 11.5518 10.1965 11.4174 9.93967C11.287 9.67885 11.2218 9.38048 11.2218 9.04456ZM13.8063 9.05642C13.8063 8.85487 13.7668 8.68296 13.6878 8.54069C13.6087 8.39447 13.502 8.28382 13.3677 8.20873C13.2333 8.1297 13.0891 8.09018 12.9349 8.09018C12.7808 8.09018 12.6385 8.12772 12.5081 8.20281C12.3777 8.27789 12.271 8.38855 12.188 8.53477C12.109 8.67704 12.0695 8.84697 12.0695 9.04456C12.0695 9.24216 12.109 9.41604 12.188 9.56622C12.271 9.71244 12.3777 9.82507 12.5081 9.90411C12.6425 9.98314 12.7848 10.0227 12.9349 10.0227C13.0891 10.0227 13.2333 9.98512 13.3677 9.91003C13.502 9.831 13.6087 9.72034 13.6878 9.57807C13.7668 9.43185 13.8063 9.25797 13.8063 9.05642ZM16.2826 6.31182V10.6984H15.4527V6.31182H16.2826ZM16.8892 9.04456C16.8892 8.7126 16.9544 8.41819 17.0848 8.16131C17.2191 7.90444 17.3989 7.70684 17.6242 7.56852C17.8534 7.43021 18.1083 7.36105 18.3889 7.36105C18.6339 7.36105 18.8473 7.41045 19.0291 7.50925C19.2149 7.60804 19.3631 7.73253 19.4737 7.8827V7.4144H20.3095V10.6984H19.4737V10.2183C19.367 10.3724 19.2188 10.5008 19.0291 10.6036C18.8434 10.7024 18.628 10.7518 18.383 10.7518C18.1063 10.7518 17.8534 10.6807 17.6242 10.5384C17.3989 10.3961 17.2191 10.1965 17.0848 9.93967C16.9544 9.67885 16.8892 9.38048 16.8892 9.04456ZM19.4737 9.05642C19.4737 8.85487 19.4342 8.68296 19.3551 8.54069C19.2761 8.39447 19.1694 8.28382 19.035 8.20873C18.9007 8.1297 18.7564 8.09018 18.6023 8.09018C18.4482 8.09018 18.3059 8.12772 18.1755 8.20281C18.0451 8.27789 17.9384 8.38855 17.8554 8.53477C17.7764 8.67704 17.7368 8.84697 17.7368 9.04456C17.7368 9.24216 17.7764 9.41604 17.8554 9.56622C17.9384 9.71244 18.0451 9.82507 18.1755 9.90411C18.3099 9.98314 18.4521 10.0227 18.6023 10.0227C18.7564 10.0227 18.9007 9.98512 19.035 9.91003C19.1694 9.831 19.2761 9.72034 19.3551 9.57807C19.4342 9.43185 19.4737 9.25797 19.4737 9.05642ZM22.9399 7.36698C23.3312 7.36698 23.6473 7.49146 23.8884 7.74043C24.1295 7.98545 24.25 8.32927 24.25 8.77188V10.6984H23.4201V8.88451C23.4201 8.62369 23.3549 8.42411 23.2245 8.2858C23.0941 8.14353 22.9162 8.07239 22.691 8.07239C22.4618 8.07239 22.28 8.14353 22.1456 8.2858C22.0152 8.42411 21.95 8.62369 21.95 8.88451V10.6984H21.1201V7.4144H21.95V7.82342C22.0606 7.68115 22.2009 7.5705 22.3709 7.49146C22.5447 7.40847 22.7344 7.36698 22.9399 7.36698ZM24.8258 9.05642C24.8258 8.71656 24.8949 8.42016 25.0333 8.16724C25.1716 7.91036 25.3632 7.71277 25.6083 7.57445C25.8533 7.43218 26.1339 7.36105 26.45 7.36105C26.8571 7.36105 27.193 7.4638 27.4578 7.6693C27.7265 7.87085 27.9063 8.15538 27.9972 8.52291H27.1021C27.0547 8.38064 26.9737 8.26999 26.859 8.19095C26.7484 8.10796 26.6101 8.06647 26.4441 8.06647C26.207 8.06647 26.0193 8.15341 25.8809 8.32729C25.7426 8.49722 25.6735 8.74027 25.6735 9.05642C25.6735 9.36862 25.7426 9.61166 25.8809 9.78555C26.0193 9.95548 26.207 10.0404 26.4441 10.0404C26.78 10.0404 26.9993 9.89027 27.1021 9.58993H27.9972C27.9063 9.9456 27.7265 10.2282 27.4578 10.4376C27.189 10.6471 26.8531 10.7518 26.45 10.7518C26.1339 10.7518 25.8533 10.6826 25.6083 10.5443C25.3632 10.402 25.1716 10.2045 25.0333 9.95153C24.8949 9.69465 24.8258 9.39628 24.8258 9.05642ZM31.658 8.98529C31.658 9.10384 31.6501 9.21054 31.6343 9.30539H29.2335C29.2533 9.54251 29.3363 9.72825 29.4825 9.86261C29.6287 9.99698 29.8085 10.0642 30.0219 10.0642C30.3302 10.0642 30.5495 9.93177 30.6799 9.66699H31.575C31.4802 9.98314 31.2984 10.244 31.0297 10.4495C30.7609 10.651 30.431 10.7518 30.0397 10.7518C29.7236 10.7518 29.439 10.6826 29.1861 10.5443C28.9371 10.402 28.7415 10.2025 28.5992 9.9456C28.4609 9.68873 28.3918 9.39233 28.3918 9.05642C28.3918 8.71656 28.4609 8.41819 28.5992 8.16131C28.7376 7.90444 28.9312 7.70684 29.1802 7.56852C29.4291 7.43021 29.7157 7.36105 30.0397 7.36105C30.3519 7.36105 30.6305 7.42823 30.8756 7.5626C31.1245 7.69696 31.3162 7.88863 31.4506 8.1376C31.5889 8.38262 31.658 8.66518 31.658 8.98529ZM30.7985 8.74817C30.7945 8.53477 30.7175 8.36483 30.5673 8.23837C30.4171 8.10796 30.2334 8.04275 30.016 8.04275C29.8105 8.04275 29.6366 8.10598 29.4944 8.23245C29.356 8.35495 29.2711 8.52686 29.2395 8.74817H30.7985Z" fill="white"/>
<defs>
<linearGradient id="paint0_linear_1207_41949" x1="52.6387" y1="23.7493" x2="52.6387" y2="42.9763" gradientUnits="userSpaceOnUse">
<stop stop-color="#124CBE" stop-opacity="0.9"/>
<stop offset="1" stop-color="#161D26" stop-opacity="0"/>
</linearGradient>
<linearGradient id="paint1_linear_1207_41949" x1="73.4226" y1="74.1746" x2="73.4226" y2="42.0464" gradientUnits="userSpaceOnUse">
<stop offset="0.230444" stop-color="#1242BE"/>
<stop offset="0.893207" stop-color="#12181F" stop-opacity="0"/>
</linearGradient>
</defs>
</svg>
