<svg xmlns="http://www.w3.org/2000/svg" width="32" height="33" viewBox="0 0 32 33" fill="none" class="me-2">
                 <path d="M16 3.52002C13.4288 3.52002 10.9154 4.28246 8.77759 5.71091C6.63975 7.13937 4.97351 9.16969 3.98957 11.5451C3.00563 13.9206 2.74819 16.5344 3.2498 19.0562C3.75141 21.5779 4.98953 23.8943 6.80762 25.7124C8.6257 27.5305 10.9421 28.7686 13.4638 29.2702C15.9856 29.7718 18.5995 29.5144 20.9749 28.5305C23.3503 27.5465 25.3807 25.8803 26.8091 23.7424C28.2376 21.6046 29 19.0912 29 16.52C28.9964 13.0733 27.6256 9.76884 25.1884 7.33165C22.7512 4.89447 19.4467 3.52366 16 3.52002ZM27 16.52C27.0011 17.9312 26.7295 19.3294 26.2 20.6375L20.6125 17.2013C20.3749 17.0547 20.1092 16.9597 19.8325 16.9225L16.98 16.5375C16.5869 16.4863 16.1875 16.5522 15.8317 16.7269C15.476 16.9017 15.1797 17.1776 14.98 17.52H13.89L13.415 16.5375C13.2837 16.2639 13.0915 16.024 12.8532 15.8362C12.6148 15.6484 12.3367 15.5175 12.04 15.4538L11.04 15.2375L12.0175 13.52H14.1063C14.4442 13.5194 14.7766 13.4334 15.0725 13.27L16.6038 12.425C16.7383 12.35 16.8641 12.2603 16.9788 12.1575L20.3425 9.11502C20.6798 8.81278 20.9039 8.40462 20.978 7.95786C21.0521 7.5111 20.9717 7.05243 20.75 6.65752L20.705 6.57627C22.5873 7.46877 24.1778 8.87676 25.292 10.6368C26.4063 12.3969 26.9985 14.4369 27 16.52ZM17.9138 5.68752L19 7.63252L15.6363 10.675L14.1063 11.52H12.0175C11.6659 11.5195 11.3204 11.6117 11.0158 11.7872C10.7112 11.9628 10.4583 12.2155 10.2825 12.52L9.19126 14.4238L7.92251 11.0438L9.29001 7.81002C10.5004 6.87476 11.8929 6.20264 13.3781 5.83671C14.8633 5.47078 16.4086 5.41912 17.915 5.68502L17.9138 5.68752ZM5.00001 16.52C4.99834 14.885 5.36311 13.2705 6.06751 11.795L7.48501 15.5788C7.60313 15.8921 7.79802 16.1707 8.0518 16.3891C8.30558 16.6075 8.61012 16.7586 8.93751 16.8288L11.6163 17.405L12.0925 18.395C12.2578 18.7317 12.5139 19.0155 12.832 19.2143C13.1501 19.4131 13.5174 19.519 13.8925 19.52H14.0775L13.1738 21.5488C13.0145 21.906 12.9635 22.3021 13.0271 22.688C13.0906 23.0739 13.2659 23.4327 13.5313 23.72L13.5488 23.7375L16 26.2625L15.7575 27.5125C12.8848 27.4457 10.152 26.2588 8.14216 24.2051C6.13236 22.1514 5.00477 19.3935 5.00001 16.52ZM17.8225 27.3675L17.9638 26.6413C18.0218 26.3327 18.0068 26.0149 17.92 25.7132C17.8332 25.4115 17.6769 25.1343 17.4638 24.9038C17.4576 24.8983 17.4518 24.8924 17.4463 24.8863L15 22.3625L16.7125 18.52L19.565 18.905L25.28 22.42C24.452 23.7203 23.3605 24.8325 22.076 25.6847C20.7914 26.5369 19.3424 27.1102 17.8225 27.3675Z" fill="#E2E8F0"/>
                </svg>