<svg width="49" height="48" viewBox="0 0 49 48" fill="none" xmlns="http://www.w3.org/2000/svg">
<path d="M8.5 36V22" stroke="#2873FF" stroke-width="1.5" stroke-miterlimit="10" stroke-linecap="round" stroke-linejoin="round"/>
<path d="M8.5 36V22" stroke="url(#paint0_linear_6923_32411)" stroke-width="1.5" stroke-miterlimit="10" stroke-linecap="round" stroke-linejoin="round"/>
<path d="M16.5 36V22" stroke="#2873FF" stroke-width="1.5" stroke-miterlimit="10" stroke-linecap="round" stroke-linejoin="round"/>
<path d="M16.5 36V22" stroke="url(#paint1_linear_6923_32411)" stroke-width="1.5" stroke-miterlimit="10" stroke-linecap="round" stroke-linejoin="round"/>
<path d="M24.5 36V22" stroke="#2873FF" stroke-width="1.5" stroke-miterlimit="10" stroke-linecap="round" stroke-linejoin="round"/>
<path d="M24.5 36V22" stroke="url(#paint2_linear_6923_32411)" stroke-width="1.5" stroke-miterlimit="10" stroke-linecap="round" stroke-linejoin="round"/>
<path d="M32.5 36V22" stroke="#2873FF" stroke-width="1.5" stroke-miterlimit="10" stroke-linecap="round" stroke-linejoin="round"/>
<path d="M32.5 36V22" stroke="url(#paint3_linear_6923_32411)" stroke-width="1.5" stroke-miterlimit="10" stroke-linecap="round" stroke-linejoin="round"/>
<path d="M40.5 36V22" stroke="#2873FF" stroke-width="1.5" stroke-miterlimit="10" stroke-linecap="round" stroke-linejoin="round"/>
<path d="M40.5 36V22" stroke="url(#paint4_linear_6923_32411)" stroke-width="1.5" stroke-miterlimit="10" stroke-linecap="round" stroke-linejoin="round"/>
<path d="M25.24 4.29969L43.24 11.4996C43.94 11.7796 44.5 12.6196 44.5 13.3596V19.9996C44.5 21.0996 43.6 21.9996 42.5 21.9996H6.5C5.4 21.9996 4.5 21.0996 4.5 19.9996V13.3596C4.5 12.6196 5.06001 11.7796 5.76001 11.4996L23.76 4.29969C24.16 4.13969 24.84 4.13969 25.24 4.29969Z" stroke="url(#paint5_linear_6923_32411)" stroke-width="1.5" stroke-miterlimit="10" stroke-linecap="round" stroke-linejoin="round"/>
<path d="M44.5 44H4.5V38C4.5 36.9 5.4 36 6.5 36H42.5C43.6 36 44.5 36.9 44.5 38V44Z" stroke="url(#paint6_linear_6923_32411)" stroke-width="1.5" stroke-miterlimit="10" stroke-linecap="round" stroke-linejoin="round"/>
<path d="M2.5 44H46.5" stroke="url(#paint7_linear_6923_32411)" stroke-width="1.5" stroke-miterlimit="10" stroke-linecap="round" stroke-linejoin="round"/>
<path d="M24.5 17C26.1569 17 27.5 15.6569 27.5 14C27.5 12.3431 26.1569 11 24.5 11C22.8431 11 21.5 12.3431 21.5 14C21.5 15.6569 22.8431 17 24.5 17Z" stroke="#2873FF" stroke-width="1.5" stroke-miterlimit="10" stroke-linecap="round" stroke-linejoin="round"/>
<path d="M24.5 17C26.1569 17 27.5 15.6569 27.5 14C27.5 12.3431 26.1569 11 24.5 11C22.8431 11 21.5 12.3431 21.5 14C21.5 15.6569 22.8431 17 24.5 17Z" stroke="url(#paint8_linear_6923_32411)" stroke-width="1.5" stroke-miterlimit="10" stroke-linecap="round" stroke-linejoin="round"/>
<defs>
<linearGradient id="paint0_linear_6923_32411" x1="9" y1="22" x2="9" y2="36" gradientUnits="userSpaceOnUse">
<stop stop-color="#2873FF"/>
<stop offset="1" stop-color="#0B6B96"/>
</linearGradient>
<linearGradient id="paint1_linear_6923_32411" x1="17" y1="22" x2="17" y2="36" gradientUnits="userSpaceOnUse">
<stop stop-color="#2873FF"/>
<stop offset="1" stop-color="#0B6B96"/>
</linearGradient>
<linearGradient id="paint2_linear_6923_32411" x1="25" y1="22" x2="25" y2="36" gradientUnits="userSpaceOnUse">
<stop stop-color="#2873FF"/>
<stop offset="1" stop-color="#0B6B96"/>
</linearGradient>
<linearGradient id="paint3_linear_6923_32411" x1="33" y1="22" x2="33" y2="36" gradientUnits="userSpaceOnUse">
<stop stop-color="#2873FF"/>
<stop offset="1" stop-color="#0B6B96"/>
</linearGradient>
<linearGradient id="paint4_linear_6923_32411" x1="41" y1="22" x2="41" y2="36" gradientUnits="userSpaceOnUse">
<stop stop-color="#2873FF"/>
<stop offset="1" stop-color="#0B6B96"/>
</linearGradient>
<linearGradient id="paint5_linear_6923_32411" x1="49.2015" y1="13.0897" x2="-3.48507" y2="13.0897" gradientUnits="userSpaceOnUse">
<stop stop-color="#1DA1DB"/>
<stop offset="1" stop-color="#2873FF"/>
</linearGradient>
<linearGradient id="paint6_linear_6923_32411" x1="49.2015" y1="40" x2="-3.48507" y2="40" gradientUnits="userSpaceOnUse">
<stop stop-color="#1DA1DB"/>
<stop offset="1" stop-color="#2873FF"/>
</linearGradient>
<linearGradient id="paint7_linear_6923_32411" x1="51.6716" y1="44.5" x2="-6.28358" y2="44.5" gradientUnits="userSpaceOnUse">
<stop stop-color="#1DA1DB"/>
<stop offset="1" stop-color="#2873FF"/>
</linearGradient>
<linearGradient id="paint8_linear_6923_32411" x1="24.5" y1="11" x2="24.5" y2="17" gradientUnits="userSpaceOnUse">
<stop stop-color="#2873FF"/>
<stop offset="1" stop-color="#0B6B96"/>
</linearGradient>
</defs>
</svg>
