
                  <svg xmlns="http://www.w3.org/2000/svg" width="25" height="25" viewBox="0 0 18 18" fill="none">
                    <path d="M16.5 14.25V16.5H1.5V14.25C1.5 13.8375 1.8375 13.5 2.25 13.5H15.75C16.1625 13.5 16.5 13.8375 16.5 14.25Z" fill="#8E9BAE" stroke="#8E9BAE" stroke-width="1.5" stroke-miterlimit="10" stroke-linecap="round" stroke-linejoin="round"/>
                    <mask id="path-2-inside-1_11699_53293" fill="white">
                      <path d="M5.25 8.25H3.75V13.5H5.25V8.25Z"/>
                    </mask>
                    <path d="M5.25 8.25H3.75V13.5H5.25V8.25Z" fill="#8E9BAE"/>
                    <path d="M3.75 8.25V6.75H2.25V8.25H3.75ZM5.25 8.25H6.75V6.75H5.25V8.25ZM5.25 13.5V15H6.75V13.5H5.25ZM3.75 13.5H2.25V15H3.75V13.5ZM3.75 9.75H5.25V6.75H3.75V9.75ZM3.75 8.25V13.5H6.75V8.25H3.75ZM5.25 12H3.75V15H5.25V12ZM5.25 13.5V8.25H2.25V13.5H5.25Z" fill="#8E9BAE" mask="url(#path-2-inside-1_11699_53293)"/>
                    <path d="M8.25 8.25H6.75V13.5H8.25V8.25Z" fill="#8E9BAE"/>
                    <path d="M11.25 8.25H9.75V13.5H11.25V8.25Z" fill="#8E9BAE"/>
                    <path d="M14.25 8.25H12.75V13.5H14.25V8.25Z" fill="#8E9BAE"/>
                    <path d="M17.25 17.0625H0.75C0.4425 17.0625 0.1875 16.8075 0.1875 16.5C0.1875 16.1925 0.4425 15.9375 0.75 15.9375H17.25C17.5575 15.9375 17.8125 16.1925 17.8125 16.5C17.8125 16.8075 17.5575 17.0625 17.25 17.0625Z" fill="#8E9BAE"/>
                    <path d="M16.0275 4.31336L9.2775 1.61336C9.1275 1.55336 8.8725 1.55336 8.7225 1.61336L1.9725 4.31336C1.71 4.41836 1.5 4.72586 1.5 5.01086V7.50086C1.5 7.91336 1.8375 8.25086 2.25 8.25086H15.75C16.1625 8.25086 16.5 7.91336 16.5 7.50086V5.01086C16.5 4.72586 16.29 4.41836 16.0275 4.31336ZM9 6.37586C8.3775 6.37586 7.875 5.87336 7.875 5.25086C7.875 4.62836 8.3775 4.12586 9 4.12586C9.6225 4.12586 10.125 4.62836 10.125 5.25086C10.125 5.87336 9.6225 6.37586 9 6.37586Z" fill="#8E9BAE"/>
                  </svg>