<svg xmlns="http://www.w3.org/2000/svg" width="33" height="32" viewBox="0 0 33 32" fill="none">
  <path d="M31.6992 25.9999C31.6992 26.2651 31.5939 26.5195 31.4063 26.707C31.2188 26.8945 30.9644 26.9999 30.6992 26.9999H2.69922C2.434 26.9999 2.17965 26.8945 1.99211 26.707C1.80458 26.5195 1.69922 26.2651 1.69922 25.9999C1.69922 25.7347 1.80458 25.4803 1.99211 25.2928C2.17965 25.1053 2.434 24.9999 2.69922 24.9999H30.6992C30.9644 24.9999 31.2188 25.1053 31.4063 25.2928C31.5939 25.4803 31.6992 25.7347 31.6992 25.9999ZM2.73672 12.2724C2.67724 12.0627 2.68792 11.8393 2.76712 11.6362C2.84632 11.4331 2.98972 11.2615 3.17547 11.1474L16.1755 3.1474C16.333 3.05054 16.5143 2.99927 16.6992 2.99927C16.8841 2.99927 17.0654 3.05054 17.223 3.1474L30.223 11.1474C30.4088 11.2613 30.5523 11.4328 30.6316 11.6359C30.711 11.8389 30.7218 12.0622 30.6625 12.272C30.6032 12.4817 30.477 12.6663 30.3031 12.7977C30.1292 12.9291 29.9172 13.0001 29.6992 12.9999H26.6992V20.9999H28.6992C28.9644 20.9999 29.2188 21.1053 29.4063 21.2928C29.5939 21.4803 29.6992 21.7347 29.6992 21.9999C29.6992 22.2651 29.5939 22.5195 29.4063 22.707C29.2188 22.8945 28.9644 22.9999 28.6992 22.9999H4.69922C4.434 22.9999 4.17965 22.8945 3.99211 22.707C3.80458 22.5195 3.69922 22.2651 3.69922 21.9999C3.69922 21.7347 3.80458 21.4803 3.99211 21.2928C4.17965 21.1053 4.434 20.9999 4.69922 20.9999H6.69922V12.9999H3.69922C3.48145 13 3.26962 12.929 3.09589 12.7977C2.92217 12.6663 2.79606 12.4819 2.73672 12.2724ZM18.6992 19.9999C18.6992 20.2651 18.8046 20.5195 18.9921 20.707C19.1796 20.8945 19.434 20.9999 19.6992 20.9999C19.9644 20.9999 20.2188 20.8945 20.4063 20.707C20.5939 20.5195 20.6992 20.2651 20.6992 19.9999V13.9999C20.6992 13.7347 20.5939 13.4803 20.4063 13.2928C20.2188 13.1053 19.9644 12.9999 19.6992 12.9999C19.434 12.9999 19.1796 13.1053 18.9921 13.2928C18.8046 13.4803 18.6992 13.7347 18.6992 13.9999V19.9999ZM12.6992 19.9999C12.6992 20.2651 12.8046 20.5195 12.9921 20.707C13.1796 20.8945 13.434 20.9999 13.6992 20.9999C13.9644 20.9999 14.2188 20.8945 14.4063 20.707C14.5939 20.5195 14.6992 20.2651 14.6992 19.9999V13.9999C14.6992 13.7347 14.5939 13.4803 14.4063 13.2928C14.2188 13.1053 13.9644 12.9999 13.6992 12.9999C13.434 12.9999 13.1796 13.1053 12.9921 13.2928C12.8046 13.4803 12.6992 13.7347 12.6992 13.9999V19.9999Z" fill="#2873FF"/>
</svg>