<svg xmlns="http://www.w3.org/2000/svg" width="145" height="145" viewBox="0 0 145 145" fill="none">
  <path d="M58.0888 0H52.2992V5.78956H58.0888V0Z" fill="white"/>
  <path d="M52.3002 5.79297H46.5106V11.5825H52.3002V5.79297Z" fill="white"/>
  <path d="M92.4274 5.79297H86.6378V11.5825H92.4274V5.79297Z" fill="white"/>
  <path d="M98.0011 5.79297H92.2115V11.5825H98.0011V5.79297Z" fill="white"/>
  <path d="M58.0888 5.79297H52.2992V11.5825H58.0888V5.79297Z" fill="white"/>
  <path d="M69.669 5.79297H63.8794V11.5825H69.669V5.79297Z" fill="white"/>
  <path d="M75.459 5.79297H69.6694V11.5825H75.459V5.79297Z" fill="white"/>
  <path d="M58.0888 11.582H52.2992V17.3716H58.0888V11.582Z" fill="white"/>
  <path d="M63.8773 11.582H58.0878V17.3716H63.8773V11.582Z" fill="white"/>
  <path d="M69.669 11.582H63.8794V17.3716H69.669V11.582Z" fill="white"/>
  <path d="M87.0363 11.582H81.2467V17.3716H87.0363V11.582Z" fill="white"/>
  <path d="M52.3002 17.3672H46.5106V23.1567H52.3002V17.3672Z" fill="white"/>
  <path d="M92.4275 17.3672H86.6379V23.1567H92.4275V17.3672Z" fill="white"/>
  <path d="M58.0888 17.3672H52.2992V23.1567H58.0888V17.3672Z" fill="white"/>
  <path d="M69.669 17.3672H63.8794V23.1567H69.669V17.3672Z" fill="white"/>
  <path d="M81.2477 17.3672H75.4581V23.1567H81.2477V17.3672Z" fill="white"/>
  <path d="M87.0363 17.3672H81.2467V23.1567H87.0363V17.3672Z" fill="white"/>
  <path d="M63.8772 23.1602H58.0876V28.9497H63.8772V23.1602Z" fill="white"/>
  <path d="M75.459 23.1602H69.6694V28.9497H75.459V23.1602Z" fill="white"/>
  <path d="M98.8672 23.1602H93.0776V28.9497H98.8672V23.1602Z" fill="white"/>
  <path d="M87.0363 23.1602H81.2467V28.9497H87.0363V23.1602Z" fill="white"/>
  <path d="M52.3002 28.9492H46.5106V34.7388H52.3002V28.9492Z" fill="white"/>
  <path d="M92.4275 28.9492H86.6379V34.7388H92.4275V28.9492Z" fill="white"/>
  <path d="M63.8773 28.9492H58.0878V34.7388H63.8773V28.9492Z" fill="white"/>
  <path d="M81.2477 28.9492H75.4581V34.7388H81.2477V28.9492Z" fill="white"/>
  <path d="M52.3002 34.7422H46.5106V40.5317H52.3002V34.7422Z" fill="white"/>
  <path d="M92.4275 34.7422H86.6379V40.5317H92.4275V34.7422Z" fill="white"/>
  <path d="M63.8773 34.7422H58.0878V40.5317H63.8773V34.7422Z" fill="white"/>
  <path d="M75.459 34.7422H69.6694V40.5317H75.459V34.7422Z" fill="white"/>
  <path d="M87.0363 34.7422H81.2467V40.5317H87.0363V34.7422Z" fill="white"/>
  <path d="M75.459 40.5273H69.6694V46.3169H75.459V40.5273Z" fill="white"/>
  <path d="M98.8671 40.5273H93.0775V46.3169H98.8671V40.5273Z" fill="white"/>
  <path d="M87.0363 40.5273H81.2467V46.3169H87.0363V40.5273Z" fill="white"/>
  <path d="M5.98231 46.3164H0.192749V52.106H5.98231V46.3164Z" fill="white"/>
  <path d="M11.7709 46.3164H5.98132V52.106H11.7709V46.3164Z" fill="white"/>
  <path d="M17.5596 46.3164H11.77V52.106H17.5596V46.3164Z" fill="white"/>
  <path d="M23.3511 46.3164H17.5615V52.106H23.3511V46.3164Z" fill="white"/>
  <path d="M29.1398 46.3164H23.3502V52.106H29.1398V46.3164Z" fill="white"/>
  <path d="M40.72 46.3164H34.9304V52.106H40.72V46.3164Z" fill="white"/>
  <path d="M46.5086 46.3164H40.719V52.106H46.5086V46.3164Z" fill="white"/>
  <path d="M52.3002 46.3164H46.5106V52.106H52.3002V46.3164Z" fill="white"/>
  <path d="M58.0888 46.3164H52.2992V52.106H58.0888V46.3164Z" fill="white"/>
  <path d="M63.8773 46.3164H58.0878V52.106H63.8773V46.3164Z" fill="white"/>
  <path d="M75.459 46.3164H69.6694V52.106H75.459V46.3164Z" fill="white"/>
  <path d="M98.8671 46.3164H93.0775V52.106H98.8671V46.3164Z" fill="white"/>
  <path d="M81.2477 46.3164H75.4581V52.106H81.2477V46.3164Z" fill="white"/>
  <path d="M87.0363 46.3164H81.2467V52.106H87.0363V46.3164Z" fill="white"/>
  <path d="M11.7709 52.1094H5.98132V57.8989H11.7709V52.1094Z" fill="white"/>
  <path d="M34.9313 52.1094H29.1417V57.8989H34.9313V52.1094Z" fill="white"/>
  <path d="M58.0888 52.1094H52.2992V57.8989H58.0888V52.1094Z" fill="white"/>
  <path d="M17.5596 57.8984H11.77V63.688H17.5596V57.8984Z" fill="white"/>
  <path d="M23.3511 57.8984H17.5615V63.688H23.3511V57.8984Z" fill="white"/>
  <path d="M34.9313 57.8984H29.1417V63.688H34.9313V57.8984Z" fill="white"/>
  <path d="M40.72 57.8984H34.9304V63.688H40.72V57.8984Z" fill="white"/>
  <path d="M46.5086 57.8984H40.719V63.688H46.5086V57.8984Z" fill="white"/>
  <path d="M52.3002 57.8984H46.5106V63.688H52.3002V57.8984Z" fill="white"/>
  <path d="M58.0888 57.8984H52.2992V63.688H58.0888V57.8984Z" fill="white"/>
  <path d="M69.669 57.8984H63.8794V63.688H69.669V57.8984Z" fill="white"/>
  <path d="M75.459 57.8984H69.6694V63.688H75.459V57.8984Z" fill="white"/>
  <path d="M81.2477 57.8984H75.4581V63.688H81.2477V57.8984Z" fill="white"/>
  <path d="M87.0363 57.8984H81.2467V63.688H87.0363V57.8984Z" fill="white"/>
  <path d="M92.8279 57.8984H87.0383V63.688H92.8279V57.8984Z" fill="white"/>
  <path d="M98.6165 57.8984H92.8269V63.688H98.6165V57.8984Z" fill="white"/>
  <path d="M104.408 57.8984H98.6185V63.688H104.408V57.8984Z" fill="white"/>
  <path d="M110.197 57.8984H104.407V63.688H110.197V57.8984Z" fill="white"/>
  <path d="M121.777 57.8984H115.987V63.688H121.777V57.8984Z" fill="white"/>
  <path d="M127.565 57.8984H121.776V63.688H127.565V57.8984Z" fill="white"/>
  <path d="M139.146 57.8984H133.356V63.688H139.146V57.8984Z" fill="white"/>
  <path d="M144.934 57.8984H139.145V63.688H144.934V57.8984Z" fill="white"/>
  <path d="M17.5596 63.6914H11.77V69.481H17.5596V63.6914Z" fill="white"/>
  <path d="M23.3511 63.6914H17.5615V69.481H23.3511V63.6914Z" fill="white"/>
  <path d="M52.3002 63.6914H46.5106V69.481H52.3002V63.6914Z" fill="white"/>
  <path d="M58.0888 63.6914H52.2992V69.481H58.0888V63.6914Z" fill="white"/>
  <path d="M63.8772 63.6914H58.0876V69.481H63.8772V63.6914Z" fill="white"/>
  <path d="M69.669 63.6914H63.8794V69.481H69.669V63.6914Z" fill="white"/>
  <path d="M92.8279 63.6914H87.0383V69.481H92.8279V63.6914Z" fill="white"/>
  <path d="M98.6165 63.6914H92.8269V69.481H98.6165V63.6914Z" fill="white"/>
  <path d="M104.408 63.6914H98.6185V69.481H104.408V63.6914Z" fill="white"/>
  <path d="M110.197 63.6914H104.407V69.481H110.197V63.6914Z" fill="white"/>
  <path d="M115.988 63.6914H110.199V69.481H115.988V63.6914Z" fill="white"/>
  <path d="M121.777 63.6914H115.987V69.481H121.777V63.6914Z" fill="white"/>
  <path d="M144.934 63.6914H139.145V69.481H144.934V63.6914Z" fill="white"/>
  <path d="M34.9313 69.4766H29.1417V75.2661H34.9313V69.4766Z" fill="white"/>
  <path d="M40.72 69.4766H34.9304V75.2661H40.72V69.4766Z" fill="white"/>
  <path d="M58.0888 69.4766H52.2992V75.2661H58.0888V69.4766Z" fill="white"/>
  <path d="M69.669 69.4766H63.8794V75.2661H69.669V69.4766Z" fill="white"/>
  <path d="M87.0363 69.4766H81.2467V75.2661H87.0363V69.4766Z" fill="white"/>
  <path d="M92.8279 69.4766H87.0383V75.2661H92.8279V69.4766Z" fill="white"/>
  <path d="M104.408 69.4766H98.6185V75.2661H104.408V69.4766Z" fill="white"/>
  <path d="M110.197 69.4766H104.407V75.2661H110.197V69.4766Z" fill="white"/>
  <path d="M121.777 69.4766H115.987V75.2661H121.777V69.4766Z" fill="white"/>
  <path d="M133.357 69.4766H127.568V75.2661H133.357V69.4766Z" fill="white"/>
  <path d="M139.146 69.4766H133.356V75.2661H139.146V69.4766Z" fill="white"/>
  <path d="M144.934 69.4766H139.145V75.2661H144.934V69.4766Z" fill="white"/>
  <path d="M5.98218 75.2656H0.192627V81.0552H5.98218V75.2656Z" fill="white"/>
  <path d="M11.7711 75.2656H5.98157V81.0552H11.7711V75.2656Z" fill="white"/>
  <path d="M17.5596 75.2656H11.77V81.0552H17.5596V75.2656Z" fill="white"/>
  <path d="M29.1398 75.2656H23.3502V81.0552H29.1398V75.2656Z" fill="white"/>
  <path d="M52.3002 75.2656H46.5106V81.0552H52.3002V75.2656Z" fill="white"/>
  <path d="M58.0888 75.2656H52.2992V81.0552H58.0888V75.2656Z" fill="white"/>
  <path d="M63.8772 75.2656H58.0876V81.0552H63.8772V75.2656Z" fill="white"/>
  <path d="M75.459 75.2656H69.6694V81.0552H75.459V75.2656Z" fill="white"/>
  <path d="M98.6165 75.2656H92.8269V81.0552H98.6165V75.2656Z" fill="white"/>
  <path d="M127.565 75.2656H121.776V81.0552H127.565V75.2656Z" fill="white"/>
  <path d="M139.146 75.2656H133.356V81.0552H139.146V75.2656Z" fill="white"/>
  <path d="M5.98231 81.0586H0.192749V86.8482H5.98231V81.0586Z" fill="white"/>
  <path d="M17.5596 81.0586H11.77V86.8482H17.5596V81.0586Z" fill="white"/>
  <path d="M23.3511 81.0586H17.5615V86.8482H23.3511V81.0586Z" fill="white"/>
  <path d="M34.9313 81.0586H29.1417V86.8482H34.9313V81.0586Z" fill="white"/>
  <path d="M40.72 81.0586H34.9304V86.8482H40.72V81.0586Z" fill="white"/>
  <path d="M92.8279 81.0586H87.0383V86.8482H92.8279V81.0586Z" fill="white"/>
  <path d="M98.6165 81.0586H92.8269V86.8482H98.6165V81.0586Z" fill="white"/>
  <path d="M110.197 86.6289H104.407V92.4185H110.197V86.6289Z" fill="white"/>
  <path d="M127.565 81.0586H121.776V86.8482H127.565V81.0586Z" fill="white"/>
  <path d="M139.146 81.0586H133.356V86.8482H139.146V81.0586Z" fill="white"/>
  <path d="M144.934 81.0586H139.145V86.8482H144.934V81.0586Z" fill="white"/>
  <path d="M5.98218 86.8477H0.192627V92.6372H5.98218V86.8477Z" fill="white"/>
  <path d="M52.3002 86.8477H46.5106V92.6372H52.3002V86.8477Z" fill="white"/>
  <path d="M75.459 86.8477H69.6694V92.6372H75.459V86.8477Z" fill="white"/>
  <path d="M87.0363 86.8477H81.2467V92.6372H87.0363V86.8477Z" fill="white"/>
  <path d="M92.8279 86.8477H87.0383V92.6372H92.8279V86.8477Z" fill="white"/>
  <path d="M98.6165 86.8477H92.8269V92.6372H98.6165V86.8477Z" fill="white"/>
  <path d="M104.408 86.8477H98.6185V92.6372H104.408V86.8477Z" fill="white"/>
  <path d="M110.197 92.4219H104.407V98.2114H110.197V92.4219Z" fill="white"/>
  <path d="M115.988 86.8477H110.199V92.6372H115.988V86.8477Z" fill="white"/>
  <path d="M121.777 86.8477H115.987V92.6372H121.777V86.8477Z" fill="white"/>
  <path d="M127.565 86.8477H121.776V92.6372H127.565V86.8477Z" fill="white"/>
  <path d="M144.934 86.8477H139.145V92.6372H144.934V86.8477Z" fill="white"/>
  <path d="M5.98218 92.6367H0.192627V98.4263H5.98218V92.6367Z" fill="white"/>
  <path d="M23.3511 92.6367H17.5615V98.4263H23.3511V92.6367Z" fill="white"/>
  <path d="M29.1398 92.6367H23.3502V98.4263H29.1398V92.6367Z" fill="white"/>
  <path d="M34.9313 92.6367H29.1417V98.4263H34.9313V92.6367Z" fill="white"/>
  <path d="M40.72 92.6367H34.9304V98.4263H40.72V92.6367Z" fill="white"/>
  <path d="M58.0888 92.6367H52.2992V98.4263H58.0888V92.6367Z" fill="white"/>
  <path d="M63.8772 92.6367H58.0876V98.4263H63.8772V92.6367Z" fill="white"/>
  <path d="M75.459 92.6367H69.6694V98.4263H75.459V92.6367Z" fill="white"/>
  <path d="M81.2477 92.6367H75.4581V98.4263H81.2477V92.6367Z" fill="white"/>
  <path d="M87.0363 92.6367H81.2467V98.4263H87.0363V92.6367Z" fill="white"/>
  <path d="M98.6165 92.6367H92.8269V98.4263H98.6165V92.6367Z" fill="white"/>
  <path d="M104.408 92.6367H98.6185V98.4263H104.408V92.6367Z" fill="white"/>
  <path d="M110.197 98.2109H104.407V104H110.197V98.2109Z" fill="white"/>
  <path d="M110.197 52.5078H104.407V58.2974H110.197V52.5078Z" fill="white"/>
  <path d="M115.988 92.6367H110.199V98.4263H115.988V92.6367Z" fill="white"/>
  <path d="M115.988 46.9375H110.199V52.7271H115.988V46.9375Z" fill="white"/>
  <path d="M121.777 92.6367H115.987V98.4263H121.777V92.6367Z" fill="white"/>
  <path d="M121.777 46.9375H115.987V52.7271H121.777V46.9375Z" fill="white"/>
  <path d="M133.357 92.6367H127.568V98.4263H133.357V92.6367Z" fill="white"/>
  <path d="M133.357 46.9375H127.568V52.7271H133.357V46.9375Z" fill="white"/>
  <path d="M52.3002 98.4258H46.5106V104.215H52.3002V98.4258Z" fill="white"/>
  <path d="M63.8772 98.4258H58.0876V104.215H63.8772V98.4258Z" fill="white"/>
  <path d="M87.0363 98.4258H81.2467V104.215H87.0363V98.4258Z" fill="white"/>
  <path d="M92.8279 98.4258H87.0383V104.215H92.8279V98.4258Z" fill="white"/>
  <path d="M98.6165 98.4258H92.8269V104.215H98.6165V98.4258Z" fill="white"/>
  <path d="M52.3002 104.215H46.5106V110.004H52.3002V104.215Z" fill="white"/>
  <path d="M58.0888 104.215H52.2992V110.004H58.0888V104.215Z" fill="white"/>
  <path d="M63.8772 104.215H58.0876V110.004H63.8772V104.215Z" fill="white"/>
  <path d="M69.669 104.215H63.8794V110.004H69.669V104.215Z" fill="white"/>
  <path d="M75.459 104.215H69.6694V110.004H75.459V104.215Z" fill="white"/>
  <path d="M69.669 110.008H63.8794V115.797H69.669V110.008Z" fill="white"/>
  <path d="M98.6165 110.008H92.8269V115.797H98.6165V110.008Z" fill="white"/>
  <path d="M52.3002 115.797H46.5106V121.586H52.3002V115.797Z" fill="white"/>
  <path d="M63.8773 115.797H58.0878V121.586H63.8773V115.797Z" fill="white"/>
  <path d="M69.669 115.797H63.8794V121.586H69.669V115.797Z" fill="white"/>
  <path d="M92.8279 115.797H87.0383V121.586H92.8279V115.797Z" fill="white"/>
  <path d="M52.3002 121.586H46.5106V127.375H52.3002V121.586Z" fill="white"/>
  <path d="M63.8773 121.586H58.0878V127.375H63.8773V121.586Z" fill="white"/>
  <path d="M75.459 121.586H69.6694V127.375H75.459V121.586Z" fill="white"/>
  <path d="M81.2477 121.586H75.4581V127.375H81.2477V121.586Z" fill="white"/>
  <path d="M92.8279 121.586H87.0383V127.375H92.8279V121.586Z" fill="white"/>
  <path d="M52.3002 127.375H46.5106V133.165H52.3002V127.375Z" fill="white"/>
  <path d="M58.0888 127.375H52.2992V133.165H58.0888V127.375Z" fill="white"/>
  <path d="M81.2477 127.375H75.4581V133.165H81.2477V127.375Z" fill="white"/>
  <path d="M87.0363 127.375H81.2467V133.165H87.0363V127.375Z" fill="white"/>
  <path d="M98.6165 127.375H92.8269V133.165H98.6165V127.375Z" fill="white"/>
  <path d="M52.3002 133.164H46.5106V138.954H52.3002V133.164Z" fill="white"/>
  <path d="M75.459 133.164H69.6694V138.954H75.459V133.164Z" fill="white"/>
  <path d="M81.2477 133.164H75.4581V138.954H81.2477V133.164Z" fill="white"/>
  <path d="M92.8279 133.164H87.0383V138.954H92.8279V133.164Z" fill="white"/>
  <path d="M98.6165 133.164H92.8269V138.954H98.6165V133.164Z" fill="white"/>
  <path d="M52.3002 138.957H46.5106V144.747H52.3002V138.957Z" fill="white"/>
  <path d="M75.459 138.957H69.6694V144.747H75.459V138.957Z" fill="white"/>
  <path d="M87.0363 138.957H81.2467V144.747H87.0363V138.957Z" fill="white"/>
  <path d="M92.8279 138.957H87.0383V144.747H92.8279V138.957Z" fill="white"/>
  <path d="M26.4944 103.664H13.7349C10.7866 103.657 7.91431 104.599 5.54237 106.35C3.17044 108.101 1.42464 110.569 0.562907 113.389C0.387355 113.973 0.252162 114.569 0.158284 115.172C0.0525195 115.857 -0.00039755 116.548 2.24845e-06 117.241V130.305C0.0247603 133.926 1.48467 137.389 4.05951 139.935C6.63435 142.481 10.1139 143.902 13.7349 143.886H26.4944C30.1156 143.902 33.5953 142.481 36.1702 139.935C38.7451 137.388 40.2048 133.925 40.2293 130.304V117.241C40.2037 113.621 38.7433 110.158 36.1686 107.613C33.5938 105.068 30.1147 103.648 26.4944 103.664ZM34.1945 130.305C34.1719 132.326 33.3482 134.256 31.9042 135.671C30.4602 137.086 28.5138 137.87 26.4922 137.852H13.736C11.7146 137.87 9.76839 137.086 8.32441 135.672C6.88044 134.257 6.05661 132.327 6.03367 130.306V117.241C6.03242 115.983 6.35281 114.745 6.96442 113.646C7.53942 112.616 8.34473 111.733 9.31747 111.066C10.6167 110.172 12.1571 109.696 13.7338 109.699H26.4944C28.5151 109.681 30.4605 110.464 31.904 111.878C33.3476 113.292 34.1713 115.221 34.1945 117.242V130.305Z" fill="white"/>
  <path d="M26.4944 1.12123H13.7349C10.7866 1.11447 7.91431 2.0562 5.54237 3.8073C3.17044 5.5584 1.42464 8.026 0.562907 10.8456C0.387355 11.4301 0.252162 12.026 0.158284 12.629C0.0525195 13.3135 -0.00039755 14.0052 2.24845e-06 14.6978V27.7617C0.0247603 31.3826 1.48467 34.8459 4.05951 37.3919C6.63435 39.9379 10.1139 41.3588 13.7349 41.3427H26.4944C30.1156 41.3588 33.5953 39.9378 36.1702 37.3915C38.7451 34.8453 40.2048 31.3817 40.2293 27.7606V14.6978C40.2037 11.0776 38.7433 7.61522 36.1686 5.07012C33.5938 2.52502 30.1147 1.10491 26.4944 1.12123ZM34.1945 27.7617C34.1719 29.7832 33.3482 31.7133 31.9042 33.1282C30.4602 34.5432 28.5138 35.3275 26.4922 35.3091H13.736C11.7146 35.3275 9.76839 34.5433 8.32441 33.1286C6.88044 31.7139 6.05661 29.7842 6.03367 27.7628V14.6978C6.03242 13.4398 6.35281 12.2024 6.96442 11.103C7.53942 10.073 8.34473 9.18991 9.31747 8.52259C10.6167 7.62931 12.1571 7.15266 13.7338 7.15602H26.4944C28.5151 7.13758 30.4605 7.92136 31.904 9.33542C33.3476 10.7495 34.1713 12.6784 34.1945 14.6989V27.7617Z" fill="white"/>
  <path d="M131.274 104.785H118.514C115.566 104.779 112.693 105.72 110.322 107.471C107.95 109.222 106.204 111.69 105.342 114.51C105.167 115.094 105.031 115.69 104.937 116.293C104.832 116.978 104.779 117.669 104.779 118.362V131.426C104.804 135.047 106.264 138.51 108.839 141.056C111.414 143.602 114.893 145.023 118.514 145.007H131.274C134.895 145.023 138.374 143.602 140.949 141.056C143.524 138.509 144.984 135.046 145.008 131.425V118.362C144.983 114.742 143.523 111.279 140.948 108.734C138.373 106.189 134.894 104.769 131.274 104.785ZM138.974 131.426C138.951 133.447 138.127 135.377 136.683 136.792C135.239 138.207 133.293 138.992 131.271 138.973H118.515C116.494 138.992 114.548 138.207 113.104 136.793C111.66 135.378 110.836 133.448 110.813 131.427V118.362C110.812 117.104 111.132 115.866 111.744 114.767C112.319 113.737 113.124 112.854 114.097 112.187C115.396 111.293 116.936 110.817 118.513 110.82H131.274C133.294 110.802 135.24 111.585 136.683 112.999C138.127 114.414 138.95 116.342 138.974 118.363V131.426Z" fill="white"/>
  <path d="M131.274 0.000139172H118.514C115.566 -0.00662837 112.694 0.935102 110.322 2.68621C107.95 4.43731 106.204 6.90491 105.342 9.72446C105.167 10.309 105.032 10.9049 104.938 11.5079C104.832 12.1924 104.779 12.8841 104.779 13.5767V26.6406C104.804 30.2615 106.264 33.7248 108.839 36.2708C111.414 38.8168 114.893 40.2377 118.514 40.2216H131.274C134.895 40.2377 138.375 38.8167 140.95 36.2704C143.524 33.7242 144.984 30.2606 145.009 26.6395V13.5767C144.983 9.95646 143.523 6.49413 140.948 3.94902C138.373 1.40392 134.894 -0.0161838 131.274 0.000139172ZM138.974 26.6406C138.951 28.6621 138.128 30.5922 136.684 32.0071C135.24 33.4221 133.293 34.2064 131.272 34.188H118.515C116.494 34.2064 114.548 33.4222 113.104 32.0075C111.66 30.5928 110.836 28.6631 110.813 26.6417V13.5767C110.812 12.3187 111.132 11.0813 111.744 9.98195C112.319 8.95195 113.124 8.06881 114.097 7.4015C115.396 6.50822 116.936 6.03157 118.513 6.03492H131.274C133.294 6.01649 135.24 6.80026 136.683 8.21432C138.127 9.62838 138.951 11.5573 138.974 13.5778V26.6406Z" fill="white"/>
  <path d="M16.214 132.394C14.976 132.404 13.7844 131.924 12.8999 131.057C12.0154 130.191 11.5101 129.01 11.4945 127.772V119.772C11.4946 119.002 11.6906 118.245 12.0641 117.572C12.4155 116.941 12.9089 116.399 13.5054 115.991C14.3021 115.443 15.2469 115.15 16.214 115.153H24.0289C25.2664 115.141 26.4578 115.621 27.3419 116.487C28.226 117.353 28.7306 118.534 28.745 119.772V127.772C28.7294 129.009 28.2246 130.19 27.3408 131.056C26.4571 131.922 25.2663 132.403 24.0289 132.394H16.214Z" fill="white"/>
  <path d="M16.214 29.8512C14.976 29.8613 13.7844 29.3806 12.8999 28.5143C12.0154 27.648 11.5101 26.4666 11.4945 25.2287V17.2287C11.4946 16.4592 11.6906 15.7023 12.0641 15.0295C12.4155 14.3977 12.9089 13.8563 13.5054 13.4478C14.3021 12.8997 15.2469 12.6073 16.214 12.6096H24.0289C25.2664 12.5983 26.4578 13.0782 27.3419 13.9441C28.226 14.8101 28.7306 15.9913 28.745 17.2287V25.2287C28.7294 26.466 28.2246 27.6469 27.3408 28.5131C26.4571 29.3793 25.2663 29.8604 24.0289 29.8512H16.214Z" fill="white"/>
  <path d="M120.987 133.519C119.749 133.529 118.558 133.049 117.673 132.182C116.789 131.316 116.284 130.135 116.268 128.897V120.897C116.268 120.127 116.464 119.37 116.838 118.697C117.189 118.066 117.682 117.524 118.279 117.116C119.076 116.568 120.02 116.275 120.987 116.278H128.802C130.04 116.266 131.231 116.746 132.115 117.612C132.999 118.478 133.504 119.659 133.518 120.897V128.897C133.503 130.134 132.998 131.315 132.114 132.181C131.231 133.047 130.04 133.528 128.802 133.519H120.987Z" fill="white"/>
  <path d="M120.987 28.7301C119.749 28.7402 118.557 28.2595 117.673 27.3932C116.788 26.5269 116.283 25.3455 116.267 24.1076V16.1076C116.267 15.3381 116.463 14.5812 116.837 13.9084C117.188 13.2766 117.682 12.7352 118.278 12.3267C119.075 11.7786 120.02 11.4862 120.987 11.4885H128.802C130.039 11.4772 131.231 11.9571 132.115 12.823C132.999 13.689 133.503 14.8702 133.518 16.1076V24.1076C133.502 25.3449 132.997 26.5258 132.114 27.392C131.23 28.2582 130.039 28.7393 128.802 28.7301H120.987Z" fill="white"/>
  <path d="M78.028 53.5078H67.996C61.2243 53.5078 55.7347 58.9974 55.7347 65.7691V75.8011C55.7347 82.5728 61.2243 88.0624 67.996 88.0624H78.028C84.7997 88.0624 90.2893 82.5728 90.2893 75.8011V65.7691C90.2893 58.9974 84.7997 53.5078 78.028 53.5078Z" fill="#2873FF"/>
  <path d="M78.028 53.5078H67.996C61.2243 53.5078 55.7347 58.9974 55.7347 65.7691V75.8011C55.7347 82.5728 61.2243 88.0624 67.996 88.0624H78.028C84.7997 88.0624 90.2893 82.5728 90.2893 75.8011V65.7691C90.2893 58.9974 84.7997 53.5078 78.028 53.5078Z" fill="url(#paint0_linear_4469_72544)"/>
  <path d="M78.0286 50.7188H67.9967C59.6859 50.7188 52.9487 57.4559 52.9487 65.7667V75.7987C52.9487 84.1094 59.6859 90.8466 67.9967 90.8466H78.0286C86.3394 90.8466 93.0766 84.1094 93.0766 75.7987V65.7667C93.0766 57.4559 86.3394 50.7188 78.0286 50.7188Z" stroke="#0B0E13" stroke-width="7.3414"/>
  <path d="M81.9291 70.2204C81.9814 69.8295 82.0075 69.4355 82.0072 69.0411C82.0072 68.9564 82.0072 68.8728 82.0072 68.7903C82.0072 68.6498 81.9982 68.5328 81.9893 68.4224C81.9685 68.1186 81.9312 67.8161 81.8778 67.5162C81.8689 67.4672 81.8612 67.4193 81.8522 67.3725C81.8377 67.29 81.821 67.2064 81.802 67.1261C81.7909 67.0771 81.7809 67.028 81.7686 66.9823C81.753 66.9143 81.7363 66.8452 81.7173 66.7794C81.2633 65.0609 80.302 63.5192 78.9586 62.3553L78.8605 62.2695L78.8003 62.381C78.7185 62.5386 78.6488 62.7022 78.5918 62.8703C78.4696 63.2319 78.4075 63.6111 78.4079 63.9928C78.4081 64.1873 78.4241 64.3815 78.4558 64.5735V64.6081L78.4636 64.6159C78.4945 64.7888 78.5384 64.9591 78.5951 65.1253C77.8718 65.0084 77.1303 65.087 76.4475 65.353C75.7647 65.6189 75.1655 66.0625 74.7117 66.6379L74.6002 66.785L74.7875 66.804C74.8042 66.804 76.4773 66.9734 77.9754 67.2075C78.6023 67.3004 79.2205 67.4451 79.8235 67.64H79.8302C79.9164 67.6628 79.9914 67.7162 80.0412 67.7902C80.091 67.8642 80.1122 67.9537 80.1009 68.0422C80.0896 68.1307 80.0465 68.212 79.9797 68.2711C79.9129 68.3302 79.8269 68.363 79.7377 68.3634H64.4278C64.42 68.3624 64.4122 68.3624 64.4044 68.3634H64.3932C64.3836 68.3672 64.3746 68.3724 64.3665 68.379H64.3598C64.3533 68.3849 64.3478 68.3916 64.3431 68.399C64.3401 68.4029 64.3375 68.407 64.3353 68.4113C64.3328 68.4182 64.3309 68.4253 64.3297 68.4325C64.3294 68.4377 64.3294 68.4429 64.3297 68.4481C64.3174 68.6365 64.3108 68.8293 64.3108 69.0211C64.3154 69.5094 64.3559 69.9967 64.4322 70.479L64.4467 70.5648H69.4571C70.2953 70.5631 71.1156 70.8069 71.8169 71.266C72.8722 72.2516 73.6257 73.5168 73.9894 74.9143C74.2619 75.8951 74.7861 76.7877 75.5098 77.5036C75.8454 77.8206 76.22 78.0937 76.6245 78.3162C77.8212 78.9769 79.2205 79.1699 80.5514 78.8579H80.5592L80.577 78.8501C80.5834 78.8468 80.5894 78.8427 80.5948 78.8379H80.6027C80.6028 78.8353 80.6028 78.8327 80.6027 78.8301C80.607 78.8245 80.6107 78.8186 80.6138 78.8122C80.6166 78.8065 80.6188 78.8006 80.6205 78.7944C80.621 78.7881 80.621 78.7817 80.6205 78.7754C80.6211 78.7688 80.6211 78.762 80.6205 78.7554C80.6205 78.7554 80.6205 78.7487 80.6205 78.7454C80.6207 78.7428 80.6207 78.7401 80.6205 78.7375C80.6183 78.7309 80.6153 78.7245 80.6116 78.7186C80.6084 78.713 80.6047 78.7078 80.6004 78.703L80.5948 78.6952C79.7696 77.9185 79.1369 76.9602 78.7468 75.8963C80.4939 74.4805 81.6327 72.4495 81.9291 70.2204Z" fill="#EDF4FF"/>
  <path d="M74.8333 77.7355C74.834 77.7284 74.834 77.7213 74.8333 77.7143C74.8336 77.7106 74.8336 77.7069 74.8333 77.7031C74.8335 77.7009 74.8335 77.6987 74.8333 77.6965C74.8319 77.6895 74.8296 77.6828 74.8266 77.6764C74.8238 77.6701 74.8205 77.6642 74.8166 77.6586V77.6519C74.6015 77.386 74.4094 77.1022 74.2425 76.8036C74.2376 76.7958 74.2316 76.7886 74.2247 76.7824L74.2191 76.7758C74.2103 76.7688 74.2006 76.7631 74.1901 76.759H74.1845C74.1757 76.758 74.1667 76.758 74.1578 76.759H74.1456C74.0854 76.759 73.8112 76.7668 73.6339 76.769H73.469H73.4121C73.1527 76.7735 72.8889 76.7654 72.6207 76.7445C71.5307 76.656 70.4724 76.3344 69.5174 75.8015C68.0093 74.9597 66.8245 73.6396 66.15 72.0496C66.0318 71.768 65.9306 71.4795 65.8469 71.1857C65.8442 71.1791 65.8408 71.1727 65.8368 71.1667C65.8338 71.1613 65.8305 71.1561 65.8268 71.1512C65.822 71.1462 65.8168 71.1417 65.8112 71.1378L65.7956 71.1278L65.7767 71.1211H65.7566H64.6877H64.6753H64.6564H64.6486L64.6297 71.13L64.614 71.1412C64.609 71.1454 64.6046 71.1503 64.6007 71.1557C64.5964 71.1604 64.5927 71.1656 64.5896 71.1712C64.5867 71.1769 64.5844 71.1829 64.5828 71.1891C64.5821 71.1957 64.5821 71.2025 64.5828 71.2091C64.5827 71.2117 64.5827 71.2144 64.5828 71.217C64.5826 71.221 64.5826 71.2251 64.5828 71.2292C64.5828 71.2292 64.5828 71.237 64.5828 71.2414C64.7521 71.9096 64.9999 72.5554 65.3208 73.1654C66.1786 74.7894 67.5164 76.1093 69.1518 76.9452C69.1833 77.4842 69.4102 77.9933 69.79 78.3772C70.1697 78.7611 70.6764 78.9934 71.2151 79.0308H71.2285C71.2414 79.031 71.2543 79.0286 71.2664 79.024L71.2786 79.0163C71.2854 79.0129 71.2918 79.0087 71.2976 79.0039C71.3013 79.0002 71.3046 78.9961 71.3076 78.9917C71.3123 78.9866 71.3164 78.981 71.3199 78.975C71.3204 78.9694 71.3204 78.9639 71.3199 78.9583C71.3224 78.9526 71.3243 78.9465 71.3254 78.9404C71.3779 78.5299 71.5244 78.137 71.7535 77.7923C72.1028 77.8492 72.4553 77.8841 72.809 77.8971C72.9205 77.8971 73.032 77.9049 73.1535 77.9049H73.2237C73.6261 77.9049 74.3875 77.8748 74.743 77.828H74.7508L74.7731 77.8202L74.7865 77.8124H74.7943C74.7943 77.8124 74.7943 77.8068 74.8021 77.8035C74.8072 77.7985 74.8118 77.7929 74.8155 77.7868C74.8223 77.7758 74.8273 77.7637 74.83 77.7511L74.8333 77.7355Z" fill="#EDF4FF"/>
  <path d="M67.801 71.167C67.7975 71.1594 67.793 71.1523 67.7877 71.1459C67.7851 71.1412 67.7821 71.1367 67.7788 71.1325C67.7742 71.1288 67.7694 71.1254 67.7643 71.1225C67.7585 71.1176 67.7521 71.1135 67.7453 71.1102H67.7331C67.7242 71.1091 67.7152 71.1091 67.7063 71.1102H66.5348L66.5749 71.2428C66.6028 71.3353 66.634 71.429 66.6663 71.5193C67.2478 73.1695 68.419 74.5463 69.9546 75.3849C71.1451 75.962 72.4516 76.2597 73.7745 76.2555H73.8102C73.8374 76.2555 73.8635 76.2447 73.8827 76.2255C73.9019 76.2062 73.9128 76.1802 73.9128 76.153V76.1106L73.8971 76.095C73.7909 75.8316 73.7005 75.5621 73.6263 75.288C73.6263 75.288 73.6263 75.2824 73.6263 75.2791C73.6268 75.2739 73.6268 75.2686 73.6263 75.2634C73.6234 75.2567 73.6196 75.2503 73.6151 75.2445L73.6051 75.2323C73.5996 75.2272 73.5937 75.2227 73.5873 75.2189L73.5739 75.211C73.5664 75.2078 73.5585 75.2056 73.5505 75.2044H73.5393C73.4702 75.2044 73.4022 75.1921 73.3342 75.1843C72.5631 75.1096 71.8048 74.9358 71.0781 74.6671C69.5748 73.976 68.4014 72.7242 67.8089 71.1793L67.801 71.167Z" fill="#EDF4FF"/>
  <path d="M68.5587 71.2218C68.558 71.2285 68.558 71.2352 68.5587 71.2419C68.994 72.0569 69.6153 72.7577 70.3721 73.2876C71.129 73.8174 72.0001 74.1615 72.9148 74.2917H72.9382C72.9675 74.2916 72.9965 74.2849 73.0229 74.2722C73.0493 74.2595 73.0725 74.241 73.0909 74.2181C73.1121 74.192 73.1262 74.1608 73.1321 74.1276C73.1379 74.0945 73.1353 74.0604 73.1243 74.0286L72.8523 73.2283C72.8364 73.1813 72.8086 73.1392 72.7717 73.106C72.7348 73.0729 72.69 73.0497 72.6416 73.0388C71.4843 72.7608 70.4597 72.089 69.7435 71.1383L69.7369 71.1316C69.7326 71.1259 69.7278 71.1206 69.7224 71.116L69.7057 71.1048L69.6889 71.0982H69.6678H68.649C68.6419 71.0975 68.6348 71.0975 68.6278 71.0982H68.6088C68.6049 71.1009 68.6012 71.1038 68.5977 71.1071C68.5913 71.1109 68.5853 71.1154 68.5798 71.1204C68.5757 71.1253 68.572 71.1306 68.5687 71.1361C68.5647 71.1416 68.5614 71.1476 68.5587 71.1539C68.5579 71.1609 68.5579 71.168 68.5587 71.175C68.5583 71.1799 68.5583 71.1847 68.5587 71.1895C68.5571 71.2002 68.5571 71.2111 68.5587 71.2218Z" fill="#EDF4FF"/>
  <defs>
    <linearGradient id="paint0_linear_4469_72544" x1="73.012" y1="53.5078" x2="73.012" y2="88.0624" gradientUnits="userSpaceOnUse">
      <stop stop-color="#2873FF"/>
      <stop offset="1" stop-color="#0B6B96"/>
    </linearGradient>
  </defs>
</svg>