<svg xmlns="http://www.w3.org/2000/svg" width="40" height="40" viewBox="0 0 40 40" fill="none">
  <path d="M39.4016 24.8381C36.7301 35.5525 25.877 42.0731 15.1601 39.4012C4.44772 36.7301 -2.07358 25.8775 0.599038 15.1639C3.26931 4.44838 14.1225 -2.07268 24.836 0.598468C35.5521 3.26961 42.073 14.1234 39.4013 24.8383L39.4015 24.8381H39.4016Z" fill="#F3BA2F"/>
  <path fill-rule="evenodd" clip-rule="evenodd" d="M20.0023 12.6946L14.8229 17.8735L14.823 17.8733L11.8094 14.86L20.0023 6.66797L28.1979 14.8624L25.1842 17.8758L20.0023 12.6946ZM9.68126 16.9875L6.66748 20.0013L9.68105 23.0141L12.6948 20.0007L9.68126 16.9875ZM14.8229 22.1294L20.0023 27.308L25.1841 22.127L28.1994 25.1387L28.1979 25.1403L20.0023 33.3346L11.8094 25.1426L11.8051 25.1384L14.8229 22.1294ZM30.3236 16.9892L27.3098 20.0026L30.3235 23.0158L33.3372 20.0024L30.3236 16.9892Z" fill="white"/>
  <path d="M23.0588 19.9991H23.0601L20.0023 16.9414L17.7421 19.2007L17.4824 19.4604L16.9469 19.996L16.9426 20.0002L16.9469 20.0046L20.0023 23.06L23.0603 20.0023L23.0618 20.0006L23.0591 19.9991" fill="white"/>
</svg>