<svg width="51" height="50" viewBox="0 0 51 50" fill="none" xmlns="http://www.w3.org/2000/svg">
<rect x="0.318359" width="50" height="50" rx="15" fill="#F8FAFC"/>
<rect x="13.3184" y="13" width="24" height="24" rx="12" fill="#2F2B32"/>
<path fill-rule="evenodd" clip-rule="evenodd" d="M22.2121 23.7234L25.3195 20.616L28.4296 23.7261L30.2376 21.9181L25.3195 17L20.4041 21.9154L22.2121 23.7234ZM17.3184 25.0009L19.1259 23.1933L20.9334 25.0009L19.1259 26.8084L17.3184 25.0009ZM25.3194 29.387L22.212 26.2796L20.4014 28.0849L20.404 28.0876L25.3194 33.003L30.2375 28.0849L28.4295 26.277L25.3194 29.387ZM29.7039 25.0021L31.5114 23.1946L33.319 25.0021L31.5114 26.8096L29.7039 25.0021ZM25.3195 23.1669L27.1541 25.0015L25.3195 26.8388L23.4848 25.0042V24.9988L23.807 24.6767L23.9641 24.5222L25.3195 23.1669Z" fill="#F3BA2F"/>
</svg>
