<svg width="51" height="50" viewBox="0 0 51 50" fill="none" xmlns="http://www.w3.org/2000/svg">
<rect x="0.71875" width="50" height="50" rx="15" fill="#1B2537"/>
<path d="M37.3597 27.9029C35.7568 34.3315 29.2449 38.2438 22.8148 36.6407C16.3874 35.0381 12.4746 28.5265 14.0782 22.0984C15.6803 15.669 22.1922 11.7564 28.6204 13.3591C35.05 14.9618 38.9626 21.474 37.3595 27.903L37.3596 27.9029H37.3597Z" fill="#F68F32"/>
<path d="M31.0306 23.27C31.2695 21.673 30.0535 20.8146 28.3908 20.242L28.9302 18.0788L27.6133 17.7507L27.0882 19.8569C26.742 19.7706 26.3864 19.6892 26.0331 19.6085L26.562 17.4884L25.2458 17.1603L24.7061 19.3228C24.4196 19.2576 24.1382 19.1931 23.8652 19.1252L23.8668 19.1184L22.0506 18.6649L21.7003 20.0713C21.7003 20.0713 22.6774 20.2953 22.6568 20.3091C23.1901 20.4422 23.2865 20.7951 23.2705 21.0749L22.6561 23.5393C22.6928 23.5486 22.7405 23.5621 22.793 23.5832C22.7491 23.5723 22.7023 23.5604 22.6538 23.5488L21.7926 27.0011C21.7274 27.1631 21.562 27.4062 21.1891 27.3139C21.2023 27.333 20.232 27.075 20.232 27.075L19.5781 28.5823L21.2919 29.0095C21.6107 29.0895 21.9232 29.1731 22.2309 29.2518L21.6859 31.4398L23.0013 31.7679L23.541 29.6031C23.9004 29.7007 24.2491 29.7906 24.5905 29.8754L24.0527 32.03L25.3697 32.3581L25.9146 30.1742C28.1602 30.5992 29.8488 30.4279 30.5596 28.3969C31.1323 26.7617 30.5311 25.8185 29.3496 25.2035C30.2101 25.005 30.8583 24.4391 31.0311 23.2701L31.0307 23.2698L31.0306 23.27ZM28.0217 27.4888C27.6147 29.124 24.8612 28.24 23.9685 28.0184L24.6917 25.1196C25.5844 25.3425 28.447 25.7834 28.0217 27.4888H28.0217ZM28.429 23.2463C28.0577 24.7336 25.766 23.978 25.0226 23.7927L25.6782 21.1637C26.4216 21.349 28.8157 21.6948 28.4291 23.2463H28.429Z" fill="white"/>
</svg>
