<svg width="137" height="107" viewBox="0 0 137 107" fill="none" xmlns="http://www.w3.org/2000/svg">
<g clip-path="url(#clip0_4140_73011)">
<path d="M38.3571 19.2313L14.1219 59.1177C18.5738 64.2578 24.0094 69.4875 30.2666 74.5388L59.486 26.4465C52.1075 23.2118 44.9689 20.7992 38.3571 19.2313Z" fill="#AD4800"/>
<path d="M30.2858 74.7033L30.2043 74.6412C24.0084 69.6108 18.552 64.422 14.0393 59.1789L13.9988 59.1171L14.0403 59.0559L38.2964 19.1082L38.3578 19.1291C45.0925 20.7184 52.2105 23.1514 59.507 26.365L59.6092 26.4068L30.2858 74.7033ZM14.2243 59.1188C18.717 64.3002 24.0917 69.4474 30.2265 74.4158L59.3214 26.5071C52.0859 23.3555 45.0498 20.9437 38.3766 19.3549L14.2243 59.1188Z" fill="#FFF800"/>
<path d="M59.4859 26.4468L30.2666 74.539C35.6679 78.8866 41.6648 83.1157 48.1763 87.0821L78.8702 36.5607C72.3584 32.6148 65.8425 29.2226 59.4859 26.4468Z" fill="#AF5C00"/>
<path d="M48.1957 87.226L48.114 87.1843C41.7452 83.3215 35.7073 79.0922 30.2042 74.6413L30.1432 74.5793L30.1848 74.4976L59.4458 26.3236L59.5275 26.3653C66.0272 29.2037 72.5429 32.6164 78.9118 36.4792L78.9935 36.5208L48.1957 87.226ZM30.3897 74.5197C35.8521 78.9292 41.8288 83.1171 48.1364 86.9384L78.7264 36.5803C72.4188 32.759 65.9642 29.3877 59.5261 26.5498L30.3897 74.5197Z" fill="#FFF800"/>
<path d="M12.4948 8.82276L2.73412 24.908C0.595183 28.419 0.295059 32.8257 1.56999 37.7571L17.3531 11.7717L12.4948 8.82276Z" fill="#AD2B00"/>
<path d="M1.52709 38.0026L1.46729 37.7766C0.152757 32.6603 0.534591 28.2952 2.63205 24.8455L12.4549 8.67866L17.4764 11.7314L1.52709 38.0026ZM12.5349 8.94586L2.81582 24.9494C0.780505 28.3176 0.358752 32.5388 1.61286 37.5111L17.2299 11.791L12.5349 8.94586Z" fill="#FFF800"/>
<path d="M26.4164 17.2746L17.3531 11.7712L1.57005 37.7566C3.24355 44.2085 7.59645 51.5832 14.1219 59.1179L38.3571 19.2316C34.1404 18.2151 30.1259 17.5694 26.4164 17.2746Z" fill="#AD3E00"/>
<path d="M14.1206 59.2821L14.0393 59.1789C7.47336 51.5824 3.14112 44.1874 1.46731 37.7765L1.44712 37.7353L1.46794 37.6944L17.3337 11.6277L26.4581 17.1725C30.1677 17.4673 34.182 18.1336 38.3783 19.1293L38.5012 19.1508L38.4388 19.2733L14.1206 59.2821ZM1.67237 37.778C3.3263 44.1068 7.61799 51.4399 14.1026 58.9538L38.1925 19.292C34.037 18.317 30.0636 17.6716 26.395 17.3771L26.3745 17.3769L17.3932 11.8947L1.67237 37.778Z" fill="#FFF800"/>
<path d="M112.925 64.5251L88.6892 104.432C98.3715 106.741 106.94 107.216 113.432 105.707L129.215 79.7217L120.151 74.2184C118.186 71.0454 115.75 67.8072 112.925 64.5251Z" fill="#FFCB00"/>
<path d="M104.688 106.666C99.9104 106.63 94.502 105.912 88.6679 104.534L88.5451 104.513L88.6075 104.39L112.926 64.3817L113.007 64.4848C115.832 67.7669 118.268 71.0256 120.234 74.1576L129.358 79.7024L113.492 105.81L113.451 105.81C110.842 106.405 107.908 106.691 104.688 106.666ZM88.8334 104.351C98.4953 106.639 106.982 107.073 113.35 105.604L129.071 79.7207L120.069 74.2589L120.049 74.2382C118.104 71.1269 115.688 67.9094 112.903 64.6686L88.8334 104.351Z" fill="#FFF800"/>
<path d="M124.292 98.7561L134.052 82.6708L129.194 79.7219L113.411 105.707C118.403 104.556 122.153 102.267 124.292 98.7561Z" fill="#FFD500"/>
<path d="M113.225 105.849L113.35 105.645L129.195 79.5572L134.217 82.6099L124.373 98.7971C122.276 102.267 118.587 104.618 113.431 105.809L113.225 105.849ZM129.255 79.8447L113.638 105.565C118.63 104.372 122.175 102.062 124.231 98.6935L133.95 82.6899L129.255 79.8447Z" fill="#FFF800"/>
<path d="M48.1763 87.0828C54.6881 91.0287 61.204 94.4209 67.5606 97.1967L96.7594 49.1043C91.3581 44.7567 85.3612 40.5277 78.8497 36.5613L48.1763 87.0828Z" fill="#E08700"/>
<path d="M67.5801 97.3195L67.4984 97.2779C60.9987 94.4395 54.4829 91.0267 48.1141 87.164L48.0324 87.1223L48.0741 87.0406L78.8095 36.4375L78.8912 36.4792C85.26 40.3419 91.298 44.5713 96.801 49.0222L96.862 49.0842L96.8204 49.1659L67.5801 97.3195ZM48.2996 87.0423C54.6072 90.8636 61.0618 94.2349 67.4999 97.0728L96.6362 49.1235C91.1738 44.7139 85.1971 40.526 78.8895 36.7047L48.2996 87.0423Z" fill="#FFF800"/>
<path d="M96.7594 49.1037L67.54 97.1959C74.9185 100.431 82.0571 102.843 88.6688 104.432L112.904 64.5248C108.473 59.3643 103.037 54.1552 96.7594 49.1037Z" fill="#FFA500"/>
<path d="M88.7295 104.534L88.6681 104.513C81.9334 102.924 74.8155 100.491 67.5189 97.2775L67.4167 97.2357L67.479 97.1337L96.7606 48.9393L96.8422 49.0015C103.038 54.0113 108.474 59.2 113.007 64.4432L113.048 64.5051L113.006 64.5663L88.7295 104.534ZM67.6839 97.1557C74.9194 100.307 81.9555 102.719 88.6287 104.308L112.802 64.5237C108.309 59.3423 102.934 54.1951 96.7994 49.2267L67.6839 97.1557Z" fill="#FFF800"/>
<path d="M134.073 82.6704C125.6 96.6123 91.5159 91.3902 57.9368 71.0173C24.3786 50.6035 4.02186 22.7641 12.4948 8.82229C20.9884 -5.1399 55.0724 0.0821586 88.6308 20.4754C122.21 40.8688 142.546 68.7081 134.073 82.6704Z" fill="url(#paint0_linear_4140_73011)"/>
<path d="M114.51 90.5809C111.701 90.5595 108.647 90.3107 105.391 89.7938C90.9911 87.5925 74.1234 80.9429 57.8749 71.0784C41.6263 61.2139 27.9568 49.2979 19.3512 37.5434C10.7458 25.7684 8.2808 15.5371 12.3928 8.76006C16.5457 1.98333 26.757 -0.543369 41.177 1.67858C55.5562 3.87971 72.4444 10.5295 88.6725 20.3938C104.921 30.2583 118.591 42.1743 127.196 53.9288C135.801 65.7038 138.267 75.9351 134.155 82.7121C130.957 87.9581 124.128 90.6541 114.51 90.5809ZM32.056 1.07599C22.5207 1.00344 15.7537 3.65888 12.597 8.86415C8.50605 15.5798 10.9717 25.7291 19.5365 37.4423C28.1012 49.1759 41.7709 61.0715 57.9991 70.9153C74.2272 80.7796 91.0745 87.4086 105.433 89.6095C119.771 91.8104 129.921 89.3242 133.991 82.6084C138.062 75.8925 135.596 65.7433 127.052 54.0303C118.487 42.2966 104.817 30.401 88.5892 20.5572C72.361 10.7134 55.5138 4.06395 41.1346 1.86282C37.8983 1.36653 34.8448 1.09721 32.056 1.07599Z" fill="#FFF800"/>
<path d="M129.075 79.1672C121.537 91.5986 90.5275 86.5435 59.8268 67.8946C29.1261 49.2457 10.3487 24.0637 17.9078 11.6324C25.4465 -0.799014 56.4557 4.25609 87.1564 22.905C117.857 41.554 136.634 66.7359 129.075 79.1672Z" fill="url(#paint1_linear_4140_73011)"/>
<path d="M111.94 86.091C109.254 86.0705 106.303 85.802 103.128 85.2857C90.0405 83.1559 74.6455 77.0097 59.7851 67.976C44.9247 58.9424 32.3747 48.1217 24.4579 37.4799C16.5003 26.8172 14.1504 17.6326 17.8262 11.57C21.502 5.52791 30.7466 3.36298 43.8753 5.51358C56.9631 7.64337 72.3581 13.7896 87.2185 22.8232C102.079 31.8569 114.629 42.6775 122.546 53.3194C130.483 63.9819 132.833 73.187 129.157 79.2291C126.374 83.8015 120.389 86.1553 111.94 86.091ZM35.1028 4.91365C26.9415 4.85155 20.8137 7.04019 17.9895 11.6738C10.4718 24.0439 29.2697 49.226 59.8684 67.8126C90.467 86.3993 121.476 91.4749 128.994 79.1048C136.511 66.7347 117.713 41.5526 87.1149 22.966C67.9881 11.357 48.6982 5.0171 35.1028 4.91365Z" fill="#FFF800"/>
<path d="M125.972 80.066C118.932 91.6604 89.1746 86.4713 59.4945 68.4453C29.8349 50.4195 11.4997 26.4098 18.5399 14.8154C25.58 3.22098 55.3372 8.41011 85.0173 26.4361C114.697 44.462 133.012 68.4716 125.972 80.066Z" fill="url(#paint2_linear_4140_73011)"/>
<path d="M110.277 86.3448C107.529 86.3239 104.476 86.0341 101.179 85.4553C88.6042 83.2679 73.7824 77.2491 59.4323 68.5269C45.0822 59.8048 32.898 49.4175 25.1621 39.2692C17.4056 29.1207 15.0316 20.4077 18.4583 14.7533C21.885 9.0989 30.7173 7.21793 43.3125 9.40549C55.8872 11.5929 70.709 17.6117 85.0591 26.3339C99.4091 35.056 111.593 45.4432 119.329 55.5916C127.086 65.7606 129.48 74.4533 126.054 80.1076C123.52 84.2923 118.049 86.4039 110.277 86.3448ZM34.2534 8.74186C26.7483 8.68475 21.1759 10.652 18.6214 14.8776C11.6229 26.3903 29.9786 50.4001 59.5361 68.3636C78.3158 79.7649 97.1756 86.04 110.238 86.1394C117.743 86.1965 123.315 84.2292 125.87 80.0037C129.255 74.431 126.88 65.8 119.164 55.7134C111.428 45.5855 99.2848 35.2191 84.9551 26.5176C66.1756 15.0959 47.3156 8.84125 34.2534 8.74186Z" fill="#FFF800"/>
<path d="M89.2788 53.9073C92.0892 53.7851 93.9011 52.8351 94.7554 51.0575C95.7143 49.0141 95.2001 46.5083 93.2541 43.5405C91.7132 41.2115 89.617 39.1038 86.9655 37.2175L88.2543 34.9305L83.0287 31.7532L81.7203 33.9169L79.6382 32.6502L75.1269 29.9294L76.517 27.8073L71.2913 24.6299L69.84 26.7106L66.6761 24.7794L61.9812 21.9342L58.9573 25.8485L63.7747 28.7767L62.0961 31.0812L52.4599 44.2759L47.1935 41.0778L43.4033 45.9911C43.3825 46.032 43.3825 46.032 43.3825 46.032L48.7919 49.3133L52.4457 51.5353L50.4555 54.3707L56.661 58.1296L58.5697 55.2322L66.1632 59.8425L64.377 62.8229L70.5825 66.5819L72.2874 63.5189C76.1881 65.6403 79.953 66.7353 83.5208 66.8034C87.5191 66.8749 90.0712 65.6639 91.218 63.1707C92.3654 60.6161 91.7121 57.5351 89.2788 53.9073ZM72.4092 34.0307L79.1863 38.1426L82.3707 40.074C83.1872 40.5724 83.8803 41.1108 84.4501 41.6894C84.8573 42.0821 85.1821 42.5152 85.4864 42.9482C86.1958 44.0405 86.3528 44.9645 85.9576 45.6997C85.5624 46.435 84.7192 46.7567 83.4484 46.665C82.9156 46.6199 82.383 46.5338 81.8511 46.3657C81.0531 46.1341 80.2357 45.7587 79.3784 45.2395L76.1124 43.246L69.1516 39.0301L69.1311 39.0299L72.4092 34.0307ZM78.7618 58.8925C77.6548 58.8431 76.529 58.5679 75.3436 58.0462C74.8121 57.8166 74.2812 57.5255 73.73 57.1932L69.3412 54.5349L61.9518 50.0491L61.9314 50.0285L66.1226 43.6211L66.143 43.6418L73.2874 47.9821L77.2883 50.4119C77.8803 50.765 78.4517 51.1385 78.9819 51.5322C79.2674 51.7394 79.5529 51.9466 79.8179 52.1537C81.9964 54.221 82.6801 56.0103 81.8893 57.5218C81.3693 58.4817 80.3404 58.9455 78.7618 58.8925Z" fill="white"/>
<path d="M83.7045 66.9074C83.6429 66.9069 83.5609 66.9063 83.4994 66.9058C79.9522 66.8378 76.1872 65.7428 72.3067 63.6625L70.5813 66.7255L64.2125 62.8627L65.9988 59.8823L58.5685 55.3757L56.6598 58.2732L50.291 54.4104L52.2813 51.5751L43.1977 46.0511L47.1328 40.9543L52.3993 44.1524L63.5899 28.7958L58.7929 25.8883L61.9409 21.8313L69.7997 26.6078L71.251 24.5271L76.6399 27.8082L75.2498 29.9303L81.6593 33.8344L82.9677 31.6707L88.3568 34.9313L87.0679 37.2182C89.6785 39.1043 91.7747 41.2119 93.2951 43.5203C95.2616 46.5088 95.7752 49.0761 94.8164 51.1195C93.9826 52.8972 92.1705 53.8678 89.442 54.0111C91.8346 57.5975 92.4465 60.7192 91.2585 63.2326C90.1323 65.7053 87.5801 66.9369 83.7045 66.9074ZM72.2267 63.3953L72.3084 63.437C76.1888 65.5377 79.9332 66.6326 83.501 66.7007C87.4173 66.7716 89.9692 65.5811 91.0952 63.1288C92.2421 60.6356 91.6095 57.5343 89.1964 53.9477L89.095 53.8034L89.259 53.8046C92.0078 53.7025 93.8196 52.7524 94.6326 51.0155C95.5705 49.0335 95.0767 46.5484 93.1305 43.6011C91.61 41.2927 89.5138 39.185 86.8828 37.2989L86.8216 37.2574L88.0899 34.9703L83.0275 31.8967L81.7191 34.0605L74.9626 29.9487L76.3527 27.8265L71.3107 24.7736L69.8594 26.8543L62.0005 22.0779L59.101 25.8291L63.9184 28.7573L52.4998 44.4198L47.213 41.201L43.5057 45.9919L52.569 51.4952L50.5786 54.3511L56.6004 58.0061L58.5091 55.1087L58.5908 55.1503L66.2864 59.8229L64.5001 62.8034L70.5218 66.4584L72.2267 63.3953ZM78.966 58.9966C78.9045 58.9961 78.8225 58.9955 78.7609 58.995C77.6539 58.9456 76.4871 58.6701 75.3017 58.1484C74.7703 57.9188 74.2188 57.6275 73.6881 57.2954L61.808 50.0685L66.1235 43.4981L66.2255 43.5604L77.3504 50.3303C77.9424 50.6835 78.5136 51.0774 79.0439 51.4506C79.3295 51.6578 79.615 51.8651 79.8798 52.0927C82.0785 54.2011 82.7822 56.0521 81.9708 57.584C81.4715 58.5235 80.4629 59.008 78.966 58.9966ZM78.7625 58.79C80.3001 58.8427 81.3083 58.3992 81.8075 57.4802C82.5773 56.0301 81.873 54.2611 79.7559 52.2148C79.4908 52.0077 79.2258 51.8006 78.9198 51.5932C78.3896 51.1995 77.8183 50.8261 77.2262 50.4729L66.1626 43.7445L62.0752 49.9885L73.7921 57.1116C74.3227 57.4437 74.8743 57.7145 75.3853 57.944C76.5297 58.4654 77.6758 58.7612 78.7625 58.79ZM83.8165 46.7908C83.6935 46.7899 83.5704 46.7889 83.4271 46.7673C82.8942 46.7223 82.3618 46.6157 81.8093 46.4679C81.0114 46.2158 80.1735 45.8403 79.3161 45.3211L68.9873 39.0493L72.3692 33.8868L72.4713 33.9491L82.4122 39.9923C83.2287 40.4907 83.9424 41.0293 84.512 41.6283C84.919 42.0416 85.2643 42.4748 85.5481 42.9076C86.2778 44.0411 86.4346 44.9856 86.0186 45.7617C85.6647 46.4562 84.9238 46.7992 83.8165 46.7908ZM69.2749 38.99L79.4404 45.158C80.2774 45.6565 81.0948 46.0318 81.8722 46.2838C82.4041 46.4519 82.9366 46.538 83.449 46.5829C84.6787 46.6743 85.5013 46.373 85.8757 45.6786C86.2502 44.9637 86.0929 44.0807 85.4038 43.0091C85.12 42.5763 84.7745 42.1635 84.388 41.7504C83.8183 41.1719 83.1251 40.6334 82.329 40.1557L72.4492 34.154L69.2749 38.99Z" fill="#FFF800"/>
</g>
<path d="M54.0547 71.2337C51.1216 66.4668 47.9356 56.4342 47.3287 52.3325C47.3287 52.3325 43.4853 66.4668 40.1982 71.2337C36.4054 76.8321 23.2568 79.2709 23.2568 79.2709C23.2568 79.2709 36.4054 81.5435 40.1982 86.7538C43.4853 91.1882 47.531 103.161 47.531 103.161C48.1885 99.3362 51.1216 91.1882 54.0547 86.7538C57.4936 81.5989 69.3272 79.2709 69.3272 79.2709C69.3272 79.2709 57.4936 76.8321 54.0547 71.2337Z" fill="white"/>
<defs>
<linearGradient id="paint0_linear_4140_73011" x1="12.9402" y1="9.08358" x2="128.529" y2="79.2909" gradientUnits="userSpaceOnUse">
<stop offset="1e-08" stop-color="#FFC500"/>
<stop offset="1" stop-color="#FFCF00"/>
</linearGradient>
<linearGradient id="paint1_linear_4140_73011" x1="13.5558" y1="8.99083" x2="109.731" y2="67.4062" gradientUnits="userSpaceOnUse">
<stop stop-color="#FFE000"/>
<stop offset="1" stop-color="#AD4B00"/>
</linearGradient>
<linearGradient id="paint2_linear_4140_73011" x1="19.4622" y1="15.3731" x2="96.4491" y2="62.1339" gradientUnits="userSpaceOnUse">
<stop stop-color="#FF9C00"/>
<stop offset="0.5362" stop-color="#FFCD00"/>
<stop offset="1" stop-color="#FFE700"/>
</linearGradient>
<clipPath id="clip0_4140_73011">
<rect width="135.712" height="105.219" fill="white" transform="translate(0.950012 0.655273) rotate(0.435963)"/>
</clipPath>
</defs>
</svg>
