<svg width="32" height="32" viewBox="0 0 32 32" fill="none" xmlns="http://www.w3.org/2000/svg">
<rect width="32" height="32" rx="16" fill="#F8FAFC"/>
<path d="M25.8599 18.459C24.5023 23.9046 18.9868 27.2187 13.5405 25.8608C8.0965 24.5031 4.7824 18.9872 6.14061 13.5421C7.49763 8.09584 13.0132 4.78149 18.4578 6.1391C23.9036 7.49672 27.2175 13.0132 25.8598 18.4591L25.8599 18.459H25.8599Z" fill="#F68F32"/>
<path d="M20.4998 14.5345C20.7021 13.1818 19.6722 12.4546 18.2639 11.9695L18.7207 10.1371L17.6053 9.85916L17.1606 11.6433C16.8673 11.5702 16.5662 11.5013 16.2669 11.433L16.7148 9.63701L15.6001 9.35907L15.143 11.1909C14.9003 11.1356 14.6619 11.081 14.4307 11.0235L14.432 11.0177L12.8938 10.6336L12.597 11.825C12.597 11.825 13.4246 12.0147 13.4072 12.0264C13.8589 12.1391 13.9406 12.4381 13.927 12.6751L13.4066 14.7627C13.4377 14.7706 13.478 14.782 13.5226 14.7999C13.4853 14.7906 13.4457 14.7806 13.4046 14.7707L12.6752 17.6951C12.62 17.8323 12.4799 18.0383 12.1641 17.9601C12.1753 17.9763 11.3534 17.7577 11.3534 17.7577L10.7996 19.0346L12.2511 19.3964C12.5212 19.4642 12.7858 19.535 13.0464 19.6016L12.5848 21.4551L13.699 21.733L14.1561 19.8993C14.4605 19.9819 14.7559 20.0581 15.045 20.1299L14.5895 21.9551L15.705 22.233L16.1665 20.383C18.0686 20.743 19.4988 20.5979 20.1008 18.8775C20.5859 17.4923 20.0766 16.6934 19.0759 16.1724C19.8048 16.0043 20.3538 15.5249 20.5001 14.5347L20.4998 14.5344L20.4998 14.5345ZM17.9512 18.1082C17.6065 19.4934 15.2743 18.7446 14.5182 18.5568L15.1307 16.1014C15.8868 16.2901 18.3115 16.6637 17.9513 18.1082H17.9512ZM18.2962 14.5144C17.9817 15.7744 16.0406 15.1343 15.411 14.9773L15.9663 12.7503C16.596 12.9073 18.6238 13.2002 18.2963 14.5144H18.2962Z" fill="white"/>
</svg>
