<svg width="106" height="101" viewBox="0 0 106 101" fill="none" xmlns="http://www.w3.org/2000/svg">
<rect x="0.0153809" width="105.961" height="100.033" rx="9.2623" fill="#1A232D"/>
<path d="M73.1874 18.1541C73.1874 16.4194 73.189 15.5885 73.3705 14.9112C73.8672 13.0574 75.3153 11.6093 77.1692 11.1126C77.8464 10.9311 78.6774 10.9295 80.412 10.9295H90.0448C91.7795 10.9295 92.6105 10.9311 93.2877 11.1126C95.1416 11.6093 96.5896 13.0574 97.0864 14.9112C97.2678 15.5885 97.2694 16.4194 97.2694 18.1541C97.2694 19.8888 97.2678 20.7198 97.0864 21.397C96.5896 23.2509 95.1416 24.6989 93.2877 25.1957C92.6105 25.3771 91.7795 25.3787 90.0448 25.3787H78.3961C75.5195 25.3787 73.1874 23.0467 73.1874 20.17V18.1541Z" stroke="#2873FF" stroke-width="0.370492"/>
<path d="M79.9824 17.6431C80.0066 17.325 80.1293 17.076 80.3506 16.8962C80.5719 16.7164 80.8589 16.6265 81.2116 16.6265C81.4468 16.6265 81.6491 16.6697 81.8185 16.7561C81.9914 16.8391 82.1211 16.9532 82.2075 17.0985C82.2974 17.2437 82.3424 17.408 82.3424 17.5912C82.3424 17.8056 82.2801 17.9906 82.1557 18.1462C82.0346 18.3018 81.8756 18.4021 81.6785 18.4471V18.473C81.9032 18.5283 82.0813 18.6372 82.2127 18.7998C82.3441 18.9623 82.4098 19.175 82.4098 19.4378C82.4098 19.6349 82.3649 19.8129 82.275 19.972C82.1851 20.1276 82.0502 20.2504 81.8704 20.3403C81.6906 20.4302 81.4745 20.4751 81.222 20.4751C80.8555 20.4751 80.5546 20.38 80.3195 20.1899C80.0844 19.9962 79.953 19.723 79.9253 19.3703H80.3817C80.406 19.5778 80.4907 19.7472 80.6359 19.8786C80.7811 20.01 80.9748 20.0757 81.2168 20.0757C81.4589 20.0757 81.6422 20.0135 81.7666 19.889C81.8946 19.7611 81.9586 19.5968 81.9586 19.3963C81.9586 19.1369 81.8721 18.9502 81.6992 18.8361C81.5263 18.722 81.2652 18.6649 80.916 18.6649H80.7967V18.2707H80.9212C81.2393 18.2672 81.4796 18.2154 81.6422 18.1151C81.8047 18.0114 81.8859 17.8523 81.8859 17.6379C81.8859 17.4546 81.8254 17.3077 81.7044 17.197C81.5868 17.0864 81.4174 17.031 81.1961 17.031C80.9817 17.031 80.8088 17.0864 80.6774 17.197C80.546 17.3077 80.4682 17.4564 80.444 17.6431H79.9824ZM83.2753 20.4803C83.1854 20.4803 83.1094 20.4492 83.0471 20.387C82.9849 20.3247 82.9538 20.2486 82.9538 20.1587C82.9538 20.0688 82.9849 19.9927 83.0471 19.9305C83.1094 19.8683 83.1854 19.8371 83.2753 19.8371C83.3618 19.8371 83.4344 19.8683 83.4932 19.9305C83.5554 19.9927 83.5866 20.0688 83.5866 20.1587C83.5866 20.2486 83.5554 20.3247 83.4932 20.387C83.4344 20.4492 83.3618 20.4803 83.2753 20.4803ZM84.1258 17.6431C84.15 17.325 84.2727 17.076 84.4941 16.8962C84.7154 16.7164 85.0024 16.6265 85.3551 16.6265C85.5902 16.6265 85.7925 16.6697 85.9619 16.7561C86.1348 16.8391 86.2645 16.9532 86.351 17.0985C86.4409 17.2437 86.4858 17.408 86.4858 17.5912C86.4858 17.8056 86.4236 17.9906 86.2991 18.1462C86.1781 18.3018 86.019 18.4021 85.8219 18.4471V18.473C86.0467 18.5283 86.2247 18.6372 86.3561 18.7998C86.4876 18.9623 86.5533 19.175 86.5533 19.4378C86.5533 19.6349 86.5083 19.8129 86.4184 19.972C86.3285 20.1276 86.1936 20.2504 86.0138 20.3403C85.834 20.4302 85.6179 20.4751 85.3655 20.4751C84.9989 20.4751 84.6981 20.38 84.4629 20.1899C84.2278 19.9962 84.0964 19.723 84.0687 19.3703H84.5252C84.5494 19.5778 84.6341 19.7472 84.7793 19.8786C84.9246 20.01 85.1182 20.0757 85.3603 20.0757C85.6023 20.0757 85.7856 20.0135 85.9101 19.889C86.038 19.7611 86.102 19.5968 86.102 19.3963C86.102 19.1369 86.0155 18.9502 85.8426 18.8361C85.6698 18.722 85.4087 18.6649 85.0594 18.6649H84.9401V18.2707H85.0646C85.3827 18.2672 85.6231 18.2154 85.7856 18.1151C85.9481 18.0114 86.0294 17.8523 86.0294 17.6379C86.0294 17.4546 85.9689 17.3077 85.8478 17.197C85.7303 17.0864 85.5608 17.031 85.3395 17.031C85.1251 17.031 84.9522 17.0864 84.8208 17.197C84.6894 17.3077 84.6116 17.4564 84.5874 17.6431H84.1258ZM89.2809 17.5912C89.2048 17.2074 88.9679 17.0155 88.5703 17.0155C88.2625 17.0155 88.0326 17.1348 87.8804 17.3734C87.7283 17.6085 87.6539 17.9975 87.6574 18.5404C87.7369 18.3606 87.8683 18.2206 88.0516 18.1203C88.2383 18.0165 88.4458 17.9647 88.674 17.9647C89.0302 17.9647 89.3137 18.0753 89.5247 18.2966C89.739 18.5179 89.8462 18.824 89.8462 19.2147C89.8462 19.4499 89.7996 19.6608 89.7062 19.8475C89.6163 20.0342 89.478 20.1829 89.2912 20.2936C89.108 20.4042 88.8849 20.4596 88.6221 20.4596C88.266 20.4596 87.9876 20.38 87.787 20.221C87.5865 20.0619 87.4464 19.8423 87.3669 19.5622C87.2874 19.2821 87.2476 18.9364 87.2476 18.5249C87.2476 17.2558 87.6902 16.6213 88.5754 16.6213C88.9143 16.6213 89.1806 16.7129 89.3742 16.8962C89.5679 17.0794 89.682 17.3111 89.7166 17.5912H89.2809ZM88.5754 18.3641C88.4268 18.3641 88.2867 18.3952 88.1553 18.4574C88.0239 18.5162 87.9167 18.6079 87.8337 18.7323C87.7542 18.8534 87.7144 19.0021 87.7144 19.1784C87.7144 19.4412 87.7905 19.6556 87.9426 19.8216C88.0948 19.9841 88.3126 20.0654 88.5962 20.0654C88.8383 20.0654 89.0302 19.991 89.1719 19.8423C89.3172 19.6902 89.3898 19.4862 89.3898 19.2303C89.3898 18.9606 89.3206 18.7496 89.1823 18.5975C89.044 18.4419 88.8417 18.3641 88.5754 18.3641ZM90.3793 17.5445C90.3793 17.3094 90.4502 17.1227 90.5919 16.9844C90.7337 16.8426 90.9152 16.7717 91.1366 16.7717C91.3579 16.7717 91.5394 16.8426 91.6812 16.9844C91.823 17.1227 91.8938 17.3094 91.8938 17.5445C91.8938 17.7831 91.823 17.9733 91.6812 18.1151C91.5394 18.2534 91.3579 18.3226 91.1366 18.3226C90.9152 18.3226 90.7337 18.2534 90.5919 18.1151C90.4502 17.9733 90.3793 17.7831 90.3793 17.5445ZM93.4084 16.8287L91.3077 20.4492H90.8409L92.9416 16.8287H93.4084ZM91.1366 17.0622C91.019 17.0622 90.9256 17.1037 90.8565 17.1866C90.7908 17.2662 90.7579 17.3855 90.7579 17.5445C90.7579 17.7036 90.7908 17.8246 90.8565 17.9076C90.9256 17.9906 91.019 18.0321 91.1366 18.0321C91.2541 18.0321 91.3475 17.9906 91.4166 17.9076C91.4858 17.8212 91.5204 17.7001 91.5204 17.5445C91.5204 17.3855 91.4858 17.2662 91.4166 17.1866C91.3475 17.1037 91.2541 17.0622 91.1366 17.0622ZM92.3658 19.7334C92.3658 19.4948 92.4367 19.3064 92.5785 19.168C92.7203 19.0263 92.9018 18.9554 93.1231 18.9554C93.3444 18.9554 93.5243 19.0263 93.6626 19.168C93.8043 19.3064 93.8752 19.4948 93.8752 19.7334C93.8752 19.9685 93.8043 20.157 93.6626 20.2988C93.5243 20.4406 93.3444 20.5114 93.1231 20.5114C92.9018 20.5114 92.7203 20.4423 92.5785 20.304C92.4367 20.1622 92.3658 19.972 92.3658 19.7334ZM93.1179 19.251C93.0004 19.251 92.907 19.2925 92.8379 19.3755C92.7687 19.455 92.7341 19.5743 92.7341 19.7334C92.7341 19.889 92.7687 20.0083 92.8379 20.0913C92.907 20.1708 93.0004 20.2106 93.1179 20.2106C93.2355 20.2106 93.3289 20.1708 93.398 20.0913C93.4672 20.0083 93.5018 19.889 93.5018 19.7334C93.5018 19.5743 93.4672 19.455 93.398 19.3755C93.3289 19.2925 93.2355 19.251 93.1179 19.251Z" fill="#2873FF"/>
<path d="M77.1318 17.1736C77.2041 17.1013 77.3214 17.1013 77.3938 17.1736L78.4285 18.2084C78.5009 18.2807 78.5009 18.398 78.4285 18.4704L77.3938 19.5051C77.3214 19.5774 77.2041 19.5774 77.1318 19.5051L76.0971 18.4704C76.0247 18.398 76.0247 18.2807 76.0971 18.2084L77.1318 17.1736Z" fill="#2873FF"/>
<path d="M8.90723 85.2132C8.90723 83.834 8.90723 83.1444 9.08856 82.5863C9.45504 81.4584 10.3393 80.5741 11.4673 80.2076C12.0253 80.0263 12.7149 80.0263 14.0941 80.0263H18.54C19.9192 80.0263 20.6088 80.0263 21.1669 80.2076C22.2948 80.5741 23.1791 81.4584 23.5456 82.5863C23.7269 83.1444 23.7269 83.834 23.7269 85.2132C23.7269 86.5923 23.7269 87.2819 23.5456 87.84C23.1791 88.9679 22.2948 89.8522 21.1669 90.2187C20.6088 90.4001 19.9192 90.4001 18.54 90.4001H12.1763C10.3708 90.4001 8.90723 88.9364 8.90723 87.131V85.2132Z" fill="#333743"/>
<path d="M12.0934 83.2449C12.1107 83.0176 12.1984 82.8398 12.3564 82.7114C12.5145 82.5829 12.7195 82.5187 12.9715 82.5187C13.1394 82.5187 13.2839 82.5496 13.4049 82.6113C13.5284 82.6706 13.6211 82.7521 13.6828 82.8558C13.747 82.9596 13.7791 83.0769 13.7791 83.2078C13.7791 83.3609 13.7347 83.4931 13.6458 83.6042C13.5593 83.7154 13.4457 83.787 13.3049 83.8191V83.8376C13.4654 83.8772 13.5926 83.955 13.6865 84.0711C13.7804 84.1871 13.8273 84.339 13.8273 84.5268C13.8273 84.6675 13.7952 84.7948 13.731 84.9084C13.6667 85.0195 13.5704 85.1072 13.442 85.1714C13.3135 85.2356 13.1592 85.2677 12.9789 85.2677C12.7171 85.2677 12.5022 85.1998 12.3342 85.064C12.1663 84.9257 12.0724 84.7305 12.0526 84.4786H12.3787C12.396 84.6268 12.4565 84.7478 12.5602 84.8417C12.6639 84.9355 12.8023 84.9825 12.9752 84.9825C13.1481 84.9825 13.279 84.938 13.3679 84.8491C13.4593 84.7577 13.505 84.6404 13.505 84.4971C13.505 84.3119 13.4432 84.1785 13.3197 84.097C13.1962 84.0155 13.0097 83.9747 12.7603 83.9747H12.6751L12.6751 83.6932H12.764C12.9912 83.6907 13.1629 83.6536 13.279 83.582C13.3951 83.5079 13.4531 83.3943 13.4531 83.2412C13.4531 83.1102 13.4099 83.0053 13.3234 82.9262C13.2394 82.8472 13.1184 82.8077 12.9603 82.8077C12.8072 82.8077 12.6837 82.8472 12.5898 82.9262C12.496 83.0053 12.4404 83.1115 12.4231 83.2449H12.0934ZM14.2825 83.8821C14.2825 83.4573 14.3517 83.1263 14.49 82.8892C14.6283 82.6496 14.8704 82.5298 15.2161 82.5298C15.5595 82.5298 15.8003 82.6496 15.9386 82.8892C16.0769 83.1263 16.1461 83.4573 16.1461 83.8821C16.1461 84.3143 16.0769 84.6503 15.9386 84.8898C15.8003 85.1294 15.5595 85.2492 15.2161 85.2492C14.8704 85.2492 14.6283 85.1294 14.49 84.8898C14.3517 84.6503 14.2825 84.3143 14.2825 83.8821ZM15.8126 83.8821C15.8126 83.6672 15.7978 83.4857 15.7682 83.3375C15.741 83.1868 15.683 83.0658 15.594 82.9744C15.5076 82.883 15.3816 82.8373 15.2161 82.8373C15.0482 82.8373 14.9198 82.883 14.8308 82.9744C14.7444 83.0658 14.6863 83.1868 14.6567 83.3375C14.6295 83.4857 14.6159 83.6672 14.6159 83.8821C14.6159 84.1044 14.6295 84.2909 14.6567 84.4415C14.6863 84.5922 14.7444 84.7132 14.8308 84.8046C14.9198 84.896 15.0482 84.9417 15.2161 84.9417C15.3816 84.9417 15.5076 84.896 15.594 84.8046C15.683 84.7132 15.741 84.5922 15.7682 84.4415C15.7978 84.2909 15.8126 84.1044 15.8126 83.8821ZM19.1061 83.1819C19.2641 83.1819 19.4049 83.2152 19.5284 83.2819C19.6519 83.3461 19.7495 83.4437 19.8211 83.5746C19.8927 83.7055 19.9285 83.8648 19.9285 84.0525L19.9285 85.2492H19.5951L19.5951 84.1007C19.5951 83.8982 19.5445 83.7438 19.4432 83.6376C19.3444 83.5289 19.2098 83.4746 19.0394 83.4746C18.864 83.4746 18.7244 83.5314 18.6207 83.645C18.517 83.7561 18.4651 83.9179 18.4651 84.1303L18.4651 85.2492H18.1317L18.1317 84.1007C18.1317 83.8982 18.081 83.7438 17.9798 83.6376C17.881 83.5289 17.7463 83.4746 17.5759 83.4746C17.4006 83.4746 17.261 83.5314 17.1573 83.645C17.0535 83.7561 17.0017 83.9179 17.0017 84.1303L17.0017 85.2492H16.6645L16.6645 83.2189H17.0017V83.5116C17.0683 83.4054 17.1573 83.3239 17.2684 83.2671C17.382 83.2103 17.5068 83.1819 17.6426 83.1819C17.813 83.1819 17.9637 83.2202 18.0946 83.2967C18.2255 83.3733 18.3231 83.4857 18.3873 83.6339C18.4441 83.4906 18.538 83.3795 18.6689 83.3004C18.7998 83.2214 18.9455 83.1819 19.1061 83.1819Z" fill="white"/>
<path d="M27.6171 85.2132C27.6171 83.8196 27.6194 83.1667 27.7894 82.6436C28.1376 81.572 28.9776 80.7319 30.0492 80.3838C30.5723 80.2138 31.2252 80.2115 32.6188 80.2115H37.0647C38.4583 80.2115 39.1111 80.2138 39.6343 80.3838C40.7058 80.7319 41.5459 81.572 41.8941 82.6436C42.064 83.1667 42.0663 83.8196 42.0663 85.2132C42.0663 86.6068 42.064 87.2596 41.8941 87.7828C41.5459 88.8543 40.7058 89.6944 39.6343 90.0425C39.1111 90.2125 38.4583 90.2148 37.0647 90.2148H30.7009C28.9978 90.2148 27.6171 88.8341 27.6171 87.131V85.2132Z" stroke="#808195" stroke-opacity="0.3" stroke-width="0.370492"/>
<path d="M32.7597 82.8781V82.5706H33.4562L33.4562 85.2492H33.1154L33.1154 82.8781H32.7597ZM36.0804 82.6669L36.0804 85.2492H35.7433L35.7433 84.0785H34.4281L34.4281 85.2492H34.0909L34.0909 82.6669H34.4281L34.4281 83.8006H35.7433L35.7433 82.6669H36.0804Z" fill="#C2C2C2"/>
<path d="M46.1415 85.2132C46.1415 83.8196 46.1438 83.1667 46.3138 82.6436C46.662 81.572 47.5021 80.7319 48.5736 80.3838C49.0967 80.2138 49.7496 80.2115 51.1432 80.2115H55.5891C56.9827 80.2115 57.6356 80.2138 58.1587 80.3838C59.2302 80.7319 60.0703 81.572 60.4185 82.6436C60.5884 83.1667 60.5907 83.8196 60.5907 85.2132C60.5907 86.6068 60.5884 87.2596 60.4185 87.7828C60.0703 88.8543 59.2302 89.6944 58.1587 90.0425C57.6356 90.2125 56.9827 90.2148 55.5891 90.2148H49.2253C47.5222 90.2148 46.1415 88.8341 46.1415 87.131V85.2132Z" stroke="#808195" stroke-opacity="0.3" stroke-width="0.370492"/>
<path d="M50.9209 84.6527V84.3971L52.2213 82.5965H52.6252L52.6252 84.36H52.9957V84.6527H52.6252L52.6252 85.2492H52.2917L52.2917 84.6527H50.9209ZM52.3065 82.9485L51.3099 84.36H52.3065L52.3065 82.9485ZM55.3776 82.6669L55.3776 85.2492H55.0404L55.0404 84.0785H53.7252L53.7252 85.2492H53.388L53.388 82.6669H53.7252L53.7252 83.8006H55.0404L55.0404 82.6669H55.3776Z" fill="#C2C2C2"/>
<path d="M64.6662 85.2132C64.6662 83.8196 64.6685 83.1667 64.8385 82.6436C65.1866 81.572 66.0267 80.7319 67.0982 80.3838C67.6214 80.2138 68.2742 80.2115 69.6678 80.2115H74.1137C75.5073 80.2115 76.1602 80.2138 76.6834 80.3838C77.7549 80.7319 78.595 81.572 78.9431 82.6436C79.1131 83.1667 79.1154 83.8196 79.1154 85.2132C79.1154 86.6068 79.1131 87.2596 78.9431 87.7828C78.595 88.8543 77.7549 89.6944 76.6834 90.0425C76.1602 90.2125 75.5073 90.2148 74.1137 90.2148H67.75C66.0469 90.2148 64.6662 88.8341 64.6662 87.131V85.2132Z" stroke="#808195" stroke-opacity="0.3" stroke-width="0.370492"/>
<path d="M69.8088 82.8781V82.5706H70.5053L70.5053 85.2492H70.1644L70.1644 82.8781H69.8088ZM71.9439 82.6669C72.2255 82.6669 72.4688 82.72 72.6738 82.8262C72.8813 82.9299 73.0394 83.0794 73.148 83.2745C73.2592 83.4696 73.3148 83.6993 73.3148 83.9636C73.3148 84.2279 73.2592 84.4576 73.148 84.6527C73.0394 84.8454 72.8813 84.9936 72.6738 85.0973C72.4688 85.1986 72.2255 85.2492 71.9439 85.2492H71.14L71.14 82.6669H71.9439ZM71.9439 84.9714C72.2774 84.9714 72.5318 84.8837 72.7072 84.7083C72.8825 84.5305 72.9702 84.2822 72.9702 83.9636C72.9702 83.6425 72.8813 83.3918 72.7035 83.2115C72.5281 83.0312 72.2749 82.9411 71.9439 82.9411H71.4771L71.4771 84.9714H71.9439Z" fill="#C2C2C2"/>
<path d="M82.4499 85.2132C82.4499 83.8196 82.4522 83.1667 82.6222 82.6436C82.9703 81.572 83.8104 80.7319 84.8819 80.3838C85.4051 80.2138 86.0579 80.2115 87.4515 80.2115H91.8974C93.291 80.2115 93.9439 80.2138 94.467 80.3838C95.5386 80.7319 96.3787 81.572 96.7268 82.6436C96.8968 83.1667 96.8991 83.8196 96.8991 85.2132C96.8991 86.6068 96.8968 87.2596 96.7268 87.7828C96.3787 88.8543 95.5386 89.6944 94.467 90.0425C93.9439 90.2125 93.291 90.2148 91.8974 90.2148H85.5337C83.8306 90.2148 82.4499 88.8341 82.4499 87.131V85.2132Z" stroke="#808195" stroke-opacity="0.3" stroke-width="0.370492"/>
<path d="M88.9594 82.8336L87.9295 85.2492H87.5886L88.6334 82.867H87.2033V82.578H88.9594V82.8336ZM90.1928 82.6669C90.4744 82.6669 90.7177 82.72 90.9227 82.8262C91.1302 82.9299 91.2882 83.0794 91.3969 83.2745C91.5081 83.4696 91.5636 83.6993 91.5636 83.9636C91.5636 84.2279 91.5081 84.4576 91.3969 84.6527C91.2882 84.8454 91.1302 84.9936 90.9227 85.0973C90.7177 85.1986 90.4744 85.2492 90.1928 85.2492H89.3888L89.3888 82.6669H90.1928ZM90.1928 84.9714C90.5263 84.9714 90.7807 84.8837 90.956 84.7083C91.1314 84.5305 91.2191 84.2822 91.2191 83.9636C91.2191 83.6425 91.1302 83.3918 90.9523 83.2115C90.777 83.0312 90.5238 82.9411 90.1928 82.9411H89.726L89.726 84.9714H90.1928Z" fill="#C2C2C2"/>
<path d="M15.5761 24.082C18.8499 24.082 21.5039 21.428 21.5039 18.1541C21.5039 14.8802 18.8499 12.2262 15.5761 12.2262C12.3022 12.2262 9.64819 14.8802 9.64819 18.1541C9.64819 21.428 12.3022 24.082 15.5761 24.082Z" fill="#F7931A"/>
<path d="M18.2395 17.4205C18.3558 16.6425 17.7642 16.2264 16.9558 15.9478L17.2181 14.8956L16.5764 14.7363L16.3207 15.7607C16.1525 15.7185 15.9799 15.6792 15.8076 15.64L16.0651 14.6089L15.4278 14.4492L15.1655 15.501C15.0262 15.4692 14.8892 15.438 14.758 15.4047V15.4014L13.8747 15.1791L13.7043 15.863C13.7043 15.863 14.1797 15.9719 14.1697 15.9786C14.258 15.9901 14.3384 16.0357 14.3935 16.1057C14.4486 16.1757 14.4741 16.2646 14.4646 16.3532L14.1682 17.5517C14.1908 17.5574 14.2131 17.5644 14.2349 17.5728L14.1671 17.5561L13.7484 19.2352C13.7391 19.2645 13.7242 19.2917 13.7044 19.3152C13.6846 19.3387 13.6604 19.3581 13.6331 19.3722C13.6058 19.3863 13.5759 19.3949 13.5453 19.3974C13.5147 19.4 13.4839 19.3965 13.4546 19.3871C13.4613 19.3964 12.9893 19.2711 12.9893 19.2711L12.6714 20.004L13.505 20.2118C13.6599 20.2489 13.8118 20.2915 13.9611 20.3296L13.6962 21.3937L14.336 21.553L14.5983 20.5008C14.7732 20.5479 14.9429 20.5916 15.1089 20.6331L14.8473 21.6808L15.4875 21.8401L15.7524 20.7783C16.8446 20.985 17.6656 20.9017 18.0124 19.914C18.291 19.1189 17.9987 18.6598 17.4241 18.3609C17.6451 18.3164 17.8451 18.2001 17.993 18.03C18.141 17.8599 18.2284 17.6456 18.2417 17.4205H18.2395ZM16.7761 19.4723C16.5786 20.2678 15.2393 19.8376 14.8051 19.7298L15.157 18.3201C15.5912 18.4287 16.9839 18.6432 16.7761 19.4723ZM16.9743 17.4091C16.7939 18.1326 15.6794 17.7647 15.3182 17.6747L15.6368 16.3965C15.998 16.4865 17.1625 16.6558 16.9743 17.4091Z" fill="white"/>
<path d="M49.9325 20.6466C49.6479 20.368 49.4256 20.0138 49.2656 19.5841C49.1085 19.1543 49.03 18.6904 49.03 18.1925C49.03 17.6827 49.113 17.207 49.2789 16.7654C49.4479 16.3208 49.688 15.9547 49.9992 15.6672H50.4215V15.7072C50.0896 16.0184 49.8391 16.3934 49.6702 16.832C49.5042 17.2677 49.4212 17.7212 49.4212 18.1925C49.4212 18.6519 49.4997 19.0906 49.6568 19.5085C49.8169 19.9264 50.0496 20.2924 50.3548 20.6066V20.6466H49.9325ZM52.4627 18.2236C52.5753 18.2414 52.6775 18.2873 52.7694 18.3614C52.8643 18.4355 52.9384 18.5274 52.9917 18.6371C53.048 18.7467 53.0762 18.8638 53.0762 18.9883C53.0762 19.1454 53.0362 19.2877 52.9561 19.4151C52.8761 19.5396 52.759 19.6389 52.6049 19.713C52.4538 19.7841 52.2744 19.8197 52.067 19.8197H50.911V16.7209H52.0225C52.2329 16.7209 52.4123 16.7565 52.5605 16.8276C52.7087 16.8958 52.8198 16.9891 52.8939 17.1077C52.968 17.2262 53.0051 17.3596 53.0051 17.5078C53.0051 17.6916 52.9547 17.8442 52.8539 17.9657C52.7561 18.0843 52.6257 18.1703 52.4627 18.2236ZM51.3156 18.0591H51.9958C52.1855 18.0591 52.3322 18.0146 52.436 17.9257C52.5397 17.8368 52.5916 17.7138 52.5916 17.5567C52.5916 17.3996 52.5397 17.2766 52.436 17.1877C52.3322 17.0988 52.1826 17.0543 51.9869 17.0543H51.3156V18.0591ZM52.0314 19.4862C52.2329 19.4862 52.39 19.4388 52.5027 19.344C52.6153 19.2491 52.6716 19.1172 52.6716 18.9483C52.6716 18.7764 52.6123 18.6415 52.4938 18.5437C52.3752 18.4429 52.2166 18.3926 52.0181 18.3926H51.3156V19.4862H52.0314ZM55.5449 16.7209V17.0499H54.7002V19.8197H54.2956V17.0499H53.4464V16.7209H55.5449ZM55.8918 18.2681C55.8918 17.9657 55.9599 17.6945 56.0963 17.4545C56.2326 17.2114 56.4179 17.0217 56.652 16.8854C56.8891 16.749 57.1514 16.6809 57.4389 16.6809C57.7768 16.6809 58.0717 16.7624 58.3237 16.9254C58.5756 17.0884 58.7594 17.3196 58.875 17.619H58.3904C58.3044 17.4322 58.1799 17.2885 58.0169 17.1877C57.8569 17.0869 57.6642 17.0366 57.4389 17.0366C57.2226 17.0366 57.0284 17.0869 56.8565 17.1877C56.6846 17.2885 56.5498 17.4322 56.4519 17.619C56.3541 17.8027 56.3052 18.0191 56.3052 18.2681C56.3052 18.5141 56.3541 18.7304 56.4519 18.9172C56.5498 19.1009 56.6846 19.2432 56.8565 19.344C57.0284 19.4447 57.2226 19.4951 57.4389 19.4951C57.6642 19.4951 57.8569 19.4462 58.0169 19.3484C58.1799 19.2476 58.3044 19.1039 58.3904 18.9172H58.875C58.7594 19.2136 58.5756 19.4433 58.3237 19.6063C58.0717 19.7663 57.7768 19.8464 57.4389 19.8464C57.1514 19.8464 56.8891 19.7797 56.652 19.6463C56.4179 19.51 56.2326 19.3217 56.0963 19.0817C55.9599 18.8416 55.8918 18.5704 55.8918 18.2681ZM59.3483 20.6466V20.6066C59.6536 20.2924 59.8848 19.9264 60.0418 19.5085C60.2019 19.0906 60.2819 18.6519 60.2819 18.1925C60.2819 17.7212 60.1974 17.2677 60.0285 16.832C59.8625 16.3934 59.6136 16.0184 59.2816 15.7072V15.6672H59.704C60.0152 15.9547 60.2538 16.3208 60.4197 16.7654C60.5887 17.207 60.6732 17.6827 60.6732 18.1925C60.6732 18.6904 60.5931 19.1543 60.4331 19.5841C60.276 20.0138 60.0552 20.368 59.7706 20.6466H59.3483Z" fill="#A4A8AB"/>
<path d="M10.3951 43.2022H11.4799V43.5312H9.99053V40.4324H10.3951V43.2022ZM11.7584 42.3041C11.7584 42.0551 11.8088 41.8373 11.9096 41.6506C12.0103 41.4609 12.1482 41.3141 12.323 41.2104C12.5009 41.1067 12.698 41.0548 12.9143 41.0548C13.1277 41.0548 13.313 41.1007 13.4701 41.1926C13.6272 41.2845 13.7442 41.4001 13.8213 41.5394V41.0948H14.2303V43.5312H13.8213V43.0777C13.7413 43.22 13.6212 43.3385 13.4612 43.4334C13.3041 43.5252 13.1203 43.5712 12.9099 43.5712C12.6935 43.5712 12.4979 43.5178 12.323 43.4111C12.1482 43.3044 12.0103 43.1548 11.9096 42.9621C11.8088 42.7694 11.7584 42.5501 11.7584 42.3041ZM13.8213 42.3086C13.8213 42.1248 13.7843 41.9647 13.7102 41.8284C13.6361 41.6921 13.5353 41.5883 13.4078 41.5172C13.2833 41.4431 13.1455 41.406 12.9944 41.406C12.8432 41.406 12.7054 41.4416 12.5809 41.5127C12.4564 41.5839 12.3571 41.6876 12.283 41.8239C12.2089 41.9603 12.1719 42.1203 12.1719 42.3041C12.1719 42.4908 12.2089 42.6538 12.283 42.7932C12.3571 42.9295 12.4564 43.0347 12.5809 43.1088C12.7054 43.1799 12.8432 43.2155 12.9944 43.2155C13.1455 43.2155 13.2833 43.1799 13.4078 43.1088C13.5353 43.0347 13.6361 42.9295 13.7102 42.7932C13.7843 42.6538 13.8213 42.4923 13.8213 42.3086ZM15.7765 43.5712C15.5898 43.5712 15.4223 43.5401 15.2741 43.4778C15.1259 43.4126 15.0089 43.3237 14.9229 43.2111C14.837 43.0955 14.7895 42.9636 14.7806 42.8154H15.1986C15.2104 42.9369 15.2667 43.0362 15.3675 43.1133C15.4712 43.1903 15.6061 43.2289 15.7721 43.2289C15.9262 43.2289 16.0477 43.1948 16.1366 43.1266C16.2256 43.0584 16.27 42.9725 16.27 42.8687C16.27 42.762 16.2226 42.6835 16.1278 42.6331C16.0329 42.5798 15.8862 42.5279 15.6876 42.4775C15.5068 42.4301 15.3586 42.3826 15.243 42.3352C15.1304 42.2848 15.0326 42.2122 14.9496 42.1174C14.8696 42.0196 14.8295 41.8921 14.8295 41.735C14.8295 41.6105 14.8666 41.4964 14.9407 41.3927C15.0148 41.289 15.12 41.2074 15.2564 41.1482C15.3927 41.0859 15.5483 41.0548 15.7232 41.0548C15.9929 41.0548 16.2107 41.123 16.3767 41.2593C16.5427 41.3957 16.6316 41.5824 16.6435 41.8195H16.2389C16.23 41.6921 16.1781 41.5898 16.0833 41.5127C15.9914 41.4357 15.8669 41.3971 15.7098 41.3971C15.5646 41.3971 15.449 41.4283 15.3631 41.4905C15.2771 41.5527 15.2341 41.6343 15.2341 41.735C15.2341 41.8151 15.2593 41.8817 15.3097 41.9351C15.3631 41.9855 15.4283 42.027 15.5053 42.0596C15.5854 42.0892 15.695 42.1233 15.8343 42.1618C16.0092 42.2093 16.1515 42.2567 16.2611 42.3041C16.3708 42.3486 16.4642 42.4167 16.5412 42.5086C16.6212 42.6005 16.6627 42.7205 16.6657 42.8687C16.6657 43.0021 16.6287 43.1222 16.5546 43.2289C16.4805 43.3356 16.3752 43.42 16.2389 43.4823C16.1055 43.5415 15.9514 43.5712 15.7765 43.5712ZM17.7303 41.4283V42.8643C17.7303 42.9828 17.7555 43.0673 17.8059 43.1177C17.8563 43.1651 17.9437 43.1888 18.0682 43.1888H18.3661V43.5312H18.0015C17.7763 43.5312 17.6073 43.4793 17.4947 43.3756C17.3821 43.2718 17.3257 43.1014 17.3257 42.8643V41.4283H17.0101V41.0948H17.3257V40.4813H17.7303V41.0948H18.3661V41.4283H17.7303ZM19.966 41.1259C19.9867 40.8533 20.092 40.6399 20.2817 40.4857C20.4713 40.3316 20.7173 40.2545 21.0197 40.2545C21.2212 40.2545 21.3946 40.2916 21.5398 40.3657C21.688 40.4368 21.7992 40.5346 21.8733 40.6591C21.9503 40.7836 21.9889 40.9244 21.9889 41.0815C21.9889 41.2652 21.9355 41.4238 21.8288 41.5572C21.7251 41.6906 21.5887 41.7765 21.4198 41.8151V41.8373C21.6125 41.8847 21.7651 41.9781 21.8777 42.1174C21.9904 42.2567 22.0467 42.439 22.0467 42.6642C22.0467 42.8332 22.0081 42.9858 21.9311 43.1222C21.854 43.2555 21.7384 43.3607 21.5843 43.4378C21.4302 43.5149 21.2449 43.5534 21.0286 43.5534C20.7144 43.5534 20.4565 43.4719 20.255 43.3089C20.0534 43.1429 19.9408 42.9087 19.9171 42.6064H20.3083C20.3291 42.7843 20.4017 42.9295 20.5262 43.0421C20.6507 43.1548 20.8166 43.2111 21.0241 43.2111C21.2316 43.2111 21.3887 43.1577 21.4954 43.051C21.605 42.9414 21.6599 42.8006 21.6599 42.6287C21.6599 42.4064 21.5858 42.2463 21.4376 42.1485C21.2894 42.0507 21.0656 42.0018 20.7663 42.0018H20.664V41.6639H20.7707C21.0434 41.6609 21.2494 41.6165 21.3887 41.5305C21.528 41.4416 21.5976 41.3053 21.5976 41.1215C21.5976 40.9644 21.5458 40.8384 21.442 40.7436C21.3413 40.6487 21.196 40.6013 21.0063 40.6013C20.8226 40.6013 20.6744 40.6487 20.5617 40.7436C20.4491 40.8384 20.3824 40.9659 20.3617 41.1259H19.966ZM22.5929 41.8906C22.5929 41.3808 22.6759 40.9837 22.8419 40.6991C23.0079 40.4116 23.2983 40.2679 23.7133 40.2679C24.1253 40.2679 24.4143 40.4116 24.5802 40.6991C24.7462 40.9837 24.8292 41.3808 24.8292 41.8906C24.8292 42.4093 24.7462 42.8124 24.5802 43.0999C24.4143 43.3874 24.1253 43.5312 23.7133 43.5312C23.2983 43.5312 23.0079 43.3874 22.8419 43.0999C22.6759 42.8124 22.5929 42.4093 22.5929 41.8906ZM24.4291 41.8906C24.4291 41.6328 24.4113 41.4149 24.3757 41.2371C24.3431 41.0563 24.2735 40.9111 24.1668 40.8014C24.063 40.6917 23.9119 40.6369 23.7133 40.6369C23.5117 40.6369 23.3576 40.6917 23.2509 40.8014C23.1472 40.9111 23.0775 41.0563 23.042 41.2371C23.0094 41.4149 22.9931 41.6328 22.9931 41.8906C22.9931 42.1574 23.0094 42.3812 23.042 42.562C23.0775 42.7428 23.1472 42.888 23.2509 42.9977C23.3576 43.1073 23.5117 43.1622 23.7133 43.1622C23.9119 43.1622 24.063 43.1073 24.1668 42.9977C24.2735 42.888 24.3431 42.7428 24.3757 42.562C24.4113 42.3812 24.4291 42.1574 24.4291 41.8906ZM28.3812 41.0504C28.5709 41.0504 28.7398 41.0904 28.888 41.1704C29.0362 41.2475 29.1533 41.3645 29.2392 41.5216C29.3252 41.6787 29.3682 41.8699 29.3682 42.0951V43.5312H28.968V42.1529C28.968 41.9099 28.9073 41.7247 28.7858 41.5972C28.6672 41.4668 28.5057 41.4016 28.3012 41.4016C28.0907 41.4016 27.9233 41.4698 27.7988 41.6061C27.6743 41.7395 27.612 41.9336 27.612 42.1885V43.5312H27.2119V42.1529C27.2119 41.9099 27.1512 41.7247 27.0296 41.5972C26.9111 41.4668 26.7495 41.4016 26.545 41.4016C26.3346 41.4016 26.1671 41.4698 26.0426 41.6061C25.9182 41.7395 25.8559 41.9336 25.8559 42.1885V43.5312H25.4513V41.0948H25.8559V41.446C25.9359 41.3186 26.0426 41.2208 26.176 41.1526C26.3124 41.0844 26.462 41.0504 26.6251 41.0504C26.8296 41.0504 27.0104 41.0963 27.1675 41.1882C27.3245 41.2801 27.4416 41.4149 27.5187 41.5928C27.5868 41.4209 27.6995 41.2875 27.8566 41.1926C28.0137 41.0978 28.1885 41.0504 28.3812 41.0504Z" fill="#A4A8AB"/>
<path d="M29.4474 18.586C29.6805 18.6295 29.8722 18.7461 30.0224 18.9358C30.1726 19.1255 30.2476 19.3428 30.2476 19.5878C30.2476 19.8092 30.1923 20.0048 30.0817 20.1747C29.975 20.3407 29.8189 20.4711 29.6134 20.5659C29.4079 20.6608 29.1648 20.7082 28.8842 20.7082H27.0999V16.5706H28.8072C29.0878 16.5706 29.3288 16.616 29.5304 16.7069C29.7359 16.7978 29.89 16.9243 29.9927 17.0863C30.0994 17.2483 30.1528 17.4321 30.1528 17.6376C30.1528 17.8786 30.0876 18.0802 29.9572 18.2422C29.8307 18.4042 29.6608 18.5189 29.4474 18.586ZM27.9298 18.2778H28.6886C28.8862 18.2778 29.0384 18.2343 29.1451 18.1474C29.2518 18.0565 29.3051 17.928 29.3051 17.7621C29.3051 17.5961 29.2518 17.4676 29.1451 17.3767C29.0384 17.2859 28.8862 17.2404 28.6886 17.2404H27.9298V18.2778ZM28.7657 20.0324C28.9672 20.0324 29.1233 19.985 29.234 19.8902C29.3486 19.7953 29.4059 19.661 29.4059 19.4871C29.4059 19.3092 29.3466 19.1709 29.228 19.0721C29.1095 18.9694 28.9494 18.918 28.7479 18.918H27.9298V20.0324H28.7657ZM31.3299 17.0329C31.1837 17.0329 31.0612 16.9875 30.9624 16.8966C30.8676 16.8017 30.8201 16.6852 30.8201 16.5468C30.8201 16.4085 30.8676 16.2939 30.9624 16.203C31.0612 16.1082 31.1837 16.0608 31.3299 16.0608C31.4762 16.0608 31.5967 16.1082 31.6915 16.203C31.7903 16.2939 31.8397 16.4085 31.8397 16.5468C31.8397 16.6852 31.7903 16.8017 31.6915 16.8966C31.5967 16.9875 31.4762 17.0329 31.3299 17.0329ZM31.739 17.4242V20.7082H30.9091V17.4242H31.739ZM33.5252 18.1059V19.6945C33.5252 19.8052 33.5508 19.8862 33.6022 19.9376C33.6575 19.985 33.7484 20.0087 33.8749 20.0087H34.2602V20.7082H33.7386C33.0391 20.7082 32.6893 20.3683 32.6893 19.6886V18.1059H32.2981V17.4242H32.6893V16.6121H33.5252V17.4242H34.2602V18.1059H33.5252ZM34.6437 19.0662C34.6437 18.7263 34.7129 18.4299 34.8512 18.177C34.9895 17.9201 35.1812 17.7225 35.4262 17.5842C35.6712 17.442 35.9518 17.3708 36.268 17.3708C36.675 17.3708 37.0109 17.4736 37.2757 17.6791C37.5444 17.8806 37.7242 18.1652 37.8151 18.5327H36.92C36.8726 18.3904 36.7916 18.2798 36.677 18.2007C36.5663 18.1177 36.428 18.0762 36.262 18.0762C36.0249 18.0762 35.8372 18.1632 35.6989 18.3371C35.5606 18.507 35.4914 18.75 35.4914 19.0662C35.4914 19.3784 35.5606 19.6214 35.6989 19.7953C35.8372 19.9653 36.0249 20.0502 36.262 20.0502C36.5979 20.0502 36.8173 19.9 36.92 19.5997H37.8151C37.7242 19.9554 37.5444 20.2379 37.2757 20.4474C37.007 20.6568 36.671 20.7616 36.268 20.7616C35.9518 20.7616 35.6712 20.6924 35.4262 20.5541C35.1812 20.4118 34.9895 20.2142 34.8512 19.9613C34.7129 19.7044 34.6437 19.4061 34.6437 19.0662ZM39.8814 20.7616C39.5652 20.7616 39.2807 20.6924 39.0277 20.5541C38.7748 20.4118 38.5753 20.2122 38.429 19.9554C38.2868 19.6985 38.2156 19.4021 38.2156 19.0662C38.2156 18.7303 38.2887 18.4339 38.435 18.177C38.5851 17.9201 38.7887 17.7225 39.0455 17.5842C39.3024 17.442 39.5889 17.3708 39.9051 17.3708C40.2212 17.3708 40.5077 17.442 40.7646 17.5842C41.0215 17.7225 41.223 17.9201 41.3693 18.177C41.5194 18.4339 41.5945 18.7303 41.5945 19.0662C41.5945 19.4021 41.5175 19.6985 41.3633 19.9554C41.2132 20.2122 41.0077 20.4118 40.7468 20.5541C40.49 20.6924 40.2015 20.7616 39.8814 20.7616ZM39.8814 20.0384C40.0315 20.0384 40.1718 20.0028 40.3022 19.9317C40.4366 19.8566 40.5433 19.7459 40.6223 19.5997C40.7014 19.4535 40.7409 19.2756 40.7409 19.0662C40.7409 18.754 40.6579 18.5149 40.4919 18.3489C40.3299 18.179 40.1303 18.094 39.8932 18.094C39.6561 18.094 39.4565 18.179 39.2945 18.3489C39.1364 18.5149 39.0574 18.754 39.0574 19.0662C39.0574 19.3784 39.1344 19.6195 39.2886 19.7894C39.4466 19.9554 39.6442 20.0384 39.8814 20.0384ZM42.6242 17.0329C42.4779 17.0329 42.3554 16.9875 42.2566 16.8966C42.1618 16.8017 42.1144 16.6852 42.1144 16.5468C42.1144 16.4085 42.1618 16.2939 42.2566 16.203C42.3554 16.1082 42.4779 16.0608 42.6242 16.0608C42.7704 16.0608 42.8909 16.1082 42.9858 16.203C43.0846 16.2939 43.134 16.4085 43.134 16.5468C43.134 16.6852 43.0846 16.8017 42.9858 16.8966C42.8909 16.9875 42.7704 17.0329 42.6242 17.0329ZM43.0332 17.4242V20.7082H42.2033V17.4242H43.0332ZM45.673 17.3767C46.0642 17.3767 46.3804 17.5012 46.6214 17.7502C46.8625 17.9952 46.983 18.339 46.983 18.7817V20.7082H46.1531V18.8943C46.1531 18.6335 46.0879 18.4339 45.9575 18.2956C45.8271 18.1533 45.6493 18.0822 45.424 18.0822C45.1948 18.0822 45.013 18.1533 44.8786 18.2956C44.7482 18.4339 44.683 18.6335 44.683 18.8943V20.7082H43.8531V17.4242H44.683V17.8332C44.7937 17.6909 44.934 17.5803 45.1039 17.5012C45.2778 17.4182 45.4675 17.3767 45.673 17.3767Z" fill="white"/>
<path d="M13.5532 32.8897C13.5532 33.1268 13.4939 33.354 13.3753 33.5714C13.2568 33.7838 13.0814 33.9616 12.8492 34.1049C12.622 34.2481 12.3478 34.3296 12.0268 34.3494V34.9496H11.6266V34.3494C11.1771 34.3099 10.8115 34.1666 10.53 33.9196C10.2484 33.6677 10.1051 33.3491 10.1002 32.9638H10.8189C10.8387 33.1712 10.9153 33.3515 11.0487 33.5047C11.187 33.6578 11.3796 33.7541 11.6266 33.7937V31.9412C11.2956 31.8572 11.0289 31.7708 10.8264 31.6819C10.6238 31.5929 10.4509 31.4546 10.3077 31.2669C10.1644 31.0792 10.0928 30.8273 10.0928 30.5111C10.0928 30.111 10.2311 29.78 10.5077 29.5182C10.7893 29.2564 11.1623 29.1106 11.6266 29.081V28.466H12.0268V29.081C12.4466 29.1156 12.785 29.2514 13.0419 29.4885C13.2988 29.7207 13.447 30.0245 13.4865 30.4H12.7677C12.743 30.2271 12.6665 30.0715 12.538 29.9331C12.4096 29.7899 12.2392 29.696 12.0268 29.6516V31.4596C12.3528 31.5435 12.6171 31.63 12.8196 31.7189C13.0271 31.8029 13.2 31.9387 13.3383 32.1264C13.4816 32.3142 13.5532 32.5686 13.5532 32.8897ZM10.7819 30.4741C10.7819 30.7161 10.8535 30.9014 10.9968 31.0298C11.14 31.1582 11.35 31.2644 11.6266 31.3484V29.6367C11.3697 29.6614 11.1647 29.7454 11.0116 29.8887C10.8585 30.027 10.7819 30.2221 10.7819 30.4741ZM12.0268 33.8011C12.2935 33.7714 12.501 33.6751 12.6492 33.5121C12.8023 33.3491 12.8789 33.1539 12.8789 32.9267C12.8789 32.6847 12.8048 32.4994 12.6566 32.371C12.5084 32.2376 12.2984 32.1314 12.0268 32.0523V33.8011ZM14.554 33.112V32.6007L17.1549 28.9995H17.9626V32.5266H18.7035V33.112H17.9626V34.3049H17.2957V33.112H14.554ZM17.3253 29.7034L15.3321 32.5266H17.3253V29.7034ZM19.3623 30.2962C19.3969 29.8417 19.5723 29.4861 19.8884 29.2292C20.2046 28.9723 20.6146 28.8439 21.1185 28.8439C21.4544 28.8439 21.7433 28.9056 21.9854 29.0291C22.2324 29.1477 22.4176 29.3107 22.5411 29.5182C22.6696 29.7257 22.7338 29.9603 22.7338 30.2221C22.7338 30.5284 22.6449 30.7927 22.467 31.015C22.2941 31.2373 22.0669 31.3805 21.7853 31.4447V31.4818C22.1064 31.5608 22.3608 31.7164 22.5486 31.9486C22.7363 32.1808 22.8301 32.4846 22.8301 32.86C22.8301 33.1416 22.7659 33.396 22.6375 33.6232C22.509 33.8455 22.3164 34.0209 22.0595 34.1493C21.8026 34.2778 21.4939 34.342 21.1333 34.342C20.6096 34.342 20.1799 34.2061 19.844 33.9344C19.508 33.6578 19.3203 33.2676 19.2808 32.7637H19.9329C19.9675 33.0601 20.0885 33.3021 20.296 33.4899C20.5034 33.6776 20.7801 33.7714 21.1259 33.7714C21.4717 33.7714 21.7335 33.6825 21.9113 33.5047C22.0941 33.3219 22.1855 33.0873 22.1855 32.8007C22.1855 32.4302 22.062 32.1635 21.815 32.0005C21.568 31.8375 21.195 31.756 20.6961 31.756H20.5257V31.1928H20.7035C21.158 31.1879 21.5013 31.1138 21.7335 30.9705C21.9656 30.8223 22.0817 30.5951 22.0817 30.2888C22.0817 30.027 21.9953 29.817 21.8224 29.659C21.6544 29.5009 21.4124 29.4219 21.0962 29.4219C20.7899 29.4219 20.543 29.5009 20.3552 29.659C20.1675 29.817 20.0564 30.0295 20.0218 30.2962H19.3623ZM24.5482 33.3713L23.7183 35.3645H23.2663L23.8072 33.3713H24.5482ZM28.1957 30.2221C28.087 29.6738 27.7486 29.3996 27.1805 29.3996C26.7409 29.3996 26.4124 29.5701 26.195 29.9109C25.9776 30.2468 25.8714 30.8026 25.8764 31.5781C25.99 31.3212 26.1777 31.1212 26.4395 30.9779C26.7063 30.8297 27.0027 30.7556 27.3287 30.7556C27.8375 30.7556 28.2426 30.9137 28.5439 31.2299C28.8502 31.546 29.0033 31.9832 29.0033 32.5414C29.0033 32.8773 28.9366 33.1786 28.8033 33.4454C28.6748 33.7122 28.4772 33.9246 28.2105 34.0826C27.9487 34.2407 27.63 34.3198 27.2546 34.3198C26.7458 34.3198 26.3481 34.2061 26.0616 33.9789C25.7751 33.7517 25.575 33.438 25.4614 33.0379C25.3478 32.6377 25.291 32.1437 25.291 31.5559C25.291 29.7429 25.9233 28.8365 27.1879 28.8365C27.672 28.8365 28.0524 28.9674 28.329 29.2292C28.6057 29.491 28.7687 29.822 28.8181 30.2221H28.1957ZM27.1879 31.3262C26.9755 31.3262 26.7754 31.3706 26.5877 31.4596C26.4 31.5435 26.2469 31.6744 26.1283 31.8523C26.0147 32.0252 25.9579 32.2376 25.9579 32.4895C25.9579 32.865 26.0666 33.1712 26.2839 33.4083C26.5013 33.6405 26.8125 33.7566 27.2176 33.7566C27.5634 33.7566 27.8375 33.6504 28.0401 33.438C28.2475 33.2206 28.3513 32.9292 28.3513 32.5636C28.3513 32.1783 28.2525 31.877 28.0549 31.6596C27.8573 31.4373 27.5683 31.3262 27.1879 31.3262ZM30.78 32.8674C30.8294 33.149 30.943 33.3664 31.1208 33.5195C31.3036 33.6726 31.5481 33.7492 31.8544 33.7492C32.2644 33.7492 32.5657 33.5887 32.7584 33.2676C32.956 32.9465 33.0498 32.4056 33.04 31.6448C32.9362 31.8671 32.7633 32.0425 32.5213 32.1709C32.2792 32.2944 32.01 32.3562 31.7136 32.3562C31.3826 32.3562 31.0862 32.2895 30.8244 32.1561C30.5675 32.0178 30.365 31.8177 30.2168 31.5559C30.0686 31.2941 29.9945 30.9779 29.9945 30.6074C29.9945 30.0789 30.1477 29.654 30.4539 29.3329C30.7602 29.0069 31.1949 28.8439 31.7581 28.8439C32.4496 28.8439 32.9338 29.0687 33.2104 29.5182C33.492 29.9677 33.6327 30.6371 33.6327 31.5262C33.6327 32.1487 33.5759 32.6624 33.4623 33.0675C33.3536 33.4726 33.1659 33.7813 32.8992 33.9937C32.6374 34.2061 32.2767 34.3123 31.8173 34.3123C31.3135 34.3123 30.9207 34.1765 30.6392 33.9048C30.3576 33.6331 30.1971 33.2873 30.1575 32.8674H30.78ZM31.8247 31.7856C32.1557 31.7856 32.4274 31.6843 32.6398 31.4818C32.8522 31.2743 32.9585 30.9952 32.9585 30.6445C32.9585 30.274 32.8547 29.9751 32.6472 29.7479C32.4398 29.5207 32.1483 29.407 31.7729 29.407C31.4271 29.407 31.1504 29.5157 30.943 29.7331C30.7404 29.9504 30.6392 30.2369 30.6392 30.5926C30.6392 30.9532 30.7404 31.2422 30.943 31.4596C31.1455 31.6769 31.4394 31.7856 31.8247 31.7856ZM34.4988 33.764C35.1262 33.2602 35.6177 32.8477 35.9734 32.5266C36.3291 32.2005 36.6279 31.8622 36.87 31.5114C37.117 31.1558 37.2405 30.8075 37.2405 30.4666C37.2405 30.1455 37.1614 29.8936 37.0034 29.7108C36.8502 29.5231 36.6008 29.4293 36.255 29.4293C35.919 29.4293 35.6572 29.5355 35.4695 29.7479C35.2867 29.9554 35.1879 30.2345 35.1731 30.5852H34.5211C34.5408 30.0319 34.7088 29.6046 35.0249 29.3033C35.3411 29.002 35.7486 28.8513 36.2476 28.8513C36.7564 28.8513 37.159 28.9921 37.4554 29.2737C37.7567 29.5552 37.9074 29.943 37.9074 30.437C37.9074 30.847 37.7839 31.2471 37.5369 31.6374C37.2948 32.0227 37.0182 32.3636 36.707 32.66C36.3957 32.9514 35.9981 33.2923 35.514 33.6825H38.063V34.2457H34.4988V33.764ZM39.1685 34.3494C39.04 34.3494 38.9314 34.3049 38.8424 34.216C38.7535 34.1271 38.7091 34.0184 38.7091 33.89C38.7091 33.7616 38.7535 33.6529 38.8424 33.564C38.9314 33.475 39.04 33.4306 39.1685 33.4306C39.292 33.4306 39.3957 33.475 39.4797 33.564C39.5686 33.6529 39.6131 33.7616 39.6131 33.89C39.6131 34.0184 39.5686 34.1271 39.4797 34.216C39.3957 34.3049 39.292 34.3494 39.1685 34.3494ZM40.3834 30.2962C40.418 29.8417 40.5933 29.4861 40.9095 29.2292C41.2257 28.9723 41.6357 28.8439 42.1395 28.8439C42.4754 28.8439 42.7644 28.9056 43.0065 29.0291C43.2535 29.1477 43.4387 29.3107 43.5622 29.5182C43.6907 29.7257 43.7549 29.9603 43.7549 30.2221C43.7549 30.5284 43.666 30.7927 43.4881 31.015C43.3152 31.2373 43.088 31.3805 42.8064 31.4447V31.4818C43.1275 31.5608 43.3819 31.7164 43.5696 31.9486C43.7573 32.1808 43.8512 32.4846 43.8512 32.86C43.8512 33.1416 43.787 33.396 43.6586 33.6232C43.5301 33.8455 43.3375 34.0209 43.0806 34.1493C42.8237 34.2778 42.515 34.342 42.1544 34.342C41.6307 34.342 41.201 34.2061 40.865 33.9344C40.5291 33.6578 40.3414 33.2676 40.3019 32.7637H40.954C40.9885 33.0601 41.1096 33.3021 41.317 33.4899C41.5245 33.6776 41.8012 33.7714 42.1469 33.7714C42.4927 33.7714 42.7545 33.6825 42.9324 33.5047C43.1152 33.3219 43.2065 33.0873 43.2065 32.8007C43.2065 32.4302 43.0831 32.1635 42.8361 32.0005C42.5891 31.8375 42.2161 31.756 41.7172 31.756H41.5467V31.1928H41.7246C42.1791 31.1879 42.5224 31.1138 42.7545 30.9705C42.9867 30.8223 43.1028 30.5951 43.1028 30.2888C43.1028 30.027 43.0164 29.817 42.8435 29.659C42.6755 29.5009 42.4335 29.4219 42.1173 29.4219C41.811 29.4219 41.564 29.5009 41.3763 29.659C41.1886 29.817 41.0775 30.0295 41.0429 30.2962H40.3834ZM47.7478 30.2221C47.6391 29.6738 47.3007 29.3996 46.7327 29.3996C46.293 29.3996 45.9645 29.5701 45.7471 29.9109C45.5298 30.2468 45.4236 30.8026 45.4285 31.5781C45.5421 31.3212 45.7299 31.1212 45.9917 30.9779C46.2584 30.8297 46.5548 30.7556 46.8808 30.7556C47.3897 30.7556 47.7947 30.9137 48.0961 31.2299C48.4023 31.546 48.5555 31.9832 48.5555 32.5414C48.5555 32.8773 48.4888 33.1786 48.3554 33.4454C48.227 33.7122 48.0294 33.9246 47.7626 34.0826C47.5008 34.2407 47.1822 34.3198 46.8067 34.3198C46.2979 34.3198 45.9003 34.2061 45.6138 33.9789C45.3273 33.7517 45.1272 33.438 45.0136 33.0379C44.9 32.6377 44.8431 32.1437 44.8431 31.5559C44.8431 29.7429 45.4754 28.8365 46.7401 28.8365C47.2242 28.8365 47.6045 28.9674 47.8812 29.2292C48.1578 29.491 48.3208 29.822 48.3702 30.2221H47.7478ZM46.7401 31.3262C46.5276 31.3262 46.3276 31.3706 46.1399 31.4596C45.9521 31.5435 45.799 31.6744 45.6805 31.8523C45.5668 32.0252 45.51 32.2376 45.51 32.4895C45.51 32.865 45.6187 33.1712 45.8361 33.4083C46.0534 33.6405 46.3646 33.7566 46.7697 33.7566C47.1155 33.7566 47.3897 33.6504 47.5922 33.438C47.7997 33.2206 47.9034 32.9292 47.9034 32.5636C47.9034 32.1783 47.8046 31.877 47.607 31.6596C47.4094 31.4373 47.1204 31.3262 46.7401 31.3262Z" fill="white"/>
<path d="M10.7598 58.2381L11.7303 57.9374" stroke="#2873FF" stroke-width="0.740984" stroke-miterlimit="10" stroke-linecap="round"/>
<path d="M11.731 57.9374L12.7015 58.0903" stroke="#2873FF" stroke-width="0.740984" stroke-miterlimit="10" stroke-linecap="round"/>
<path d="M12.7004 58.0902L13.671 56.5418" stroke="#2873FF" stroke-width="0.740984" stroke-miterlimit="10" stroke-linecap="round"/>
<path d="M13.6724 56.5418L14.6429 54.4879" stroke="#2873FF" stroke-width="0.740984" stroke-miterlimit="10" stroke-linecap="round"/>
<path d="M14.6421 54.4879L15.6127 56.7861" stroke="#2873FF" stroke-width="0.740984" stroke-miterlimit="10" stroke-linecap="round"/>
<path d="M15.613 56.7861L16.5836 55.9259" stroke="#2873FF" stroke-width="0.740984" stroke-miterlimit="10" stroke-linecap="round"/>
<path d="M16.5835 55.926L17.5541 55.7944" stroke="#2873FF" stroke-width="0.740984" stroke-miterlimit="10" stroke-linecap="round"/>
<path d="M17.553 55.7944L18.5236 55.9019" stroke="#2873FF" stroke-width="0.740984" stroke-miterlimit="10" stroke-linecap="round"/>
<path d="M18.5249 55.9021L19.4955 57.3637" stroke="#2873FF" stroke-width="0.740984" stroke-miterlimit="10" stroke-linecap="round"/>
<path d="M19.4968 57.3636L20.4674 57.1519" stroke="#2873FF" stroke-width="0.740984" stroke-miterlimit="10" stroke-linecap="round"/>
<path d="M20.4641 57.1519L21.4347 58.2206" stroke="#2873FF" stroke-width="0.740984" stroke-miterlimit="10" stroke-linecap="round"/>
<path d="M21.436 58.2204L22.4066 60.0216" stroke="#2873FF" stroke-width="0.740984" stroke-miterlimit="10" stroke-linecap="round"/>
<path d="M22.4072 60.0217L23.3778 67.1712" stroke="#2873FF" stroke-width="0.740984" stroke-miterlimit="10" stroke-linecap="round"/>
<path d="M23.3774 67.1709L24.348 69.5868" stroke="#2873FF" stroke-width="0.740984" stroke-miterlimit="10" stroke-linecap="round"/>
<path d="M24.3479 69.587L25.3185 67.4767" stroke="#2873FF" stroke-width="0.740984" stroke-miterlimit="10" stroke-linecap="round"/>
<path d="M25.3181 67.4768L26.2887 66.8377" stroke="#2873FF" stroke-width="0.740984" stroke-miterlimit="10" stroke-linecap="round"/>
<path d="M26.2893 66.8375L27.2599 66.3302" stroke="#2873FF" stroke-width="0.740984" stroke-miterlimit="10" stroke-linecap="round"/>
<path d="M27.2598 66.3302L28.2303 66.5027" stroke="#2873FF" stroke-width="0.740984" stroke-miterlimit="10" stroke-linecap="round"/>
<path d="M28.23 66.5027L29.2006 66.0184" stroke="#2873FF" stroke-width="0.740984" stroke-miterlimit="10" stroke-linecap="round"/>
<path d="M29.2012 66.0184L30.1718 64.9246" stroke="#2873FF" stroke-width="0.740984" stroke-miterlimit="10" stroke-linecap="round"/>
<path d="M30.1716 64.9246L31.1422 64.3256" stroke="#2873FF" stroke-width="0.740984" stroke-miterlimit="10" stroke-linecap="round"/>
<path d="M31.1411 64.3256L32.1117 64.699" stroke="#2873FF" stroke-width="0.740984" stroke-miterlimit="10" stroke-linecap="round"/>
<path d="M32.113 64.6989L33.0836 63.7415" stroke="#2873FF" stroke-width="0.740984" stroke-miterlimit="10" stroke-linecap="round"/>
<path d="M33.082 63.7415L34.0526 63.301" stroke="#2873FF" stroke-width="0.740984" stroke-miterlimit="10" stroke-linecap="round"/>
<path d="M34.0522 63.301L35.0228 66.3319" stroke="#2873FF" stroke-width="0.740984" stroke-miterlimit="10" stroke-linecap="round"/>
<path d="M35.0242 66.3318L35.9947 65.9905" stroke="#2873FF" stroke-width="0.740984" stroke-miterlimit="10" stroke-linecap="round"/>
<path d="M35.9937 65.9907L36.9642 58.6327" stroke="#2873FF" stroke-width="0.740984" stroke-miterlimit="10" stroke-linecap="round"/>
<path d="M36.9656 58.6327L37.9362 58.7338" stroke="#2873FF" stroke-width="0.740984" stroke-miterlimit="10" stroke-linecap="round"/>
<path d="M37.936 58.7339L38.9066 57.0896" stroke="#2873FF" stroke-width="0.740984" stroke-miterlimit="10" stroke-linecap="round"/>
<path d="M38.907 57.0893L39.8776 54.6721" stroke="#2873FF" stroke-width="0.740984" stroke-miterlimit="10" stroke-linecap="round"/>
<path d="M39.876 54.6722L40.8466 54.2013" stroke="#2873FF" stroke-width="0.740984" stroke-miterlimit="10" stroke-linecap="round"/>
<path d="M40.8477 54.2011L41.8182 53.828" stroke="#2873FF" stroke-width="0.740984" stroke-miterlimit="10" stroke-linecap="round"/>
<path d="M41.8181 53.828L42.7887 55.1378" stroke="#2873FF" stroke-width="0.740984" stroke-miterlimit="10" stroke-linecap="round"/>
<path d="M42.7893 55.1379L43.7599 57.097" stroke="#2873FF" stroke-width="0.740984" stroke-miterlimit="10" stroke-linecap="round"/>
<path d="M43.7595 57.097L44.7301 57.3738" stroke="#2873FF" stroke-width="0.740984" stroke-miterlimit="10" stroke-linecap="round"/>
<path d="M44.7307 57.3738L45.7013 57.4533" stroke="#2873FF" stroke-width="0.740984" stroke-miterlimit="10" stroke-linecap="round"/>
<path d="M45.7019 57.4531L46.6725 56.7938" stroke="#2873FF" stroke-width="0.740984" stroke-miterlimit="10" stroke-linecap="round"/>
<path d="M46.6699 56.7942L47.6405 53.4281" stroke="#2873FF" stroke-width="0.740984" stroke-miterlimit="10" stroke-linecap="round"/>
<path d="M47.6418 53.4281L48.6124 54.4665" stroke="#2873FF" stroke-width="0.740984" stroke-miterlimit="10" stroke-linecap="round"/>
<path d="M48.6123 54.4664L49.5829 60.2628" stroke="#2873FF" stroke-width="0.740984" stroke-miterlimit="10" stroke-linecap="round"/>
<path d="M49.5825 60.2626L50.5531 61.1209" stroke="#2873FF" stroke-width="0.740984" stroke-miterlimit="10" stroke-linecap="round"/>
<path d="M50.5537 61.1212L51.5243 60.9669" stroke="#2873FF" stroke-width="0.740984" stroke-miterlimit="10" stroke-linecap="round"/>
<path d="M51.5247 60.9669L52.4952 63.8293" stroke="#2873FF" stroke-width="0.740984" stroke-miterlimit="10" stroke-linecap="round"/>
<path d="M52.4937 63.8291L53.4642 66.1249" stroke="#2873FF" stroke-width="0.740984" stroke-miterlimit="10" stroke-linecap="round"/>
<path d="M53.4656 66.1249L54.4362 64.0751" stroke="#2873FF" stroke-width="0.740984" stroke-miterlimit="10" stroke-linecap="round"/>
<path d="M54.4351 64.0751L55.4056 65.7502" stroke="#2873FF" stroke-width="0.740984" stroke-miterlimit="10" stroke-linecap="round"/>
<path d="M55.407 65.7503L56.3776 63.9964" stroke="#2873FF" stroke-width="0.740984" stroke-miterlimit="10" stroke-linecap="round"/>
<path d="M56.3774 63.9963L57.348 62.5038" stroke="#2873FF" stroke-width="0.740984" stroke-miterlimit="10" stroke-linecap="round"/>
<path d="M57.3477 62.5038L58.3182 62.6884" stroke="#2873FF" stroke-width="0.740984" stroke-miterlimit="10" stroke-linecap="round"/>
<path d="M58.3188 62.6886L59.2894 65.0509" stroke="#2873FF" stroke-width="0.740984" stroke-miterlimit="10" stroke-linecap="round"/>
<path d="M59.2876 65.0509L60.2582 55.7678" stroke="#2873FF" stroke-width="0.740984" stroke-miterlimit="10" stroke-linecap="round"/>
<path d="M60.2595 55.7674L61.2301 53.8012" stroke="#2873FF" stroke-width="0.740984" stroke-miterlimit="10" stroke-linecap="round"/>
<path d="M61.23 53.8012L62.2006 54.5301" stroke="#2873FF" stroke-width="0.740984" stroke-miterlimit="10" stroke-linecap="round"/>
<path d="M62.1995 54.5302L63.17 57.0228" stroke="#2873FF" stroke-width="0.740984" stroke-miterlimit="10" stroke-linecap="round"/>
<path d="M63.1707 57.0228L64.1412 62.6336" stroke="#2873FF" stroke-width="0.740984" stroke-miterlimit="10" stroke-linecap="round"/>
<path d="M64.1418 62.6336L65.1124 62.1884" stroke="#2873FF" stroke-width="0.740984" stroke-miterlimit="10" stroke-linecap="round"/>
<path d="M65.1113 62.1884L66.0819 63.8485" stroke="#2873FF" stroke-width="0.740984" stroke-miterlimit="10" stroke-linecap="round"/>
<path d="M66.0825 63.8483L67.0531 64.4542" stroke="#2873FF" stroke-width="0.740984" stroke-miterlimit="10" stroke-linecap="round"/>
<path d="M67.0527 64.4545L68.0233 63.3114" stroke="#2873FF" stroke-width="0.740984" stroke-miterlimit="10" stroke-linecap="round"/>
<path d="M68.0232 63.3113L68.9938 57.8166" stroke="#2873FF" stroke-width="0.740984" stroke-miterlimit="10" stroke-linecap="round"/>
<path d="M68.9951 57.8166L69.9657 62.1259" stroke="#2873FF" stroke-width="0.740984" stroke-miterlimit="10" stroke-linecap="round"/>
<path d="M69.9646 62.1256L70.9352 63.2133" stroke="#2873FF" stroke-width="0.740984" stroke-miterlimit="10" stroke-linecap="round"/>
<path d="M70.9365 63.2137L71.9071 63.0291" stroke="#2873FF" stroke-width="0.740984" stroke-miterlimit="10" stroke-linecap="round"/>
<path d="M71.9048 63.0291L72.8754 64.814" stroke="#2873FF" stroke-width="0.740984" stroke-miterlimit="10" stroke-linecap="round"/>
<path d="M72.8765 64.814L73.847 61.7378" stroke="#2873FF" stroke-width="0.740984" stroke-miterlimit="10" stroke-linecap="round"/>
<path d="M73.8477 61.7378L74.8182 62.293" stroke="#2873FF" stroke-width="0.740984" stroke-miterlimit="10" stroke-linecap="round"/>
<path d="M74.8186 62.2931L75.7892 59.2371" stroke="#2873FF" stroke-width="0.740984" stroke-miterlimit="10" stroke-linecap="round"/>
<path d="M75.7883 59.2371L76.7589 59.563" stroke="#2873FF" stroke-width="0.740984" stroke-miterlimit="10" stroke-linecap="round"/>
<path d="M76.7603 59.5629L77.7308 58.1243" stroke="#2873FF" stroke-width="0.740984" stroke-miterlimit="10" stroke-linecap="round"/>
<path d="M77.729 58.1242L78.6996 57.4648" stroke="#2873FF" stroke-width="0.740984" stroke-miterlimit="10" stroke-linecap="round"/>
<path d="M78.7002 57.4648L79.6708 59.0609" stroke="#2873FF" stroke-width="0.740984" stroke-miterlimit="10" stroke-linecap="round"/>
<path d="M79.6714 59.0611L80.642 59.3486" stroke="#2873FF" stroke-width="0.740984" stroke-miterlimit="10" stroke-linecap="round"/>
<path d="M80.6409 59.3484L81.6114 57.18" stroke="#2873FF" stroke-width="0.740984" stroke-miterlimit="10" stroke-linecap="round"/>
<path d="M81.6121 57.1801L82.5826 56.2758" stroke="#2873FF" stroke-width="0.740984" stroke-miterlimit="10" stroke-linecap="round"/>
<path d="M82.583 56.2758L83.5536 54.4678" stroke="#2873FF" stroke-width="0.740984" stroke-miterlimit="10" stroke-linecap="round"/>
<path d="M83.5542 54.4678L84.5248 53.8113" stroke="#2873FF" stroke-width="0.740984" stroke-miterlimit="10" stroke-linecap="round"/>
<path d="M84.5232 53.8114L85.4938 53.554" stroke="#2873FF" stroke-width="0.740984" stroke-miterlimit="10" stroke-linecap="round"/>
<path d="M85.4941 53.5539L86.4647 49.6268" stroke="#2873FF" stroke-width="0.740984" stroke-miterlimit="10" stroke-linecap="round"/>
<path d="M86.4646 49.6268L87.4352 49.1062" stroke="#2873FF" stroke-width="0.740984" stroke-miterlimit="10" stroke-linecap="round"/>
<path d="M87.4365 49.1062L88.4071 48.5345" stroke="#2873FF" stroke-width="0.740984" stroke-miterlimit="10" stroke-linecap="round"/>
<path d="M88.406 48.5345L89.3766 49.2168" stroke="#2873FF" stroke-width="0.740984" stroke-miterlimit="10" stroke-linecap="round"/>
<path d="M89.3779 49.2168L90.3485 51.7969" stroke="#2873FF" stroke-width="0.740984" stroke-miterlimit="10" stroke-linecap="round"/>
<path d="M90.3462 51.7969L91.3168 50.5391" stroke="#2873FF" stroke-width="0.740984" stroke-miterlimit="10" stroke-linecap="round"/>
<path d="M91.3171 50.5391L92.2877 51.2377" stroke="#2873FF" stroke-width="0.740984" stroke-miterlimit="10" stroke-linecap="round"/>
<path d="M92.2883 51.2375L93.2589 50.2478" stroke="#2873FF" stroke-width="0.740984" stroke-miterlimit="10" stroke-linecap="round"/>
<path d="M93.2585 50.248L94.2291 49.9617" stroke="#2873FF" stroke-width="0.740984" stroke-miterlimit="10" stroke-linecap="round"/>
<path d="M94.229 49.9617L95.1996 51.7675" stroke="#2873FF" stroke-width="0.740984" stroke-miterlimit="10" stroke-linecap="round"/>
<path d="M95.2002 51.7675L96.0224 55.6772" stroke="#2873FF" stroke-width="0.740984" stroke-miterlimit="10" stroke-linecap="round"/>
<path d="M10.7598 58.4969V74.0984H96.022V55.8653L95.1292 52.1059L94.2364 50.2262L93.5668 50.4142L92.2276 51.1661L91.558 50.7901L90.2188 52.1059L89.1028 49.2864L88.4332 48.9104L86.8708 49.6623L85.5316 53.7977L84.6388 53.9856L83.746 54.5495L82.63 56.4292L81.9604 57.3691L80.6212 59.6247L79.282 59.2488L78.6124 57.933L77.9428 58.3089L76.738 59.6247H75.934L74.818 62.6323L73.9252 62.2563L72.8092 64.8879L71.6932 63.3841L71.0236 63.5721L69.6844 62.0683L69.0148 59.8127L68.3452 63.3841L67.006 64.6999L65.89 63.948L65.2204 62.6323L64.1044 62.8202L62.9884 57.3691L61.8724 54.7375L61.426 54.3616L60.5332 55.8653L59.194 65.2638L58.3013 62.8202H57.4085L55.1765 65.6398L54.5069 64.6999L53.6141 66.3917L53.1677 66.2037L51.3821 61.1285L50.4893 61.3165L49.1501 60.1886L48.4805 54.9255L47.8109 53.7977L46.9181 56.8052L46.0253 57.5571L43.3469 57.1811C42.8261 56.1786 41.7399 54.1736 41.5613 54.1736C41.3827 54.1736 40.4453 54.5495 39.9989 54.7375L37.7669 58.6849H37.3205L35.9813 66.0157L34.8653 66.3917L33.9725 63.5721L31.9637 64.8879L31.7405 64.6999H31.0709L28.6157 66.5796H27.4997L25.4909 67.7074L24.3749 69.3992C24.2261 69.2739 23.9285 68.9856 23.9285 68.8353C23.9285 68.6473 23.2589 67.1435 23.2589 66.7676C23.2589 66.3917 22.3661 61.1285 22.3661 60.9405C22.3661 60.7526 21.2501 58.4969 21.2501 58.3089C21.2501 58.1586 20.6549 57.6197 20.3573 57.3691H19.2413L18.3485 55.8653L17.3343 56.0533H16.3398L15.447 56.9932L14.331 55.3014L12.7686 58.3089L11.8758 57.933L10.7598 58.4969Z" fill="url(#paint0_linear_1207_41947)" fill-opacity="0.5"/>
<defs>
<linearGradient id="paint0_linear_1207_41947" x1="53.3909" y1="48.9104" x2="53.3909" y2="74.0984" gradientUnits="userSpaceOnUse">
<stop stop-color="#2650A1"/>
<stop offset="1" stop-color="#161D26" stop-opacity="0"/>
</linearGradient>
</defs>
</svg>
