<svg xmlns="http://www.w3.org/2000/svg" width="22" height="22" viewBox="0 0 26 26" fill="none">
  <path d="M2.16663 18.4814H13" stroke="#2873FF" stroke-width="1.5" stroke-miterlimit="10" stroke-linecap="round" stroke-linejoin="round"/>
  <path d="M4.57159 14.625H10.595C12.5233 14.625 13 15.1017 13 17.0083V21.4608C13 23.3675 12.5233 23.8442 10.595 23.8442H4.57159C2.64326 23.8442 2.16663 23.3675 2.16663 21.4608V17.0083C2.16663 15.1017 2.64326 14.625 4.57159 14.625Z" stroke="#2873FF" stroke-width="1.5" stroke-linecap="round" stroke-linejoin="round"/>
  <path d="M23.8333 16.25C23.8333 20.4425 20.4425 23.8333 16.25 23.8333L17.3875 21.9375" stroke="#2873FF" stroke-width="1.5" stroke-linecap="round" stroke-linejoin="round"/>
  <path d="M2.16663 9.75008C2.16663 5.55758 5.55746 2.16675 9.74996 2.16675L8.61247 4.06258" stroke="#2873FF" stroke-width="1.5" stroke-linecap="round" stroke-linejoin="round"/>
  <path d="M20.0416 11.9167C22.734 11.9167 24.9166 9.73414 24.9166 7.04175C24.9166 4.34936 22.734 2.16675 20.0416 2.16675C17.3492 2.16675 15.1666 4.34936 15.1666 7.04175C15.1666 9.73414 17.3492 11.9167 20.0416 11.9167Z" stroke="#2873FF" stroke-width="1.5" stroke-linecap="round" stroke-linejoin="round"/>
</svg>