 <svg xmlns="http://www.w3.org/2000/svg" width="25" height="24" viewBox="0 0 25 24" fill="#2873FF">
                              <path d="M22.5 12.6196V14.6796C22.5 15.2396 22.04 15.6996 21.47 15.6996H19.54C18.46 15.6996 17.47 14.9096 17.38 13.8296C17.32 13.1996 17.56 12.6096 17.98 12.1996C18.35 11.8196 18.86 11.5996 19.42 11.5996H21.47C22.04 11.5996 22.5 12.0596 22.5 12.6196Z" fill="#2873FF"/>
                              <path d="M15.88 13.9604C15.79 12.9104 16.17 11.8804 16.93 11.1304C17.57 10.4804 18.46 10.1004 19.42 10.1004H19.99C20.27 10.1004 20.5 9.87039 20.46 9.59039C20.19 7.65039 18.51 6.15039 16.5 6.15039H6.5C4.29 6.15039 2.5 7.94039 2.5 10.1504V17.1504C2.5 19.3604 4.29 21.1504 6.5 21.1504H16.5C18.52 21.1504 20.19 19.6504 20.46 17.7104C20.5 17.4304 20.27 17.2004 19.99 17.2004H19.54C17.64 17.2004 16.04 15.7804 15.88 13.9604ZM13.5 11.9004H7.5C7.09 11.9004 6.75 11.5704 6.75 11.1504C6.75 10.7304 7.09 10.4004 7.5 10.4004H13.5C13.91 10.4004 14.25 10.7404 14.25 11.1504C14.25 11.5604 13.91 11.9004 13.5 11.9004Z" fill="#2873FF"/>
                              <path d="M14.71 3.97961C14.97 4.24961 14.74 4.64961 14.36 4.64961H6.53003C5.44003 4.64961 4.42003 4.96961 3.57003 5.51961C3.18003 5.76961 2.65003 5.49961 2.84003 5.06961C3.40003 3.75961 4.71003 2.84961 6.22003 2.84961H11.84C13 2.84961 14.03 3.25961 14.71 3.97961Z" fill="#2873FF"/>
                            </svg>