<svg width="51" height="50" viewBox="0 0 51 50" fill="none" xmlns="http://www.w3.org/2000/svg">
<rect x="0.71875" width="50" height="50" rx="15" fill="#1B2537"/>
<rect x="13.7188" y="13" width="24" height="24" rx="12" fill="#2F2B32"/>
<path fill-rule="evenodd" clip-rule="evenodd" d="M22.6125 23.7234L25.7199 20.616L28.8299 23.7261L30.6379 21.9181L25.7199 17L20.8045 21.9154L22.6125 23.7234ZM17.7188 25.0009L19.5263 23.1933L21.3338 25.0009L19.5263 26.8084L17.7188 25.0009ZM25.7198 29.387L22.6124 26.2796L20.8018 28.0849L20.8044 28.0876L25.7198 33.003L30.6379 28.0849L28.8299 26.277L25.7198 29.387ZM30.1043 25.0021L31.9118 23.1946L33.7194 25.0021L31.9118 26.8096L30.1043 25.0021ZM25.7198 23.1669L27.5545 25.0015L25.7198 26.8388L23.8852 25.0042V24.9988L24.2074 24.6767L24.3645 24.5222L25.7198 23.1669Z" fill="#F3BA2F"/>
</svg>
