<svg width="51" height="50" viewBox="0 0 51 50" fill="none" xmlns="http://www.w3.org/2000/svg">
<rect x="0.318359" width="50" height="50" rx="15" fill="#F8FAFC"/>
<path d="M36.9593 27.9029C35.3564 34.3315 28.8445 38.2438 22.4144 36.6407C15.987 35.0381 12.0742 28.5265 13.6778 22.0984C15.2799 15.669 21.7918 11.7564 28.22 13.3591C34.6496 14.9618 38.5622 21.474 36.9591 27.903L36.9593 27.9029H36.9593Z" fill="#F68F32"/>
<path d="M30.6302 23.27C30.8691 21.673 29.6532 20.8146 27.9905 20.242L28.5298 18.0788L27.2129 17.7507L26.6878 19.8569C26.3416 19.7706 25.9861 19.6892 25.6327 19.6085L26.1616 17.4884L24.8454 17.1603L24.3057 19.3228C24.0192 19.2576 23.7378 19.1931 23.4648 19.1252L23.4664 19.1184L21.6503 18.6649L21.2999 20.0713C21.2999 20.0713 22.277 20.2953 22.2564 20.3091C22.7897 20.4422 22.8861 20.7951 22.8701 21.0749L22.2557 23.5393C22.2924 23.5486 22.3401 23.5621 22.3926 23.5832C22.3487 23.5723 22.3019 23.5604 22.2534 23.5488L21.3922 27.0011C21.327 27.1631 21.1616 27.4062 20.7888 27.3139C20.802 27.333 19.8316 27.075 19.8316 27.075L19.1777 28.5823L20.8915 29.0095C21.2104 29.0895 21.5228 29.1731 21.8305 29.2518L21.2855 31.4398L22.6009 31.7679L23.1406 29.6031C23.5 29.7007 23.8487 29.7906 24.1901 29.8754L23.6523 32.03L24.9693 32.3581L25.5142 30.1742C27.7599 30.5992 29.4484 30.4279 30.1592 28.3969C30.7319 26.7617 30.1307 25.8185 28.9492 25.2035C29.8097 25.005 30.4579 24.4391 30.6307 23.2701L30.6303 23.2698L30.6302 23.27ZM27.6213 27.4888C27.2143 29.124 24.4609 28.24 23.5681 28.0184L24.2913 25.1196C25.184 25.3425 28.0467 25.7834 27.6214 27.4888H27.6213ZM28.0286 23.2463C27.6573 24.7336 25.3656 23.978 24.6222 23.7927L25.2778 21.1637C26.0212 21.349 28.4153 21.6948 28.0287 23.2463H28.0286Z" fill="white"/>
</svg>
