<svg width="51" height="50" viewBox="0 0 51 50" fill="none" xmlns="http://www.w3.org/2000/svg">
<rect x="0.71875" width="50" height="50" rx="15" fill="#1B2537"/>
<rect x="13.7188" y="13" width="24" height="24" rx="12" fill="#50AF95"/>
<path d="M25.7776 18.075C27.634 18.075 29.416 18.075 31.2724 18.075C31.4209 18.075 31.4951 18.1502 31.4951 18.2254C32.5347 20.5568 33.5742 22.8129 34.688 25.0691C34.7622 25.1443 34.688 25.2195 34.6137 25.2947C33.3514 26.5732 32.0891 27.8517 30.7526 29.1302C29.119 30.7095 27.4112 32.3641 25.7776 33.9434C25.6291 34.0186 25.6291 34.0186 25.5549 33.9434C23.9213 32.3641 22.2877 30.7847 20.6542 29.1302C19.3919 27.8517 18.0553 26.5732 16.793 25.2947C16.7188 25.2195 16.7188 25.1443 16.7188 25.0691C17.2385 23.8658 17.8325 22.7377 18.3523 21.5345C18.8721 20.4064 19.3919 19.3535 19.9116 18.2254C19.9859 18.075 20.0601 17.9998 20.2829 17.9998C22.1392 18.075 23.9213 17.9998 25.7776 18.075ZM25.8519 20.1055C24.5153 20.1055 23.1045 20.1055 21.768 20.1055C21.6937 20.1055 21.6937 20.1055 21.6195 20.1055C21.5452 20.1055 21.5452 20.1055 21.5452 20.1807C21.5452 20.8576 21.5452 21.5345 21.4709 22.2865C21.4709 22.3617 21.4709 22.3617 21.5452 22.3617C21.768 22.3617 21.9907 22.3617 22.2135 22.3617C22.956 22.3617 23.6985 22.3617 24.4411 22.3617C24.5153 22.3617 24.5153 22.3617 24.5896 22.3617C24.6638 22.3617 24.6638 22.4369 24.6638 22.5121C24.6638 22.8129 24.6638 23.189 24.6638 23.4898C24.6638 23.565 24.6638 23.565 24.5896 23.6402C24.0698 23.7154 23.55 23.7154 23.0303 23.7906C22.362 23.8658 21.6937 24.0162 21.0997 24.2419C20.8027 24.3171 20.5799 24.4675 20.3572 24.6179C20.1344 24.8435 20.1344 25.1443 20.3572 25.2947C20.5057 25.4451 20.6542 25.5204 20.8027 25.5956C21.3224 25.8212 21.8422 25.8964 22.362 26.0468C23.1045 26.1972 23.847 26.2724 24.5896 26.3476C24.7381 26.3476 24.7381 26.3476 24.7381 26.498C24.7381 27.8517 24.7381 29.2806 24.7381 30.6343C24.7381 30.7847 24.7381 30.7847 24.8866 30.7847C25.5549 30.7847 26.2974 30.7847 26.9657 30.7847C27.1884 30.7847 27.1884 30.7847 27.1884 30.5591C27.1884 29.431 27.1884 28.3782 27.1884 27.2501C27.1884 26.9493 27.1884 26.6484 27.1884 26.3476C27.1884 26.1972 27.2627 26.1972 27.3369 26.1972C28.0795 26.1972 28.7477 26.122 29.4903 25.9716C30.0843 25.8964 30.6041 25.746 31.1238 25.5204C31.2724 25.4451 31.4209 25.2947 31.5694 25.2195C31.7179 25.0691 31.7179 24.9187 31.5694 24.7683C31.4209 24.6931 31.3466 24.5427 31.1981 24.4675C30.3071 23.941 29.2675 23.7154 28.228 23.6402C27.931 23.6402 27.634 23.6402 27.3369 23.565C27.2627 23.565 27.2627 23.565 27.2627 23.4146C27.2627 23.1138 27.2627 22.7377 27.2627 22.4369C27.2627 22.3617 27.2627 22.2865 27.4112 22.2865C27.634 22.2865 27.8567 22.2865 28.0795 22.2865C28.822 22.2865 29.4903 22.2865 30.2328 22.2865C30.3813 22.2865 30.3813 22.2113 30.3813 22.1361C30.3813 22.0609 30.3813 22.0609 30.3813 21.9857C30.3813 21.384 30.3813 20.7824 30.3813 20.1055C30.3813 19.9551 30.3813 19.9551 30.2328 19.9551C28.5992 20.1055 27.1884 20.1055 25.8519 20.1055Z" fill="white"/>
<path d="M25.4797 25.8211C24.9599 25.8211 24.5144 25.8211 23.9947 25.7459C23.1779 25.6707 22.2868 25.5955 21.47 25.2947C21.3215 25.2195 21.173 25.1443 20.9503 25.0691C20.7275 24.9186 20.7275 24.7682 20.9503 24.693C21.2473 24.5426 21.5443 24.4674 21.8413 24.3922C22.4353 24.2418 23.0294 24.1666 23.6976 24.0914C23.9204 24.0914 24.2174 24.0162 24.4402 24.0162C24.5144 24.0162 24.5887 24.0162 24.5887 24.1666C24.5887 24.6178 24.5887 24.9938 24.5887 25.4451C24.5887 25.5955 24.6629 25.5955 24.7372 25.5955C25.3312 25.5955 25.9252 25.5955 26.445 25.5955C26.5935 25.5955 26.742 25.5955 26.8905 25.5955C27.039 25.5955 27.039 25.5955 27.039 25.4451C27.039 25.0691 27.039 24.693 27.039 24.317C27.039 24.0914 27.039 24.0914 27.2618 24.0914C28.2271 24.1666 29.1924 24.2418 30.1577 24.5426C30.3062 24.6178 30.5289 24.693 30.6774 24.7682C30.8259 24.8434 30.8259 24.9938 30.6774 25.0691C30.3804 25.2947 30.0834 25.3699 29.7121 25.4451C28.9696 25.5955 28.2271 25.7459 27.4845 25.7459C26.8905 25.7459 26.148 25.8211 25.4797 25.8211Z" fill="white"/>
</svg>
