<svg width="116" height="40" viewBox="0 0 116 40" fill="none" xmlns="http://www.w3.org/2000/svg">
<rect y="0.52002" width="115.569" height="39.4799" rx="6.63526" fill="black"/>
<rect x="0.165882" y="0.685901" width="115.237" height="39.1481" rx="6.46938" stroke="#6F767E" stroke-opacity="0.4" stroke-width="0.331763"/>
<path d="M47.5613 29.4737L46.5269 26.6009H42.3088L41.3013 29.4737H39.8907L43.679 19.1869H45.197L48.9852 29.4737H47.5613ZM44.4044 20.6668L42.7789 25.2806H46.0567L44.4044 20.6668ZM51.3815 32.2304H50.1322V22.4949H51.3546V23.5831C51.5427 23.2155 51.8248 22.9157 52.2009 22.6835C52.5771 22.4514 53.0159 22.3353 53.5174 22.3353C54.4488 22.3353 55.1742 22.6787 55.6936 23.3654C56.222 24.0522 56.4862 24.9227 56.4862 25.9771C56.4862 27.041 56.2131 27.9213 55.6668 28.6177C55.1294 29.3141 54.3995 29.6623 53.4771 29.6623C53.0025 29.6623 52.5816 29.5559 52.2144 29.3431C51.8472 29.1303 51.5696 28.8595 51.3815 28.5306V32.2304ZM55.1966 25.9771C55.1966 25.271 55.022 24.6906 54.6727 24.236C54.3324 23.7717 53.8712 23.5396 53.289 23.5396C52.7159 23.5396 52.2502 23.7717 51.892 24.236C51.5427 24.6906 51.3681 25.271 51.3681 25.9771C51.3681 26.7025 51.5427 27.2974 51.892 27.7617C52.2502 28.2163 52.7159 28.4436 53.289 28.4436C53.8622 28.4436 54.3234 28.2163 54.6727 27.7617C55.022 27.2974 55.1966 26.7025 55.1966 25.9771ZM59.3445 32.2304H58.0952V22.4949H59.3177V23.5831C59.5057 23.2155 59.7878 22.9157 60.164 22.6835C60.5401 22.4514 60.9789 22.3353 61.4805 22.3353C62.4119 22.3353 63.1373 22.6787 63.6567 23.3654C64.1851 24.0522 64.4493 24.9227 64.4493 25.9771C64.4493 27.041 64.1761 27.9213 63.6298 28.6177C63.0925 29.3141 62.3626 29.6623 61.4402 29.6623C60.9655 29.6623 60.5446 29.5559 60.1774 29.3431C59.8102 29.1303 59.5326 28.8595 59.3445 28.5306V32.2304ZM63.1597 25.9771C63.1597 25.271 62.985 24.6906 62.6357 24.236C62.2954 23.7717 61.8342 23.5396 61.2521 23.5396C60.6789 23.5396 60.2132 23.7717 59.855 24.236C59.5057 24.6906 59.3311 25.271 59.3311 25.9771C59.3311 26.7025 59.5057 27.2974 59.855 27.7617C60.2132 28.2163 60.6789 28.4436 61.2521 28.4436C61.8253 28.4436 62.2865 28.2163 62.6357 27.7617C62.985 27.2974 63.1597 26.7025 63.1597 25.9771ZM75.6232 21.5228L74.441 21.9726C74.3783 21.5276 74.1768 21.1262 73.8365 20.7683C73.4962 20.4008 73.026 20.217 72.426 20.217C71.8976 20.217 71.4588 20.3814 71.1095 20.7103C70.7599 21.0392 70.5853 21.4454 70.5853 21.9291C70.5853 22.3063 70.6883 22.6255 70.8943 22.8867C71.1095 23.1478 71.414 23.3268 71.8081 23.4235L73.232 23.7572C74.0201 23.941 74.6291 24.2892 75.059 24.8018C75.4888 25.3048 75.7038 25.919 75.7038 26.6445C75.7038 27.4763 75.3993 28.1921 74.7903 28.7918C74.1813 29.3915 73.3887 29.6913 72.4126 29.6913C71.3469 29.6913 70.5092 29.3915 69.9002 28.7918C69.3002 28.1824 68.9509 27.4618 68.8524 26.63L70.1151 26.1947C70.1689 26.8137 70.3928 27.3361 70.7868 27.7617C71.1812 28.1873 71.7185 28.4001 72.3991 28.4001C73.026 28.4001 73.5096 28.2453 73.85 27.9358C74.1903 27.6262 74.3604 27.2345 74.3604 26.7605C74.3604 26.3736 74.2395 26.0399 73.9977 25.7594C73.7559 25.4692 73.4022 25.271 72.9365 25.1646L71.5797 24.8454C70.8719 24.6809 70.3077 24.3569 69.8868 23.8733C69.4658 23.3896 69.2554 22.7754 69.2554 22.0306C69.2554 21.2181 69.5599 20.5072 70.1689 19.8978C70.7868 19.2788 71.5304 18.9692 72.3991 18.9692C73.3753 18.9692 74.1231 19.2256 74.6425 19.7382C75.162 20.2509 75.4888 20.8457 75.6232 21.5228ZM78.9412 20.2896V22.4949H80.3383V23.7282H78.9412V27.3554C78.9412 27.6843 79.0084 27.9261 79.1427 28.0809C79.286 28.2356 79.5189 28.313 79.8413 28.313C80.0294 28.313 80.195 28.2937 80.3383 28.255V29.4157C80.1234 29.5027 79.8368 29.5463 79.4786 29.5463C78.9233 29.5463 78.4845 29.3722 78.1621 29.0239C77.8397 28.6757 77.6785 28.1873 77.6785 27.5585V23.7282H76.4426V22.4949H76.7919C77.1233 22.4949 77.3695 22.3982 77.5307 22.2047C77.7009 22.0016 77.786 21.7404 77.786 21.4212V20.2896H78.9412ZM83.2879 27.8197C83.682 28.255 84.1611 28.4726 84.7253 28.4726C85.2895 28.4726 85.7642 28.255 86.1493 27.8197C86.5433 27.3748 86.7403 26.7605 86.7403 25.9771C86.7403 25.2032 86.5433 24.5987 86.1493 24.1634C85.7642 23.7185 85.2895 23.496 84.7253 23.496C84.1611 23.496 83.682 23.7185 83.2879 24.1634C82.9028 24.5987 82.7103 25.2032 82.7103 25.9771C82.7103 26.7605 82.9028 27.3748 83.2879 27.8197ZM82.3476 23.3364C82.9745 22.6303 83.7671 22.2773 84.7253 22.2773C85.6836 22.2773 86.4717 22.6303 87.0896 23.3364C87.7165 24.0329 88.03 24.9131 88.03 25.9771C88.03 27.0507 87.721 27.9406 87.1031 28.6467C86.4851 29.3431 85.6925 29.6913 84.7253 29.6913C83.7581 29.6913 82.9655 29.3431 82.3476 28.6467C81.7297 27.9406 81.4207 27.0507 81.4207 25.9771C81.4207 24.9131 81.7297 24.0329 82.3476 23.3364ZM93.2326 22.4224V23.8733C93.0445 23.8442 92.8609 23.8297 92.6818 23.8297C91.4996 23.8297 90.9086 24.5455 90.9086 25.9771V29.4737H89.6458V22.4949H90.8817V23.7137C91.2757 22.8238 91.9206 22.3788 92.8161 22.3788C92.9594 22.3788 93.0982 22.3934 93.2326 22.4224ZM95.332 25.2661H98.865C98.8471 24.7438 98.6859 24.3182 98.3814 23.9893C98.0769 23.6508 97.6471 23.4815 97.0918 23.4815C96.5903 23.4815 96.1783 23.6605 95.8559 24.0184C95.5335 24.3666 95.3589 24.7825 95.332 25.2661ZM99.0531 27.0797L100.141 27.486C99.9531 28.1341 99.6039 28.666 99.0934 29.082C98.5829 29.4882 97.965 29.6913 97.2396 29.6913C96.335 29.6913 95.5649 29.3576 94.929 28.6902C94.3021 28.0131 93.9887 27.1039 93.9887 25.9625C93.9887 24.8986 94.2932 24.0184 94.9021 23.3219C95.5111 22.6255 96.2365 22.2773 97.0784 22.2773C98.0545 22.2773 98.8158 22.611 99.3621 23.2784C99.9084 23.9361 100.182 24.8212 100.182 25.9335C100.182 26.1076 100.173 26.2527 100.155 26.3688H95.2917C95.3007 26.9878 95.4887 27.4957 95.8559 27.8922C96.2321 28.2888 96.6933 28.4871 97.2396 28.4871C98.162 28.4871 98.7665 28.018 99.0531 27.0797Z" fill="white"/>
<path d="M40.8761 12.8753V10.3714H41.4442C42.0378 10.3714 42.5291 10.7749 42.5291 11.6261C42.5291 12.4773 42.0327 12.8753 41.4391 12.8753H40.8761ZM41.4647 13.5828C42.4984 13.5828 43.2609 12.8642 43.2609 11.6261C43.2609 10.388 42.5035 9.66396 41.4698 9.66396H40.1699V13.5828H41.4647ZM45.0297 11.6206C45.0297 10.7362 45.6029 10.3162 46.1607 10.3162C46.7236 10.3162 47.2968 10.7362 47.2968 11.6206C47.2968 12.505 46.7236 12.925 46.1607 12.925C45.6029 12.925 45.0297 12.505 45.0297 11.6206ZM44.2979 11.6261C44.2979 12.8863 45.1781 13.6657 46.1607 13.6657C47.1484 13.6657 48.0286 12.8863 48.0286 11.6261C48.0286 10.3604 47.1484 9.58105 46.1607 9.58105C45.1781 9.58105 44.2979 10.3604 44.2979 11.6261ZM52.5637 12.3723L51.7551 9.66396H51.0233L50.2199 12.3612L49.5546 9.66396H48.8075L49.8156 13.5828H50.5525L51.3816 10.7915L52.2106 13.5828H52.9373L53.9403 9.66396H53.2188L52.5637 12.3723ZM58.1538 13.5828V9.66396H57.4476V12.2562L55.9379 9.66396H55.0577V13.5828H55.7639V10.8026L57.4117 13.5828H58.1538ZM61.9439 13.5828V12.8532H60.3267V9.66396H59.6205V13.5828H61.9439ZM63.5207 11.6206C63.5207 10.7362 64.0939 10.3162 64.6517 10.3162C65.2146 10.3162 65.7878 10.7362 65.7878 11.6206C65.7878 12.505 65.2146 12.925 64.6517 12.925C64.0939 12.925 63.5207 12.505 63.5207 11.6206ZM62.7889 11.6261C62.7889 12.8863 63.6691 13.6657 64.6517 13.6657C65.6394 13.6657 66.5196 12.8863 66.5196 11.6261C66.5196 10.3604 65.6394 9.58105 64.6517 9.58105C63.6691 9.58105 62.7889 10.3604 62.7889 11.6261ZM70.0581 13.5828H70.8258L69.444 9.66396H68.6252L67.2333 13.5828H67.9804L68.2824 12.6874H69.7562L70.0581 13.5828ZM69.0193 10.5096L69.5208 11.9909H68.5178L69.0193 10.5096ZM72.6355 12.8753V10.3714H73.2035C73.7971 10.3714 74.2884 10.7749 74.2884 11.6261C74.2884 12.4773 73.792 12.8753 73.1984 12.8753H72.6355ZM73.224 13.5828C74.2577 13.5828 75.0202 12.8642 75.0202 11.6261C75.0202 10.388 74.2628 9.66396 73.2291 9.66396H71.9292V13.5828H73.224ZM78.6933 11.6206C78.6933 10.7362 79.2665 10.3162 79.8243 10.3162C80.3872 10.3162 80.9604 10.7362 80.9604 11.6206C80.9604 12.505 80.3872 12.925 79.8243 12.925C79.2665 12.925 78.6933 12.505 78.6933 11.6206ZM77.9615 11.6261C77.9615 12.8863 78.8417 13.6657 79.8243 13.6657C80.812 13.6657 81.6922 12.8863 81.6922 11.6261C81.6922 10.3604 80.812 9.58105 79.8243 9.58105C78.8417 9.58105 77.9615 10.3604 77.9615 11.6261ZM86.0401 13.5828V9.66396H85.3339V12.2562L83.8243 9.66396H82.944V13.5828H83.6503V10.8026L85.2981 13.5828H86.0401ZM92.0827 10.388V9.66396H89.0787V10.388H90.225V13.5828H90.9363V10.388H92.0827ZM96.2183 13.5828V9.66396H95.5069V11.2392H93.9256V9.66396H93.2194V13.5828H93.9256V11.9578H95.5069V13.5828H96.2183ZM99.9592 13.5828V12.8642H98.3932V11.9578H99.8107V11.2779H98.3932V10.3825H99.9592V9.66396H97.687V13.5828H99.9592Z" fill="white"/>
<path d="M31.3583 25.3395C30.9429 26.3331 30.7446 26.7765 30.2097 27.6544C29.4645 28.8803 28.4129 30.4072 27.11 30.4202C25.9526 30.4318 25.6551 29.6066 24.0838 29.6166C22.5126 29.6265 22.1852 30.4349 21.0277 30.4232C19.7247 30.4107 18.7292 29.0319 17.9832 27.8051C15.8978 24.3765 15.6799 20.3533 16.9661 18.2145C17.8801 16.6937 19.3226 15.805 20.6783 15.805C22.0588 15.805 22.9268 16.6224 24.0687 16.6224C25.1761 16.6224 25.8506 15.8037 27.447 15.8037C28.6537 15.8037 29.9322 16.5132 30.8434 17.7391C27.858 19.5056 28.3434 24.1084 31.3583 25.3395Z" fill="white"/>
<path d="M26.4041 13.6578C26.9842 12.8537 27.424 11.7194 27.264 10.5591C26.3165 10.6291 25.209 11.2802 24.5622 12.1287C23.9749 12.8987 23.4899 14.0408 23.6786 15.151C24.7121 15.186 25.7824 14.5188 26.4041 13.6578Z" fill="white"/>
</svg>
