<svg width="122" height="40" viewBox="0 0 122 40" fill="none" xmlns="http://www.w3.org/2000/svg">
<rect x="0.542114" y="0.52002" width="120.958" height="39.4799" rx="6.63526" fill="black"/>
<rect x="0.707996" y="0.685901" width="120.626" height="39.1481" rx="6.46938" stroke="#6F767E" stroke-opacity="0.4" stroke-width="0.331763"/>
<path d="M45.4976 29.3219H44.436L44.315 27.871C44.0821 28.3256 43.7014 28.7173 43.1728 29.0462C42.6443 29.3751 42.0082 29.5395 41.2646 29.5395C40.4494 29.5395 39.6969 29.3412 39.007 28.9446C38.3172 28.5384 37.7484 27.9193 37.3004 27.0875C36.8615 26.2556 36.642 25.2835 36.642 24.1712C36.642 23.0588 36.8749 22.0867 37.3407 21.2549C37.8066 20.423 38.3889 19.8088 39.0877 19.4122C39.7954 19.0157 40.5524 18.8174 41.3587 18.8174C42.38 18.8174 43.2669 19.1027 44.0194 19.6734C44.7809 20.2344 45.3005 20.9841 45.5782 21.9223L44.3822 22.4736C44.1672 21.7288 43.791 21.1533 43.2534 20.7471C42.7249 20.3312 42.0933 20.1232 41.3587 20.1232C40.4359 20.1232 39.6431 20.4762 38.9802 21.1823C38.3172 21.8884 37.9858 22.8847 37.9858 24.1712C37.9858 25.4673 38.3083 26.4733 38.9533 27.189C39.6073 27.8951 40.3912 28.2482 41.3049 28.2482C41.8066 28.2482 42.2501 28.1611 42.6353 27.987C43.0295 27.8129 43.3341 27.5856 43.5491 27.3051C43.773 27.0149 43.9388 26.7248 44.0463 26.4346C44.1627 26.1444 44.2299 25.8542 44.2478 25.564H40.9421V24.2873H45.4976V29.3219ZM48.7179 27.6678C49.1121 28.1031 49.5914 28.3207 50.1558 28.3207C50.7202 28.3207 51.195 28.1031 51.5802 27.6678C51.9744 27.2229 52.1715 26.6087 52.1715 25.8252C52.1715 25.0514 51.9744 24.4469 51.5802 24.0116C51.195 23.5666 50.7202 23.3442 50.1558 23.3442C49.5914 23.3442 49.1121 23.5666 48.7179 24.0116C48.3327 24.4469 48.1401 25.0514 48.1401 25.8252C48.1401 26.6087 48.3327 27.2229 48.7179 27.6678ZM47.7773 23.1846C48.4044 22.4785 49.1972 22.1254 50.1558 22.1254C51.1144 22.1254 51.9027 22.4785 52.5209 23.1846C53.148 23.881 53.4615 24.7612 53.4615 25.8252C53.4615 26.8989 53.1525 27.7887 52.5343 28.4948C51.9162 29.1913 51.1233 29.5395 50.1558 29.5395C49.1883 29.5395 48.3954 29.1913 47.7773 28.4948C47.1591 27.7887 46.8501 26.8989 46.8501 25.8252C46.8501 24.7612 47.1591 23.881 47.7773 23.1846ZM56.408 27.6678C56.8022 28.1031 57.2815 28.3207 57.8459 28.3207C58.4103 28.3207 58.8851 28.1031 59.2703 27.6678C59.6645 27.2229 59.8616 26.6087 59.8616 25.8252C59.8616 25.0514 59.6645 24.4469 59.2703 24.0116C58.8851 23.5666 58.4103 23.3442 57.8459 23.3442C57.2815 23.3442 56.8022 23.5666 56.408 24.0116C56.0228 24.4469 55.8302 25.0514 55.8302 25.8252C55.8302 26.6087 56.0228 27.2229 56.408 27.6678ZM55.4674 23.1846C56.0945 22.4785 56.8873 22.1254 57.8459 22.1254C58.8045 22.1254 59.5928 22.4785 60.211 23.1846C60.8381 23.881 61.1516 24.7612 61.1516 25.8252C61.1516 26.8989 60.8426 27.7887 60.2244 28.4948C59.6063 29.1913 58.8134 29.5395 57.8459 29.5395C56.8784 29.5395 56.0855 29.1913 55.4674 28.4948C54.8492 27.7887 54.5402 26.8989 54.5402 25.8252C54.5402 24.7612 54.8492 23.881 55.4674 23.1846ZM62.2974 29.6991L63.5203 29.3944C63.5651 29.8877 63.7487 30.294 64.0712 30.6132C64.3938 30.942 64.7969 31.1065 65.2807 31.1065C66.5976 31.1065 67.256 30.352 67.256 28.8431V27.8419C67.0948 28.1805 66.8395 28.4562 66.4901 28.669C66.1496 28.8818 65.7465 28.9882 65.2807 28.9882C64.4206 28.9882 63.7084 28.6738 63.144 28.0451C62.5886 27.4067 62.3109 26.5942 62.3109 25.6076C62.3109 24.65 62.5886 23.8472 63.144 23.1991C63.6995 22.5413 64.4117 22.2125 65.2807 22.2125C66.2661 22.2125 66.9291 22.58 67.2695 23.3152V22.3431H68.5193V28.7995C68.5193 29.2638 68.4611 29.6943 68.3446 30.0908C68.2371 30.4971 68.0624 30.8695 67.8204 31.208C67.5786 31.5466 67.2381 31.8126 66.7991 32.006C66.3691 32.1995 65.863 32.2962 65.2807 32.2962C64.4833 32.2962 63.807 32.0495 63.2515 31.5562C62.6961 31.0726 62.3781 30.4536 62.2974 29.6991ZM65.4688 27.8419C66.0153 27.8419 66.4587 27.6388 66.7991 27.2326C67.1396 26.8166 67.3098 26.275 67.3098 25.6076C67.3098 24.9402 67.1396 24.4033 66.7991 23.9971C66.4587 23.5812 66.0153 23.3732 65.4688 23.3732C64.9134 23.3732 64.4609 23.5763 64.1116 23.9826C63.7711 24.3888 63.6009 24.9305 63.6009 25.6076C63.6009 26.2943 63.7667 26.8408 64.0981 27.2471C64.4385 27.6437 64.8954 27.8419 65.4688 27.8419ZM71.7995 29.3219H70.5363V18.8174H71.7995V29.3219ZM74.768 25.1143H78.3022C78.2842 24.5919 78.123 24.1663 77.8184 23.8375C77.5138 23.4989 77.0838 23.3297 76.5284 23.3297C76.0267 23.3297 75.6146 23.5086 75.2921 23.8665C74.9696 24.2147 74.7949 24.6306 74.768 25.1143ZM78.4903 26.9279L79.5788 27.3341C79.3906 27.9822 79.0412 28.5142 78.5306 28.9301C78.02 29.3364 77.4018 29.5395 76.6762 29.5395C75.7713 29.5395 75.0009 29.2058 74.3648 28.5384C73.7377 27.8613 73.4242 26.9521 73.4242 25.8107C73.4242 24.7467 73.7288 23.8665 74.338 23.1701C74.9472 22.4736 75.6728 22.1254 76.5149 22.1254C77.4914 22.1254 78.2529 22.4591 78.7994 23.1265C79.3458 23.7843 79.6191 24.6693 79.6191 25.7817C79.6191 25.9558 79.6101 26.1009 79.5922 26.2169H74.7277C74.7366 26.836 74.9248 27.3438 75.2921 27.7404C75.6683 28.137 76.1297 28.3352 76.6762 28.3352C77.5989 28.3352 78.2036 27.8661 78.4903 26.9279ZM86.0424 23.8375H87.9506C88.515 23.8375 88.9629 23.6827 89.2944 23.3732C89.6259 23.054 89.7916 22.6284 89.7916 22.0964C89.7916 21.5547 89.6259 21.1243 89.2944 20.8051C88.9629 20.4762 88.515 20.3118 87.9506 20.3118H86.0424V23.8375ZM88.1925 25.1143H86.0424V29.3219H84.7255V19.035H88.1925C89.0615 19.035 89.7692 19.3252 90.3157 19.9056C90.8622 20.4859 91.1354 21.2114 91.1354 22.0819C91.1354 22.9621 90.8622 23.6876 90.3157 24.2582C89.7692 24.8289 89.0615 25.1143 88.1925 25.1143ZM93.7411 29.3219H92.4779V18.8174H93.7411V29.3219ZM95.4867 27.4502C95.4867 26.8505 95.6659 26.3717 96.0243 26.0138C96.3826 25.6463 96.8574 25.419 97.4487 25.3319L99.1956 25.0562C99.5271 25.0079 99.6928 24.8338 99.6928 24.5339C99.6928 24.1663 99.5763 23.8665 99.3434 23.6344C99.1105 23.4022 98.7611 23.2861 98.2953 23.2861C97.8652 23.2861 97.5248 23.4167 97.274 23.6779C97.0231 23.9294 96.8753 24.2679 96.8305 24.6935L95.6211 24.3888C95.6838 23.7214 95.966 23.1797 96.4677 22.7638C96.9694 22.3382 97.5696 22.1254 98.2684 22.1254C99.1822 22.1254 99.8585 22.3672 100.298 22.8509C100.736 23.3248 100.956 23.9342 100.956 24.679V28.1757C100.956 28.5916 100.983 28.9736 101.037 29.3219H99.8003C99.7555 29.0317 99.7331 28.7173 99.7331 28.3788C99.5539 28.6883 99.2897 28.9591 98.9403 29.1913C98.5999 29.4234 98.1698 29.5395 97.6502 29.5395C97.0142 29.5395 96.4946 29.3364 96.0914 28.9301C95.6883 28.5142 95.4867 28.0209 95.4867 27.4502ZM97.8249 28.3933C98.3893 28.3933 98.8417 28.2289 99.1822 27.9C99.5226 27.5711 99.6928 27.0488 99.6928 26.333V26.0138L97.7174 26.333C97.4308 26.3814 97.2023 26.4926 97.0321 26.6667C96.8619 26.8408 96.7768 27.0778 96.7768 27.3777C96.7768 27.6485 96.8708 27.8855 97.059 28.0886C97.2561 28.2917 97.5114 28.3933 97.8249 28.3933ZM104.406 32.2382H103.022L104.634 28.5529L101.852 22.3431H103.304L105.319 27.16L107.255 22.3431H108.612L104.406 32.2382Z" fill="white"/>
<path d="M40.3797 13.4309V11.3914H38.5675V12.0546H39.7142C39.6733 12.331 39.4122 12.8174 38.7416 12.8174C38.1324 12.8174 37.5949 12.3586 37.5949 11.4743C37.5949 10.5457 38.1887 10.1422 38.7364 10.1422C39.3252 10.1422 39.6272 10.5457 39.7193 10.8939L40.3951 10.6341C40.2159 10.0317 39.6886 9.4292 38.7364 9.4292C37.7536 9.4292 36.8782 10.2085 36.8782 11.4743C36.8782 12.74 37.7126 13.5138 38.6904 13.5138C39.2381 13.5138 39.5965 13.2485 39.7603 12.9832L39.8064 13.4309H40.3797ZM44.3254 13.4309V12.7124H42.7589V11.8059H44.1769V11.1261H42.7589V10.2306H44.3254V9.51211H42.0524V13.4309H44.3254ZM48.724 10.2362V9.51211H45.7191V10.2362H46.8658V13.4309H47.5773V10.2362H48.724ZM53.1225 13.4309V9.51211H52.4059V13.4309H53.1225ZM57.5827 10.2362V9.51211H54.5777V10.2362H55.7245V13.4309H56.436V10.2362H57.5827ZM61.7815 11.4687C61.7815 10.5844 62.3549 10.1643 62.9129 10.1643C63.476 10.1643 64.0493 10.5844 64.0493 11.4687C64.0493 12.3531 63.476 12.7732 62.9129 12.7732C62.3549 12.7732 61.7815 12.3531 61.7815 11.4687ZM61.0495 11.4743C61.0495 12.7345 61.93 13.5138 62.9129 13.5138C63.9009 13.5138 64.7814 12.7345 64.7814 11.4743C64.7814 10.2085 63.9009 9.4292 62.9129 9.4292C61.93 9.4292 61.0495 10.2085 61.0495 11.4743ZM69.4511 13.4309V9.51211H68.7447V12.1044L67.2342 9.51211H66.3537V13.4309H67.0602V10.6507L68.7088 13.4309H69.4511Z" fill="white"/>
<path d="M16.2378 29.0395C15.8587 29.304 15.4035 29.384 14.9764 29.2751L22.4806 21.1729L24.9127 23.7988L16.2378 29.0395Z" fill="#F44336"/>
<path d="M14.0458 28.6154C13.8366 28.315 13.7161 27.9461 13.7161 27.5559V13.1235C13.7161 12.7332 13.8366 12.3644 14.0458 12.064L21.7107 20.3397L14.0458 28.6154Z" fill="#2196F3"/>
<path d="M28.0865 21.8806L25.9006 23.2011L23.2509 20.3401L25.9008 17.479L28.0869 18.7996C28.6106 19.1164 28.9232 19.6922 28.9232 20.3401C28.9232 20.988 28.6106 21.5638 28.0865 21.8806Z" fill="#FFC107"/>
<path d="M22.4801 19.5077L14.9764 11.406C15.0994 11.3747 15.2247 11.3579 15.3498 11.3579C15.6593 11.3579 15.9676 11.4529 16.2373 11.641L24.9123 16.8817L22.4801 19.5077Z" fill="#4CAF50"/>
</svg>
