<svg width="116" height="40" viewBox="0 0 116 40" fill="none" xmlns="http://www.w3.org/2000/svg">
<rect x="0.199219" y="0.519531" width="115.569" height="39.4799" rx="6.63526" fill="black"/>
<rect x="0.3651" y="0.685413" width="115.237" height="39.1481" rx="6.46938" stroke="#6F767E" stroke-opacity="0.4" stroke-width="0.331763"/>
<path d="M47.7604 29.4732L46.726 26.6005H42.5079L41.5004 29.4732H40.0898L43.8781 19.1864H45.3961L49.1843 29.4732H47.7604ZM44.6035 20.6663L42.978 25.2801H46.2558L44.6035 20.6663ZM51.5806 32.2299H50.3313V22.4944H51.5537V23.5826C51.7418 23.215 52.0239 22.9152 52.4 22.683C52.7762 22.4509 53.215 22.3348 53.7165 22.3348C54.6479 22.3348 55.3733 22.6782 55.8927 23.365C56.4211 24.0517 56.6853 24.9223 56.6853 25.9766C56.6853 27.0406 56.4122 27.9208 55.8659 28.6172C55.3285 29.3136 54.5986 29.6618 53.6762 29.6618C53.2016 29.6618 52.7806 29.5554 52.4135 29.3426C52.0463 29.1298 51.7687 28.859 51.5806 28.5301V32.2299ZM55.3957 25.9766C55.3957 25.2705 55.2211 24.6901 54.8718 24.2355C54.5315 23.7712 54.0703 23.5391 53.4881 23.5391C52.915 23.5391 52.4493 23.7712 52.0911 24.2355C51.7418 24.6901 51.5672 25.2705 51.5672 25.9766C51.5672 26.702 51.7418 27.2969 52.0911 27.7612C52.4493 28.2158 52.915 28.4431 53.4881 28.4431C54.0613 28.4431 54.5225 28.2158 54.8718 27.7612C55.2211 27.2969 55.3957 26.702 55.3957 25.9766ZM59.5436 32.2299H58.2943V22.4944H59.5168V23.5826C59.7048 23.215 59.9869 22.9152 60.3631 22.683C60.7392 22.4509 61.178 22.3348 61.6796 22.3348C62.611 22.3348 63.3364 22.6782 63.8558 23.365C64.3842 24.0517 64.6484 24.9223 64.6484 25.9766C64.6484 27.0406 64.3752 27.9208 63.8289 28.6172C63.2916 29.3136 62.5617 29.6618 61.6393 29.6618C61.1646 29.6618 60.7437 29.5554 60.3765 29.3426C60.0093 29.1298 59.7317 28.859 59.5436 28.5301V32.2299ZM63.3587 25.9766C63.3587 25.2705 63.1841 24.6901 62.8348 24.2355C62.4945 23.7712 62.0333 23.5391 61.4512 23.5391C60.878 23.5391 60.4123 23.7712 60.0541 24.2355C59.7048 24.6901 59.5302 25.2705 59.5302 25.9766C59.5302 26.702 59.7048 27.2969 60.0541 27.7612C60.4123 28.2158 60.878 28.4431 61.4512 28.4431C62.0244 28.4431 62.4856 28.2158 62.8348 27.7612C63.1841 27.2969 63.3587 26.702 63.3587 25.9766ZM75.8223 21.5223L74.6401 21.9721C74.5774 21.5272 74.3759 21.1257 74.0356 20.7679C73.6953 20.4003 73.2251 20.2165 72.6251 20.2165C72.0967 20.2165 71.6579 20.381 71.3086 20.7098C70.959 21.0387 70.7844 21.4449 70.7844 21.9286C70.7844 22.3058 70.8874 22.625 71.0934 22.8862C71.3086 23.1473 71.6131 23.3263 72.0072 23.423L73.4311 23.7567C74.2192 23.9405 74.8282 24.2887 75.2581 24.8013C75.6879 25.3043 75.9029 25.9185 75.9029 26.644C75.9029 27.4758 75.5984 28.1916 74.9894 28.7913C74.3804 29.391 73.5878 29.6909 72.6117 29.6909C71.5459 29.6909 70.7083 29.391 70.0993 28.7913C69.4993 28.1819 69.15 27.4613 69.0515 26.6295L70.3142 26.1942C70.368 26.8133 70.5919 27.3356 70.9859 27.7612C71.3803 28.1868 71.9176 28.3996 72.5982 28.3996C73.2251 28.3996 73.7087 28.2448 74.0491 27.9353C74.3894 27.6258 74.5595 27.234 74.5595 26.7601C74.5595 26.3732 74.4386 26.0394 74.1968 25.7589C73.955 25.4688 73.6013 25.2705 73.1356 25.1641L71.7788 24.8449C71.071 24.6804 70.5068 24.3564 70.0859 23.8728C69.6649 23.3891 69.4545 22.7749 69.4545 22.0301C69.4545 21.2176 69.759 20.5067 70.368 19.8973C70.9859 19.2783 71.7295 18.9688 72.5982 18.9688C73.5744 18.9688 74.3222 19.2251 74.8416 19.7377C75.3611 20.2504 75.6879 20.8452 75.8223 21.5223ZM79.1403 20.2891V22.4944H80.5374V23.7277H79.1403V27.3549C79.1403 27.6838 79.2075 27.9256 79.3418 28.0804C79.4851 28.2351 79.718 28.3125 80.0404 28.3125C80.2285 28.3125 80.3941 28.2932 80.5374 28.2545V29.4152C80.3225 29.5022 80.0359 29.5458 79.6777 29.5458C79.1224 29.5458 78.6836 29.3717 78.3612 29.0234C78.0388 28.6752 77.8776 28.1868 77.8776 27.558V23.7277H76.6417V22.4944H76.991C77.3223 22.4944 77.5686 22.3977 77.7298 22.2042C77.9 22.0011 77.9851 21.74 77.9851 21.4208V20.2891H79.1403ZM83.487 27.8192C83.8811 28.2545 84.3602 28.4721 84.9244 28.4721C85.4886 28.4721 85.9633 28.2545 86.3484 27.8192C86.7424 27.3743 86.9394 26.7601 86.9394 25.9766C86.9394 25.2028 86.7424 24.5982 86.3484 24.163C85.9633 23.718 85.4886 23.4955 84.9244 23.4955C84.3602 23.4955 83.8811 23.718 83.487 24.163C83.1019 24.5982 82.9094 25.2028 82.9094 25.9766C82.9094 26.7601 83.1019 27.3743 83.487 27.8192ZM82.5467 23.3359C83.1736 22.6298 83.9662 22.2768 84.9244 22.2768C85.8827 22.2768 86.6708 22.6298 87.2887 23.3359C87.9156 24.0324 88.2291 24.9126 88.2291 25.9766C88.2291 27.0502 87.9201 27.9401 87.3021 28.6462C86.6842 29.3426 85.8916 29.6909 84.9244 29.6909C83.9572 29.6909 83.1646 29.3426 82.5467 28.6462C81.9288 27.9401 81.6198 27.0502 81.6198 25.9766C81.6198 24.9126 81.9288 24.0324 82.5467 23.3359ZM93.4317 22.4219V23.8728C93.2436 23.8438 93.06 23.8292 92.8809 23.8292C91.6987 23.8292 91.1077 24.545 91.1077 25.9766V29.4732H89.8449V22.4944H91.0808V23.7132C91.4748 22.8233 92.1196 22.3784 93.0152 22.3784C93.1585 22.3784 93.2973 22.3929 93.4317 22.4219ZM95.5311 25.2656H99.0641C99.0462 24.7433 98.885 24.3177 98.5805 23.9888C98.276 23.6503 97.8462 23.481 97.2909 23.481C96.7894 23.481 96.3774 23.66 96.055 24.0179C95.7326 24.3661 95.558 24.782 95.5311 25.2656ZM99.2522 27.0793L100.34 27.4855C100.152 28.1336 99.803 28.6656 99.2925 29.0815C98.782 29.4877 98.1641 29.6909 97.4387 29.6909C96.5341 29.6909 95.764 29.3572 95.1281 28.6897C94.5012 28.0127 94.1878 27.1034 94.1878 25.9621C94.1878 24.8981 94.4923 24.0179 95.1012 23.3214C95.7102 22.625 96.4356 22.2768 97.2775 22.2768C98.2536 22.2768 99.0149 22.6105 99.5612 23.2779C100.107 23.9356 100.381 24.8207 100.381 25.933C100.381 26.1072 100.372 26.2522 100.354 26.3683H95.4908C95.4998 26.9874 95.6878 27.4952 96.055 27.8918C96.4312 28.2883 96.8924 28.4866 97.4387 28.4866C98.3611 28.4866 98.9656 28.0175 99.2522 27.0793Z" fill="white"/>
<path d="M41.0754 12.8743V10.3705H41.6434C42.237 10.3705 42.7283 10.774 42.7283 11.6251C42.7283 12.4763 42.2319 12.8743 41.6383 12.8743H41.0754ZM41.6639 13.5818C42.6976 13.5818 43.4601 12.8632 43.4601 11.6251C43.4601 10.3871 42.7027 9.66299 41.669 9.66299H40.3691V13.5818H41.6639ZM45.2289 11.6196C45.2289 10.7353 45.8021 10.3152 46.3599 10.3152C46.9228 10.3152 47.496 10.7353 47.496 11.6196C47.496 12.504 46.9228 12.924 46.3599 12.924C45.8021 12.924 45.2289 12.504 45.2289 11.6196ZM44.4971 11.6251C44.4971 12.8854 45.3773 13.6647 46.3599 13.6647C47.3476 13.6647 48.2278 12.8854 48.2278 11.6251C48.2278 10.3594 47.3476 9.58008 46.3599 9.58008C45.3773 9.58008 44.4971 10.3594 44.4971 11.6251ZM52.7629 12.3713L51.9544 9.66299H51.2226L50.4191 12.3603L49.7538 9.66299H49.0067L50.0148 13.5818H50.7518L51.5808 10.7905L52.4098 13.5818H53.1365L54.1395 9.66299H53.418L52.7629 12.3713ZM58.353 13.5818V9.66299H57.6468V12.2553L56.1371 9.66299H55.2569V13.5818H55.9631V10.8016L57.611 13.5818H58.353ZM62.1431 13.5818V12.8522H60.526V9.66299H59.8197V13.5818H62.1431ZM63.7199 11.6196C63.7199 10.7353 64.2931 10.3152 64.8509 10.3152C65.4138 10.3152 65.987 10.7353 65.987 11.6196C65.987 12.504 65.4138 12.924 64.8509 12.924C64.2931 12.924 63.7199 12.504 63.7199 11.6196ZM62.9881 11.6251C62.9881 12.8854 63.8683 13.6647 64.8509 13.6647C65.8386 13.6647 66.7188 12.8854 66.7188 11.6251C66.7188 10.3594 65.8386 9.58008 64.8509 9.58008C63.8683 9.58008 62.9881 10.3594 62.9881 11.6251ZM70.2574 13.5818H71.025L69.6433 9.66299H68.8245L67.4325 13.5818H68.1796L68.4816 12.6864H69.9554L70.2574 13.5818ZM69.2185 10.5087L69.72 11.9899H68.717L69.2185 10.5087ZM72.8347 12.8743V10.3705H73.4027C73.9963 10.3705 74.4876 10.774 74.4876 11.6251C74.4876 12.4763 73.9912 12.8743 73.3976 12.8743H72.8347ZM73.4232 13.5818C74.4569 13.5818 75.2194 12.8632 75.2194 11.6251C75.2194 10.3871 74.462 9.66299 73.4283 9.66299H72.1285V13.5818H73.4232ZM78.8925 11.6196C78.8925 10.7353 79.4657 10.3152 80.0235 10.3152C80.5864 10.3152 81.1596 10.7353 81.1596 11.6196C81.1596 12.504 80.5864 12.924 80.0235 12.924C79.4657 12.924 78.8925 12.504 78.8925 11.6196ZM78.1607 11.6251C78.1607 12.8854 79.0409 13.6647 80.0235 13.6647C81.0112 13.6647 81.8914 12.8854 81.8914 11.6251C81.8914 10.3594 81.0112 9.58008 80.0235 9.58008C79.0409 9.58008 78.1607 10.3594 78.1607 11.6251ZM86.2394 13.5818V9.66299H85.5331V12.2553L84.0235 9.66299H83.1433V13.5818H83.8495V10.8016L85.4973 13.5818H86.2394ZM92.2819 10.3871V9.66299H89.2779V10.3871H90.4242V13.5818H91.1356V10.3871H92.2819ZM96.4175 13.5818V9.66299H95.7061V11.2382H94.1248V9.66299H93.4186V13.5818H94.1248V11.9568H95.7061V13.5818H96.4175ZM100.158 13.5818V12.8632H98.5924V11.9568H100.01V11.2769H98.5924V10.3815H100.158V9.66299H97.8862V13.5818H100.158Z" fill="white"/>
<path d="M31.5569 25.3385C31.1415 26.3321 30.9432 26.7756 30.4083 27.6534C29.6631 28.8794 28.6115 30.4063 27.3086 30.4192C26.1512 30.4309 25.8537 29.6056 24.2824 29.6156C22.7112 29.6255 22.3838 30.4339 21.2263 30.4222C19.9233 30.4097 18.9279 29.0309 18.1818 27.8041C16.0964 24.3755 15.8785 20.3523 17.1647 18.2136C18.0787 16.6927 19.5212 15.804 20.8769 15.804C22.2574 15.804 23.1254 16.6215 24.2673 16.6215C25.3747 16.6215 26.0492 15.8027 27.6456 15.8027C28.8523 15.8027 30.1308 16.5122 31.042 17.7381C28.0566 19.5047 28.542 24.1074 31.5569 25.3385Z" fill="white"/>
<path d="M26.6028 13.6573C27.1829 12.8532 27.6227 11.7189 27.4628 10.5586C26.5153 10.6286 25.4078 11.2798 24.7609 12.1283C24.1736 12.8982 23.6886 14.0403 23.8773 15.1505C24.9109 15.1855 25.9811 14.5183 26.6028 13.6573Z" fill="white"/>
</svg>
