<svg width="122" height="40" viewBox="0 0 122 40" fill="none" xmlns="http://www.w3.org/2000/svg">
<rect x="0.541992" y="0.519531" width="120.958" height="39.4799" rx="6.63526" fill="black"/>
<rect x="0.707874" y="0.685413" width="120.626" height="39.1481" rx="6.46938" stroke="#6F767E" stroke-opacity="0.4" stroke-width="0.331763"/>
<path d="M45.4977 29.3219H44.4361L44.3152 27.871C44.0822 28.3256 43.7015 28.7173 43.1729 29.0462C42.6444 29.3751 42.0083 29.5395 41.2647 29.5395C40.4495 29.5395 39.697 29.3412 39.0072 28.9446C38.3174 28.5384 37.7485 27.9193 37.3005 27.0875C36.8616 26.2556 36.6421 25.2835 36.6421 24.1712C36.6421 23.0588 36.875 22.0867 37.3409 21.2549C37.8067 20.423 38.389 19.8088 39.0878 19.4122C39.7955 19.0157 40.5525 18.8174 41.3588 18.8174C42.3801 18.8174 43.267 19.1027 44.0195 19.6734C44.781 20.2344 45.3006 20.9841 45.5783 21.9223L44.3823 22.4736C44.1673 21.7288 43.7911 21.1533 43.2536 20.7471C42.725 20.3312 42.0934 20.1232 41.3588 20.1232C40.4361 20.1232 39.6432 20.4762 38.9803 21.1823C38.3174 21.8884 37.9859 22.8847 37.9859 24.1712C37.9859 25.4673 38.3084 26.4733 38.9534 27.189C39.6074 27.8951 40.3913 28.2482 41.3051 28.2482C41.8067 28.2482 42.2502 28.1611 42.6354 27.987C43.0296 27.8129 43.3342 27.5856 43.5492 27.3051C43.7732 27.0149 43.9389 26.7248 44.0464 26.4346C44.1629 26.1444 44.2301 25.8542 44.248 25.564H40.9422V24.2873H45.4977V29.3219ZM48.7181 27.6678C49.1122 28.1031 49.5915 28.3207 50.1559 28.3207C50.7203 28.3207 51.1951 28.1031 51.5803 27.6678C51.9745 27.2229 52.1716 26.6087 52.1716 25.8252C52.1716 25.0514 51.9745 24.4469 51.5803 24.0116C51.1951 23.5666 50.7203 23.3442 50.1559 23.3442C49.5915 23.3442 49.1122 23.5666 48.7181 24.0116C48.3328 24.4469 48.1402 25.0514 48.1402 25.8252C48.1402 26.6087 48.3328 27.2229 48.7181 27.6678ZM47.7774 23.1846C48.4045 22.4785 49.1974 22.1254 50.1559 22.1254C51.1145 22.1254 51.9029 22.4785 52.521 23.1846C53.1481 23.881 53.4617 24.7612 53.4617 25.8252C53.4617 26.8989 53.1526 27.7887 52.5344 28.4948C51.9163 29.1913 51.1235 29.5395 50.1559 29.5395C49.1884 29.5395 48.3956 29.1913 47.7774 28.4948C47.1593 27.7887 46.8502 26.8989 46.8502 25.8252C46.8502 24.7612 47.1593 23.881 47.7774 23.1846ZM56.4082 27.6678C56.8023 28.1031 57.2816 28.3207 57.846 28.3207C58.4104 28.3207 58.8852 28.1031 59.2704 27.6678C59.6646 27.2229 59.8617 26.6087 59.8617 25.8252C59.8617 25.0514 59.6646 24.4469 59.2704 24.0116C58.8852 23.5666 58.4104 23.3442 57.846 23.3442C57.2816 23.3442 56.8023 23.5666 56.4082 24.0116C56.0229 24.4469 55.8303 25.0514 55.8303 25.8252C55.8303 26.6087 56.0229 27.2229 56.4082 27.6678ZM55.4675 23.1846C56.0946 22.4785 56.8874 22.1254 57.846 22.1254C58.8046 22.1254 59.5929 22.4785 60.2111 23.1846C60.8382 23.881 61.1518 24.7612 61.1518 25.8252C61.1518 26.8989 60.8427 27.7887 60.2245 28.4948C59.6064 29.1913 58.8135 29.5395 57.846 29.5395C56.8785 29.5395 56.0856 29.1913 55.4675 28.4948C54.8494 27.7887 54.5403 26.8989 54.5403 25.8252C54.5403 24.7612 54.8494 23.881 55.4675 23.1846ZM62.2976 29.6991L63.5204 29.3944C63.5652 29.8877 63.7489 30.294 64.0714 30.6132C64.3939 30.942 64.797 31.1065 65.2808 31.1065C66.5977 31.1065 67.2562 30.352 67.2562 28.8431V27.8419C67.0949 28.1805 66.8396 28.4562 66.4902 28.669C66.1498 28.8818 65.7466 28.9882 65.2808 28.9882C64.4208 28.9882 63.7085 28.6738 63.1442 28.0451C62.5887 27.4067 62.311 26.5942 62.311 25.6076C62.311 24.65 62.5887 23.8472 63.1442 23.1991C63.6996 22.5413 64.4118 22.2125 65.2808 22.2125C66.2662 22.2125 66.9292 22.58 67.2696 23.3152V22.3431H68.5195V28.7995C68.5195 29.2638 68.4612 29.6943 68.3448 30.0908C68.2373 30.4971 68.0626 30.8695 67.8206 31.208C67.5787 31.5466 67.2382 31.8126 66.7993 32.006C66.3693 32.1995 65.8631 32.2962 65.2808 32.2962C64.4835 32.2962 63.8071 32.0495 63.2517 31.5562C62.6962 31.0726 62.3782 30.4536 62.2976 29.6991ZM65.4689 27.8419C66.0154 27.8419 66.4588 27.6388 66.7993 27.2326C67.1397 26.8166 67.3099 26.275 67.3099 25.6076C67.3099 24.9402 67.1397 24.4033 66.7993 23.9971C66.4588 23.5812 66.0154 23.3732 65.4689 23.3732C64.9135 23.3732 64.4611 23.5763 64.1117 23.9826C63.7713 24.3888 63.601 24.9305 63.601 25.6076C63.601 26.2943 63.7668 26.8408 64.0982 27.2471C64.4387 27.6437 64.8956 27.8419 65.4689 27.8419ZM71.7996 29.3219H70.5364V18.8174H71.7996V29.3219ZM74.7681 25.1143H78.3023C78.2844 24.5919 78.1231 24.1663 77.8185 23.8375C77.5139 23.4989 77.0839 23.3297 76.5285 23.3297C76.0268 23.3297 75.6147 23.5086 75.2922 23.8665C74.9697 24.2147 74.795 24.6306 74.7681 25.1143ZM78.4904 26.9279L79.5789 27.3341C79.3908 27.9822 79.0414 28.5142 78.5307 28.9301C78.0201 29.3364 77.4019 29.5395 76.6763 29.5395C75.7715 29.5395 75.001 29.2058 74.365 28.5384C73.7379 27.8613 73.4243 26.9521 73.4243 25.8107C73.4243 24.7467 73.7289 23.8665 74.3381 23.1701C74.9473 22.4736 75.6729 22.1254 76.515 22.1254C77.4915 22.1254 78.253 22.4591 78.7995 23.1265C79.346 23.7843 79.6192 24.6693 79.6192 25.7817C79.6192 25.9558 79.6102 26.1009 79.5923 26.2169H74.7278C74.7367 26.836 74.9249 27.3438 75.2922 27.7404C75.6684 28.137 76.1298 28.3352 76.6763 28.3352C77.599 28.3352 78.2037 27.8661 78.4904 26.9279ZM86.0425 23.8375H87.9507C88.5151 23.8375 88.9631 23.6827 89.2945 23.3732C89.626 23.054 89.7917 22.6284 89.7917 22.0964C89.7917 21.5547 89.626 21.1243 89.2945 20.8051C88.9631 20.4762 88.5151 20.3118 87.9507 20.3118H86.0425V23.8375ZM88.1926 25.1143H86.0425V29.3219H84.7256V19.035H88.1926C89.0616 19.035 89.7693 19.3252 90.3158 19.9056C90.8623 20.4859 91.1355 21.2114 91.1355 22.0819C91.1355 22.9621 90.8623 23.6876 90.3158 24.2582C89.7693 24.8289 89.0616 25.1143 88.1926 25.1143ZM93.7412 29.3219H92.478V18.8174H93.7412V29.3219ZM95.4869 27.4502C95.4869 26.8505 95.666 26.3717 96.0244 26.0138C96.3827 25.6463 96.8575 25.419 97.4488 25.3319L99.1957 25.0562C99.5272 25.0079 99.6929 24.8338 99.6929 24.5339C99.6929 24.1663 99.5765 23.8665 99.3435 23.6344C99.1106 23.4022 98.7612 23.2861 98.2954 23.2861C97.8654 23.2861 97.5249 23.4167 97.2741 23.6779C97.0233 23.9294 96.8754 24.2679 96.8306 24.6935L95.6212 24.3888C95.6839 23.7214 95.9661 23.1797 96.4678 22.7638C96.9695 22.3382 97.5697 22.1254 98.2685 22.1254C99.1823 22.1254 99.8587 22.3672 100.298 22.8509C100.737 23.3248 100.956 23.9342 100.956 24.679V28.1757C100.956 28.5916 100.983 28.9736 101.037 29.3219H99.8004C99.7556 29.0317 99.7332 28.7173 99.7332 28.3788C99.5541 28.6883 99.2898 28.9591 98.9404 29.1913C98.6 29.4234 98.17 29.5395 97.6504 29.5395C97.0143 29.5395 96.4947 29.3364 96.0916 28.9301C95.6884 28.5142 95.4869 28.0209 95.4869 27.4502ZM97.8251 28.3933C98.3895 28.3933 98.8419 28.2289 99.1823 27.9C99.5227 27.5711 99.6929 27.0488 99.6929 26.333V26.0138L97.7176 26.333C97.4309 26.3814 97.2024 26.4926 97.0322 26.6667C96.862 26.8408 96.7769 27.0778 96.7769 27.3777C96.7769 27.6485 96.871 27.8855 97.0591 28.0886C97.2562 28.2917 97.5115 28.3933 97.8251 28.3933ZM104.406 32.2382H103.022L104.634 28.5529L101.853 22.3431H103.304L105.32 27.16L107.255 22.3431H108.612L104.406 32.2382Z" fill="white"/>
<path d="M40.38 13.4304V11.3909H38.5678V12.0541H39.7145C39.6735 12.3305 39.4124 12.8169 38.7418 12.8169C38.1326 12.8169 37.5951 12.3581 37.5951 11.4738C37.5951 10.5452 38.1889 10.1417 38.7367 10.1417C39.3254 10.1417 39.6274 10.5452 39.7196 10.8934L40.3953 10.6336C40.2161 10.0312 39.6889 9.42871 38.7367 9.42871C37.7538 9.42871 36.8784 10.208 36.8784 11.4738C36.8784 12.7395 37.7129 13.5133 38.6906 13.5133C39.2384 13.5133 39.5967 13.248 39.7605 12.9827L39.8066 13.4304H40.38ZM44.3256 13.4304V12.7119H42.7591V11.8054H44.1771V11.1256H42.7591V10.2302H44.3256V9.51162H42.0527V13.4304H44.3256ZM48.7243 10.2357V9.51162H45.7193V10.2357H46.866V13.4304H47.5776V10.2357H48.7243ZM53.1228 13.4304V9.51162H52.4061V13.4304H53.1228ZM57.583 10.2357V9.51162H54.578V10.2357H55.7247V13.4304H56.4363V10.2357H57.583ZM61.7818 11.4683C61.7818 10.5839 62.3551 10.1638 62.9131 10.1638C63.4762 10.1638 64.0496 10.5839 64.0496 11.4683C64.0496 12.3526 63.4762 12.7727 62.9131 12.7727C62.3551 12.7727 61.7818 12.3526 61.7818 11.4683ZM61.0497 11.4738C61.0497 12.734 61.9302 13.5133 62.9131 13.5133C63.9011 13.5133 64.7816 12.734 64.7816 11.4738C64.7816 10.208 63.9011 9.42871 62.9131 9.42871C61.9302 9.42871 61.0497 10.208 61.0497 11.4738ZM69.4514 13.4304V9.51162H68.7449V12.1039L67.2345 9.51162H66.354V13.4304H67.0604V10.6502L68.7091 13.4304H69.4514Z" fill="white"/>
<path d="M16.2374 29.0386C15.8584 29.303 15.4031 29.383 14.9761 29.2741L22.4803 21.1719L24.9123 23.7978L16.2374 29.0386Z" fill="#F44336"/>
<path d="M14.0456 28.6149C13.8363 28.3145 13.7158 27.9457 13.7158 27.5554V13.123C13.7158 12.7328 13.8363 12.3639 14.0456 12.0635L21.7104 20.3392L14.0456 28.6149Z" fill="#2196F3"/>
<path d="M28.0866 21.8801L25.9007 23.2006L23.251 20.3396L25.9009 17.4785L28.087 18.7991C28.6107 19.1159 28.9233 19.6918 28.9233 20.3396C28.9233 20.9875 28.6107 21.5633 28.0866 21.8801Z" fill="#FFC107"/>
<path d="M22.4798 19.5072L14.9761 11.4055C15.0991 11.3742 15.2243 11.3574 15.3495 11.3574C15.6589 11.3574 15.9672 11.4524 16.2369 11.6406L24.912 16.8813L22.4798 19.5072Z" fill="#4CAF50"/>
</svg>
