<svg width="32" height="32" viewBox="0 0 32 32" fill="none" xmlns="http://www.w3.org/2000/svg">
<path d="M24 8.00033C23.1866 8.00033 22.44 7.53366 22.0666 6.81366L21.1066 4.88033C20.4933 3.66699 18.8933 2.66699 17.5333 2.66699H14.48C13.1066 2.66699 11.5066 3.66699 10.8933 4.88033L9.93329 6.81366C9.55996 7.53366 8.81329 8.00033 7.99996 8.00033C5.10663 8.00033 2.81329 10.4403 2.99996 13.3203L3.69329 24.3337C3.85329 27.0803 5.33329 29.3337 9.01329 29.3337H22.9866C26.6666 29.3337 28.1333 27.0803 28.3066 24.3337L29 13.3203C29.1866 10.4403 26.8933 8.00033 24 8.00033ZM14 9.66699H18C18.5466 9.66699 19 10.1203 19 10.667C19 11.2137 18.5466 11.667 18 11.667H14C13.4533 11.667 13 11.2137 13 10.667C13 10.1203 13.4533 9.66699 14 9.66699ZM16 24.1603C13.52 24.1603 11.4933 22.147 11.4933 19.6537C11.4933 17.1603 13.5066 15.147 16 15.147C18.4933 15.147 20.5066 17.1603 20.5066 19.6537C20.5066 22.147 18.48 24.1603 16 24.1603Z" fill="white"/>
</svg>
