<svg width="24" height="25" viewBox="0 0 24 25" fill="none" xmlns="http://www.w3.org/2000/svg">
<path d="M2 12.8086H19" stroke="#FAFAFA" stroke-width="1.5" stroke-miterlimit="10" stroke-linecap="round" stroke-linejoin="round"/>
<path d="M19 10.48V17.63C18.97 20.48 18.19 21.2 15.22 21.2H5.78003C2.76003 21.2 2 20.45 2 17.47V10.48C2 7.78 2.63 6.91 5 6.77C5.24 6.76 5.50003 6.75 5.78003 6.75H15.22C18.24 6.75 19 7.5 19 10.48Z" stroke="#FAFAFA" stroke-width="1.5" stroke-linecap="round" stroke-linejoin="round"/>
<path d="M22 6.92922V13.9192C22 16.6192 21.37 17.4892 19 17.6292V10.4792C19 7.49922 18.24 6.74922 15.22 6.74922H5.78003C5.50003 6.74922 5.24 6.75922 5 6.76922C5.03 3.91922 5.81003 3.19922 8.78003 3.19922H18.22C21.24 3.19922 22 3.94922 22 6.92922Z" stroke="#FAFAFA" stroke-width="1.5" stroke-linecap="round" stroke-linejoin="round"/>
<path d="M5.25 18.0098H6.96997" stroke="#FAFAFA" stroke-width="1.5" stroke-miterlimit="10" stroke-linecap="round" stroke-linejoin="round"/>
<path d="M9.10999 18.0098H12.55" stroke="#FAFAFA" stroke-width="1.5" stroke-miterlimit="10" stroke-linecap="round" stroke-linejoin="round"/>
</svg>
