<svg xmlns="http://www.w3.org/2000/svg" width="25" height="25" viewBox="0 0 18 18" fill="none">
  <path d="M5.92776 4.38399L5.93682 4.36361L5.94465 4.34273L5.98426 4.2371C5.9899 4.22361 5.99476 4.21161 5.99854 4.20226L6.00515 4.18588L6.01628 4.16733L6.0361 4.12137C6.4529 3.15482 6.83664 2.67046 7.20726 2.44421C7.3872 2.33436 7.60136 2.26345 7.88182 2.25468L6.65332 5.11438H5.62178L5.90133 4.44346L5.92776 4.38399Z" fill="#8E9BAE" stroke="#8E9BAE" stroke-width="1.5"/>
  <path d="M12.6598 5.11563H9.10396L10.074 2.86091L11.3714 3.40691L11.3714 3.40692L11.3751 3.40843C12.2499 3.77116 12.7568 4.10728 13.039 4.44117C13.0966 4.51829 13.1371 4.57539 13.1761 4.6387L13.18 4.64498L13.184 4.65119C13.225 4.71509 13.2365 4.74773 13.2402 4.76137L13.2554 4.8186L13.2795 4.87273C13.2894 4.89512 13.2943 4.90778 13.297 4.91523C13.2993 4.92171 13.2999 4.92451 13.3002 4.92582L13.3057 4.9505L13.3128 4.97475C13.3297 5.03226 13.3434 5.09354 13.3534 5.15886C13.1246 5.13035 12.8934 5.11563 12.6598 5.11563Z" fill="#8E9BAE" stroke="#8E9BAE" stroke-width="1.5"/>
  <mask id="path-3-inside-1_11699_78418" fill="white">
    <path d="M9.39014 13.2455H9.57764C9.80264 13.2455 9.99014 13.043 9.99014 12.7955C9.99014 12.4805 9.90014 12.4355 9.70514 12.3605L9.39014 12.248V13.2455Z"/>
  </mask>
  <path d="M9.39014 13.2455H9.57764C9.80264 13.2455 9.99014 13.043 9.99014 12.7955C9.99014 12.4805 9.90014 12.4355 9.70514 12.3605L9.39014 12.248V13.2455Z" fill="#8E9BAE"/>
  <path d="M9.39014 13.2455H7.89014V14.7455H9.39014V13.2455ZM9.70514 12.3605L10.2436 10.9605L10.2267 10.954L10.2096 10.9479L9.70514 12.3605ZM9.39014 12.248L9.89464 10.8354L7.89014 10.1195V12.248H9.39014ZM9.39014 14.7455H9.57764V11.7455H9.39014V14.7455ZM9.57764 14.7455C10.747 14.7455 11.4901 13.7505 11.4901 12.7955H8.49014C8.49014 12.3356 8.85823 11.7455 9.57764 11.7455V14.7455ZM11.4901 12.7955C11.4901 12.5574 11.4709 12.0357 11.1028 11.5646C10.7584 11.1237 10.2697 10.9706 10.2436 10.9605L9.16667 13.7606C9.22349 13.7824 9.17522 13.7665 9.11004 13.7307C9.02538 13.6842 8.8756 13.5867 8.73872 13.4115C8.46439 13.0604 8.49014 12.7187 8.49014 12.7955H11.4901ZM10.2096 10.9479L9.89464 10.8354L8.88563 13.6607L9.20063 13.7732L10.2096 10.9479ZM7.89014 12.248V13.2455H10.8901V12.248H7.89014Z" fill="#8E9BAE" mask="url(#path-3-inside-1_11699_78418)"/>
  <path d="M13.7177 7.14023C13.3802 7.04273 13.0277 6.99023 12.6602 6.99023H5.34018C4.83018 6.99023 4.35018 7.08773 3.90018 7.28273C2.59518 7.84523 1.68018 9.14273 1.68018 10.6502V12.1127C1.68018 12.2927 1.69518 12.4652 1.71768 12.6452C1.88268 15.0302 3.15768 16.3052 5.54268 16.4627C5.71518 16.4852 5.88768 16.5002 6.07518 16.5002H11.9252C14.7002 16.5002 16.1627 15.1802 16.3052 12.5552C16.3127 12.4127 16.3202 12.2627 16.3202 12.1127V10.6502C16.3202 8.99273 15.2177 7.59773 13.7177 7.14023ZM9.96018 11.6252C10.3052 11.7452 10.7702 12.0002 10.7702 12.7952C10.7702 13.4777 10.2377 14.0252 9.57768 14.0252H9.39018V14.1902C9.39018 14.4077 9.21768 14.5802 9.00018 14.5802C8.78268 14.5802 8.61018 14.4077 8.61018 14.1902V14.0252H8.54268C7.82268 14.0252 7.23018 13.4177 7.23018 12.6677C7.23018 12.4502 7.40268 12.2777 7.62018 12.2777C7.83768 12.2777 8.01018 12.4502 8.01018 12.6677C8.01018 12.9827 8.25018 13.2452 8.54268 13.2452H8.61018V11.9777L8.04018 11.7752C7.69518 11.6552 7.23018 11.4002 7.23018 10.6052C7.23018 9.92273 7.76268 9.37523 8.42268 9.37523H8.61018V9.21023C8.61018 8.99273 8.78268 8.82023 9.00018 8.82023C9.21768 8.82023 9.39018 8.99273 9.39018 9.21023V9.37523H9.45767C10.1777 9.37523 10.7702 9.98273 10.7702 10.7327C10.7702 10.9502 10.5977 11.1227 10.3802 11.1227C10.1627 11.1227 9.99018 10.9502 9.99018 10.7327C9.99018 10.4177 9.75018 10.1552 9.45767 10.1552H9.39018V11.4227L9.96018 11.6252Z" fill="#8E9BAE"/>
  <path d="M8.00977 10.6043C8.00977 10.9193 8.09977 10.9643 8.29477 11.0393L8.60977 11.1518V10.1543H8.42227C8.18977 10.1543 8.00977 10.3568 8.00977 10.6043Z" fill="#8E9BAE"/>
</svg>