 <svg xmlns="http://www.w3.org/2000/svg"  width="20" height="20" fill="currentColor" class="bi bi-chat-left-text-fill" viewBox="0 0 16 16">
<defs>
    <linearGradient id="chatGradient" x1="0%" y1="0%" x2="100%" y2="100%" =>
                          <stop offset="0%" stop-color="#2873FF" />
                          <stop offset="100%" stop-color="#0B6B96" />
                        </linearGradient>
                      </defs>
                      <path fill="url(#chatGradient)" d="M0 2a2 2 0 0 1 2-2h12a2 2 0 0 1 2 2v8a2 2 0 0 1-2 2H4.414a1 1 0 0 0-.707.293L.854 15.146A.5.5 0 0 1 0 14.793zm3.5 1a.5.5 0 0 0 0 1h9a.5.5 0 0 0 0-1zm0 2.5a.5.5 0 0 0 0 1h9a.5.5 0 0 0 0-1zm0 2.5a.5.5 0 0 0 0 1h5a.5.5 0 0 0 0-1z"/>
                    </svg>