  <svg xmlns="http://www.w3.org/2000/svg" width="180" height="181" viewBox="0 0 180 181" fill="none">
  <path d="M20.109 134.968C16.8536 137.053 12.4977 136.116 10.6717 132.708C4.16861 120.573 0.521397 107.077 0.0518777 93.2546C-0.497047 77.0946 3.31771 61.0852 11.0951 46.9092C18.8726 32.7333 30.3254 20.9144 44.2497 12.6949C58.1741 4.4755 74.0556 0.159108 90.2248 0.1995C106.394 0.239891 122.254 4.63557 136.137 12.9245C150.02 21.2134 161.414 33.0894 169.12 47.304C176.827 61.5186 180.561 77.5469 179.932 93.7039C179.393 107.524 175.679 121.001 169.115 133.104C167.272 136.503 162.911 137.418 159.666 135.317L156.982 133.578C153.737 131.477 152.844 127.156 154.624 123.724C159.543 114.242 162.329 103.766 162.747 93.0342C163.256 79.9646 160.235 66.9991 154.001 55.5007C147.767 44.0023 138.551 34.3957 127.321 27.6907C116.091 20.9857 103.261 17.43 90.1819 17.3973C77.1024 17.3647 64.2556 20.8562 52.992 27.505C41.7285 34.1539 32.4641 43.7143 26.1729 55.1814C19.8816 66.6485 16.7958 79.5987 17.2398 92.6707C17.6044 103.404 20.3377 113.894 25.2094 123.401C26.9725 126.841 26.0572 131.158 22.8018 133.243L20.109 134.968Z" fill="#3D3E52"/>
  <path d="M21.4639 134.1C17.4602 136.665 12.095 135.514 9.92453 131.284C5.33407 122.336 2.26605 112.665 0.86755 102.665C-0.929319 89.818 0.072414 76.7339 3.80411 64.3097C7.53581 51.8855 13.9093 40.4148 22.4878 30.6837C31.0663 20.9525 41.6471 13.1909 53.5053 7.93055C65.3634 2.67023 78.2186 0.0355662 91.19 0.207086C104.161 0.378605 116.942 3.35225 128.657 8.92428C140.372 14.4963 150.744 22.535 159.062 32.4896C165.536 40.2372 170.647 49.0028 174.199 58.4106C175.878 62.8588 173.131 67.6086 168.543 68.8554C163.954 70.1023 159.271 67.367 157.492 62.958C154.655 55.9305 150.732 49.3723 145.85 43.53C139.123 35.4799 130.735 28.9791 121.262 24.473C111.788 19.967 101.452 17.5622 90.9623 17.4235C80.4725 17.2848 70.0766 19.4154 60.4871 23.6694C50.8975 27.9234 42.3409 34.2001 35.4036 42.0696C28.4662 49.9391 23.3121 59.2153 20.2943 69.2626C17.2765 79.3099 16.4664 89.8909 17.9195 100.281C18.9741 107.821 21.2026 115.131 24.5086 121.95C26.5828 126.228 25.4675 131.536 21.4639 134.1Z" fill="#FFAA35"/>
  <path d="M21.4639 134.1C17.4602 136.665 12.0949 135.514 9.92442 131.283C3.15342 118.087 -0.27178 103.377 0.0168376 88.4584C0.361141 70.6614 5.97513 53.3662 16.1489 38.7598C26.3226 24.1534 40.5992 12.8919 57.1733 6.39943C71.0667 0.95697 86.0515 -0.92947 100.777 0.846766C105.498 1.41614 108.437 6.04973 107.42 10.6942C106.402 15.3386 101.81 18.2245 97.0782 17.7621C85.6988 16.6502 74.1743 18.2315 63.4534 22.4312C50.0501 27.6816 38.5048 36.7887 30.2774 48.6007C22.05 60.4127 17.51 74.3992 17.2316 88.7914C17.0088 100.303 19.5207 111.662 24.5085 121.95C26.5826 126.228 25.4675 131.536 21.4639 134.1Z" fill="#02C39A"/>
  <path d="M21.4639 134.1C17.4602 136.665 12.0947 135.514 9.92413 131.283C0.424107 112.769 -2.40624 91.4375 2.08546 70.937C6.57715 50.4365 18.0674 32.243 34.4386 19.3968C38.1791 16.4617 43.5345 17.6594 46.099 21.6631C48.6636 25.6667 47.457 30.9544 43.7839 33.9734C31.2281 44.2934 22.4182 58.5848 18.9044 74.6221C15.3906 90.6593 17.4177 107.325 24.5082 121.95C26.5824 126.228 25.4675 131.536 21.4639 134.1Z" fill="#674AFF"/>
</svg>