<svg xmlns="http://www.w3.org/2000/svg" width="45" height="41" viewBox="0 0 45 41" fill="none">
  <g clip-path="url(#clip0_1207_41978)">
    <path d="M22.3538 38.6419C33.2724 38.6419 42.1237 30.6102 42.1237 20.7027C42.1237 10.7951 33.2724 2.7635 22.3538 2.7635C11.4352 2.7635 2.58398 10.7951 2.58398 20.7027C2.58398 30.6102 11.4352 38.6419 22.3538 38.6419Z" fill="white"/>
    <path d="M22.3539 0.586655C17.9692 0.586655 13.683 1.76646 10.0373 3.97689C6.39155 6.18731 3.55006 9.32907 1.87212 13.0049C0.194176 16.6807 -0.24485 20.7254 0.610557 24.6276C1.46596 28.5298 3.57738 32.1142 6.67781 34.9276C9.77824 37.7409 13.7284 39.6568 18.0289 40.433C22.3293 41.2092 26.7868 40.8108 30.8377 39.2882C34.8886 37.7657 38.351 35.1873 40.7869 31.8792C43.2229 28.5711 44.5231 24.6817 44.5231 20.7031C44.5316 18.069 43.9682 15.4593 42.8652 13.0228C41.7621 10.5863 40.141 8.37079 38.0944 6.50281C36.0477 4.63482 33.6156 3.15092 30.937 2.13582C28.2583 1.12073 25.3856 0.594319 22.4827 0.586655H22.3539ZM22.7296 21.385L20.4214 28.4477H32.7675C32.8493 28.4451 32.9309 28.4571 33.0075 28.4831C33.0841 28.5091 33.1544 28.5486 33.2142 28.5993C33.274 28.6499 33.3223 28.7108 33.3562 28.7784C33.39 28.846 33.4089 28.919 33.4117 28.9932V29.1783L32.3381 32.5392C32.2908 32.6981 32.1853 32.8377 32.039 32.9351C31.8926 33.0324 31.7142 33.0817 31.5329 33.0749H12.638L15.8051 23.2846L12.2623 24.2588L13.0675 22.0182L16.6102 21.044L21.0656 7.30837C21.1146 7.15032 21.2205 7.01172 21.3665 6.91462C21.5124 6.81752 21.6899 6.76752 21.8708 6.77258H26.6482C26.7299 6.76998 26.8115 6.78203 26.8881 6.80804C26.9648 6.83406 27.035 6.87352 27.0948 6.92419C27.1547 6.97486 27.2029 7.03573 27.2368 7.10332C27.2707 7.17091 27.2895 7.2439 27.2923 7.31811V7.5032L23.5348 19.0957L27.0776 18.1216L26.3261 20.4595L22.7296 21.385Z" fill="#345D9D"/>
  </g>
  <defs>
    <clipPath id="clip0_1207_41978">
      <rect width="44.3386" height="40.2329" fill="white" transform="translate(0.18457 0.586655)"/>
    </clipPath>
  </defs>
</svg>