<svg width="20" height="20" viewBox="0 0 20 20" fill="none" xmlns="http://www.w3.org/2000/svg">
<path fill-rule="evenodd" clip-rule="evenodd" d="M1.66663 5C1.66663 3.61929 2.78591 2.5 4.16663 2.5H15.8333C17.214 2.5 18.3333 3.61929 18.3333 5V13.3333C18.3333 14.714 17.214 15.8333 15.8333 15.8333H12.357C12.136 15.8333 11.924 15.9211 11.7677 16.0774L10.2116 17.6335C9.21096 18.6342 7.49996 17.9254 7.49996 16.5103C7.49996 16.1364 7.19688 15.8333 6.82302 15.8333H4.16663C2.78591 15.8333 1.66663 14.714 1.66663 13.3333V5ZM5.83329 4.83333C5.28101 4.83333 4.83329 5.28105 4.83329 5.83333C4.83329 6.38562 5.28101 6.83333 5.83329 6.83333H14.1666C14.7189 6.83333 15.1666 6.38562 15.1666 5.83333C15.1666 5.28105 14.7189 4.83333 14.1666 4.83333H5.83329ZM5.83329 8.16667C5.28101 8.16667 4.83329 8.61438 4.83329 9.16667C4.83329 9.71895 5.28101 10.1667 5.83329 10.1667H14.1666C14.7189 10.1667 15.1666 9.71895 15.1666 9.16667C15.1666 8.61438 14.7189 8.16667 14.1666 8.16667H5.83329ZM5.83329 11.5C5.28101 11.5 4.83329 11.9477 4.83329 12.5C4.83329 13.0523 5.28101 13.5 5.83329 13.5H9.16663C9.71891 13.5 10.1666 13.0523 10.1666 12.5C10.1666 11.9477 9.71891 11.5 9.16663 11.5H5.83329Z" fill="#2873FF"/>
</svg>
