<svg xmlns="http://www.w3.org/2000/svg" width="19" height="19" viewBox="0 0 19 19" fill="none">
  <path d="M14.8849 9.81156C14.9149 10.0896 15.1479 10.3 15.426 10.3H15.4861M14.8849 9.81156L13.0738 4.82908C14.7045 5.96386 15.7566 7.73741 15.9746 9.69883C16.0046 9.99944 15.7867 10.27 15.4861 10.3M14.8849 9.81156C14.7045 8.15825 13.8178 6.67027 12.45 5.72338L14.8849 9.81156ZM15.4861 10.3V9.75311V9.63774C15.5255 9.65749 15.5524 9.69579 15.5573 9.73821C15.3557 7.89058 14.3648 6.22733 12.8373 5.16888C12.8958 5.21011 12.9099 5.29331 12.8696 5.35109C12.8286 5.4099 12.7454 5.42429 12.6874 5.38425C12.6874 5.38419 12.6873 5.38413 12.6872 5.38407L12.6874 5.38426C14.156 6.40616 15.1033 8.00152 15.3015 9.76611C15.3015 9.76624 15.3016 9.76638 15.3016 9.76651C15.3018 9.76885 15.3021 9.77119 15.3024 9.77352L15.426 9.75979L15.432 9.75912L15.4861 10.3Z" fill="white" stroke="white" stroke-width="1.35271"/>
  <mask id="path-2-inside-1_10476_9331" fill="white">
    <path d="M2.936 10.3353C2.92097 10.3353 2.89843 10.3353 2.8834 10.3353C2.5828 10.3053 2.36486 10.0347 2.39492 9.73413C2.59783 7.7727 3.6349 5.99915 5.25064 4.85686C5.49112 4.68402 5.83681 4.74414 6.00966 4.98462C6.1825 5.23262 6.12238 5.57079 5.8819 5.74364C4.52919 6.70556 3.64993 8.19354 3.4846 9.83934C3.45454 10.1249 3.21406 10.3353 2.936 10.3353Z"/>
  </mask>
  <path d="M2.936 10.3353C2.92097 10.3353 2.89843 10.3353 2.8834 10.3353C2.5828 10.3053 2.36486 10.0347 2.39492 9.73413C2.59783 7.7727 3.6349 5.99915 5.25064 4.85686C5.49112 4.68402 5.83681 4.74414 6.00966 4.98462C6.1825 5.23262 6.12238 5.57079 5.8819 5.74364C4.52919 6.70556 3.64993 8.19354 3.4846 9.83934C3.45454 10.1249 3.21406 10.3353 2.936 10.3353Z" fill="white"/>
  <path d="M2.8834 10.3353L2.7488 11.6813L2.81593 11.688H2.8834V10.3353ZM2.39492 9.73413L1.04939 9.59493L1.04893 9.59953L2.39492 9.73413ZM5.25064 4.85686L6.03155 5.96145L6.04013 5.95528L5.25064 4.85686ZM6.00966 4.98462L7.11942 4.21115L7.11381 4.2031L7.10808 4.19513L6.00966 4.98462ZM5.8819 5.74364L6.66584 6.84605L6.67139 6.84206L5.8819 5.74364ZM3.4846 9.83934L4.82989 9.98095L4.83054 9.97455L3.4846 9.83934ZM2.936 8.98262C2.93598 8.98262 2.93595 8.98262 2.93592 8.98262C2.93589 8.98262 2.93586 8.98262 2.93583 8.98262C2.9358 8.98262 2.93577 8.98262 2.93574 8.98262C2.93571 8.98262 2.93568 8.98262 2.93565 8.98262C2.93562 8.98262 2.93559 8.98262 2.93556 8.98262C2.93553 8.98262 2.9355 8.98262 2.93547 8.98262C2.93544 8.98262 2.93541 8.98262 2.93538 8.98262C2.93535 8.98262 2.93532 8.98262 2.93529 8.98262C2.93527 8.98262 2.93524 8.98262 2.93521 8.98262C2.93518 8.98262 2.93515 8.98262 2.93512 8.98262C2.93509 8.98262 2.93506 8.98262 2.93503 8.98262C2.935 8.98262 2.93497 8.98262 2.93494 8.98262C2.93491 8.98262 2.93488 8.98262 2.93485 8.98262C2.93482 8.98262 2.93479 8.98262 2.93476 8.98262C2.93473 8.98262 2.9347 8.98262 2.93466 8.98262C2.93463 8.98262 2.9346 8.98262 2.93457 8.98262C2.93454 8.98262 2.93451 8.98262 2.93448 8.98262C2.93445 8.98262 2.93442 8.98262 2.93439 8.98262C2.93436 8.98262 2.93433 8.98262 2.9343 8.98262C2.93427 8.98262 2.93424 8.98262 2.93421 8.98262C2.93418 8.98262 2.93415 8.98262 2.93412 8.98262C2.93409 8.98262 2.93406 8.98262 2.93403 8.98262C2.934 8.98262 2.93397 8.98262 2.93394 8.98262C2.9339 8.98262 2.93387 8.98262 2.93384 8.98262C2.93381 8.98262 2.93378 8.98262 2.93375 8.98262C2.93372 8.98262 2.93369 8.98262 2.93366 8.98262C2.93363 8.98262 2.9336 8.98262 2.93357 8.98262C2.93354 8.98262 2.9335 8.98262 2.93347 8.98262C2.93344 8.98262 2.93341 8.98262 2.93338 8.98262C2.93335 8.98262 2.93332 8.98262 2.93329 8.98262C2.93326 8.98262 2.93323 8.98262 2.9332 8.98262C2.93316 8.98262 2.93313 8.98262 2.9331 8.98262C2.93307 8.98262 2.93304 8.98262 2.93301 8.98262C2.93298 8.98262 2.93295 8.98262 2.93292 8.98262C2.93288 8.98262 2.93285 8.98262 2.93282 8.98262C2.93279 8.98262 2.93276 8.98262 2.93273 8.98262C2.9327 8.98262 2.93267 8.98262 2.93263 8.98262C2.9326 8.98262 2.93257 8.98262 2.93254 8.98262C2.93251 8.98262 2.93248 8.98262 2.93245 8.98262C2.93241 8.98262 2.93238 8.98262 2.93235 8.98262C2.93232 8.98262 2.93229 8.98262 2.93226 8.98262C2.93223 8.98262 2.93219 8.98262 2.93216 8.98262C2.93213 8.98262 2.9321 8.98262 2.93207 8.98262C2.93204 8.98262 2.932 8.98262 2.93197 8.98262C2.93194 8.98262 2.93191 8.98262 2.93188 8.98262C2.93185 8.98262 2.93181 8.98262 2.93178 8.98262C2.93175 8.98262 2.93172 8.98262 2.93169 8.98262C2.93166 8.98262 2.93162 8.98262 2.93159 8.98262C2.93156 8.98262 2.93153 8.98262 2.9315 8.98262C2.93146 8.98262 2.93143 8.98262 2.9314 8.98262C2.93137 8.98262 2.93134 8.98262 2.9313 8.98262C2.93127 8.98262 2.93124 8.98262 2.93121 8.98262C2.93118 8.98262 2.93114 8.98262 2.93111 8.98262C2.93108 8.98262 2.93105 8.98262 2.93102 8.98262C2.93098 8.98262 2.93095 8.98262 2.93092 8.98262C2.93089 8.98262 2.93086 8.98262 2.93082 8.98262C2.93079 8.98262 2.93076 8.98262 2.93073 8.98262C2.93069 8.98262 2.93066 8.98262 2.93063 8.98262C2.9306 8.98262 2.93056 8.98262 2.93053 8.98262C2.9305 8.98262 2.93047 8.98262 2.93044 8.98262C2.9304 8.98262 2.93037 8.98262 2.93034 8.98262C2.93031 8.98262 2.93027 8.98262 2.93024 8.98262C2.93021 8.98262 2.93018 8.98262 2.93014 8.98262C2.93011 8.98262 2.93008 8.98262 2.93005 8.98262C2.93001 8.98262 2.92998 8.98262 2.92995 8.98262C2.92992 8.98262 2.92988 8.98262 2.92985 8.98262C2.92982 8.98262 2.92978 8.98262 2.92975 8.98262C2.92972 8.98262 2.92969 8.98262 2.92965 8.98262C2.92962 8.98262 2.92959 8.98262 2.92956 8.98262C2.92952 8.98262 2.92949 8.98262 2.92946 8.98262C2.92942 8.98262 2.92939 8.98262 2.92936 8.98262C2.92933 8.98262 2.92929 8.98262 2.92926 8.98262C2.92923 8.98262 2.92919 8.98262 2.92916 8.98262C2.92913 8.98262 2.9291 8.98262 2.92906 8.98262C2.92903 8.98262 2.929 8.98262 2.92896 8.98262C2.92893 8.98262 2.9289 8.98262 2.92886 8.98262C2.92883 8.98262 2.9288 8.98262 2.92876 8.98262C2.92873 8.98262 2.9287 8.98262 2.92867 8.98262C2.92863 8.98262 2.9286 8.98262 2.92857 8.98262C2.92853 8.98262 2.9285 8.98262 2.92847 8.98262C2.92843 8.98262 2.9284 8.98262 2.92837 8.98262C2.92833 8.98262 2.9283 8.98262 2.92827 8.98262C2.92823 8.98262 2.9282 8.98262 2.92817 8.98262C2.92813 8.98262 2.9281 8.98262 2.92807 8.98262C2.92803 8.98262 2.928 8.98262 2.92797 8.98262C2.92793 8.98262 2.9279 8.98262 2.92787 8.98262C2.92783 8.98262 2.9278 8.98262 2.92777 8.98262C2.92773 8.98262 2.9277 8.98262 2.92767 8.98262C2.92763 8.98262 2.9276 8.98262 2.92756 8.98262C2.92753 8.98262 2.9275 8.98262 2.92746 8.98262C2.92743 8.98262 2.9274 8.98262 2.92736 8.98262C2.92733 8.98262 2.9273 8.98262 2.92726 8.98262C2.92723 8.98262 2.92719 8.98262 2.92716 8.98262C2.92713 8.98262 2.92709 8.98262 2.92706 8.98262C2.92703 8.98262 2.92699 8.98262 2.92696 8.98262C2.92692 8.98262 2.92689 8.98262 2.92686 8.98262C2.92682 8.98262 2.92679 8.98262 2.92676 8.98262C2.92672 8.98262 2.92669 8.98262 2.92665 8.98262C2.92662 8.98262 2.92659 8.98262 2.92655 8.98262C2.92652 8.98262 2.92648 8.98262 2.92645 8.98262C2.92642 8.98262 2.92638 8.98262 2.92635 8.98262C2.92631 8.98262 2.92628 8.98262 2.92625 8.98262C2.92621 8.98262 2.92618 8.98262 2.92614 8.98262C2.92611 8.98262 2.92608 8.98262 2.92604 8.98262C2.92601 8.98262 2.92597 8.98262 2.92594 8.98262C2.92591 8.98262 2.92587 8.98262 2.92584 8.98262C2.9258 8.98262 2.92577 8.98262 2.92573 8.98262C2.9257 8.98262 2.92567 8.98262 2.92563 8.98262C2.9256 8.98262 2.92556 8.98262 2.92553 8.98262C2.92549 8.98262 2.92546 8.98262 2.92543 8.98262C2.92539 8.98262 2.92536 8.98262 2.92532 8.98262C2.92529 8.98262 2.92525 8.98262 2.92522 8.98262C2.92519 8.98262 2.92515 8.98262 2.92512 8.98262C2.92508 8.98262 2.92505 8.98262 2.92501 8.98262C2.92498 8.98262 2.92494 8.98262 2.92491 8.98262C2.92488 8.98262 2.92484 8.98262 2.92481 8.98262C2.92477 8.98262 2.92474 8.98262 2.9247 8.98262C2.92467 8.98262 2.92463 8.98262 2.9246 8.98262C2.92456 8.98262 2.92453 8.98262 2.9245 8.98262C2.92446 8.98262 2.92443 8.98262 2.92439 8.98262C2.92436 8.98262 2.92432 8.98262 2.92429 8.98262C2.92425 8.98262 2.92422 8.98262 2.92418 8.98262C2.92415 8.98262 2.92411 8.98262 2.92408 8.98262C2.92405 8.98262 2.92401 8.98262 2.92398 8.98262C2.92394 8.98262 2.92391 8.98262 2.92387 8.98262C2.92384 8.98262 2.9238 8.98262 2.92377 8.98262C2.92373 8.98262 2.9237 8.98262 2.92366 8.98262C2.92363 8.98262 2.92359 8.98262 2.92356 8.98262C2.92352 8.98262 2.92349 8.98262 2.92345 8.98262C2.92342 8.98262 2.92338 8.98262 2.92335 8.98262C2.92331 8.98262 2.92328 8.98262 2.92324 8.98262C2.92321 8.98262 2.92317 8.98262 2.92314 8.98262C2.9231 8.98262 2.92307 8.98262 2.92303 8.98262C2.923 8.98262 2.92296 8.98262 2.92293 8.98262C2.92289 8.98262 2.92286 8.98262 2.92282 8.98262C2.92279 8.98262 2.92275 8.98262 2.92272 8.98262C2.92268 8.98262 2.92265 8.98262 2.92261 8.98262C2.92258 8.98262 2.92254 8.98262 2.92251 8.98262C2.92247 8.98262 2.92244 8.98262 2.9224 8.98262C2.92237 8.98262 2.92233 8.98262 2.9223 8.98262C2.92226 8.98262 2.92223 8.98262 2.92219 8.98262C2.92216 8.98262 2.92212 8.98262 2.92209 8.98262C2.92205 8.98262 2.92202 8.98262 2.92198 8.98262C2.92194 8.98262 2.92191 8.98262 2.92187 8.98262C2.92184 8.98262 2.9218 8.98262 2.92177 8.98262C2.92173 8.98262 2.9217 8.98262 2.92166 8.98262C2.92163 8.98262 2.92159 8.98262 2.92156 8.98262C2.92152 8.98262 2.92149 8.98262 2.92145 8.98262C2.92141 8.98262 2.92138 8.98262 2.92134 8.98262C2.92131 8.98262 2.92127 8.98262 2.92124 8.98262C2.9212 8.98262 2.92117 8.98262 2.92113 8.98262C2.9211 8.98262 2.92106 8.98262 2.92102 8.98262C2.92099 8.98262 2.92095 8.98262 2.92092 8.98262C2.92088 8.98262 2.92085 8.98262 2.92081 8.98262C2.92078 8.98262 2.92074 8.98262 2.92071 8.98262C2.92067 8.98262 2.92063 8.98262 2.9206 8.98262C2.92056 8.98262 2.92053 8.98262 2.92049 8.98262C2.92046 8.98262 2.92042 8.98262 2.92039 8.98262C2.92035 8.98262 2.92031 8.98262 2.92028 8.98262C2.92024 8.98262 2.92021 8.98262 2.92017 8.98262C2.92014 8.98262 2.9201 8.98262 2.92006 8.98262C2.92003 8.98262 2.91999 8.98262 2.91996 8.98262C2.91992 8.98262 2.91989 8.98262 2.91985 8.98262C2.91981 8.98262 2.91978 8.98262 2.91974 8.98262C2.91971 8.98262 2.91967 8.98262 2.91964 8.98262C2.9196 8.98262 2.91956 8.98262 2.91953 8.98262C2.91949 8.98262 2.91946 8.98262 2.91942 8.98262C2.91938 8.98262 2.91935 8.98262 2.91931 8.98262C2.91928 8.98262 2.91924 8.98262 2.91921 8.98262C2.91917 8.98262 2.91913 8.98262 2.9191 8.98262C2.91906 8.98262 2.91903 8.98262 2.91899 8.98262C2.91895 8.98262 2.91892 8.98262 2.91888 8.98262C2.91885 8.98262 2.91881 8.98262 2.91878 8.98262C2.91874 8.98262 2.9187 8.98262 2.91867 8.98262C2.91863 8.98262 2.9186 8.98262 2.91856 8.98262C2.91852 8.98262 2.91849 8.98262 2.91845 8.98262C2.91842 8.98262 2.91838 8.98262 2.91834 8.98262C2.91831 8.98262 2.91827 8.98262 2.91824 8.98262C2.9182 8.98262 2.91816 8.98262 2.91813 8.98262C2.91809 8.98262 2.91806 8.98262 2.91802 8.98262C2.91798 8.98262 2.91795 8.98262 2.91791 8.98262C2.91788 8.98262 2.91784 8.98262 2.9178 8.98262C2.91777 8.98262 2.91773 8.98262 2.91769 8.98262C2.91766 8.98262 2.91762 8.98262 2.91759 8.98262C2.91755 8.98262 2.91751 8.98262 2.91748 8.98262C2.91744 8.98262 2.91741 8.98262 2.91737 8.98262C2.91733 8.98262 2.9173 8.98262 2.91726 8.98262C2.91723 8.98262 2.91719 8.98262 2.91715 8.98262C2.91712 8.98262 2.91708 8.98262 2.91704 8.98262C2.91701 8.98262 2.91697 8.98262 2.91694 8.98262C2.9169 8.98262 2.91686 8.98262 2.91683 8.98262C2.91679 8.98262 2.91675 8.98262 2.91672 8.98262C2.91668 8.98262 2.91665 8.98262 2.91661 8.98262C2.91657 8.98262 2.91654 8.98262 2.9165 8.98262C2.91646 8.98262 2.91643 8.98262 2.91639 8.98262C2.91636 8.98262 2.91632 8.98262 2.91628 8.98262C2.91625 8.98262 2.91621 8.98262 2.91617 8.98262C2.91614 8.98262 2.9161 8.98262 2.91607 8.98262C2.91603 8.98262 2.91599 8.98262 2.91596 8.98262C2.91592 8.98262 2.91588 8.98262 2.91585 8.98262C2.91581 8.98262 2.91577 8.98262 2.91574 8.98262C2.9157 8.98262 2.91567 8.98262 2.91563 8.98262C2.91559 8.98262 2.91556 8.98262 2.91552 8.98262C2.91548 8.98262 2.91545 8.98262 2.91541 8.98262C2.91537 8.98262 2.91534 8.98262 2.9153 8.98262C2.91527 8.98262 2.91523 8.98262 2.91519 8.98262C2.91516 8.98262 2.91512 8.98262 2.91508 8.98262C2.91505 8.98262 2.91501 8.98262 2.91497 8.98262C2.91494 8.98262 2.9149 8.98262 2.91486 8.98262C2.91483 8.98262 2.91479 8.98262 2.91476 8.98262C2.91472 8.98262 2.91468 8.98262 2.91465 8.98262C2.91461 8.98262 2.91457 8.98262 2.91454 8.98262C2.9145 8.98262 2.91446 8.98262 2.91443 8.98262C2.91439 8.98262 2.91435 8.98262 2.91432 8.98262C2.91428 8.98262 2.91424 8.98262 2.91421 8.98262C2.91417 8.98262 2.91413 8.98262 2.9141 8.98262C2.91406 8.98262 2.91403 8.98262 2.91399 8.98262C2.91395 8.98262 2.91392 8.98262 2.91388 8.98262C2.91384 8.98262 2.91381 8.98262 2.91377 8.98262C2.91373 8.98262 2.9137 8.98262 2.91366 8.98262C2.91362 8.98262 2.91359 8.98262 2.91355 8.98262C2.91351 8.98262 2.91348 8.98262 2.91344 8.98262C2.9134 8.98262 2.91337 8.98262 2.91333 8.98262C2.91329 8.98262 2.91326 8.98262 2.91322 8.98262C2.91318 8.98262 2.91315 8.98262 2.91311 8.98262C2.91307 8.98262 2.91304 8.98262 2.913 8.98262C2.91297 8.98262 2.91293 8.98262 2.91289 8.98262C2.91286 8.98262 2.91282 8.98262 2.91278 8.98262C2.91275 8.98262 2.91271 8.98262 2.91267 8.98262C2.91264 8.98262 2.9126 8.98262 2.91256 8.98262C2.91253 8.98262 2.91249 8.98262 2.91245 8.98262C2.91242 8.98262 2.91238 8.98262 2.91234 8.98262C2.91231 8.98262 2.91227 8.98262 2.91223 8.98262C2.9122 8.98262 2.91216 8.98262 2.91212 8.98262C2.91209 8.98262 2.91205 8.98262 2.91201 8.98262C2.91198 8.98262 2.91194 8.98262 2.9119 8.98262C2.91187 8.98262 2.91183 8.98262 2.91179 8.98262C2.91176 8.98262 2.91172 8.98262 2.91168 8.98262C2.91165 8.98262 2.91161 8.98262 2.91157 8.98262C2.91154 8.98262 2.9115 8.98262 2.91146 8.98262C2.91143 8.98262 2.91139 8.98262 2.91135 8.98262C2.91132 8.98262 2.91128 8.98262 2.91124 8.98262C2.91121 8.98262 2.91117 8.98262 2.91113 8.98262C2.9111 8.98262 2.91106 8.98262 2.91102 8.98262C2.91099 8.98262 2.91095 8.98262 2.91091 8.98262C2.91088 8.98262 2.91084 8.98262 2.9108 8.98262C2.91077 8.98262 2.91073 8.98262 2.91069 8.98262C2.91066 8.98262 2.91062 8.98262 2.91058 8.98262C2.91055 8.98262 2.91051 8.98262 2.91047 8.98262C2.91044 8.98262 2.9104 8.98262 2.91036 8.98262C2.91033 8.98262 2.91029 8.98262 2.91025 8.98262C2.91022 8.98262 2.91018 8.98262 2.91014 8.98262C2.91011 8.98262 2.91007 8.98262 2.91003 8.98262C2.91 8.98262 2.90996 8.98262 2.90992 8.98262C2.90989 8.98262 2.90985 8.98262 2.90981 8.98262C2.90978 8.98262 2.90974 8.98262 2.9097 8.98262C2.90967 8.98262 2.90963 8.98262 2.90959 8.98262C2.90956 8.98262 2.90952 8.98262 2.90948 8.98262C2.90945 8.98262 2.90941 8.98262 2.90937 8.98262C2.90934 8.98262 2.9093 8.98262 2.90926 8.98262C2.90923 8.98262 2.90919 8.98262 2.90915 8.98262C2.90912 8.98262 2.90908 8.98262 2.90904 8.98262C2.90901 8.98262 2.90897 8.98262 2.90893 8.98262C2.90889 8.98262 2.90886 8.98262 2.90882 8.98262C2.90878 8.98262 2.90875 8.98262 2.90871 8.98262C2.90867 8.98262 2.90864 8.98262 2.9086 8.98262C2.90856 8.98262 2.90853 8.98262 2.90849 8.98262C2.90845 8.98262 2.90842 8.98262 2.90838 8.98262C2.90834 8.98262 2.90831 8.98262 2.90827 8.98262C2.90823 8.98262 2.9082 8.98262 2.90816 8.98262C2.90812 8.98262 2.90809 8.98262 2.90805 8.98262C2.90801 8.98262 2.90798 8.98262 2.90794 8.98262C2.9079 8.98262 2.90787 8.98262 2.90783 8.98262C2.90779 8.98262 2.90776 8.98262 2.90772 8.98262C2.90768 8.98262 2.90765 8.98262 2.90761 8.98262C2.90757 8.98262 2.90754 8.98262 2.9075 8.98262C2.90746 8.98262 2.90743 8.98262 2.90739 8.98262C2.90735 8.98262 2.90732 8.98262 2.90728 8.98262C2.90724 8.98262 2.90721 8.98262 2.90717 8.98262C2.90714 8.98262 2.9071 8.98262 2.90706 8.98262C2.90703 8.98262 2.90699 8.98262 2.90695 8.98262C2.90692 8.98262 2.90688 8.98262 2.90684 8.98262C2.90681 8.98262 2.90677 8.98262 2.90673 8.98262C2.9067 8.98262 2.90666 8.98262 2.90662 8.98262C2.90659 8.98262 2.90655 8.98262 2.90651 8.98262C2.90648 8.98262 2.90644 8.98262 2.9064 8.98262C2.90637 8.98262 2.90633 8.98262 2.90629 8.98262C2.90626 8.98262 2.90622 8.98262 2.90618 8.98262C2.90615 8.98262 2.90611 8.98262 2.90607 8.98262C2.90604 8.98262 2.906 8.98262 2.90596 8.98262C2.90593 8.98262 2.90589 8.98262 2.90585 8.98262C2.90582 8.98262 2.90578 8.98262 2.90574 8.98262C2.90571 8.98262 2.90567 8.98262 2.90563 8.98262C2.9056 8.98262 2.90556 8.98262 2.90553 8.98262C2.90549 8.98262 2.90545 8.98262 2.90542 8.98262C2.90538 8.98262 2.90534 8.98262 2.90531 8.98262C2.90527 8.98262 2.90523 8.98262 2.9052 8.98262C2.90516 8.98262 2.90512 8.98262 2.90509 8.98262C2.90505 8.98262 2.90501 8.98262 2.90498 8.98262C2.90494 8.98262 2.9049 8.98262 2.90487 8.98262C2.90483 8.98262 2.9048 8.98262 2.90476 8.98262C2.90472 8.98262 2.90469 8.98262 2.90465 8.98262C2.90461 8.98262 2.90458 8.98262 2.90454 8.98262C2.9045 8.98262 2.90447 8.98262 2.90443 8.98262C2.90439 8.98262 2.90436 8.98262 2.90432 8.98262C2.90428 8.98262 2.90425 8.98262 2.90421 8.98262C2.90418 8.98262 2.90414 8.98262 2.9041 8.98262C2.90407 8.98262 2.90403 8.98262 2.90399 8.98262C2.90396 8.98262 2.90392 8.98262 2.90388 8.98262C2.90385 8.98262 2.90381 8.98262 2.90378 8.98262C2.90374 8.98262 2.9037 8.98262 2.90367 8.98262C2.90363 8.98262 2.90359 8.98262 2.90356 8.98262C2.90352 8.98262 2.90348 8.98262 2.90345 8.98262C2.90341 8.98262 2.90338 8.98262 2.90334 8.98262C2.9033 8.98262 2.90327 8.98262 2.90323 8.98262C2.90319 8.98262 2.90316 8.98262 2.90312 8.98262C2.90309 8.98262 2.90305 8.98262 2.90301 8.98262C2.90298 8.98262 2.90294 8.98262 2.9029 8.98262C2.90287 8.98262 2.90283 8.98262 2.90279 8.98262C2.90276 8.98262 2.90272 8.98262 2.90269 8.98262C2.90265 8.98262 2.90261 8.98262 2.90258 8.98262C2.90254 8.98262 2.90251 8.98262 2.90247 8.98262C2.90243 8.98262 2.9024 8.98262 2.90236 8.98262C2.90232 8.98262 2.90229 8.98262 2.90225 8.98262C2.90222 8.98262 2.90218 8.98262 2.90214 8.98262C2.90211 8.98262 2.90207 8.98262 2.90203 8.98262C2.902 8.98262 2.90196 8.98262 2.90193 8.98262C2.90189 8.98262 2.90185 8.98262 2.90182 8.98262C2.90178 8.98262 2.90175 8.98262 2.90171 8.98262C2.90167 8.98262 2.90164 8.98262 2.9016 8.98262C2.90157 8.98262 2.90153 8.98262 2.90149 8.98262C2.90146 8.98262 2.90142 8.98262 2.90139 8.98262C2.90135 8.98262 2.90131 8.98262 2.90128 8.98262C2.90124 8.98262 2.9012 8.98262 2.90117 8.98262C2.90113 8.98262 2.9011 8.98262 2.90106 8.98262C2.90102 8.98262 2.90099 8.98262 2.90095 8.98262C2.90092 8.98262 2.90088 8.98262 2.90084 8.98262C2.90081 8.98262 2.90077 8.98262 2.90074 8.98262C2.9007 8.98262 2.90067 8.98262 2.90063 8.98262C2.90059 8.98262 2.90056 8.98262 2.90052 8.98262C2.90049 8.98262 2.90045 8.98262 2.90041 8.98262C2.90038 8.98262 2.90034 8.98262 2.90031 8.98262C2.90027 8.98262 2.90023 8.98262 2.9002 8.98262C2.90016 8.98262 2.90013 8.98262 2.90009 8.98262C2.90006 8.98262 2.90002 8.98262 2.89998 8.98262C2.89995 8.98262 2.89991 8.98262 2.89988 8.98262C2.89984 8.98262 2.8998 8.98262 2.89977 8.98262C2.89973 8.98262 2.8997 8.98262 2.89966 8.98262C2.89963 8.98262 2.89959 8.98262 2.89955 8.98262C2.89952 8.98262 2.89948 8.98262 2.89945 8.98262C2.89941 8.98262 2.89938 8.98262 2.89934 8.98262C2.8993 8.98262 2.89927 8.98262 2.89923 8.98262C2.8992 8.98262 2.89916 8.98262 2.89913 8.98262C2.89909 8.98262 2.89906 8.98262 2.89902 8.98262C2.89898 8.98262 2.89895 8.98262 2.89891 8.98262C2.89888 8.98262 2.89884 8.98262 2.89881 8.98262C2.89877 8.98262 2.89873 8.98262 2.8987 8.98262C2.89866 8.98262 2.89863 8.98262 2.89859 8.98262C2.89856 8.98262 2.89852 8.98262 2.89849 8.98262C2.89845 8.98262 2.89841 8.98262 2.89838 8.98262C2.89834 8.98262 2.89831 8.98262 2.89827 8.98262C2.89824 8.98262 2.8982 8.98262 2.89817 8.98262C2.89813 8.98262 2.8981 8.98262 2.89806 8.98262C2.89803 8.98262 2.89799 8.98262 2.89795 8.98262C2.89792 8.98262 2.89788 8.98262 2.89785 8.98262C2.89781 8.98262 2.89778 8.98262 2.89774 8.98262C2.89771 8.98262 2.89767 8.98262 2.89764 8.98262C2.8976 8.98262 2.89757 8.98262 2.89753 8.98262C2.89749 8.98262 2.89746 8.98262 2.89742 8.98262C2.89739 8.98262 2.89735 8.98262 2.89732 8.98262C2.89728 8.98262 2.89725 8.98262 2.89721 8.98262C2.89718 8.98262 2.89714 8.98262 2.89711 8.98262C2.89707 8.98262 2.89704 8.98262 2.897 8.98262C2.89697 8.98262 2.89693 8.98262 2.8969 8.98262C2.89686 8.98262 2.89683 8.98262 2.89679 8.98262C2.89676 8.98262 2.89672 8.98262 2.89669 8.98262C2.89665 8.98262 2.89662 8.98262 2.89658 8.98262C2.89655 8.98262 2.89651 8.98262 2.89648 8.98262C2.89644 8.98262 2.89641 8.98262 2.89637 8.98262C2.89634 8.98262 2.8963 8.98262 2.89627 8.98262C2.89623 8.98262 2.8962 8.98262 2.89616 8.98262C2.89613 8.98262 2.89609 8.98262 2.89606 8.98262C2.89602 8.98262 2.89599 8.98262 2.89595 8.98262C2.89592 8.98262 2.89588 8.98262 2.89585 8.98262C2.89581 8.98262 2.89578 8.98262 2.89574 8.98262C2.89571 8.98262 2.89567 8.98262 2.89564 8.98262C2.8956 8.98262 2.89557 8.98262 2.89553 8.98262C2.8955 8.98262 2.89546 8.98262 2.89543 8.98262C2.89539 8.98262 2.89536 8.98262 2.89532 8.98262C2.89529 8.98262 2.89526 8.98262 2.89522 8.98262C2.89519 8.98262 2.89515 8.98262 2.89512 8.98262C2.89508 8.98262 2.89505 8.98262 2.89501 8.98262C2.89498 8.98262 2.89494 8.98262 2.89491 8.98262C2.89487 8.98262 2.89484 8.98262 2.8948 8.98262C2.89477 8.98262 2.89474 8.98262 2.8947 8.98262C2.89467 8.98262 2.89463 8.98262 2.8946 8.98262C2.89456 8.98262 2.89453 8.98262 2.89449 8.98262C2.89446 8.98262 2.89443 8.98262 2.89439 8.98262C2.89436 8.98262 2.89432 8.98262 2.89429 8.98262C2.89425 8.98262 2.89422 8.98262 2.89418 8.98262C2.89415 8.98262 2.89412 8.98262 2.89408 8.98262C2.89405 8.98262 2.89401 8.98262 2.89398 8.98262C2.89394 8.98262 2.89391 8.98262 2.89388 8.98262C2.89384 8.98262 2.89381 8.98262 2.89377 8.98262C2.89374 8.98262 2.8937 8.98262 2.89367 8.98262C2.89364 8.98262 2.8936 8.98262 2.89357 8.98262C2.89353 8.98262 2.8935 8.98262 2.89347 8.98262C2.89343 8.98262 2.8934 8.98262 2.89336 8.98262C2.89333 8.98262 2.89329 8.98262 2.89326 8.98262C2.89323 8.98262 2.89319 8.98262 2.89316 8.98262C2.89312 8.98262 2.89309 8.98262 2.89306 8.98262C2.89302 8.98262 2.89299 8.98262 2.89295 8.98262C2.89292 8.98262 2.89289 8.98262 2.89285 8.98262C2.89282 8.98262 2.89278 8.98262 2.89275 8.98262C2.89272 8.98262 2.89268 8.98262 2.89265 8.98262C2.89262 8.98262 2.89258 8.98262 2.89255 8.98262C2.89251 8.98262 2.89248 8.98262 2.89245 8.98262C2.89241 8.98262 2.89238 8.98262 2.89234 8.98262C2.89231 8.98262 2.89228 8.98262 2.89224 8.98262C2.89221 8.98262 2.89218 8.98262 2.89214 8.98262C2.89211 8.98262 2.89208 8.98262 2.89204 8.98262C2.89201 8.98262 2.89197 8.98262 2.89194 8.98262C2.89191 8.98262 2.89187 8.98262 2.89184 8.98262C2.89181 8.98262 2.89177 8.98262 2.89174 8.98262C2.89171 8.98262 2.89167 8.98262 2.89164 8.98262C2.89161 8.98262 2.89157 8.98262 2.89154 8.98262C2.8915 8.98262 2.89147 8.98262 2.89144 8.98262C2.8914 8.98262 2.89137 8.98262 2.89134 8.98262C2.8913 8.98262 2.89127 8.98262 2.89124 8.98262C2.8912 8.98262 2.89117 8.98262 2.89114 8.98262C2.8911 8.98262 2.89107 8.98262 2.89104 8.98262C2.891 8.98262 2.89097 8.98262 2.89094 8.98262C2.8909 8.98262 2.89087 8.98262 2.89084 8.98262C2.89081 8.98262 2.89077 8.98262 2.89074 8.98262C2.89071 8.98262 2.89067 8.98262 2.89064 8.98262C2.89061 8.98262 2.89057 8.98262 2.89054 8.98262C2.89051 8.98262 2.89047 8.98262 2.89044 8.98262C2.89041 8.98262 2.89038 8.98262 2.89034 8.98262C2.89031 8.98262 2.89028 8.98262 2.89024 8.98262C2.89021 8.98262 2.89018 8.98262 2.89014 8.98262C2.89011 8.98262 2.89008 8.98262 2.89005 8.98262C2.89001 8.98262 2.88998 8.98262 2.88995 8.98262C2.88991 8.98262 2.88988 8.98262 2.88985 8.98262C2.88982 8.98262 2.88978 8.98262 2.88975 8.98262C2.88972 8.98262 2.88969 8.98262 2.88965 8.98262C2.88962 8.98262 2.88959 8.98262 2.88955 8.98262C2.88952 8.98262 2.88949 8.98262 2.88946 8.98262C2.88942 8.98262 2.88939 8.98262 2.88936 8.98262C2.88933 8.98262 2.88929 8.98262 2.88926 8.98262C2.88923 8.98262 2.8892 8.98262 2.88916 8.98262C2.88913 8.98262 2.8891 8.98262 2.88907 8.98262C2.88903 8.98262 2.889 8.98262 2.88897 8.98262C2.88894 8.98262 2.8889 8.98262 2.88887 8.98262C2.88884 8.98262 2.88881 8.98262 2.88877 8.98262C2.88874 8.98262 2.88871 8.98262 2.88868 8.98262C2.88865 8.98262 2.88861 8.98262 2.88858 8.98262C2.88855 8.98262 2.88852 8.98262 2.88848 8.98262C2.88845 8.98262 2.88842 8.98262 2.88839 8.98262C2.88836 8.98262 2.88832 8.98262 2.88829 8.98262C2.88826 8.98262 2.88823 8.98262 2.8882 8.98262C2.88816 8.98262 2.88813 8.98262 2.8881 8.98262C2.88807 8.98262 2.88804 8.98262 2.888 8.98262C2.88797 8.98262 2.88794 8.98262 2.88791 8.98262C2.88788 8.98262 2.88784 8.98262 2.88781 8.98262C2.88778 8.98262 2.88775 8.98262 2.88772 8.98262C2.88769 8.98262 2.88765 8.98262 2.88762 8.98262C2.88759 8.98262 2.88756 8.98262 2.88753 8.98262C2.88749 8.98262 2.88746 8.98262 2.88743 8.98262C2.8874 8.98262 2.88737 8.98262 2.88734 8.98262C2.8873 8.98262 2.88727 8.98262 2.88724 8.98262C2.88721 8.98262 2.88718 8.98262 2.88715 8.98262C2.88712 8.98262 2.88708 8.98262 2.88705 8.98262C2.88702 8.98262 2.88699 8.98262 2.88696 8.98262C2.88693 8.98262 2.8869 8.98262 2.88686 8.98262C2.88683 8.98262 2.8868 8.98262 2.88677 8.98262C2.88674 8.98262 2.88671 8.98262 2.88668 8.98262C2.88664 8.98262 2.88661 8.98262 2.88658 8.98262C2.88655 8.98262 2.88652 8.98262 2.88649 8.98262C2.88646 8.98262 2.88643 8.98262 2.8864 8.98262C2.88636 8.98262 2.88633 8.98262 2.8863 8.98262C2.88627 8.98262 2.88624 8.98262 2.88621 8.98262C2.88618 8.98262 2.88615 8.98262 2.88612 8.98262C2.88609 8.98262 2.88605 8.98262 2.88602 8.98262C2.88599 8.98262 2.88596 8.98262 2.88593 8.98262C2.8859 8.98262 2.88587 8.98262 2.88584 8.98262C2.88581 8.98262 2.88578 8.98262 2.88575 8.98262C2.88571 8.98262 2.88568 8.98262 2.88565 8.98262C2.88562 8.98262 2.88559 8.98262 2.88556 8.98262C2.88553 8.98262 2.8855 8.98262 2.88547 8.98262C2.88544 8.98262 2.88541 8.98262 2.88538 8.98262C2.88535 8.98262 2.88532 8.98262 2.88529 8.98262C2.88526 8.98262 2.88522 8.98262 2.88519 8.98262C2.88516 8.98262 2.88513 8.98262 2.8851 8.98262C2.88507 8.98262 2.88504 8.98262 2.88501 8.98262C2.88498 8.98262 2.88495 8.98262 2.88492 8.98262C2.88489 8.98262 2.88486 8.98262 2.88483 8.98262C2.8848 8.98262 2.88477 8.98262 2.88474 8.98262C2.88471 8.98262 2.88468 8.98262 2.88465 8.98262C2.88462 8.98262 2.88459 8.98262 2.88456 8.98262C2.88453 8.98262 2.8845 8.98262 2.88447 8.98262C2.88444 8.98262 2.88441 8.98262 2.88438 8.98262C2.88435 8.98262 2.88432 8.98262 2.88429 8.98262C2.88426 8.98262 2.88423 8.98262 2.8842 8.98262C2.88417 8.98262 2.88414 8.98262 2.88411 8.98262C2.88408 8.98262 2.88405 8.98262 2.88402 8.98262C2.88399 8.98262 2.88396 8.98262 2.88393 8.98262C2.8839 8.98262 2.88387 8.98262 2.88384 8.98262C2.88381 8.98262 2.88378 8.98262 2.88375 8.98262C2.88372 8.98262 2.88369 8.98262 2.88366 8.98262C2.88364 8.98262 2.88361 8.98262 2.88358 8.98262C2.88355 8.98262 2.88352 8.98262 2.88349 8.98262C2.88346 8.98262 2.88343 8.98262 2.8834 8.98262V11.688C2.88343 11.688 2.88346 11.688 2.88349 11.688C2.88352 11.688 2.88355 11.688 2.88358 11.688C2.88361 11.688 2.88364 11.688 2.88366 11.688C2.88369 11.688 2.88372 11.688 2.88375 11.688C2.88378 11.688 2.88381 11.688 2.88384 11.688C2.88387 11.688 2.8839 11.688 2.88393 11.688C2.88396 11.688 2.88399 11.688 2.88402 11.688C2.88405 11.688 2.88408 11.688 2.88411 11.688C2.88414 11.688 2.88417 11.688 2.8842 11.688C2.88423 11.688 2.88426 11.688 2.88429 11.688C2.88432 11.688 2.88435 11.688 2.88438 11.688C2.88441 11.688 2.88444 11.688 2.88447 11.688C2.8845 11.688 2.88453 11.688 2.88456 11.688C2.88459 11.688 2.88462 11.688 2.88465 11.688C2.88468 11.688 2.88471 11.688 2.88474 11.688C2.88477 11.688 2.8848 11.688 2.88483 11.688C2.88486 11.688 2.88489 11.688 2.88492 11.688C2.88495 11.688 2.88498 11.688 2.88501 11.688C2.88504 11.688 2.88507 11.688 2.8851 11.688C2.88513 11.688 2.88516 11.688 2.88519 11.688C2.88522 11.688 2.88526 11.688 2.88529 11.688C2.88532 11.688 2.88535 11.688 2.88538 11.688C2.88541 11.688 2.88544 11.688 2.88547 11.688C2.8855 11.688 2.88553 11.688 2.88556 11.688C2.88559 11.688 2.88562 11.688 2.88565 11.688C2.88568 11.688 2.88571 11.688 2.88575 11.688C2.88578 11.688 2.88581 11.688 2.88584 11.688C2.88587 11.688 2.8859 11.688 2.88593 11.688C2.88596 11.688 2.88599 11.688 2.88602 11.688C2.88605 11.688 2.88609 11.688 2.88612 11.688C2.88615 11.688 2.88618 11.688 2.88621 11.688C2.88624 11.688 2.88627 11.688 2.8863 11.688C2.88633 11.688 2.88636 11.688 2.8864 11.688C2.88643 11.688 2.88646 11.688 2.88649 11.688C2.88652 11.688 2.88655 11.688 2.88658 11.688C2.88661 11.688 2.88664 11.688 2.88668 11.688C2.88671 11.688 2.88674 11.688 2.88677 11.688C2.8868 11.688 2.88683 11.688 2.88686 11.688C2.8869 11.688 2.88693 11.688 2.88696 11.688C2.88699 11.688 2.88702 11.688 2.88705 11.688C2.88708 11.688 2.88712 11.688 2.88715 11.688C2.88718 11.688 2.88721 11.688 2.88724 11.688C2.88727 11.688 2.8873 11.688 2.88734 11.688C2.88737 11.688 2.8874 11.688 2.88743 11.688C2.88746 11.688 2.88749 11.688 2.88753 11.688C2.88756 11.688 2.88759 11.688 2.88762 11.688C2.88765 11.688 2.88769 11.688 2.88772 11.688C2.88775 11.688 2.88778 11.688 2.88781 11.688C2.88784 11.688 2.88788 11.688 2.88791 11.688C2.88794 11.688 2.88797 11.688 2.888 11.688C2.88804 11.688 2.88807 11.688 2.8881 11.688C2.88813 11.688 2.88816 11.688 2.8882 11.688C2.88823 11.688 2.88826 11.688 2.88829 11.688C2.88832 11.688 2.88836 11.688 2.88839 11.688C2.88842 11.688 2.88845 11.688 2.88848 11.688C2.88852 11.688 2.88855 11.688 2.88858 11.688C2.88861 11.688 2.88865 11.688 2.88868 11.688C2.88871 11.688 2.88874 11.688 2.88877 11.688C2.88881 11.688 2.88884 11.688 2.88887 11.688C2.8889 11.688 2.88894 11.688 2.88897 11.688C2.889 11.688 2.88903 11.688 2.88907 11.688C2.8891 11.688 2.88913 11.688 2.88916 11.688C2.8892 11.688 2.88923 11.688 2.88926 11.688C2.88929 11.688 2.88933 11.688 2.88936 11.688C2.88939 11.688 2.88942 11.688 2.88946 11.688C2.88949 11.688 2.88952 11.688 2.88955 11.688C2.88959 11.688 2.88962 11.688 2.88965 11.688C2.88969 11.688 2.88972 11.688 2.88975 11.688C2.88978 11.688 2.88982 11.688 2.88985 11.688C2.88988 11.688 2.88991 11.688 2.88995 11.688C2.88998 11.688 2.89001 11.688 2.89005 11.688C2.89008 11.688 2.89011 11.688 2.89014 11.688C2.89018 11.688 2.89021 11.688 2.89024 11.688C2.89028 11.688 2.89031 11.688 2.89034 11.688C2.89038 11.688 2.89041 11.688 2.89044 11.688C2.89047 11.688 2.89051 11.688 2.89054 11.688C2.89057 11.688 2.89061 11.688 2.89064 11.688C2.89067 11.688 2.89071 11.688 2.89074 11.688C2.89077 11.688 2.89081 11.688 2.89084 11.688C2.89087 11.688 2.8909 11.688 2.89094 11.688C2.89097 11.688 2.891 11.688 2.89104 11.688C2.89107 11.688 2.8911 11.688 2.89114 11.688C2.89117 11.688 2.8912 11.688 2.89124 11.688C2.89127 11.688 2.8913 11.688 2.89134 11.688C2.89137 11.688 2.8914 11.688 2.89144 11.688C2.89147 11.688 2.8915 11.688 2.89154 11.688C2.89157 11.688 2.89161 11.688 2.89164 11.688C2.89167 11.688 2.89171 11.688 2.89174 11.688C2.89177 11.688 2.89181 11.688 2.89184 11.688C2.89187 11.688 2.89191 11.688 2.89194 11.688C2.89197 11.688 2.89201 11.688 2.89204 11.688C2.89208 11.688 2.89211 11.688 2.89214 11.688C2.89218 11.688 2.89221 11.688 2.89224 11.688C2.89228 11.688 2.89231 11.688 2.89234 11.688C2.89238 11.688 2.89241 11.688 2.89245 11.688C2.89248 11.688 2.89251 11.688 2.89255 11.688C2.89258 11.688 2.89262 11.688 2.89265 11.688C2.89268 11.688 2.89272 11.688 2.89275 11.688C2.89278 11.688 2.89282 11.688 2.89285 11.688C2.89289 11.688 2.89292 11.688 2.89295 11.688C2.89299 11.688 2.89302 11.688 2.89306 11.688C2.89309 11.688 2.89312 11.688 2.89316 11.688C2.89319 11.688 2.89323 11.688 2.89326 11.688C2.89329 11.688 2.89333 11.688 2.89336 11.688C2.8934 11.688 2.89343 11.688 2.89347 11.688C2.8935 11.688 2.89353 11.688 2.89357 11.688C2.8936 11.688 2.89364 11.688 2.89367 11.688C2.8937 11.688 2.89374 11.688 2.89377 11.688C2.89381 11.688 2.89384 11.688 2.89388 11.688C2.89391 11.688 2.89394 11.688 2.89398 11.688C2.89401 11.688 2.89405 11.688 2.89408 11.688C2.89412 11.688 2.89415 11.688 2.89418 11.688C2.89422 11.688 2.89425 11.688 2.89429 11.688C2.89432 11.688 2.89436 11.688 2.89439 11.688C2.89443 11.688 2.89446 11.688 2.89449 11.688C2.89453 11.688 2.89456 11.688 2.8946 11.688C2.89463 11.688 2.89467 11.688 2.8947 11.688C2.89474 11.688 2.89477 11.688 2.8948 11.688C2.89484 11.688 2.89487 11.688 2.89491 11.688C2.89494 11.688 2.89498 11.688 2.89501 11.688C2.89505 11.688 2.89508 11.688 2.89512 11.688C2.89515 11.688 2.89519 11.688 2.89522 11.688C2.89526 11.688 2.89529 11.688 2.89532 11.688C2.89536 11.688 2.89539 11.688 2.89543 11.688C2.89546 11.688 2.8955 11.688 2.89553 11.688C2.89557 11.688 2.8956 11.688 2.89564 11.688C2.89567 11.688 2.89571 11.688 2.89574 11.688C2.89578 11.688 2.89581 11.688 2.89585 11.688C2.89588 11.688 2.89592 11.688 2.89595 11.688C2.89599 11.688 2.89602 11.688 2.89606 11.688C2.89609 11.688 2.89613 11.688 2.89616 11.688C2.8962 11.688 2.89623 11.688 2.89627 11.688C2.8963 11.688 2.89634 11.688 2.89637 11.688C2.89641 11.688 2.89644 11.688 2.89648 11.688C2.89651 11.688 2.89655 11.688 2.89658 11.688C2.89662 11.688 2.89665 11.688 2.89669 11.688C2.89672 11.688 2.89676 11.688 2.89679 11.688C2.89683 11.688 2.89686 11.688 2.8969 11.688C2.89693 11.688 2.89697 11.688 2.897 11.688C2.89704 11.688 2.89707 11.688 2.89711 11.688C2.89714 11.688 2.89718 11.688 2.89721 11.688C2.89725 11.688 2.89728 11.688 2.89732 11.688C2.89735 11.688 2.89739 11.688 2.89742 11.688C2.89746 11.688 2.89749 11.688 2.89753 11.688C2.89757 11.688 2.8976 11.688 2.89764 11.688C2.89767 11.688 2.89771 11.688 2.89774 11.688C2.89778 11.688 2.89781 11.688 2.89785 11.688C2.89788 11.688 2.89792 11.688 2.89795 11.688C2.89799 11.688 2.89803 11.688 2.89806 11.688C2.8981 11.688 2.89813 11.688 2.89817 11.688C2.8982 11.688 2.89824 11.688 2.89827 11.688C2.89831 11.688 2.89834 11.688 2.89838 11.688C2.89841 11.688 2.89845 11.688 2.89849 11.688C2.89852 11.688 2.89856 11.688 2.89859 11.688C2.89863 11.688 2.89866 11.688 2.8987 11.688C2.89873 11.688 2.89877 11.688 2.89881 11.688C2.89884 11.688 2.89888 11.688 2.89891 11.688C2.89895 11.688 2.89898 11.688 2.89902 11.688C2.89906 11.688 2.89909 11.688 2.89913 11.688C2.89916 11.688 2.8992 11.688 2.89923 11.688C2.89927 11.688 2.8993 11.688 2.89934 11.688C2.89938 11.688 2.89941 11.688 2.89945 11.688C2.89948 11.688 2.89952 11.688 2.89955 11.688C2.89959 11.688 2.89963 11.688 2.89966 11.688C2.8997 11.688 2.89973 11.688 2.89977 11.688C2.8998 11.688 2.89984 11.688 2.89988 11.688C2.89991 11.688 2.89995 11.688 2.89998 11.688C2.90002 11.688 2.90006 11.688 2.90009 11.688C2.90013 11.688 2.90016 11.688 2.9002 11.688C2.90023 11.688 2.90027 11.688 2.90031 11.688C2.90034 11.688 2.90038 11.688 2.90041 11.688C2.90045 11.688 2.90049 11.688 2.90052 11.688C2.90056 11.688 2.90059 11.688 2.90063 11.688C2.90067 11.688 2.9007 11.688 2.90074 11.688C2.90077 11.688 2.90081 11.688 2.90084 11.688C2.90088 11.688 2.90092 11.688 2.90095 11.688C2.90099 11.688 2.90102 11.688 2.90106 11.688C2.9011 11.688 2.90113 11.688 2.90117 11.688C2.9012 11.688 2.90124 11.688 2.90128 11.688C2.90131 11.688 2.90135 11.688 2.90139 11.688C2.90142 11.688 2.90146 11.688 2.90149 11.688C2.90153 11.688 2.90157 11.688 2.9016 11.688C2.90164 11.688 2.90167 11.688 2.90171 11.688C2.90175 11.688 2.90178 11.688 2.90182 11.688C2.90185 11.688 2.90189 11.688 2.90193 11.688C2.90196 11.688 2.902 11.688 2.90203 11.688C2.90207 11.688 2.90211 11.688 2.90214 11.688C2.90218 11.688 2.90222 11.688 2.90225 11.688C2.90229 11.688 2.90232 11.688 2.90236 11.688C2.9024 11.688 2.90243 11.688 2.90247 11.688C2.90251 11.688 2.90254 11.688 2.90258 11.688C2.90261 11.688 2.90265 11.688 2.90269 11.688C2.90272 11.688 2.90276 11.688 2.90279 11.688C2.90283 11.688 2.90287 11.688 2.9029 11.688C2.90294 11.688 2.90298 11.688 2.90301 11.688C2.90305 11.688 2.90309 11.688 2.90312 11.688C2.90316 11.688 2.90319 11.688 2.90323 11.688C2.90327 11.688 2.9033 11.688 2.90334 11.688C2.90338 11.688 2.90341 11.688 2.90345 11.688C2.90348 11.688 2.90352 11.688 2.90356 11.688C2.90359 11.688 2.90363 11.688 2.90367 11.688C2.9037 11.688 2.90374 11.688 2.90378 11.688C2.90381 11.688 2.90385 11.688 2.90388 11.688C2.90392 11.688 2.90396 11.688 2.90399 11.688C2.90403 11.688 2.90407 11.688 2.9041 11.688C2.90414 11.688 2.90418 11.688 2.90421 11.688C2.90425 11.688 2.90428 11.688 2.90432 11.688C2.90436 11.688 2.90439 11.688 2.90443 11.688C2.90447 11.688 2.9045 11.688 2.90454 11.688C2.90458 11.688 2.90461 11.688 2.90465 11.688C2.90469 11.688 2.90472 11.688 2.90476 11.688C2.9048 11.688 2.90483 11.688 2.90487 11.688C2.9049 11.688 2.90494 11.688 2.90498 11.688C2.90501 11.688 2.90505 11.688 2.90509 11.688C2.90512 11.688 2.90516 11.688 2.9052 11.688C2.90523 11.688 2.90527 11.688 2.90531 11.688C2.90534 11.688 2.90538 11.688 2.90542 11.688C2.90545 11.688 2.90549 11.688 2.90553 11.688C2.90556 11.688 2.9056 11.688 2.90563 11.688C2.90567 11.688 2.90571 11.688 2.90574 11.688C2.90578 11.688 2.90582 11.688 2.90585 11.688C2.90589 11.688 2.90593 11.688 2.90596 11.688C2.906 11.688 2.90604 11.688 2.90607 11.688C2.90611 11.688 2.90615 11.688 2.90618 11.688C2.90622 11.688 2.90626 11.688 2.90629 11.688C2.90633 11.688 2.90637 11.688 2.9064 11.688C2.90644 11.688 2.90648 11.688 2.90651 11.688C2.90655 11.688 2.90659 11.688 2.90662 11.688C2.90666 11.688 2.9067 11.688 2.90673 11.688C2.90677 11.688 2.90681 11.688 2.90684 11.688C2.90688 11.688 2.90692 11.688 2.90695 11.688C2.90699 11.688 2.90703 11.688 2.90706 11.688C2.9071 11.688 2.90714 11.688 2.90717 11.688C2.90721 11.688 2.90724 11.688 2.90728 11.688C2.90732 11.688 2.90735 11.688 2.90739 11.688C2.90743 11.688 2.90746 11.688 2.9075 11.688C2.90754 11.688 2.90757 11.688 2.90761 11.688C2.90765 11.688 2.90768 11.688 2.90772 11.688C2.90776 11.688 2.90779 11.688 2.90783 11.688C2.90787 11.688 2.9079 11.688 2.90794 11.688C2.90798 11.688 2.90801 11.688 2.90805 11.688C2.90809 11.688 2.90812 11.688 2.90816 11.688C2.9082 11.688 2.90823 11.688 2.90827 11.688C2.90831 11.688 2.90834 11.688 2.90838 11.688C2.90842 11.688 2.90845 11.688 2.90849 11.688C2.90853 11.688 2.90856 11.688 2.9086 11.688C2.90864 11.688 2.90867 11.688 2.90871 11.688C2.90875 11.688 2.90878 11.688 2.90882 11.688C2.90886 11.688 2.90889 11.688 2.90893 11.688C2.90897 11.688 2.90901 11.688 2.90904 11.688C2.90908 11.688 2.90912 11.688 2.90915 11.688C2.90919 11.688 2.90923 11.688 2.90926 11.688C2.9093 11.688 2.90934 11.688 2.90937 11.688C2.90941 11.688 2.90945 11.688 2.90948 11.688C2.90952 11.688 2.90956 11.688 2.90959 11.688C2.90963 11.688 2.90967 11.688 2.9097 11.688C2.90974 11.688 2.90978 11.688 2.90981 11.688C2.90985 11.688 2.90989 11.688 2.90992 11.688C2.90996 11.688 2.91 11.688 2.91003 11.688C2.91007 11.688 2.91011 11.688 2.91014 11.688C2.91018 11.688 2.91022 11.688 2.91025 11.688C2.91029 11.688 2.91033 11.688 2.91036 11.688C2.9104 11.688 2.91044 11.688 2.91047 11.688C2.91051 11.688 2.91055 11.688 2.91058 11.688C2.91062 11.688 2.91066 11.688 2.91069 11.688C2.91073 11.688 2.91077 11.688 2.9108 11.688C2.91084 11.688 2.91088 11.688 2.91091 11.688C2.91095 11.688 2.91099 11.688 2.91102 11.688C2.91106 11.688 2.9111 11.688 2.91113 11.688C2.91117 11.688 2.91121 11.688 2.91124 11.688C2.91128 11.688 2.91132 11.688 2.91135 11.688C2.91139 11.688 2.91143 11.688 2.91146 11.688C2.9115 11.688 2.91154 11.688 2.91157 11.688C2.91161 11.688 2.91165 11.688 2.91168 11.688C2.91172 11.688 2.91176 11.688 2.91179 11.688C2.91183 11.688 2.91187 11.688 2.9119 11.688C2.91194 11.688 2.91198 11.688 2.91201 11.688C2.91205 11.688 2.91209 11.688 2.91212 11.688C2.91216 11.688 2.9122 11.688 2.91223 11.688C2.91227 11.688 2.91231 11.688 2.91234 11.688C2.91238 11.688 2.91242 11.688 2.91245 11.688C2.91249 11.688 2.91253 11.688 2.91256 11.688C2.9126 11.688 2.91264 11.688 2.91267 11.688C2.91271 11.688 2.91275 11.688 2.91278 11.688C2.91282 11.688 2.91286 11.688 2.91289 11.688C2.91293 11.688 2.91297 11.688 2.913 11.688C2.91304 11.688 2.91307 11.688 2.91311 11.688C2.91315 11.688 2.91318 11.688 2.91322 11.688C2.91326 11.688 2.91329 11.688 2.91333 11.688C2.91337 11.688 2.9134 11.688 2.91344 11.688C2.91348 11.688 2.91351 11.688 2.91355 11.688C2.91359 11.688 2.91362 11.688 2.91366 11.688C2.9137 11.688 2.91373 11.688 2.91377 11.688C2.91381 11.688 2.91384 11.688 2.91388 11.688C2.91392 11.688 2.91395 11.688 2.91399 11.688C2.91403 11.688 2.91406 11.688 2.9141 11.688C2.91413 11.688 2.91417 11.688 2.91421 11.688C2.91424 11.688 2.91428 11.688 2.91432 11.688C2.91435 11.688 2.91439 11.688 2.91443 11.688C2.91446 11.688 2.9145 11.688 2.91454 11.688C2.91457 11.688 2.91461 11.688 2.91465 11.688C2.91468 11.688 2.91472 11.688 2.91476 11.688C2.91479 11.688 2.91483 11.688 2.91486 11.688C2.9149 11.688 2.91494 11.688 2.91497 11.688C2.91501 11.688 2.91505 11.688 2.91508 11.688C2.91512 11.688 2.91516 11.688 2.91519 11.688C2.91523 11.688 2.91527 11.688 2.9153 11.688C2.91534 11.688 2.91537 11.688 2.91541 11.688C2.91545 11.688 2.91548 11.688 2.91552 11.688C2.91556 11.688 2.91559 11.688 2.91563 11.688C2.91567 11.688 2.9157 11.688 2.91574 11.688C2.91577 11.688 2.91581 11.688 2.91585 11.688C2.91588 11.688 2.91592 11.688 2.91596 11.688C2.91599 11.688 2.91603 11.688 2.91607 11.688C2.9161 11.688 2.91614 11.688 2.91617 11.688C2.91621 11.688 2.91625 11.688 2.91628 11.688C2.91632 11.688 2.91636 11.688 2.91639 11.688C2.91643 11.688 2.91646 11.688 2.9165 11.688C2.91654 11.688 2.91657 11.688 2.91661 11.688C2.91665 11.688 2.91668 11.688 2.91672 11.688C2.91675 11.688 2.91679 11.688 2.91683 11.688C2.91686 11.688 2.9169 11.688 2.91694 11.688C2.91697 11.688 2.91701 11.688 2.91704 11.688C2.91708 11.688 2.91712 11.688 2.91715 11.688C2.91719 11.688 2.91723 11.688 2.91726 11.688C2.9173 11.688 2.91733 11.688 2.91737 11.688C2.91741 11.688 2.91744 11.688 2.91748 11.688C2.91751 11.688 2.91755 11.688 2.91759 11.688C2.91762 11.688 2.91766 11.688 2.91769 11.688C2.91773 11.688 2.91777 11.688 2.9178 11.688C2.91784 11.688 2.91788 11.688 2.91791 11.688C2.91795 11.688 2.91798 11.688 2.91802 11.688C2.91806 11.688 2.91809 11.688 2.91813 11.688C2.91816 11.688 2.9182 11.688 2.91824 11.688C2.91827 11.688 2.91831 11.688 2.91834 11.688C2.91838 11.688 2.91842 11.688 2.91845 11.688C2.91849 11.688 2.91852 11.688 2.91856 11.688C2.9186 11.688 2.91863 11.688 2.91867 11.688C2.9187 11.688 2.91874 11.688 2.91878 11.688C2.91881 11.688 2.91885 11.688 2.91888 11.688C2.91892 11.688 2.91895 11.688 2.91899 11.688C2.91903 11.688 2.91906 11.688 2.9191 11.688C2.91913 11.688 2.91917 11.688 2.91921 11.688C2.91924 11.688 2.91928 11.688 2.91931 11.688C2.91935 11.688 2.91938 11.688 2.91942 11.688C2.91946 11.688 2.91949 11.688 2.91953 11.688C2.91956 11.688 2.9196 11.688 2.91964 11.688C2.91967 11.688 2.91971 11.688 2.91974 11.688C2.91978 11.688 2.91981 11.688 2.91985 11.688C2.91989 11.688 2.91992 11.688 2.91996 11.688C2.91999 11.688 2.92003 11.688 2.92006 11.688C2.9201 11.688 2.92014 11.688 2.92017 11.688C2.92021 11.688 2.92024 11.688 2.92028 11.688C2.92031 11.688 2.92035 11.688 2.92039 11.688C2.92042 11.688 2.92046 11.688 2.92049 11.688C2.92053 11.688 2.92056 11.688 2.9206 11.688C2.92063 11.688 2.92067 11.688 2.92071 11.688C2.92074 11.688 2.92078 11.688 2.92081 11.688C2.92085 11.688 2.92088 11.688 2.92092 11.688C2.92095 11.688 2.92099 11.688 2.92102 11.688C2.92106 11.688 2.9211 11.688 2.92113 11.688C2.92117 11.688 2.9212 11.688 2.92124 11.688C2.92127 11.688 2.92131 11.688 2.92134 11.688C2.92138 11.688 2.92141 11.688 2.92145 11.688C2.92149 11.688 2.92152 11.688 2.92156 11.688C2.92159 11.688 2.92163 11.688 2.92166 11.688C2.9217 11.688 2.92173 11.688 2.92177 11.688C2.9218 11.688 2.92184 11.688 2.92187 11.688C2.92191 11.688 2.92194 11.688 2.92198 11.688C2.92202 11.688 2.92205 11.688 2.92209 11.688C2.92212 11.688 2.92216 11.688 2.92219 11.688C2.92223 11.688 2.92226 11.688 2.9223 11.688C2.92233 11.688 2.92237 11.688 2.9224 11.688C2.92244 11.688 2.92247 11.688 2.92251 11.688C2.92254 11.688 2.92258 11.688 2.92261 11.688C2.92265 11.688 2.92268 11.688 2.92272 11.688C2.92275 11.688 2.92279 11.688 2.92282 11.688C2.92286 11.688 2.92289 11.688 2.92293 11.688C2.92296 11.688 2.923 11.688 2.92303 11.688C2.92307 11.688 2.9231 11.688 2.92314 11.688C2.92317 11.688 2.92321 11.688 2.92324 11.688C2.92328 11.688 2.92331 11.688 2.92335 11.688C2.92338 11.688 2.92342 11.688 2.92345 11.688C2.92349 11.688 2.92352 11.688 2.92356 11.688C2.92359 11.688 2.92363 11.688 2.92366 11.688C2.9237 11.688 2.92373 11.688 2.92377 11.688C2.9238 11.688 2.92384 11.688 2.92387 11.688C2.92391 11.688 2.92394 11.688 2.92398 11.688C2.92401 11.688 2.92405 11.688 2.92408 11.688C2.92411 11.688 2.92415 11.688 2.92418 11.688C2.92422 11.688 2.92425 11.688 2.92429 11.688C2.92432 11.688 2.92436 11.688 2.92439 11.688C2.92443 11.688 2.92446 11.688 2.9245 11.688C2.92453 11.688 2.92456 11.688 2.9246 11.688C2.92463 11.688 2.92467 11.688 2.9247 11.688C2.92474 11.688 2.92477 11.688 2.92481 11.688C2.92484 11.688 2.92488 11.688 2.92491 11.688C2.92494 11.688 2.92498 11.688 2.92501 11.688C2.92505 11.688 2.92508 11.688 2.92512 11.688C2.92515 11.688 2.92519 11.688 2.92522 11.688C2.92525 11.688 2.92529 11.688 2.92532 11.688C2.92536 11.688 2.92539 11.688 2.92543 11.688C2.92546 11.688 2.92549 11.688 2.92553 11.688C2.92556 11.688 2.9256 11.688 2.92563 11.688C2.92567 11.688 2.9257 11.688 2.92573 11.688C2.92577 11.688 2.9258 11.688 2.92584 11.688C2.92587 11.688 2.92591 11.688 2.92594 11.688C2.92597 11.688 2.92601 11.688 2.92604 11.688C2.92608 11.688 2.92611 11.688 2.92614 11.688C2.92618 11.688 2.92621 11.688 2.92625 11.688C2.92628 11.688 2.92631 11.688 2.92635 11.688C2.92638 11.688 2.92642 11.688 2.92645 11.688C2.92648 11.688 2.92652 11.688 2.92655 11.688C2.92659 11.688 2.92662 11.688 2.92665 11.688C2.92669 11.688 2.92672 11.688 2.92676 11.688C2.92679 11.688 2.92682 11.688 2.92686 11.688C2.92689 11.688 2.92692 11.688 2.92696 11.688C2.92699 11.688 2.92703 11.688 2.92706 11.688C2.92709 11.688 2.92713 11.688 2.92716 11.688C2.92719 11.688 2.92723 11.688 2.92726 11.688C2.9273 11.688 2.92733 11.688 2.92736 11.688C2.9274 11.688 2.92743 11.688 2.92746 11.688C2.9275 11.688 2.92753 11.688 2.92756 11.688C2.9276 11.688 2.92763 11.688 2.92767 11.688C2.9277 11.688 2.92773 11.688 2.92777 11.688C2.9278 11.688 2.92783 11.688 2.92787 11.688C2.9279 11.688 2.92793 11.688 2.92797 11.688C2.928 11.688 2.92803 11.688 2.92807 11.688C2.9281 11.688 2.92813 11.688 2.92817 11.688C2.9282 11.688 2.92823 11.688 2.92827 11.688C2.9283 11.688 2.92833 11.688 2.92837 11.688C2.9284 11.688 2.92843 11.688 2.92847 11.688C2.9285 11.688 2.92853 11.688 2.92857 11.688C2.9286 11.688 2.92863 11.688 2.92867 11.688C2.9287 11.688 2.92873 11.688 2.92876 11.688C2.9288 11.688 2.92883 11.688 2.92886 11.688C2.9289 11.688 2.92893 11.688 2.92896 11.688C2.929 11.688 2.92903 11.688 2.92906 11.688C2.9291 11.688 2.92913 11.688 2.92916 11.688C2.92919 11.688 2.92923 11.688 2.92926 11.688C2.92929 11.688 2.92933 11.688 2.92936 11.688C2.92939 11.688 2.92942 11.688 2.92946 11.688C2.92949 11.688 2.92952 11.688 2.92956 11.688C2.92959 11.688 2.92962 11.688 2.92965 11.688C2.92969 11.688 2.92972 11.688 2.92975 11.688C2.92978 11.688 2.92982 11.688 2.92985 11.688C2.92988 11.688 2.92992 11.688 2.92995 11.688C2.92998 11.688 2.93001 11.688 2.93005 11.688C2.93008 11.688 2.93011 11.688 2.93014 11.688C2.93018 11.688 2.93021 11.688 2.93024 11.688C2.93027 11.688 2.93031 11.688 2.93034 11.688C2.93037 11.688 2.9304 11.688 2.93044 11.688C2.93047 11.688 2.9305 11.688 2.93053 11.688C2.93056 11.688 2.9306 11.688 2.93063 11.688C2.93066 11.688 2.93069 11.688 2.93073 11.688C2.93076 11.688 2.93079 11.688 2.93082 11.688C2.93086 11.688 2.93089 11.688 2.93092 11.688C2.93095 11.688 2.93098 11.688 2.93102 11.688C2.93105 11.688 2.93108 11.688 2.93111 11.688C2.93114 11.688 2.93118 11.688 2.93121 11.688C2.93124 11.688 2.93127 11.688 2.9313 11.688C2.93134 11.688 2.93137 11.688 2.9314 11.688C2.93143 11.688 2.93146 11.688 2.9315 11.688C2.93153 11.688 2.93156 11.688 2.93159 11.688C2.93162 11.688 2.93166 11.688 2.93169 11.688C2.93172 11.688 2.93175 11.688 2.93178 11.688C2.93181 11.688 2.93185 11.688 2.93188 11.688C2.93191 11.688 2.93194 11.688 2.93197 11.688C2.932 11.688 2.93204 11.688 2.93207 11.688C2.9321 11.688 2.93213 11.688 2.93216 11.688C2.93219 11.688 2.93223 11.688 2.93226 11.688C2.93229 11.688 2.93232 11.688 2.93235 11.688C2.93238 11.688 2.93241 11.688 2.93245 11.688C2.93248 11.688 2.93251 11.688 2.93254 11.688C2.93257 11.688 2.9326 11.688 2.93263 11.688C2.93267 11.688 2.9327 11.688 2.93273 11.688C2.93276 11.688 2.93279 11.688 2.93282 11.688C2.93285 11.688 2.93288 11.688 2.93292 11.688C2.93295 11.688 2.93298 11.688 2.93301 11.688C2.93304 11.688 2.93307 11.688 2.9331 11.688C2.93313 11.688 2.93316 11.688 2.9332 11.688C2.93323 11.688 2.93326 11.688 2.93329 11.688C2.93332 11.688 2.93335 11.688 2.93338 11.688C2.93341 11.688 2.93344 11.688 2.93347 11.688C2.9335 11.688 2.93354 11.688 2.93357 11.688C2.9336 11.688 2.93363 11.688 2.93366 11.688C2.93369 11.688 2.93372 11.688 2.93375 11.688C2.93378 11.688 2.93381 11.688 2.93384 11.688C2.93387 11.688 2.9339 11.688 2.93394 11.688C2.93397 11.688 2.934 11.688 2.93403 11.688C2.93406 11.688 2.93409 11.688 2.93412 11.688C2.93415 11.688 2.93418 11.688 2.93421 11.688C2.93424 11.688 2.93427 11.688 2.9343 11.688C2.93433 11.688 2.93436 11.688 2.93439 11.688C2.93442 11.688 2.93445 11.688 2.93448 11.688C2.93451 11.688 2.93454 11.688 2.93457 11.688C2.9346 11.688 2.93463 11.688 2.93466 11.688C2.9347 11.688 2.93473 11.688 2.93476 11.688C2.93479 11.688 2.93482 11.688 2.93485 11.688C2.93488 11.688 2.93491 11.688 2.93494 11.688C2.93497 11.688 2.935 11.688 2.93503 11.688C2.93506 11.688 2.93509 11.688 2.93512 11.688C2.93515 11.688 2.93518 11.688 2.93521 11.688C2.93524 11.688 2.93527 11.688 2.93529 11.688C2.93532 11.688 2.93535 11.688 2.93538 11.688C2.93541 11.688 2.93544 11.688 2.93547 11.688C2.9355 11.688 2.93553 11.688 2.93556 11.688C2.93559 11.688 2.93562 11.688 2.93565 11.688C2.93568 11.688 2.93571 11.688 2.93574 11.688C2.93577 11.688 2.9358 11.688 2.93583 11.688C2.93586 11.688 2.93589 11.688 2.93592 11.688C2.93595 11.688 2.93598 11.688 2.936 11.688V8.98262ZM3.018 8.98934C3.4727 9.03481 3.78399 9.43794 3.74092 9.86873L1.04893 9.59953C0.945728 10.6315 1.69289 11.5757 2.7488 11.6813L3.018 8.98934ZM3.74045 9.87332C3.90314 8.30066 4.73395 6.87877 6.03153 5.96141L4.46975 3.75231C2.53586 5.11953 1.29252 7.24474 1.04939 9.59493L3.74045 9.87332ZM6.04013 5.95528C5.66105 6.22775 5.16507 6.12727 4.91124 5.77411L7.10808 4.19513C6.50855 3.36101 5.32119 3.14029 4.46115 3.75844L6.04013 5.95528ZM4.8999 5.75809C4.64975 5.39918 4.73275 4.90373 5.09241 4.64522L6.67139 6.84206C7.51202 6.23785 7.71526 5.06605 7.11942 4.21115L4.8999 5.75809ZM5.09798 4.64124C3.4341 5.82444 2.34386 7.66156 2.13867 9.70413L4.83054 9.97455C4.95601 8.72553 5.62429 7.58669 6.66583 6.84603L5.09798 4.64124ZM2.13933 9.69773C2.18244 9.28814 2.52856 8.98262 2.936 8.98262V11.688C3.89956 11.688 4.72664 10.9617 4.82988 9.98095L2.13933 9.69773Z" fill="white" mask="url(#path-2-inside-1_10476_9331)"/>
  <mask id="path-4-inside-2_10476_9331" fill="white">
    <path d="M12.142 16.5872C11.2176 17.0306 10.2256 17.256 9.18855 17.256C8.10638 17.256 7.07682 17.0156 6.11489 16.5271C5.84435 16.3993 5.73914 16.0687 5.87441 15.7981C6.00217 15.5276 6.33283 15.4224 6.60337 15.5501C7.07682 15.7906 7.58033 15.9559 8.09135 16.0536C8.78273 16.1889 9.48915 16.1964 10.1805 16.0762C10.6916 15.986 11.1951 15.8282 11.661 15.6027C11.9391 15.475 12.2697 15.5802 12.39 15.8582C12.5252 16.1288 12.42 16.4594 12.142 16.5872Z"/>
  </mask>
  <path d="M12.142 16.5872C11.2176 17.0306 10.2256 17.256 9.18855 17.256C8.10638 17.256 7.07682 17.0156 6.11489 16.5271C5.84435 16.3993 5.73914 16.0687 5.87441 15.7981C6.00217 15.5276 6.33283 15.4224 6.60337 15.5501C7.07682 15.7906 7.58033 15.9559 8.09135 16.0536C8.78273 16.1889 9.48915 16.1964 10.1805 16.0762C10.6916 15.986 11.1951 15.8282 11.661 15.6027C11.9391 15.475 12.2697 15.5802 12.39 15.8582C12.5252 16.1288 12.42 16.4594 12.142 16.5872Z" fill="white"/>
  <path d="M12.142 16.5872L11.5772 15.358L11.567 15.3627L11.5569 15.3675L12.142 16.5872ZM6.11489 16.5271L6.72737 15.321L6.71006 15.3122L6.69251 15.3039L6.11489 16.5271ZM5.87441 15.7981L7.08431 16.4031L7.09111 16.3895L7.0976 16.3757L5.87441 15.7981ZM6.60337 15.5501L7.21597 14.3441L7.1986 14.3353L7.18099 14.3269L6.60337 15.5501ZM8.09135 16.0536L8.35109 14.7261L8.34536 14.725L8.09135 16.0536ZM10.1805 16.0762L10.4123 17.4089L10.4156 17.4083L10.1805 16.0762ZM11.661 15.6027L11.0962 14.3736L11.084 14.3792L11.0718 14.3851L11.661 15.6027ZM12.39 15.8582L11.1484 16.3951L11.1633 16.4296L11.1801 16.4632L12.39 15.8582ZM11.5569 15.3675C10.8164 15.7228 10.0245 15.9033 9.18855 15.9033V18.6087C10.4268 18.6087 11.6188 18.3384 12.727 17.8069L11.5569 15.3675ZM9.18855 15.9033C8.31376 15.9033 7.4947 15.7106 6.72737 15.321L5.50242 17.7332C6.65894 18.3205 7.899 18.6087 9.18855 18.6087V15.9033ZM6.69251 15.3039C7.14904 15.5195 7.26795 16.0358 7.08431 16.4031L4.66451 15.1932C4.21033 16.1015 4.53966 17.2792 5.53728 17.7503L6.69251 15.3039ZM7.0976 16.3757C6.88215 16.832 6.37836 16.9398 6.02576 16.7733L7.18099 14.3269C6.2873 13.9049 5.12219 14.2232 4.65123 15.2205L7.0976 16.3757ZM5.99078 16.7562C6.58605 17.0585 7.21152 17.2626 7.83734 17.3823L8.34536 14.725C7.94913 14.6492 7.56759 14.5227 7.21597 14.3441L5.99078 16.7562ZM7.83161 17.3812C8.68471 17.5481 9.55771 17.5575 10.4123 17.4089L9.94876 14.7435C9.42059 14.8353 8.88076 14.8297 8.35109 14.7261L7.83161 17.3812ZM10.4156 17.4083C11.041 17.2979 11.6646 17.1037 12.2502 16.8204L11.0718 14.3851C10.7255 14.5526 10.3421 14.674 9.94545 14.7441L10.4156 17.4083ZM12.2258 16.8319C11.9045 16.9795 11.3674 16.9017 11.1484 16.3951L13.6315 15.3213C13.172 14.2586 11.9736 13.9704 11.0962 14.3736L12.2258 16.8319ZM11.1801 16.4632C10.9927 16.0884 11.122 15.5672 11.5772 15.358L12.7067 17.8164C13.718 17.3517 14.0578 16.1691 13.5999 15.2533L11.1801 16.4632Z" fill="white" mask="url(#path-4-inside-2_10476_9331)"/>
  <path d="M9.18101 2.24219C8.01618 2.24219 7.06177 3.18908 7.06177 4.36143C7.06177 5.53378 8.00866 6.48067 9.18101 6.48067C10.3534 6.48067 11.3003 5.53378 11.3003 4.36143C11.3003 3.18908 10.3534 2.24219 9.18101 2.24219Z" fill="white"/>
  <path d="M3.92045 11.1523C2.75562 11.1523 1.80121 12.0992 1.80121 13.2716C1.80121 14.4439 2.7481 15.3908 3.92045 15.3908C5.0928 15.3908 6.03969 14.4439 6.03969 13.2716C6.03969 12.0992 5.08528 11.1523 3.92045 11.1523Z" fill="white"/>
  <path d="M14.3664 11.1523C13.2015 11.1523 12.2471 12.0992 12.2471 13.2716C12.2471 14.4439 13.194 15.3908 14.3664 15.3908C15.5387 15.3908 16.4856 14.4439 16.4856 13.2716C16.4856 12.0992 15.5387 11.1523 14.3664 11.1523Z" fill="white"/>
</svg>