<svg width="24" height="24" viewBox="0 0 24 24" fill="none" xmlns="http://www.w3.org/2000/svg">
<g id="Currency">
<g id="Vector 6">
<path d="M14.65 9.03628C14.5 7.87385 13.66 5.64862 11.5 6.04716C8.8 6.54535 8.35 9.53447 9.7 12.5236C10.78 14.9149 8.35 17.8376 7 19C7.75 18.5018 9.91683 17.1033 11.95 18.0036C14.2 19 15.55 18.1697 16 18.0036" stroke="#2873FF" stroke-width="1.5" stroke-linecap="round" stroke-linejoin="round"/>
<path d="M14.65 9.03628C14.5 7.87385 13.66 5.64862 11.5 6.04716C8.8 6.54535 8.35 9.53447 9.7 12.5236C10.78 14.9149 8.35 17.8376 7 19C7.75 18.5018 9.91683 17.1033 11.95 18.0036C14.2 19 15.55 18.1697 16 18.0036" stroke="url(#paint0_linear_4429_58123)" stroke-width="1.5" stroke-linecap="round" stroke-linejoin="round"/>
</g>
<g id="Vector 7">
<path d="M13.2002 13.1992H7.2002" stroke="#2873FF" stroke-width="1.5" stroke-linecap="round" stroke-linejoin="round"/>
<path d="M13.2002 13.1992H7.2002" stroke="url(#paint1_linear_4429_58123)" stroke-width="1.5" stroke-linecap="round" stroke-linejoin="round"/>
</g>
</g>
<defs>
<linearGradient id="paint0_linear_4429_58123" x1="11.5" y1="6" x2="11.5" y2="19" gradientUnits="userSpaceOnUse">
<stop stop-color="#2873FF"/>
<stop offset="1" stop-color="#0B6B96"/>
</linearGradient>
<linearGradient id="paint1_linear_4429_58123" x1="10.2002" y1="13.1992" x2="10.2002" y2="14.1992" gradientUnits="userSpaceOnUse">
<stop stop-color="#2873FF"/>
<stop offset="1" stop-color="#0B6B96"/>
</linearGradient>
</defs>
</svg>
