<svg width="24" height="24" viewBox="0 0 24 24" fill="none" xmlns="http://www.w3.org/2000/svg">
<path fill-rule="evenodd" clip-rule="evenodd" d="M12.7501 4.80078C12.7501 4.38657 12.4143 4.05078 12.0001 4.05078C11.5858 4.05078 11.2501 4.38657 11.2501 4.80078V6.46691C10.526 6.51399 9.77505 6.6724 9.16245 7.05397C8.51619 7.45649 8.05771 8.08972 7.95369 8.9655C7.87102 9.66147 7.94763 10.276 8.19316 10.806C8.4396 11.338 8.82834 11.7245 9.26952 12.0086C10.1061 12.5472 11.2244 12.7667 12.1396 12.9463L12.1479 12.948L12.2297 12.964C12.6836 13.053 13.0995 13.1345 13.4784 13.2369C13.8813 13.3458 14.1914 13.4657 14.4159 13.6071C14.6295 13.7416 14.7412 13.8795 14.7984 14.0317C14.8583 14.191 14.8917 14.4552 14.7834 14.8976C14.7018 15.2311 14.474 15.4943 14.0448 15.6974C13.5991 15.9084 12.9872 16.0247 12.2866 16.0469C10.8673 16.0918 9.37583 15.746 8.74972 15.4161C8.38328 15.223 7.92967 15.3635 7.73655 15.7299C7.54344 16.0964 7.68395 16.55 8.05039 16.7431C8.762 17.1181 9.98732 17.4259 11.2501 17.5206V19.2008C11.2501 19.615 11.5858 19.9508 12.0001 19.9508C12.4143 19.9508 12.7501 19.615 12.7501 19.2008V17.5231C13.4264 17.4688 14.1036 17.3292 14.6866 17.0532C15.4059 16.7127 16.0236 16.1395 16.2404 15.2543C16.3971 14.6143 16.3988 14.0261 16.2025 13.5039C16.0036 12.9746 15.6346 12.602 15.2153 12.3379C14.807 12.0807 14.3319 11.9138 13.8697 11.7889C13.4376 11.6721 12.9722 11.5809 12.5328 11.4948L12.4368 11.476C11.4476 11.2818 10.633 11.1024 10.0815 10.7474C9.82743 10.5838 9.65753 10.3985 9.5542 10.1755C9.44996 9.95046 9.38568 9.62684 9.44322 9.14243C9.48999 8.7486 9.66961 8.50525 9.95549 8.32719C10.2741 8.12872 10.7481 8.00244 11.3499 7.96359C12.5515 7.88601 13.9795 8.17324 14.8749 8.47441C15.2675 8.60646 15.6928 8.39524 15.8249 8.00264C15.9569 7.61004 15.7457 7.18472 15.3531 7.05268C14.6775 6.82544 13.7332 6.60057 12.7501 6.50229V4.80078Z" fill="#165CDD"/>
</svg>
