
<svg xmlns="http://www.w3.org/2000/svg" width="23" height="22" viewBox="0 0 30 23" fill="none">
  <path d="M15.1703 12.7172H23.5942C23.7738 12.7172 23.8586 12.7172 23.8716 12.5036C23.9404 11.7259 23.9404 10.9438 23.8716 10.1653C23.8716 10.0141 23.7888 9.95166 23.6082 9.95166H6.84306C6.63555 9.95166 6.57969 10.0141 6.57969 10.1906V12.4284C6.57969 12.7172 6.57969 12.7172 6.9119 12.7172H15.1703ZM22.9308 7.33639C22.9547 7.27936 22.9547 7.2169 22.9308 7.16077C22.7901 6.88286 22.6235 6.61762 22.43 6.36868C22.1387 5.94321 21.7955 5.55124 21.4044 5.1991C21.2199 4.98637 21.0064 4.79536 20.767 4.63332C19.5678 3.70725 18.1422 3.05185 16.6098 2.72234C15.8367 2.56483 15.0466 2.48969 14.2544 2.49603H6.81413C6.60662 2.49603 6.57869 2.57116 6.57869 2.73501V7.19789C6.57869 7.38618 6.57869 7.43688 6.84206 7.43688H22.831C22.831 7.43688 22.9697 7.41153 22.9976 7.33639H22.9298H22.9308ZM22.9308 15.3325C22.6954 15.3089 22.4579 15.3089 22.2225 15.3325H6.85703C6.64952 15.3325 6.57969 15.3325 6.57969 15.5841V19.9474C6.57969 20.1484 6.57969 20.1991 6.85703 20.1991H13.9512C14.2904 20.2226 14.6295 20.2009 14.9618 20.1366C15.9913 20.0696 17.0039 19.8668 17.9696 19.5328C18.3208 19.4224 18.66 19.2784 18.9802 19.1055H19.077C20.74 18.3207 22.0908 17.0877 22.9428 15.5742C22.9428 15.5742 23.0395 15.3841 22.9308 15.3343V15.3325ZM3.79531 22.4613V22.3862V19.4568V18.4637V15.509C3.79531 15.3451 3.79531 15.3207 3.57383 15.3207H0.566983C0.400379 15.3207 0.331543 15.3207 0.331543 15.1197V12.7308H3.5459C3.72547 12.7308 3.79531 12.7308 3.79531 12.5171V10.1535C3.79531 10.0023 3.79531 9.96523 3.57383 9.96523H0.566983C0.400379 9.96523 0.331543 9.96523 0.331543 9.76427V7.55184C0.331543 7.41334 0.331543 7.37622 0.553016 7.37622H3.53193C3.73944 7.37622 3.79531 7.37622 3.79531 7.13724V0.360546C3.79531 0.159581 3.79531 0.108887 4.07265 0.108887H14.4639C15.2181 0.136044 15.9674 0.21118 16.7086 0.335199C18.236 0.591384 19.7035 1.08656 21.0453 1.79355C21.9352 2.26881 22.7542 2.84274 23.4835 3.50357C24.0322 4.02047 24.527 4.57991 24.966 5.17556C25.4019 5.77937 25.7641 6.42481 26.0484 7.09922C26.0833 7.27484 26.2689 7.39342 26.4624 7.36355H28.9425C29.2607 7.36355 29.2608 7.36355 29.2747 7.64056V9.70271C29.2747 9.90368 29.1919 9.95437 28.9694 9.95437H27.057C26.8635 9.95437 26.8076 9.95437 26.8216 10.1807C26.8974 10.9465 26.8974 11.7151 26.8216 12.4809C26.8216 12.6946 26.8216 12.7199 27.0859 12.7199H29.2737C29.3705 12.8331 29.2737 12.9462 29.2737 13.0603C29.2877 13.206 29.2877 13.3536 29.2737 13.4993V15.021C29.2737 15.2347 29.2049 15.2981 28.9964 15.2981H26.3776C26.195 15.2664 26.0175 15.3723 25.9756 15.537C25.352 17.0081 24.3544 18.327 23.0655 19.3843C22.5946 19.7691 22.0998 20.1312 21.583 20.4652C21.0283 20.7549 20.4886 21.0563 19.92 21.2953C18.8735 21.7226 17.7761 22.0376 16.6497 22.2377C15.5803 22.4115 14.4959 22.4903 13.4075 22.4767H3.79132V22.464L3.79531 22.4613Z" fill="#FEFEFD"/>
</svg>