<svg width="483" height="134" viewBox="0 0 483 134" fill="none" xmlns="http://www.w3.org/2000/svg">
<g filter="url(#filter0_d_5100_42246)">
<rect y="0.875977" width="458" height="98" rx="15" fill="#1B2537" shape-rendering="crispEdges"/>
<rect x="0.25" y="1.12598" width="457.5" height="97.5" rx="14.75" stroke="url(#paint0_linear_5100_42246)" stroke-width="0.5" shape-rendering="crispEdges"/>
<rect x="24" y="24.876" width="50" height="50" rx="25" fill="#10192D"/>
<circle cx="49" cy="45.876" r="5" stroke="#8E9BAE" stroke-width="2" stroke-linecap="round" stroke-linejoin="round"/>
<path d="M57 58.876C57 54.4577 53.4183 50.876 49 50.876C44.5817 50.876 41 54.4577 41 58.876" stroke="#8E9BAE" stroke-width="2" stroke-linecap="round" stroke-linejoin="round"/>
<path d="M57 58.876C57 54.4577 53.4183 50.876 49 50.876C44.5817 50.876 41 54.4577 41 58.876" stroke="#8E9BAE" stroke-width="2" stroke-linecap="round" stroke-linejoin="round"/>
<path d="M91.12 44.876V33.356H93.072L98.416 41.476V33.356H100.368V44.876H98.416L93.072 36.756V44.876H91.12ZM104.444 44.876L101.804 36.22L103.692 36.236L105.38 41.78L107.092 36.236H108.716L110.42 41.78L112.116 36.236H114.004L111.364 44.876H109.86L107.9 38.932L105.948 44.876H104.444ZM119.064 45.116C118.189 45.116 117.421 44.9266 116.76 44.548C116.098 44.1693 115.581 43.644 115.208 42.972C114.84 42.3 114.656 41.5266 114.656 40.652C114.656 39.708 114.837 38.8893 115.2 38.196C115.562 37.4973 116.066 36.956 116.712 36.572C117.357 36.188 118.104 35.996 118.952 35.996C119.848 35.996 120.608 36.2066 121.232 36.628C121.861 37.044 122.328 37.6333 122.632 38.396C122.936 39.1586 123.05 40.0573 122.976 41.092H121.064V40.388C121.058 39.4493 120.893 38.764 120.568 38.332C120.242 37.9 119.73 37.684 119.032 37.684C118.242 37.684 117.656 37.9293 117.272 38.42C116.888 38.9053 116.696 39.6173 116.696 40.556C116.696 41.4306 116.888 42.108 117.272 42.588C117.656 43.068 118.216 43.308 118.952 43.308C119.426 43.308 119.834 43.204 120.176 42.996C120.522 42.7826 120.789 42.476 120.976 42.076L122.88 42.652C122.549 43.4306 122.037 44.036 121.344 44.468C120.656 44.9 119.896 45.116 119.064 45.116ZM116.088 41.092V39.636H122.032V41.092H116.088ZM124.745 44.876L124.761 33.356H126.713V40.396L129.873 36.236H132.281L128.929 40.556L132.569 44.876H130.017L126.713 40.716V44.876H124.745ZM137.142 45.116C136.267 45.116 135.499 44.9266 134.838 44.548C134.176 44.1693 133.659 43.644 133.286 42.972C132.918 42.3 132.734 41.5266 132.734 40.652C132.734 39.708 132.915 38.8893 133.278 38.196C133.64 37.4973 134.144 36.956 134.79 36.572C135.435 36.188 136.182 35.996 137.03 35.996C137.926 35.996 138.686 36.2066 139.31 36.628C139.939 37.044 140.406 37.6333 140.71 38.396C141.014 39.1586 141.128 40.0573 141.054 41.092H139.142V40.388C139.136 39.4493 138.971 38.764 138.646 38.332C138.32 37.9 137.808 37.684 137.11 37.684C136.32 37.684 135.734 37.9293 135.35 38.42C134.966 38.9053 134.774 39.6173 134.774 40.556C134.774 41.4306 134.966 42.108 135.35 42.588C135.734 43.068 136.294 43.308 137.03 43.308C137.504 43.308 137.912 43.204 138.254 42.996C138.6 42.7826 138.867 42.476 139.054 42.076L140.958 42.652C140.627 43.4306 140.115 44.036 139.422 44.468C138.734 44.9 137.974 45.116 137.142 45.116ZM134.166 41.092V39.636H140.11V41.092H134.166ZM146.042 44.876V33.356H152.978V35.284H147.97V38.156H152.018V40.076H147.97V44.876H146.042ZM154.417 44.876V36.236H156.121V38.34L155.913 38.068C156.02 37.78 156.161 37.5186 156.337 37.284C156.518 37.044 156.734 36.8466 156.985 36.692C157.198 36.548 157.433 36.436 157.689 36.356C157.95 36.2706 158.217 36.22 158.489 36.204C158.761 36.1826 159.025 36.1933 159.281 36.236V38.036C159.025 37.9613 158.729 37.9373 158.393 37.964C158.062 37.9906 157.764 38.084 157.497 38.244C157.23 38.388 157.012 38.572 156.841 38.796C156.676 39.02 156.553 39.276 156.473 39.564C156.393 39.8466 156.353 40.1533 156.353 40.484V44.876H154.417ZM163.02 45.116C162.396 45.116 161.868 44.9986 161.436 44.764C161.004 44.524 160.676 44.2066 160.452 43.812C160.234 43.4173 160.124 42.9826 160.124 42.508C160.124 42.092 160.194 41.7186 160.332 41.388C160.471 41.052 160.684 40.764 160.972 40.524C161.26 40.2786 161.634 40.0786 162.092 39.924C162.439 39.812 162.844 39.7106 163.308 39.62C163.778 39.5293 164.284 39.4466 164.828 39.372C165.378 39.292 165.951 39.2066 166.548 39.116L165.86 39.508C165.866 38.9106 165.732 38.4706 165.46 38.188C165.188 37.9053 164.73 37.764 164.084 37.764C163.695 37.764 163.319 37.8546 162.956 38.036C162.594 38.2173 162.34 38.5293 162.196 38.972L160.436 38.42C160.65 37.6893 161.055 37.1026 161.652 36.66C162.255 36.2173 163.066 35.996 164.084 35.996C164.852 35.996 165.527 36.1213 166.108 36.372C166.695 36.6226 167.13 37.0333 167.412 37.604C167.567 37.908 167.66 38.22 167.692 38.54C167.724 38.8546 167.74 39.1986 167.74 39.572V44.876H166.052V43.004L166.332 43.308C165.943 43.932 165.487 44.3906 164.964 44.684C164.447 44.972 163.799 45.116 163.02 45.116ZM163.404 43.58C163.842 43.58 164.215 43.5026 164.524 43.348C164.834 43.1933 165.079 43.004 165.26 42.78C165.447 42.556 165.572 42.3453 165.636 42.148C165.738 41.9026 165.794 41.6226 165.804 41.308C165.82 40.988 165.828 40.7293 165.828 40.532L166.42 40.708C165.839 40.7986 165.34 40.8786 164.924 40.948C164.508 41.0173 164.151 41.084 163.852 41.148C163.554 41.2066 163.29 41.2733 163.06 41.348C162.836 41.428 162.647 41.5213 162.492 41.628C162.338 41.7346 162.218 41.8573 162.132 41.996C162.052 42.1346 162.012 42.2973 162.012 42.484C162.012 42.6973 162.066 42.8866 162.172 43.052C162.279 43.212 162.434 43.34 162.636 43.436C162.844 43.532 163.1 43.58 163.404 43.58ZM175.799 44.876V40.716C175.799 40.444 175.78 40.1426 175.743 39.812C175.706 39.4813 175.618 39.164 175.479 38.86C175.346 38.5506 175.143 38.2973 174.871 38.1C174.604 37.9026 174.242 37.804 173.783 37.804C173.538 37.804 173.295 37.844 173.055 37.924C172.815 38.004 172.596 38.1426 172.399 38.34C172.207 38.532 172.052 38.7986 171.935 39.14C171.818 39.476 171.759 39.908 171.759 40.436L170.615 39.948C170.615 39.212 170.756 38.5453 171.039 37.948C171.327 37.3506 171.748 36.876 172.303 36.524C172.858 36.1666 173.54 35.988 174.351 35.988C174.991 35.988 175.519 36.0946 175.935 36.308C176.351 36.5213 176.682 36.7933 176.927 37.124C177.172 37.4546 177.354 37.8066 177.471 38.18C177.588 38.5533 177.663 38.908 177.695 39.244C177.732 39.5746 177.751 39.844 177.751 40.052V44.876H175.799ZM169.807 44.876V36.236H171.527V38.916H171.759V44.876H169.807ZM179.823 44.876L179.839 33.356H181.791V40.396L184.951 36.236H187.359L184.007 40.556L187.647 44.876H185.095L181.791 40.716V44.876H179.823ZM188.608 44.876V33.116H190.536V44.876H188.608ZM193.093 34.924V33.156H195.021V34.924H193.093ZM193.093 44.876V36.236H195.021V44.876H193.093ZM203.393 44.876V40.716C203.393 40.444 203.374 40.1426 203.337 39.812C203.3 39.4813 203.212 39.164 203.073 38.86C202.94 38.5506 202.737 38.2973 202.465 38.1C202.198 37.9026 201.836 37.804 201.377 37.804C201.132 37.804 200.889 37.844 200.649 37.924C200.409 38.004 200.19 38.1426 199.993 38.34C199.801 38.532 199.646 38.7986 199.529 39.14C199.412 39.476 199.353 39.908 199.353 40.436L198.209 39.948C198.209 39.212 198.35 38.5453 198.633 37.948C198.921 37.3506 199.342 36.876 199.897 36.524C200.452 36.1666 201.134 35.988 201.945 35.988C202.585 35.988 203.113 36.0946 203.529 36.308C203.945 36.5213 204.276 36.7933 204.521 37.124C204.766 37.4546 204.948 37.8066 205.065 38.18C205.182 38.5533 205.257 38.908 205.289 39.244C205.326 39.5746 205.345 39.844 205.345 40.052V44.876H203.393ZM197.401 44.876V36.236H199.121V38.916H199.353V44.876H197.401ZM215.508 45.116C214.356 45.116 213.369 44.8653 212.548 44.364C211.726 43.8573 211.094 43.1533 210.652 42.252C210.214 41.3506 209.996 40.3053 209.996 39.116C209.996 37.9266 210.214 36.8813 210.652 35.98C211.094 35.0786 211.726 34.3773 212.548 33.876C213.369 33.3693 214.356 33.116 215.508 33.116C216.66 33.116 217.646 33.3693 218.468 33.876C219.294 34.3773 219.926 35.0786 220.364 35.98C220.806 36.8813 221.028 37.9266 221.028 39.116C221.028 40.3053 220.806 41.3506 220.364 42.252C219.926 43.1533 219.294 43.8573 218.468 44.364C217.646 44.8653 216.66 45.116 215.508 45.116ZM215.508 43.3C216.281 43.3053 216.924 43.1346 217.436 42.788C217.953 42.4413 218.34 41.9533 218.596 41.324C218.857 40.6946 218.988 39.9586 218.988 39.116C218.988 38.2733 218.857 37.5426 218.596 36.924C218.34 36.3 217.953 35.8146 217.436 35.468C216.924 35.1213 216.281 34.9426 215.508 34.932C214.734 34.9266 214.092 35.0973 213.58 35.444C213.068 35.7906 212.681 36.2786 212.42 36.908C212.164 37.5373 212.036 38.2733 212.036 39.116C212.036 39.9586 212.164 40.692 212.42 41.316C212.676 41.9346 213.06 42.4173 213.572 42.764C214.089 43.1106 214.734 43.2893 215.508 43.3ZM222.143 44.876V42.9H224.119V44.876H222.143Z" fill="white"/>
<path d="M90.96 60.25V59.146H92.028V60.25H90.96ZM90.96 67.876V61.396H92.028V67.876H90.96ZM98.4423 67.876V64.63C98.4423 64.322 98.4143 64.026 98.3583 63.742C98.3063 63.458 98.2123 63.204 98.0763 62.98C97.9443 62.752 97.7643 62.572 97.5363 62.44C97.3123 62.308 97.0283 62.242 96.6843 62.242C96.4163 62.242 96.1723 62.288 95.9523 62.38C95.7363 62.468 95.5503 62.604 95.3943 62.788C95.2383 62.972 95.1163 63.204 95.0283 63.484C94.9443 63.76 94.9023 64.086 94.9023 64.462L94.2003 64.246C94.2003 63.618 94.3123 63.08 94.5363 62.632C94.7643 62.18 95.0823 61.834 95.4903 61.594C95.9023 61.35 96.3863 61.228 96.9423 61.228C97.3623 61.228 97.7203 61.294 98.0163 61.426C98.3123 61.558 98.5583 61.734 98.7543 61.954C98.9503 62.17 99.1043 62.414 99.2163 62.686C99.3283 62.954 99.4063 63.228 99.4503 63.508C99.4983 63.784 99.5223 64.046 99.5223 64.294V67.876H98.4423ZM93.8223 67.876V61.396H94.7823V63.13H94.9023V67.876H93.8223ZM103.485 67.876V59.236H104.565L109.071 65.986V59.236H110.151V67.876H109.071L104.565 61.12V67.876H103.485ZM111.948 60.25V59.146H113.016V60.25H111.948ZM111.948 67.876V61.396H113.016V67.876H111.948ZM117.439 70.936C117.099 70.936 116.767 70.884 116.443 70.78C116.119 70.676 115.821 70.518 115.549 70.306C115.281 70.098 115.057 69.834 114.877 69.514L115.855 68.998C116.015 69.314 116.241 69.544 116.533 69.688C116.829 69.832 117.133 69.904 117.445 69.904C117.857 69.904 118.199 69.828 118.471 69.676C118.743 69.528 118.943 69.306 119.071 69.01C119.203 68.714 119.267 68.346 119.263 67.906V66.136H119.389V61.396H120.337V67.918C120.337 68.094 120.331 68.264 120.319 68.428C120.311 68.592 120.291 68.754 120.259 68.914C120.175 69.374 120.009 69.752 119.761 70.048C119.513 70.348 119.193 70.57 118.801 70.714C118.409 70.862 117.955 70.936 117.439 70.936ZM117.361 68.056C116.757 68.056 116.239 67.906 115.807 67.606C115.375 67.302 115.041 66.892 114.805 66.376C114.573 65.86 114.457 65.278 114.457 64.63C114.457 63.982 114.573 63.4 114.805 62.884C115.041 62.368 115.375 61.962 115.807 61.666C116.239 61.366 116.755 61.216 117.355 61.216C117.967 61.216 118.481 61.364 118.897 61.66C119.313 61.956 119.627 62.362 119.839 62.878C120.055 63.394 120.163 63.978 120.163 64.63C120.163 65.274 120.055 65.856 119.839 66.376C119.627 66.892 119.313 67.302 118.897 67.606C118.481 67.906 117.969 68.056 117.361 68.056ZM117.493 67.078C117.929 67.078 118.287 66.974 118.567 66.766C118.847 66.554 119.053 66.264 119.185 65.896C119.321 65.524 119.389 65.102 119.389 64.63C119.389 64.15 119.321 63.728 119.185 63.364C119.053 62.996 118.849 62.71 118.573 62.506C118.297 62.298 117.947 62.194 117.523 62.194C117.083 62.194 116.719 62.302 116.431 62.518C116.147 62.734 115.935 63.026 115.795 63.394C115.659 63.762 115.591 64.174 115.591 64.63C115.591 65.09 115.661 65.506 115.801 65.878C115.941 66.246 116.151 66.538 116.431 66.754C116.715 66.97 117.069 67.078 117.493 67.078ZM124.82 68.056C124.184 68.056 123.628 67.916 123.152 67.636C122.68 67.352 122.312 66.958 122.048 66.454C121.784 65.946 121.652 65.354 121.652 64.678C121.652 63.97 121.782 63.358 122.042 62.842C122.302 62.322 122.664 61.922 123.128 61.642C123.596 61.358 124.144 61.216 124.772 61.216C125.424 61.216 125.978 61.366 126.434 61.666C126.894 61.966 127.238 62.394 127.466 62.95C127.698 63.506 127.798 64.168 127.766 64.936H126.686V64.552C126.674 63.756 126.512 63.162 126.2 62.77C125.888 62.374 125.424 62.176 124.808 62.176C124.148 62.176 123.646 62.388 123.302 62.812C122.958 63.236 122.786 63.844 122.786 64.636C122.786 65.4 122.958 65.992 123.302 66.412C123.646 66.832 124.136 67.042 124.772 67.042C125.2 67.042 125.572 66.944 125.888 66.748C126.204 66.552 126.452 66.27 126.632 65.902L127.658 66.256C127.406 66.828 127.026 67.272 126.518 67.588C126.014 67.9 125.448 68.056 124.82 68.056ZM122.426 64.936V64.078H127.214V64.936H122.426ZM129.102 67.876V61.396H130.056V62.962L129.9 62.758C129.976 62.558 130.074 62.374 130.194 62.206C130.318 62.038 130.456 61.9 130.608 61.792C130.776 61.656 130.966 61.552 131.178 61.48C131.39 61.408 131.606 61.366 131.826 61.354C132.046 61.338 132.252 61.352 132.444 61.396V62.398C132.22 62.338 131.974 62.322 131.706 62.35C131.438 62.378 131.19 62.476 130.962 62.644C130.754 62.792 130.592 62.972 130.476 63.184C130.364 63.396 130.286 63.626 130.242 63.874C130.198 64.118 130.176 64.368 130.176 64.624V67.876H129.102ZM133.698 60.25V59.146H134.766V60.25H133.698ZM133.698 67.876V61.396H134.766V67.876H133.698ZM138.409 68.056C137.925 68.056 137.519 67.968 137.191 67.792C136.867 67.612 136.621 67.376 136.453 67.084C136.289 66.792 136.207 66.472 136.207 66.124C136.207 65.784 136.271 65.49 136.399 65.242C136.531 64.99 136.715 64.782 136.951 64.618C137.187 64.45 137.469 64.318 137.797 64.222C138.105 64.138 138.449 64.066 138.829 64.006C139.213 63.942 139.601 63.884 139.993 63.832C140.385 63.78 140.751 63.73 141.091 63.682L140.707 63.904C140.719 63.328 140.603 62.902 140.359 62.626C140.119 62.35 139.703 62.212 139.111 62.212C138.719 62.212 138.375 62.302 138.079 62.482C137.787 62.658 137.581 62.946 137.461 63.346L136.447 63.04C136.603 62.472 136.905 62.026 137.353 61.702C137.801 61.378 138.391 61.216 139.123 61.216C139.711 61.216 140.215 61.322 140.635 61.534C141.059 61.742 141.363 62.058 141.547 62.482C141.639 62.682 141.697 62.9 141.721 63.136C141.745 63.368 141.757 63.612 141.757 63.868V67.876H140.809V66.322L141.031 66.466C140.787 66.99 140.445 67.386 140.005 67.654C139.569 67.922 139.037 68.056 138.409 68.056ZM138.571 67.162C138.955 67.162 139.287 67.094 139.567 66.958C139.851 66.818 140.079 66.636 140.251 66.412C140.423 66.184 140.535 65.936 140.587 65.668C140.647 65.468 140.679 65.246 140.683 65.002C140.691 64.754 140.695 64.564 140.695 64.432L141.067 64.594C140.719 64.642 140.377 64.688 140.041 64.732C139.705 64.776 139.387 64.824 139.087 64.876C138.787 64.924 138.517 64.982 138.277 65.05C138.101 65.106 137.935 65.178 137.779 65.266C137.627 65.354 137.503 65.468 137.407 65.608C137.315 65.744 137.269 65.914 137.269 66.118C137.269 66.294 137.313 66.462 137.401 66.622C137.493 66.782 137.633 66.912 137.821 67.012C138.013 67.112 138.263 67.162 138.571 67.162Z" fill="#8E9BAE"/>
<circle cx="161" cy="63.376" r="2" fill="#64748B"/>
<path d="M181.4 68.05C180.796 68.05 180.284 67.886 179.864 67.558C179.444 67.23 179.156 66.79 179 66.238L180.062 65.986C180.126 66.278 180.28 66.526 180.524 66.73C180.772 66.934 181.056 67.036 181.376 67.036C181.584 67.036 181.796 66.986 182.012 66.886C182.228 66.782 182.394 66.614 182.51 66.382C182.59 66.222 182.636 66.046 182.648 65.854C182.66 65.658 182.666 65.428 182.666 65.164V59.236H183.746V65.164C183.746 65.412 183.744 65.634 183.74 65.83C183.74 66.026 183.72 66.214 183.68 66.394C183.644 66.57 183.572 66.75 183.464 66.934C183.248 67.314 182.958 67.596 182.594 67.78C182.234 67.96 181.836 68.05 181.4 68.05ZM187.389 68.056C186.905 68.056 186.499 67.968 186.171 67.792C185.847 67.612 185.601 67.376 185.433 67.084C185.269 66.792 185.187 66.472 185.187 66.124C185.187 65.784 185.251 65.49 185.379 65.242C185.511 64.99 185.695 64.782 185.931 64.618C186.167 64.45 186.449 64.318 186.777 64.222C187.085 64.138 187.429 64.066 187.809 64.006C188.193 63.942 188.581 63.884 188.973 63.832C189.365 63.78 189.731 63.73 190.071 63.682L189.687 63.904C189.699 63.328 189.583 62.902 189.339 62.626C189.099 62.35 188.683 62.212 188.091 62.212C187.699 62.212 187.355 62.302 187.059 62.482C186.767 62.658 186.561 62.946 186.441 63.346L185.427 63.04C185.583 62.472 185.885 62.026 186.333 61.702C186.781 61.378 187.371 61.216 188.103 61.216C188.691 61.216 189.195 61.322 189.615 61.534C190.039 61.742 190.343 62.058 190.527 62.482C190.619 62.682 190.677 62.9 190.701 63.136C190.725 63.368 190.737 63.612 190.737 63.868V67.876H189.789V66.322L190.011 66.466C189.767 66.99 189.425 67.386 188.985 67.654C188.549 67.922 188.017 68.056 187.389 68.056ZM187.551 67.162C187.935 67.162 188.267 67.094 188.547 66.958C188.831 66.818 189.059 66.636 189.231 66.412C189.403 66.184 189.515 65.936 189.567 65.668C189.627 65.468 189.659 65.246 189.663 65.002C189.671 64.754 189.675 64.564 189.675 64.432L190.047 64.594C189.699 64.642 189.357 64.688 189.021 64.732C188.685 64.776 188.367 64.824 188.067 64.876C187.767 64.924 187.497 64.982 187.257 65.05C187.081 65.106 186.915 65.178 186.759 65.266C186.607 65.354 186.483 65.468 186.387 65.608C186.295 65.744 186.249 65.914 186.249 66.118C186.249 66.294 186.293 66.462 186.381 66.622C186.473 66.782 186.613 66.912 186.801 67.012C186.993 67.112 187.243 67.162 187.551 67.162ZM196.911 67.876V64.63C196.911 64.322 196.883 64.026 196.827 63.742C196.775 63.458 196.681 63.204 196.545 62.98C196.413 62.752 196.233 62.572 196.005 62.44C195.781 62.308 195.497 62.242 195.153 62.242C194.885 62.242 194.641 62.288 194.421 62.38C194.205 62.468 194.019 62.604 193.863 62.788C193.707 62.972 193.585 63.204 193.497 63.484C193.413 63.76 193.371 64.086 193.371 64.462L192.669 64.246C192.669 63.618 192.781 63.08 193.005 62.632C193.233 62.18 193.551 61.834 193.959 61.594C194.371 61.35 194.855 61.228 195.411 61.228C195.831 61.228 196.189 61.294 196.485 61.426C196.781 61.558 197.027 61.734 197.223 61.954C197.419 62.17 197.573 62.414 197.685 62.686C197.797 62.954 197.875 63.228 197.919 63.508C197.967 63.784 197.991 64.046 197.991 64.294V67.876H196.911ZM192.291 67.876V61.396H193.251V63.13H193.371V67.876H192.291ZM202.011 68.044C201.595 68.044 201.237 67.978 200.937 67.846C200.641 67.714 200.395 67.538 200.199 67.318C200.003 67.098 199.849 66.854 199.737 66.586C199.625 66.318 199.545 66.044 199.497 65.764C199.453 65.484 199.431 65.222 199.431 64.978V61.396H200.511V64.642C200.511 64.946 200.539 65.24 200.595 65.524C200.651 65.808 200.745 66.064 200.877 66.292C201.013 66.52 201.193 66.7 201.417 66.832C201.645 66.964 201.929 67.03 202.269 67.03C202.537 67.03 202.781 66.984 203.001 66.892C203.221 66.8 203.409 66.664 203.565 66.484C203.721 66.3 203.841 66.068 203.925 65.788C204.009 65.508 204.051 65.182 204.051 64.81L204.753 65.026C204.753 65.65 204.639 66.188 204.411 66.64C204.187 67.092 203.869 67.44 203.457 67.684C203.049 67.924 202.567 68.044 202.011 68.044ZM204.171 67.876V66.142H204.051V61.396H205.125V67.876H204.171ZM208.647 68.056C208.163 68.056 207.757 67.968 207.429 67.792C207.105 67.612 206.859 67.376 206.691 67.084C206.527 66.792 206.445 66.472 206.445 66.124C206.445 65.784 206.509 65.49 206.637 65.242C206.769 64.99 206.953 64.782 207.189 64.618C207.425 64.45 207.707 64.318 208.035 64.222C208.343 64.138 208.687 64.066 209.067 64.006C209.451 63.942 209.839 63.884 210.231 63.832C210.623 63.78 210.989 63.73 211.329 63.682L210.945 63.904C210.957 63.328 210.841 62.902 210.597 62.626C210.357 62.35 209.941 62.212 209.349 62.212C208.957 62.212 208.613 62.302 208.317 62.482C208.025 62.658 207.819 62.946 207.699 63.346L206.685 63.04C206.841 62.472 207.143 62.026 207.591 61.702C208.039 61.378 208.629 61.216 209.361 61.216C209.949 61.216 210.453 61.322 210.873 61.534C211.297 61.742 211.601 62.058 211.785 62.482C211.877 62.682 211.935 62.9 211.959 63.136C211.983 63.368 211.995 63.612 211.995 63.868V67.876H211.047V66.322L211.269 66.466C211.025 66.99 210.683 67.386 210.243 67.654C209.807 67.922 209.275 68.056 208.647 68.056ZM208.809 67.162C209.193 67.162 209.525 67.094 209.805 66.958C210.089 66.818 210.317 66.636 210.489 66.412C210.661 66.184 210.773 65.936 210.825 65.668C210.885 65.468 210.917 65.246 210.921 65.002C210.929 64.754 210.933 64.564 210.933 64.432L211.305 64.594C210.957 64.642 210.615 64.688 210.279 64.732C209.943 64.776 209.625 64.824 209.325 64.876C209.025 64.924 208.755 64.982 208.515 65.05C208.339 65.106 208.173 65.178 208.017 65.266C207.865 65.354 207.741 65.468 207.645 65.608C207.553 65.744 207.507 65.914 207.507 66.118C207.507 66.294 207.551 66.462 207.639 66.622C207.731 66.782 207.871 66.912 208.059 67.012C208.251 67.112 208.501 67.162 208.809 67.162ZM213.555 67.876V61.396H214.509V62.962L214.353 62.758C214.429 62.558 214.527 62.374 214.647 62.206C214.771 62.038 214.909 61.9 215.061 61.792C215.229 61.656 215.419 61.552 215.631 61.48C215.843 61.408 216.059 61.366 216.279 61.354C216.499 61.338 216.705 61.352 216.897 61.396V62.398C216.673 62.338 216.427 62.322 216.159 62.35C215.891 62.378 215.643 62.476 215.415 62.644C215.207 62.792 215.045 62.972 214.929 63.184C214.817 63.396 214.739 63.626 214.695 63.874C214.651 64.118 214.629 64.368 214.629 64.624V67.876H213.555ZM218.814 70.756L220.068 67.348L220.086 68.356L217.254 61.396H218.376L220.596 66.994H220.212L222.294 61.396H223.38L219.852 70.756H218.814ZM226.534 67.87L226.54 66.91L230.374 63.46C230.694 63.172 230.908 62.9 231.016 62.644C231.128 62.384 231.184 62.118 231.184 61.846C231.184 61.514 231.108 61.214 230.956 60.946C230.804 60.678 230.596 60.466 230.332 60.31C230.072 60.154 229.776 60.076 229.444 60.076C229.1 60.076 228.794 60.158 228.526 60.322C228.258 60.482 228.046 60.696 227.89 60.964C227.738 61.232 227.664 61.524 227.668 61.84H226.576C226.576 61.296 226.702 60.816 226.954 60.4C227.206 59.98 227.548 59.652 227.98 59.416C228.416 59.176 228.91 59.056 229.462 59.056C229.998 59.056 230.478 59.18 230.902 59.428C231.326 59.672 231.66 60.006 231.904 60.43C232.152 60.85 232.276 61.326 232.276 61.858C232.276 62.234 232.228 62.56 232.132 62.836C232.04 63.112 231.896 63.368 231.7 63.604C231.504 63.836 231.258 64.084 230.962 64.348L227.776 67.21L227.638 66.85H232.276V67.87H226.534ZM236.411 68.056C235.859 68.056 235.371 67.946 234.947 67.726C234.523 67.502 234.191 67.192 233.951 66.796C233.711 66.4 233.591 65.938 233.591 65.41C233.591 64.894 233.713 64.428 233.957 64.012C234.205 63.596 234.577 63.276 235.073 63.052L235.055 63.442C234.651 63.246 234.341 62.97 234.125 62.614C233.909 62.254 233.801 61.856 233.801 61.42C233.801 60.932 233.913 60.512 234.137 60.16C234.361 59.808 234.669 59.536 235.061 59.344C235.453 59.152 235.903 59.056 236.411 59.056C236.919 59.056 237.369 59.152 237.761 59.344C238.153 59.536 238.461 59.808 238.685 60.16C238.909 60.512 239.021 60.932 239.021 61.42C239.021 61.856 238.919 62.252 238.715 62.608C238.511 62.96 238.197 63.238 237.773 63.442L237.749 63.058C238.245 63.274 238.617 63.592 238.865 64.012C239.117 64.428 239.243 64.894 239.243 65.41C239.243 65.938 239.121 66.4 238.877 66.796C238.637 67.192 238.303 67.502 237.875 67.726C237.451 67.946 236.963 68.056 236.411 68.056ZM236.411 67.036C236.915 67.036 237.323 66.898 237.635 66.622C237.951 66.342 238.109 65.938 238.109 65.41C238.109 64.878 237.953 64.474 237.641 64.198C237.333 63.918 236.923 63.778 236.411 63.778C235.903 63.778 235.493 63.918 235.181 64.198C234.873 64.474 234.719 64.878 234.719 65.41C234.719 65.938 234.875 66.342 235.187 66.622C235.499 66.898 235.907 67.036 236.411 67.036ZM236.411 62.752C236.851 62.752 237.207 62.642 237.479 62.422C237.751 62.198 237.887 61.864 237.887 61.42C237.887 60.976 237.751 60.644 237.479 60.424C237.207 60.2 236.851 60.088 236.411 60.088C235.975 60.088 235.619 60.2 235.343 60.424C235.071 60.644 234.935 60.976 234.935 61.42C234.935 61.864 235.071 62.198 235.343 62.422C235.619 62.642 235.975 62.752 236.411 62.752ZM244.419 67.876C244.035 67.952 243.655 67.982 243.279 67.966C242.907 67.954 242.575 67.88 242.283 67.744C241.991 67.604 241.769 67.388 241.617 67.096C241.489 66.84 241.419 66.582 241.407 66.322C241.399 66.058 241.395 65.76 241.395 65.428V59.596H242.463V65.38C242.463 65.644 242.465 65.87 242.469 66.058C242.477 66.246 242.519 66.408 242.595 66.544C242.739 66.8 242.967 66.95 243.279 66.994C243.595 67.038 243.975 67.026 244.419 66.958V67.876ZM240.081 62.278V61.396H244.419V62.278H240.081ZM250.349 67.876V64.63C250.349 64.322 250.321 64.026 250.265 63.742C250.213 63.458 250.119 63.204 249.983 62.98C249.851 62.752 249.671 62.572 249.443 62.44C249.219 62.308 248.935 62.242 248.591 62.242C248.323 62.242 248.079 62.288 247.859 62.38C247.643 62.468 247.457 62.604 247.301 62.788C247.145 62.972 247.023 63.204 246.935 63.484C246.851 63.76 246.809 64.086 246.809 64.462L246.107 64.246C246.107 63.618 246.219 63.08 246.443 62.632C246.671 62.18 246.989 61.834 247.397 61.594C247.809 61.35 248.293 61.228 248.849 61.228C249.269 61.228 249.627 61.294 249.923 61.426C250.219 61.558 250.465 61.734 250.661 61.954C250.857 62.17 251.011 62.414 251.123 62.686C251.235 62.954 251.313 63.228 251.357 63.508C251.405 63.784 251.429 64.046 251.429 64.294V67.876H250.349ZM245.729 67.876V59.236H246.689V64.006H246.809V67.876H245.729Z" fill="#8E9BAE"/>
<rect x="352" y="36.7915" width="82" height="26.1689" rx="13.0845" fill="#2873FF"/>
<rect x="373" y="46.7915" width="40" height="6.16895" rx="3.08447" fill="#5892FF"/>
</g>
<defs>
<filter id="filter0_d_5100_42246" x="-25" y="-14.124" width="508" height="148" filterUnits="userSpaceOnUse" color-interpolation-filters="sRGB">
<feFlood flood-opacity="0" result="BackgroundImageFix"/>
<feColorMatrix in="SourceAlpha" type="matrix" values="0 0 0 0 0 0 0 0 0 0 0 0 0 0 0 0 0 0 127 0" result="hardAlpha"/>
<feOffset dy="10"/>
<feGaussianBlur stdDeviation="12.5"/>
<feComposite in2="hardAlpha" operator="out"/>
<feColorMatrix type="matrix" values="0 0 0 0 0.105882 0 0 0 0 0.145098 0 0 0 0 0.215686 0 0 0 0.05 0"/>
<feBlend mode="normal" in2="BackgroundImageFix" result="effect1_dropShadow_5100_42246"/>
<feBlend mode="normal" in="SourceGraphic" in2="effect1_dropShadow_5100_42246" result="shape"/>
</filter>
<linearGradient id="paint0_linear_5100_42246" x1="0" y1="0.875977" x2="458" y2="98.876" gradientUnits="userSpaceOnUse">
<stop stop-color="#64748B"/>
<stop offset="0.555" stop-color="#64748B" stop-opacity="0"/>
<stop offset="1" stop-color="#64748B" stop-opacity="0.35"/>
</linearGradient>
</defs>
</svg>
