<svg width="71" height="66" viewBox="0 0 71 66" fill="none" xmlns="http://www.w3.org/2000/svg">
<path d="M8.76145 49.1871C7.26535 50.0912 5.30632 49.6738 4.46702 48.1405C2.10724 43.8292 0.777967 39.0681 0.5909 34.194C0.364461 28.2942 1.81991 22.4451 4.8055 17.2565C7.79109 12.068 12.1975 7.73003 17.5653 4.69493C22.933 1.65983 29.0656 0.0387405 35.3236 0.000685586C41.5816 -0.0373694 47.7358 1.509 53.1446 4.47857C58.5535 7.44814 63.0188 11.7322 66.075 16.884C69.1313 22.0358 70.6665 27.8667 70.5207 33.7688C70.4003 38.6426 69.1373 43.4176 66.8384 47.7557C66.019 49.302 64.063 49.7452 62.5539 48.8589C60.929 47.9046 60.4567 45.7888 61.2783 44.0929C62.8675 40.8126 63.7406 37.251 63.8303 33.6217C63.9482 28.8488 62.7066 24.1333 60.2351 19.9671C57.7635 15.8009 54.1525 12.3365 49.7784 9.93502C45.4044 7.53356 40.4275 6.28302 35.3668 6.3138C30.306 6.34457 25.3466 7.65553 21.0058 10.11C16.6649 12.5644 13.1015 16.0725 10.6871 20.2684C8.27266 24.4644 7.09565 29.1945 7.27877 33.9656C7.41804 37.5943 8.3402 41.1457 9.97476 44.4071C10.8189 46.0913 10.3739 48.2128 8.76145 49.1871Z" fill="#0CAF60"/>
<path d="M8.76145 49.1871C7.26535 50.0912 5.30636 49.6739 4.46707 48.1405C2.86384 45.2115 1.73202 42.0671 1.11456 38.8107C0.305674 34.5448 0.395383 30.1704 1.37857 25.9372C2.36175 21.704 4.21915 17.6949 6.84473 14.1389C9.4703 10.5829 12.8126 7.5495 16.6809 5.21201C20.5491 2.87453 24.8675 1.27869 29.3895 0.515614C33.9115 -0.247463 38.5486 -0.162834 43.0359 0.764668C47.5233 1.69217 51.773 3.44438 55.5425 5.92126C58.3254 7.74981 60.8062 9.94687 62.9113 12.44C64.1267 13.8795 63.651 16.0187 62.0386 16.9931C60.5425 17.8971 58.6153 17.4565 57.4722 16.1341C55.8144 14.2164 53.8786 12.5217 51.7176 11.1017C48.6692 9.09868 45.2325 7.68168 41.6036 6.93162C37.9748 6.18156 34.2248 6.11312 30.5679 6.73021C26.911 7.34731 23.4188 8.63784 20.2906 10.5281C17.1623 12.4184 14.4594 14.8715 12.3362 17.7472C10.2129 20.6229 8.71084 23.865 7.91574 27.2884C7.12065 30.7117 7.04811 34.2493 7.70225 37.6991C8.14326 40.0249 8.90875 42.2801 9.97479 44.4071C10.8189 46.0914 10.3739 48.2128 8.76145 49.1871Z" fill="#FB774A"/>
<path d="M8.76145 49.1871C7.26535 50.0912 5.30629 49.6738 4.46698 48.1404C1.59538 42.8942 0.259099 36.9985 0.628066 31.0669C0.998126 25.1177 3.06731 19.3936 6.58858 14.4906C7.59847 13.0844 9.57209 12.9005 10.9413 13.9599C12.4259 15.1086 12.6201 17.2611 11.5811 18.8244C9.06673 22.6079 7.58836 26.9429 7.30882 31.4367C7.02991 35.9206 7.95595 40.3791 9.97471 44.407C10.8189 46.0913 10.3739 48.2128 8.76145 49.1871Z" fill="#D7372E"/>
<path d="M16.2232 36.5405L34.939 28.2695C36.8777 27.4127 39.1695 28.4983 39.7467 30.5468C40.3239 32.5954 38.91 34.6251 36.7806 34.8049L16.2232 36.5405Z" fill="#D9D9D9"/>
</svg>
