<svg width="508" height="239" viewBox="0 0 508 239" fill="none" xmlns="http://www.w3.org/2000/svg">
<g clip-path="url(#clip0_4140_72545)">
<g filter="url(#filter0_d_4140_72545)">
<path d="M0 41.5401C0 31.3007 8.30071 23 18.5401 23H284.591C294.831 23 303.131 31.3007 303.131 41.5401V137.949C303.131 148.188 294.831 156.489 284.591 156.489H18.5401C8.30066 156.489 0 148.188 0 137.949V41.5401Z" fill="url(#paint0_linear_4140_72545)"/>
</g>
<path opacity="0.6" d="M23.1566 59.2485V49.9043H26.7646C27.288 49.9043 27.7444 50.0125 28.1337 50.2288C28.5231 50.4451 28.8259 50.7371 29.0422 51.1048C29.2585 51.4682 29.3667 51.8705 29.3667 52.3117C29.3667 52.8136 29.2326 53.2613 28.9643 53.655C28.6961 54.0443 28.3371 54.3147 27.8872 54.4661L27.8742 54.1481C28.4798 54.3212 28.9557 54.624 29.3018 55.0566C29.6479 55.4892 29.8209 56.0127 29.8209 56.627C29.8209 57.1677 29.7063 57.6349 29.477 58.0286C29.2477 58.4179 28.9254 58.7186 28.5101 58.9306C28.0948 59.1425 27.6125 59.2485 27.0631 59.2485H23.1566ZM24.117 58.3336H26.8294C27.2101 58.3336 27.5519 58.2665 27.8547 58.1324C28.1575 57.994 28.3955 57.7993 28.5685 57.5484C28.7459 57.2975 28.8346 56.9947 28.8346 56.6399C28.8346 56.2939 28.7545 55.9824 28.5945 55.7055C28.4344 55.4286 28.2159 55.208 27.9391 55.0436C27.6665 54.8749 27.3551 54.7906 27.0047 54.7906H24.117V58.3336ZM24.117 53.8886H26.7581C27.0566 53.8886 27.3291 53.8215 27.5757 53.6874C27.8223 53.549 28.0169 53.3608 28.1597 53.1229C28.3068 52.8849 28.3803 52.6102 28.3803 52.2988C28.3803 51.8575 28.2268 51.4984 27.9196 51.2216C27.6168 50.9447 27.2296 50.8063 26.7581 50.8063H24.117V53.8886ZM33.121 59.4432C32.5932 59.4432 32.1498 59.348 31.7907 59.1577C31.436 58.9673 31.1699 58.7143 30.9926 58.3985C30.8152 58.0827 30.7265 57.7387 30.7265 57.3667C30.7265 56.986 30.8022 56.6616 30.9536 56.3934C31.1094 56.1208 31.3192 55.898 31.5831 55.725C31.8513 55.5519 32.1606 55.42 32.511 55.3291C32.8658 55.2426 33.2573 55.1669 33.6855 55.102C34.1181 55.0328 34.5399 54.9744 34.9509 54.9268C35.3662 54.8749 35.7296 54.8252 36.0411 54.7776L35.7036 54.9852C35.7166 54.2931 35.5825 53.7804 35.3013 53.4473C35.0201 53.1142 34.5313 52.9477 33.8348 52.9477C33.3546 52.9477 32.9479 53.0558 32.6148 53.2721C32.2861 53.4884 32.0546 53.8302 31.9205 54.2974L30.9926 54.0248C31.1526 53.3976 31.4749 52.9109 31.9594 52.5648C32.444 52.2187 33.0734 52.0457 33.8478 52.0457C34.488 52.0457 35.0309 52.1668 35.4765 52.4091C35.9264 52.647 36.2444 52.9931 36.4304 53.4473C36.5169 53.6506 36.5732 53.8778 36.5991 54.1287C36.6251 54.3796 36.6381 54.6348 36.6381 54.8944V59.2485H35.788V57.49L36.0346 57.5938C35.7966 58.1951 35.4268 58.6537 34.9249 58.9695C34.4231 59.2853 33.8218 59.4432 33.121 59.4432ZM33.2313 58.6191C33.6769 58.6191 34.0662 58.5391 34.3993 58.379C34.7324 58.2189 35.0006 58.0005 35.204 57.7236C35.4073 57.4424 35.5392 57.1266 35.5998 56.7762C35.6517 56.5513 35.6798 56.3047 35.6842 56.0365C35.6885 55.7639 35.6907 55.5606 35.6907 55.4265L36.054 55.6147C35.7296 55.6579 35.377 55.7012 34.9963 55.7444C34.62 55.7877 34.2479 55.8375 33.8802 55.8937C33.5168 55.9499 33.188 56.017 32.8939 56.0949C32.6949 56.1511 32.5024 56.2311 32.3163 56.335C32.1303 56.4344 31.9768 56.5686 31.8556 56.7373C31.7388 56.906 31.6804 57.1158 31.6804 57.3667C31.6804 57.57 31.7302 57.7669 31.8297 57.9572C31.9335 58.1476 32.0979 58.3055 32.3228 58.4309C32.5521 58.5564 32.8549 58.6191 33.2313 58.6191ZM38.4571 59.2485V49.7096H39.411V59.2485H38.4571ZM43.3615 59.4432C42.8337 59.4432 42.3903 59.348 42.0313 59.1577C41.6765 58.9673 41.4105 58.7143 41.2331 58.3985C41.0557 58.0827 40.9671 57.7387 40.9671 57.3667C40.9671 56.986 41.0428 56.6616 41.1942 56.3934C41.3499 56.1208 41.5597 55.898 41.8236 55.725C42.0918 55.5519 42.4011 55.42 42.7516 55.3291C43.1063 55.2426 43.4978 55.1669 43.9261 55.102C44.3587 55.0328 44.7805 54.9744 45.1914 54.9268C45.6067 54.8749 45.9701 54.8252 46.2816 54.7776L45.9442 54.9852C45.9571 54.2931 45.823 53.7804 45.5418 53.4473C45.2607 53.1142 44.7718 52.9477 44.0753 52.9477C43.5951 52.9477 43.1885 53.0558 42.8554 53.2721C42.5266 53.4884 42.2952 53.8302 42.161 54.2974L41.2331 54.0248C41.3932 53.3976 41.7155 52.9109 42.2 52.5648C42.6845 52.2187 43.3139 52.0457 44.0883 52.0457C44.7285 52.0457 45.2715 52.1668 45.717 52.4091C46.167 52.647 46.4849 52.9931 46.6709 53.4473C46.7575 53.6506 46.8137 53.8778 46.8397 54.1287C46.8656 54.3796 46.8786 54.6348 46.8786 54.8944V59.2485H46.0285V57.49L46.2751 57.5938C46.0372 58.1951 45.6673 58.6537 45.1655 58.9695C44.6637 59.2853 44.0623 59.4432 43.3615 59.4432ZM43.4718 58.6191C43.9174 58.6191 44.3068 58.5391 44.6399 58.379C44.973 58.2189 45.2412 58.0005 45.4445 57.7236C45.6478 57.4424 45.7798 57.1266 45.8403 56.7762C45.8923 56.5513 45.9204 56.3047 45.9247 56.0365C45.929 55.7639 45.9312 55.5606 45.9312 55.4265L46.2946 55.6147C45.9701 55.6579 45.6175 55.7012 45.2369 55.7444C44.8605 55.7877 44.4885 55.8375 44.1207 55.8937C43.7574 55.9499 43.4286 56.017 43.1344 56.0949C42.9354 56.1511 42.7429 56.2311 42.5569 56.335C42.3709 56.4344 42.2173 56.5686 42.0962 56.7373C41.9794 56.906 41.921 57.1158 41.921 57.3667C41.921 57.57 41.9707 57.7669 42.0702 57.9572C42.174 58.1476 42.3384 58.3055 42.5634 58.4309C42.7926 58.5564 43.0955 58.6191 43.4718 58.6191ZM53.6293 59.2485V55.6731C53.6293 55.2837 53.5926 54.9268 53.519 54.6024C53.4455 54.2736 53.3265 53.9881 53.1621 53.7458C53.0021 53.4992 52.7922 53.3089 52.5327 53.1748C52.2774 53.0407 51.966 52.9736 51.5983 52.9736C51.2608 52.9736 50.9623 53.032 50.7028 53.1488C50.4475 53.2656 50.2312 53.4343 50.0539 53.655C49.8808 53.8713 49.7489 54.1352 49.658 54.4466C49.5672 54.7581 49.5218 55.1128 49.5218 55.5108L48.8469 55.3616C48.8469 54.6435 48.9724 54.04 49.2233 53.5511C49.4742 53.0623 49.8203 52.6924 50.2615 52.4415C50.7028 52.1906 51.2089 52.0652 51.78 52.0652C52.1996 52.0652 52.5651 52.13 52.8766 52.2598C53.1924 52.3896 53.4585 52.5648 53.6748 52.7854C53.8954 53.0061 54.0727 53.2591 54.2069 53.5447C54.341 53.8259 54.4383 54.1265 54.4989 54.4466C54.5594 54.7624 54.5897 55.0782 54.5897 55.394V59.2485H53.6293ZM48.5614 59.2485V52.2404H49.4244V53.9664H49.5218V59.2485H48.5614ZM59.1427 59.4432C58.4375 59.4432 57.8406 59.2853 57.3517 58.9695C56.8629 58.6537 56.4908 58.2189 56.2356 57.6652C55.9847 57.1071 55.8549 56.4669 55.8463 55.7444C55.8549 55.009 55.989 54.3644 56.2486 53.8107C56.5081 53.2527 56.8823 52.82 57.3712 52.5129C57.86 52.2014 58.4527 52.0457 59.1492 52.0457C59.8587 52.0457 60.4751 52.2187 60.9986 52.5648C61.5263 52.9109 61.8876 53.3846 62.0822 53.9859L61.1478 54.2844C60.9834 53.8648 60.7217 53.5403 60.3626 53.3111C60.0079 53.0774 59.6013 52.9606 59.1427 52.9606C58.6279 52.9606 58.2018 53.0796 57.8643 53.3175C57.5269 53.5511 57.276 53.8778 57.1116 54.2974C56.9472 54.717 56.8629 55.1994 56.8585 55.7444C56.8672 56.5837 57.0619 57.2586 57.4426 57.769C57.8233 58.2752 58.39 58.5283 59.1427 58.5283C59.6186 58.5283 60.023 58.4201 60.3561 58.2038C60.6936 57.9832 60.9488 57.663 61.1219 57.2434L62.0822 57.5289C61.8227 58.1519 61.442 58.6277 60.9402 58.9565C60.4383 59.281 59.8392 59.4432 59.1427 59.4432ZM66.1971 59.4432C65.5136 59.4432 64.9209 59.2918 64.4191 58.989C63.9216 58.6862 63.5344 58.26 63.2576 57.7106C62.9807 57.1612 62.8423 56.5166 62.8423 55.7769C62.8423 55.0112 62.9785 54.3493 63.2511 53.7912C63.5236 53.2332 63.9065 52.8027 64.3996 52.4999C64.8971 52.1971 65.4833 52.0457 66.1582 52.0457C66.8503 52.0457 67.4408 52.2058 67.9297 52.5259C68.4185 52.8417 68.7884 53.2959 69.0393 53.8886C69.2902 54.4812 69.4049 55.1886 69.3832 56.0105H68.4099V55.6731C68.3926 54.7646 68.1957 54.0789 67.8194 53.616C67.4473 53.1532 66.9022 52.9217 66.1841 52.9217C65.4314 52.9217 64.8539 53.1661 64.4515 53.655C64.0536 54.1438 63.8546 54.8403 63.8546 55.7444C63.8546 56.627 64.0536 57.3126 64.4515 57.8015C64.8539 58.286 65.4227 58.5283 66.1582 58.5283C66.66 58.5283 67.0969 58.4136 67.469 58.1843C67.8453 57.9507 68.1417 57.6155 68.358 57.1785L69.247 57.5224C68.9701 58.1324 68.5613 58.6061 68.0205 58.9435C67.4841 59.2767 66.8763 59.4432 66.1971 59.4432ZM63.5171 56.0105V55.2123H68.8706V56.0105H63.5171Z" fill="white"/>
<path d="M29.9015 102.171V98.6113H33.9359V102.171H29.9015ZM29.9015 78.4693V74.9096H33.9359V78.4693H29.9015ZM31.9484 99.6496C30.4157 99.6496 29.0462 99.3677 27.8399 98.8041C26.6335 98.2306 25.6497 97.4247 24.8883 96.3865C24.1269 95.3384 23.6424 94.1023 23.4347 92.6785L27.4394 92.0555C27.7064 93.2223 28.2651 94.1518 29.1154 94.8439C29.9757 95.5361 30.9991 95.8822 32.1857 95.8822C33.303 95.8822 34.2276 95.6202 34.9593 95.0961C35.7009 94.572 36.0717 93.9244 36.0717 93.1531C36.0717 92.629 35.9086 92.1989 35.5823 91.8627C35.2658 91.5166 34.7665 91.2348 34.0842 91.0173L28.804 89.3857C25.7584 88.4464 24.2357 86.5874 24.2357 83.8089C24.2357 82.5036 24.5422 81.3714 25.1553 80.4123C25.7782 79.4532 26.6533 78.7165 27.7806 78.2023C28.9177 77.6782 30.2575 77.4212 31.8001 77.431C33.2141 77.4508 34.4698 77.7079 35.5674 78.2023C36.665 78.6868 37.5796 79.3938 38.3114 80.3233C39.053 81.2429 39.5919 82.3652 39.9281 83.6902L35.7751 84.4318C35.6366 83.799 35.3795 83.2452 35.0038 82.7706C34.6281 82.2861 34.1584 81.9103 33.5947 81.6434C33.041 81.3665 32.423 81.2182 31.7407 81.1984C31.0881 81.1786 30.4948 81.2726 29.9609 81.4802C29.4368 81.6879 29.0166 81.9796 28.7001 82.3553C28.3936 82.7212 28.2404 83.1365 28.2404 83.6012C28.2404 84.1154 28.4579 84.5603 28.893 84.9361C29.328 85.302 30.0202 85.6184 30.9695 85.8853L34.7368 86.9533C36.6254 87.4971 37.9851 88.2338 38.8157 89.1632C39.6561 90.0927 40.0764 91.3238 40.0764 92.8564C40.0764 94.2012 39.7352 95.3828 39.053 96.4013C38.3707 97.4198 37.4165 98.2158 36.1904 98.7893C34.9741 99.3628 33.5601 99.6496 31.9484 99.6496ZM49.6765 99.6496C48.5987 99.6496 47.5851 99.4271 46.6359 98.9821C45.6965 98.5371 44.8857 97.9191 44.2034 97.1281C43.5211 96.337 43.0317 95.4175 42.735 94.3693L46.6211 93.3311C46.7496 93.8354 46.977 94.2704 47.3033 94.6363C47.6395 95.0022 48.0252 95.2889 48.4602 95.4966C48.9052 95.6943 49.3601 95.7932 49.8248 95.7932C50.4379 95.7932 50.9965 95.6449 51.5008 95.3482C52.015 95.0516 52.4204 94.6511 52.7171 94.1468C53.0236 93.6425 53.1768 93.0839 53.1768 92.4708C53.1768 91.8577 53.0236 91.2991 52.7171 90.7948C52.4204 90.2905 52.015 89.89 51.5008 89.5934C50.9965 89.2967 50.4379 89.1484 49.8248 89.1484C49.0733 89.1484 48.4602 89.277 47.9856 89.534C47.511 89.7813 47.155 90.0186 46.9177 90.246L43.5063 89.2077L44.1589 77.8463H55.817V81.6137H46.3837L47.8076 80.2788L47.3627 87.6059L46.6804 86.7753C47.2143 86.3402 47.8225 86.0238 48.5047 85.826C49.187 85.6283 49.8248 85.5294 50.4181 85.5294C51.7629 85.5294 52.9445 85.831 53.963 86.4341C54.9913 87.0274 55.7922 87.8481 56.3658 88.8963C56.9492 89.9345 57.2409 91.126 57.2409 92.4708C57.2409 93.8156 56.8898 95.0318 56.1878 96.1195C55.4857 97.1973 54.5612 98.0576 53.4142 98.7003C52.2671 99.3331 51.0212 99.6496 49.6765 99.6496ZM67.6491 77.431C69.0631 77.431 70.3287 77.7623 71.4461 78.4248C72.5733 79.0873 73.4632 80.0118 74.1159 81.1984C74.7685 82.3751 75.0948 83.7396 75.0948 85.2921V91.4919C75.0948 93.1729 74.7685 94.6264 74.1159 95.8525C73.4632 97.0688 72.5437 98.0081 71.3571 98.6706C70.1705 99.3232 68.7763 99.6496 67.1744 99.6496C66.1362 99.6496 65.1474 99.4963 64.208 99.1898C63.2785 98.8733 62.4183 98.3542 61.6272 97.6324L64.5046 94.755C64.8606 95.1109 65.271 95.3878 65.7357 95.5856C66.2103 95.7833 66.6899 95.8822 67.1744 95.8822C67.9457 95.8822 68.6131 95.7042 69.1768 95.3482C69.7503 94.9824 70.1903 94.5127 70.4968 93.9392C70.8132 93.3558 70.9715 92.7378 70.9715 92.0852V88.9111L71.6537 89.6527C71.0506 90.2757 70.3436 90.7552 69.5327 91.0914C68.7219 91.4177 67.8864 91.5809 67.0261 91.5809C65.6813 91.5809 64.4948 91.2793 63.4664 90.6761C62.4479 90.0729 61.647 89.2473 61.0636 88.1992C60.4901 87.151 60.2033 85.9546 60.2033 84.6098C60.2033 83.265 60.5445 82.0537 61.2268 80.9759C61.909 79.8882 62.8138 79.028 63.941 78.3951C65.0683 77.7524 66.3043 77.431 67.6491 77.431ZM67.6491 81.2874C67.036 81.2874 66.4724 81.4357 65.9582 81.7324C65.4539 82.029 65.0485 82.4295 64.742 82.9338C64.4453 83.438 64.297 83.9967 64.297 84.6098C64.297 85.2228 64.4453 85.7865 64.742 86.3006C65.0386 86.8049 65.4391 87.2104 65.9434 87.5169C66.4477 87.8135 67.0063 87.9618 67.6194 87.9618C68.2325 87.9618 68.7911 87.8135 69.2954 87.5169C69.8096 87.2104 70.215 86.8049 70.5117 86.3006C70.8182 85.7865 70.9715 85.2228 70.9715 84.6098C70.9715 84.0165 70.8231 83.4677 70.5265 82.9634C70.2298 82.4591 69.8294 82.0537 69.3251 81.7472C68.8208 81.4407 68.2621 81.2874 67.6491 81.2874ZM87.1702 99.6496C85.5881 99.6496 84.2038 99.3183 83.0172 98.6558C81.8306 97.9933 80.9061 97.0688 80.2436 95.8822C79.5811 94.6956 79.2499 93.3113 79.2499 91.7292V85.3217C79.2499 83.7396 79.5811 82.3553 80.2436 81.1687C80.9061 79.9822 81.8306 79.0576 83.0172 78.3951C84.2038 77.7326 85.5881 77.4014 87.1702 77.4014C88.7523 77.4014 90.1366 77.7326 91.3232 78.3951C92.5098 79.0576 93.4343 79.9822 94.0968 81.1687C94.7593 82.3553 95.0906 83.7396 95.0906 85.3217V91.7292C95.0906 93.3113 94.7593 94.6956 94.0968 95.8822C93.4343 97.0688 92.5098 97.9933 91.3232 98.6558C90.1366 99.3183 88.7523 99.6496 87.1702 99.6496ZM87.1702 95.8229C87.8822 95.8229 88.5249 95.6548 89.0984 95.3186C89.6719 94.9824 90.1267 94.5275 90.4629 93.954C90.7991 93.3805 90.9672 92.7378 90.9672 92.0258V84.9954C90.9672 84.2835 90.7991 83.6408 90.4629 83.0672C90.1267 82.4937 89.6719 82.0389 89.0984 81.7027C88.5249 81.3665 87.8822 81.1984 87.1702 81.1984C86.4583 81.1984 85.8155 81.3665 85.242 81.7027C84.6685 82.0389 84.2137 82.4937 83.8775 83.0672C83.5413 83.6408 83.3732 84.2835 83.3732 84.9954V92.0258C83.3732 92.7378 83.5413 93.3805 83.8775 93.954C84.2137 94.5275 84.6685 94.9824 85.242 95.3186C85.8155 95.6548 86.4583 95.8229 87.1702 95.8229ZM98.9418 103.209L99.1791 101.518C99.6538 101.558 100.039 101.479 100.336 101.281C100.633 101.093 100.835 100.816 100.944 100.45C101.063 100.095 101.088 99.6792 101.018 99.2046H98.9418V95.1703H102.976V99.2046C102.976 100.628 102.645 101.706 101.982 102.438C101.32 103.17 100.306 103.427 98.9418 103.209ZM115.477 77.431C116.891 77.431 118.157 77.7623 119.274 78.4248C120.401 79.0873 121.291 80.0118 121.944 81.1984C122.596 82.3751 122.923 83.7396 122.923 85.2921V91.4919C122.923 93.1729 122.596 94.6264 121.944 95.8525C121.291 97.0688 120.371 98.0081 119.185 98.6706C117.998 99.3232 116.604 99.6496 115.002 99.6496C113.964 99.6496 112.975 99.4963 112.036 99.1898C111.106 98.8733 110.246 98.3542 109.455 97.6324L112.332 94.755C112.688 95.1109 113.099 95.3878 113.563 95.5856C114.038 95.7833 114.518 95.8822 115.002 95.8822C115.773 95.8822 116.441 95.7042 117.005 95.3482C117.578 94.9824 118.018 94.5127 118.325 93.9392C118.641 93.3558 118.799 92.7378 118.799 92.0852V88.9111L119.482 89.6527C118.878 90.2757 118.171 90.7552 117.361 91.0914C116.55 91.4177 115.714 91.5809 114.854 91.5809C113.509 91.5809 112.323 91.2793 111.294 90.6761C110.276 90.0729 109.475 89.2473 108.891 88.1992C108.318 87.151 108.031 85.9546 108.031 84.6098C108.031 83.265 108.372 82.0537 109.055 80.9759C109.737 79.8882 110.642 79.028 111.769 78.3951C112.896 77.7524 114.132 77.431 115.477 77.431ZM115.477 81.2874C114.864 81.2874 114.3 81.4357 113.786 81.7324C113.282 82.029 112.876 82.4295 112.57 82.9338C112.273 83.438 112.125 83.9967 112.125 84.6098C112.125 85.2228 112.273 85.7865 112.57 86.3006C112.866 86.8049 113.267 87.2104 113.771 87.5169C114.275 87.8135 114.834 87.9618 115.447 87.9618C116.06 87.9618 116.619 87.8135 117.123 87.5169C117.637 87.2104 118.043 86.8049 118.339 86.3006C118.646 85.7865 118.799 85.2228 118.799 84.6098C118.799 84.0165 118.651 83.4677 118.354 82.9634C118.058 82.4591 117.657 82.0537 117.153 81.7472C116.649 81.4407 116.09 81.2874 115.477 81.2874ZM134.227 99.6496C132.783 99.6496 131.498 99.3579 130.37 98.7745C129.253 98.1812 128.373 97.3704 127.73 96.342C127.097 95.3037 126.781 94.1221 126.781 92.7971C126.781 91.6699 127.033 90.6069 127.537 89.6082C128.052 88.6095 128.788 87.7937 129.747 87.1609L129.658 88.4068C128.937 87.7048 128.368 86.9631 127.953 86.182C127.547 85.4008 127.345 84.5208 127.345 83.5419C127.345 82.3059 127.636 81.2281 128.22 80.3085C128.813 79.3889 129.624 78.6769 130.652 78.1726C131.69 77.6585 132.882 77.4014 134.227 77.4014C135.572 77.4014 136.758 77.6585 137.786 78.1726C138.825 78.6769 139.636 79.3889 140.219 80.3085C140.812 81.2281 141.109 82.3059 141.109 83.5419C141.109 84.5208 140.916 85.4008 140.53 86.182C140.145 86.9533 139.556 87.7048 138.765 88.4365V87.1906C139.705 87.7839 140.427 88.5848 140.931 89.5934C141.445 90.602 141.702 91.6699 141.702 92.7971C141.702 94.1221 141.381 95.3037 140.738 96.342C140.095 97.3704 139.21 98.1812 138.083 98.7745C136.956 99.3579 135.67 99.6496 134.227 99.6496ZM134.227 95.8525C135.176 95.8525 135.947 95.5954 136.541 95.0813C137.134 94.5671 137.43 93.8057 137.43 92.7971C137.43 91.7984 137.134 91.037 136.541 90.513C135.947 89.979 135.176 89.712 134.227 89.712C133.277 89.712 132.511 89.979 131.928 90.513C131.344 91.037 131.053 91.7984 131.053 92.7971C131.053 93.8057 131.344 94.5671 131.928 95.0813C132.511 95.5954 133.277 95.8525 134.227 95.8525ZM134.227 85.8853C134.998 85.8853 135.626 85.6975 136.11 85.3217C136.595 84.9361 136.837 84.3428 136.837 83.5419C136.837 82.7409 136.595 82.1477 136.11 81.762C135.626 81.3665 134.998 81.1687 134.227 81.1687C133.455 81.1687 132.828 81.3665 132.343 81.762C131.859 82.1477 131.616 82.7409 131.616 83.5419C131.616 84.3428 131.859 84.9361 132.343 85.3217C132.828 85.6975 133.455 85.8853 134.227 85.8853ZM146.628 99.2046L153.807 81.6434H144.67V77.8463H158.137V81.6434L150.988 99.2046H146.628Z" fill="white"/>
<g opacity="0.6">
<path d="M91.7583 54.5185C91.7583 56.0481 90.5223 57.2841 88.9927 57.2841C87.4631 57.2841 86.2271 56.0481 86.2271 54.5185C86.2271 52.9889 87.4631 51.7529 88.9927 51.7529C90.5223 51.7529 91.7583 52.9889 91.7583 54.5185Z" stroke="white" stroke-width="1.39051" stroke-linecap="round" stroke-linejoin="round"/>
<path d="M88.9927 60.9075C91.7197 60.9075 94.2612 59.3007 96.0302 56.5197C96.7255 55.4305 96.7255 53.5996 96.0302 52.5104C94.2612 49.7294 91.7197 48.1226 88.9927 48.1226C86.2658 48.1226 83.7242 49.7294 81.9552 52.5104C81.2599 53.5996 81.2599 55.4305 81.9552 56.5197C83.7242 59.3007 86.2658 60.9075 88.9927 60.9075Z" stroke="white" stroke-width="1.39051" stroke-linecap="round" stroke-linejoin="round"/>
</g>
<g opacity="0.8">
<path d="M25.1404 122.38V121.112H25.9581V122.38H25.1404ZM25.1404 113.442V112.168H25.9581V113.442H25.1404ZM25.6466 121.452C25.1163 121.452 24.638 121.357 24.2116 121.168C23.7889 120.979 23.4385 120.712 23.1604 120.367C22.886 120.022 22.7061 119.614 22.6208 119.143L23.4162 119.004C23.5386 119.516 23.8018 119.922 24.206 120.222C24.6139 120.519 25.1052 120.667 25.68 120.667C26.2621 120.667 26.733 120.526 27.0927 120.245C27.4524 119.959 27.6322 119.586 27.6322 119.127C27.6322 118.785 27.5321 118.513 27.3319 118.309C27.1317 118.105 26.7924 117.931 26.314 117.786L24.5342 117.23C23.4588 116.893 22.9212 116.255 22.9212 115.317C22.9212 114.879 23.0287 114.495 23.2438 114.165C23.4626 113.832 23.7648 113.572 24.1504 113.387C24.5397 113.201 24.994 113.11 25.5131 113.114C26.0211 113.114 26.4753 113.21 26.8758 113.403C27.28 113.592 27.6118 113.861 27.8714 114.21C28.131 114.558 28.3034 114.972 28.3887 115.45L27.5711 115.606C27.5191 115.265 27.3986 114.966 27.2095 114.71C27.0241 114.454 26.785 114.256 26.492 114.115C26.1991 113.971 25.8728 113.896 25.5131 113.893C25.172 113.893 24.8679 113.952 24.6009 114.071C24.3339 114.189 24.1226 114.354 23.9668 114.566C23.8148 114.773 23.7388 115.013 23.7388 115.283C23.7388 115.58 23.8445 115.832 24.0558 116.04C24.2709 116.244 24.6102 116.416 25.0737 116.557L26.6033 117.019C27.2485 117.211 27.7138 117.471 27.9993 117.797C28.2848 118.124 28.4276 118.559 28.4276 119.104C28.4276 119.575 28.3127 119.987 28.0828 120.339C27.8529 120.691 27.5284 120.966 27.1094 121.162C26.6941 121.355 26.2065 121.452 25.6466 121.452ZM31.9413 121.452C31.526 121.452 31.1423 121.366 30.79 121.196C30.4377 121.025 30.1374 120.79 29.8889 120.489C29.6405 120.189 29.4625 119.844 29.355 119.455L30.1392 119.243C30.2097 119.533 30.3376 119.783 30.523 119.994C30.7084 120.202 30.9253 120.363 31.1738 120.478C31.4259 120.593 31.6892 120.651 31.9636 120.651C32.3196 120.651 32.6385 120.565 32.9203 120.395C33.2058 120.22 33.432 119.991 33.5988 119.705C33.7657 119.42 33.8491 119.106 33.8491 118.765C33.8491 118.413 33.762 118.096 33.5877 117.814C33.4134 117.528 33.1835 117.302 32.898 117.135C32.6125 116.969 32.301 116.885 31.9636 116.885C31.5854 116.885 31.2591 116.969 30.9847 117.135C30.7103 117.299 30.4915 117.504 30.3283 117.753L29.583 117.441L29.8278 113.275H34.105V114.06H30.1893L30.5953 113.676L30.3784 117.23L30.1726 116.957C30.4025 116.694 30.6806 116.488 31.0069 116.34C31.3332 116.192 31.6762 116.118 32.0359 116.118C32.5291 116.118 32.974 116.236 33.3708 116.473C33.7675 116.707 34.0827 117.024 34.3163 117.425C34.5499 117.825 34.6667 118.272 34.6667 118.765C34.6667 119.255 34.5425 119.703 34.2941 120.111C34.0456 120.515 33.7156 120.84 33.304 121.084C32.8925 121.329 32.4382 121.452 31.9413 121.452ZM35.8865 122.447L35.9365 122.041C36.0849 122.052 36.1924 122.023 36.2591 121.952C36.3259 121.882 36.3667 121.787 36.3815 121.668C36.3963 121.55 36.4 121.422 36.3926 121.285H35.8865V120.111H36.8376V121.507C36.8376 121.848 36.7505 122.104 36.5762 122.275C36.4056 122.445 36.1757 122.503 35.8865 122.447ZM41.589 113.114C42.0933 113.114 42.5493 113.236 42.9572 113.481C43.3688 113.722 43.6951 114.052 43.9362 114.471C44.1772 114.886 44.2977 115.354 44.2977 115.873V118.654C44.2977 119.188 44.1772 119.666 43.9362 120.089C43.6951 120.512 43.3651 120.845 42.9461 121.09C42.5308 121.331 42.058 121.452 41.5278 121.452C41.0717 121.452 40.649 121.351 40.2596 121.151C39.874 120.947 39.5551 120.667 39.303 120.311L39.9259 119.794C40.0965 120.057 40.3227 120.269 40.6045 120.428C40.89 120.588 41.1978 120.667 41.5278 120.667C41.906 120.667 42.2397 120.578 42.529 120.4C42.8219 120.219 43.0518 119.981 43.2186 119.688C43.3892 119.392 43.4745 119.071 43.4745 118.726V116.98L43.6747 117.213C43.4448 117.58 43.1389 117.877 42.757 118.103C42.3788 118.329 41.9635 118.442 41.5111 118.442C41.0179 118.442 40.5711 118.324 40.1706 118.086C39.7739 117.849 39.4587 117.53 39.2251 117.13C38.9952 116.729 38.8803 116.283 38.8803 115.789C38.8803 115.296 39.0026 114.848 39.2473 114.443C39.4921 114.035 39.8202 113.713 40.2318 113.476C40.6434 113.235 41.0958 113.114 41.589 113.114ZM41.589 113.904C41.2404 113.904 40.9234 113.989 40.6379 114.16C40.3523 114.327 40.1243 114.553 39.9537 114.838C39.7869 115.124 39.7034 115.441 39.7034 115.789C39.7034 116.138 39.7869 116.455 39.9537 116.74C40.1206 117.026 40.3468 117.254 40.6323 117.425C40.9178 117.591 41.2349 117.675 41.5834 117.675C41.932 117.675 42.249 117.591 42.5345 117.425C42.8237 117.254 43.0518 117.026 43.2186 116.74C43.3892 116.455 43.4745 116.138 43.4745 115.789C43.4745 115.445 43.3892 115.129 43.2186 114.844C43.0518 114.558 42.8256 114.33 42.5401 114.16C42.2546 113.989 41.9375 113.904 41.589 113.904ZM48.2925 121.452C47.792 121.452 47.3488 121.351 46.9632 121.151C46.5813 120.951 46.2809 120.671 46.0622 120.311C45.8471 119.948 45.7396 119.523 45.7396 119.038C45.7396 118.541 45.8601 118.099 46.1011 117.714C46.3421 117.324 46.7092 117.03 47.2024 116.829L47.1913 117.152C46.7797 117 46.4663 116.752 46.2513 116.407C46.0362 116.062 45.9287 115.68 45.9287 115.261C45.9287 114.816 46.0306 114.434 46.2346 114.115C46.4385 113.793 46.7166 113.544 47.0689 113.37C47.4249 113.196 47.8327 113.108 48.2925 113.108C48.7523 113.108 49.1602 113.196 49.5162 113.37C49.8722 113.544 50.1521 113.793 50.3561 114.115C50.56 114.434 50.662 114.816 50.662 115.261C50.662 115.68 50.5581 116.06 50.3505 116.401C50.1465 116.742 49.8332 116.993 49.4105 117.152L49.3827 116.829C49.8759 117.026 50.2448 117.319 50.4895 117.708C50.738 118.098 50.8622 118.541 50.8622 119.038C50.8622 119.523 50.7528 119.948 50.534 120.311C50.3153 120.671 50.0131 120.951 49.6274 121.151C49.2418 121.351 48.7968 121.452 48.2925 121.452ZM48.2925 120.667C48.7968 120.667 49.2066 120.528 49.5217 120.25C49.8369 119.968 49.9945 119.564 49.9945 119.038C49.9945 118.504 49.8388 118.099 49.5273 117.825C49.2158 117.547 48.8042 117.408 48.2925 117.408C47.7808 117.408 47.3711 117.547 47.0633 117.825C46.7556 118.099 46.6017 118.504 46.6017 119.038C46.6017 119.564 46.7574 119.968 47.0689 120.25C47.3804 120.528 47.7882 120.667 48.2925 120.667ZM48.2925 116.618C48.7375 116.618 49.099 116.505 49.3771 116.279C49.6552 116.049 49.7943 115.71 49.7943 115.261C49.7943 114.812 49.6552 114.477 49.3771 114.254C49.099 114.028 48.7375 113.915 48.2925 113.915C47.8476 113.915 47.486 114.028 47.2079 114.254C46.9335 114.477 46.7963 114.812 46.7963 115.261C46.7963 115.71 46.9335 116.049 47.2079 116.279C47.486 116.505 47.8476 116.618 48.2925 116.618ZM52.7319 121.285L55.6798 114.071H51.9699V113.275H56.553V114.071L53.6107 121.285H52.7319Z" fill="white"/>
</g>
<path opacity="0.8" d="M112.612 119.822V117.63H110.421V116.93H112.612V114.738H113.313V116.93H115.499V117.63H113.313V119.822H112.612ZM118.338 121.285V114.187L116.83 115.094V114.176L118.338 113.275H119.166V121.285H118.338ZM123.89 121.452C123.397 121.452 122.952 121.337 122.555 121.107C122.162 120.877 121.851 120.565 121.621 120.172C121.391 119.775 121.276 119.331 121.276 118.837V115.723C121.276 115.229 121.391 114.786 121.621 114.393C121.851 113.997 122.162 113.683 122.555 113.453C122.952 113.223 123.397 113.108 123.89 113.108C124.383 113.108 124.827 113.223 125.22 113.453C125.616 113.683 125.93 113.997 126.16 114.393C126.389 114.786 126.504 115.229 126.504 115.723V118.837C126.504 119.331 126.389 119.775 126.16 120.172C125.93 120.565 125.616 120.877 125.22 121.107C124.827 121.337 124.383 121.452 123.89 121.452ZM123.89 120.662C124.22 120.662 124.521 120.582 124.791 120.423C125.062 120.259 125.277 120.042 125.436 119.772C125.596 119.501 125.676 119.203 125.676 118.876V115.684C125.676 115.354 125.596 115.053 125.436 114.783C125.277 114.512 125.062 114.297 124.791 114.137C124.521 113.974 124.22 113.893 123.89 113.893C123.56 113.893 123.26 113.974 122.989 114.137C122.718 114.297 122.503 114.512 122.344 114.783C122.185 115.053 122.105 115.354 122.105 115.684V118.876C122.105 119.203 122.185 119.501 122.344 119.772C122.503 120.042 122.718 120.259 122.989 120.423C123.26 120.582 123.56 120.662 123.89 120.662ZM128.844 121.285L128.288 120.728L135.758 113.275L136.314 113.826L128.844 121.285ZM134.646 121.452C134.278 121.452 133.943 121.363 133.639 121.185C133.338 121.003 133.097 120.762 132.916 120.461C132.734 120.157 132.643 119.82 132.643 119.449C132.643 119.086 132.736 118.752 132.921 118.448C133.107 118.144 133.351 117.901 133.656 117.719C133.96 117.538 134.29 117.447 134.646 117.447C135.013 117.447 135.348 117.538 135.652 117.719C135.956 117.897 136.197 118.138 136.375 118.442C136.557 118.743 136.648 119.078 136.648 119.449C136.648 119.82 136.557 120.157 136.375 120.461C136.197 120.762 135.956 121.003 135.652 121.185C135.348 121.363 135.013 121.452 134.646 121.452ZM134.646 120.712C134.872 120.712 135.081 120.654 135.274 120.539C135.467 120.424 135.621 120.272 135.736 120.083C135.851 119.89 135.908 119.679 135.908 119.449C135.908 119.219 135.851 119.01 135.736 118.821C135.621 118.628 135.467 118.474 135.274 118.359C135.081 118.244 134.872 118.187 134.646 118.187C134.416 118.187 134.204 118.244 134.011 118.359C133.822 118.474 133.669 118.628 133.55 118.821C133.435 119.01 133.377 119.219 133.377 119.449C133.377 119.679 133.435 119.89 133.55 120.083C133.669 120.272 133.822 120.424 134.011 120.539C134.204 120.654 134.416 120.712 134.646 120.712ZM129.957 117.113C129.59 117.113 129.254 117.024 128.95 116.846C128.646 116.664 128.403 116.423 128.221 116.123C128.043 115.819 127.954 115.482 127.954 115.111C127.954 114.747 128.047 114.414 128.233 114.11C128.418 113.806 128.663 113.563 128.967 113.381C129.271 113.199 129.601 113.108 129.957 113.108C130.324 113.108 130.658 113.199 130.958 113.381C131.262 113.559 131.505 113.8 131.687 114.104C131.868 114.404 131.959 114.74 131.959 115.111C131.959 115.482 131.868 115.819 131.687 116.123C131.505 116.423 131.262 116.664 130.958 116.846C130.658 117.024 130.324 117.113 129.957 117.113ZM129.957 116.373C130.187 116.373 130.396 116.316 130.585 116.201C130.778 116.086 130.932 115.934 131.047 115.745C131.162 115.552 131.219 115.341 131.219 115.111C131.219 114.881 131.162 114.671 131.047 114.482C130.932 114.289 130.778 114.136 130.585 114.021C130.396 113.906 130.187 113.848 129.957 113.848C129.727 113.848 129.516 113.906 129.323 114.021C129.134 114.136 128.982 114.289 128.867 114.482C128.752 114.671 128.694 114.881 128.694 115.111C128.694 115.341 128.752 115.552 128.867 115.745C128.982 115.934 129.134 116.086 129.323 116.201C129.516 116.316 129.727 116.373 129.957 116.373Z" fill="white"/>
<g opacity="0.8">
<path d="M100.94 118.945H103.002C104.284 118.945 104.806 118.038 104.169 116.929L103.883 116.435C103.813 116.315 103.686 116.242 103.547 116.242H100.395C100.256 116.242 100.128 116.315 100.059 116.435L99.773 116.929C99.1357 118.038 99.6572 118.945 100.94 118.945Z" fill="white"/>
<path d="M100.731 115.856H103.215C103.365 115.856 103.458 115.693 103.381 115.566L103.133 115.141C102.496 114.032 101.446 114.032 100.808 115.141L100.561 115.566C100.488 115.693 100.58 115.856 100.731 115.856Z" fill="white"/>
</g>
<path d="M239.088 59.4432C238.374 59.4432 237.743 59.2961 237.193 59.002C236.648 58.7078 236.22 58.2925 235.909 57.7561C235.597 57.2196 235.441 56.5924 235.441 55.8742V49.9108L236.402 49.9043V55.7509C236.402 56.2355 236.484 56.6551 236.648 57.0098C236.813 57.3602 237.027 57.6501 237.291 57.8793C237.559 58.1043 237.851 58.2709 238.167 58.379C238.483 58.4872 238.79 58.5412 239.088 58.5412C239.391 58.5412 239.7 58.4872 240.016 58.379C240.332 58.2709 240.622 58.1043 240.886 57.8793C241.15 57.6501 241.364 57.3602 241.528 57.0098C241.692 56.6551 241.775 56.2355 241.775 55.7509V49.9043H242.735V55.8742C242.735 56.5924 242.579 57.2196 242.268 57.7561C241.956 58.2882 241.526 58.7035 240.976 59.002C240.431 59.2961 239.802 59.4432 239.088 59.4432ZM247.406 59.4432C246.752 59.4432 246.164 59.3351 245.64 59.1188C245.121 58.8981 244.691 58.5867 244.349 58.1843C244.012 57.782 243.791 57.304 243.687 56.7503L244.661 56.588C244.816 57.1937 245.145 57.6695 245.647 58.0156C246.149 58.3574 246.748 58.5283 247.444 58.5283C247.903 58.5283 248.314 58.4569 248.677 58.3141C249.041 58.167 249.326 57.9594 249.534 57.6912C249.742 57.4229 249.845 57.105 249.845 56.7373C249.845 56.495 249.802 56.2895 249.716 56.1208C249.629 55.9478 249.514 55.805 249.372 55.6925C249.229 55.5801 249.073 55.487 248.904 55.4135C248.736 55.3356 248.571 55.2729 248.411 55.2253L246.043 54.518C245.757 54.4358 245.493 54.332 245.251 54.2065C245.009 54.0768 244.797 53.9232 244.615 53.7458C244.438 53.5641 244.299 53.3522 244.2 53.1099C244.1 52.8676 244.051 52.5908 244.051 52.2793C244.051 51.7515 244.189 51.2951 244.466 50.9101C244.743 50.5251 245.121 50.2288 245.602 50.0211C246.082 49.8135 246.629 49.7118 247.243 49.7161C247.866 49.7161 248.422 49.8264 248.911 50.0471C249.404 50.2677 249.811 50.5835 250.131 50.9945C250.451 51.4011 250.663 51.8835 250.767 52.4415L249.768 52.6232C249.703 52.2166 249.553 51.864 249.32 51.5655C249.086 51.267 248.788 51.0377 248.424 50.8777C248.065 50.7133 247.669 50.6289 247.237 50.6246C246.817 50.6246 246.443 50.696 246.114 50.8387C245.79 50.9772 245.532 51.1675 245.342 51.4098C245.152 51.652 245.056 51.9289 245.056 52.2404C245.056 52.5562 245.143 52.8092 245.316 52.9996C245.493 53.1899 245.71 53.3392 245.965 53.4473C246.225 53.5555 246.475 53.6442 246.718 53.7134L248.548 54.252C248.738 54.3039 248.961 54.3796 249.216 54.4791C249.476 54.5743 249.726 54.7127 249.969 54.8944C250.215 55.0717 250.419 55.3054 250.579 55.5952C250.739 55.885 250.819 56.2528 250.819 56.6983C250.819 57.1309 250.732 57.5181 250.559 57.8599C250.39 58.2016 250.15 58.4893 249.839 58.7229C249.532 58.9565 249.171 59.1339 248.755 59.255C248.344 59.3805 247.894 59.4432 247.406 59.4432ZM252.158 59.2485V49.9043H254.994C255.093 49.9043 255.262 49.9065 255.5 49.9108C255.742 49.9151 255.974 49.9324 256.194 49.9627C256.904 50.0622 257.497 50.3261 257.972 50.7544C258.448 51.1826 258.805 51.7277 259.043 52.3896C259.281 53.0515 259.4 53.7804 259.4 54.5764C259.4 55.3724 259.281 56.1013 259.043 56.7632C258.805 57.4251 258.448 57.9702 257.972 58.3985C257.497 58.8267 256.904 59.0906 256.194 59.1901C255.978 59.2161 255.747 59.2334 255.5 59.242C255.254 59.2464 255.085 59.2485 254.994 59.2485H252.158ZM253.145 58.3336H254.994C255.171 58.3336 255.362 58.3293 255.565 58.3206C255.773 58.3076 255.95 58.286 256.097 58.2557C256.642 58.1605 257.081 57.9399 257.414 57.5938C257.752 57.2477 257.998 56.8151 258.154 56.296C258.31 55.7726 258.388 55.1994 258.388 54.5764C258.388 53.9491 258.31 53.3738 258.154 52.8503C257.998 52.3269 257.752 51.8943 257.414 51.5525C257.077 51.2108 256.638 50.9923 256.097 50.8971C255.95 50.8668 255.77 50.8474 255.558 50.8387C255.351 50.8257 255.163 50.8193 254.994 50.8193H253.145V58.3336Z" fill="white"/>
<path d="M278.677 52.8691L275.151 56.3949C274.735 56.8112 274.053 56.8112 273.637 56.3949L270.111 52.8691" stroke="white" stroke-width="1.39051" stroke-miterlimit="10" stroke-linecap="round" stroke-linejoin="round"/>
<g filter="url(#filter1_d_4140_72545)">
<rect y="171.252" width="145.938" height="44.4963" rx="14.8321" fill="white" shape-rendering="crispEdges"/>
<path d="M51.0807 197.363V198.908C51.0807 199.318 51.2435 199.711 51.5333 200.001C51.823 200.291 52.216 200.453 52.6258 200.453H61.8958C62.3056 200.453 62.6986 200.291 62.9883 200.001C63.2781 199.711 63.4408 199.318 63.4408 198.908V197.363" stroke="#10192D" stroke-width="1.85401" stroke-linecap="round" stroke-linejoin="round"/>
<path d="M53.3983 192.728L57.2608 196.591L61.1233 192.728" stroke="#10192D" stroke-width="1.85401" stroke-linecap="round" stroke-linejoin="round"/>
<path d="M57.2609 187.32V196.59" stroke="#10192D" stroke-width="1.85401" stroke-linecap="round" stroke-linejoin="round"/>
<path d="M74.8555 198.5V189.156H78.5608C79.1924 189.156 79.7094 189.283 80.1117 189.539C80.5183 189.79 80.819 190.112 81.0137 190.505C81.2127 190.899 81.3122 191.306 81.3122 191.725C81.3122 192.24 81.1889 192.677 80.9423 193.036C80.7 193.395 80.3691 193.638 79.9495 193.763V193.439C80.5378 193.573 80.9834 193.852 81.2862 194.276C81.5933 194.7 81.7469 195.182 81.7469 195.723C81.7469 196.276 81.6409 196.761 81.429 197.176C81.217 197.592 80.9012 197.916 80.4816 198.15C80.0663 198.383 79.5515 198.5 78.9372 198.5H74.8555ZM76.4389 197.027H78.7425C79.015 197.027 79.2595 196.973 79.4758 196.865C79.6921 196.752 79.8608 196.597 79.9819 196.398C80.1074 196.194 80.1701 195.954 80.1701 195.677C80.1701 195.426 80.116 195.201 80.0079 195.002C79.8997 194.803 79.7418 194.646 79.5342 194.529C79.3265 194.408 79.0778 194.347 78.7879 194.347H76.4389V197.027ZM76.4389 192.887H78.5413C78.7663 192.887 78.9674 192.844 79.1448 192.757C79.3222 192.671 79.4628 192.543 79.5666 192.374C79.6704 192.206 79.7223 191.998 79.7223 191.751C79.7223 191.427 79.6185 191.157 79.4109 190.94C79.2032 190.724 78.9134 190.616 78.5413 190.616H76.4389V192.887ZM85.671 198.701C85.1518 198.701 84.7236 198.615 84.3861 198.442C84.0487 198.269 83.7805 198.048 83.5815 197.78C83.3825 197.512 83.2354 197.226 83.1402 196.923C83.0451 196.62 82.9823 196.335 82.9521 196.067C82.9261 195.794 82.9131 195.573 82.9131 195.405V191.492H84.4965V194.866C84.4965 195.082 84.5116 195.327 84.5419 195.599C84.5722 195.868 84.6414 196.127 84.7495 196.378C84.862 196.625 85.0264 196.828 85.2427 196.988C85.4633 197.148 85.7597 197.228 86.1317 197.228C86.3307 197.228 86.5275 197.196 86.7222 197.131C86.9169 197.066 87.0921 196.956 87.2478 196.8C87.4079 196.64 87.5355 196.421 87.6307 196.144C87.7258 195.868 87.7734 195.517 87.7734 195.093L88.7014 195.489C88.7014 196.086 88.5846 196.627 88.351 197.111C88.1217 197.596 87.7821 197.983 87.3322 198.273C86.8823 198.558 86.3285 198.701 85.671 198.701ZM87.9616 198.5V196.326H87.7734V191.492H89.3438V198.5H87.9616ZM92.0883 201.615L93.4381 197.909L93.464 199L90.4077 191.492H92.0364L94.2038 197.046H93.7885L95.8974 191.492H97.4613L93.5549 201.615H92.0883Z" fill="#10192D"/>
</g>
<g filter="url(#filter2_d_4140_72545)">
<rect x="157.062" y="171.252" width="145.938" height="44.4963" rx="14.8321" fill="white" shape-rendering="crispEdges"/>
<path d="M208.143 189.637V188.092C208.143 187.682 208.306 187.289 208.595 187C208.885 186.71 209.278 186.547 209.688 186.547H218.958C219.368 186.547 219.761 186.71 220.05 187C220.34 187.289 220.503 187.682 220.503 188.092V189.637" stroke="#10192D" stroke-width="1.85401" stroke-linecap="round" stroke-linejoin="round"/>
<path d="M210.46 194.272L214.323 190.409L218.185 194.272" stroke="#10192D" stroke-width="1.85401" stroke-linecap="round" stroke-linejoin="round"/>
<path d="M214.323 199.68V190.41" stroke="#10192D" stroke-width="1.85401" stroke-linecap="round" stroke-linejoin="round"/>
<path d="M235.376 198.695C234.693 198.695 234.076 198.576 233.527 198.338C232.982 198.1 232.532 197.76 232.177 197.319C231.827 196.873 231.604 196.346 231.509 195.736L233.131 195.489C233.269 196.043 233.553 196.471 233.981 196.774C234.414 197.077 234.911 197.228 235.474 197.228C235.807 197.228 236.12 197.176 236.415 197.072C236.709 196.969 236.947 196.817 237.128 196.618C237.314 196.419 237.407 196.175 237.407 195.885C237.407 195.755 237.386 195.636 237.342 195.528C237.299 195.416 237.234 195.316 237.148 195.23C237.066 195.143 236.957 195.065 236.823 194.996C236.694 194.922 236.542 194.86 236.369 194.808L233.955 194.094C233.748 194.033 233.523 193.953 233.28 193.854C233.042 193.75 232.815 193.609 232.599 193.432C232.387 193.25 232.212 193.021 232.073 192.744C231.939 192.463 231.872 192.117 231.872 191.706C231.872 191.105 232.024 190.601 232.326 190.194C232.634 189.783 233.045 189.476 233.559 189.273C234.078 189.069 234.654 188.97 235.285 188.974C235.926 188.978 236.497 189.089 236.999 189.305C237.5 189.517 237.92 189.826 238.257 190.233C238.595 190.64 238.833 191.131 238.971 191.706L237.291 191.998C237.221 191.669 237.087 191.39 236.888 191.161C236.694 190.927 236.453 190.75 236.168 190.629C235.887 190.508 235.586 190.443 235.266 190.434C234.954 190.43 234.665 190.477 234.396 190.577C234.133 190.672 233.918 190.81 233.754 190.992C233.594 191.174 233.514 191.386 233.514 191.628C233.514 191.857 233.583 192.046 233.722 192.193C233.86 192.335 234.031 192.45 234.234 192.537C234.442 192.619 234.652 192.688 234.864 192.744L236.538 193.211C236.767 193.272 237.024 193.354 237.31 193.458C237.596 193.562 237.87 193.707 238.134 193.893C238.398 194.079 238.614 194.323 238.783 194.626C238.956 194.929 239.043 195.314 239.043 195.781C239.043 196.266 238.941 196.692 238.738 197.059C238.539 197.423 238.268 197.726 237.926 197.968C237.585 198.21 237.193 198.392 236.752 198.513C236.315 198.634 235.856 198.695 235.376 198.695ZM243.633 198.695C242.924 198.695 242.301 198.541 241.764 198.234C241.228 197.927 240.808 197.501 240.506 196.956C240.207 196.411 240.058 195.783 240.058 195.074C240.058 194.308 240.205 193.644 240.499 193.082C240.793 192.515 241.202 192.076 241.725 191.764C242.249 191.453 242.855 191.297 243.542 191.297C244.269 191.297 244.886 191.468 245.392 191.81C245.902 192.147 246.281 192.625 246.527 193.244C246.774 193.862 246.867 194.591 246.806 195.431H245.256V194.86C245.251 194.098 245.117 193.542 244.853 193.192C244.589 192.842 244.174 192.666 243.607 192.666C242.967 192.666 242.491 192.865 242.18 193.263C241.868 193.657 241.713 194.235 241.713 194.996C241.713 195.705 241.868 196.255 242.18 196.644C242.491 197.033 242.945 197.228 243.542 197.228C243.927 197.228 244.258 197.144 244.535 196.975C244.816 196.802 245.033 196.553 245.184 196.229L246.729 196.696C246.46 197.328 246.045 197.819 245.483 198.169C244.925 198.519 244.308 198.695 243.633 198.695ZM241.219 195.431V194.25H246.041V195.431H241.219ZM248.384 198.5V188.961H249.948V198.5H248.384ZM252.021 198.5V188.961H253.585V198.5H252.021Z" fill="#10192D"/>
</g>
<g clip-path="url(#clip1_4140_72545)">
<g filter="url(#filter3_d_4140_72545)">
<rect x="315" width="192.818" height="155.737" rx="18.5401" fill="#F5F9FF"/>
</g>
<mask id="mask0_4140_72545" style="mask-type:alpha" maskUnits="userSpaceOnUse" x="315" y="0" width="193" height="156">
<rect x="315" width="192.818" height="155.737" rx="18.5401" fill="#F5F9FF"/>
</mask>
<g mask="url(#mask0_4140_72545)">
<g opacity="0.1" clip-path="url(#clip2_4140_72545)">
<path d="M495.792 42.1697L493.99 44.9382L467.642 133.025L468.269 134.184L516.386 122.245L495.792 42.1697Z" fill="#7A899F" fill-opacity="0.4"/>
<path d="M495.791 42.1697L434.608 97.7838L468.268 134.184L481.056 91.429L495.791 42.1697Z" fill="#7A899F" fill-opacity="0.4"/>
<path d="M465.957 141.913L465.27 142.376L455.884 173.754L455.948 175.375L514.096 129.994L465.957 141.913Z" fill="#7A899F" fill-opacity="0.4"/>
<path d="M455.946 175.375L465.956 141.912L432.293 105.525L455.946 175.375Z" fill="#7A899F" fill-opacity="0.4"/>
<path d="M468.266 134.199L516.383 122.26L481.054 91.4438L468.266 134.199Z" fill="#64748B" fill-opacity="0.4"/>
<path d="M434.604 97.7974L468.263 134.197L481.052 91.4427L434.604 97.7974Z" fill="#64748B" fill-opacity="0.4"/>
</g>
<path d="M465.253 128.34V126.148H463.061V125.448H465.253V123.256H465.954V125.448H468.139V126.148H465.954V128.34H465.253ZM470.978 129.803V122.706L469.471 123.612V122.694L470.978 121.793H471.807V129.803H470.978ZM476.531 129.97C476.037 129.97 475.592 129.855 475.196 129.625C474.803 129.395 474.491 129.083 474.261 128.69C474.031 128.294 473.916 127.849 473.916 127.355V124.241C473.916 123.748 474.031 123.304 474.261 122.911C474.491 122.515 474.803 122.201 475.196 121.971C475.592 121.741 476.037 121.627 476.531 121.627C477.024 121.627 477.467 121.741 477.86 121.971C478.257 122.201 478.57 122.515 478.8 122.911C479.03 123.304 479.145 123.748 479.145 124.241V127.355C479.145 127.849 479.03 128.294 478.8 128.69C478.57 129.083 478.257 129.395 477.86 129.625C477.467 129.855 477.024 129.97 476.531 129.97ZM476.531 129.18C476.861 129.18 477.161 129.1 477.432 128.941C477.702 128.777 477.917 128.561 478.077 128.29C478.236 128.019 478.316 127.721 478.316 127.394V124.202C478.316 123.872 478.236 123.571 478.077 123.301C477.917 123.03 477.702 122.815 477.432 122.656C477.161 122.492 476.861 122.411 476.531 122.411C476.201 122.411 475.9 122.492 475.63 122.656C475.359 122.815 475.144 123.03 474.984 123.301C474.825 123.571 474.745 123.872 474.745 124.202V127.394C474.745 127.721 474.825 128.019 474.984 128.29C475.144 128.561 475.359 128.777 475.63 128.941C475.9 129.1 476.201 129.18 476.531 129.18ZM481.485 129.803L480.929 129.247L488.398 121.793L488.955 122.344L481.485 129.803ZM487.286 129.97C486.919 129.97 486.583 129.881 486.279 129.703C485.979 129.521 485.738 129.28 485.556 128.98C485.374 128.675 485.284 128.338 485.284 127.967C485.284 127.604 485.376 127.27 485.562 126.966C485.747 126.662 485.992 126.419 486.296 126.237C486.6 126.056 486.93 125.965 487.286 125.965C487.653 125.965 487.989 126.056 488.293 126.237C488.597 126.415 488.838 126.656 489.016 126.961C489.197 127.261 489.288 127.596 489.288 127.967C489.288 128.338 489.197 128.675 489.016 128.98C488.838 129.28 488.597 129.521 488.293 129.703C487.989 129.881 487.653 129.97 487.286 129.97ZM487.286 129.23C487.512 129.23 487.722 129.172 487.914 129.057C488.107 128.942 488.261 128.79 488.376 128.601C488.491 128.409 488.549 128.197 488.549 127.967C488.549 127.737 488.491 127.528 488.376 127.339C488.261 127.146 488.107 126.992 487.914 126.877C487.722 126.762 487.512 126.705 487.286 126.705C487.056 126.705 486.845 126.762 486.652 126.877C486.463 126.992 486.309 127.146 486.19 127.339C486.075 127.528 486.018 127.737 486.018 127.967C486.018 128.197 486.075 128.409 486.19 128.601C486.309 128.79 486.463 128.942 486.652 129.057C486.845 129.172 487.056 129.23 487.286 129.23ZM482.597 125.631C482.23 125.631 481.894 125.542 481.59 125.364C481.286 125.183 481.043 124.942 480.862 124.641C480.684 124.337 480.595 124 480.595 123.629C480.595 123.265 480.688 122.932 480.873 122.628C481.058 122.324 481.303 122.081 481.607 121.899C481.911 121.717 482.241 121.627 482.597 121.627C482.964 121.627 483.298 121.717 483.598 121.899C483.902 122.077 484.145 122.318 484.327 122.622C484.509 122.922 484.599 123.258 484.599 123.629C484.599 124 484.509 124.337 484.327 124.641C484.145 124.942 483.902 125.183 483.598 125.364C483.298 125.542 482.964 125.631 482.597 125.631ZM482.597 124.891C482.827 124.891 483.037 124.834 483.226 124.719C483.418 124.604 483.572 124.452 483.687 124.263C483.802 124.07 483.86 123.859 483.86 123.629C483.86 123.399 483.802 123.189 483.687 123C483.572 122.808 483.418 122.654 483.226 122.539C483.037 122.424 482.827 122.366 482.597 122.366C482.367 122.366 482.156 122.424 481.963 122.539C481.774 122.654 481.622 122.808 481.507 123C481.392 123.189 481.335 123.399 481.335 123.629C481.335 123.859 481.392 124.07 481.507 124.263C481.622 124.452 481.774 124.604 481.963 124.719C482.156 124.834 482.367 124.891 482.597 124.891Z" fill="#22C36B"/>
<path d="M453.02 127.464H455.082C456.365 127.464 456.886 126.556 456.249 125.447L455.963 124.953C455.893 124.833 455.766 124.76 455.627 124.76H452.475C452.336 124.76 452.208 124.833 452.139 124.953L451.853 125.447C451.216 126.556 451.737 127.464 453.02 127.464Z" fill="#22C36B"/>
<path d="M452.811 124.373H455.295C455.445 124.373 455.538 124.211 455.461 124.083L455.213 123.659C454.576 122.55 453.526 122.55 452.888 123.659L452.641 124.083C452.568 124.211 452.66 124.373 452.811 124.373Z" fill="#22C36B"/>
<path d="M336.471 106.789C336.074 106.789 335.709 106.719 335.375 106.578C335.042 106.437 334.754 106.237 334.513 105.977C334.272 105.714 334.096 105.401 333.985 105.037L334.764 104.804C334.897 105.2 335.116 105.501 335.42 105.705C335.728 105.909 336.074 106.007 336.46 105.999C336.816 105.992 337.122 105.912 337.378 105.76C337.637 105.608 337.836 105.397 337.973 105.126C338.11 104.855 338.179 104.542 338.179 104.186C338.179 103.641 338.019 103.204 337.7 102.874C337.385 102.54 336.968 102.373 336.449 102.373C336.304 102.373 336.152 102.393 335.993 102.434C335.833 102.471 335.685 102.525 335.548 102.595L335.136 101.945L338.251 99.0691L338.385 99.4028H334.302V98.6186H338.93V99.414L336.215 102.006L336.204 101.683C336.76 101.613 337.25 101.676 337.673 101.872C338.095 102.069 338.425 102.369 338.663 102.773C338.904 103.174 339.024 103.645 339.024 104.186C339.024 104.698 338.913 105.15 338.69 105.543C338.472 105.933 338.169 106.239 337.784 106.461C337.398 106.68 336.961 106.789 336.471 106.789ZM342.694 106.628V98.6186H347.7V99.4028H343.512V102.173H347.033V102.957H343.512V105.844H347.7V106.628H342.694ZM351.169 106.628V99.4028H348.371V98.6186H354.784V99.4028H351.986V106.628H351.169ZM355.676 106.628V98.6186H356.494V102.228H360.921V98.6186H361.733V106.628H360.921V103.013H356.494V106.628H355.676Z" fill="#8E9BAE"/>
<rect x="333.427" y="118.628" width="73.8896" height="10" rx="5" fill="#E2E8F0"/>
<path d="M386.491 46.6641V35.9849H393.313V37.4459H388.041V40.442H392.423V41.903H388.041V45.2031H393.313V46.6641H386.491ZM397.757 46.6641V37.4459H394.205V35.9849H402.859V37.4459H399.307V46.6641H397.757ZM404.046 46.6641V35.9849H405.596V40.5903H410.935V35.9849H412.493V46.6641H410.935V42.0513H405.596V46.6641H404.046Z" fill="#10192D"/>
<path d="M418.854 35.9849H419.974L417.126 46.6641H416.007L418.854 35.9849ZM426.073 46.8865C425.257 46.8865 424.535 46.7184 423.908 46.3823C423.285 46.0461 422.795 45.5714 422.439 44.9584C422.083 44.3453 421.905 43.6284 421.905 42.8077V35.9924L423.003 35.9849V42.6668C423.003 43.2205 423.097 43.7001 423.285 44.1055C423.472 44.506 423.717 44.8372 424.019 45.0993C424.325 45.3564 424.659 45.5467 425.02 45.6703C425.381 45.7939 425.732 45.8557 426.073 45.8557C426.419 45.8557 426.773 45.7939 427.134 45.6703C427.494 45.5467 427.826 45.3564 428.127 45.0993C428.429 44.8372 428.674 44.506 428.861 44.1055C429.049 43.7001 429.143 43.2205 429.143 42.6668V35.9849H430.241V42.8077C430.241 43.6284 430.063 44.3453 429.707 44.9584C429.351 45.5665 428.859 46.0411 428.231 46.3823C427.608 46.7184 426.889 46.8865 426.073 46.8865ZM435.579 46.8865C434.832 46.8865 434.16 46.7629 433.561 46.5157C432.968 46.2636 432.476 45.9076 432.086 45.4478C431.7 44.988 431.448 44.4417 431.329 43.8089L432.442 43.6235C432.62 44.3156 432.995 44.8595 433.569 45.255C434.142 45.6456 434.827 45.8409 435.623 45.8409C436.147 45.8409 436.617 45.7593 437.032 45.5962C437.447 45.4281 437.774 45.1907 438.011 44.8842C438.248 44.5777 438.367 44.2143 438.367 43.794C438.367 43.5172 438.318 43.2823 438.219 43.0895C438.12 42.8918 437.989 42.7286 437.826 42.6001C437.662 42.4715 437.485 42.3652 437.292 42.2812C437.099 42.1922 436.911 42.1205 436.728 42.0661L434.021 41.2578C433.695 41.1638 433.393 41.0452 433.116 40.9018C432.84 40.7535 432.597 40.578 432.39 40.3752C432.187 40.1676 432.029 39.9253 431.915 39.6485C431.801 39.3716 431.744 39.0552 431.744 38.6992C431.744 38.096 431.903 37.5744 432.219 37.1344C432.536 36.6944 432.968 36.3557 433.517 36.1184C434.066 35.8811 434.691 35.7649 435.393 35.7699C436.105 35.7699 436.74 35.8959 437.299 36.1481C437.863 36.4002 438.327 36.7612 438.693 37.2308C439.059 37.6956 439.301 38.2468 439.42 38.8846L438.278 39.0923C438.204 38.6275 438.033 38.2246 437.766 37.8834C437.499 37.5423 437.158 37.2803 436.743 37.0973C436.333 36.9095 435.88 36.8131 435.386 36.8081C434.906 36.8081 434.479 36.8897 434.103 37.0529C433.732 37.2111 433.438 37.4286 433.22 37.7055C433.003 37.9823 432.894 38.2987 432.894 38.6547C432.894 39.0156 432.993 39.3049 433.191 39.5224C433.393 39.7399 433.641 39.9105 433.932 40.0341C434.229 40.1577 434.516 40.2591 434.792 40.3382L436.884 40.9537C437.101 41.013 437.356 41.0995 437.648 41.2133C437.944 41.322 438.231 41.4802 438.508 41.6879C438.79 41.8906 439.022 42.1576 439.205 42.4888C439.388 42.8201 439.479 43.2403 439.479 43.7496C439.479 44.244 439.381 44.6864 439.183 45.077C438.99 45.4676 438.716 45.7964 438.36 46.0634C438.009 46.3303 437.596 46.533 437.121 46.6715C436.651 46.8149 436.137 46.8865 435.579 46.8865ZM441.01 46.6641V35.9849H444.251C444.365 35.9849 444.558 35.9874 444.83 35.9924C445.106 35.9973 445.371 36.0171 445.623 36.0517C446.434 36.1654 447.111 36.467 447.655 36.9564C448.199 37.4459 448.607 38.0689 448.879 38.8253C449.151 39.5817 449.287 40.4148 449.287 41.3245C449.287 42.2342 449.151 43.0673 448.879 43.8237C448.607 44.5801 448.199 45.2031 447.655 45.6926C447.111 46.182 446.434 46.4836 445.623 46.5973C445.376 46.627 445.111 46.6468 444.83 46.6566C444.548 46.6616 444.355 46.6641 444.251 46.6641H441.01ZM442.138 45.6184H444.251C444.454 45.6184 444.671 45.6135 444.904 45.6036C445.141 45.5887 445.344 45.564 445.512 45.5294C446.135 45.4206 446.637 45.1685 447.017 44.773C447.403 44.3774 447.685 43.883 447.863 43.2898C448.041 42.6915 448.13 42.0364 448.13 41.3245C448.13 40.6076 448.041 39.9501 447.863 39.3518C447.685 38.7536 447.403 38.2592 447.017 37.8686C446.632 37.478 446.13 37.2284 445.512 37.1196C445.344 37.085 445.139 37.0627 444.896 37.0529C444.659 37.038 444.444 37.0306 444.251 37.0306H442.138V45.6184Z" fill="#8E9BAE"/>
<rect x="333.54" y="22.248" width="37.0803" height="37.0803" rx="18.5401" fill="#10192D"/>
<g clip-path="url(#clip3_4140_72545)">
<path d="M352.215 45.8614L345.957 42.165L352.214 50.9855L358.477 42.165L352.213 45.8614H352.215ZM352.31 30.5913L346.051 40.9779L352.309 44.6777L358.568 40.9813L352.31 30.5913Z" fill="white"/>
</g>
</g>
<g filter="url(#filter4_d_4140_72545)">
<mask id="mask1_4140_72545" style="mask-type:alpha" maskUnits="userSpaceOnUse" x="314" y="170" width="194" height="157">
<rect x="315" y="170.569" width="192.818" height="155.737" rx="18.5401" fill="white"/>
</mask>
<g mask="url(#mask1_4140_72545)">
<g filter="url(#filter5_d_4140_72545)">
<rect x="315" y="170.569" width="192.818" height="155.737" rx="18.5401" fill="#F5F9FF"/>
</g>
<path d="M514.584 264.984C516.388 252.906 507.205 246.413 494.649 242.082L498.722 225.721L488.776 223.239L484.811 239.17C482.196 238.517 479.511 237.901 476.843 237.291L480.837 221.256L470.897 218.774L466.822 235.13C464.658 234.637 462.533 234.149 460.471 233.635L460.483 233.584L446.767 230.154L444.122 240.792C444.122 240.792 451.501 242.485 451.345 242.59C455.372 243.596 456.101 246.266 455.98 248.382L451.34 267.022C451.617 267.092 451.977 267.194 452.374 267.354C452.042 267.271 451.689 267.181 451.322 267.093L444.819 293.205C444.326 294.43 443.077 296.269 440.261 295.571C440.361 295.715 433.033 293.764 433.033 293.764L428.095 305.165L441.037 308.396C443.445 309 445.805 309.633 448.128 310.228L444.013 326.777L453.947 329.259L458.023 312.885C460.736 313.623 463.37 314.304 465.949 314.945L461.887 331.241L471.833 333.723L475.948 317.205C492.907 320.419 505.659 319.123 511.027 303.762C515.352 291.394 510.811 284.26 501.889 279.608C508.388 278.108 513.283 273.827 514.588 264.986L514.585 264.984L514.584 264.984ZM491.861 296.893C488.787 309.261 467.993 302.576 461.251 300.899L466.713 278.975C473.454 280.66 495.073 283.995 491.861 296.893H491.861ZM494.937 264.805C492.133 276.055 474.826 270.34 469.211 268.938L474.163 249.054C479.777 250.455 497.857 253.071 494.937 264.805H494.937Z" fill="#F4F7FA"/>
<path d="M386.491 217.233V206.554H390.688C391.366 206.554 391.934 206.693 392.394 206.97C392.854 207.246 393.2 207.605 393.432 208.045C393.665 208.48 393.781 208.94 393.781 209.424C393.781 210.013 393.635 210.517 393.343 210.937C393.056 211.357 392.668 211.644 392.179 211.797L392.164 211.434C392.846 211.602 393.37 211.931 393.736 212.42C394.102 212.905 394.285 213.471 394.285 214.119C394.285 214.747 394.159 215.293 393.907 215.758C393.66 216.222 393.296 216.586 392.817 216.848C392.342 217.105 391.766 217.233 391.089 217.233H386.491ZM388.063 215.758H390.851C391.202 215.758 391.516 215.691 391.793 215.557C392.075 215.424 392.295 215.234 392.453 214.986C392.616 214.734 392.698 214.435 392.698 214.089C392.698 213.768 392.626 213.478 392.483 213.221C392.345 212.959 392.142 212.754 391.875 212.606C391.613 212.453 391.304 212.376 390.948 212.376H388.063V215.758ZM388.063 210.915H390.666C390.953 210.915 391.21 210.858 391.437 210.744C391.67 210.626 391.853 210.458 391.986 210.24C392.124 210.018 392.194 209.751 392.194 209.439C392.194 209.024 392.055 208.683 391.778 208.416C391.502 208.149 391.131 208.015 390.666 208.015H388.063V210.915ZM398.134 217.233V208.015H394.581V206.554H403.236V208.015H399.683V217.233H398.134ZM408.88 217.456C407.812 217.456 406.902 217.224 406.151 216.759C405.399 216.289 404.823 215.636 404.423 214.801C404.027 213.965 403.829 212.996 403.829 211.894C403.829 210.791 404.027 209.822 404.423 208.987C404.823 208.151 405.399 207.501 406.151 207.036C406.902 206.567 407.812 206.332 408.88 206.332C410.111 206.332 411.129 206.643 411.935 207.266C412.746 207.889 413.309 208.727 413.626 209.78L412.054 210.203C411.846 209.456 411.475 208.871 410.941 208.445C410.412 208.02 409.725 207.808 408.88 207.808C408.123 207.808 407.493 207.978 406.989 208.319C406.484 208.66 406.104 209.138 405.846 209.751C405.594 210.364 405.468 211.078 405.468 211.894C405.463 212.71 405.587 213.424 405.839 214.037C406.096 214.65 406.477 215.127 406.981 215.468C407.49 215.81 408.123 215.98 408.88 215.98C409.725 215.98 410.412 215.767 410.941 215.342C411.475 214.912 411.846 214.326 412.054 213.585L413.626 214.007C413.309 215.06 412.746 215.899 411.935 216.521C411.129 217.144 410.111 217.456 408.88 217.456Z" fill="#10192D"/>
<path d="M419.781 206.554H420.901L418.054 217.233H416.934L419.781 206.554ZM427 217.456C426.184 217.456 425.463 217.288 424.835 216.952C424.212 216.615 423.722 216.141 423.366 215.528C423.01 214.915 422.832 214.198 422.832 213.377V206.562L423.93 206.554V213.236C423.93 213.79 424.024 214.269 424.212 214.675C424.4 215.075 424.644 215.407 424.946 215.669C425.252 215.926 425.586 216.116 425.947 216.24C426.308 216.363 426.659 216.425 427 216.425C427.346 216.425 427.7 216.363 428.061 216.24C428.422 216.116 428.753 215.926 429.054 215.669C429.356 215.407 429.601 215.075 429.789 214.675C429.977 214.269 430.07 213.79 430.07 213.236V206.554H431.168V213.377C431.168 214.198 430.99 214.915 430.634 215.528C430.278 216.136 429.786 216.61 429.158 216.952C428.535 217.288 427.816 217.456 427 217.456ZM436.506 217.456C435.759 217.456 435.087 217.332 434.489 217.085C433.895 216.833 433.403 216.477 433.013 216.017C432.627 215.557 432.375 215.011 432.256 214.378L433.369 214.193C433.547 214.885 433.922 215.429 434.496 215.824C435.069 216.215 435.754 216.41 436.55 216.41C437.074 216.41 437.544 216.329 437.959 216.165C438.375 215.997 438.701 215.76 438.938 215.454C439.176 215.147 439.294 214.784 439.294 214.363C439.294 214.087 439.245 213.852 439.146 213.659C439.047 213.461 438.916 213.298 438.753 213.169C438.59 213.041 438.412 212.935 438.219 212.851C438.026 212.762 437.838 212.69 437.655 212.635L434.948 211.827C434.622 211.733 434.32 211.614 434.044 211.471C433.767 211.323 433.524 211.147 433.317 210.945C433.114 210.737 432.956 210.495 432.842 210.218C432.728 209.941 432.672 209.625 432.672 209.269C432.672 208.665 432.83 208.144 433.146 207.704C433.463 207.264 433.895 206.925 434.444 206.688C434.993 206.45 435.618 206.334 436.32 206.339C437.032 206.339 437.668 206.465 438.226 206.717C438.79 206.97 439.255 207.33 439.62 207.8C439.986 208.265 440.229 208.816 440.347 209.454L439.205 209.662C439.131 209.197 438.96 208.794 438.693 208.453C438.427 208.112 438.085 207.85 437.67 207.667C437.26 207.479 436.807 207.382 436.313 207.377C435.833 207.377 435.406 207.459 435.03 207.622C434.659 207.78 434.365 207.998 434.147 208.275C433.93 208.552 433.821 208.868 433.821 209.224C433.821 209.585 433.92 209.874 434.118 210.092C434.32 210.309 434.568 210.48 434.859 210.603C435.156 210.727 435.443 210.828 435.72 210.908L437.811 211.523C438.029 211.582 438.283 211.669 438.575 211.783C438.871 211.891 439.158 212.05 439.435 212.257C439.717 212.46 439.949 212.727 440.132 213.058C440.315 213.389 440.407 213.81 440.407 214.319C440.407 214.813 440.308 215.256 440.11 215.646C439.917 216.037 439.643 216.366 439.287 216.633C438.936 216.9 438.523 217.102 438.048 217.241C437.579 217.384 437.064 217.456 436.506 217.456ZM441.937 217.233V206.554H445.178C445.292 206.554 445.485 206.557 445.757 206.562C446.034 206.567 446.298 206.586 446.55 206.621C447.361 206.735 448.038 207.036 448.582 207.526C449.126 208.015 449.534 208.638 449.806 209.395C450.078 210.151 450.214 210.984 450.214 211.894C450.214 212.804 450.078 213.637 449.806 214.393C449.534 215.149 449.126 215.772 448.582 216.262C448.038 216.751 447.361 217.053 446.55 217.167C446.303 217.196 446.039 217.216 445.757 217.226C445.475 217.231 445.282 217.233 445.178 217.233H441.937ZM443.065 216.188H445.178C445.381 216.188 445.598 216.183 445.831 216.173C446.068 216.158 446.271 216.133 446.439 216.099C447.062 215.99 447.564 215.738 447.944 215.342C448.33 214.947 448.612 214.452 448.79 213.859C448.968 213.261 449.057 212.606 449.057 211.894C449.057 211.177 448.968 210.519 448.79 209.921C448.612 209.323 448.33 208.829 447.944 208.438C447.559 208.047 447.057 207.798 446.439 207.689C446.271 207.654 446.066 207.632 445.823 207.622C445.586 207.607 445.371 207.6 445.178 207.6H443.065V216.188Z" fill="#99A0BB"/>
<rect x="333.54" y="192.817" width="37.0803" height="37.0803" rx="18.5401" fill="#F59E0B"/>
<g clip-path="url(#clip4_4140_72545)">
<path d="M347.105 217.174L346.656 218.853C346.606 219.038 346.716 219.229 346.901 219.279L348.245 219.639C348.334 219.662 348.428 219.65 348.508 219.604C348.588 219.558 348.646 219.482 348.67 219.393L349.12 217.714L349.792 217.894L349.342 219.573C349.292 219.758 349.402 219.949 349.588 219.998L350.931 220.358C351.02 220.382 351.115 220.37 351.195 220.324C351.274 220.277 351.333 220.202 351.357 220.113L351.806 218.434L351.919 218.464C354.595 219.181 356.879 218.306 357.522 215.906C358.063 213.888 357.006 212.423 355.464 211.842L355.496 211.723C356.886 211.747 358.107 211.021 358.545 209.388C359.096 207.33 357.886 205.667 355.529 205.035L355.405 205.002L355.855 203.323C355.879 203.234 355.867 203.139 355.82 203.06C355.774 202.98 355.698 202.921 355.609 202.898L354.266 202.538C354.177 202.514 354.082 202.526 354.002 202.572C353.923 202.619 353.864 202.694 353.84 202.784L353.391 204.462L352.621 204.256L353.071 202.577C353.095 202.488 353.082 202.393 353.036 202.314C352.99 202.234 352.914 202.175 352.825 202.152L351.58 201.818C351.491 201.794 351.396 201.807 351.316 201.853C351.236 201.899 351.178 201.975 351.154 202.064L350.704 203.743L348.017 203.038C347.928 203.015 347.833 203.027 347.753 203.073C347.673 203.119 347.615 203.195 347.591 203.284L347.235 204.613C347.186 204.797 347.293 204.988 347.478 205.038L348.494 205.303C348.76 205.376 348.986 205.551 349.122 205.79C349.259 206.029 349.296 206.312 349.225 206.578L347.244 213.972C347.172 214.239 346.997 214.467 346.758 214.605C346.518 214.744 346.234 214.781 345.966 214.709L344.958 214.455C344.869 214.431 344.774 214.444 344.694 214.49C344.614 214.536 344.556 214.612 344.532 214.701L344.172 216.044C344.122 216.229 344.233 216.42 344.418 216.47L347.105 217.174ZM352.086 206.253L354.395 206.872C355.612 207.198 356.147 208.059 355.854 209.152C355.54 210.322 354.591 210.774 352.843 210.306L351.124 209.845L352.086 206.253ZM350.628 211.694L353.099 212.357C354.626 212.766 355.249 213.768 354.909 215.036C354.566 216.316 353.547 216.758 351.489 216.206L349.558 215.689L350.628 211.696L350.628 211.694Z" fill="white"/>
</g>
</g>
</g>
</g>
</g>
<defs>
<filter id="filter0_d_4140_72545" x="-18.5401" y="23" width="340.212" height="177.059" filterUnits="userSpaceOnUse" color-interpolation-filters="sRGB">
<feFlood flood-opacity="0" result="BackgroundImageFix"/>
<feColorMatrix in="SourceAlpha" type="matrix" values="0 0 0 0 0 0 0 0 0 0 0 0 0 0 0 0 0 0 127 0" result="hardAlpha"/>
<feOffset dy="25.0292"/>
<feGaussianBlur stdDeviation="9.27007"/>
<feComposite in2="hardAlpha" operator="out"/>
<feColorMatrix type="matrix" values="0 0 0 0 0 0 0 0 0 0 0 0 0 0 0 0 0 0 0.02 0"/>
<feBlend mode="normal" in2="BackgroundImageFix" result="effect1_dropShadow_4140_72545"/>
<feBlend mode="normal" in="SourceGraphic" in2="effect1_dropShadow_4140_72545" result="shape"/>
</filter>
<filter id="filter1_d_4140_72545" x="-23.1752" y="157.347" width="192.288" height="90.8469" filterUnits="userSpaceOnUse" color-interpolation-filters="sRGB">
<feFlood flood-opacity="0" result="BackgroundImageFix"/>
<feColorMatrix in="SourceAlpha" type="matrix" values="0 0 0 0 0 0 0 0 0 0 0 0 0 0 0 0 0 0 127 0" result="hardAlpha"/>
<feOffset dy="9.27007"/>
<feGaussianBlur stdDeviation="11.5876"/>
<feComposite in2="hardAlpha" operator="out"/>
<feColorMatrix type="matrix" values="0 0 0 0 0.104 0 0 0 0 0.146483 0 0 0 0 0.216 0 0 0 0.05 0"/>
<feBlend mode="normal" in2="BackgroundImageFix" result="effect1_dropShadow_4140_72545"/>
<feBlend mode="normal" in="SourceGraphic" in2="effect1_dropShadow_4140_72545" result="shape"/>
</filter>
<filter id="filter2_d_4140_72545" x="133.887" y="157.347" width="192.288" height="90.8469" filterUnits="userSpaceOnUse" color-interpolation-filters="sRGB">
<feFlood flood-opacity="0" result="BackgroundImageFix"/>
<feColorMatrix in="SourceAlpha" type="matrix" values="0 0 0 0 0 0 0 0 0 0 0 0 0 0 0 0 0 0 127 0" result="hardAlpha"/>
<feOffset dy="9.27007"/>
<feGaussianBlur stdDeviation="11.5876"/>
<feComposite in2="hardAlpha" operator="out"/>
<feColorMatrix type="matrix" values="0 0 0 0 0.104 0 0 0 0 0.146483 0 0 0 0 0.216 0 0 0 0.05 0"/>
<feBlend mode="normal" in2="BackgroundImageFix" result="effect1_dropShadow_4140_72545"/>
<feBlend mode="normal" in="SourceGraphic" in2="effect1_dropShadow_4140_72545" result="shape"/>
</filter>
<filter id="filter3_d_4140_72545" x="296.46" y="0" width="229.898" height="199.307" filterUnits="userSpaceOnUse" color-interpolation-filters="sRGB">
<feFlood flood-opacity="0" result="BackgroundImageFix"/>
<feColorMatrix in="SourceAlpha" type="matrix" values="0 0 0 0 0 0 0 0 0 0 0 0 0 0 0 0 0 0 127 0" result="hardAlpha"/>
<feOffset dy="25.0292"/>
<feGaussianBlur stdDeviation="9.27007"/>
<feComposite in2="hardAlpha" operator="out"/>
<feColorMatrix type="matrix" values="0 0 0 0 0 0 0 0 0 0 0 0 0 0 0 0 0 0 0.02 0"/>
<feBlend mode="normal" in2="BackgroundImageFix" result="effect1_dropShadow_4140_72545"/>
<feBlend mode="normal" in="SourceGraphic" in2="effect1_dropShadow_4140_72545" result="shape"/>
</filter>
<filter id="filter4_d_4140_72545" x="296.46" y="170.569" width="229.898" height="199.307" filterUnits="userSpaceOnUse" color-interpolation-filters="sRGB">
<feFlood flood-opacity="0" result="BackgroundImageFix"/>
<feColorMatrix in="SourceAlpha" type="matrix" values="0 0 0 0 0 0 0 0 0 0 0 0 0 0 0 0 0 0 127 0" result="hardAlpha"/>
<feOffset dy="25.0292"/>
<feGaussianBlur stdDeviation="9.27007"/>
<feComposite in2="hardAlpha" operator="out"/>
<feColorMatrix type="matrix" values="0 0 0 0 0 0 0 0 0 0 0 0 0 0 0 0 0 0 0.02 0"/>
<feBlend mode="normal" in2="BackgroundImageFix" result="effect1_dropShadow_4140_72545"/>
<feBlend mode="normal" in="SourceGraphic" in2="effect1_dropShadow_4140_72545" result="shape"/>
</filter>
<filter id="filter5_d_4140_72545" x="296.46" y="170.569" width="229.898" height="199.307" filterUnits="userSpaceOnUse" color-interpolation-filters="sRGB">
<feFlood flood-opacity="0" result="BackgroundImageFix"/>
<feColorMatrix in="SourceAlpha" type="matrix" values="0 0 0 0 0 0 0 0 0 0 0 0 0 0 0 0 0 0 127 0" result="hardAlpha"/>
<feOffset dy="25.0292"/>
<feGaussianBlur stdDeviation="9.27007"/>
<feComposite in2="hardAlpha" operator="out"/>
<feColorMatrix type="matrix" values="0 0 0 0 0 0 0 0 0 0 0 0 0 0 0 0 0 0 0.02 0"/>
<feBlend mode="normal" in2="BackgroundImageFix" result="effect1_dropShadow_4140_72545"/>
<feBlend mode="normal" in="SourceGraphic" in2="effect1_dropShadow_4140_72545" result="shape"/>
</filter>
<linearGradient id="paint0_linear_4140_72545" x1="338.761" y1="89.7445" x2="-60.5132" y2="89.7445" gradientUnits="userSpaceOnUse">
<stop stop-color="#38BDF8"/>
<stop offset="1" stop-color="#2873FF"/>
</linearGradient>
<clipPath id="clip0_4140_72545">
<rect width="507.818" height="239" fill="white"/>
</clipPath>
<clipPath id="clip1_4140_72545">
<rect width="192.818" height="239" fill="white" transform="translate(315)"/>
</clipPath>
<clipPath id="clip2_4140_72545">
<rect width="139.051" height="139.051" fill="white" transform="translate(429.009 22.248) rotate(16.653)"/>
</clipPath>
<clipPath id="clip3_4140_72545">
<rect width="20.3942" height="20.3942" fill="white" transform="translate(342.066 30.5913)"/>
</clipPath>
<clipPath id="clip4_4140_72545">
<rect width="22.2482" height="22.2482" fill="white" transform="translate(344.397 197.734) rotate(15)"/>
</clipPath>
</defs>
</svg>
