<svg xmlns="http://www.w3.org/2000/svg" width="25" height="25" viewBox="0 0 25 25" fill="none">
  <path d="M12.1348 2.84125C9.4826 2.84125 6.93906 3.89482 5.0637 5.77018C3.18833 7.64554 2.13477 10.1891 2.13477 12.8412C2.13477 15.4934 3.18833 18.037 5.0637 19.9123C6.93906 21.7877 9.4826 22.8412 12.1348 22.8412C14.7869 22.8412 17.3305 21.7877 19.2058 19.9123C21.0812 18.037 22.1348 15.4934 22.1348 12.8412C22.1348 10.1891 21.0812 7.64554 19.2058 5.77018C17.3305 3.89482 14.7869 2.84125 12.1348 2.84125Z" fill="#1565C0"/>
  <path d="M13.4858 15.4916H16.0737L16.48 12.8627H13.4853V11.4258C13.4853 10.3337 13.8421 9.36532 14.8637 9.36532H16.5053V7.07111C16.2168 7.03216 15.6068 6.9469 14.4542 6.9469C12.0474 6.9469 10.6363 8.21795 10.6363 11.1137V12.8627H8.16211V15.4916H10.6363V22.7174C11.1263 22.7911 11.6226 22.8411 12.1321 22.8411C12.5926 22.8411 13.0421 22.799 13.4858 22.739V15.4916Z" fill="white"/>
</svg>