<svg width="60" height="60" viewBox="0 0 71 70" fill="none" xmlns="http://www.w3.org/2000/svg">
<path d="M0.166748 35C0.166748 15.67 15.8368 0 35.1667 0C54.4967 0 70.1667 15.67 70.1667 35C70.1667 54.33 54.4967 70 35.1667 70C15.8368 70 0.166748 54.33 0.166748 35Z" fill="#2873FF" fill-opacity="0.1"/>
<path d="M40.1667 35C40.1667 35.9889 39.8735 36.9556 39.3241 37.7779C38.7747 38.6001 37.9938 39.241 37.0802 39.6194C36.1665 39.9978 35.1612 40.0969 34.1913 39.9039C33.2214 39.711 32.3305 39.2348 31.6312 38.5355C30.932 37.8363 30.4557 36.9454 30.2628 35.9755C30.0699 35.0055 30.1689 34.0002 30.5473 33.0866C30.9258 32.173 31.5667 31.3921 32.3889 30.8427C33.2111 30.2932 34.1778 30 35.1667 30C36.4928 30 37.7646 30.5268 38.7023 31.4645C39.64 32.4021 40.1667 33.6739 40.1667 35ZM50.1667 27V43C50.1667 43.2652 50.0614 43.5196 49.8739 43.7071C49.6863 43.8946 49.432 44 49.1667 44H21.1667C20.9015 44 20.6472 43.8946 20.4596 43.7071C20.2721 43.5196 20.1667 43.2652 20.1667 43V27C20.1667 26.7348 20.2721 26.4804 20.4596 26.2929C20.6472 26.1054 20.9015 26 21.1667 26H49.1667C49.432 26 49.6863 26.1054 49.8739 26.2929C50.0614 26.4804 50.1667 26.7348 50.1667 27ZM48.1667 32.7937C47.0313 32.458 45.9978 31.8435 45.1605 31.0062C44.3232 30.1689 43.7087 29.1355 43.373 28H26.9605C26.6248 29.1355 26.0103 30.1689 25.173 31.0062C24.3357 31.8435 23.3022 32.458 22.1667 32.7937V37.2062C23.3022 37.542 24.3357 38.1565 25.173 38.9938C26.0103 39.8311 26.6248 40.8645 26.9605 42H43.373C43.7087 40.8645 44.3232 39.8311 45.1605 38.9938C45.9978 38.1565 47.0313 37.542 48.1667 37.2062V32.7937Z" fill="#2873FF"/>
</svg>
