<svg width="60" height="60" viewBox="0 0 71 70" fill="none" xmlns="http://www.w3.org/2000/svg">
<path d="M0.833496 35C0.833496 15.67 16.5035 0 35.8335 0C55.1635 0 70.8335 15.67 70.8335 35C70.8335 54.33 55.1635 70 35.8335 70C16.5035 70 0.833496 54.33 0.833496 35Z" fill="#2873FF" fill-opacity="0.1"/>
<path d="M46.8335 28H26.8335C26.5683 28 26.3139 27.8946 26.1264 27.7071C25.9389 27.5196 25.8335 27.2652 25.8335 27C25.8335 26.7348 25.9389 26.4804 26.1264 26.2929C26.3139 26.1054 26.5683 26 26.8335 26H43.8335C44.0987 26 44.3531 25.8946 44.5406 25.7071C44.7281 25.5196 44.8335 25.2652 44.8335 25C44.8335 24.7348 44.7281 24.4804 44.5406 24.2929C44.3531 24.1054 44.0987 24 43.8335 24H26.8335C26.0378 24 25.2748 24.3161 24.7122 24.8787C24.1496 25.4413 23.8335 26.2044 23.8335 27V43C23.8335 43.7956 24.1496 44.5587 24.7122 45.1213C25.2748 45.6839 26.0378 46 26.8335 46H46.8335C47.3639 46 47.8726 45.7893 48.2477 45.4142C48.6228 45.0391 48.8335 44.5304 48.8335 44V30C48.8335 29.4696 48.6228 28.9609 48.2477 28.5858C47.8726 28.2107 47.3639 28 46.8335 28ZM42.3335 38C42.0368 38 41.7468 37.912 41.5001 37.7472C41.2535 37.5824 41.0612 37.3481 40.9477 37.074C40.8341 36.7999 40.8044 36.4983 40.8623 36.2074C40.9202 35.9164 41.0631 35.6491 41.2728 35.4393C41.4826 35.2296 41.7499 35.0867 42.0409 35.0288C42.3318 34.9709 42.6334 35.0007 42.9075 35.1142C43.1816 35.2277 43.4159 35.42 43.5807 35.6666C43.7455 35.9133 43.8335 36.2033 43.8335 36.5C43.8335 36.8978 43.6755 37.2794 43.3942 37.5607C43.1129 37.842 42.7313 38 42.3335 38Z" fill="#2873FF"/>
</svg>
