<svg width="60" height="60" viewBox="0 0 71 70" fill="none" xmlns="http://www.w3.org/2000/svg">
<path d="M0.166748 35C0.166748 15.67 15.8368 0 35.1667 0C54.4967 0 70.1667 15.67 70.1667 35C70.1667 54.33 54.4967 70 35.1667 70C15.8368 70 0.166748 54.33 0.166748 35Z" fill="#2873FF" fill-opacity="0.1"/>
<path d="M42.1667 30.1962V29.5C42.1667 26.365 37.438 24 31.1667 24C24.8955 24 20.1667 26.365 20.1667 29.5V34.5C20.1667 37.1112 23.448 39.1863 28.1667 39.8075V40.5C28.1667 43.635 32.8955 46 39.1667 46C45.438 46 50.1667 43.635 50.1667 40.5V35.5C50.1667 32.9125 46.9892 30.835 42.1667 30.1962ZM26.1667 37.3587C23.718 36.675 22.1667 35.5487 22.1667 34.5V32.7413C23.1867 33.4637 24.553 34.0463 26.1667 34.4375V37.3587ZM36.1667 34.4375C37.7805 34.0463 39.1467 33.4637 40.1667 32.7413V34.5C40.1667 35.5487 38.6155 36.675 36.1667 37.3587V34.4375ZM34.1667 43.3587C31.718 42.675 30.1667 41.5487 30.1667 40.5V39.9788C30.4955 39.9913 30.828 40 31.1667 40C31.6517 40 32.1255 39.9837 32.5905 39.9562C33.1071 40.1412 33.6333 40.2981 34.1667 40.4263V43.3587ZM34.1667 37.7812C33.1735 37.928 32.1708 38.0011 31.1667 38C30.1627 38.0011 29.16 37.928 28.1667 37.7812V34.8075C29.1615 34.9371 30.1636 35.0014 31.1667 35C32.1699 35.0014 33.172 34.9371 34.1667 34.8075V37.7812ZM42.1667 43.7812C40.1774 44.0729 38.1561 44.0729 36.1667 43.7812V40.8C37.1611 40.9337 38.1634 41.0005 39.1667 41C40.1699 41.0014 41.172 40.9371 42.1667 40.8075V43.7812ZM48.1667 40.5C48.1667 41.5487 46.6155 42.675 44.1667 43.3587V40.4375C45.7805 40.0462 47.1467 39.4637 48.1667 38.7412V40.5Z" fill="#2873FF"/>
</svg>
