<svg width="60" height="60" viewBox="0 0 71 70" fill="none" xmlns="http://www.w3.org/2000/svg">
<path d="M0.5 35C0.5 15.67 16.17 0 35.5 0C54.83 0 70.5 15.67 70.5 35C70.5 54.33 54.83 70 35.5 70C16.17 70 0.5 54.33 0.5 35Z" fill="#2873FF" fill-opacity="0.1"/>
<path d="M46.5 28H42.115C42.1637 27.9588 42.2137 27.9188 42.2612 27.875C42.6409 27.5378 42.9468 27.1258 43.16 26.6649C43.3731 26.2039 43.4889 25.704 43.5 25.1963C43.5164 24.6409 43.4191 24.088 43.2142 23.5715C43.0092 23.0551 42.7008 22.586 42.3079 22.193C41.9151 21.8 41.4461 21.4915 40.9297 21.2864C40.4133 21.0812 39.8604 20.9838 39.305 21C38.7971 21.011 38.2969 21.1266 37.8358 21.3398C37.3746 21.5529 36.9624 21.859 36.625 22.2388C36.1581 22.7799 35.7785 23.3906 35.5 24.0488C35.2215 23.3906 34.8419 22.7799 34.375 22.2388C34.0376 21.859 33.6254 21.5529 33.1642 21.3398C32.7031 21.1266 32.2029 21.011 31.695 21C31.1396 20.9838 30.5867 21.0812 30.0703 21.2864C29.5539 21.4915 29.0849 21.8 28.6921 22.193C28.2992 22.586 27.9908 23.0551 27.7858 23.5715C27.5809 24.088 27.4836 24.6409 27.5 25.1963C27.5111 25.704 27.6269 26.2039 27.84 26.6649C28.0532 27.1258 28.3591 27.5378 28.7388 27.875C28.7863 27.9163 28.8363 27.9563 28.885 28H24.5C23.9696 28 23.4609 28.2108 23.0858 28.5858C22.7107 28.9609 22.5 29.4696 22.5 30V34C22.5 34.5305 22.7107 35.0392 23.0858 35.4142C23.4609 35.7893 23.9696 36 24.5 36V44C24.5 44.5305 24.7107 45.0392 25.0858 45.4142C25.4609 45.7893 25.9696 46 26.5 46H34C34.1326 46 34.2598 45.9474 34.3536 45.8536C34.4473 45.7598 34.5 45.6326 34.5 45.5V34H24.5V30H34.5V34H36.5V30H46.5V34H36.5V45.5C36.5 45.6326 36.5527 45.7598 36.6464 45.8536C36.7402 45.9474 36.8674 46 37 46H44.5C45.0304 46 45.5391 45.7893 45.9142 45.4142C46.2893 45.0392 46.5 44.5305 46.5 44V36C47.0304 36 47.5391 35.7893 47.9142 35.4142C48.2893 35.0392 48.5 34.5305 48.5 34V30C48.5 29.4696 48.2893 28.9609 47.9142 28.5858C47.5391 28.2108 47.0304 28 46.5 28ZM30.0638 26.375C29.8889 26.2167 29.7487 26.0239 29.6519 25.8088C29.5551 25.5937 29.5038 25.3609 29.5013 25.125C29.4949 24.8487 29.5438 24.5738 29.6451 24.3166C29.7463 24.0593 29.8979 23.8249 30.0909 23.627C30.284 23.4291 30.5145 23.2717 30.7691 23.164C31.0238 23.0564 31.2973 23.0006 31.5737 23H31.635C31.8709 23.0026 32.1037 23.0539 32.3188 23.1507C32.5339 23.2475 32.7267 23.3877 32.885 23.5625C33.9338 24.7475 34.3038 26.7125 34.4338 27.9275C33.2137 27.7988 31.25 27.4288 30.0638 26.375ZM40.9387 26.375C39.7525 27.425 37.7837 27.795 36.5637 27.925C36.7125 26.6113 37.125 24.6875 38.125 23.5638C38.2833 23.3889 38.4761 23.2487 38.6912 23.1519C38.9063 23.0551 39.1391 23.0038 39.375 23.0013H39.4363C39.7127 23.003 39.986 23.0599 40.2402 23.1686C40.4944 23.2773 40.7244 23.4357 40.9166 23.6344C41.1088 23.8332 41.2594 24.0682 41.3596 24.3259C41.4597 24.5836 41.5075 24.8587 41.5 25.135C41.4959 25.3693 41.4438 25.6002 41.3468 25.8135C41.2498 26.0268 41.1101 26.218 40.9363 26.375H40.9387Z" fill="#2873FF"/>
</svg>
