<svg width="60" height="60" viewBox="0 0 71 70" fill="none" xmlns="http://www.w3.org/2000/svg">
<path d="M0.5 35C0.5 15.67 16.17 0 35.5 0C54.83 0 70.5 15.67 70.5 35C70.5 54.33 54.83 70 35.5 70C16.17 70 0.5 54.33 0.5 35Z" fill="#2873FF" fill-opacity="0.1"/>
<path d="M50.5 45C50.5 45.2652 50.3946 45.5196 50.2071 45.7071C50.0196 45.8947 49.7652 46 49.5 46H21.5C21.2348 46 20.9804 45.8947 20.7929 45.7071C20.6054 45.5196 20.5 45.2652 20.5 45C20.5 44.7348 20.6054 44.4804 20.7929 44.2929C20.9804 44.1054 21.2348 44 21.5 44H49.5C49.7652 44 50.0196 44.1054 50.2071 44.2929C50.3946 44.4804 50.5 44.7348 50.5 45ZM21.5375 31.2725C21.478 31.0628 21.4887 30.8394 21.5679 30.6363C21.6471 30.4332 21.7905 30.2616 21.9762 30.1475L34.9762 22.1475C35.1338 22.0507 35.3151 21.9994 35.5 21.9994C35.6849 21.9994 35.8662 22.0507 36.0238 22.1475L49.0238 30.1475C49.2096 30.2615 49.3531 30.433 49.4324 30.636C49.5118 30.839 49.5226 31.0623 49.4633 31.2721C49.404 31.4818 49.2778 31.6664 49.1039 31.7978C48.93 31.9292 48.718 32.0002 48.5 32H45.5V40H47.5C47.7652 40 48.0196 40.1054 48.2071 40.2929C48.3946 40.4804 48.5 40.7348 48.5 41C48.5 41.2652 48.3946 41.5196 48.2071 41.7071C48.0196 41.8947 47.7652 42 47.5 42H23.5C23.2348 42 22.9804 41.8947 22.7929 41.7071C22.6054 41.5196 22.5 41.2652 22.5 41C22.5 40.7348 22.6054 40.4804 22.7929 40.2929C22.9804 40.1054 23.2348 40 23.5 40H25.5V32H22.5C22.2822 32.0001 22.0704 31.9291 21.8967 31.7978C21.723 31.6665 21.5968 31.482 21.5375 31.2725ZM37.5 39C37.5 39.2652 37.6054 39.5196 37.7929 39.7071C37.9804 39.8947 38.2348 40 38.5 40C38.7652 40 39.0196 39.8947 39.2071 39.7071C39.3946 39.5196 39.5 39.2652 39.5 39V33C39.5 32.7348 39.3946 32.4804 39.2071 32.2929C39.0196 32.1054 38.7652 32 38.5 32C38.2348 32 37.9804 32.1054 37.7929 32.2929C37.6054 32.4804 37.5 32.7348 37.5 33V39ZM31.5 39C31.5 39.2652 31.6054 39.5196 31.7929 39.7071C31.9804 39.8947 32.2348 40 32.5 40C32.7652 40 33.0196 39.8947 33.2071 39.7071C33.3946 39.5196 33.5 39.2652 33.5 39V33C33.5 32.7348 33.3946 32.4804 33.2071 32.2929C33.0196 32.1054 32.7652 32 32.5 32C32.2348 32 31.9804 32.1054 31.7929 32.2929C31.6054 32.4804 31.5 32.7348 31.5 33V39Z" fill="#2873FF"/>
</svg>
