<svg width="60" height="60" viewBox="0 0 71 70" fill="none" xmlns="http://www.w3.org/2000/svg">
<path d="M0.833496 35C0.833496 15.67 16.5035 0 35.8335 0C55.1635 0 70.8335 15.67 70.8335 35C70.8335 54.33 55.1635 70 35.8335 70C16.5035 70 0.833496 54.33 0.833496 35Z" fill="#2873FF" fill-opacity="0.1"/>
<path d="M49.8198 43.765L48.0373 28.765C47.9795 28.2763 47.7435 27.826 47.3745 27.5004C47.0056 27.1747 46.5295 26.9966 46.0373 27H41.8336C41.8336 25.4087 41.2014 23.8826 40.0762 22.7574C38.951 21.6321 37.4249 21 35.8336 21C34.2423 21 32.7162 21.6321 31.5909 22.7574C30.4657 23.8826 29.8336 25.4087 29.8336 27H25.6248C25.1327 26.9966 24.6566 27.1747 24.2876 27.5004C23.9186 27.826 23.6826 28.2763 23.6248 28.765L21.8423 43.765C21.8097 44.045 21.8365 44.3287 21.9212 44.5975C22.0059 44.8664 22.1464 45.1143 22.3336 45.325C22.5221 45.5366 22.7532 45.7061 23.0116 45.8224C23.2701 45.9387 23.5502 45.9992 23.8336 46H47.8236C48.1087 46.0006 48.3907 45.9408 48.651 45.8245C48.9113 45.7081 49.1439 45.5379 49.3336 45.325C49.5199 45.1139 49.6595 44.8658 49.7433 44.5969C49.8271 44.3281 49.8532 44.0446 49.8198 43.765ZM31.8336 32C31.8336 32.2652 31.7282 32.5196 31.5407 32.7071C31.3532 32.8946 31.0988 33 30.8336 33C30.5684 33 30.314 32.8946 30.1265 32.7071C29.9389 32.5196 29.8336 32.2652 29.8336 32V30C29.8336 29.7348 29.9389 29.4804 30.1265 29.2929C30.314 29.1054 30.5684 29 30.8336 29C31.0988 29 31.3532 29.1054 31.5407 29.2929C31.7282 29.4804 31.8336 29.7348 31.8336 30V32ZM35.8336 23C36.8945 23 37.9119 23.4214 38.662 24.1716C39.4122 24.9217 39.8336 25.9391 39.8336 27H31.8336C31.8336 25.9391 32.255 24.9217 33.0052 24.1716C33.7553 23.4214 34.7727 23 35.8336 23ZM41.8336 32C41.8336 32.2652 41.7282 32.5196 41.5407 32.7071C41.3532 32.8946 41.0988 33 40.8336 33C40.5684 33 40.314 32.8946 40.1265 32.7071C39.9389 32.5196 39.8336 32.2652 39.8336 32V30C39.8336 29.7348 39.9389 29.4804 40.1265 29.2929C40.314 29.1054 40.5684 29 40.8336 29C41.0988 29 41.3532 29.1054 41.5407 29.2929C41.7282 29.4804 41.8336 29.7348 41.8336 30V32Z" fill="#2873FF"/>
</svg>
