<svg width="16" height="16" viewBox="0 0 16 16" fill="none" xmlns="http://www.w3.org/2000/svg">
<path d="M9.93331 1.33398H6.06665C5.61332 1.33398 4.97331 1.60065 4.65331 1.92065L1.91998 4.65399C1.59998 4.97399 1.33331 5.61399 1.33331 6.06732V9.93398C1.33331 10.3873 1.59998 11.0273 1.91998 11.3473L4.65331 14.0806C4.97331 14.4006 5.61332 14.6673 6.06665 14.6673H9.93331C10.3866 14.6673 11.0266 14.4006 11.3466 14.0806L14.08 11.3473C14.4 11.0273 14.6666 10.3873 14.6666 9.93398V6.06732C14.6666 5.61399 14.4 4.97399 14.08 4.65399L11.3466 1.92065C11.0266 1.60065 10.3866 1.33398 9.93331 1.33398Z" stroke="#F65556" stroke-width="1.5" stroke-linecap="round" stroke-linejoin="round"/>
<path d="M3.29333 12.7196L12.72 3.29297" stroke="#F65556" stroke-width="1.5" stroke-linecap="round" stroke-linejoin="round"/>
</svg>
