<svg width="408" height="500" viewBox="0 0 358 450" fill="none" xmlns="http://www.w3.org/2000/svg">
<g clip-path="url(#clip0_5303_42879)">
<rect x="0.155273" y="0.131836" width="357.689" height="449.448" rx="17.1966" fill="white"/>
<mask id="path-2-inside-1_5303_42879" fill="white">
<path d="M0.155273 0.131836H357.845V77.2373H0.155273V0.131836Z"/>
</mask>
<path d="M357.845 76.0909H0.155273V78.3838H357.845V76.0909Z" fill="#E2E8F0" mask="url(#path-2-inside-1_5303_42879)"/>
<rect x="23.084" y="27.2202" width="49.9288" height="22.9288" rx="6.87864" fill="#D7F6D7"/>
<path d="M35.5113 44.1846V34.2793H39.4391C40.1086 34.2793 40.6566 34.4146 41.0831 34.6852C41.5141 34.9511 41.8328 35.2928 42.0392 35.7101C42.2501 36.1274 42.3556 36.5584 42.3556 37.0033C42.3556 37.549 42.2249 38.0121 41.9635 38.3928C41.7067 38.7734 41.3559 39.0302 40.9111 39.1632V38.8192C41.5347 38.9614 42.0071 39.2572 42.3281 39.7066C42.6537 40.156 42.8165 40.6673 42.8165 41.2405C42.8165 41.8275 42.7041 42.3411 42.4794 42.7813C42.2547 43.2216 41.92 43.5655 41.4751 43.8131C41.0349 44.0608 40.4892 44.1846 39.838 44.1846H35.5113ZM37.1897 42.6231H39.6317C39.9206 42.6231 40.1797 42.5658 40.4089 42.4512C40.6382 42.3319 40.8171 42.1668 40.9455 41.9559C41.0785 41.7404 41.145 41.4858 41.145 41.1924C41.145 40.9264 41.0876 40.6879 40.973 40.477C40.8583 40.266 40.691 40.0987 40.4709 39.9748C40.2507 39.8464 39.9871 39.7822 39.6798 39.7822H37.1897V42.6231ZM37.1897 38.2345H39.4184C39.6569 38.2345 39.8701 38.1887 40.0581 38.097C40.2461 38.0053 40.3952 37.87 40.5052 37.6911C40.6153 37.5123 40.6703 37.2922 40.6703 37.0308C40.6703 36.6868 40.5603 36.4002 40.3402 36.171C40.12 35.9417 39.8128 35.827 39.4184 35.827H37.1897V38.2345ZM48.1799 44.3909C47.3911 44.3909 46.6964 44.2304 46.0956 43.9094C45.4995 43.5884 45.0318 43.1367 44.6924 42.5543C44.3576 41.9719 44.1903 41.2887 44.1903 40.5045V34.2931L45.8687 34.2793V40.4632C45.8687 40.8347 45.9306 41.1671 46.0544 41.4606C46.1828 41.7541 46.3547 42.004 46.5703 42.2104C46.7858 42.4122 47.0334 42.5658 47.3132 42.6713C47.5929 42.7767 47.8818 42.8295 48.1799 42.8295C48.4871 42.8295 48.7783 42.7767 49.0535 42.6713C49.3332 42.5612 49.5808 42.4053 49.7964 42.2035C50.0119 41.9972 50.1816 41.7472 50.3054 41.4537C50.4292 41.1603 50.4911 40.8301 50.4911 40.4632V34.2793H52.1695V40.5045C52.1695 41.2887 51.9998 41.9719 51.6605 42.5543C51.3257 43.1367 50.858 43.5884 50.2572 43.9094C49.6611 44.2304 48.9686 44.3909 48.1799 44.3909ZM56.4993 44.1846V40.1262L53.1287 34.2793H55.0616L57.3385 38.2277L59.6084 34.2793H61.5413L58.1777 40.1262V44.1846H56.4993Z" fill="#43CE43"/>
<path d="M92.64 45.6846V32.4776H97.8769C98.7696 32.4776 99.5003 32.6579 100.069 33.0187C100.644 33.3733 101.069 33.8288 101.344 34.3853C101.625 34.9417 101.766 35.5164 101.766 36.1095C101.766 36.8371 101.591 37.4547 101.243 37.9621C100.9 38.4696 100.433 38.812 99.8396 38.9894V38.5308C100.671 38.7203 101.301 39.1147 101.729 39.7139C102.163 40.3131 102.38 40.9949 102.38 41.7592C102.38 42.5418 102.23 43.2266 101.931 43.8136C101.631 44.4006 101.185 44.8591 100.592 45.1893C100.005 45.5195 99.2771 45.6846 98.4089 45.6846H92.64ZM94.8778 43.6026H98.1337C98.5189 43.6026 98.8644 43.5262 99.1701 43.3733C99.4758 43.2144 99.7143 42.9943 99.8855 42.713C100.063 42.4256 100.151 42.0863 100.151 41.695C100.151 41.3403 100.075 41.0224 99.9222 40.7411C99.7693 40.4599 99.5461 40.2367 99.2526 40.0716C98.9592 39.9004 98.6076 39.8148 98.1979 39.8148H94.8778V43.6026ZM94.8778 37.7512H97.8494C98.1673 37.7512 98.4517 37.6901 98.7023 37.5678C98.953 37.4455 99.1518 37.2651 99.2985 37.0267C99.4452 36.7882 99.5186 36.4947 99.5186 36.1462C99.5186 35.6876 99.3719 35.3055 99.0784 34.9997C98.7849 34.694 98.3752 34.5412 97.8494 34.5412H94.8778V37.7512ZM104.395 34.2752V32.2483H106.606V34.2752H104.395ZM104.395 45.6846V35.7793H106.606V45.6846H104.395ZM115.158 45.6846C114.504 45.8069 113.862 45.8588 113.232 45.8405C112.609 45.8283 112.049 45.7151 111.554 45.5011C111.059 45.281 110.683 44.9356 110.426 44.4648C110.2 44.0368 110.081 43.5996 110.068 43.1532C110.056 42.7069 110.05 42.2024 110.05 41.6399V33.0279H112.251V41.5115C112.251 41.909 112.254 42.2575 112.26 42.5571C112.273 42.8567 112.337 43.1013 112.453 43.2908C112.673 43.6577 113.025 43.8625 113.508 43.9053C113.991 43.9481 114.541 43.9236 115.158 43.8319V45.6846ZM108.252 37.5127V35.7793H115.158V37.5127H108.252ZM121.088 45.9597C120.067 45.9597 119.196 45.7335 118.474 45.281C117.753 44.8224 117.2 44.1988 116.814 43.41C116.435 42.6213 116.243 41.7286 116.237 40.7319C116.243 39.717 116.441 38.8182 116.833 38.0355C117.23 37.2468 117.793 36.6292 118.52 36.1829C119.248 35.7304 120.113 35.5042 121.116 35.5042C122.241 35.5042 123.192 35.7885 123.968 36.3571C124.751 36.9196 125.261 37.6901 125.5 38.6684L123.299 39.2645C123.127 38.7326 122.843 38.3198 122.446 38.0263C122.048 37.7267 121.596 37.5769 121.088 37.5769C120.514 37.5769 120.04 37.7145 119.667 37.9897C119.294 38.2587 119.019 38.6317 118.841 39.1086C118.664 39.5855 118.575 40.1266 118.575 40.7319C118.575 41.6736 118.786 42.4348 119.208 43.0157C119.63 43.5965 120.257 43.887 121.088 43.887C121.675 43.887 122.137 43.7524 122.473 43.4834C122.816 43.2144 123.072 42.8261 123.244 42.3186L125.5 42.8231C125.194 43.8319 124.659 44.6084 123.895 45.1526C123.131 45.6907 122.195 45.9597 121.088 45.9597ZM131.444 45.9597C130.453 45.9597 129.588 45.7365 128.848 45.2902C128.108 44.8438 127.534 44.2294 127.124 43.4467C126.72 42.658 126.519 41.753 126.519 40.7319C126.519 39.6925 126.727 38.7815 127.142 37.9988C127.558 37.2162 128.136 36.6048 128.876 36.1645C129.616 35.7243 130.472 35.5042 131.444 35.5042C132.44 35.5042 133.309 35.7274 134.049 36.1737C134.788 36.62 135.363 37.2376 135.773 38.0263C136.182 38.809 136.387 39.7109 136.387 40.7319C136.387 41.7592 136.179 42.6671 135.764 43.4559C135.354 44.2385 134.779 44.853 134.039 45.2994C133.3 45.7396 132.434 45.9597 131.444 45.9597ZM131.444 43.887C132.324 43.887 132.979 43.5935 133.407 43.0065C133.835 42.4195 134.049 41.6613 134.049 40.7319C134.049 39.772 133.831 39.0077 133.397 38.4391C132.963 37.8643 132.312 37.5769 131.444 37.5769C130.851 37.5769 130.362 37.7115 129.976 37.9805C129.597 38.2434 129.316 38.6133 129.133 39.0902C128.949 39.561 128.857 40.1083 128.857 40.7319C128.857 41.6919 129.075 42.4593 129.509 43.034C129.949 43.6026 130.594 43.887 131.444 43.887ZM138.591 34.2752V32.2483H140.802V34.2752H138.591ZM138.591 45.6846V35.7793H140.802V45.6846H138.591ZM150.4 45.6846V40.9154C150.4 40.6035 150.379 40.2581 150.336 39.879C150.293 39.4999 150.192 39.1361 150.033 38.7876C149.881 38.433 149.648 38.1425 149.336 37.9163C149.031 37.6901 148.615 37.5769 148.089 37.5769C147.808 37.5769 147.53 37.6228 147.254 37.7145C146.979 37.8062 146.729 37.9652 146.502 38.1914C146.282 38.4116 146.105 38.7173 145.97 39.1086C145.836 39.4938 145.769 39.9891 145.769 40.5944L144.457 40.0349C144.457 39.1911 144.619 38.4268 144.943 37.742C145.273 37.0572 145.756 36.513 146.392 36.1095C147.028 35.6998 147.811 35.495 148.74 35.495C149.474 35.495 150.079 35.6173 150.556 35.8619C151.033 36.1064 151.412 36.4183 151.693 36.7974C151.975 37.1765 152.183 37.58 152.317 38.008C152.452 38.436 152.537 38.8426 152.574 39.2278C152.617 39.6069 152.638 39.9157 152.638 40.1541V45.6846H150.4ZM143.531 45.6846V35.7793H145.503V38.8518H145.769V45.6846H143.531Z" fill="#10192D"/>
<rect x="303.668" y="23.0608" width="31.2479" height="31.2479" rx="15.6239" fill="#F59E0B"/>
<g clip-path="url(#clip1_5303_42879)">
<path d="M315.1 43.5862L314.721 45.001C314.679 45.1572 314.771 45.318 314.928 45.3598L316.06 45.6631C316.135 45.6832 316.215 45.6727 316.282 45.6338C316.349 45.595 316.398 45.531 316.418 45.456L316.797 44.0411L317.363 44.1928L316.984 45.6076C316.942 45.7638 317.035 45.9245 317.191 45.9664L318.323 46.2697C318.398 46.2898 318.478 46.2793 318.546 46.2404C318.613 46.2016 318.662 46.1376 318.682 46.0625L319.061 44.6477L319.156 44.6732C321.411 45.2773 323.336 44.54 323.878 42.5173C324.334 40.8172 323.443 39.5826 322.144 39.0926L322.17 38.993C323.342 39.0132 324.371 38.401 324.74 37.0246C325.204 35.2906 324.185 33.8892 322.198 33.3569L322.094 33.329L322.473 31.9142C322.493 31.8391 322.483 31.7592 322.444 31.6919C322.405 31.6246 322.341 31.5755 322.266 31.5554L321.134 31.2521C321.059 31.232 320.979 31.2425 320.912 31.2814C320.845 31.3202 320.795 31.3842 320.775 31.4593L320.396 32.8741L319.748 32.7003L320.127 31.2855C320.147 31.2104 320.136 31.1305 320.097 31.0632C320.059 30.9959 319.995 30.9468 319.92 30.9267L318.87 30.6455C318.795 30.6254 318.715 30.636 318.648 30.6748C318.581 30.7137 318.532 30.7776 318.512 30.8527L318.132 32.2675L315.868 31.674C315.793 31.6539 315.713 31.6644 315.645 31.7033C315.578 31.7421 315.529 31.8061 315.509 31.8812L315.209 33.0006C315.167 33.1556 315.258 33.3169 315.414 33.3588L316.27 33.5821C316.494 33.6436 316.684 33.7912 316.799 33.9926C316.915 34.1939 316.946 34.4328 316.886 34.6569L315.216 40.8879C315.156 41.113 315.008 41.305 314.807 41.4215C314.605 41.538 314.365 41.5696 314.14 41.5093L313.29 41.2949C313.215 41.2748 313.135 41.2853 313.067 41.3242C313 41.363 312.951 41.427 312.931 41.502L312.628 42.6339C312.586 42.7901 312.679 42.9508 312.835 42.9927L315.1 43.5862ZM319.297 34.3834L321.242 34.9047C322.268 35.1795 322.719 35.9045 322.472 36.8259C322.208 37.8117 321.408 38.1931 319.934 37.7982L318.486 37.41L319.297 34.3834ZM318.068 38.9686L320.151 39.5266C321.438 39.8715 321.962 40.7157 321.676 41.7842C321.387 42.8628 320.528 43.2355 318.794 42.7709L317.166 42.3348L318.068 38.9697L318.068 38.9686Z" fill="white"/>
</g>
<mask id="path-9-inside-2_5303_42879" fill="white">
<path d="M0.155273 77.2373H179V174.266H0.155273V77.2373Z"/>
</mask>
<path d="M179 174.266V175.413H180.146V174.266H179ZM177.854 77.2373V174.266H180.146V77.2373H177.854ZM179 173.12H0.155273V175.413H179V173.12Z" fill="#E2E8F0" mask="url(#path-9-inside-2_5303_42879)"/>
<path d="M23.8865 112.166V103.912H24.9068V107.552H29.2518V103.912H30.2722V112.166H29.2518V108.52H24.9068V112.166H23.8865ZM33.1413 112.166V103.912H34.1616V112.166H33.1413ZM40.3699 112.338C39.8043 112.338 39.2884 112.239 38.8222 112.04C38.356 111.841 37.9547 111.556 37.6184 111.186C37.2821 110.811 37.0223 110.36 36.8389 109.833C36.6592 109.302 36.5694 108.704 36.5694 108.039C36.5694 107.16 36.7261 106.399 37.0395 105.757C37.3528 105.115 37.7942 104.621 38.3636 104.273C38.933 103.921 39.6018 103.745 40.3699 103.745C41.2947 103.745 42.0399 103.961 42.6054 104.393C43.171 104.821 43.5608 105.408 43.7748 106.153L42.743 106.365C42.5711 105.864 42.2883 105.465 41.8947 105.167C41.501 104.869 41.01 104.72 40.4215 104.72C39.8062 104.716 39.2941 104.854 38.8852 105.133C38.4802 105.408 38.1745 105.796 37.9681 106.296C37.7617 106.797 37.6566 107.378 37.6528 108.039C37.649 108.696 37.7503 109.273 37.9566 109.77C38.163 110.267 38.4706 110.657 38.8795 110.939C39.2922 111.218 39.8062 111.36 40.4215 111.364C40.9527 111.367 41.3998 111.266 41.7628 111.06C42.1259 110.853 42.4067 110.555 42.6054 110.165C42.8042 109.776 42.9245 109.308 42.9666 108.761H41.2125V107.918H44.0442C44.0557 107.995 44.0614 108.087 44.0614 108.194C44.0652 108.297 44.0672 108.367 44.0672 108.406C44.0672 109.159 43.9258 109.833 43.643 110.429C43.364 111.021 42.9494 111.488 42.3991 111.828C41.8526 112.168 41.1762 112.338 40.3699 112.338ZM46.3585 112.166V103.912H47.3788V107.552H51.7239V103.912H52.7442V112.166H51.7239V108.52H47.3788V112.166H46.3585ZM55.4987 112.166V103.912H60.715V104.88H56.519V107.466H60.0271V108.434H56.519V111.197H60.715V112.166H55.4987ZM65.9334 112.338C65.3488 112.338 64.8214 112.239 64.3514 112.04C63.8851 111.841 63.4992 111.558 63.1935 111.192C62.8916 110.821 62.6948 110.383 62.603 109.879L63.6578 109.713C63.7915 110.232 64.0686 110.639 64.4889 110.934C64.9131 111.224 65.4118 111.369 65.985 111.369C66.3557 111.369 66.6901 111.312 66.9882 111.197C67.2901 111.079 67.5289 110.911 67.7047 110.693C67.8805 110.475 67.9684 110.217 67.9684 109.919C67.9684 109.736 67.9359 109.579 67.8709 109.449C67.8098 109.315 67.7238 109.202 67.613 109.111C67.506 109.015 67.3837 108.935 67.2461 108.87C67.1086 108.805 66.9652 108.752 66.8162 108.709L64.7125 108.085C64.4832 108.016 64.2616 107.93 64.0476 107.827C63.8336 107.72 63.6425 107.588 63.4743 107.431C63.3062 107.271 63.1724 107.08 63.0731 106.858C62.9737 106.633 62.924 106.367 62.924 106.061C62.924 105.572 63.0502 105.156 63.3024 104.812C63.5584 104.464 63.9043 104.198 64.3399 104.015C64.7755 103.831 65.2666 103.742 65.8131 103.745C66.3672 103.749 66.8621 103.849 67.2977 104.043C67.7372 104.235 68.1002 104.51 68.3868 104.869C68.6773 105.228 68.8722 105.658 68.9715 106.159L67.8881 106.348C67.8308 106.012 67.7028 105.723 67.5041 105.482C67.3092 105.238 67.0646 105.05 66.7704 104.921C66.4761 104.787 66.1532 104.718 65.8016 104.714C65.4653 104.71 65.1615 104.764 64.8902 104.875C64.6189 104.985 64.403 105.14 64.2425 105.339C64.0819 105.534 64.0017 105.759 64.0017 106.015C64.0017 106.268 64.0743 106.472 64.2195 106.629C64.3647 106.782 64.5424 106.904 64.7526 106.996C64.9666 107.083 65.1749 107.156 65.3774 107.213L66.948 107.666C67.1277 107.716 67.334 107.785 67.5671 107.873C67.8041 107.96 68.0333 108.085 68.255 108.245C68.4766 108.402 68.6601 108.612 68.8053 108.876C68.9505 109.136 69.0231 109.464 69.0231 109.862C69.0231 110.259 68.9429 110.613 68.7824 110.922C68.6257 111.232 68.4059 111.492 68.1232 111.702C67.8404 111.908 67.5117 112.065 67.1372 112.172C66.7627 112.283 66.3615 112.338 65.9334 112.338ZM73.4986 112.166V104.88H70.6841V103.912H77.3335V104.88H74.5189V112.166H73.4986ZM82.4871 112.166V103.912H85.7028C86.1958 103.912 86.6162 104.013 86.9639 104.215C87.3155 104.418 87.583 104.685 87.7664 105.018C87.9537 105.347 88.0473 105.702 88.0473 106.084C88.0473 106.531 87.9327 106.923 87.7034 107.259C87.4741 107.596 87.1645 107.827 86.7748 107.953L86.7633 107.672C87.2945 107.813 87.7072 108.073 88.0014 108.452C88.2957 108.83 88.4428 109.281 88.4428 109.804C88.4428 110.286 88.3435 110.702 88.1447 111.054C87.9499 111.406 87.6671 111.679 87.2964 111.874C86.9295 112.069 86.4939 112.166 85.9894 112.166H82.4871ZM83.5189 111.192H85.7945C86.1003 111.192 86.3735 111.136 86.6142 111.025C86.855 110.911 87.0442 110.75 87.1817 110.544C87.3231 110.337 87.3938 110.089 87.3938 109.799C87.3938 109.52 87.3308 109.269 87.2047 109.048C87.0824 108.826 86.9085 108.65 86.683 108.52C86.4614 108.387 86.2034 108.32 85.9092 108.32H83.5189V111.192ZM83.5189 107.357H85.6914C85.9359 107.357 86.1557 107.305 86.3506 107.202C86.5493 107.095 86.706 106.946 86.8206 106.755C86.9391 106.564 86.9983 106.34 86.9983 106.084C86.9983 105.729 86.8779 105.438 86.6372 105.213C86.3964 104.987 86.0812 104.875 85.6914 104.875H83.5189V107.357ZM90.8462 112.166V103.912H91.8666V112.166H90.8462ZM94.7329 112.166V103.912H97.278C97.3621 103.912 97.5092 103.914 97.7194 103.917C97.9296 103.921 98.1302 103.936 98.3213 103.963C98.9595 104.047 99.4926 104.28 99.9206 104.663C100.352 105.041 100.677 105.522 100.895 106.107C101.113 106.692 101.222 107.336 101.222 108.039C101.222 108.742 101.113 109.386 100.895 109.971C100.677 110.555 100.352 111.039 99.9206 111.421C99.4926 111.799 98.9595 112.03 98.3213 112.114C98.1302 112.137 97.9277 112.153 97.7137 112.16C97.5035 112.164 97.3583 112.166 97.278 112.166H94.7329ZM95.7819 111.192H97.278C97.4232 111.192 97.5857 111.188 97.7653 111.18C97.9449 111.169 98.1016 111.151 98.2353 111.128C98.6862 111.044 99.0512 110.855 99.3302 110.561C99.6091 110.267 99.8136 109.9 99.9435 109.46C100.073 109.021 100.138 108.547 100.138 108.039C100.138 107.519 100.072 107.04 99.9378 106.6C99.8078 106.161 99.6034 105.796 99.3244 105.505C99.0455 105.215 98.6824 105.029 98.2353 104.949C98.1016 104.922 97.943 104.905 97.7595 104.898C97.5761 104.89 97.4156 104.886 97.278 104.886H95.7819V111.192Z" fill="#8E9BAE"/>
<path d="M44.1032 148.608H27.8619C25.8843 148.608 24.2793 147.003 24.2793 145.025V128.784C24.2793 128.392 24.6041 128.067 24.9958 128.067C25.3875 128.067 25.7123 128.392 25.7123 128.784V145.025C25.7123 146.21 26.6773 147.175 27.8619 147.175H44.1032C44.4949 147.175 44.8197 147.5 44.8197 147.891C44.8197 148.283 44.4949 148.608 44.1032 148.608Z" fill="#101010"/>
<path d="M27.8619 143.831C27.6995 143.831 27.5275 143.773 27.3937 143.659C27.0976 143.401 27.0594 142.952 27.3173 142.646L31.7024 137.525C32.1801 136.971 32.868 136.637 33.5941 136.608C34.3201 136.589 35.0367 136.857 35.5526 137.372L36.4602 138.28C36.699 138.519 37.0143 138.634 37.3487 138.634C37.683 138.624 37.9888 138.471 38.2085 138.213L42.5936 133.092C42.8516 132.796 43.3006 132.758 43.6063 133.016C43.9025 133.274 43.9407 133.723 43.6827 134.029L39.2976 139.149C38.8199 139.704 38.1321 140.038 37.406 140.067C36.6799 140.086 35.9634 139.818 35.4475 139.302L34.5494 138.395C34.3106 138.156 33.9953 138.032 33.6609 138.041C33.3266 138.051 33.0208 138.204 32.8011 138.462L28.416 143.582C28.2631 143.745 28.0625 143.831 27.8619 143.831Z" fill="#101010"/>
<path d="M59.9258 147.163V144.989H62.1361V147.163H59.9258ZM59.9258 132.488V130.315H62.1361V132.488H59.9258ZM61.0814 145.613C60.152 145.613 59.3204 145.442 58.5867 145.099C57.853 144.757 57.2507 144.274 56.7799 143.65C56.3152 143.026 56.0187 142.287 55.8903 141.431L58.0731 141.082C58.2443 141.834 58.6112 142.433 59.1737 142.88C59.7423 143.32 60.421 143.54 61.2098 143.54C61.968 143.54 62.5916 143.363 63.0808 143.008C63.5699 142.647 63.8145 142.192 63.8145 141.642C63.8145 141.256 63.6983 140.944 63.466 140.706C63.2336 140.461 62.8606 140.26 62.347 140.101L59.1645 139.11C57.3119 138.535 56.3856 137.41 56.3856 135.735C56.3856 134.952 56.572 134.271 56.945 133.69C57.3241 133.103 57.8561 132.653 58.5409 132.342C59.2257 132.024 60.0328 131.868 60.9621 131.874C61.8243 131.88 62.5916 132.036 63.2642 132.342C63.9429 132.647 64.5054 133.088 64.9518 133.662C65.4042 134.237 65.7252 134.928 65.9148 135.735L63.6494 136.148C63.5638 135.714 63.3957 135.332 63.145 135.001C62.8943 134.671 62.5794 134.414 62.2003 134.231C61.8212 134.047 61.3993 133.95 60.9346 133.937C60.4883 133.931 60.0878 134.002 59.7332 134.148C59.3785 134.289 59.0973 134.491 58.8894 134.754C58.6815 135.011 58.5775 135.301 58.5775 135.625C58.5775 135.986 58.7212 136.295 59.0086 136.551C59.3021 136.808 59.7637 137.028 60.3935 137.212L62.7689 137.9C63.9123 138.23 64.7347 138.679 65.2361 139.248C65.7436 139.81 65.9973 140.559 65.9973 141.495C65.9973 142.314 65.7925 143.033 65.3828 143.65C64.9732 144.268 64.3984 144.751 63.6586 145.099C62.9187 145.442 62.0597 145.613 61.0814 145.613ZM73.4708 145.338V143.155H67.6194V141.091L71.8475 132.131H74.3696L70.1415 141.091H73.4708V137.652H75.7087V141.091H76.9468V143.155H75.7087V145.338H73.4708ZM83.7135 145.613C82.8514 145.613 82.0749 145.411 81.384 145.007C80.6992 144.598 80.155 144.032 79.7514 143.311C79.3479 142.589 79.1461 141.761 79.1461 140.825V136.808C79.1461 135.805 79.3448 134.934 79.7423 134.194C80.1458 133.454 80.7083 132.883 81.4298 132.479C82.1574 132.076 83.0012 131.874 83.9612 131.874C84.6276 131.874 85.2605 131.987 85.8597 132.213C86.4589 132.433 86.9908 132.788 87.4555 133.277L85.8597 134.827C85.6273 134.552 85.343 134.335 85.0067 134.176C84.6766 134.017 84.328 133.937 83.9612 133.937C83.4476 133.937 82.9982 134.06 82.613 134.304C82.2278 134.543 81.9282 134.858 81.7141 135.249C81.5063 135.64 81.4023 136.059 81.4023 136.505V138.697L80.9988 138.257C81.3779 137.817 81.8334 137.475 82.3653 137.23C82.8973 136.979 83.4537 136.854 84.0345 136.854C84.8661 136.854 85.5998 137.044 86.2357 137.423C86.8716 137.796 87.373 138.309 87.7398 138.963C88.1067 139.612 88.2901 140.351 88.2901 141.183C88.2901 142.008 88.0792 142.757 87.6573 143.43C87.2415 144.096 86.6882 144.628 85.9973 145.026C85.3063 145.417 84.5451 145.613 83.7135 145.613ZM83.7135 143.494C84.1415 143.494 84.5329 143.393 84.8875 143.192C85.2421 142.984 85.5234 142.705 85.7313 142.357C85.9453 142.002 86.0523 141.611 86.0523 141.183C86.0523 140.755 85.9483 140.364 85.7404 140.009C85.5326 139.654 85.2513 139.373 84.8967 139.165C84.5481 138.951 84.1599 138.844 83.7319 138.844C83.3039 138.844 82.9126 138.951 82.5579 139.165C82.2033 139.373 81.922 139.654 81.7141 140.009C81.5063 140.364 81.4023 140.755 81.4023 141.183C81.4023 141.599 81.5032 141.984 81.705 142.339C81.9129 142.687 82.1911 142.968 82.5396 143.182C82.8942 143.39 83.2855 143.494 83.7135 143.494ZM94.8587 145.613C93.9843 145.613 93.2078 145.435 92.5291 145.081C91.8504 144.726 91.3185 144.234 90.9332 143.604C90.548 142.974 90.3554 142.253 90.3554 141.44C90.3554 140.712 90.5236 140.037 90.8599 139.413C91.1962 138.789 91.6884 138.291 92.3365 137.918L92.2906 138.624C91.7831 138.239 91.3888 137.796 91.1075 137.294C90.8324 136.787 90.6948 136.218 90.6948 135.588C90.6948 134.83 90.8721 134.173 91.2267 133.616C91.5875 133.06 92.0797 132.629 92.7034 132.323C93.327 132.011 94.0455 131.856 94.8587 131.856C95.6719 131.856 96.3903 132.011 97.014 132.323C97.6437 132.629 98.136 133.06 98.4906 133.616C98.8513 134.173 99.0317 134.83 99.0317 135.588C99.0317 136.218 98.8972 136.784 98.6282 137.285C98.3652 137.786 97.9648 138.239 97.4267 138.642L97.4175 137.927C98.0534 138.288 98.5395 138.783 98.8758 139.413C99.2182 140.037 99.3894 140.712 99.3894 141.44C99.3894 142.253 99.1937 142.974 98.8024 143.604C98.4172 144.234 97.8822 144.726 97.1974 145.081C96.5187 145.435 95.7391 145.613 94.8587 145.613ZM94.8587 143.531C95.5068 143.531 96.0326 143.354 96.4362 142.999C96.8458 142.644 97.0507 142.125 97.0507 141.44C97.0507 140.755 96.8489 140.235 96.4453 139.881C96.0418 139.52 95.5129 139.339 94.8587 139.339C94.2105 139.339 93.6878 139.52 93.2903 139.881C92.8929 140.235 92.6942 140.755 92.6942 141.44C92.6942 142.125 92.8929 142.644 93.2903 142.999C93.6878 143.354 94.2105 143.531 94.8587 143.531ZM94.8587 137.239C95.4028 137.239 95.8431 137.105 96.1794 136.836C96.5218 136.56 96.693 136.145 96.693 135.588C96.693 135.032 96.5218 134.619 96.1794 134.35C95.8431 134.075 95.4028 133.937 94.8587 133.937C94.3206 133.937 93.8804 134.075 93.538 134.35C93.2017 134.619 93.0335 135.032 93.0335 135.588C93.0335 136.145 93.2017 136.56 93.538 136.836C93.8804 137.105 94.3206 137.239 94.8587 137.239ZM106.09 145.613C105.216 145.613 104.439 145.435 103.761 145.081C103.082 144.726 102.55 144.234 102.165 143.604C101.78 142.974 101.587 142.253 101.587 141.44C101.587 140.712 101.755 140.037 102.091 139.413C102.428 138.789 102.92 138.291 103.568 137.918L103.522 138.624C103.015 138.239 102.62 137.796 102.339 137.294C102.064 136.787 101.926 136.218 101.926 135.588C101.926 134.83 102.104 134.173 102.458 133.616C102.819 133.06 103.311 132.629 103.935 132.323C104.559 132.011 105.277 131.856 106.09 131.856C106.903 131.856 107.622 132.011 108.246 132.323C108.875 132.629 109.367 133.06 109.722 133.616C110.083 134.173 110.263 134.83 110.263 135.588C110.263 136.218 110.129 136.784 109.86 137.285C109.597 137.786 109.196 138.239 108.658 138.642L108.649 137.927C109.285 138.288 109.771 138.783 110.107 139.413C110.45 140.037 110.621 140.712 110.621 141.44C110.621 142.253 110.425 142.974 110.034 143.604C109.649 144.234 109.114 144.726 108.429 145.081C107.75 145.435 106.971 145.613 106.09 145.613ZM106.09 143.531C106.738 143.531 107.264 143.354 107.668 142.999C108.077 142.644 108.282 142.125 108.282 141.44C108.282 140.755 108.08 140.235 107.677 139.881C107.273 139.52 106.744 139.339 106.09 139.339C105.442 139.339 104.919 139.52 104.522 139.881C104.124 140.235 103.926 140.755 103.926 141.44C103.926 142.125 104.124 142.644 104.522 142.999C104.919 143.354 105.442 143.531 106.09 143.531ZM106.09 137.239C106.634 137.239 107.075 137.105 107.411 136.836C107.753 136.56 107.925 136.145 107.925 135.588C107.925 135.032 107.753 134.619 107.411 134.35C107.075 134.075 106.634 133.937 106.09 133.937C105.552 133.937 105.112 134.075 104.769 134.35C104.433 134.619 104.265 135.032 104.265 135.588C104.265 136.145 104.433 136.56 104.769 136.836C105.112 137.105 105.552 137.239 106.09 137.239ZM113.369 145.338V143.072H115.634V145.338H113.369ZM123.324 145.613C122.388 145.613 121.563 145.414 120.847 145.017C120.132 144.613 119.573 144.054 119.169 143.338C118.772 142.623 118.573 141.797 118.573 140.862V136.606C118.573 135.671 118.772 134.845 119.169 134.13C119.573 133.415 120.132 132.858 120.847 132.461C121.563 132.057 122.388 131.856 123.324 131.856C124.259 131.856 125.082 132.057 125.791 132.461C126.506 132.858 127.066 133.415 127.469 134.13C127.873 134.845 128.075 135.671 128.075 136.606V140.862C128.075 141.797 127.873 142.623 127.469 143.338C127.066 144.054 126.506 144.613 125.791 145.017C125.082 145.414 124.259 145.613 123.324 145.613ZM123.324 143.513C123.788 143.513 124.21 143.402 124.589 143.182C124.969 142.956 125.268 142.657 125.488 142.284C125.708 141.904 125.818 141.483 125.818 141.018V136.441C125.818 135.97 125.708 135.549 125.488 135.176C125.268 134.797 124.969 134.497 124.589 134.277C124.21 134.051 123.788 133.937 123.324 133.937C122.859 133.937 122.437 134.051 122.058 134.277C121.679 134.497 121.379 134.797 121.159 135.176C120.939 135.549 120.829 135.97 120.829 136.441V141.018C120.829 141.483 120.939 141.904 121.159 142.284C121.379 142.657 121.679 142.956 122.058 143.182C122.437 143.402 122.859 143.513 123.324 143.513ZM135.397 145.613C134.462 145.613 133.636 145.414 132.921 145.017C132.206 144.613 131.646 144.054 131.243 143.338C130.845 142.623 130.646 141.797 130.646 140.862V136.606C130.646 135.671 130.845 134.845 131.243 134.13C131.646 133.415 132.206 132.858 132.921 132.461C133.636 132.057 134.462 131.856 135.397 131.856C136.333 131.856 137.155 132.057 137.864 132.461C138.58 132.858 139.139 133.415 139.543 134.13C139.946 134.845 140.148 135.671 140.148 136.606V140.862C140.148 141.797 139.946 142.623 139.543 143.338C139.139 144.054 138.58 144.613 137.864 145.017C137.155 145.414 136.333 145.613 135.397 145.613ZM135.397 143.513C135.862 143.513 136.284 143.402 136.663 143.182C137.042 142.956 137.342 142.657 137.562 142.284C137.782 141.904 137.892 141.483 137.892 141.018V136.441C137.892 135.97 137.782 135.549 137.562 135.176C137.342 134.797 137.042 134.497 136.663 134.277C136.284 134.051 135.862 133.937 135.397 133.937C134.933 133.937 134.511 134.051 134.132 134.277C133.752 134.497 133.453 134.797 133.233 135.176C133.013 135.549 132.903 135.97 132.903 136.441V141.018C132.903 141.483 133.013 141.904 133.233 142.284C133.453 142.657 133.752 142.956 134.132 143.182C134.511 143.402 134.933 143.513 135.397 143.513Z" fill="#10192D"/>
<mask id="path-15-inside-3_5303_42879" fill="white">
<path d="M179 77.2373H357.845V174.266H179V77.2373Z"/>
</mask>
<path d="M357.845 173.12H179V175.413H357.845V173.12Z" fill="#E2E8F0" mask="url(#path-15-inside-3_5303_42879)"/>
<path d="M202.731 112.166V103.912H203.66L206.778 110.486L209.879 103.912H210.819V112.16H209.851V106.153L207.048 112.166H206.503L203.7 106.153V112.166H202.731ZM213 112.166L215.763 103.912H217.184L219.947 112.166H218.887L216.302 104.508H216.623L214.06 112.166H213ZM214.33 110.234V109.277H218.617V110.234H214.33ZM221.432 112.166L224.27 107.987L221.507 103.912H222.75L224.889 107.127L227.021 103.912H228.271L225.508 107.987L228.339 112.166H227.095L224.889 108.853L222.682 112.166H221.432ZM233.266 112.166L236.029 103.912H237.451L240.214 112.166H239.153L236.568 104.508H236.889L234.327 112.166H233.266ZM234.596 110.234V109.277H238.884V110.234H234.596ZM242.386 112.166V103.912H243.315L246.433 110.486L249.534 103.912H250.475V112.16H249.506V106.153L246.703 112.166H246.158L243.355 106.153V112.166H242.386ZM256.622 112.338C255.8 112.338 255.103 112.156 254.53 111.793C253.956 111.43 253.519 110.926 253.217 110.28C252.919 109.634 252.77 108.887 252.77 108.039C252.77 107.19 252.919 106.443 253.217 105.798C253.519 105.152 253.956 104.647 254.53 104.284C255.103 103.921 255.8 103.74 256.622 103.74C257.447 103.74 258.147 103.921 258.72 104.284C259.293 104.647 259.729 105.152 260.027 105.798C260.325 106.443 260.474 107.19 260.474 108.039C260.474 108.887 260.325 109.634 260.027 110.28C259.729 110.926 259.293 111.43 258.72 111.793C258.147 112.156 257.447 112.338 256.622 112.338ZM256.622 111.364C257.237 111.367 257.749 111.23 258.158 110.951C258.571 110.668 258.878 110.276 259.081 109.776C259.287 109.275 259.39 108.696 259.39 108.039C259.39 107.378 259.287 106.799 259.081 106.302C258.878 105.805 258.571 105.417 258.158 105.138C257.749 104.859 257.237 104.718 256.622 104.714C256.007 104.71 255.494 104.848 255.086 105.127C254.68 105.406 254.375 105.796 254.168 106.296C253.962 106.797 253.857 107.378 253.853 108.039C253.849 108.696 253.951 109.273 254.157 109.77C254.363 110.267 254.671 110.657 255.08 110.939C255.493 111.218 256.007 111.36 256.622 111.364ZM266.027 112.338C265.389 112.338 264.826 112.206 264.336 111.942C263.847 111.679 263.463 111.31 263.184 110.836C262.909 110.358 262.772 109.799 262.772 109.157V103.917L263.803 103.912V109.071C263.803 109.46 263.868 109.801 263.998 110.091C264.132 110.378 264.308 110.616 264.526 110.807C264.743 110.999 264.982 111.142 265.242 111.237C265.506 111.329 265.768 111.375 266.027 111.375C266.291 111.375 266.555 111.327 266.818 111.232C267.082 111.136 267.321 110.995 267.535 110.807C267.753 110.616 267.927 110.376 268.057 110.085C268.187 109.795 268.252 109.457 268.252 109.071V103.912H269.283V109.157C269.283 109.795 269.144 110.353 268.865 110.83C268.59 111.308 268.208 111.679 267.718 111.942C267.229 112.206 266.666 112.338 266.027 112.338ZM272.035 112.166V103.912H273.067L277.372 110.36V103.912H278.403V112.166H277.372L273.067 105.712V112.166H272.035ZM283.279 112.166V104.88H280.465V103.912H287.114V104.88H284.3V112.166H283.279Z" fill="#8E9BAE"/>
<path d="M203.213 145.338V132.131H208.45C209.342 132.131 210.073 132.311 210.642 132.672C211.216 133.026 211.641 133.482 211.917 134.038C212.198 134.595 212.338 135.169 212.338 135.763C212.338 136.49 212.164 137.108 211.816 137.615C211.473 138.123 211.005 138.465 210.412 138.642V138.184C211.244 138.373 211.874 138.768 212.302 139.367C212.736 139.966 212.953 140.648 212.953 141.412C212.953 142.195 212.803 142.88 212.503 143.467C212.204 144.054 211.758 144.512 211.164 144.842C210.577 145.173 209.85 145.338 208.982 145.338H203.213ZM205.451 143.256H208.706C209.092 143.256 209.437 143.179 209.743 143.026C210.049 142.867 210.287 142.647 210.458 142.366C210.636 142.079 210.724 141.739 210.724 141.348C210.724 140.993 210.648 140.675 210.495 140.394C210.342 140.113 210.119 139.89 209.825 139.725C209.532 139.553 209.18 139.468 208.771 139.468H205.451V143.256ZM205.451 137.404H208.422C208.74 137.404 209.024 137.343 209.275 137.221C209.526 137.099 209.725 136.918 209.871 136.68C210.018 136.441 210.091 136.148 210.091 135.799C210.091 135.341 209.945 134.959 209.651 134.653C209.358 134.347 208.948 134.194 208.422 134.194H205.451V137.404ZM217.6 145.338V134.203H213.326V132.131H224.084V134.203H219.81V145.338H217.6ZM231.136 145.613C229.815 145.613 228.684 145.325 227.742 144.751C226.801 144.17 226.076 143.363 225.569 142.329C225.067 141.296 224.817 140.098 224.817 138.734C224.817 137.371 225.067 136.172 225.569 135.139C226.076 134.106 226.801 133.302 227.742 132.727C228.684 132.146 229.815 131.856 231.136 131.856C232.658 131.856 233.927 132.238 234.942 133.002C235.957 133.76 236.669 134.784 237.079 136.074L234.85 136.689C234.594 135.827 234.156 135.154 233.539 134.671C232.921 134.182 232.12 133.937 231.136 133.937C230.249 133.937 229.509 134.136 228.916 134.534C228.329 134.931 227.886 135.49 227.586 136.212C227.293 136.927 227.143 137.768 227.137 138.734C227.137 139.7 227.284 140.544 227.577 141.265C227.877 141.981 228.323 142.537 228.916 142.935C229.509 143.332 230.249 143.531 231.136 143.531C232.12 143.531 232.921 143.286 233.539 142.797C234.156 142.308 234.594 141.635 234.85 140.779L237.079 141.394C236.669 142.684 235.957 143.711 234.942 144.476C233.927 145.234 232.658 145.613 231.136 145.613Z" fill="#10192D"/>
<mask id="path-19-inside-4_5303_42879" fill="white">
<path d="M0.155273 174.267H357.845V223.564H0.155273V174.267Z"/>
</mask>
<path d="M357.845 222.417H0.155273V224.71H357.845V222.417Z" fill="#E2E8F0" mask="url(#path-19-inside-4_5303_42879)"/>
<path d="M24.047 204.415V194.51H28.1398C28.2361 194.51 28.3599 194.514 28.5112 194.524C28.6626 194.528 28.8024 194.542 28.9308 194.565C29.5041 194.652 29.9764 194.842 30.3478 195.136C30.7239 195.429 31.0013 195.801 31.1801 196.25C31.3636 196.695 31.4553 197.19 31.4553 197.736C31.4553 198.277 31.3636 198.772 31.1801 199.222C30.9967 199.666 30.717 200.036 30.341 200.329C29.9695 200.623 29.4995 200.813 28.9308 200.9C28.8024 200.918 28.6603 200.932 28.5044 200.941C28.353 200.95 28.2315 200.955 28.1398 200.955H25.7047V204.415H24.047ZM25.7047 199.407H28.071C28.1627 199.407 28.2659 199.403 28.3805 199.394C28.4952 199.384 28.6007 199.366 28.697 199.339C28.9721 199.27 29.1876 199.148 29.3435 198.974C29.5041 198.8 29.6164 198.603 29.6806 198.382C29.7494 198.162 29.7838 197.947 29.7838 197.736C29.7838 197.525 29.7494 197.309 29.6806 197.089C29.6164 196.865 29.5041 196.665 29.3435 196.491C29.1876 196.317 28.9721 196.195 28.697 196.126C28.6007 196.099 28.4952 196.083 28.3805 196.078C28.2659 196.069 28.1627 196.064 28.071 196.064H25.7047V199.407ZM32.8334 204.415V196.986H34.2985V198.795L34.1197 198.561C34.2114 198.314 34.3329 198.089 34.4843 197.887C34.6402 197.681 34.8259 197.511 35.0414 197.378C35.2249 197.254 35.4266 197.158 35.6468 197.089C35.8715 197.016 36.1007 196.972 36.3346 196.959C36.5685 196.94 36.7955 196.949 37.0156 196.986V198.534C36.7955 198.47 36.541 198.449 36.2521 198.472C35.9678 198.495 35.711 198.575 35.4817 198.713C35.2524 198.836 35.0644 198.995 34.9176 199.187C34.7755 199.38 34.67 199.6 34.6012 199.848C34.5324 200.091 34.498 200.354 34.498 200.639V204.415H32.8334ZM38.4658 195.858V194.338H40.1236V195.858H38.4658ZM38.4658 204.415V196.986H40.1236V204.415H38.4658ZM45.4101 204.621C44.6443 204.621 43.9908 204.452 43.4497 204.112C42.9086 203.768 42.4936 203.301 42.2047 202.709C41.9204 202.118 41.7759 201.448 41.7713 200.701C41.7759 199.939 41.9249 199.265 42.2184 198.678C42.5165 198.087 42.9384 197.624 43.4841 197.289C44.0298 196.949 44.6787 196.78 45.4308 196.78C46.2745 196.78 46.9876 196.993 47.57 197.419C48.157 197.841 48.5399 198.419 48.7188 199.153L47.0679 199.6C46.9395 199.201 46.7262 198.891 46.4282 198.671C46.1301 198.447 45.7907 198.334 45.4101 198.334C44.9791 198.334 44.6237 198.437 44.3439 198.644C44.0642 198.846 43.8578 199.125 43.7249 199.483C43.5919 199.841 43.5254 200.247 43.5254 200.701C43.5254 201.407 43.6836 201.978 44 202.413C44.3164 202.849 44.7865 203.067 45.4101 203.067C45.8504 203.067 46.1966 202.966 46.4488 202.764C46.7056 202.562 46.8982 202.271 47.0266 201.891L48.7188 202.269C48.4895 203.026 48.0882 203.608 47.515 204.016C46.9418 204.42 46.2401 204.621 45.4101 204.621ZM53.2731 204.621C52.521 204.621 51.8606 204.459 51.292 204.133C50.7234 203.807 50.2786 203.356 49.9576 202.778C49.6411 202.2 49.4829 201.535 49.4829 200.783C49.4829 199.971 49.6388 199.268 49.9507 198.671C50.2625 198.071 50.6959 197.605 51.2507 197.275C51.8056 196.945 52.4476 196.78 53.1768 196.78C53.9472 196.78 54.6006 196.961 55.1372 197.323C55.6783 197.681 56.0795 198.188 56.3409 198.843C56.6023 199.499 56.7009 200.272 56.6367 201.161H54.9927V200.556C54.9881 199.749 54.846 199.16 54.5662 198.788C54.2865 198.417 53.8463 198.231 53.2455 198.231C52.5669 198.231 52.0624 198.442 51.7322 198.864C51.4021 199.281 51.237 199.893 51.237 200.701C51.237 201.453 51.4021 202.035 51.7322 202.448C52.0624 202.86 52.5439 203.067 53.1768 203.067C53.5849 203.067 53.9357 202.977 54.2292 202.799C54.5273 202.615 54.7566 202.351 54.9171 202.008L56.5542 202.503C56.2699 203.172 55.8296 203.693 55.2335 204.064C54.6419 204.436 53.9884 204.621 53.2731 204.621ZM50.7142 201.161V199.91H55.825V201.161H50.7142ZM58.7218 203.521V201.822H60.4208V203.521H58.7218ZM58.7356 199.579V197.88H60.4346V199.579H58.7356Z" fill="#10192D"/>
<rect x="99.8955" y="193.915" width="108.371" height="10" rx="5" fill="#E2E8F0"/>
<path d="M308.879 204.415V194.51H312.807C313.476 194.51 314.024 194.645 314.451 194.916C314.882 195.182 315.2 195.523 315.407 195.941C315.618 196.358 315.723 196.789 315.723 197.234C315.723 197.779 315.593 198.243 315.331 198.623C315.074 199.004 314.724 199.261 314.279 199.394V199.05C314.902 199.192 315.375 199.488 315.696 199.937C316.021 200.386 316.184 200.898 316.184 201.471C316.184 202.058 316.072 202.572 315.847 203.012C315.622 203.452 315.288 203.796 314.843 204.044C314.403 204.291 313.857 204.415 313.206 204.415H308.879ZM310.557 202.854H312.999C313.288 202.854 313.547 202.796 313.777 202.682C314.006 202.562 314.185 202.397 314.313 202.186C314.446 201.971 314.513 201.716 314.513 201.423C314.513 201.157 314.455 200.918 314.341 200.707C314.226 200.497 314.059 200.329 313.839 200.205C313.618 200.077 313.355 200.013 313.047 200.013H310.557V202.854ZM310.557 198.465H312.786C313.025 198.465 313.238 198.419 313.426 198.327C313.614 198.236 313.763 198.1 313.873 197.922C313.983 197.743 314.038 197.523 314.038 197.261C314.038 196.917 313.928 196.631 313.708 196.401C313.488 196.172 313.18 196.057 312.786 196.057H310.557V198.465ZM319.669 204.415V196.064H316.464V194.51H324.532V196.064H321.327V204.415H319.669ZM329.821 204.621C328.831 204.621 327.982 204.406 327.276 203.975C326.57 203.539 326.027 202.934 325.646 202.159C325.27 201.384 325.082 200.485 325.082 199.462C325.082 198.44 325.27 197.541 325.646 196.766C326.027 195.991 326.57 195.388 327.276 194.957C327.982 194.521 328.831 194.303 329.821 194.303C330.963 194.303 331.915 194.59 332.676 195.163C333.437 195.732 333.971 196.5 334.279 197.468L332.607 197.928C332.415 197.282 332.087 196.777 331.624 196.415C331.16 196.048 330.56 195.865 329.821 195.865C329.156 195.865 328.602 196.014 328.157 196.312C327.717 196.61 327.384 197.03 327.159 197.571C326.939 198.107 326.827 198.738 326.822 199.462C326.822 200.187 326.932 200.82 327.152 201.361C327.377 201.897 327.712 202.315 328.157 202.613C328.602 202.911 329.156 203.06 329.821 203.06C330.56 203.06 331.16 202.877 331.624 202.51C332.087 202.143 332.415 201.638 332.607 200.996L334.279 201.457C333.971 202.425 333.437 203.195 332.676 203.768C331.915 204.337 330.963 204.621 329.821 204.621Z" fill="#10192D"/>
<mask id="path-24-inside-5_5303_42879" fill="white">
<path d="M0.155273 223.563H357.845V274.007H0.155273V223.563Z"/>
</mask>
<path d="M357.845 272.86H0.155273V275.153H357.845V272.86Z" fill="#E2E8F0" mask="url(#path-24-inside-5_5303_42879)"/>
<path d="M23.3591 254.285L26.482 244.38H28.9102L32.0331 254.285H30.3272L27.4932 245.398H27.8646L25.065 254.285H23.3591ZM25.0994 252.139V250.591H30.2997V252.139H25.0994ZM42.1983 254.285V249.773C42.1983 249.264 42.0722 248.867 41.82 248.583C41.5678 248.294 41.2262 248.149 40.7951 248.149C40.5291 248.149 40.2907 248.211 40.0797 248.335C39.8688 248.454 39.7014 248.633 39.5776 248.872C39.4538 249.106 39.3919 249.385 39.3919 249.711L38.6558 249.278C38.6512 248.764 38.7659 248.312 38.9998 247.922C39.2382 247.528 39.5592 247.221 39.9628 247.001C40.3663 246.781 40.8157 246.67 41.311 246.67C42.1318 246.67 42.7601 246.918 43.1957 247.413C43.636 247.904 43.8561 248.551 43.8561 249.353V254.285H42.1983ZM33.263 254.285V246.856H34.7281V249.161H34.9345V254.285H33.263ZM37.741 254.285V249.793C37.741 249.275 37.6149 248.872 37.3627 248.583C37.1104 248.294 36.7665 248.149 36.3309 248.149C35.909 248.149 35.5696 248.294 35.3128 248.583C35.0606 248.872 34.9345 249.248 34.9345 249.711L34.1916 249.216C34.1916 248.734 34.3108 248.301 34.5493 247.916C34.7877 247.53 35.1087 247.228 35.5123 247.008C35.9204 246.783 36.3767 246.67 36.8811 246.67C37.436 246.67 37.8992 246.79 38.2706 247.028C38.6467 247.262 38.9264 247.583 39.1098 247.991C39.2978 248.395 39.3919 248.851 39.3919 249.36V254.285H37.741ZM48.8104 254.492C48.0675 254.492 47.4187 254.324 46.8638 253.989C46.3089 253.655 45.8778 253.194 45.5706 252.607C45.2679 252.015 45.1166 251.337 45.1166 250.571C45.1166 249.791 45.2725 249.108 45.5843 248.521C45.8962 247.934 46.3295 247.475 46.8844 247.145C47.4393 246.815 48.0813 246.65 48.8104 246.65C49.5579 246.65 50.2091 246.817 50.764 247.152C51.3188 247.487 51.7499 247.95 52.0572 248.541C52.3644 249.128 52.518 249.805 52.518 250.571C52.518 251.341 52.3621 252.022 52.0503 252.614C51.743 253.201 51.312 253.661 50.7571 253.996C50.2022 254.326 49.5533 254.492 48.8104 254.492ZM48.8104 252.937C49.4708 252.937 49.9615 252.717 50.2825 252.277C50.6035 251.836 50.764 251.268 50.764 250.571C50.764 249.851 50.6012 249.278 50.2756 248.851C49.95 248.42 49.4616 248.204 48.8104 248.204C48.3656 248.204 47.9988 248.305 47.7098 248.507C47.4255 248.704 47.2146 248.982 47.077 249.339C46.9394 249.693 46.8707 250.103 46.8707 250.571C46.8707 251.291 47.0334 251.866 47.359 252.297C47.6892 252.724 48.173 252.937 48.8104 252.937ZM56.8194 254.498C56.2691 254.498 55.8151 254.407 55.4575 254.223C55.0998 254.04 54.8155 253.806 54.6045 253.522C54.3936 253.237 54.2376 252.935 54.1368 252.614C54.0359 252.293 53.9694 251.99 53.9373 251.706C53.9098 251.417 53.896 251.183 53.896 251.004V246.856H55.5744V250.433C55.5744 250.662 55.5904 250.921 55.6225 251.21C55.6546 251.495 55.728 251.77 55.8427 252.036C55.9619 252.297 56.1362 252.513 56.3654 252.682C56.5993 252.852 56.9134 252.937 57.3078 252.937C57.5188 252.937 57.7274 252.903 57.9338 252.834C58.1401 252.765 58.3259 252.648 58.4909 252.483C58.6606 252.313 58.7959 252.082 58.8968 251.788C58.9977 251.495 59.0481 251.123 59.0481 250.674L60.0318 251.093C60.0318 251.726 59.9079 252.3 59.6603 252.813C59.4173 253.327 59.0573 253.737 58.5804 254.044C58.1034 254.347 57.5165 254.498 56.8194 254.498ZM59.2476 254.285V251.981H59.0481V246.856H60.7127V254.285H59.2476ZM67.7837 254.285V250.708C67.7837 250.474 67.7676 250.215 67.7355 249.931C67.7034 249.647 67.6277 249.374 67.5085 249.112C67.3939 248.846 67.2196 248.629 66.9857 248.459C66.7565 248.289 66.4446 248.204 66.0502 248.204C65.8393 248.204 65.6306 248.239 65.4243 248.308C65.2179 248.376 65.0299 248.496 64.8602 248.665C64.6952 248.83 64.5622 249.06 64.4613 249.353C64.3604 249.642 64.31 250.014 64.31 250.468L63.3263 250.048C63.3263 249.415 63.4478 248.842 63.6909 248.328C63.9385 247.815 64.3008 247.407 64.7777 247.104C65.2546 246.797 65.8416 246.643 66.5386 246.643C67.0889 246.643 67.5429 246.735 67.9006 246.918C68.2583 247.102 68.5426 247.335 68.7536 247.62C68.9645 247.904 69.1204 248.207 69.2213 248.528C69.3222 248.849 69.3864 249.154 69.4139 249.443C69.446 249.727 69.4621 249.958 69.4621 250.137V254.285H67.7837ZM62.6316 254.285V246.856H64.1105V249.161H64.31V254.285H62.6316ZM75.6112 254.285C75.1206 254.377 74.6391 254.416 74.1667 254.402C73.699 254.393 73.2794 254.308 72.9079 254.148C72.5365 253.982 72.2545 253.723 72.0619 253.37C71.8922 253.049 71.8028 252.721 71.7936 252.387C71.7844 252.052 71.7798 251.674 71.7798 251.252V244.793H73.4307V251.155C73.4307 251.453 73.433 251.715 73.4376 251.94C73.4468 252.164 73.4949 252.348 73.582 252.49C73.7471 252.765 74.0108 252.919 74.3731 252.951C74.7354 252.983 75.1481 252.964 75.6112 252.896V254.285ZM70.4316 248.156V246.856H75.6112V248.156H70.4316ZM77.759 253.391V251.692H79.458V253.391H77.759ZM77.7727 249.449V247.75H79.4718V249.449H77.7727Z" fill="#10192D"/>
<rect x="99.4272" y="243.785" width="108.371" height="10" rx="5" fill="#E2E8F0"/>
<path d="M308.879 254.285V244.38H312.807C313.476 244.38 314.024 244.515 314.451 244.786C314.882 245.052 315.2 245.393 315.407 245.811C315.618 246.228 315.723 246.659 315.723 247.104C315.723 247.65 315.593 248.113 315.331 248.493C315.074 248.874 314.724 249.131 314.279 249.264V248.92C314.902 249.062 315.375 249.358 315.696 249.807C316.021 250.257 316.184 250.768 316.184 251.341C316.184 251.928 316.072 252.442 315.847 252.882C315.622 253.322 315.288 253.666 314.843 253.914C314.403 254.161 313.857 254.285 313.206 254.285H308.879ZM310.557 252.724H312.999C313.288 252.724 313.547 252.666 313.777 252.552C314.006 252.433 314.185 252.267 314.313 252.056C314.446 251.841 314.513 251.586 314.513 251.293C314.513 251.027 314.455 250.789 314.341 250.578C314.226 250.367 314.059 250.199 313.839 250.075C313.618 249.947 313.355 249.883 313.047 249.883H310.557V252.724ZM310.557 248.335H312.786C313.025 248.335 313.238 248.289 313.426 248.198C313.614 248.106 313.763 247.971 313.873 247.792C313.983 247.613 314.038 247.393 314.038 247.131C314.038 246.787 313.928 246.501 313.708 246.272C313.488 246.042 313.18 245.928 312.786 245.928H310.557V248.335ZM319.669 254.285V245.934H316.464V244.38H324.532V245.934H321.327V254.285H319.669ZM329.821 254.492C328.831 254.492 327.982 254.276 327.276 253.845C326.57 253.409 326.027 252.804 325.646 252.029C325.27 251.254 325.082 250.355 325.082 249.333C325.082 248.31 325.27 247.411 325.646 246.636C326.027 245.861 326.57 245.258 327.276 244.827C327.982 244.391 328.831 244.174 329.821 244.174C330.963 244.174 331.915 244.46 332.676 245.033C333.437 245.602 333.971 246.37 334.279 247.338L332.607 247.799C332.415 247.152 332.087 246.648 331.624 246.285C331.16 245.918 330.56 245.735 329.821 245.735C329.156 245.735 328.602 245.884 328.157 246.182C327.717 246.48 327.384 246.9 327.159 247.441C326.939 247.977 326.827 248.608 326.822 249.333C326.822 250.057 326.932 250.69 327.152 251.231C327.377 251.768 327.712 252.185 328.157 252.483C328.602 252.781 329.156 252.93 329.821 252.93C330.56 252.93 331.16 252.747 331.624 252.38C332.087 252.013 332.415 251.508 332.607 250.866L334.279 251.327C333.971 252.295 333.437 253.065 332.676 253.639C331.915 254.207 330.963 254.492 329.821 254.492Z" fill="#10192D"/>
<path d="M26.427 311.936V303.585H23.2216V302.03H31.2902V303.585H28.0848V311.936H26.427ZM34.5695 312.142C33.8266 312.142 33.1777 311.975 32.6228 311.64C32.068 311.305 31.6369 310.844 31.3297 310.257C31.027 309.666 30.8757 308.987 30.8757 308.221C30.8757 307.441 31.0316 306.758 31.3434 306.171C31.6552 305.584 32.0886 305.126 32.6435 304.796C33.1983 304.465 33.8404 304.3 34.5695 304.3C35.317 304.3 35.9681 304.468 36.523 304.802C37.0779 305.137 37.509 305.6 37.8162 306.192C38.1235 306.779 38.2771 307.455 38.2771 308.221C38.2771 308.991 38.1212 309.672 37.8093 310.264C37.5021 310.851 37.071 311.312 36.5161 311.647C35.9613 311.977 35.3124 312.142 34.5695 312.142ZM34.5695 310.587C35.2298 310.587 35.7205 310.367 36.0415 309.927C36.3625 309.487 36.523 308.918 36.523 308.221C36.523 307.501 36.3602 306.928 36.0346 306.501C35.7091 306.07 35.2207 305.855 34.5695 305.855C34.1247 305.855 33.7578 305.956 33.4689 306.157C33.1846 306.355 32.9736 306.632 32.8361 306.99C32.6985 307.343 32.6297 307.753 32.6297 308.221C32.6297 308.941 32.7925 309.517 33.1181 309.948C33.4483 310.374 33.9321 310.587 34.5695 310.587ZM44.1468 311.936C43.6561 312.027 43.1746 312.066 42.7023 312.052C42.2346 312.043 41.815 311.958 41.4435 311.798C41.0721 311.633 40.79 311.374 40.5974 311.021C40.4278 310.7 40.3383 310.372 40.3292 310.037C40.32 309.702 40.3154 309.324 40.3154 308.902V302.443H41.9663V308.806C41.9663 309.104 41.9686 309.365 41.9732 309.59C41.9823 309.815 42.0305 309.998 42.1176 310.14C42.2827 310.415 42.5464 310.569 42.9087 310.601C43.2709 310.633 43.6837 310.615 44.1468 310.546V311.936ZM38.9672 305.807V304.507H44.1468V305.807H38.9672ZM47.8216 312.142C47.2851 312.142 46.8311 312.041 46.4597 311.839C46.0882 311.633 45.8062 311.36 45.6136 311.021C45.4256 310.681 45.3316 310.308 45.3316 309.899C45.3316 309.542 45.3912 309.221 45.5104 308.936C45.6296 308.648 45.8131 308.4 46.0607 308.194C46.3083 307.983 46.6293 307.811 47.0237 307.678C47.3218 307.581 47.6703 307.494 48.0693 307.416C48.4728 307.338 48.9085 307.267 49.3762 307.203C49.8485 307.134 50.3415 307.061 50.8551 306.983L50.2635 307.32C50.2681 306.806 50.1535 306.428 49.9196 306.185C49.6857 305.942 49.2914 305.82 48.7365 305.82C48.4017 305.82 48.0784 305.898 47.7666 306.054C47.4548 306.21 47.2369 306.478 47.1131 306.859L45.5998 306.384C45.7833 305.756 46.1318 305.252 46.6454 304.871C47.1636 304.491 47.8606 304.3 48.7365 304.3C49.3968 304.3 49.9769 304.408 50.4768 304.624C50.9812 304.839 51.355 305.192 51.598 305.683C51.731 305.944 51.8112 306.213 51.8388 306.488C51.8663 306.758 51.88 307.054 51.88 307.375V311.936H50.4286V310.326L50.6694 310.587C50.3346 311.124 49.9425 311.518 49.4931 311.77C49.0483 312.018 48.4911 312.142 47.8216 312.142ZM48.1518 310.821C48.5278 310.821 48.8488 310.755 49.1148 310.622C49.3808 310.489 49.5917 310.326 49.7476 310.133C49.9081 309.941 50.0159 309.76 50.0709 309.59C50.1581 309.379 50.2062 309.138 50.2154 308.868C50.2292 308.593 50.236 308.37 50.236 308.2L50.7451 308.352C50.2452 308.43 49.8164 308.499 49.4587 308.558C49.1011 308.618 48.7938 308.675 48.537 308.73C48.2802 308.781 48.0532 308.838 47.856 308.902C47.6634 308.971 47.5006 309.051 47.3676 309.143C47.2346 309.235 47.1315 309.34 47.0581 309.459C46.9893 309.578 46.9549 309.718 46.9549 309.879C46.9549 310.062 47.0008 310.225 47.0925 310.367C47.1842 310.505 47.3172 310.615 47.4915 310.697C47.6703 310.78 47.8904 310.821 48.1518 310.821ZM53.8084 311.936V301.824H55.4662V311.936H53.8084ZM58.0769 311.041V309.342H59.776V311.041H58.0769ZM58.0907 307.1V305.401H59.7897V307.1H58.0907Z" fill="#10192D"/>
<path d="M73.938 311.936V303.839L72.0808 304.974V303.145L73.938 302.03H75.6302V311.936H73.938ZM81.8138 312.142C81.1121 312.142 80.4931 311.993 79.9565 311.695C79.42 311.392 79.0004 310.973 78.6977 310.436C78.3997 309.899 78.2506 309.28 78.2506 308.579V305.387C78.2506 304.685 78.3997 304.066 78.6977 303.53C79.0004 302.993 79.42 302.576 79.9565 302.278C80.4931 301.975 81.1121 301.824 81.8138 301.824C82.5154 301.824 83.1322 301.975 83.6641 302.278C84.2007 302.576 84.6203 302.993 84.9229 303.53C85.2256 304.066 85.3769 304.685 85.3769 305.387V308.579C85.3769 309.28 85.2256 309.899 84.9229 310.436C84.6203 310.973 84.2007 311.392 83.6641 311.695C83.1322 311.993 82.5154 312.142 81.8138 312.142ZM81.8138 310.567C82.1623 310.567 82.4787 310.484 82.763 310.319C83.0473 310.149 83.272 309.925 83.4371 309.645C83.6022 309.361 83.6848 309.044 83.6848 308.696V305.263C83.6848 304.91 83.6022 304.594 83.4371 304.314C83.272 304.03 83.0473 303.805 82.763 303.64C82.4787 303.47 82.1623 303.385 81.8138 303.385C81.4652 303.385 81.1488 303.47 80.8645 303.64C80.5802 303.805 80.3555 304.03 80.1904 304.314C80.0253 304.594 79.9428 304.91 79.9428 305.263V308.696C79.9428 309.044 80.0253 309.361 80.1904 309.645C80.3555 309.925 80.5802 310.149 80.8645 310.319C81.1488 310.484 81.4652 310.567 81.8138 310.567ZM87.5809 311.936V310.237H89.2799V311.936H87.5809ZM95.0471 312.142C94.3455 312.142 93.7264 311.993 93.1899 311.695C92.6533 311.392 92.2337 310.973 91.9311 310.436C91.633 309.899 91.484 309.28 91.484 308.579V305.387C91.484 304.685 91.633 304.066 91.9311 303.53C92.2337 302.993 92.6533 302.576 93.1899 302.278C93.7264 301.975 94.3455 301.824 95.0471 301.824C95.7487 301.824 96.3655 301.975 96.8974 302.278C97.434 302.576 97.8536 302.993 98.1562 303.53C98.4589 304.066 98.6102 304.685 98.6102 305.387V308.579C98.6102 309.28 98.4589 309.899 98.1562 310.436C97.8536 310.973 97.434 311.392 96.8974 311.695C96.3655 311.993 95.7487 312.142 95.0471 312.142ZM95.0471 310.567C95.3956 310.567 95.712 310.484 95.9963 310.319C96.2807 310.149 96.5054 309.925 96.6705 309.645C96.8355 309.361 96.9181 309.044 96.9181 308.696V305.263C96.9181 304.91 96.8355 304.594 96.6705 304.314C96.5054 304.03 96.2807 303.805 95.9963 303.64C95.712 303.47 95.3956 303.385 95.0471 303.385C94.6986 303.385 94.3822 303.47 94.0978 303.64C93.8135 303.805 93.5888 304.03 93.4237 304.314C93.2586 304.594 93.1761 304.91 93.1761 305.263V308.696C93.1761 309.044 93.2586 309.361 93.4237 309.645C93.5888 309.925 93.8135 310.149 94.0978 310.319C94.3822 310.484 94.6986 310.567 95.0471 310.567ZM104.102 312.142C103.401 312.142 102.781 311.993 102.245 311.695C101.708 311.392 101.289 310.973 100.986 310.436C100.688 309.899 100.539 309.28 100.539 308.579V305.387C100.539 304.685 100.688 304.066 100.986 303.53C101.289 302.993 101.708 302.576 102.245 302.278C102.781 301.975 103.401 301.824 104.102 301.824C104.804 301.824 105.421 301.975 105.953 302.278C106.489 302.576 106.909 302.993 107.211 303.53C107.514 304.066 107.665 304.685 107.665 305.387V308.579C107.665 309.28 107.514 309.899 107.211 310.436C106.909 310.973 106.489 311.392 105.953 311.695C105.421 311.993 104.804 312.142 104.102 312.142ZM104.102 310.567C104.451 310.567 104.767 310.484 105.051 310.319C105.336 310.149 105.56 309.925 105.726 309.645C105.891 309.361 105.973 309.044 105.973 308.696V305.263C105.973 304.91 105.891 304.594 105.726 304.314C105.56 304.03 105.336 303.805 105.051 303.64C104.767 303.47 104.451 303.385 104.102 303.385C103.754 303.385 103.437 303.47 103.153 303.64C102.869 303.805 102.644 304.03 102.479 304.314C102.314 304.594 102.231 304.91 102.231 305.263V308.696C102.231 309.044 102.314 309.361 102.479 309.645C102.644 309.925 102.869 310.149 103.153 310.319C103.437 310.484 103.754 310.567 104.102 310.567ZM112.348 311.936V302.03H116.276C116.946 302.03 117.494 302.166 117.92 302.436C118.351 302.702 118.67 303.044 118.876 303.461C119.087 303.878 119.193 304.309 119.193 304.754C119.193 305.3 119.062 305.763 118.8 306.144C118.544 306.524 118.193 306.781 117.748 306.914V306.57C118.372 306.712 118.844 307.008 119.165 307.458C119.491 307.907 119.653 308.418 119.653 308.991C119.653 309.578 119.541 310.092 119.316 310.532C119.092 310.973 118.757 311.316 118.312 311.564C117.872 311.812 117.326 311.936 116.675 311.936H112.348ZM114.027 310.374H116.469C116.757 310.374 117.017 310.317 117.246 310.202C117.475 310.083 117.654 309.918 117.782 309.707C117.915 309.491 117.982 309.237 117.982 308.943C117.982 308.677 117.925 308.439 117.81 308.228C117.695 308.017 117.528 307.85 117.308 307.726C117.088 307.597 116.824 307.533 116.517 307.533H114.027V310.374ZM114.027 305.986H116.255C116.494 305.986 116.707 305.94 116.895 305.848C117.083 305.756 117.232 305.621 117.342 305.442C117.452 305.263 117.507 305.043 117.507 304.782C117.507 304.438 117.397 304.151 117.177 303.922C116.957 303.693 116.65 303.578 116.255 303.578H114.027V305.986ZM123.139 311.936V303.585H119.933V302.03H128.002V303.585H124.796V311.936H123.139ZM133.291 312.142C132.3 312.142 131.452 311.926 130.746 311.495C130.039 311.06 129.496 310.454 129.115 309.679C128.739 308.904 128.551 308.006 128.551 306.983C128.551 305.96 128.739 305.061 129.115 304.286C129.496 303.512 130.039 302.908 130.746 302.477C131.452 302.042 132.3 301.824 133.291 301.824C134.432 301.824 135.384 302.111 136.145 302.684C136.907 303.252 137.441 304.021 137.748 304.988L136.076 305.449C135.884 304.802 135.556 304.298 135.093 303.936C134.63 303.569 134.029 303.385 133.291 303.385C132.626 303.385 132.071 303.534 131.626 303.833C131.186 304.131 130.853 304.55 130.629 305.091C130.408 305.628 130.296 306.258 130.292 306.983C130.292 307.707 130.402 308.34 130.622 308.881C130.846 309.418 131.181 309.835 131.626 310.133C132.071 310.431 132.626 310.58 133.291 310.58C134.029 310.58 134.63 310.397 135.093 310.03C135.556 309.663 135.884 309.159 136.076 308.517L137.748 308.978C137.441 309.945 136.907 310.716 136.145 311.289C135.384 311.858 134.432 312.142 133.291 312.142Z" fill="#8E9BAE"/>
<path d="M27.7133 344.899C26.9888 344.899 26.3353 344.773 25.7529 344.521C25.1751 344.269 24.6982 343.909 24.3221 343.441C23.9507 342.969 23.7145 342.409 23.6136 341.763L25.3333 341.501C25.48 342.088 25.7804 342.542 26.2344 342.863C26.693 343.184 27.2203 343.345 27.8165 343.345C28.1696 343.345 28.5021 343.29 28.8139 343.18C29.1257 343.07 29.3779 342.909 29.5705 342.698C29.7677 342.487 29.8663 342.228 29.8663 341.921C29.8663 341.783 29.8434 341.657 29.7975 341.542C29.7517 341.423 29.6829 341.318 29.5912 341.226C29.5041 341.134 29.3894 341.052 29.2472 340.978C29.1097 340.9 28.9492 340.834 28.7657 340.779L26.2069 340.022C25.9868 339.958 25.7483 339.873 25.4915 339.768C25.2393 339.658 24.9985 339.509 24.7693 339.321C24.5445 339.128 24.3588 338.885 24.2121 338.592C24.0699 338.293 23.9988 337.927 23.9988 337.491C23.9988 336.854 24.1593 336.319 24.4803 335.888C24.8059 335.453 25.2416 335.127 25.7873 334.911C26.3376 334.696 26.9475 334.59 27.617 334.595C28.2957 334.6 28.901 334.717 29.433 334.946C29.9649 335.171 30.4097 335.498 30.7674 335.929C31.1251 336.361 31.3773 336.881 31.5241 337.491L29.7425 337.8C29.6691 337.452 29.527 337.156 29.316 336.913C29.1097 336.665 28.8552 336.477 28.5525 336.349C28.2544 336.221 27.9357 336.152 27.5964 336.143C27.2662 336.138 26.959 336.189 26.6746 336.294C26.3949 336.395 26.1679 336.542 25.9937 336.734C25.824 336.927 25.7391 337.152 25.7391 337.408C25.7391 337.651 25.8125 337.851 25.9593 338.007C26.106 338.158 26.2871 338.28 26.5027 338.371C26.7228 338.459 26.9452 338.532 27.1699 338.592L28.9446 339.087C29.1876 339.151 29.4605 339.238 29.7631 339.348C30.0658 339.458 30.357 339.612 30.6367 339.809C30.9165 340.006 31.1458 340.265 31.3246 340.586C31.508 340.907 31.5997 341.315 31.5997 341.811C31.5997 342.324 31.492 342.776 31.2764 343.166C31.0655 343.551 30.7789 343.872 30.4166 344.129C30.0543 344.386 29.6393 344.578 29.1716 344.707C28.7084 344.835 28.2223 344.899 27.7133 344.899ZM36.4661 344.899C35.714 344.899 35.0536 344.736 34.485 344.411C33.9164 344.085 33.4716 343.634 33.1506 343.056C32.8341 342.478 32.6759 341.813 32.6759 341.061C32.6759 340.249 32.8318 339.545 33.1437 338.949C33.4555 338.348 33.8889 337.883 34.4437 337.553C34.9986 337.223 35.6406 337.058 36.3698 337.058C37.1402 337.058 37.7936 337.239 38.3302 337.601C38.8713 337.959 39.2725 338.465 39.5339 339.121C39.7953 339.777 39.8939 340.55 39.8297 341.439H38.1857V340.834C38.1811 340.027 38.039 339.438 37.7592 339.066C37.4795 338.695 37.0393 338.509 36.4385 338.509C35.7599 338.509 35.2554 338.72 34.9252 339.142C34.5951 339.559 34.43 340.171 34.43 340.978C34.43 341.73 34.5951 342.313 34.9252 342.726C35.2554 343.138 35.7369 343.345 36.3698 343.345C36.7779 343.345 37.1287 343.255 37.4222 343.076C37.7203 342.893 37.9496 342.629 38.1101 342.285L39.7472 342.781C39.4629 343.45 39.0226 343.971 38.4265 344.342C37.8349 344.714 37.1814 344.899 36.4661 344.899ZM33.9072 341.439V340.187H39.018V341.439H33.9072ZM41.3645 344.693V337.264H42.8297V339.073L42.6508 338.839C42.7425 338.592 42.8641 338.367 43.0154 338.165C43.1713 337.959 43.357 337.789 43.5726 337.656C43.756 337.532 43.9578 337.436 44.1779 337.367C44.4026 337.294 44.6319 337.25 44.8657 337.236C45.0996 337.218 45.3266 337.227 45.5467 337.264V338.812C45.3266 338.747 45.0721 338.727 44.7832 338.75C44.4989 338.773 44.2421 338.853 44.0128 338.99C43.7835 339.114 43.5955 339.273 43.4487 339.465C43.3066 339.658 43.2011 339.878 43.1323 340.125C43.0635 340.368 43.0291 340.632 43.0291 340.916V344.693H41.3645ZM48.8679 344.693L46.1715 337.264H47.8293L49.7002 342.65L51.5644 337.264H53.229L50.5326 344.693H48.8679ZM54.6011 336.136V334.616H56.2588V336.136H54.6011ZM54.6011 344.693V337.264H56.2588V344.693H54.6011ZM61.5454 344.899C60.7796 344.899 60.1261 344.73 59.585 344.39C59.0438 344.046 58.6288 343.579 58.3399 342.987C58.0556 342.395 57.9112 341.726 57.9066 340.978C57.9112 340.217 58.0602 339.543 58.3537 338.956C58.6518 338.365 59.0737 337.901 59.6194 337.567C60.1651 337.227 60.8139 337.058 61.566 337.058C62.4098 337.058 63.1229 337.271 63.7053 337.697C64.2923 338.119 64.6752 338.697 64.854 339.431L63.2031 339.878C63.0747 339.479 62.8615 339.169 62.5634 338.949C62.2653 338.725 61.926 338.612 61.5454 338.612C61.1143 338.612 60.7589 338.715 60.4792 338.922C60.1995 339.123 59.9931 339.403 59.8601 339.761C59.7271 340.119 59.6606 340.524 59.6606 340.978C59.6606 341.685 59.8188 342.256 60.1353 342.691C60.4517 343.127 60.9217 343.345 61.5454 343.345C61.9856 343.345 62.3318 343.244 62.5841 343.042C62.8409 342.84 63.0335 342.549 63.1619 342.168L64.854 342.547C64.6247 343.303 64.2235 343.886 63.6502 344.294C63.077 344.697 62.3754 344.899 61.5454 344.899ZM69.4083 344.899C68.6562 344.899 67.9959 344.736 67.4273 344.411C66.8586 344.085 66.4138 343.634 66.0928 343.056C65.7764 342.478 65.6182 341.813 65.6182 341.061C65.6182 340.249 65.7741 339.545 66.0859 338.949C66.3978 338.348 66.8311 337.883 67.386 337.553C67.9409 337.223 68.5829 337.058 69.312 337.058C70.0824 337.058 70.7359 337.239 71.2724 337.601C71.8135 337.959 72.2148 338.465 72.4762 339.121C72.7376 339.777 72.8362 340.55 72.772 341.439H71.128V340.834C71.1234 340.027 70.9812 339.438 70.7015 339.066C70.4218 338.695 69.9815 338.509 69.3808 338.509C68.7021 338.509 68.1977 338.72 67.8675 339.142C67.5373 339.559 67.3722 340.171 67.3722 340.978C67.3722 341.73 67.5373 342.313 67.8675 342.726C68.1977 343.138 68.6792 343.345 69.312 343.345C69.7201 343.345 70.071 343.255 70.3644 343.076C70.6625 342.893 70.8918 342.629 71.0523 342.285L72.6894 342.781C72.4051 343.45 71.9649 343.971 71.3687 344.342C70.7772 344.714 70.1237 344.899 69.4083 344.899ZM66.8495 341.439V340.187H71.9603V341.439H66.8495ZM77.7075 344.693V337.147C77.7075 336.959 77.7144 336.753 77.7281 336.528C77.7419 336.299 77.7809 336.072 77.8451 335.847C77.9093 335.622 78.0262 335.418 78.1959 335.235C78.4068 335.001 78.6338 334.84 78.8769 334.753C79.1245 334.662 79.3675 334.611 79.606 334.602C79.8445 334.588 80.0531 334.581 80.232 334.581H81.1606V335.929H80.3008C79.9843 335.929 79.7482 336.01 79.5923 336.17C79.4409 336.326 79.3653 336.533 79.3653 336.789V344.693H77.7075ZM76.5106 338.564V337.264H81.1606V338.564H76.5106ZM85.3689 344.899C84.6169 344.899 83.9565 344.736 83.3879 344.411C82.8192 344.085 82.3744 343.634 82.0534 343.056C81.737 342.478 81.5788 341.813 81.5788 341.061C81.5788 340.249 81.7347 339.545 82.0465 338.949C82.3584 338.348 82.7917 337.883 83.3466 337.553C83.9015 337.223 84.5435 337.058 85.2726 337.058C86.043 337.058 86.6965 337.239 87.233 337.601C87.7741 337.959 88.1754 338.465 88.4368 339.121C88.6982 339.777 88.7968 340.55 88.7326 341.439H87.0886V340.834C87.084 340.027 86.9418 339.438 86.6621 339.066C86.3824 338.695 85.9421 338.509 85.3414 338.509C84.6627 338.509 84.1583 338.72 83.8281 339.142C83.4979 339.559 83.3328 340.171 83.3328 340.978C83.3328 341.73 83.4979 342.313 83.8281 342.726C84.1583 343.138 84.6398 343.345 85.2726 343.345C85.6807 343.345 86.0316 343.255 86.325 343.076C86.6231 342.893 86.8524 342.629 87.0129 342.285L88.65 342.781C88.3657 343.45 87.9255 343.971 87.3293 344.342C86.7378 344.714 86.0843 344.899 85.3689 344.899ZM82.8101 341.439V340.187H87.9209V341.439H82.8101ZM93.6448 344.899C92.8927 344.899 92.2324 344.736 91.6637 344.411C91.0951 344.085 90.6503 343.634 90.3293 343.056C90.0129 342.478 89.8547 341.813 89.8547 341.061C89.8547 340.249 90.0106 339.545 90.3224 338.949C90.6342 338.348 91.0676 337.883 91.6225 337.553C92.1773 337.223 92.8193 337.058 93.5485 337.058C94.3189 337.058 94.9724 337.239 95.5089 337.601C96.05 337.959 96.4513 338.465 96.7127 339.121C96.974 339.777 97.0726 340.55 97.0084 341.439H95.3644V340.834C95.3599 340.027 95.2177 339.438 94.938 339.066C94.6582 338.695 94.218 338.509 93.6173 338.509C92.9386 338.509 92.4341 338.72 92.104 339.142C91.7738 339.559 91.6087 340.171 91.6087 340.978C91.6087 341.73 91.7738 342.313 92.104 342.726C92.4341 343.138 92.9156 343.345 93.5485 343.345C93.9566 343.345 94.3074 343.255 94.6009 343.076C94.899 342.893 95.1283 342.629 95.2888 342.285L96.9259 342.781C96.6416 343.45 96.2013 343.971 95.6052 344.342C95.0136 344.714 94.3602 344.899 93.6448 344.899ZM91.0859 341.439V340.187H96.1968V341.439H91.0859ZM99.0935 343.799V342.1H100.793V343.799H99.0935ZM99.1073 339.857V338.158H100.806V339.857H99.1073Z" fill="#8E9BAE"/>
<rect x="112.255" y="334.193" width="142.761" height="10" rx="5" fill="#E2E8F0"/>
<rect x="23.084" y="376.208" width="311.832" height="50.4434" rx="11.4644" fill="#2873FF"/>
<path d="M103.463 406.929V397.024H107.391C108.06 397.024 108.608 397.159 109.035 397.43C109.466 397.696 109.784 398.037 109.991 398.455C110.202 398.872 110.307 399.303 110.307 399.748C110.307 400.294 110.177 400.757 109.915 401.137C109.658 401.518 109.308 401.775 108.863 401.908V401.564C109.486 401.706 109.959 402.002 110.28 402.451C110.605 402.901 110.768 403.412 110.768 403.985C110.768 404.572 110.656 405.086 110.431 405.526C110.206 405.966 109.872 406.31 109.427 406.558C108.987 406.805 108.441 406.929 107.79 406.929H103.463ZM105.141 405.368H107.583C107.872 405.368 108.131 405.31 108.361 405.196C108.59 405.077 108.769 404.911 108.897 404.701C109.03 404.485 109.097 404.23 109.097 403.937C109.097 403.671 109.039 403.433 108.925 403.222C108.81 403.011 108.643 402.843 108.423 402.719C108.202 402.591 107.939 402.527 107.631 402.527H105.141V405.368ZM105.141 400.979H107.37C107.609 400.979 107.822 400.933 108.01 400.842C108.198 400.75 108.347 400.615 108.457 400.436C108.567 400.257 108.622 400.037 108.622 399.775C108.622 399.431 108.512 399.145 108.292 398.916C108.072 398.686 107.764 398.572 107.37 398.572H105.141V400.979ZM114.928 407.142C114.377 407.142 113.923 407.051 113.566 406.867C113.208 406.684 112.924 406.45 112.713 406.166C112.502 405.881 112.346 405.579 112.245 405.258C112.144 404.937 112.078 404.634 112.046 404.35C112.018 404.061 112.004 403.827 112.004 403.648V399.5H113.683V403.077C113.683 403.306 113.699 403.566 113.731 403.854C113.763 404.139 113.836 404.414 113.951 404.68C114.07 404.941 114.244 405.157 114.474 405.326C114.708 405.496 115.022 405.581 115.416 405.581C115.627 405.581 115.836 405.547 116.042 405.478C116.248 405.409 116.434 405.292 116.599 405.127C116.769 404.957 116.904 404.726 117.005 404.432C117.106 404.139 117.156 403.767 117.156 403.318L118.14 403.738C118.14 404.37 118.016 404.944 117.769 405.457C117.526 405.971 117.166 406.381 116.689 406.688C116.212 406.991 115.625 407.142 114.928 407.142ZM117.356 406.929V404.625H117.156V399.5H118.821V406.929H117.356ZM121.73 410.231L123.161 406.303L123.189 407.459L119.949 399.5H121.675L123.973 405.388H123.533L125.768 399.5H127.426L123.285 410.231H121.73ZM134.776 407.136C134.051 407.136 133.444 406.964 132.953 406.62C132.462 406.276 132.093 405.808 131.846 405.216C131.598 404.62 131.474 403.953 131.474 403.215C131.474 402.467 131.598 401.798 131.846 401.206C132.093 400.615 132.456 400.149 132.933 399.81C133.414 399.466 134.008 399.294 134.714 399.294C135.416 399.294 136.023 399.466 136.537 399.81C137.055 400.149 137.456 400.615 137.741 401.206C138.025 401.793 138.167 402.463 138.167 403.215C138.167 403.958 138.027 404.625 137.748 405.216C137.468 405.808 137.073 406.276 136.564 406.62C136.055 406.964 135.459 407.136 134.776 407.136ZM131.192 406.929V397.024H132.864V401.715H132.657V406.929H131.192ZM134.521 405.65C134.953 405.65 135.308 405.542 135.588 405.326C135.867 405.111 136.074 404.82 136.207 404.453C136.344 404.081 136.413 403.669 136.413 403.215C136.413 402.765 136.344 402.357 136.207 401.99C136.069 401.619 135.856 401.325 135.567 401.11C135.278 400.89 134.911 400.78 134.466 400.78C134.045 400.78 133.701 400.883 133.435 401.089C133.169 401.291 132.971 401.575 132.843 401.942C132.719 402.304 132.657 402.729 132.657 403.215C132.657 403.696 132.719 404.12 132.843 404.487C132.971 404.854 133.171 405.141 133.442 405.347C133.717 405.549 134.077 405.65 134.521 405.65ZM139.821 398.372V396.852H141.479V398.372H139.821ZM139.821 406.929V399.5H141.479V406.929H139.821ZM147.893 406.929C147.403 407.021 146.921 407.06 146.449 407.046C145.981 407.037 145.561 406.952 145.19 406.792C144.819 406.627 144.537 406.367 144.344 406.014C144.174 405.693 144.085 405.365 144.076 405.031C144.067 404.696 144.062 404.318 144.062 403.896V397.437H145.713V403.799C145.713 404.097 145.715 404.359 145.72 404.584C145.729 404.808 145.777 404.992 145.864 405.134C146.029 405.409 146.293 405.563 146.655 405.595C147.017 405.627 147.43 405.608 147.893 405.54V406.929ZM142.714 400.8V399.5H147.893V400.8H142.714ZM152.341 407.136C151.575 407.136 150.921 406.966 150.38 406.627C149.839 406.283 149.424 405.815 149.135 405.223C148.851 404.632 148.706 403.962 148.702 403.215C148.706 402.453 148.856 401.779 149.149 401.192C149.447 400.601 149.869 400.138 150.415 399.803C150.96 399.464 151.609 399.294 152.361 399.294C153.205 399.294 153.918 399.507 154.501 399.934C155.088 400.356 155.47 400.933 155.649 401.667L153.998 402.114C153.87 401.715 153.657 401.406 153.359 401.186C153.061 400.961 152.721 400.848 152.341 400.848C151.91 400.848 151.554 400.952 151.275 401.158C150.995 401.36 150.788 401.64 150.655 401.997C150.522 402.355 150.456 402.761 150.456 403.215C150.456 403.921 150.614 404.492 150.931 404.928C151.247 405.363 151.717 405.581 152.341 405.581C152.781 405.581 153.127 405.48 153.379 405.278C153.636 405.077 153.829 404.785 153.957 404.405L155.649 404.783C155.42 405.54 155.019 406.122 154.446 406.53C153.872 406.934 153.171 407.136 152.341 407.136ZM160.107 407.136C159.364 407.136 158.716 406.968 158.161 406.633C157.606 406.299 157.175 405.838 156.868 405.251C156.565 404.659 156.414 403.981 156.414 403.215C156.414 402.435 156.569 401.752 156.881 401.165C157.193 400.578 157.626 400.119 158.181 399.789C158.736 399.459 159.378 399.294 160.107 399.294C160.855 399.294 161.506 399.461 162.061 399.796C162.616 400.131 163.047 400.594 163.354 401.186C163.661 401.773 163.815 402.449 163.815 403.215C163.815 403.985 163.659 404.666 163.347 405.258C163.04 405.845 162.609 406.306 162.054 406.64C161.499 406.97 160.85 407.136 160.107 407.136ZM160.107 405.581C160.768 405.581 161.258 405.361 161.579 404.921C161.9 404.48 162.061 403.912 162.061 403.215C162.061 402.495 161.898 401.922 161.572 401.495C161.247 401.064 160.759 400.848 160.107 400.848C159.663 400.848 159.296 400.949 159.007 401.151C158.722 401.348 158.512 401.626 158.374 401.983C158.236 402.337 158.168 402.747 158.168 403.215C158.168 403.935 158.33 404.51 158.656 404.941C158.986 405.368 159.47 405.581 160.107 405.581ZM165.468 398.372V396.852H167.126V398.372H165.468ZM165.468 406.929V399.5H167.126V406.929H165.468ZM174.325 406.929V403.352C174.325 403.118 174.309 402.859 174.276 402.575C174.244 402.291 174.169 402.018 174.049 401.756C173.935 401.49 173.761 401.273 173.527 401.103C173.297 400.933 172.986 400.848 172.591 400.848C172.38 400.848 172.172 400.883 171.965 400.952C171.759 401.02 171.571 401.14 171.401 401.309C171.236 401.474 171.103 401.704 171.002 401.997C170.901 402.286 170.851 402.658 170.851 403.112L169.867 402.692C169.867 402.059 169.989 401.486 170.232 400.972C170.479 400.459 170.842 400.051 171.319 399.748C171.796 399.441 172.383 399.287 173.08 399.287C173.63 399.287 174.084 399.379 174.442 399.562C174.799 399.746 175.084 399.979 175.295 400.264C175.505 400.548 175.661 400.851 175.762 401.172C175.863 401.493 175.927 401.798 175.955 402.087C175.987 402.371 176.003 402.603 176.003 402.781V406.929H174.325ZM169.173 406.929V399.5H170.651V401.805H170.851V406.929H169.173ZM180.415 403.242V401.942H184.542V403.242H180.415ZM190.803 406.929V398.833L188.946 399.968V398.138L190.803 397.024H192.495V406.929H190.803ZM198.679 407.136C197.977 407.136 197.358 406.987 196.821 406.688C196.285 406.386 195.865 405.966 195.563 405.43C195.265 404.893 195.116 404.274 195.116 403.572V400.381C195.116 399.679 195.265 399.06 195.563 398.523C195.865 397.987 196.285 397.57 196.821 397.272C197.358 396.969 197.977 396.818 198.679 396.818C199.38 396.818 199.997 396.969 200.529 397.272C201.066 397.57 201.485 397.987 201.788 398.523C202.09 399.06 202.242 399.679 202.242 400.381V403.572C202.242 404.274 202.09 404.893 201.788 405.43C201.485 405.966 201.066 406.386 200.529 406.688C199.997 406.987 199.38 407.136 198.679 407.136ZM198.679 405.56C199.027 405.56 199.344 405.478 199.628 405.313C199.912 405.143 200.137 404.918 200.302 404.639C200.467 404.354 200.55 404.038 200.55 403.689V400.257C200.55 399.904 200.467 399.587 200.302 399.308C200.137 399.023 199.912 398.799 199.628 398.634C199.344 398.464 199.027 398.379 198.679 398.379C198.33 398.379 198.014 398.464 197.729 398.634C197.445 398.799 197.22 399.023 197.055 399.308C196.89 399.587 196.808 399.904 196.808 400.257V403.689C196.808 404.038 196.89 404.354 197.055 404.639C197.22 404.918 197.445 405.143 197.729 405.313C198.014 405.478 198.33 405.56 198.679 405.56ZM204.446 406.929V405.23H206.145V406.929H204.446ZM211.912 407.136C211.21 407.136 210.591 406.987 210.055 406.688C209.518 406.386 209.099 405.966 208.796 405.43C208.498 404.893 208.349 404.274 208.349 403.572V400.381C208.349 399.679 208.498 399.06 208.796 398.523C209.099 397.987 209.518 397.57 210.055 397.272C210.591 396.969 211.21 396.818 211.912 396.818C212.614 396.818 213.23 396.969 213.762 397.272C214.299 397.57 214.719 397.987 215.021 398.523C215.324 399.06 215.475 399.679 215.475 400.381V403.572C215.475 404.274 215.324 404.893 215.021 405.43C214.719 405.966 214.299 406.386 213.762 406.688C213.23 406.987 212.614 407.136 211.912 407.136ZM211.912 405.56C212.261 405.56 212.577 405.478 212.861 405.313C213.146 405.143 213.37 404.918 213.535 404.639C213.7 404.354 213.783 404.038 213.783 403.689V400.257C213.783 399.904 213.7 399.587 213.535 399.308C213.37 399.023 213.146 398.799 212.861 398.634C212.577 398.464 212.261 398.379 211.912 398.379C211.564 398.379 211.247 398.464 210.963 398.634C210.678 398.799 210.454 399.023 210.289 399.308C210.124 399.587 210.041 399.904 210.041 400.257V403.689C210.041 404.038 210.124 404.354 210.289 404.639C210.454 404.918 210.678 405.143 210.963 405.313C211.247 405.478 211.564 405.56 211.912 405.56ZM220.967 407.136C220.265 407.136 219.646 406.987 219.11 406.688C218.573 406.386 218.154 405.966 217.851 405.43C217.553 404.893 217.404 404.274 217.404 403.572V400.381C217.404 399.679 217.553 399.06 217.851 398.523C218.154 397.987 218.573 397.57 219.11 397.272C219.646 396.969 220.265 396.818 220.967 396.818C221.669 396.818 222.286 396.969 222.817 397.272C223.354 397.57 223.774 397.987 224.076 398.523C224.379 399.06 224.53 399.679 224.53 400.381V403.572C224.53 404.274 224.379 404.893 224.076 405.43C223.774 405.966 223.354 406.386 222.817 406.688C222.286 406.987 221.669 407.136 220.967 407.136ZM220.967 405.56C221.316 405.56 221.632 405.478 221.916 405.313C222.201 405.143 222.425 404.918 222.59 404.639C222.756 404.354 222.838 404.038 222.838 403.689V400.257C222.838 399.904 222.756 399.587 222.59 399.308C222.425 399.023 222.201 398.799 221.916 398.634C221.632 398.464 221.316 398.379 220.967 398.379C220.619 398.379 220.302 398.464 220.018 398.634C219.734 398.799 219.509 399.023 219.344 399.308C219.179 399.587 219.096 399.904 219.096 400.257V403.689C219.096 404.038 219.179 404.354 219.344 404.639C219.509 404.918 219.734 405.143 220.018 405.313C220.302 405.478 220.619 405.56 220.967 405.56ZM229.213 406.929V397.024H233.141C233.81 397.024 234.358 397.159 234.785 397.43C235.216 397.696 235.535 398.037 235.741 398.455C235.952 398.872 236.057 399.303 236.057 399.748C236.057 400.294 235.927 400.757 235.665 401.137C235.409 401.518 235.058 401.775 234.613 401.908V401.564C235.237 401.706 235.709 402.002 236.03 402.451C236.356 402.901 236.518 403.412 236.518 403.985C236.518 404.572 236.406 405.086 236.181 405.526C235.957 405.966 235.622 406.31 235.177 406.558C234.737 406.805 234.191 406.929 233.54 406.929H229.213ZM230.892 405.368H233.334C233.622 405.368 233.882 405.31 234.111 405.196C234.34 405.077 234.519 404.911 234.647 404.701C234.78 404.485 234.847 404.23 234.847 403.937C234.847 403.671 234.789 403.433 234.675 403.222C234.56 403.011 234.393 402.843 234.173 402.719C233.953 402.591 233.689 402.527 233.382 402.527H230.892V405.368ZM230.892 400.979H233.12C233.359 400.979 233.572 400.933 233.76 400.842C233.948 400.75 234.097 400.615 234.207 400.436C234.317 400.257 234.372 400.037 234.372 399.775C234.372 399.431 234.262 399.145 234.042 398.916C233.822 398.686 233.515 398.572 233.12 398.572H230.892V400.979ZM240.003 406.929V398.579H236.798V397.024H244.867V398.579H241.661V406.929H240.003ZM250.156 407.136C249.165 407.136 248.317 406.92 247.61 406.489C246.904 406.053 246.361 405.448 245.98 404.673C245.604 403.898 245.416 402.999 245.416 401.977C245.416 400.954 245.604 400.055 245.98 399.28C246.361 398.505 246.904 397.902 247.61 397.471C248.317 397.035 249.165 396.818 250.156 396.818C251.297 396.818 252.249 397.104 253.01 397.677C253.771 398.246 254.306 399.014 254.613 399.982L252.941 400.443C252.749 399.796 252.421 399.292 251.958 398.929C251.495 398.562 250.894 398.379 250.156 398.379C249.491 398.379 248.936 398.528 248.491 398.826C248.051 399.124 247.718 399.544 247.494 400.085C247.273 400.621 247.161 401.252 247.156 401.977C247.156 402.701 247.267 403.334 247.487 403.875C247.711 404.412 248.046 404.829 248.491 405.127C248.936 405.425 249.491 405.574 250.156 405.574C250.894 405.574 251.495 405.391 251.958 405.024C252.421 404.657 252.749 404.153 252.941 403.511L254.613 403.971C254.306 404.939 253.771 405.709 253.01 406.283C252.249 406.851 251.297 407.136 250.156 407.136Z" fill="white"/>
</g>
<defs>
<clipPath id="clip0_5303_42879">
<rect x="0.155273" y="0.131836" width="357.689" height="449.448" rx="17.1966" fill="white"/>
</clipPath>
<clipPath id="clip1_5303_42879">
<rect width="18.7487" height="18.7487" fill="white" transform="translate(312.817 27.2041) rotate(15)"/>
</clipPath>
</defs>
</svg>
