<svg width="363" height="204" viewBox="0 0 363 204" fill="none" xmlns="http://www.w3.org/2000/svg">
<g filter="url(#filter0_d_5303_43016)">
<g clip-path="url(#clip0_5303_43016)">
<rect x="25.0723" y="15.1279" width="312" height="153.256" rx="15" fill="white"/>
<mask id="path-2-inside-1_5303_43016" fill="white">
<path d="M25.0723 15.1279H337.072V82.3844H25.0723V15.1279Z"/>
</mask>
<path d="M337.072 81.3844H25.0723V83.3844H337.072V81.3844Z" fill="#E2E8F0" mask="url(#path-2-inside-1_5303_43016)"/>
<rect x="45.0723" y="38.7561" width="48" height="20" rx="6" fill="#FEE7E7"/>
<path d="M59.1103 53.4361C58.4783 53.4361 57.9083 53.3261 57.4003 53.1061C56.8963 52.8861 56.4803 52.5721 56.1523 52.1641C55.8283 51.7521 55.6223 51.2641 55.5343 50.7001L57.0343 50.4721C57.1623 50.9841 57.4243 51.3801 57.8203 51.6601C58.2203 51.9401 58.6803 52.0801 59.2003 52.0801C59.5083 52.0801 59.7983 52.0321 60.0703 51.9361C60.3423 51.8401 60.5623 51.7001 60.7303 51.5161C60.9023 51.3321 60.9883 51.1061 60.9883 50.8381C60.9883 50.7181 60.9683 50.6081 60.9283 50.5081C60.8883 50.4041 60.8283 50.3121 60.7483 50.2321C60.6723 50.1521 60.5723 50.0801 60.4483 50.0161C60.3283 49.9481 60.1883 49.8901 60.0283 49.8421L57.7963 49.1821C57.6043 49.1261 57.3963 49.0521 57.1723 48.9601C56.9523 48.8641 56.7423 48.7341 56.5423 48.5701C56.3463 48.4021 56.1843 48.1901 56.0563 47.9341C55.9323 47.6741 55.8703 47.3541 55.8703 46.9741C55.8703 46.4181 56.0103 45.9521 56.2903 45.5761C56.5743 45.1961 56.9543 44.9121 57.4303 44.7241C57.9103 44.5361 58.4423 44.4441 59.0263 44.4481C59.6183 44.4521 60.1463 44.5541 60.6103 44.7541C61.0743 44.9501 61.4623 45.2361 61.7743 45.6121C62.0863 45.9881 62.3063 46.4421 62.4343 46.9741L60.8803 47.2441C60.8163 46.9401 60.6923 46.6821 60.5083 46.4701C60.3283 46.2541 60.1063 46.0901 59.8423 45.9781C59.5823 45.8661 59.3043 45.8061 59.0083 45.7981C58.7203 45.7941 58.4523 45.8381 58.2043 45.9301C57.9603 46.0181 57.7623 46.1461 57.6103 46.3141C57.4623 46.4821 57.3883 46.6781 57.3883 46.9021C57.3883 47.1141 57.4523 47.2881 57.5803 47.4241C57.7083 47.5561 57.8663 47.6621 58.0543 47.7421C58.2463 47.8181 58.4403 47.8821 58.6363 47.9341L60.1843 48.3661C60.3963 48.4221 60.6343 48.4981 60.8983 48.5941C61.1623 48.6901 61.4163 48.8241 61.6603 48.9961C61.9043 49.1681 62.1043 49.3941 62.2603 49.6741C62.4203 49.9541 62.5003 50.3101 62.5003 50.7421C62.5003 51.1901 62.4063 51.5841 62.2183 51.9241C62.0343 52.2601 61.7843 52.5401 61.4683 52.7641C61.1523 52.9881 60.7903 53.1561 60.3823 53.2681C59.9783 53.3801 59.5543 53.4361 59.1103 53.4361ZM63.799 53.2561V44.6161H69.379V45.9721H65.245V48.1021H68.659V49.4581H65.245V51.9001H69.379V53.2561H63.799ZM70.9385 53.2561V44.6161H72.3845V51.9001H76.2005V53.2561H70.9385ZM77.337 53.2561V44.6161H78.783V51.9001H82.599V53.2561H77.337Z" fill="#F56767"/>
<path d="M110.192 54.7561V43.2361H114.76C115.539 43.2361 116.176 43.3934 116.672 43.7081C117.174 44.0174 117.544 44.4148 117.784 44.9001C118.03 45.3854 118.152 45.8868 118.152 46.4041C118.152 47.0388 118 47.5774 117.696 48.0201C117.398 48.4628 116.99 48.7614 116.472 48.9161V48.5161C117.198 48.6814 117.747 49.0254 118.12 49.5481C118.499 50.0708 118.688 50.6654 118.688 51.3321C118.688 52.0148 118.558 52.6121 118.296 53.1241C118.035 53.6361 117.646 54.0361 117.128 54.3241C116.616 54.6121 115.982 54.7561 115.224 54.7561H110.192ZM112.144 52.9401H114.984C115.32 52.9401 115.622 52.8734 115.888 52.7401C116.155 52.6014 116.363 52.4094 116.512 52.1641C116.667 51.9134 116.744 51.6174 116.744 51.2761C116.744 50.9668 116.678 50.6894 116.544 50.4441C116.411 50.1988 116.216 50.0041 115.96 49.8601C115.704 49.7108 115.398 49.6361 115.04 49.6361H112.144V52.9401ZM112.144 47.8361H114.736C115.014 47.8361 115.262 47.7828 115.48 47.6761C115.699 47.5694 115.872 47.4121 116 47.2041C116.128 46.9961 116.192 46.7401 116.192 46.4361C116.192 46.0361 116.064 45.7028 115.808 45.4361C115.552 45.1694 115.195 45.0361 114.736 45.0361H112.144V47.8361ZM120.446 44.8041V43.0361H122.374V44.8041H120.446ZM120.446 54.7561V46.1161H122.374V54.7561H120.446ZM129.834 54.7561C129.264 54.8628 128.704 54.9081 128.154 54.8921C127.61 54.8814 127.122 54.7828 126.69 54.5961C126.258 54.4041 125.93 54.1028 125.706 53.6921C125.509 53.3188 125.405 52.9374 125.394 52.5481C125.384 52.1588 125.378 51.7188 125.378 51.2281V43.7161H127.298V51.1161C127.298 51.4628 127.301 51.7668 127.306 52.0281C127.317 52.2894 127.373 52.5028 127.474 52.6681C127.666 52.9881 127.973 53.1668 128.394 53.2041C128.816 53.2414 129.296 53.2201 129.834 53.1401V54.7561ZM123.81 47.6281V46.1161H129.834V47.6281H123.81ZM135.007 54.9961C134.116 54.9961 133.356 54.7988 132.727 54.4041C132.097 54.0041 131.615 53.4601 131.279 52.7721C130.948 52.0841 130.78 51.3054 130.775 50.4361C130.78 49.5508 130.953 48.7668 131.295 48.0841C131.641 47.3961 132.132 46.8574 132.767 46.4681C133.401 46.0734 134.156 45.8761 135.031 45.8761C136.012 45.8761 136.841 46.1241 137.519 46.6201C138.201 47.1108 138.647 47.7828 138.855 48.6361L136.935 49.1561C136.785 48.6921 136.537 48.3321 136.191 48.0761C135.844 47.8148 135.449 47.6841 135.007 47.6841C134.505 47.6841 134.092 47.8041 133.767 48.0441C133.441 48.2788 133.201 48.6041 133.047 49.0201C132.892 49.4361 132.815 49.9081 132.815 50.4361C132.815 51.2574 132.999 51.9214 133.367 52.4281C133.735 52.9348 134.281 53.1881 135.007 53.1881C135.519 53.1881 135.921 53.0708 136.215 52.8361C136.513 52.6014 136.737 52.2628 136.887 51.8201L138.855 52.2601C138.588 53.1401 138.121 53.8174 137.455 54.2921C136.788 54.7614 135.972 54.9961 135.007 54.9961ZM144.04 54.9961C143.176 54.9961 142.421 54.8014 141.776 54.4121C141.13 54.0228 140.629 53.4868 140.272 52.8041C139.92 52.1161 139.744 51.3268 139.744 50.4361C139.744 49.5294 139.925 48.7348 140.288 48.0521C140.65 47.3694 141.154 46.8361 141.8 46.4521C142.445 46.0681 143.192 45.8761 144.04 45.8761C144.909 45.8761 145.666 46.0708 146.312 46.4601C146.957 46.8494 147.458 47.3881 147.816 48.0761C148.173 48.7588 148.352 49.5454 148.352 50.4361C148.352 51.3321 148.17 52.1241 147.808 52.8121C147.45 53.4948 146.949 54.0308 146.304 54.4201C145.658 54.8041 144.904 54.9961 144.04 54.9961ZM144.04 53.1881C144.808 53.1881 145.378 52.9321 145.752 52.4201C146.125 51.9081 146.312 51.2468 146.312 50.4361C146.312 49.5988 146.122 48.9321 145.744 48.4361C145.365 47.9348 144.797 47.6841 144.04 47.6841C143.522 47.6841 143.096 47.8014 142.76 48.0361C142.429 48.2654 142.184 48.5881 142.024 49.0041C141.864 49.4148 141.784 49.8921 141.784 50.4361C141.784 51.2734 141.973 51.9428 142.352 52.4441C142.736 52.9401 143.298 53.1881 144.04 53.1881ZM150.274 44.8041V43.0361H152.202V44.8041H150.274ZM150.274 54.7561V46.1161H152.202V54.7561H150.274ZM160.575 54.7561V50.5961C160.575 50.3241 160.556 50.0228 160.519 49.6921C160.481 49.3614 160.393 49.0441 160.255 48.7401C160.121 48.4308 159.919 48.1774 159.647 47.9801C159.38 47.7828 159.017 47.6841 158.559 47.6841C158.313 47.6841 158.071 47.7241 157.831 47.8041C157.591 47.8841 157.372 48.0228 157.175 48.2201C156.983 48.4121 156.828 48.6788 156.711 49.0201C156.593 49.3561 156.535 49.7881 156.535 50.3161L155.391 49.8281C155.391 49.0921 155.532 48.4254 155.815 47.8281C156.103 47.2308 156.524 46.7561 157.079 46.4041C157.633 46.0468 158.316 45.8681 159.127 45.8681C159.767 45.8681 160.295 45.9748 160.711 46.1881C161.127 46.4014 161.457 46.6734 161.703 47.0041C161.948 47.3348 162.129 47.6868 162.247 48.0601C162.364 48.4334 162.439 48.7881 162.471 49.1241C162.508 49.4548 162.527 49.7241 162.527 49.9321V54.7561H160.575ZM154.583 54.7561V46.1161H156.303V48.7961H156.535V54.7561H154.583Z" fill="#10192D"/>
<rect x="289.816" y="35.1279" width="27.2564" height="27.2564" rx="13.6282" fill="#F59E0B"/>
<g clip-path="url(#clip1_5303_43016)">
<path d="M299.787 53.0318L299.456 54.2659C299.42 54.4021 299.501 54.5423 299.637 54.5788L300.624 54.8434C300.69 54.8609 300.76 54.8517 300.818 54.8179C300.877 54.784 300.92 54.7282 300.937 54.6627L301.268 53.4286L301.762 53.5609L301.431 54.795C301.394 54.9312 301.475 55.0714 301.612 55.1079L302.599 55.3725C302.664 55.39 302.734 55.3808 302.793 55.3469C302.852 55.3131 302.894 55.2572 302.912 55.1918L303.243 53.9577L303.325 53.9799C305.292 54.5069 306.971 53.8637 307.444 52.0994C307.841 50.6165 307.064 49.5395 305.931 49.1121L305.955 49.0253C306.976 49.0429 307.874 48.5089 308.196 47.3083C308.601 45.7958 307.712 44.5734 305.979 44.1091L305.888 44.0848L306.219 42.8507C306.236 42.7852 306.227 42.7155 306.193 42.6568C306.159 42.5981 306.103 42.5553 306.038 42.5377L305.051 42.2732C304.985 42.2556 304.915 42.2648 304.857 42.2987C304.798 42.3326 304.755 42.3884 304.738 42.4539L304.407 43.688L303.841 43.5364L304.172 42.3023C304.19 42.2368 304.18 42.1671 304.146 42.1084C304.113 42.0497 304.057 42.0069 303.991 41.9893L303.076 41.7441C303.011 41.7265 302.941 41.7357 302.882 41.7696C302.824 41.8035 302.781 41.8593 302.763 41.9248L302.432 43.1589L300.457 42.6412C300.391 42.6236 300.322 42.6328 300.263 42.6667C300.204 42.7006 300.162 42.7564 300.144 42.8219L299.882 43.7983C299.846 43.9336 299.925 44.0742 300.061 44.1107L300.808 44.3055C301.003 44.3592 301.169 44.4879 301.27 44.6636C301.37 44.8392 301.397 45.0475 301.345 45.2431L299.889 50.6781C299.836 50.8745 299.708 51.0419 299.531 51.1436C299.355 51.2452 299.146 51.2728 298.95 51.2202L298.208 51.0331C298.143 51.0156 298.073 51.0248 298.014 51.0587C297.956 51.0925 297.913 51.1484 297.895 51.2138L297.631 52.2011C297.594 52.3374 297.675 52.4776 297.812 52.5141L299.787 53.0318ZM303.448 45.0045L305.145 45.4592C306.04 45.6989 306.433 46.3313 306.218 47.135C305.987 47.9949 305.29 48.3275 304.004 47.9831L302.741 47.6445L303.448 45.0045ZM302.376 49.004L304.193 49.4907C305.315 49.7915 305.773 50.5279 305.523 51.4599C305.271 52.4008 304.522 52.7259 303.009 52.3206L301.59 51.9402L302.376 49.005L302.376 49.004Z" fill="white"/>
</g>
<path d="M47.9883 115.384V108.1H45.1923V106.744H52.2303V108.1H49.4343V115.384H47.9883ZM55.0907 115.564C54.4427 115.564 53.8767 115.418 53.3927 115.126C52.9087 114.834 52.5327 114.432 52.2647 113.92C52.0007 113.404 51.8687 112.812 51.8687 112.144C51.8687 111.464 52.0047 110.868 52.2767 110.356C52.5487 109.844 52.9267 109.444 53.4107 109.156C53.8947 108.868 54.4547 108.724 55.0907 108.724C55.7427 108.724 56.3107 108.87 56.7947 109.162C57.2787 109.454 57.6547 109.858 57.9227 110.374C58.1907 110.886 58.3247 111.476 58.3247 112.144C58.3247 112.816 58.1887 113.41 57.9167 113.926C57.6487 114.438 57.2727 114.84 56.7887 115.132C56.3047 115.42 55.7387 115.564 55.0907 115.564ZM55.0907 114.208C55.6667 114.208 56.0947 114.016 56.3747 113.632C56.6547 113.248 56.7947 112.752 56.7947 112.144C56.7947 111.516 56.6527 111.016 56.3687 110.644C56.0847 110.268 55.6587 110.08 55.0907 110.08C54.7027 110.08 54.3827 110.168 54.1307 110.344C53.8827 110.516 53.6987 110.758 53.5787 111.07C53.4587 111.378 53.3987 111.736 53.3987 112.144C53.3987 112.772 53.5407 113.274 53.8247 113.65C54.1127 114.022 54.5347 114.208 55.0907 114.208ZM63.4446 115.384C63.0166 115.464 62.5966 115.498 62.1846 115.486C61.7766 115.478 61.4106 115.404 61.0866 115.264C60.7626 115.12 60.5166 114.894 60.3486 114.586C60.2006 114.306 60.1226 114.02 60.1146 113.728C60.1066 113.436 60.1026 113.106 60.1026 112.738V107.104H61.5426V112.654C61.5426 112.914 61.5446 113.142 61.5486 113.338C61.5566 113.534 61.5986 113.694 61.6746 113.818C61.8186 114.058 62.0486 114.192 62.3646 114.22C62.6806 114.248 63.0406 114.232 63.4446 114.172V115.384ZM58.9266 110.038V108.904H63.4446V110.038H58.9266ZM66.65 115.564C66.182 115.564 65.786 115.476 65.462 115.3C65.138 115.12 64.892 114.882 64.724 114.586C64.56 114.29 64.478 113.964 64.478 113.608C64.478 113.296 64.53 113.016 64.634 112.768C64.738 112.516 64.898 112.3 65.114 112.12C65.33 111.936 65.61 111.786 65.954 111.67C66.214 111.586 66.518 111.51 66.866 111.442C67.218 111.374 67.598 111.312 68.006 111.256C68.418 111.196 68.848 111.132 69.296 111.064L68.78 111.358C68.784 110.91 68.684 110.58 68.48 110.368C68.276 110.156 67.932 110.05 67.448 110.05C67.156 110.05 66.874 110.118 66.602 110.254C66.33 110.39 66.14 110.624 66.032 110.956L64.712 110.542C64.872 109.994 65.176 109.554 65.624 109.222C66.076 108.89 66.684 108.724 67.448 108.724C68.024 108.724 68.53 108.818 68.966 109.006C69.406 109.194 69.732 109.502 69.944 109.93C70.06 110.158 70.13 110.392 70.154 110.632C70.178 110.868 70.19 111.126 70.19 111.406V115.384H68.924V113.98L69.134 114.208C68.842 114.676 68.5 115.02 68.108 115.24C67.72 115.456 67.234 115.564 66.65 115.564ZM66.938 114.412C67.266 114.412 67.546 114.354 67.778 114.238C68.01 114.122 68.194 113.98 68.33 113.812C68.47 113.644 68.564 113.486 68.612 113.338C68.688 113.154 68.73 112.944 68.738 112.708C68.75 112.468 68.756 112.274 68.756 112.126L69.2 112.258C68.764 112.326 68.39 112.386 68.078 112.438C67.766 112.49 67.498 112.54 67.274 112.588C67.05 112.632 66.852 112.682 66.68 112.738C66.512 112.798 66.37 112.868 66.254 112.948C66.138 113.028 66.048 113.12 65.984 113.224C65.924 113.328 65.894 113.45 65.894 113.59C65.894 113.75 65.934 113.892 66.014 114.016C66.094 114.136 66.21 114.232 66.362 114.304C66.518 114.376 66.71 114.412 66.938 114.412ZM71.8721 115.384V106.564H73.3181V115.384H71.8721ZM75.5954 114.604V113.122H77.0774V114.604H75.5954ZM75.6074 111.166V109.684H77.0894V111.166H75.6074Z" fill="#10192D"/>
<path d="M87.6723 115.372V114.112L91.3683 110.818C91.6563 110.562 91.8563 110.32 91.9683 110.092C92.0803 109.864 92.1363 109.644 92.1363 109.432C92.1363 109.144 92.0743 108.888 91.9503 108.664C91.8263 108.436 91.6543 108.256 91.4343 108.124C91.2183 107.992 90.9683 107.926 90.6843 107.926C90.3843 107.926 90.1183 107.996 89.8863 108.136C89.6583 108.272 89.4803 108.454 89.3523 108.682C89.2243 108.91 89.1643 109.156 89.1723 109.42H87.6843C87.6843 108.844 87.8123 108.342 88.0683 107.914C88.3283 107.486 88.6843 107.154 89.1363 106.918C89.5923 106.682 90.1183 106.564 90.7143 106.564C91.2663 106.564 91.7623 106.688 92.2023 106.936C92.6423 107.18 92.9883 107.52 93.2403 107.956C93.4923 108.388 93.6183 108.886 93.6183 109.45C93.6183 109.862 93.5623 110.208 93.4503 110.488C93.3383 110.768 93.1703 111.026 92.9463 111.262C92.7263 111.498 92.4523 111.76 92.1243 112.048L89.5023 114.37L89.3703 114.01H93.6183V115.372H87.6723ZM97.5327 115.546C97.1007 115.546 96.6927 115.462 96.3087 115.294C95.9247 115.126 95.5907 114.888 95.3067 114.58C95.0267 114.272 94.8247 113.908 94.7007 113.488L96.0987 113.11C96.1987 113.454 96.3807 113.72 96.6447 113.908C96.9127 114.092 97.2067 114.182 97.5267 114.178C97.8107 114.178 98.0647 114.112 98.2887 113.98C98.5127 113.848 98.6887 113.67 98.8167 113.446C98.9447 113.218 99.0087 112.964 99.0087 112.684C99.0087 112.256 98.8707 111.898 98.5947 111.61C98.3187 111.322 97.9627 111.178 97.5267 111.178C97.3947 111.178 97.2647 111.196 97.1367 111.232C97.0127 111.268 96.8927 111.318 96.7767 111.382L96.1167 110.242L99.0207 107.758L99.1467 108.106H95.0367V106.744H100.335V108.112L98.0007 110.356L97.9887 109.93C98.5127 109.966 98.9587 110.112 99.3267 110.368C99.6987 110.624 99.9827 110.954 100.179 111.358C100.379 111.762 100.479 112.204 100.479 112.684C100.479 113.228 100.345 113.716 100.077 114.148C99.8127 114.58 99.4567 114.922 99.0087 115.174C98.5647 115.422 98.0727 115.546 97.5327 115.546ZM102.273 115.384V113.902H103.755V115.384H102.273ZM108.786 115.564C108.174 115.564 107.634 115.434 107.166 115.174C106.698 114.91 106.332 114.544 106.068 114.076C105.808 113.608 105.678 113.068 105.678 112.456V109.672C105.678 109.06 105.808 108.52 106.068 108.052C106.332 107.584 106.698 107.22 107.166 106.96C107.634 106.696 108.174 106.564 108.786 106.564C109.398 106.564 109.936 106.696 110.4 106.96C110.868 107.22 111.234 107.584 111.498 108.052C111.762 108.52 111.894 109.06 111.894 109.672V112.456C111.894 113.068 111.762 113.608 111.498 114.076C111.234 114.544 110.868 114.91 110.4 115.174C109.936 115.434 109.398 115.564 108.786 115.564ZM108.786 114.19C109.09 114.19 109.366 114.118 109.614 113.974C109.862 113.826 110.058 113.63 110.202 113.386C110.346 113.138 110.418 112.862 110.418 112.558V109.564C110.418 109.256 110.346 108.98 110.202 108.736C110.058 108.488 109.862 108.292 109.614 108.148C109.366 108 109.09 107.926 108.786 107.926C108.482 107.926 108.206 108 107.958 108.148C107.71 108.292 107.514 108.488 107.37 108.736C107.226 108.98 107.154 109.256 107.154 109.564V112.558C107.154 112.862 107.226 113.138 107.37 113.386C107.514 113.63 107.71 113.826 107.958 113.974C108.206 114.118 108.482 114.19 108.786 114.19ZM116.684 115.564C116.072 115.564 115.532 115.434 115.064 115.174C114.596 114.91 114.23 114.544 113.966 114.076C113.706 113.608 113.576 113.068 113.576 112.456V109.672C113.576 109.06 113.706 108.52 113.966 108.052C114.23 107.584 114.596 107.22 115.064 106.96C115.532 106.696 116.072 106.564 116.684 106.564C117.296 106.564 117.834 106.696 118.298 106.96C118.766 107.22 119.132 107.584 119.396 108.052C119.66 108.52 119.792 109.06 119.792 109.672V112.456C119.792 113.068 119.66 113.608 119.396 114.076C119.132 114.544 118.766 114.91 118.298 115.174C117.834 115.434 117.296 115.564 116.684 115.564ZM116.684 114.19C116.988 114.19 117.264 114.118 117.512 113.974C117.76 113.826 117.956 113.63 118.1 113.386C118.244 113.138 118.316 112.862 118.316 112.558V109.564C118.316 109.256 118.244 108.98 118.1 108.736C117.956 108.488 117.76 108.292 117.512 108.148C117.264 108 116.988 107.926 116.684 107.926C116.38 107.926 116.104 108 115.856 108.148C115.608 108.292 115.412 108.488 115.268 108.736C115.124 108.98 115.052 109.256 115.052 109.564V112.558C115.052 112.862 115.124 113.138 115.268 113.386C115.412 113.63 115.608 113.826 115.856 113.974C116.104 114.118 116.38 114.19 116.684 114.19ZM123.877 115.384V106.744H127.303C127.887 106.744 128.365 106.862 128.737 107.098C129.113 107.33 129.391 107.628 129.571 107.992C129.755 108.356 129.847 108.732 129.847 109.12C129.847 109.596 129.733 110 129.505 110.332C129.281 110.664 128.975 110.888 128.587 111.004V110.704C129.131 110.828 129.543 111.086 129.823 111.478C130.107 111.87 130.249 112.316 130.249 112.816C130.249 113.328 130.151 113.776 129.955 114.16C129.759 114.544 129.467 114.844 129.079 115.06C128.695 115.276 128.219 115.384 127.651 115.384H123.877ZM125.341 114.022H127.471C127.723 114.022 127.949 113.972 128.149 113.872C128.349 113.768 128.505 113.624 128.617 113.44C128.733 113.252 128.791 113.03 128.791 112.774C128.791 112.542 128.741 112.334 128.641 112.15C128.541 111.966 128.395 111.82 128.203 111.712C128.011 111.6 127.781 111.544 127.513 111.544H125.341V114.022ZM125.341 110.194H127.285C127.493 110.194 127.679 110.154 127.843 110.074C128.007 109.994 128.137 109.876 128.233 109.72C128.329 109.564 128.377 109.372 128.377 109.144C128.377 108.844 128.281 108.594 128.089 108.394C127.897 108.194 127.629 108.094 127.285 108.094H125.341V110.194ZM133.289 115.384V108.1H130.493V106.744H137.531V108.1H134.735V115.384H133.289ZM142.144 115.564C141.28 115.564 140.54 115.376 139.924 115C139.308 114.62 138.834 114.092 138.502 113.416C138.174 112.74 138.01 111.956 138.01 111.064C138.01 110.172 138.174 109.388 138.502 108.712C138.834 108.036 139.308 107.51 139.924 107.134C140.54 106.754 141.28 106.564 142.144 106.564C143.14 106.564 143.97 106.814 144.634 107.314C145.298 107.81 145.764 108.48 146.032 109.324L144.574 109.726C144.406 109.162 144.12 108.722 143.716 108.406C143.312 108.086 142.788 107.926 142.144 107.926C141.564 107.926 141.08 108.056 140.692 108.316C140.308 108.576 140.018 108.942 139.822 109.414C139.63 109.882 139.532 110.432 139.528 111.064C139.528 111.696 139.624 112.248 139.816 112.72C140.012 113.188 140.304 113.552 140.692 113.812C141.08 114.072 141.564 114.202 142.144 114.202C142.788 114.202 143.312 114.042 143.716 113.722C144.12 113.402 144.406 112.962 144.574 112.402L146.032 112.804C145.764 113.648 145.298 114.32 144.634 114.82C143.97 115.316 143.14 115.564 142.144 115.564Z" fill="#8E9BAE"/>
<path d="M49.1103 144.564C48.4783 144.564 47.9083 144.454 47.4003 144.234C46.8963 144.014 46.4803 143.7 46.1523 143.292C45.8283 142.88 45.6223 142.392 45.5343 141.828L47.0343 141.6C47.1623 142.112 47.4243 142.508 47.8203 142.788C48.2203 143.068 48.6803 143.208 49.2003 143.208C49.5083 143.208 49.7983 143.16 50.0703 143.064C50.3423 142.968 50.5623 142.828 50.7303 142.644C50.9023 142.46 50.9883 142.234 50.9883 141.966C50.9883 141.846 50.9683 141.736 50.9283 141.636C50.8883 141.532 50.8283 141.44 50.7483 141.36C50.6723 141.28 50.5723 141.208 50.4483 141.144C50.3283 141.076 50.1883 141.018 50.0283 140.97L47.7963 140.31C47.6043 140.254 47.3963 140.18 47.1723 140.088C46.9523 139.992 46.7423 139.862 46.5423 139.698C46.3463 139.53 46.1843 139.318 46.0563 139.062C45.9323 138.802 45.8703 138.482 45.8703 138.102C45.8703 137.546 46.0103 137.08 46.2903 136.704C46.5743 136.324 46.9543 136.04 47.4303 135.852C47.9103 135.664 48.4423 135.572 49.0263 135.576C49.6183 135.58 50.1463 135.682 50.6103 135.882C51.0743 136.078 51.4623 136.364 51.7743 136.74C52.0863 137.116 52.3063 137.57 52.4343 138.102L50.8803 138.372C50.8163 138.068 50.6923 137.81 50.5083 137.598C50.3283 137.382 50.1063 137.218 49.8423 137.106C49.5823 136.994 49.3043 136.934 49.0083 136.926C48.7203 136.922 48.4523 136.966 48.2043 137.058C47.9603 137.146 47.7623 137.274 47.6103 137.442C47.4623 137.61 47.3883 137.806 47.3883 138.03C47.3883 138.242 47.4523 138.416 47.5803 138.552C47.7083 138.684 47.8663 138.79 48.0543 138.87C48.2463 138.946 48.4403 139.01 48.6363 139.062L50.1843 139.494C50.3963 139.55 50.6343 139.626 50.8983 139.722C51.1623 139.818 51.4163 139.952 51.6603 140.124C51.9043 140.296 52.1043 140.522 52.2603 140.802C52.4203 141.082 52.5003 141.438 52.5003 141.87C52.5003 142.318 52.4063 142.712 52.2183 143.052C52.0343 143.388 51.7843 143.668 51.4683 143.892C51.1523 144.116 50.7903 144.284 50.3823 144.396C49.9783 144.508 49.5543 144.564 49.1103 144.564ZM56.745 144.564C56.089 144.564 55.513 144.422 55.017 144.138C54.521 143.854 54.133 143.46 53.853 142.956C53.577 142.452 53.439 141.872 53.439 141.216C53.439 140.508 53.575 139.894 53.847 139.374C54.119 138.85 54.497 138.444 54.981 138.156C55.465 137.868 56.025 137.724 56.661 137.724C57.333 137.724 57.903 137.882 58.371 138.198C58.843 138.51 59.193 138.952 59.421 139.524C59.649 140.096 59.735 140.77 59.679 141.546H58.245V141.018C58.241 140.314 58.117 139.8 57.873 139.476C57.629 139.152 57.245 138.99 56.721 138.99C56.129 138.99 55.689 139.174 55.401 139.542C55.113 139.906 54.969 140.44 54.969 141.144C54.969 141.8 55.113 142.308 55.401 142.668C55.689 143.028 56.109 143.208 56.661 143.208C57.017 143.208 57.323 143.13 57.579 142.974C57.839 142.814 58.039 142.584 58.179 142.284L59.607 142.716C59.359 143.3 58.975 143.754 58.455 144.078C57.939 144.402 57.369 144.564 56.745 144.564ZM54.513 141.546V140.454H58.971V141.546H54.513ZM61.0177 144.384V137.904H62.2957V139.482L62.1397 139.278C62.2197 139.062 62.3257 138.866 62.4577 138.69C62.5937 138.51 62.7557 138.362 62.9437 138.246C63.1037 138.138 63.2797 138.054 63.4717 137.994C63.6677 137.93 63.8677 137.892 64.0717 137.88C64.2757 137.864 64.4737 137.872 64.6657 137.904V139.254C64.4737 139.198 64.2517 139.18 63.9997 139.2C63.7517 139.22 63.5277 139.29 63.3277 139.41C63.1277 139.518 62.9637 139.656 62.8357 139.824C62.7117 139.992 62.6197 140.184 62.5597 140.4C62.4997 140.612 62.4697 140.842 62.4697 141.09V144.384H61.0177ZM67.5627 144.384L65.2107 137.904H66.6567L68.2887 142.602L69.9147 137.904H71.3667L69.0147 144.384H67.5627ZM72.5635 136.92V135.594H74.0095V136.92H72.5635ZM72.5635 144.384V137.904H74.0095V144.384H72.5635ZM78.6208 144.564C77.9528 144.564 77.3828 144.416 76.9108 144.12C76.4388 143.82 76.0768 143.412 75.8248 142.896C75.5768 142.38 75.4508 141.796 75.4468 141.144C75.4508 140.48 75.5808 139.892 75.8368 139.38C76.0968 138.864 76.4648 138.46 76.9408 138.168C77.4168 137.872 77.9828 137.724 78.6388 137.724C79.3748 137.724 79.9968 137.91 80.5048 138.282C81.0168 138.65 81.3508 139.154 81.5068 139.794L80.0668 140.184C79.9548 139.836 79.7688 139.566 79.5088 139.374C79.2488 139.178 78.9528 139.08 78.6208 139.08C78.2448 139.08 77.9348 139.17 77.6908 139.35C77.4468 139.526 77.2668 139.77 77.1508 140.082C77.0348 140.394 76.9768 140.748 76.9768 141.144C76.9768 141.76 77.1148 142.258 77.3908 142.638C77.6668 143.018 78.0768 143.208 78.6208 143.208C79.0048 143.208 79.3068 143.12 79.5268 142.944C79.7508 142.768 79.9188 142.514 80.0308 142.182L81.5068 142.512C81.3068 143.172 80.9568 143.68 80.4568 144.036C79.9568 144.388 79.3448 144.564 78.6208 144.564ZM85.4794 144.564C84.8234 144.564 84.2474 144.422 83.7514 144.138C83.2554 143.854 82.8674 143.46 82.5874 142.956C82.3114 142.452 82.1734 141.872 82.1734 141.216C82.1734 140.508 82.3094 139.894 82.5814 139.374C82.8534 138.85 83.2314 138.444 83.7154 138.156C84.1994 137.868 84.7594 137.724 85.3954 137.724C86.0674 137.724 86.6374 137.882 87.1054 138.198C87.5774 138.51 87.9274 138.952 88.1554 139.524C88.3834 140.096 88.4694 140.77 88.4134 141.546H86.9794V141.018C86.9754 140.314 86.8514 139.8 86.6074 139.476C86.3634 139.152 85.9794 138.99 85.4554 138.99C84.8634 138.99 84.4234 139.174 84.1354 139.542C83.8474 139.906 83.7034 140.44 83.7034 141.144C83.7034 141.8 83.8474 142.308 84.1354 142.668C84.4234 143.028 84.8434 143.208 85.3954 143.208C85.7514 143.208 86.0574 143.13 86.3134 142.974C86.5734 142.814 86.7734 142.584 86.9134 142.284L88.3414 142.716C88.0934 143.3 87.7094 143.754 87.1894 144.078C86.6734 144.402 86.1034 144.564 85.4794 144.564ZM83.2474 141.546V140.454H87.7054V141.546H83.2474ZM92.7185 144.384V137.802C92.7185 137.638 92.7245 137.458 92.7365 137.262C92.7485 137.062 92.7825 136.864 92.8385 136.668C92.8945 136.472 92.9965 136.294 93.1445 136.134C93.3285 135.93 93.5265 135.79 93.7385 135.714C93.9545 135.634 94.1665 135.59 94.3745 135.582C94.5825 135.57 94.7645 135.564 94.9205 135.564H95.7305V136.74H94.9805C94.7045 136.74 94.4985 136.81 94.3625 136.95C94.2305 137.086 94.1645 137.266 94.1645 137.49V144.384H92.7185ZM91.6745 139.038V137.904H95.7305V139.038H91.6745ZM99.4012 144.564C98.7452 144.564 98.1692 144.422 97.6732 144.138C97.1772 143.854 96.7892 143.46 96.5092 142.956C96.2332 142.452 96.0952 141.872 96.0952 141.216C96.0952 140.508 96.2312 139.894 96.5032 139.374C96.7752 138.85 97.1532 138.444 97.6372 138.156C98.1212 137.868 98.6812 137.724 99.3172 137.724C99.9892 137.724 100.559 137.882 101.027 138.198C101.499 138.51 101.849 138.952 102.077 139.524C102.305 140.096 102.391 140.77 102.335 141.546H100.901V141.018C100.897 140.314 100.773 139.8 100.529 139.476C100.285 139.152 99.9012 138.99 99.3772 138.99C98.7852 138.99 98.3452 139.174 98.0572 139.542C97.7692 139.906 97.6252 140.44 97.6252 141.144C97.6252 141.8 97.7692 142.308 98.0572 142.668C98.3452 143.028 98.7652 143.208 99.3172 143.208C99.6732 143.208 99.9792 143.13 100.235 142.974C100.495 142.814 100.695 142.584 100.835 142.284L102.263 142.716C102.015 143.3 101.631 143.754 101.111 144.078C100.595 144.402 100.025 144.564 99.4012 144.564ZM97.1692 141.546V140.454H101.627V141.546H97.1692ZM106.62 144.564C105.964 144.564 105.388 144.422 104.892 144.138C104.396 143.854 104.008 143.46 103.728 142.956C103.452 142.452 103.314 141.872 103.314 141.216C103.314 140.508 103.45 139.894 103.722 139.374C103.994 138.85 104.372 138.444 104.856 138.156C105.34 137.868 105.9 137.724 106.536 137.724C107.208 137.724 107.778 137.882 108.246 138.198C108.718 138.51 109.068 138.952 109.296 139.524C109.524 140.096 109.61 140.77 109.554 141.546H108.12V141.018C108.116 140.314 107.992 139.8 107.748 139.476C107.504 139.152 107.12 138.99 106.596 138.99C106.004 138.99 105.564 139.174 105.276 139.542C104.988 139.906 104.844 140.44 104.844 141.144C104.844 141.8 104.988 142.308 105.276 142.668C105.564 143.028 105.984 143.208 106.536 143.208C106.892 143.208 107.198 143.13 107.454 142.974C107.714 142.814 107.914 142.584 108.054 142.284L109.482 142.716C109.234 143.3 108.85 143.754 108.33 144.078C107.814 144.402 107.244 144.564 106.62 144.564ZM104.388 141.546V140.454H108.846V141.546H104.388ZM111.373 143.604V142.122H112.855V143.604H111.373ZM111.385 140.166V138.684H112.867V140.166H111.385Z" fill="#8E9BAE"/>
<path d="M127.02 144.564C126.408 144.564 125.868 144.434 125.4 144.174C124.932 143.91 124.566 143.544 124.302 143.076C124.042 142.608 123.912 142.068 123.912 141.456V138.672C123.912 138.06 124.042 137.52 124.302 137.052C124.566 136.584 124.932 136.22 125.4 135.96C125.868 135.696 126.408 135.564 127.02 135.564C127.632 135.564 128.17 135.696 128.634 135.96C129.102 136.22 129.468 136.584 129.732 137.052C129.996 137.52 130.128 138.06 130.128 138.672V141.456C130.128 142.068 129.996 142.608 129.732 143.076C129.468 143.544 129.102 143.91 128.634 144.174C128.17 144.434 127.632 144.564 127.02 144.564ZM127.02 143.19C127.324 143.19 127.6 143.118 127.848 142.974C128.096 142.826 128.292 142.63 128.436 142.386C128.58 142.138 128.652 141.862 128.652 141.558V138.564C128.652 138.256 128.58 137.98 128.436 137.736C128.292 137.488 128.096 137.292 127.848 137.148C127.6 137 127.324 136.926 127.02 136.926C126.716 136.926 126.44 137 126.192 137.148C125.944 137.292 125.748 137.488 125.604 137.736C125.46 137.98 125.388 138.256 125.388 138.564V141.558C125.388 141.862 125.46 142.138 125.604 142.386C125.748 142.63 125.944 142.826 126.192 142.974C126.44 143.118 126.716 143.19 127.02 143.19ZM131.691 145.914L131.775 145.29C131.959 145.306 132.105 145.274 132.213 145.194C132.321 145.118 132.393 145.008 132.429 144.864C132.469 144.724 132.479 144.564 132.459 144.384H131.691V142.842H133.173V144.444C133.173 144.968 133.049 145.364 132.801 145.632C132.553 145.9 132.183 145.994 131.691 145.914ZM135.215 144.372V143.112L138.911 139.818C139.199 139.562 139.399 139.32 139.511 139.092C139.623 138.864 139.679 138.644 139.679 138.432C139.679 138.144 139.617 137.888 139.493 137.664C139.369 137.436 139.197 137.256 138.977 137.124C138.761 136.992 138.511 136.926 138.227 136.926C137.927 136.926 137.661 136.996 137.429 137.136C137.201 137.272 137.023 137.454 136.895 137.682C136.767 137.91 136.707 138.156 136.715 138.42H135.227C135.227 137.844 135.355 137.342 135.611 136.914C135.871 136.486 136.227 136.154 136.679 135.918C137.135 135.682 137.661 135.564 138.257 135.564C138.809 135.564 139.305 135.688 139.745 135.936C140.185 136.18 140.531 136.52 140.783 136.956C141.035 137.388 141.161 137.886 141.161 138.45C141.161 138.862 141.105 139.208 140.993 139.488C140.881 139.768 140.713 140.026 140.489 140.262C140.269 140.498 139.995 140.76 139.667 141.048L137.045 143.37L136.913 143.01H141.161V144.372H135.215ZM145.166 144.564C144.726 144.564 144.316 144.474 143.936 144.294C143.556 144.11 143.228 143.858 142.952 143.538C142.68 143.218 142.484 142.846 142.364 142.422L143.756 142.05C143.812 142.282 143.914 142.482 144.062 142.65C144.214 142.818 144.39 142.948 144.59 143.04C144.794 143.132 145.004 143.178 145.22 143.178C145.5 143.178 145.756 143.11 145.988 142.974C146.22 142.838 146.404 142.656 146.54 142.428C146.676 142.196 146.744 141.94 146.744 141.66C146.744 141.38 146.674 141.126 146.534 140.898C146.398 140.666 146.214 140.484 145.982 140.352C145.75 140.216 145.496 140.148 145.22 140.148C144.888 140.148 144.612 140.208 144.392 140.328C144.176 140.448 144.01 140.576 143.894 140.712L142.658 140.316L142.922 135.744H147.614V137.1H143.696L144.236 136.59L144.044 139.77L143.78 139.446C144.004 139.242 144.264 139.09 144.56 138.99C144.856 138.89 145.142 138.84 145.418 138.84C145.958 138.84 146.436 138.964 146.852 139.212C147.272 139.456 147.6 139.79 147.836 140.214C148.076 140.638 148.196 141.12 148.196 141.66C148.196 142.2 148.056 142.69 147.776 143.13C147.496 143.566 147.126 143.914 146.666 144.174C146.21 144.434 145.71 144.564 145.166 144.564ZM150.835 144.384L149.875 143.424L157.561 135.744L158.521 136.71L150.835 144.384ZM156.721 144.564C156.325 144.564 155.963 144.468 155.635 144.276C155.311 144.08 155.051 143.82 154.855 143.496C154.659 143.168 154.561 142.804 154.561 142.404C154.561 142.012 154.661 141.652 154.861 141.324C155.061 140.996 155.325 140.734 155.653 140.538C155.981 140.342 156.337 140.244 156.721 140.244C157.117 140.244 157.479 140.342 157.807 140.538C158.135 140.73 158.395 140.99 158.587 141.318C158.783 141.642 158.881 142.004 158.881 142.404C158.881 142.804 158.783 143.168 158.587 143.496C158.395 143.82 158.135 144.08 157.807 144.276C157.479 144.468 157.117 144.564 156.721 144.564ZM156.721 143.328C156.885 143.328 157.037 143.286 157.177 143.202C157.321 143.118 157.435 143.006 157.519 142.866C157.603 142.726 157.645 142.572 157.645 142.404C157.645 142.236 157.603 142.082 157.519 141.942C157.435 141.802 157.321 141.69 157.177 141.606C157.037 141.522 156.885 141.48 156.721 141.48C156.553 141.48 156.399 141.522 156.259 141.606C156.119 141.69 156.005 141.802 155.917 141.942C155.833 142.082 155.791 142.236 155.791 142.404C155.791 142.572 155.833 142.726 155.917 142.866C156.005 143.006 156.119 143.118 156.259 143.202C156.399 143.286 156.553 143.328 156.721 143.328ZM151.675 139.884C151.279 139.884 150.917 139.788 150.589 139.596C150.261 139.4 149.999 139.14 149.803 138.816C149.611 138.488 149.515 138.124 149.515 137.724C149.515 137.332 149.615 136.972 149.815 136.644C150.015 136.316 150.279 136.054 150.607 135.858C150.935 135.662 151.291 135.564 151.675 135.564C152.071 135.564 152.431 135.662 152.755 135.858C153.083 136.05 153.345 136.31 153.541 136.638C153.737 136.962 153.835 137.324 153.835 137.724C153.835 138.124 153.737 138.488 153.541 138.816C153.345 139.14 153.083 139.4 152.755 139.596C152.431 139.788 152.071 139.884 151.675 139.884ZM151.675 138.648C151.843 138.648 151.997 138.606 152.137 138.522C152.277 138.438 152.389 138.326 152.473 138.186C152.557 138.046 152.599 137.892 152.599 137.724C152.599 137.556 152.557 137.402 152.473 137.262C152.389 137.122 152.277 137.01 152.137 136.926C151.997 136.842 151.843 136.8 151.675 136.8C151.507 136.8 151.353 136.842 151.213 136.926C151.073 137.01 150.961 137.122 150.877 137.262C150.793 137.402 150.751 137.556 150.751 137.724C150.751 137.892 150.793 138.046 150.877 138.186C150.961 138.326 151.073 138.438 151.213 138.522C151.353 138.606 151.507 138.648 151.675 138.648ZM165.878 146.31C165.41 145.766 165.01 145.15 164.678 144.462C164.346 143.778 164.094 143.06 163.922 142.308C163.75 141.556 163.67 140.808 163.682 140.064C163.67 139.32 163.75 138.572 163.922 137.82C164.094 137.064 164.346 136.344 164.678 135.66C165.01 134.976 165.41 134.362 165.878 133.818L166.946 134.61C166.466 135.19 166.082 135.776 165.794 136.368C165.51 136.96 165.306 137.564 165.182 138.18C165.058 138.792 164.994 139.42 164.99 140.064C164.994 140.708 165.058 141.338 165.182 141.954C165.31 142.566 165.516 143.17 165.8 143.766C166.084 144.358 166.466 144.94 166.946 145.512L165.878 146.31ZM169.779 144.384V137.322L168.159 138.312V136.716L169.779 135.744H171.255V144.384H169.779ZM176.367 144.564C175.795 144.564 175.287 144.448 174.843 144.216C174.399 143.984 174.051 143.662 173.799 143.25C173.547 142.838 173.421 142.366 173.421 141.834C173.421 141.358 173.531 140.916 173.751 140.508C173.971 140.1 174.293 139.774 174.717 139.53L174.687 139.992C174.355 139.74 174.097 139.45 173.913 139.122C173.733 138.79 173.643 138.418 173.643 138.006C173.643 137.51 173.759 137.08 173.991 136.716C174.227 136.352 174.549 136.07 174.957 135.87C175.365 135.666 175.835 135.564 176.367 135.564C176.899 135.564 177.369 135.666 177.777 135.87C178.189 136.07 178.511 136.352 178.743 136.716C178.979 137.08 179.097 137.51 179.097 138.006C179.097 138.418 179.009 138.788 178.833 139.116C178.661 139.444 178.399 139.74 178.047 140.004L178.041 139.536C178.457 139.772 178.775 140.096 178.995 140.508C179.219 140.916 179.331 141.358 179.331 141.834C179.331 142.366 179.203 142.838 178.947 143.25C178.695 143.662 178.345 143.984 177.897 144.216C177.453 144.448 176.943 144.564 176.367 144.564ZM176.367 143.202C176.791 143.202 177.135 143.086 177.399 142.854C177.667 142.622 177.801 142.282 177.801 141.834C177.801 141.386 177.669 141.046 177.405 140.814C177.141 140.578 176.795 140.46 176.367 140.46C175.943 140.46 175.601 140.578 175.341 140.814C175.081 141.046 174.951 141.386 174.951 141.834C174.951 142.282 175.081 142.622 175.341 142.854C175.601 143.086 175.943 143.202 176.367 143.202ZM176.367 139.086C176.723 139.086 177.011 138.998 177.231 138.822C177.455 138.642 177.567 138.37 177.567 138.006C177.567 137.642 177.455 137.372 177.231 137.196C177.011 137.016 176.723 136.926 176.367 136.926C176.015 136.926 175.727 137.016 175.503 137.196C175.283 137.372 175.173 137.642 175.173 138.006C175.173 138.37 175.283 138.642 175.503 138.822C175.727 138.998 176.015 139.086 176.367 139.086ZM183.361 144.546C182.929 144.546 182.521 144.462 182.137 144.294C181.753 144.126 181.419 143.888 181.135 143.58C180.855 143.272 180.653 142.908 180.529 142.488L181.927 142.11C182.027 142.454 182.209 142.72 182.473 142.908C182.741 143.092 183.035 143.182 183.355 143.178C183.639 143.178 183.893 143.112 184.117 142.98C184.341 142.848 184.517 142.67 184.645 142.446C184.773 142.218 184.837 141.964 184.837 141.684C184.837 141.256 184.699 140.898 184.423 140.61C184.147 140.322 183.791 140.178 183.355 140.178C183.223 140.178 183.093 140.196 182.965 140.232C182.841 140.268 182.721 140.318 182.605 140.382L181.945 139.242L184.849 136.758L184.975 137.106H180.865V135.744H186.163V137.112L183.829 139.356L183.817 138.93C184.341 138.966 184.787 139.112 185.155 139.368C185.527 139.624 185.811 139.954 186.007 140.358C186.207 140.762 186.307 141.204 186.307 141.684C186.307 142.228 186.173 142.716 185.905 143.148C185.641 143.58 185.285 143.922 184.837 144.174C184.393 144.422 183.901 144.546 183.361 144.546ZM187.621 144.372V143.112L191.317 139.818C191.605 139.562 191.805 139.32 191.917 139.092C192.029 138.864 192.085 138.644 192.085 138.432C192.085 138.144 192.023 137.888 191.899 137.664C191.775 137.436 191.603 137.256 191.383 137.124C191.167 136.992 190.917 136.926 190.633 136.926C190.333 136.926 190.067 136.996 189.835 137.136C189.607 137.272 189.429 137.454 189.301 137.682C189.173 137.91 189.113 138.156 189.121 138.42H187.633C187.633 137.844 187.761 137.342 188.017 136.914C188.277 136.486 188.633 136.154 189.085 135.918C189.541 135.682 190.067 135.564 190.663 135.564C191.215 135.564 191.711 135.688 192.151 135.936C192.591 136.18 192.937 136.52 193.189 136.956C193.441 137.388 193.567 137.886 193.567 138.45C193.567 138.862 193.511 139.208 193.399 139.488C193.287 139.768 193.119 140.026 192.895 140.262C192.675 140.498 192.401 140.76 192.073 141.048L189.451 143.37L189.319 143.01H193.567V144.372H187.621ZM197.8 135.576C198.364 135.576 198.872 135.71 199.324 135.978C199.776 136.242 200.132 136.61 200.392 137.082C200.656 137.55 200.788 138.09 200.788 138.702V141.336C200.788 141.988 200.656 142.558 200.392 143.046C200.132 143.53 199.766 143.904 199.294 144.168C198.822 144.432 198.27 144.564 197.638 144.564C197.202 144.564 196.79 144.49 196.402 144.342C196.014 144.19 195.666 143.958 195.358 143.646L196.396 142.632C196.552 142.812 196.738 142.954 196.954 143.058C197.174 143.158 197.402 143.208 197.638 143.208C197.974 143.208 198.268 143.13 198.52 142.974C198.772 142.814 198.968 142.608 199.108 142.356C199.248 142.1 199.318 141.826 199.318 141.534V140.1L199.576 140.388C199.332 140.676 199.036 140.902 198.688 141.066C198.34 141.226 197.974 141.306 197.59 141.306C197.05 141.306 196.57 141.182 196.15 140.934C195.734 140.686 195.406 140.35 195.166 139.926C194.93 139.498 194.812 139.014 194.812 138.474C194.812 137.934 194.948 137.446 195.22 137.01C195.492 136.57 195.854 136.222 196.306 135.966C196.762 135.706 197.26 135.576 197.8 135.576ZM197.8 136.956C197.52 136.956 197.264 137.024 197.032 137.16C196.8 137.296 196.616 137.48 196.48 137.712C196.344 137.94 196.276 138.194 196.276 138.474C196.276 138.754 196.342 139.01 196.474 139.242C196.61 139.474 196.792 139.658 197.02 139.794C197.252 139.93 197.508 139.998 197.788 139.998C198.068 139.998 198.324 139.93 198.556 139.794C198.788 139.658 198.972 139.474 199.108 139.242C199.248 139.01 199.318 138.754 199.318 138.474C199.318 138.202 199.25 137.952 199.114 137.724C198.978 137.492 198.794 137.306 198.562 137.166C198.334 137.026 198.08 136.956 197.8 136.956ZM205.571 144.564C204.959 144.564 204.419 144.434 203.951 144.174C203.483 143.91 203.117 143.544 202.853 143.076C202.593 142.608 202.463 142.068 202.463 141.456V138.672C202.463 138.06 202.593 137.52 202.853 137.052C203.117 136.584 203.483 136.22 203.951 135.96C204.419 135.696 204.959 135.564 205.571 135.564C206.183 135.564 206.721 135.696 207.185 135.96C207.653 136.22 208.019 136.584 208.283 137.052C208.547 137.52 208.679 138.06 208.679 138.672V141.456C208.679 142.068 208.547 142.608 208.283 143.076C208.019 143.544 207.653 143.91 207.185 144.174C206.721 144.434 206.183 144.564 205.571 144.564ZM205.571 143.19C205.875 143.19 206.151 143.118 206.399 142.974C206.647 142.826 206.843 142.63 206.987 142.386C207.131 142.138 207.203 141.862 207.203 141.558V138.564C207.203 138.256 207.131 137.98 206.987 137.736C206.843 137.488 206.647 137.292 206.399 137.148C206.151 137 205.875 136.926 205.571 136.926C205.267 136.926 204.991 137 204.743 137.148C204.495 137.292 204.299 137.488 204.155 137.736C204.011 137.98 203.939 138.256 203.939 138.564V141.558C203.939 141.862 204.011 142.138 204.155 142.386C204.299 142.63 204.495 142.826 204.743 142.974C204.991 143.118 205.267 143.19 205.571 143.19ZM210.601 144.384V142.902H212.083V144.384H210.601ZM217.114 144.564C216.502 144.564 215.962 144.434 215.494 144.174C215.026 143.91 214.66 143.544 214.396 143.076C214.136 142.608 214.006 142.068 214.006 141.456V138.672C214.006 138.06 214.136 137.52 214.396 137.052C214.66 136.584 215.026 136.22 215.494 135.96C215.962 135.696 216.502 135.564 217.114 135.564C217.726 135.564 218.264 135.696 218.728 135.96C219.196 136.22 219.562 136.584 219.826 137.052C220.09 137.52 220.222 138.06 220.222 138.672V141.456C220.222 142.068 220.09 142.608 219.826 143.076C219.562 143.544 219.196 143.91 218.728 144.174C218.264 144.434 217.726 144.564 217.114 144.564ZM217.114 143.19C217.418 143.19 217.694 143.118 217.942 142.974C218.19 142.826 218.386 142.63 218.53 142.386C218.674 142.138 218.746 141.862 218.746 141.558V138.564C218.746 138.256 218.674 137.98 218.53 137.736C218.386 137.488 218.19 137.292 217.942 137.148C217.694 137 217.418 136.926 217.114 136.926C216.81 136.926 216.534 137 216.286 137.148C216.038 137.292 215.842 137.488 215.698 137.736C215.554 137.98 215.482 138.256 215.482 138.564V141.558C215.482 141.862 215.554 142.138 215.698 142.386C215.842 142.63 216.038 142.826 216.286 142.974C216.534 143.118 216.81 143.19 217.114 143.19ZM225.012 144.564C224.4 144.564 223.86 144.434 223.392 144.174C222.924 143.91 222.558 143.544 222.294 143.076C222.034 142.608 221.904 142.068 221.904 141.456V138.672C221.904 138.06 222.034 137.52 222.294 137.052C222.558 136.584 222.924 136.22 223.392 135.96C223.86 135.696 224.4 135.564 225.012 135.564C225.624 135.564 226.162 135.696 226.626 135.96C227.094 136.22 227.46 136.584 227.724 137.052C227.988 137.52 228.12 138.06 228.12 138.672V141.456C228.12 142.068 227.988 142.608 227.724 143.076C227.46 143.544 227.094 143.91 226.626 144.174C226.162 144.434 225.624 144.564 225.012 144.564ZM225.012 143.19C225.316 143.19 225.592 143.118 225.84 142.974C226.088 142.826 226.284 142.63 226.428 142.386C226.572 142.138 226.644 141.862 226.644 141.558V138.564C226.644 138.256 226.572 137.98 226.428 137.736C226.284 137.488 226.088 137.292 225.84 137.148C225.592 137 225.316 136.926 225.012 136.926C224.708 136.926 224.432 137 224.184 137.148C223.936 137.292 223.74 137.488 223.596 137.736C223.452 137.98 223.38 138.256 223.38 138.564V141.558C223.38 141.862 223.452 142.138 223.596 142.386C223.74 142.63 223.936 142.826 224.184 142.974C224.432 143.118 224.708 143.19 225.012 143.19ZM232.205 144.384V135.744H235.631C236.215 135.744 236.693 135.862 237.065 136.098C237.441 136.33 237.719 136.628 237.899 136.992C238.083 137.356 238.175 137.732 238.175 138.12C238.175 138.596 238.061 139 237.833 139.332C237.609 139.664 237.303 139.888 236.915 140.004V139.704C237.459 139.828 237.871 140.086 238.151 140.478C238.435 140.87 238.577 141.316 238.577 141.816C238.577 142.328 238.479 142.776 238.283 143.16C238.087 143.544 237.795 143.844 237.407 144.06C237.023 144.276 236.547 144.384 235.979 144.384H232.205ZM233.669 143.022H235.799C236.051 143.022 236.277 142.972 236.477 142.872C236.677 142.768 236.833 142.624 236.945 142.44C237.061 142.252 237.119 142.03 237.119 141.774C237.119 141.542 237.069 141.334 236.969 141.15C236.869 140.966 236.723 140.82 236.531 140.712C236.339 140.6 236.109 140.544 235.841 140.544H233.669V143.022ZM233.669 139.194H235.613C235.821 139.194 236.007 139.154 236.171 139.074C236.335 138.994 236.465 138.876 236.561 138.72C236.657 138.564 236.705 138.372 236.705 138.144C236.705 137.844 236.609 137.594 236.417 137.394C236.225 137.194 235.957 137.094 235.613 137.094H233.669V139.194ZM241.617 144.384V137.1H238.821V135.744H245.859V137.1H243.063V144.384H241.617ZM250.473 144.564C249.609 144.564 248.869 144.376 248.253 144C247.637 143.62 247.163 143.092 246.831 142.416C246.503 141.74 246.339 140.956 246.339 140.064C246.339 139.172 246.503 138.388 246.831 137.712C247.163 137.036 247.637 136.51 248.253 136.134C248.869 135.754 249.609 135.564 250.473 135.564C251.469 135.564 252.299 135.814 252.963 136.314C253.627 136.81 254.093 137.48 254.361 138.324L252.903 138.726C252.735 138.162 252.449 137.722 252.045 137.406C251.641 137.086 251.117 136.926 250.473 136.926C249.893 136.926 249.409 137.056 249.021 137.316C248.637 137.576 248.347 137.942 248.151 138.414C247.959 138.882 247.861 139.432 247.857 140.064C247.857 140.696 247.953 141.248 248.145 141.72C248.341 142.188 248.633 142.552 249.021 142.812C249.409 143.072 249.893 143.202 250.473 143.202C251.117 143.202 251.641 143.042 252.045 142.722C252.449 142.402 252.735 141.962 252.903 141.402L254.361 141.804C254.093 142.648 253.627 143.32 252.963 143.82C252.299 144.316 251.469 144.564 250.473 144.564ZM255.683 146.31L254.615 145.512C255.095 144.94 255.477 144.358 255.761 143.766C256.045 143.17 256.249 142.566 256.373 141.954C256.501 141.338 256.567 140.708 256.571 140.064C256.567 139.42 256.503 138.792 256.379 138.18C256.255 137.564 256.049 136.96 255.761 136.368C255.477 135.776 255.095 135.19 254.615 134.61L255.683 133.818C256.151 134.362 256.551 134.976 256.883 135.66C257.215 136.344 257.467 137.064 257.639 137.82C257.811 138.572 257.891 139.32 257.879 140.064C257.891 140.808 257.811 141.556 257.639 142.308C257.467 143.06 257.215 143.778 256.883 144.462C256.551 145.15 256.151 145.766 255.683 146.31Z" fill="#8E9BAE"/>
</g>
</g>
<defs>
<filter id="filter0_d_5303_43016" x="0.0722656" y="0.12793" width="362" height="203.256" filterUnits="userSpaceOnUse" color-interpolation-filters="sRGB">
<feFlood flood-opacity="0" result="BackgroundImageFix"/>
<feColorMatrix in="SourceAlpha" type="matrix" values="0 0 0 0 0 0 0 0 0 0 0 0 0 0 0 0 0 0 127 0" result="hardAlpha"/>
<feOffset dy="10"/>
<feGaussianBlur stdDeviation="12.5"/>
<feComposite in2="hardAlpha" operator="out"/>
<feColorMatrix type="matrix" values="0 0 0 0 0.0627451 0 0 0 0 0.0980392 0 0 0 0 0.176471 0 0 0 0.05 0"/>
<feBlend mode="normal" in2="BackgroundImageFix" result="effect1_dropShadow_5303_43016"/>
<feBlend mode="normal" in="SourceGraphic" in2="effect1_dropShadow_5303_43016" result="shape"/>
</filter>
<clipPath id="clip0_5303_43016">
<rect x="25.0723" y="15.1279" width="312" height="153.256" rx="15" fill="white"/>
</clipPath>
<clipPath id="clip1_5303_43016">
<rect width="16.3539" height="16.3539" fill="white" transform="translate(297.796 38.7419) rotate(15)"/>
</clipPath>
</defs>
</svg>
