<svg width="157" height="219" viewBox="0 0 157 219" fill="none" xmlns="http://www.w3.org/2000/svg">
<rect x="0.0153809" y="0.605469" width="156.46" height="218.279" rx="13.6766" fill="#1A232D"/>
<g clip-path="url(#clip0_3194_55853)">
<path d="M116.179 23.0351C115.947 22.6351 115.768 22.2076 115.644 21.7626C115.914 21.6253 116.14 21.4161 116.299 21.158C116.457 20.9 116.541 20.6031 116.541 20.3003C116.541 19.9976 116.457 19.7007 116.299 19.4425C116.141 19.1843 115.915 18.9749 115.645 18.8374C115.892 17.9433 116.363 17.1267 117.013 16.4648C117.267 16.6299 117.561 16.7215 117.864 16.7295C118.167 16.7375 118.466 16.6616 118.728 16.5101C118.99 16.3587 119.206 16.1377 119.35 15.8715C119.495 15.6053 119.562 15.3044 119.546 15.002C120.445 14.7698 121.387 14.7702 122.286 15.0031C122.27 15.3055 122.338 15.6064 122.482 15.8725C122.627 16.1386 122.842 16.3595 123.104 16.5108C123.367 16.6621 123.666 16.7379 123.969 16.7298C124.271 16.7217 124.566 16.63 124.82 16.4648C125.136 16.7876 125.418 17.1547 125.654 17.5644C125.891 17.9742 126.068 18.4014 126.189 18.8369C125.919 18.9741 125.692 19.1834 125.534 19.4415C125.376 19.6995 125.292 19.9964 125.292 20.2991C125.292 20.6019 125.375 20.8988 125.533 21.157C125.692 21.4152 125.918 21.6246 126.188 21.762C125.941 22.6562 125.47 23.4727 124.82 24.1347C124.566 23.9696 124.271 23.878 123.968 23.87C123.666 23.862 123.367 23.9379 123.104 24.0893C122.842 24.2408 122.627 24.4618 122.482 24.728C122.338 24.9942 122.27 25.2951 122.286 25.5975C121.388 25.8297 120.445 25.8293 119.547 25.5964C119.563 25.294 119.495 24.9931 119.35 24.727C119.206 24.4609 118.99 24.24 118.728 24.0887C118.466 23.9374 118.167 23.8616 117.864 23.8697C117.561 23.8778 117.267 23.9695 117.013 24.1347C116.69 23.8048 116.409 23.4353 116.179 23.0351ZM119.275 23.1423C119.858 23.4785 120.296 24.0181 120.506 24.6577C120.779 24.6834 121.053 24.6839 121.326 24.6582C121.536 24.0186 121.974 23.479 122.557 23.1428C123.14 22.8057 123.827 22.6956 124.486 22.8337C124.645 22.6105 124.781 22.3726 124.895 22.1237C124.446 21.6222 124.198 20.9727 124.199 20.2997C124.199 19.6104 124.456 18.9665 124.895 18.4758C124.78 18.227 124.643 17.9893 124.485 17.7657C123.826 17.9038 123.14 17.7939 122.557 17.4572C121.975 17.121 121.536 16.5813 121.327 15.9418C121.054 15.9161 120.78 15.9156 120.507 15.9413C120.297 16.5809 119.858 17.1205 119.275 17.4566C118.692 17.7938 118.006 17.9039 117.347 17.7657C117.188 17.9891 117.051 18.2268 116.937 18.4758C117.386 18.9772 117.634 19.6267 117.634 20.2997C117.634 20.989 117.377 21.6329 116.937 22.1237C117.052 22.3725 117.189 22.6102 117.348 22.8337C118.006 22.6957 118.693 22.8056 119.275 23.1423ZM120.916 21.9409C120.481 21.9409 120.064 21.768 119.756 21.4602C119.448 21.1525 119.275 20.735 119.275 20.2997C119.275 19.8645 119.448 19.447 119.756 19.1392C120.064 18.8315 120.481 18.6585 120.916 18.6585C121.352 18.6585 121.769 18.8315 122.077 19.1392C122.385 19.447 122.557 19.8645 122.557 20.2997C122.557 20.735 122.385 21.1525 122.077 21.4602C121.769 21.768 121.352 21.9409 120.916 21.9409ZM120.916 20.8468C121.061 20.8468 121.201 20.7892 121.303 20.6866C121.406 20.584 121.463 20.4448 121.463 20.2997C121.463 20.1546 121.406 20.0155 121.303 19.9129C121.201 19.8103 121.061 19.7527 120.916 19.7527C120.771 19.7527 120.632 19.8103 120.529 19.9129C120.427 20.0155 120.369 20.1546 120.369 20.2997C120.369 20.4448 120.427 20.584 120.529 20.6866C120.632 20.7892 120.771 20.8468 120.916 20.8468Z" fill="#F0F4F7"/>
</g>
<g clip-path="url(#clip1_3194_55853)">
<path d="M140.611 14.8291C143.632 14.8291 146.082 17.2783 146.082 20.2997C146.082 23.3212 143.632 25.7704 140.611 25.7704C137.589 25.7704 135.14 23.3212 135.14 20.2997H136.234C136.234 22.7167 138.194 24.6763 140.611 24.6763C143.028 24.6763 144.987 22.7167 144.987 20.2997C144.987 17.8828 143.028 15.9232 140.611 15.9232C139.106 15.9232 137.779 16.682 136.992 17.838H138.423V18.9321H135.14V15.6497H136.234V17.0174C137.232 15.688 138.821 14.8291 140.611 14.8291ZM141.158 17.5644V20.0727L142.932 21.8468L142.158 22.6209L140.064 20.5257V17.5644H141.158Z" fill="white"/>
</g>
<path d="M19.3945 24.8116L18.4667 23.7C18.21 23.7642 17.9474 23.7963 17.679 23.7963C17.1071 23.7963 16.5819 23.662 16.1034 23.3936C15.6249 23.1252 15.2456 22.7546 14.9655 22.282C14.6854 21.8035 14.5454 21.2637 14.5454 20.6627C14.5454 20.0675 14.6854 19.5335 14.9655 19.0609C15.2456 18.5824 15.6249 18.2089 16.1034 17.9405C16.5819 17.6721 17.1071 17.5378 17.679 17.5378C18.2567 17.5378 18.7818 17.6721 19.2545 17.9405C19.733 18.2089 20.1094 18.5824 20.3836 19.0609C20.6637 19.5335 20.8038 20.0675 20.8038 20.6627C20.8038 21.2054 20.6871 21.7014 20.4537 22.1507C20.2261 22.5942 19.9139 22.956 19.5171 23.2361L20.9176 24.8116H19.3945ZM15.8058 20.6627C15.8058 21.0711 15.8846 21.43 16.0421 21.7393C16.1997 22.0486 16.4185 22.2878 16.6986 22.457C16.9845 22.6204 17.3113 22.7021 17.679 22.7021C18.0466 22.7021 18.3704 22.6204 18.6505 22.457C18.9306 22.2878 19.1495 22.0486 19.307 21.7393C19.4646 21.43 19.5433 21.0711 19.5433 20.6627C19.5433 20.2542 19.4646 19.8982 19.307 19.5948C19.1495 19.2855 18.9306 19.0492 18.6505 18.8858C18.3704 18.7224 18.0466 18.6407 17.679 18.6407C17.3113 18.6407 16.9845 18.7224 16.6986 18.8858C16.4185 19.0492 16.1997 19.2855 16.0421 19.5948C15.8846 19.8982 15.8058 20.2542 15.8058 20.6627ZM26.3104 18.8858V23.735H25.0762V23.1223C24.9187 23.3323 24.7115 23.4987 24.4548 23.6212C24.2038 23.7379 23.9296 23.7963 23.632 23.7963C23.2527 23.7963 22.9171 23.7175 22.6254 23.5599C22.3336 23.3965 22.1031 23.1602 21.9339 22.8509C21.7705 22.5358 21.6888 22.1624 21.6888 21.7305V18.8858H22.9142V21.5555C22.9142 21.9406 23.0105 22.2382 23.2031 22.4483C23.3956 22.6525 23.6582 22.7546 23.9908 22.7546C24.3293 22.7546 24.5948 22.6525 24.7874 22.4483C24.9799 22.2382 25.0762 21.9406 25.0762 21.5555V18.8858H26.3104ZM28.1409 18.3081C27.925 18.3081 27.7441 18.241 27.5983 18.1068C27.4582 17.9667 27.3882 17.7946 27.3882 17.5904C27.3882 17.3861 27.4582 17.2169 27.5983 17.0827C27.7441 16.9426 27.925 16.8726 28.1409 16.8726C28.3569 16.8726 28.5348 16.9426 28.6749 17.0827C28.8208 17.2169 28.8937 17.3861 28.8937 17.5904C28.8937 17.7946 28.8208 17.9667 28.6749 18.1068C28.5348 18.241 28.3569 18.3081 28.1409 18.3081ZM28.7449 18.8858V23.735H27.5195V18.8858H28.7449ZM29.6405 21.3104C29.6405 20.8086 29.7426 20.3709 29.9469 19.9974C30.1511 19.6181 30.4341 19.3264 30.7959 19.1221C31.1577 18.9121 31.572 18.807 32.0388 18.807C32.6399 18.807 33.1359 18.9587 33.5269 19.2622C33.9237 19.5598 34.1892 19.9799 34.3234 20.5226H33.0017C32.9317 20.3126 32.812 20.1492 32.6428 20.0325C32.4794 19.9099 32.2752 19.8486 32.0301 19.8486C31.68 19.8486 31.4028 19.977 31.1986 20.2338C30.9943 20.4847 30.8922 20.8436 30.8922 21.3104C30.8922 21.7714 30.9943 22.1303 31.1986 22.387C31.4028 22.6379 31.68 22.7634 32.0301 22.7634C32.5261 22.7634 32.85 22.5417 33.0017 22.0982H34.3234C34.1892 22.6234 33.9237 23.0406 33.5269 23.3499C33.1301 23.6591 32.6341 23.8138 32.0388 23.8138C31.572 23.8138 31.1577 23.7116 30.7959 23.5074C30.4341 23.2973 30.1511 23.0056 29.9469 22.6321C29.7426 22.2528 29.6405 21.8122 29.6405 21.3104ZM38.0921 23.735L36.4465 21.6693V23.735H35.2211V17.2577H36.4465V20.9428L38.0746 18.8858H39.6677L37.5319 21.3191L39.6852 23.735H38.0921ZM43.6439 18.6145V20.1462H45.7008V21.1178H43.6439V22.7371H45.9634V23.735H42.4184V17.6166H45.9634V18.6145H43.6439ZM49.7555 23.735L48.7576 22.2295L47.8736 23.735H46.5606L48.1449 21.3016L46.5431 18.8858H47.9261L48.9152 20.3826L49.808 18.8858H51.1209L49.5279 21.3016L51.1384 23.735H49.7555ZM51.4889 21.3104C51.4889 20.8086 51.591 20.3709 51.7953 19.9974C51.9995 19.6181 52.2825 19.3264 52.6443 19.1221C53.0061 18.9121 53.4204 18.807 53.8872 18.807C54.4883 18.807 54.9843 18.9587 55.3752 19.2622C55.772 19.5598 56.0376 19.9799 56.1718 20.5226H54.8501C54.78 20.3126 54.6604 20.1492 54.4912 20.0325C54.3278 19.9099 54.1236 19.8486 53.8785 19.8486C53.5284 19.8486 53.2512 19.977 53.0469 20.2338C52.8427 20.4847 52.7406 20.8436 52.7406 21.3104C52.7406 21.7714 52.8427 22.1303 53.0469 22.387C53.2512 22.6379 53.5284 22.7634 53.8785 22.7634C54.3745 22.7634 54.6983 22.5417 54.8501 22.0982H56.1718C56.0376 22.6234 55.772 23.0406 55.3752 23.3499C54.9784 23.6591 54.4824 23.8138 53.8872 23.8138C53.4204 23.8138 53.0061 23.7116 52.6443 23.5074C52.2825 23.2973 51.9995 23.0056 51.7953 22.6321C51.591 22.2528 51.4889 21.8122 51.4889 21.3104ZM59.8004 18.8158C60.1681 18.8158 60.4948 18.8975 60.7808 19.0609C61.0667 19.2184 61.2885 19.4548 61.446 19.7699C61.6094 20.0791 61.6911 20.4526 61.6911 20.8903V23.735H60.4657V21.0566C60.4657 20.6714 60.3694 20.3767 60.1768 20.1725C59.9843 19.9624 59.7217 19.8574 59.389 19.8574C59.0506 19.8574 58.7822 19.9624 58.5838 20.1725C58.3912 20.3767 58.2949 20.6714 58.2949 21.0566V23.735H57.0695V17.2577H58.2949V19.4898C58.4525 19.2797 58.6625 19.1163 58.9251 18.9996C59.1877 18.8771 59.4795 18.8158 59.8004 18.8158ZM62.5413 21.2929C62.5413 20.8027 62.6376 20.368 62.8302 19.9887C63.0286 19.6094 63.2941 19.3176 63.6267 19.1134C63.9651 18.9091 64.3415 18.807 64.7558 18.807C65.1176 18.807 65.4327 18.88 65.7011 19.0259C65.9754 19.1717 66.1942 19.3556 66.3576 19.5773V18.8858H67.5918V23.735H66.3576V23.026C66.2001 23.2536 65.9812 23.4432 65.7011 23.5949C65.4269 23.7408 65.1089 23.8138 64.7471 23.8138C64.3386 23.8138 63.9651 23.7087 63.6267 23.4987C63.2941 23.2886 63.0286 22.9939 62.8302 22.6146C62.6376 22.2295 62.5413 21.7889 62.5413 21.2929ZM66.3576 21.3104C66.3576 21.0128 66.2993 20.759 66.1826 20.5489C66.0659 20.333 65.9083 20.1696 65.7099 20.0587C65.5115 19.942 65.2985 19.8837 65.0709 19.8837C64.8433 19.8837 64.6333 19.9391 64.4407 20.05C64.2481 20.1608 64.0906 20.3242 63.968 20.5401C63.8513 20.7502 63.793 21.0011 63.793 21.2929C63.793 21.5847 63.8513 21.8414 63.968 22.0632C64.0906 22.2791 64.2481 22.4454 64.4407 22.5621C64.6391 22.6788 64.8492 22.7371 65.0709 22.7371C65.2985 22.7371 65.5115 22.6817 65.7099 22.5708C65.9083 22.4541 66.0659 22.2907 66.1826 22.0807C66.2993 21.8648 66.3576 21.608 66.3576 21.3104ZM70.6881 18.807C71.0498 18.807 71.3679 18.88 71.6421 19.0259C71.9164 19.1659 72.1323 19.3497 72.2899 19.5773V18.8858H73.524V23.77C73.524 24.2193 73.4336 24.619 73.2527 24.9692C73.0718 25.3251 72.8004 25.6052 72.4387 25.8095C72.0769 26.0195 71.6392 26.1246 71.1257 26.1246C70.4371 26.1246 69.8711 25.9641 69.4276 25.6431C68.99 25.3222 68.742 24.8845 68.6836 24.3302H69.9003C69.9645 24.5519 70.1016 24.727 70.3117 24.8554C70.5276 24.9896 70.7873 25.0567 71.0907 25.0567C71.4466 25.0567 71.7355 24.9487 71.9572 24.7328C72.179 24.5228 72.2899 24.2018 72.2899 23.77V23.0172C72.1323 23.2448 71.9135 23.4345 71.6334 23.5862C71.3591 23.7379 71.044 23.8138 70.6881 23.8138C70.2796 23.8138 69.9061 23.7087 69.5677 23.4987C69.2292 23.2886 68.9608 22.9939 68.7624 22.6146C68.5698 22.2295 68.4735 21.7889 68.4735 21.2929C68.4735 20.8027 68.5698 20.368 68.7624 19.9887C68.9608 19.6094 69.2263 19.3176 69.5589 19.1134C69.8974 18.9091 70.2737 18.807 70.6881 18.807ZM72.2899 21.3104C72.2899 21.0128 72.2315 20.759 72.1148 20.5489C71.9981 20.333 71.8405 20.1696 71.6421 20.0587C71.4437 19.942 71.2307 19.8837 71.0032 19.8837C70.7756 19.8837 70.5655 19.9391 70.3729 20.05C70.1804 20.1608 70.0228 20.3242 69.9003 20.5401C69.7836 20.7502 69.7252 21.0011 69.7252 21.2929C69.7252 21.5847 69.7836 21.8414 69.9003 22.0632C70.0228 22.2791 70.1804 22.4454 70.3729 22.5621C70.5713 22.6788 70.7814 22.7371 71.0032 22.7371C71.2307 22.7371 71.4437 22.6817 71.6421 22.5708C71.8405 22.4541 71.9981 22.2907 72.1148 22.0807C72.2315 21.8648 72.2899 21.608 72.2899 21.3104ZM79.2287 21.2054C79.2287 21.3804 79.217 21.538 79.1937 21.678H75.6487C75.6779 22.0281 75.8004 22.3024 76.0163 22.5008C76.2322 22.6992 76.4977 22.7984 76.8128 22.7984C77.268 22.7984 77.5919 22.6029 77.7844 22.212H79.1061C78.9661 22.6788 78.6977 23.0639 78.3009 23.3674C77.9041 23.665 77.4168 23.8138 76.8391 23.8138C76.3723 23.8138 75.9521 23.7116 75.5787 23.5074C75.211 23.2973 74.9222 23.0026 74.7121 22.6234C74.5079 22.2441 74.4058 21.8064 74.4058 21.3104C74.4058 20.8086 74.5079 20.368 74.7121 19.9887C74.9164 19.6094 75.2023 19.3176 75.5699 19.1134C75.9375 18.9091 76.3606 18.807 76.8391 18.807C77.3001 18.807 77.7115 18.9062 78.0733 19.1046C78.4409 19.303 78.7239 19.586 78.9223 19.9537C79.1266 20.3155 79.2287 20.7327 79.2287 21.2054ZM77.9595 20.8552C77.9537 20.5401 77.8399 20.2892 77.6181 20.1025C77.3964 19.9099 77.125 19.8136 76.8041 19.8136C76.5007 19.8136 76.2439 19.907 76.0338 20.0937C75.8296 20.2746 75.7041 20.5285 75.6574 20.8552H77.9595Z" fill="white"/>
<rect x="7.67432" y="43.8235" width="141.143" height="55.2535" rx="10.9413" fill="#161E27"/>
<path d="M45.855 79.6669C46.211 79.7428 46.4969 79.9207 46.7128 80.2008C46.9287 80.4751 47.0367 80.7902 47.0367 81.1462C47.0367 81.6597 46.8558 82.0682 46.494 82.3716C46.138 82.6692 45.6391 82.818 44.9972 82.818H42.135V76.6734H44.9009C45.5253 76.6734 46.0126 76.8163 46.3627 77.1023C46.7186 77.3882 46.8966 77.7762 46.8966 78.2664C46.8966 78.6282 46.8003 78.9287 46.6078 79.168C46.421 79.4072 46.1701 79.5735 45.855 79.6669ZM43.6317 79.1592H44.6121C44.8572 79.1592 45.0439 79.1067 45.1723 79.0017C45.3065 78.8908 45.3736 78.7303 45.3736 78.5203C45.3736 78.3102 45.3065 78.1497 45.1723 78.0388C45.0439 77.928 44.8572 77.8725 44.6121 77.8725H43.6317V79.1592ZM44.7346 81.6101C44.9855 81.6101 45.1781 81.5546 45.3123 81.4438C45.4524 81.3271 45.5224 81.1608 45.5224 80.9448C45.5224 80.7289 45.4495 80.5597 45.3036 80.4372C45.1635 80.3146 44.968 80.2534 44.7171 80.2534H43.6317V81.6101H44.7346ZM52.3251 76.6734V77.8725H50.697V82.818H49.2002V77.8725H47.5722V76.6734H52.3251ZM52.8224 79.7369C52.8224 79.1301 52.9537 78.5903 53.2163 78.1176C53.4789 77.6391 53.8436 77.2686 54.3104 77.006C54.7831 76.7376 55.317 76.6033 55.9122 76.6033C56.6417 76.6033 57.266 76.7959 57.7854 77.181C58.3047 77.5662 58.6519 78.0914 58.827 78.7566H57.1814C57.0589 78.4998 56.8838 78.3043 56.6562 78.1701C56.4345 78.0359 56.1807 77.9688 55.8947 77.9688C55.4337 77.9688 55.0603 78.1293 54.7743 78.4502C54.4884 78.7712 54.3454 79.2001 54.3454 79.7369C54.3454 80.2738 54.4884 80.7027 54.7743 81.0236C55.0603 81.3446 55.4337 81.505 55.8947 81.505C56.1807 81.505 56.4345 81.4379 56.6562 81.3037C56.8838 81.1695 57.0589 80.974 57.1814 80.7173H58.827C58.6519 81.3825 58.3047 81.9077 57.7854 82.2928C57.266 82.6721 56.6417 82.8618 55.9122 82.8618C55.317 82.8618 54.7831 82.7305 54.3104 82.4679C53.8436 82.1994 53.4789 81.8289 53.2163 81.3562C52.9537 80.8836 52.8224 80.3438 52.8224 79.7369Z" fill="white"/>
<path d="M119.39 79.0312C119.39 77.9021 119.606 77.0125 120.04 76.3626C120.479 75.7127 121.185 75.3877 122.157 75.3877C123.128 75.3877 123.831 75.7127 124.264 76.3626C124.704 77.0125 124.924 77.9021 124.924 79.0312C124.924 80.1735 124.704 81.0696 124.264 81.7195C123.831 82.3694 123.128 82.6943 122.157 82.6943C121.185 82.6943 120.479 82.3694 120.04 81.7195C119.606 81.0696 119.39 80.1735 119.39 79.0312ZM123.269 79.0312C123.269 78.3682 123.197 77.8594 123.053 77.5049C122.908 77.1438 122.61 76.9633 122.157 76.9633C121.704 76.9633 121.405 77.1438 121.261 77.5049C121.116 77.8594 121.044 78.3682 121.044 79.0312C121.044 79.4776 121.07 79.8485 121.123 80.1439C121.175 80.4328 121.28 80.6691 121.438 80.8529C121.602 81.0302 121.842 81.1188 122.157 81.1188C122.472 81.1188 122.708 81.0302 122.866 80.8529C123.03 80.6691 123.138 80.4328 123.191 80.1439C123.243 79.8485 123.269 79.4776 123.269 79.0312ZM126.769 82.8027C126.473 82.8027 126.23 82.7173 126.04 82.5466C125.856 82.3694 125.764 82.1527 125.764 81.8967C125.764 81.6341 125.856 81.4142 126.04 81.237C126.23 81.0597 126.473 80.9711 126.769 80.9711C127.057 80.9711 127.294 81.0597 127.478 81.237C127.668 81.4142 127.763 81.6341 127.763 81.8967C127.763 82.1527 127.668 82.3694 127.478 82.5466C127.294 82.7173 127.057 82.8027 126.769 82.8027ZM128.592 79.0312C128.592 77.9021 128.809 77.0125 129.242 76.3626C129.682 75.7127 130.388 75.3877 131.36 75.3877C132.331 75.3877 133.034 75.7127 133.467 76.3626C133.907 77.0125 134.127 77.9021 134.127 79.0312C134.127 80.1735 133.907 81.0696 133.467 81.7195C133.034 82.3694 132.331 82.6943 131.36 82.6943C130.388 82.6943 129.682 82.3694 129.242 81.7195C128.809 81.0696 128.592 80.1735 128.592 79.0312ZM132.472 79.0312C132.472 78.3682 132.4 77.8594 132.256 77.5049C132.111 77.1438 131.813 76.9633 131.36 76.9633C130.907 76.9633 130.608 77.1438 130.463 77.5049C130.319 77.8594 130.247 78.3682 130.247 79.0312C130.247 79.4776 130.273 79.8485 130.326 80.1439C130.378 80.4328 130.483 80.6691 130.641 80.8529C130.805 81.0302 131.044 81.1188 131.36 81.1188C131.675 81.1188 131.911 81.0302 132.069 80.8529C132.233 80.6691 132.341 80.4328 132.393 80.1439C132.446 79.8485 132.472 79.4776 132.472 79.0312ZM134.839 77.1011V75.5355H137.567V82.7239H135.814V77.1011H134.839Z" fill="white"/>
<path d="M100.937 58.7954C100.937 58.0426 101.06 57.4562 101.305 57.036C101.55 56.6115 101.979 56.3992 102.592 56.3992C103.2 56.3992 103.627 56.6115 103.872 57.036C104.117 57.4562 104.239 58.0426 104.239 58.7954C104.239 59.5613 104.117 60.1565 103.872 60.581C103.627 61.0055 103.2 61.2178 102.592 61.2178C101.979 61.2178 101.55 61.0055 101.305 60.581C101.06 60.1565 100.937 59.5613 100.937 58.7954ZM103.649 58.7954C103.649 58.4146 103.622 58.0929 103.57 57.8304C103.522 57.5634 103.419 57.3489 103.261 57.187C103.108 57.0251 102.885 56.9441 102.592 56.9441C102.294 56.9441 102.066 57.0251 101.909 57.187C101.756 57.3489 101.653 57.5634 101.6 57.8304C101.552 58.0929 101.528 58.4146 101.528 58.7954C101.528 59.1893 101.552 59.5197 101.6 59.7867C101.653 60.0536 101.756 60.2681 101.909 60.43C102.066 60.5919 102.294 60.6729 102.592 60.6729C102.885 60.6729 103.108 60.5919 103.261 60.43C103.419 60.2681 103.522 60.0536 103.57 59.7867C103.622 59.5197 103.649 59.1893 103.649 58.7954ZM105.348 61.2572C105.235 61.2572 105.138 61.2178 105.059 61.139C104.981 61.0602 104.941 60.9639 104.941 60.8501C104.941 60.7364 104.981 60.6401 105.059 60.5613C105.138 60.4825 105.235 60.4431 105.348 60.4431C105.458 60.4431 105.55 60.4825 105.624 60.5613C105.703 60.6401 105.742 60.7364 105.742 60.8501C105.742 60.9639 105.703 61.0602 105.624 61.139C105.55 61.2178 105.458 61.2572 105.348 61.2572ZM106.28 57.0163V56.4714H107.514V61.2178H106.91V57.0163H106.28ZM108.468 60.7385C109.024 60.2921 109.46 59.9267 109.775 59.6422C110.09 59.3534 110.355 59.0536 110.569 58.7429C110.788 58.4277 110.897 58.1192 110.897 57.8172C110.897 57.5327 110.827 57.3095 110.687 57.1476C110.552 56.9813 110.331 56.8982 110.024 56.8982C109.727 56.8982 109.495 56.9922 109.328 57.1804C109.166 57.3643 109.079 57.6115 109.066 57.9223H108.488C108.506 57.4321 108.654 57.0535 108.934 56.7866C109.215 56.5196 109.576 56.3861 110.018 56.3861C110.468 56.3861 110.825 56.5108 111.088 56.7603C111.355 57.0098 111.488 57.3533 111.488 57.791C111.488 58.1542 111.379 58.5087 111.16 58.8545C110.946 59.1958 110.7 59.4978 110.425 59.7604C110.149 60.0186 109.797 60.3206 109.368 60.6663H111.626V61.1653H108.468V60.7385ZM112.317 58.7954C112.317 58.0426 112.439 57.4562 112.684 57.036C112.929 56.6115 113.358 56.3992 113.971 56.3992C114.579 56.3992 115.006 56.6115 115.251 57.036C115.496 57.4562 115.619 58.0426 115.619 58.7954C115.619 59.5613 115.496 60.1565 115.251 60.581C115.006 61.0055 114.579 61.2178 113.971 61.2178C113.358 61.2178 112.929 61.0055 112.684 60.581C112.439 60.1565 112.317 59.5613 112.317 58.7954ZM115.028 58.7954C115.028 58.4146 115.002 58.0929 114.949 57.8304C114.901 57.5634 114.798 57.3489 114.641 57.187C114.487 57.0251 114.264 56.9441 113.971 56.9441C113.673 56.9441 113.446 57.0251 113.288 57.187C113.135 57.3489 113.032 57.5634 112.98 57.8304C112.932 58.0929 112.907 58.4146 112.907 58.7954C112.907 59.1893 112.932 59.5197 112.98 59.7867C113.032 60.0536 113.135 60.2681 113.288 60.43C113.446 60.5919 113.673 60.6729 113.971 60.6729C114.264 60.6729 114.487 60.5919 114.641 60.43C114.798 60.2681 114.901 60.0536 114.949 59.7867C115.002 59.5197 115.028 59.1893 115.028 58.7954ZM116.439 58.7954C116.439 58.0426 116.561 57.4562 116.806 57.036C117.052 56.6115 117.48 56.3992 118.093 56.3992C118.702 56.3992 119.128 56.6115 119.373 57.036C119.618 57.4562 119.741 58.0426 119.741 58.7954C119.741 59.5613 119.618 60.1565 119.373 60.581C119.128 61.0055 118.702 61.2178 118.093 61.2178C117.48 61.2178 117.052 61.0055 116.806 60.581C116.561 60.1565 116.439 59.5613 116.439 58.7954ZM119.15 58.7954C119.15 58.4146 119.124 58.0929 119.071 57.8304C119.023 57.5634 118.92 57.3489 118.763 57.187C118.61 57.0251 118.386 56.9441 118.093 56.9441C117.796 56.9441 117.568 57.0251 117.41 57.187C117.257 57.3489 117.154 57.5634 117.102 57.8304C117.054 58.0929 117.03 58.4146 117.03 58.7954C117.03 59.1893 117.054 59.5197 117.102 59.7867C117.154 60.0536 117.257 60.2681 117.41 60.43C117.568 60.5919 117.796 60.6729 118.093 60.6729C118.386 60.6729 118.61 60.5919 118.763 60.43C118.92 60.2681 119.023 60.0536 119.071 59.7867C119.124 59.5197 119.15 59.1893 119.15 58.7954ZM120.561 58.7954C120.561 58.0426 120.684 57.4562 120.929 57.036C121.174 56.6115 121.603 56.3992 122.215 56.3992C122.824 56.3992 123.25 56.6115 123.496 57.036C123.741 57.4562 123.863 58.0426 123.863 58.7954C123.863 59.5613 123.741 60.1565 123.496 60.581C123.25 61.0055 122.824 61.2178 122.215 61.2178C121.603 61.2178 121.174 61.0055 120.929 60.581C120.684 60.1565 120.561 59.5613 120.561 58.7954ZM123.272 58.7954C123.272 58.4146 123.246 58.0929 123.194 57.8304C123.145 57.5634 123.043 57.3489 122.885 57.187C122.732 57.0251 122.509 56.9441 122.215 56.9441C121.918 56.9441 121.69 57.0251 121.533 57.187C121.379 57.3489 121.277 57.5634 121.224 57.8304C121.176 58.0929 121.152 58.4146 121.152 58.7954C121.152 59.1893 121.176 59.5197 121.224 59.7867C121.277 60.0536 121.379 60.2681 121.533 60.43C121.69 60.5919 121.918 60.6729 122.215 60.6729C122.509 60.6729 122.732 60.5919 122.885 60.43C123.043 60.2681 123.145 60.0536 123.194 59.7867C123.246 59.5197 123.272 59.1893 123.272 58.7954ZM128.823 58.861C128.989 58.8873 129.14 58.9551 129.276 59.0645C129.416 59.1739 129.525 59.3096 129.604 59.4715C129.687 59.6335 129.729 59.8063 129.729 59.9902C129.729 60.2221 129.67 60.4322 129.552 60.6204C129.434 60.8042 129.261 60.9508 129.033 61.0602C128.81 61.1653 128.545 61.2178 128.239 61.2178H126.532V56.6421H128.173C128.484 56.6421 128.749 56.6946 128.967 56.7997C129.186 56.9003 129.35 57.0382 129.46 57.2133C129.569 57.3883 129.624 57.5853 129.624 57.8041C129.624 58.0754 129.55 58.3008 129.401 58.4803C129.256 58.6553 129.064 58.7822 128.823 58.861ZM127.129 58.6181H128.134C128.414 58.6181 128.63 58.5525 128.784 58.4212C128.937 58.2899 129.013 58.1083 129.013 57.8763C129.013 57.6443 128.937 57.4627 128.784 57.3314C128.63 57.2001 128.409 57.1345 128.121 57.1345H127.129V58.6181ZM128.186 60.7254C128.484 60.7254 128.716 60.6554 128.882 60.5153C129.048 60.3753 129.132 60.1805 129.132 59.9311C129.132 59.6772 129.044 59.4781 128.869 59.3337C128.694 59.1849 128.46 59.1105 128.167 59.1105H127.129V60.7254H128.186ZM133.374 56.6421V57.1279H132.127V61.2178H131.53V57.1279H130.276V56.6421H133.374ZM133.886 58.9267C133.886 58.4803 133.987 58.0798 134.188 57.7253C134.39 57.3664 134.663 57.0863 135.009 56.885C135.359 56.6837 135.746 56.583 136.171 56.583C136.67 56.583 137.105 56.7034 137.477 56.9441C137.849 57.1848 138.121 57.5262 138.291 57.9682H137.576C137.449 57.6925 137.265 57.4802 137.024 57.3314C136.788 57.1826 136.504 57.1082 136.171 57.1082C135.851 57.1082 135.565 57.1826 135.311 57.3314C135.057 57.4802 134.858 57.6925 134.714 57.9682C134.569 58.2396 134.497 58.559 134.497 58.9267C134.497 59.2899 134.569 59.6094 134.714 59.8851C134.858 60.1565 135.057 60.3665 135.311 60.5153C135.565 60.6641 135.851 60.7385 136.171 60.7385C136.504 60.7385 136.788 60.6663 137.024 60.5219C137.265 60.3731 137.449 60.1608 137.576 59.8851H138.291C138.121 60.3228 137.849 60.662 137.477 60.9027C137.105 61.139 136.67 61.2572 136.171 61.2572C135.746 61.2572 135.359 61.1587 135.009 60.9617C134.663 60.7604 134.39 60.4825 134.188 60.128C133.987 59.7735 133.886 59.3731 133.886 58.9267Z" fill="white"/>
<path d="M19.8104 57.2608V62.2178H19.1632V57.2608H19.8104ZM24.7438 58.2494C25.0378 58.2494 25.3033 58.3134 25.5404 58.4414C25.7774 58.5647 25.9623 58.7519 26.0951 59.0032C26.2326 59.2545 26.3013 59.5603 26.3013 59.9207V62.2178H25.6613V60.0131C25.6613 59.6243 25.5641 59.328 25.3697 59.1241C25.1753 58.9155 24.9098 58.8112 24.5732 58.8112C24.2318 58.8112 23.9592 58.9179 23.7553 59.1312C23.5562 59.3446 23.4566 59.6551 23.4566 60.0629V62.2178H22.8094V56.955H23.4566V58.8752C23.5846 58.6761 23.76 58.522 23.9829 58.4129C24.2104 58.3039 24.4641 58.2494 24.7438 58.2494ZM27.1167 60.2549C27.1167 59.8566 27.1973 59.5082 27.3585 59.2095C27.5197 58.906 27.7402 58.6713 28.0199 58.5054C28.3044 58.3395 28.6197 58.2565 28.9658 58.2565C29.3071 58.2565 29.6035 58.33 29.8547 58.4769C30.106 58.6239 30.2933 58.8088 30.4166 59.0317V58.3205H31.0709V62.2178H30.4166V61.4924C30.2886 61.7199 30.0965 61.9096 29.8405 62.0613C29.5892 62.2083 29.2953 62.2818 28.9587 62.2818C28.6125 62.2818 28.2996 62.1964 28.0199 62.0258C27.7402 61.8551 27.5197 61.6156 27.3585 61.3075C27.1973 60.9993 27.1167 60.6484 27.1167 60.2549ZM30.4166 60.262C30.4166 59.9681 30.3573 59.712 30.2388 59.4939C30.1203 59.2758 29.9591 59.1099 29.7552 58.9961C29.556 58.8776 29.3356 58.8183 29.0938 58.8183C28.852 58.8183 28.6315 58.8752 28.4324 58.989C28.2332 59.1028 28.0744 59.2687 27.9559 59.4868C27.8374 59.7049 27.7781 59.961 27.7781 60.2549C27.7781 60.5536 27.8374 60.8144 27.9559 61.0372C28.0744 61.2553 28.2332 61.4236 28.4324 61.5421C28.6315 61.6559 28.852 61.7128 29.0938 61.7128C29.3356 61.7128 29.556 61.6559 29.7552 61.5421C29.9591 61.4236 30.1203 61.2553 30.2388 61.0372C30.3573 60.8144 30.4166 60.556 30.4166 60.262ZM33.6154 61.6204L34.8244 58.3205H35.5142L33.9852 62.2178H33.2313L31.7023 58.3205H32.3992L33.6154 61.6204ZM39.707 60.1198C39.707 60.2431 39.6999 60.3734 39.6856 60.5109H36.5707C36.5944 60.895 36.7247 61.196 36.9618 61.4141C37.2036 61.6275 37.4952 61.7342 37.8366 61.7342C38.1163 61.7342 38.3486 61.6702 38.5335 61.5421C38.7232 61.4094 38.8559 61.234 38.9318 61.0159H39.6287C39.5244 61.3904 39.3158 61.6962 39.0029 61.9333C38.69 62.1656 38.3012 62.2818 37.8366 62.2818C37.4667 62.2818 37.1349 62.1988 36.8409 62.0329C36.5517 61.8669 36.3241 61.6322 36.1582 61.3288C35.9922 61.0206 35.9093 60.665 35.9093 60.262C35.9093 59.859 35.9899 59.5058 36.1511 59.2024C36.3123 58.8989 36.5375 58.6666 36.8267 58.5054C37.1206 58.3395 37.4573 58.2565 37.8366 58.2565C38.2064 58.2565 38.5335 58.3371 38.818 58.4983C39.1025 58.6595 39.3206 58.8823 39.4723 59.1668C39.6287 59.4465 39.707 59.7642 39.707 60.1198ZM39.0385 59.9847C39.0385 59.7381 38.9839 59.5271 38.8749 59.3517C38.7658 59.1715 38.6165 59.0364 38.4268 58.9463C38.2419 58.8515 38.0357 58.8041 37.8081 58.8041C37.481 58.8041 37.2012 58.9084 36.9689 59.117C36.7413 59.3256 36.611 59.6148 36.5778 59.9847H39.0385ZM42.6635 62.2604C42.5402 62.2604 42.4359 62.2178 42.3506 62.1324C42.2652 62.0471 42.2226 61.9428 42.2226 61.8195C42.2226 61.6962 42.2652 61.5919 42.3506 61.5066C42.4359 61.4212 42.5402 61.3786 42.6635 61.3786C42.782 61.3786 42.8816 61.4212 42.9622 61.5066C43.0475 61.5919 43.0902 61.6962 43.0902 61.8195C43.0902 61.9428 43.0475 62.0471 42.9622 62.1324C42.8816 62.2178 42.782 62.2604 42.6635 62.2604ZM42.6635 59.2166C42.5402 59.2166 42.4359 59.1739 42.3506 59.0886C42.2652 59.0032 42.2226 58.8989 42.2226 58.7756C42.2226 58.6524 42.2652 58.5481 42.3506 58.4627C42.4359 58.3774 42.5402 58.3347 42.6635 58.3347C42.782 58.3347 42.8816 58.3774 42.9622 58.4627C43.0475 58.5481 43.0902 58.6524 43.0902 58.7756C43.0902 58.8989 43.0475 59.0032 42.9622 59.0886C42.8816 59.1739 42.782 59.2166 42.6635 59.2166Z" fill="#A4A8AB"/>
<path d="M67.8234 81.0239C67.8985 81.0239 67.9729 81.0092 68.0422 80.9804C68.1116 80.9517 68.1746 80.9096 68.2277 80.8565L70.3613 78.723C70.4684 78.6158 70.5286 78.4705 70.5286 78.319C70.5286 78.1674 70.4684 78.0221 70.3613 77.915C70.2541 77.8078 70.1088 77.7476 69.9573 77.7476C69.8057 77.7476 69.6604 77.8078 69.5533 77.915L67.8224 79.2279L66.0914 77.915C65.9843 77.8078 65.839 77.7476 65.6874 77.7476C65.5359 77.7476 65.3906 77.8078 65.2834 77.915C65.1763 78.0221 65.1161 78.1674 65.1161 78.319C65.1161 78.4705 65.1763 78.6158 65.2834 78.723L67.417 80.8565C67.4703 80.9099 67.5337 80.9522 67.6035 80.9809C67.6732 81.0096 67.748 81.0242 67.8234 81.0239Z" fill="#E0E4F5"/>
<path d="M27.3686 88.1357C32.2028 88.1357 36.1217 84.2168 36.1217 79.3827C36.1217 74.5485 32.2028 70.6296 27.3686 70.6296C22.5345 70.6296 18.6156 74.5485 18.6156 79.3827C18.6156 84.2168 22.5345 88.1357 27.3686 88.1357Z" fill="#F7931A"/>
<path d="M31.3015 78.2996C31.4733 77.1507 30.5997 76.5364 29.406 76.125L29.7933 74.5713L28.8458 74.3361L28.4683 75.8487C28.2199 75.7864 27.965 75.7284 27.7106 75.6704L28.0908 74.1479L27.1499 73.9121L26.7625 75.4652C26.5569 75.4182 26.3544 75.3722 26.1608 75.323V75.3181L24.8566 74.9898L24.6049 75.9997C24.6049 75.9997 25.3068 76.1605 25.292 76.1704C25.4225 76.1874 25.5412 76.2548 25.6225 76.3581C25.7039 76.4615 25.7416 76.5927 25.7275 76.7235L25.2899 78.4932C25.3233 78.5016 25.3562 78.512 25.3883 78.5244L25.2882 78.4998L24.67 80.9791C24.6563 81.0223 24.6343 81.0625 24.605 81.0972C24.5758 81.1319 24.54 81.1605 24.4997 81.1813C24.4594 81.2022 24.4154 81.2148 24.3702 81.2186C24.3249 81.2224 24.2794 81.2172 24.2362 81.2034C24.2461 81.2171 23.5491 81.0322 23.5491 81.0322L23.0797 82.1142L24.3106 82.4211C24.5393 82.4759 24.7636 82.5388 24.984 82.5951L24.5929 84.1663L25.5377 84.4015L25.925 82.8479C26.1832 82.9173 26.4338 82.9819 26.6788 83.0432L26.2926 84.5903L27.2379 84.8255L27.6291 83.2576C29.2418 83.5629 30.4541 83.4398 30.9662 81.9813C31.3776 80.8073 30.946 80.1295 30.0975 79.688C30.4238 79.6224 30.7192 79.4506 30.9376 79.1994C31.156 78.9482 31.2851 78.6318 31.3048 78.2996H31.3015ZM29.1406 81.3292C28.8491 82.5038 26.8714 81.8686 26.2303 81.7094L26.75 79.6278C27.3911 79.7881 29.4475 80.1049 29.1406 81.3292ZM29.4333 78.2826C29.1669 79.351 27.5213 78.8078 26.9879 78.6749L27.4584 76.7875C27.9918 76.9204 29.7112 77.1704 29.4333 78.2826Z" fill="white"/>
<rect x="7.67432" y="105.095" width="141.143" height="55.2535" rx="10.9413" fill="#161E27"/>
<path d="M118.566 141.986C118.566 142.347 118.47 142.682 118.28 142.991C118.096 143.293 117.821 143.542 117.453 143.739C117.092 143.929 116.662 144.034 116.163 144.054V144.852H115.533V144.044C114.837 143.985 114.276 143.778 113.849 143.424C113.422 143.063 113.196 142.574 113.169 141.957H114.962C115.001 142.351 115.191 142.603 115.533 142.715V141.159C115.021 141.028 114.61 140.9 114.302 140.775C114 140.65 113.734 140.45 113.504 140.174C113.274 139.899 113.16 139.521 113.16 139.042C113.16 138.444 113.379 137.965 113.819 137.604C114.266 137.243 114.837 137.04 115.533 136.994V136.196H116.163V136.994C116.852 137.046 117.397 137.246 117.798 137.594C118.198 137.942 118.421 138.425 118.467 139.042H116.665C116.626 138.687 116.458 138.458 116.163 138.353V139.879C116.708 140.03 117.128 140.164 117.423 140.283C117.719 140.401 117.981 140.598 118.211 140.873C118.447 141.143 118.566 141.514 118.566 141.986ZM114.942 138.963C114.942 139.127 114.991 139.265 115.09 139.377C115.195 139.488 115.342 139.587 115.533 139.672V138.303C115.349 138.336 115.204 138.408 115.099 138.52C114.994 138.625 114.942 138.773 114.942 138.963ZM116.163 142.744C116.36 142.712 116.514 142.633 116.626 142.508C116.744 142.383 116.803 142.229 116.803 142.045C116.803 141.875 116.747 141.737 116.636 141.632C116.531 141.52 116.373 141.425 116.163 141.346V142.744ZM119.69 142.715V141.356L122.802 136.905H124.683V141.257H125.49V142.715H124.683V143.995H122.999V142.715H119.69ZM123.117 138.756L121.463 141.257H123.117V138.756ZM126.315 140.302C126.315 139.173 126.532 138.284 126.965 137.634C127.405 136.984 128.11 136.659 129.082 136.659C130.054 136.659 130.756 136.984 131.189 137.634C131.629 138.284 131.849 139.173 131.849 140.302C131.849 141.445 131.629 142.341 131.189 142.991C130.756 143.64 130.054 143.965 129.082 143.965C128.11 143.965 127.405 143.64 126.965 142.991C126.532 142.341 126.315 141.445 126.315 140.302ZM130.195 140.302C130.195 139.639 130.123 139.13 129.978 138.776C129.834 138.415 129.535 138.234 129.082 138.234C128.629 138.234 128.33 138.415 128.186 138.776C128.041 139.13 127.969 139.639 127.969 140.302C127.969 140.749 127.996 141.12 128.048 141.415C128.101 141.704 128.206 141.94 128.363 142.124C128.527 142.301 128.767 142.39 129.082 142.39C129.397 142.39 129.633 142.301 129.791 142.124C129.955 141.94 130.063 141.704 130.116 141.415C130.168 141.12 130.195 140.749 130.195 140.302ZM132.798 138.835C132.824 138.133 133.054 137.591 133.487 137.21C133.92 136.83 134.508 136.639 135.25 136.639C135.742 136.639 136.162 136.725 136.51 136.895C136.865 137.066 137.13 137.299 137.308 137.594C137.492 137.89 137.583 138.221 137.583 138.589C137.583 139.022 137.475 139.377 137.259 139.652C137.042 139.922 136.789 140.105 136.5 140.204V140.243C136.874 140.368 137.17 140.575 137.387 140.864C137.603 141.152 137.711 141.523 137.711 141.976C137.711 142.383 137.616 142.744 137.426 143.06C137.242 143.368 136.97 143.611 136.609 143.788C136.254 143.965 135.831 144.054 135.338 144.054C134.551 144.054 133.92 143.86 133.448 143.473C132.982 143.086 132.735 142.502 132.709 141.72H134.344C134.35 142.009 134.432 142.239 134.59 142.41C134.747 142.574 134.977 142.656 135.279 142.656C135.535 142.656 135.732 142.584 135.87 142.439C136.014 142.288 136.087 142.091 136.087 141.848C136.087 141.533 135.985 141.307 135.781 141.169C135.584 141.024 135.266 140.952 134.826 140.952H134.511V139.583H134.826C135.161 139.583 135.43 139.528 135.634 139.416C135.844 139.298 135.949 139.091 135.949 138.796C135.949 138.559 135.883 138.376 135.752 138.244C135.621 138.113 135.44 138.047 135.21 138.047C134.961 138.047 134.774 138.123 134.649 138.274C134.531 138.425 134.462 138.612 134.442 138.835H132.798Z" fill="white"/>
<path d="M43.6055 137.944V141.621C43.6055 141.988 43.6959 142.271 43.8768 142.47C44.0577 142.668 44.3232 142.767 44.6734 142.767C45.0235 142.767 45.2919 142.668 45.4786 142.47C45.6654 142.271 45.7587 141.988 45.7587 141.621V137.944H47.2555V141.612C47.2555 142.161 47.1388 142.624 46.9054 143.004C46.672 143.383 46.3569 143.669 45.96 143.862C45.5691 144.054 45.1314 144.15 44.6471 144.15C44.1628 144.15 43.728 144.057 43.3429 143.87C42.9636 143.678 42.6631 143.392 42.4413 143.012C42.2196 142.627 42.1087 142.161 42.1087 141.612V137.944H43.6055ZM50.5298 144.15C50.0805 144.15 49.6779 144.077 49.3219 143.932C48.9659 143.786 48.68 143.57 48.4641 143.284C48.254 142.998 48.1432 142.654 48.1315 142.251H49.7245C49.7479 142.479 49.8267 142.654 49.9609 142.776C50.0951 142.893 50.2701 142.951 50.486 142.951C50.7078 142.951 50.8829 142.902 51.0112 142.802C51.1396 142.697 51.2038 142.554 51.2038 142.374C51.2038 142.222 51.1513 142.096 51.0462 141.997C50.947 141.898 50.8216 141.816 50.6699 141.752C50.524 141.688 50.3139 141.615 50.0396 141.533C49.6428 141.411 49.319 141.288 49.0681 141.166C48.8171 141.043 48.6012 140.862 48.4203 140.623C48.2394 140.384 48.149 140.071 48.149 139.686C48.149 139.114 48.3561 138.668 48.7705 138.347C49.1848 138.02 49.7245 137.857 50.3898 137.857C51.0667 137.857 51.6123 138.02 52.0266 138.347C52.4409 138.668 52.6626 139.117 52.6918 139.695H51.0725C51.0608 139.497 50.9879 139.342 50.8537 139.231C50.7195 139.114 50.5473 139.056 50.3372 139.056C50.1563 139.056 50.0105 139.106 49.8996 139.205C49.7887 139.298 49.7333 139.435 49.7333 139.616C49.7333 139.815 49.8267 139.969 50.0134 140.08C50.2001 140.191 50.4919 140.311 50.8887 140.439C51.2855 140.573 51.6064 140.702 51.8515 140.824C52.1024 140.947 52.3183 141.125 52.4992 141.358C52.6801 141.592 52.7706 141.892 52.7706 142.26C52.7706 142.61 52.6801 142.928 52.4992 143.214C52.3242 143.5 52.0674 143.727 51.729 143.897C51.3905 144.066 50.9908 144.15 50.5298 144.15ZM55.9938 137.944C56.6415 137.944 57.2075 138.073 57.6918 138.33C58.1762 138.586 58.5496 138.948 58.8122 139.415C59.0807 139.876 59.2149 140.41 59.2149 141.017C59.2149 141.618 59.0807 142.152 58.8122 142.619C58.5496 143.085 58.1733 143.447 57.6831 143.704C57.1988 143.961 56.6356 144.089 55.9938 144.089H53.6917V137.944H55.9938ZM55.8975 142.794C56.4635 142.794 56.9041 142.639 57.2192 142.33C57.5343 142.02 57.6918 141.583 57.6918 141.017C57.6918 140.451 57.5343 140.01 57.2192 139.695C56.9041 139.38 56.4635 139.222 55.8975 139.222H55.1885V142.794H55.8975ZM64.4716 137.944V139.144H62.8435V144.089H61.3468V139.144H59.7187V137.944H64.4716Z" fill="white"/>
<path d="M19.8104 118.532V123.489H19.1632V118.532H19.8104ZM28.0011 119.592L26.7849 123.489H26.1164L25.1777 120.395L24.2389 123.489H23.5704L22.3471 119.592H23.0085L23.9046 122.863L24.8718 119.592H25.5333L26.4791 122.87L27.361 119.592H28.0011ZM28.4015 121.526C28.4015 121.128 28.4821 120.779 28.6433 120.481C28.8045 120.177 29.025 119.943 29.3047 119.777C29.5892 119.611 29.9045 119.528 30.2506 119.528C30.592 119.528 30.8883 119.601 31.1396 119.748C31.3909 119.895 31.5782 120.08 31.7014 120.303V119.592H32.3557V123.489H31.7014V122.764C31.5734 122.991 31.3814 123.181 31.1254 123.333C30.8741 123.48 30.5801 123.553 30.2435 123.553C29.8974 123.553 29.5845 123.468 29.3047 123.297C29.025 123.126 28.8045 122.887 28.6433 122.579C28.4821 122.271 28.4015 121.92 28.4015 121.526ZM31.7014 121.533C31.7014 121.239 31.6422 120.983 31.5236 120.765C31.4051 120.547 31.2439 120.381 31.04 120.267C30.8409 120.149 30.6204 120.09 30.3786 120.09C30.1368 120.09 29.9164 120.146 29.7172 120.26C29.5181 120.374 29.3593 120.54 29.2407 120.758C29.1222 120.976 29.0629 121.232 29.0629 121.526C29.0629 121.825 29.1222 122.086 29.2407 122.308C29.3593 122.527 29.5181 122.695 29.7172 122.813C29.9164 122.927 30.1368 122.984 30.3786 122.984C30.6204 122.984 30.8409 122.927 31.04 122.813C31.2439 122.695 31.4051 122.527 31.5236 122.308C31.6422 122.086 31.7014 121.827 31.7014 121.533ZM35.3483 119.521C35.8224 119.521 36.2064 119.665 36.5004 119.954C36.7943 120.239 36.9413 120.651 36.9413 121.192V123.489H36.3012V121.284C36.3012 120.896 36.204 120.599 36.0097 120.395C35.8153 120.187 35.5498 120.082 35.2131 120.082C34.8718 120.082 34.5991 120.189 34.3953 120.402C34.1961 120.616 34.0966 120.926 34.0966 121.334V123.489H33.4494V119.592H34.0966V120.146C34.2246 119.947 34.3976 119.793 34.6157 119.684C34.8386 119.575 35.0827 119.521 35.3483 119.521ZM38.7879 120.125V122.422C38.7879 122.612 38.8282 122.747 38.9088 122.828C38.9894 122.903 39.1292 122.941 39.3284 122.941H39.8049V123.489H39.2217C38.8614 123.489 38.5911 123.406 38.411 123.24C38.2308 123.074 38.1407 122.802 38.1407 122.422V120.125H37.6358V119.592H38.1407V118.61H38.7879V119.592H39.8049V120.125H38.7879ZM42.6913 123.532C42.568 123.532 42.4637 123.489 42.3784 123.404C42.293 123.318 42.2503 123.214 42.2503 123.091C42.2503 122.967 42.293 122.863 42.3784 122.778C42.4637 122.692 42.568 122.65 42.6913 122.65C42.8098 122.65 42.9094 122.692 42.99 122.778C43.0753 122.863 43.118 122.967 43.118 123.091C43.118 123.214 43.0753 123.318 42.99 123.404C42.9094 123.489 42.8098 123.532 42.6913 123.532ZM42.6913 120.488C42.568 120.488 42.4637 120.445 42.3784 120.36C42.293 120.274 42.2503 120.17 42.2503 120.047C42.2503 119.924 42.293 119.819 42.3784 119.734C42.4637 119.649 42.568 119.606 42.6913 119.606C42.8098 119.606 42.9094 119.649 42.99 119.734C43.0753 119.819 43.118 119.924 43.118 120.047C43.118 120.17 43.0753 120.274 42.99 120.36C42.9094 120.445 42.8098 120.488 42.6913 120.488Z" fill="#A4A8AB"/>
<path d="M73.294 142.295C73.3691 142.295 73.4434 142.28 73.5128 142.252C73.5822 142.223 73.6452 142.181 73.6983 142.128L75.8319 139.994C75.939 139.887 75.9992 139.742 75.9992 139.59C75.9992 139.439 75.939 139.293 75.8319 139.186C75.7247 139.079 75.5794 139.019 75.4279 139.019C75.2763 139.019 75.131 139.079 75.0239 139.186L73.2929 140.499L71.562 139.186C71.4549 139.079 71.3096 139.019 71.158 139.019C71.0065 139.019 70.8612 139.079 70.754 139.186C70.6469 139.293 70.5867 139.439 70.5867 139.59C70.5867 139.742 70.6469 139.887 70.754 139.994L72.8876 142.128C72.9409 142.181 73.0043 142.223 73.0741 142.252C73.1438 142.281 73.2186 142.295 73.294 142.295Z" fill="#E0E4F5"/>
<path d="M27.3686 149.954C32.2028 149.954 36.1217 146.035 36.1217 141.201C36.1217 136.367 32.2028 132.448 27.3686 132.448C22.5345 132.448 18.6156 136.367 18.6156 141.201C18.6156 146.035 22.5345 149.954 27.3686 149.954Z" fill="#26A17B"/>
<path fill-rule="evenodd" clip-rule="evenodd" d="M28.4199 141.957C28.3598 141.962 28.0496 141.98 27.3575 141.98C26.805 141.98 26.416 141.964 26.2793 141.957C24.1523 141.864 22.5647 141.493 22.5647 141.05C22.5647 140.607 24.1512 140.237 26.2793 140.142V141.589C26.4182 141.599 26.8165 141.622 27.3668 141.622C28.0272 141.622 28.3581 141.595 28.4199 141.59V140.144C30.5426 140.238 32.1263 140.609 32.1263 141.051C32.1263 141.493 30.5398 141.863 28.4199 141.957ZM28.4199 139.993V138.699H31.3817V136.725H23.3202V138.699H26.282V139.993C23.8749 140.102 22.0647 140.58 22.0647 141.151C22.0647 141.723 23.8749 142.199 26.282 142.31V146.458H28.4227V142.309C30.8259 142.2 32.6318 141.722 32.6318 141.151C32.6318 140.581 30.8265 140.104 28.4227 139.993" fill="white"/>
<path d="M102.094 118.288V117.743H103.328V122.489H102.724V118.288H102.094ZM104.282 122.01C104.838 121.563 105.274 121.198 105.589 120.913C105.904 120.625 106.169 120.325 106.383 120.014C106.602 119.699 106.711 119.39 106.711 119.088C106.711 118.804 106.641 118.581 106.501 118.419C106.366 118.253 106.145 118.169 105.838 118.169C105.541 118.169 105.309 118.263 105.142 118.452C104.98 118.635 104.893 118.883 104.88 119.193H104.302C104.32 118.703 104.468 118.325 104.748 118.058C105.029 117.791 105.39 117.657 105.832 117.657C106.282 117.657 106.639 117.782 106.902 118.032C107.169 118.281 107.302 118.625 107.302 119.062C107.302 119.425 107.193 119.78 106.974 120.126C106.759 120.467 106.514 120.769 106.239 121.032C105.963 121.29 105.611 121.592 105.182 121.938H107.44V122.436H104.282V122.01ZM108.131 120.067C108.131 119.314 108.253 118.727 108.498 118.307C108.743 117.883 109.172 117.67 109.785 117.67C110.393 117.67 110.82 117.883 111.065 118.307C111.31 118.727 111.433 119.314 111.433 120.067C111.433 120.833 111.31 121.428 111.065 121.852C110.82 122.277 110.393 122.489 109.785 122.489C109.172 122.489 108.743 122.277 108.498 121.852C108.253 121.428 108.131 120.833 108.131 120.067ZM110.842 120.067C110.842 119.686 110.816 119.364 110.763 119.102C110.715 118.835 110.612 118.62 110.454 118.458C110.301 118.296 110.078 118.215 109.785 118.215C109.487 118.215 109.26 118.296 109.102 118.458C108.949 118.62 108.846 118.835 108.794 119.102C108.745 119.364 108.721 119.686 108.721 120.067C108.721 120.46 108.745 120.791 108.794 121.058C108.846 121.325 108.949 121.539 109.102 121.701C109.26 121.863 109.487 121.944 109.785 121.944C110.078 121.944 110.301 121.863 110.454 121.701C110.612 121.539 110.715 121.325 110.763 121.058C110.816 120.791 110.842 120.46 110.842 120.067ZM112.253 120.067C112.253 119.314 112.375 118.727 112.62 118.307C112.865 117.883 113.294 117.67 113.907 117.67C114.515 117.67 114.942 117.883 115.187 118.307C115.432 118.727 115.555 119.314 115.555 120.067C115.555 120.833 115.432 121.428 115.187 121.852C114.942 122.277 114.515 122.489 113.907 122.489C113.294 122.489 112.865 122.277 112.62 121.852C112.375 121.428 112.253 120.833 112.253 120.067ZM114.964 120.067C114.964 119.686 114.938 119.364 114.885 119.102C114.837 118.835 114.734 118.62 114.577 118.458C114.424 118.296 114.2 118.215 113.907 118.215C113.609 118.215 113.382 118.296 113.224 118.458C113.071 118.62 112.968 118.835 112.916 119.102C112.868 119.364 112.844 119.686 112.844 120.067C112.844 120.46 112.868 120.791 112.916 121.058C112.968 121.325 113.071 121.539 113.224 121.701C113.382 121.863 113.609 121.944 113.907 121.944C114.2 121.944 114.424 121.863 114.577 121.701C114.734 121.539 114.837 121.325 114.885 121.058C114.938 120.791 114.964 120.46 114.964 120.067ZM116.375 120.067C116.375 119.314 116.498 118.727 116.743 118.307C116.988 117.883 117.417 117.67 118.029 117.67C118.638 117.67 119.064 117.883 119.309 118.307C119.555 118.727 119.677 119.314 119.677 120.067C119.677 120.833 119.555 121.428 119.309 121.852C119.064 122.277 118.638 122.489 118.029 122.489C117.417 122.489 116.988 122.277 116.743 121.852C116.498 121.428 116.375 120.833 116.375 120.067ZM119.086 120.067C119.086 119.686 119.06 119.364 119.007 119.102C118.959 118.835 118.856 118.62 118.699 118.458C118.546 118.296 118.323 118.215 118.029 118.215C117.732 118.215 117.504 118.296 117.347 118.458C117.193 118.62 117.091 118.835 117.038 119.102C116.99 119.364 116.966 119.686 116.966 120.067C116.966 120.46 116.99 120.791 117.038 121.058C117.091 121.325 117.193 121.539 117.347 121.701C117.504 121.863 117.732 121.944 118.029 121.944C118.323 121.944 118.546 121.863 118.699 121.701C118.856 121.539 118.959 121.325 119.007 121.058C119.06 120.791 119.086 120.46 119.086 120.067ZM122.93 117.913V120.808C122.93 121.215 123.029 121.517 123.226 121.714C123.427 121.911 123.705 122.01 124.059 122.01C124.409 122.01 124.683 121.911 124.88 121.714C125.081 121.517 125.182 121.215 125.182 120.808V117.913H125.779V120.802C125.779 121.183 125.703 121.504 125.549 121.767C125.396 122.025 125.188 122.218 124.926 122.345C124.668 122.472 124.377 122.535 124.053 122.535C123.729 122.535 123.436 122.472 123.173 122.345C122.915 122.218 122.709 122.025 122.556 121.767C122.407 121.504 122.333 121.183 122.333 120.802V117.913H122.93ZM128.227 122.535C127.925 122.535 127.653 122.482 127.413 122.377C127.176 122.268 126.99 122.119 126.855 121.931C126.719 121.738 126.649 121.517 126.644 121.268H127.281C127.303 121.482 127.391 121.664 127.544 121.813C127.701 121.957 127.929 122.029 128.227 122.029C128.511 122.029 128.734 121.959 128.896 121.819C129.063 121.675 129.146 121.491 129.146 121.268C129.146 121.093 129.098 120.951 129.001 120.841C128.905 120.732 128.785 120.649 128.64 120.592C128.496 120.535 128.301 120.474 128.056 120.408C127.754 120.329 127.511 120.25 127.327 120.172C127.148 120.093 126.992 119.97 126.861 119.804C126.734 119.633 126.671 119.406 126.671 119.121C126.671 118.872 126.734 118.651 126.861 118.458C126.988 118.266 127.165 118.117 127.393 118.012C127.625 117.907 127.89 117.854 128.187 117.854C128.616 117.854 128.966 117.962 129.238 118.176C129.513 118.39 129.669 118.675 129.704 119.029H129.047C129.025 118.854 128.933 118.701 128.771 118.57C128.61 118.434 128.395 118.366 128.128 118.366C127.879 118.366 127.675 118.432 127.518 118.563C127.36 118.69 127.281 118.87 127.281 119.102C127.281 119.268 127.327 119.404 127.419 119.509C127.515 119.614 127.631 119.695 127.767 119.752C127.907 119.804 128.102 119.865 128.351 119.935C128.653 120.018 128.896 120.102 129.08 120.185C129.264 120.264 129.421 120.388 129.553 120.559C129.684 120.725 129.75 120.953 129.75 121.242C129.75 121.465 129.691 121.675 129.572 121.872C129.454 122.069 129.279 122.229 129.047 122.351C128.815 122.474 128.542 122.535 128.227 122.535ZM132.053 117.913C132.552 117.913 132.983 118.007 133.347 118.196C133.714 118.379 133.994 118.644 134.187 118.99C134.384 119.336 134.482 119.743 134.482 120.211C134.482 120.679 134.384 121.086 134.187 121.432C133.994 121.773 133.714 122.036 133.347 122.22C132.983 122.399 132.552 122.489 132.053 122.489H130.629V117.913H132.053ZM132.053 121.997C132.644 121.997 133.095 121.841 133.406 121.531C133.716 121.215 133.872 120.776 133.872 120.211C133.872 119.642 133.714 119.198 133.399 118.878C133.088 118.559 132.64 118.399 132.053 118.399H131.226V121.997H132.053ZM138.087 117.913V118.399H136.839V122.489H136.242V118.399H134.988V117.913H138.087Z" fill="white"/>
<path d="M87.5456 102.907C87.5456 97.7702 83.3818 93.6064 78.2455 93.6064C73.1092 93.6064 68.9454 97.7702 68.9454 102.907C68.9454 108.043 73.1092 112.207 78.2455 112.207C83.3818 112.207 87.5456 108.043 87.5456 102.907Z" fill="#2873FF"/>
<path d="M91.3752 102.907C91.3752 95.6553 85.4969 89.777 78.2456 89.777C70.9944 89.777 65.1161 95.6553 65.1161 102.907C65.1161 110.158 70.9944 116.036 78.2456 116.036C85.4969 116.036 91.3752 110.158 91.3752 102.907Z" stroke="#161D26" stroke-width="7.6589"/>
<path d="M75.5103 103.454H80.4338V104.548H78.2456V106.189L75.5103 103.454ZM78.2456 101.265V99.6241L80.9809 102.359H76.0573V101.265H78.2456Z" fill="white"/>
<rect x="8" y="173" width="141.143" height="32.8239" rx="10.9413" fill="#2873FF"/>
<rect x="123.431" y="179.565" width="19.1473" height="19.1473" rx="6.56477" fill="white" fill-opacity="0.2"/>
<g clip-path="url(#clip2_3194_55853)">
<path d="M129.602 189.762L134.884 189.762L132.821 191.808C132.705 191.927 132.64 192.087 132.64 192.253C132.64 192.419 132.705 192.579 132.821 192.698C132.939 192.814 133.097 192.879 133.262 192.879C133.427 192.879 133.586 192.814 133.703 192.698L136.839 189.579C136.951 189.46 137.013 189.303 137.013 189.139C137.013 188.975 136.951 188.817 136.839 188.698L133.703 185.58C133.586 185.464 133.427 185.399 133.262 185.399C133.097 185.399 132.939 185.464 132.821 185.58C132.708 185.698 132.643 185.854 132.638 186.018C132.64 186.183 132.705 186.341 132.821 186.458L134.884 188.513L129.602 188.513C129.44 188.517 129.286 188.585 129.173 188.702C129.06 188.818 128.996 188.974 128.996 189.137C128.996 189.299 129.06 189.455 129.173 189.571C129.286 189.688 129.44 189.756 129.602 189.761L129.602 189.762Z" fill="white"/>
</g>
<path d="M58.7461 187.547V189.586H60.9694V190.243H58.7461V192.344H61.232V193H57.9496V186.89H61.232V187.547H58.7461ZM64.9406 193L63.8027 191.214L62.7086 193H61.877L63.4263 190.619L61.877 188.203H62.7786L63.9165 189.98L65.0019 188.203H65.8334L64.2929 190.575L65.8422 193H64.9406ZM66.3281 190.593C66.3281 190.097 66.4273 189.665 66.6257 189.297C66.8241 188.924 67.0984 188.635 67.4485 188.431C67.8044 188.227 68.21 188.125 68.6652 188.125C69.2545 188.125 69.7389 188.268 70.1182 188.553C70.5033 188.839 70.7571 189.236 70.8797 189.744H70.0219C69.9402 189.452 69.7797 189.222 69.5405 189.052C69.307 188.883 69.0153 188.799 68.6652 188.799C68.21 188.799 67.8424 188.956 67.5623 189.271C67.2822 189.58 67.1421 190.021 67.1421 190.593C67.1421 191.171 67.2822 191.617 67.5623 191.932C67.8424 192.247 68.21 192.405 68.6652 192.405C69.0153 192.405 69.307 192.323 69.5405 192.16C69.7739 191.996 69.9343 191.763 70.0219 191.459H70.8797C70.7513 191.95 70.4945 192.344 70.1094 192.641C69.7243 192.933 69.2429 193.079 68.6652 193.079C68.21 193.079 67.8044 192.977 67.4485 192.772C67.0984 192.568 66.8241 192.279 66.6257 191.906C66.4273 191.532 66.3281 191.095 66.3281 190.593ZM74.3233 188.116C74.6851 188.116 75.0119 188.195 75.3036 188.352C75.5954 188.504 75.823 188.734 75.9864 189.044C76.1556 189.353 76.2402 189.729 76.2402 190.173V193H75.4524V190.287C75.4524 189.808 75.3328 189.443 75.0936 189.192C74.8543 188.936 74.5275 188.807 74.1132 188.807C73.6931 188.807 73.3576 188.939 73.1066 189.201C72.8615 189.464 72.739 189.846 72.739 190.348V193H71.9425V186.523H72.739V188.886C72.8966 188.641 73.1125 188.451 73.3867 188.317C73.6668 188.183 73.979 188.116 74.3233 188.116ZM77.2437 190.584C77.2437 190.094 77.3429 189.665 77.5413 189.297C77.7397 188.924 78.0111 188.635 78.3554 188.431C78.7055 188.227 79.0935 188.125 79.5195 188.125C79.9397 188.125 80.3044 188.215 80.6137 188.396C80.9229 188.577 81.1534 188.804 81.3051 189.079V188.203H82.1104V193H81.3051V192.107C81.1476 192.387 80.9113 192.621 80.5961 192.807C80.2869 192.988 79.9251 193.079 79.5108 193.079C79.0848 193.079 78.6997 192.974 78.3554 192.764C78.0111 192.554 77.7397 192.259 77.5413 191.88C77.3429 191.5 77.2437 191.068 77.2437 190.584ZM81.3051 190.593C81.3051 190.231 81.2322 189.916 81.0863 189.648C80.9404 189.379 80.742 189.175 80.4911 189.035C80.246 188.889 79.9747 188.816 79.6771 188.816C79.3795 188.816 79.1081 188.886 78.863 189.026C78.618 189.166 78.4225 189.37 78.2766 189.639C78.1307 189.907 78.0578 190.222 78.0578 190.584C78.0578 190.952 78.1307 191.273 78.2766 191.547C78.4225 191.815 78.618 192.023 78.863 192.168C79.1081 192.309 79.3795 192.379 79.6771 192.379C79.9747 192.379 80.246 192.309 80.4911 192.168C80.742 192.023 80.9404 191.815 81.0863 191.547C81.2322 191.273 81.3051 190.955 81.3051 190.593ZM85.7935 188.116C86.3771 188.116 86.8497 188.294 87.2115 188.65C87.5733 189 87.7542 189.508 87.7542 190.173V193H86.9664V190.287C86.9664 189.808 86.8468 189.443 86.6076 189.192C86.3683 188.936 86.0415 188.807 85.6272 188.807C85.2071 188.807 84.8715 188.939 84.6206 189.201C84.3755 189.464 84.253 189.846 84.253 190.348V193H83.4565V188.203H84.253V188.886C84.4106 188.641 84.6235 188.451 84.892 188.317C85.1662 188.183 85.4668 188.116 85.7935 188.116ZM91.0335 188.125C91.4478 188.125 91.8096 188.215 92.1189 188.396C92.434 188.577 92.6674 188.804 92.8191 189.079V188.203H93.6244V193.105C93.6244 193.543 93.531 193.931 93.3443 194.269C93.1576 194.613 92.8892 194.882 92.539 195.074C92.1948 195.267 91.7921 195.363 91.3311 195.363C90.7009 195.363 90.1757 195.215 89.7556 194.917C89.3354 194.619 89.0874 194.214 89.0116 193.7H89.7993C89.8869 193.992 90.0678 194.225 90.342 194.4C90.6163 194.581 90.946 194.672 91.3311 194.672C91.7688 194.672 92.1247 194.535 92.399 194.26C92.6791 193.986 92.8191 193.601 92.8191 193.105V192.098C92.6616 192.379 92.4282 192.612 92.1189 192.799C91.8096 192.985 91.4478 193.079 91.0335 193.079C90.6075 193.079 90.2195 192.974 89.8694 192.764C89.5251 192.554 89.2537 192.259 89.0553 191.88C88.8569 191.5 88.7577 191.068 88.7577 190.584C88.7577 190.094 88.8569 189.665 89.0553 189.297C89.2537 188.924 89.5251 188.635 89.8694 188.431C90.2195 188.227 90.6075 188.125 91.0335 188.125ZM92.8191 190.593C92.8191 190.231 92.7462 189.916 92.6003 189.648C92.4544 189.379 92.256 189.175 92.0051 189.035C91.76 188.889 91.4887 188.816 91.1911 188.816C90.8935 188.816 90.6221 188.886 90.377 189.026C90.132 189.166 89.9365 189.37 89.7906 189.639C89.6447 189.907 89.5718 190.222 89.5718 190.584C89.5718 190.952 89.6447 191.273 89.7906 191.547C89.9365 191.815 90.132 192.023 90.377 192.168C90.6221 192.309 90.8935 192.379 91.1911 192.379C91.4887 192.379 91.76 192.309 92.0051 192.168C92.256 192.023 92.4544 191.815 92.6003 191.547C92.7462 191.273 92.8191 190.955 92.8191 190.593ZM99.347 190.418C99.347 190.57 99.3382 190.73 99.3207 190.899H95.4869C95.5161 191.372 95.6765 191.742 95.9683 192.011C96.2659 192.273 96.6248 192.405 97.0449 192.405C97.3892 192.405 97.6751 192.326 97.9027 192.168C98.1361 192.005 98.2995 191.789 98.3929 191.521H99.2507C99.1223 191.982 98.8656 192.358 98.4804 192.65C98.0953 192.936 97.6168 193.079 97.0449 193.079C96.5898 193.079 96.1813 192.977 95.8195 192.772C95.4635 192.568 95.1835 192.279 94.9792 191.906C94.775 191.527 94.6729 191.089 94.6729 190.593C94.6729 190.097 94.7721 189.662 94.9705 189.289C95.1689 188.915 95.446 188.629 95.802 188.431C96.1638 188.227 96.5781 188.125 97.0449 188.125C97.5001 188.125 97.9027 188.224 98.2528 188.422C98.603 188.621 98.8714 188.895 99.0581 189.245C99.2507 189.589 99.347 189.98 99.347 190.418ZM98.5242 190.252C98.5242 189.948 98.4571 189.688 98.3229 189.473C98.1887 189.251 98.0048 189.084 97.7714 188.974C97.5439 188.857 97.29 188.799 97.0099 188.799C96.6073 188.799 96.263 188.927 95.9771 189.184C95.697 189.44 95.5365 189.796 95.4956 190.252H98.5242Z" fill="white"/>
<defs>
<clipPath id="clip0_3194_55853">
<rect width="13.1295" height="13.1295" fill="white" transform="translate(114.352 13.735)"/>
</clipPath>
<clipPath id="clip1_3194_55853">
<rect width="13.1295" height="13.1295" fill="white" transform="translate(134.046 13.735)"/>
</clipPath>
<clipPath id="clip2_3194_55853">
<rect width="8.03419" height="7.48056" fill="white" transform="matrix(1 1.74846e-07 1.74846e-07 -1 128.978 192.879)"/>
</clipPath>
</defs>
</svg>
