<svg width="408" height="500" viewBox="0 0 408 500" fill="none" xmlns="http://www.w3.org/2000/svg">
<g filter="url(#filter0_d_5100_41987)">
<g clip-path="url(#clip0_5100_41987)">
<rect x="25.1553" y="15.1318" width="357.689" height="449.448" rx="15" fill="#1B2537"/>
<mask id="path-3-inside-1_5100_41987" fill="white">
<path d="M25.1553 15.1318H382.845V92.2373H25.1553V15.1318Z"/>
</mask>
<path d="M382.845 91.7373H25.1553V92.7373H382.845V91.7373Z" fill="#64748B" mask="url(#path-3-inside-1_5100_41987)"/>
<rect x="48.084" y="42.2202" width="49.9288" height="22.9288" rx="6.87864" fill="#43CE43" fill-opacity="0.1"/>
<path d="M60.5113 59.1846V49.2793H64.4391C65.1086 49.2793 65.6566 49.4146 66.0831 49.6852C66.5141 49.9511 66.8328 50.2928 67.0392 50.7101C67.2501 51.1274 67.3556 51.5584 67.3556 52.0033C67.3556 52.549 67.2249 53.0121 66.9635 53.3928C66.7067 53.7734 66.3559 54.0302 65.9111 54.1632V53.8192C66.5347 53.9614 67.0071 54.2572 67.3281 54.7066C67.6537 55.156 67.8165 55.6673 67.8165 56.2405C67.8165 56.8275 67.7041 57.3411 67.4794 57.7813C67.2547 58.2216 66.92 58.5655 66.4751 58.8131C66.0349 59.0608 65.4892 59.1846 64.838 59.1846H60.5113ZM62.1897 57.6231H64.6317C64.9206 57.6231 65.1797 57.5658 65.4089 57.4512C65.6382 57.3319 65.8171 57.1668 65.9455 56.9559C66.0785 56.7404 66.145 56.4858 66.145 56.1924C66.145 55.9264 66.0876 55.6879 65.973 55.477C65.8583 55.266 65.691 55.0987 65.4709 54.9748C65.2507 54.8464 64.9871 54.7822 64.6798 54.7822H62.1897V57.6231ZM62.1897 53.2345H64.4184C64.6569 53.2345 64.8701 53.1887 65.0581 53.097C65.2461 53.0053 65.3952 52.87 65.5052 52.6911C65.6153 52.5123 65.6703 52.2922 65.6703 52.0308C65.6703 51.6868 65.5603 51.4002 65.3402 51.171C65.12 50.9417 64.8128 50.827 64.4184 50.827H62.1897V53.2345ZM73.1799 59.3909C72.3911 59.3909 71.6964 59.2304 71.0956 58.9094C70.4995 58.5884 70.0318 58.1367 69.6924 57.5543C69.3576 56.9719 69.1903 56.2887 69.1903 55.5045V49.2931L70.8687 49.2793V55.4632C70.8687 55.8347 70.9306 56.1671 71.0544 56.4606C71.1828 56.7541 71.3547 57.004 71.5703 57.2104C71.7858 57.4122 72.0334 57.5658 72.3132 57.6713C72.5929 57.7767 72.8818 57.8295 73.1799 57.8295C73.4871 57.8295 73.7783 57.7767 74.0535 57.6713C74.3332 57.5612 74.5808 57.4053 74.7964 57.2035C75.0119 56.9972 75.1816 56.7472 75.3054 56.4537C75.4292 56.1603 75.4911 55.8301 75.4911 55.4632V49.2793H77.1695V55.5045C77.1695 56.2887 76.9998 56.9719 76.6605 57.5543C76.3257 58.1367 75.858 58.5884 75.2572 58.9094C74.6611 59.2304 73.9686 59.3909 73.1799 59.3909ZM81.4993 59.1846V55.1262L78.1287 49.2793H80.0616L82.3385 53.2277L84.6084 49.2793H86.5413L83.1777 55.1262V59.1846H81.4993Z" fill="#43CE43"/>
<path d="M117.64 60.6846V47.4776H122.877C123.77 47.4776 124.5 47.6579 125.069 48.0187C125.644 48.3733 126.069 48.8288 126.344 49.3853C126.625 49.9417 126.766 50.5164 126.766 51.1095C126.766 51.8371 126.591 52.4547 126.243 52.9621C125.9 53.4696 125.433 53.812 124.84 53.9894V53.5308C125.671 53.7203 126.301 54.1147 126.729 54.7139C127.163 55.3131 127.38 55.9949 127.38 56.7592C127.38 57.5418 127.23 58.2266 126.931 58.8136C126.631 59.4006 126.185 59.8591 125.592 60.1893C125.005 60.5195 124.277 60.6846 123.409 60.6846H117.64ZM119.878 58.6026H123.134C123.519 58.6026 123.864 58.5262 124.17 58.3733C124.476 58.2144 124.714 57.9943 124.885 57.713C125.063 57.4256 125.151 57.0863 125.151 56.695C125.151 56.3403 125.075 56.0224 124.922 55.7411C124.769 55.4599 124.546 55.2367 124.253 55.0716C123.959 54.9004 123.608 54.8148 123.198 54.8148H119.878V58.6026ZM119.878 52.7512H122.849C123.167 52.7512 123.452 52.6901 123.702 52.5678C123.953 52.4455 124.152 52.2651 124.298 52.0267C124.445 51.7882 124.519 51.4947 124.519 51.1462C124.519 50.6876 124.372 50.3055 124.078 49.9997C123.785 49.694 123.375 49.5412 122.849 49.5412H119.878V52.7512ZM129.395 49.2752V47.2483H131.606V49.2752H129.395ZM129.395 60.6846V50.7793H131.606V60.6846H129.395ZM140.158 60.6846C139.504 60.8069 138.862 60.8588 138.232 60.8405C137.609 60.8283 137.049 60.7151 136.554 60.5011C136.059 60.281 135.683 59.9356 135.426 59.4648C135.2 59.0368 135.081 58.5996 135.068 58.1532C135.056 57.7069 135.05 57.2024 135.05 56.6399V48.0279H137.251V56.5115C137.251 56.909 137.254 57.2575 137.26 57.5571C137.273 57.8567 137.337 58.1013 137.453 58.2908C137.673 58.6577 138.025 58.8625 138.508 58.9053C138.991 58.9481 139.541 58.9236 140.158 58.8319V60.6846ZM133.252 52.5127V50.7793H140.158V52.5127H133.252ZM146.088 60.9597C145.067 60.9597 144.196 60.7335 143.474 60.281C142.753 59.8224 142.2 59.1988 141.814 58.41C141.435 57.6213 141.243 56.7286 141.237 55.7319C141.243 54.717 141.441 53.8182 141.833 53.0355C142.23 52.2468 142.793 51.6292 143.52 51.1829C144.248 50.7304 145.113 50.5042 146.116 50.5042C147.241 50.5042 148.192 50.7885 148.968 51.3571C149.751 51.9196 150.261 52.6901 150.5 53.6684L148.299 54.2645C148.127 53.7326 147.843 53.3198 147.446 53.0263C147.048 52.7267 146.596 52.5769 146.088 52.5769C145.514 52.5769 145.04 52.7145 144.667 52.9897C144.294 53.2587 144.019 53.6317 143.841 54.1086C143.664 54.5855 143.575 55.1266 143.575 55.7319C143.575 56.6736 143.786 57.4348 144.208 58.0157C144.63 58.5965 145.257 58.887 146.088 58.887C146.675 58.887 147.137 58.7524 147.473 58.4834C147.816 58.2144 148.072 57.8261 148.244 57.3186L150.5 57.8231C150.194 58.8319 149.659 59.6084 148.895 60.1526C148.131 60.6907 147.195 60.9597 146.088 60.9597ZM156.444 60.9597C155.453 60.9597 154.588 60.7365 153.848 60.2902C153.108 59.8438 152.534 59.2294 152.124 58.4467C151.72 57.658 151.519 56.753 151.519 55.7319C151.519 54.6925 151.727 53.7815 152.142 52.9988C152.558 52.2162 153.136 51.6048 153.876 51.1645C154.616 50.7243 155.472 50.5042 156.444 50.5042C157.44 50.5042 158.309 50.7274 159.049 51.1737C159.788 51.62 160.363 52.2376 160.773 53.0263C161.182 53.809 161.387 54.7109 161.387 55.7319C161.387 56.7592 161.179 57.6671 160.764 58.4559C160.354 59.2385 159.779 59.853 159.039 60.2994C158.3 60.7396 157.434 60.9597 156.444 60.9597ZM156.444 58.887C157.324 58.887 157.979 58.5935 158.407 58.0065C158.835 57.4195 159.049 56.6613 159.049 55.7319C159.049 54.772 158.831 54.0077 158.397 53.4391C157.963 52.8643 157.312 52.5769 156.444 52.5769C155.851 52.5769 155.362 52.7115 154.976 52.9805C154.597 53.2434 154.316 53.6133 154.133 54.0902C153.949 54.561 153.857 55.1083 153.857 55.7319C153.857 56.6919 154.075 57.4593 154.509 58.034C154.949 58.6026 155.594 58.887 156.444 58.887ZM163.591 49.2752V47.2483H165.802V49.2752H163.591ZM163.591 60.6846V50.7793H165.802V60.6846H163.591ZM175.4 60.6846V55.9154C175.4 55.6035 175.379 55.2581 175.336 54.879C175.293 54.4999 175.192 54.1361 175.033 53.7876C174.881 53.433 174.648 53.1425 174.336 52.9163C174.031 52.6901 173.615 52.5769 173.089 52.5769C172.808 52.5769 172.53 52.6228 172.254 52.7145C171.979 52.8062 171.729 52.9652 171.502 53.1914C171.282 53.4116 171.105 53.7173 170.97 54.1086C170.836 54.4938 170.769 54.9891 170.769 55.5944L169.457 55.0349C169.457 54.1911 169.619 53.4268 169.943 52.742C170.273 52.0572 170.756 51.513 171.392 51.1095C172.028 50.6998 172.811 50.495 173.74 50.495C174.474 50.495 175.079 50.6173 175.556 50.8619C176.033 51.1064 176.412 51.4183 176.693 51.7974C176.975 52.1765 177.183 52.58 177.317 53.008C177.452 53.436 177.537 53.8426 177.574 54.2278C177.617 54.6069 177.638 54.9157 177.638 55.1541V60.6846H175.4ZM168.531 60.6846V50.7793H170.503V53.8518H170.769V60.6846H168.531Z" fill="white"/>
<rect x="328.668" y="38.0608" width="31.2479" height="31.2479" rx="15.6239" fill="#F59E0B"/>
<g clip-path="url(#clip1_5100_41987)">
<path d="M340.1 58.5862L339.721 60.001C339.679 60.1572 339.771 60.318 339.928 60.3598L341.06 60.6631C341.135 60.6832 341.215 60.6727 341.282 60.6338C341.349 60.595 341.398 60.531 341.418 60.456L341.797 59.0411L342.363 59.1928L341.984 60.6076C341.942 60.7638 342.035 60.9245 342.191 60.9664L343.323 61.2697C343.398 61.2898 343.478 61.2793 343.546 61.2404C343.613 61.2016 343.662 61.1376 343.682 61.0625L344.061 59.6477L344.156 59.6732C346.411 60.2773 348.336 59.54 348.878 57.5173C349.334 55.8172 348.443 54.5826 347.144 54.0926L347.17 53.993C348.342 54.0132 349.371 53.401 349.74 52.0246C350.204 50.2906 349.185 48.8892 347.198 48.3569L347.094 48.329L347.473 46.9142C347.493 46.8391 347.483 46.7592 347.444 46.6919C347.405 46.6246 347.341 46.5755 347.266 46.5554L346.134 46.2521C346.059 46.232 345.979 46.2425 345.912 46.2814C345.845 46.3202 345.795 46.3842 345.775 46.4593L345.396 47.8741L344.748 47.7003L345.127 46.2855C345.147 46.2104 345.136 46.1305 345.097 46.0632C345.059 45.9959 344.995 45.9468 344.92 45.9267L343.87 45.6455C343.795 45.6254 343.715 45.636 343.648 45.6748C343.581 45.7137 343.532 45.7776 343.512 45.8527L343.132 47.2675L340.868 46.674C340.793 46.6539 340.713 46.6644 340.645 46.7033C340.578 46.7421 340.529 46.8061 340.509 46.8812L340.209 48.0006C340.167 48.1556 340.258 48.3169 340.414 48.3588L341.27 48.5821C341.494 48.6436 341.684 48.7912 341.799 48.9926C341.915 49.1939 341.946 49.4328 341.886 49.6569L340.216 55.8879C340.156 56.113 340.008 56.305 339.807 56.4215C339.605 56.538 339.365 56.5696 339.14 56.5093L338.29 56.2949C338.215 56.2748 338.135 56.2853 338.067 56.3242C338 56.363 337.951 56.427 337.931 56.502L337.628 57.6339C337.586 57.7901 337.679 57.9508 337.835 57.9927L340.1 58.5862ZM344.297 49.3834L346.242 49.9047C347.268 50.1795 347.719 50.9045 347.472 51.8259C347.208 52.8117 346.408 53.1931 344.934 52.7982L343.486 52.41L344.297 49.3834ZM343.068 53.9686L345.151 54.5266C346.438 54.8715 346.962 55.7157 346.676 56.7842C346.387 57.8628 345.528 58.2355 343.794 57.7709L342.166 57.3348L343.068 53.9697L343.068 53.9686Z" fill="white"/>
</g>
<mask id="path-10-inside-2_5100_41987" fill="white">
<path d="M25.1553 92.2373H204V189.266H25.1553V92.2373Z"/>
</mask>
<path d="M204 189.266V189.766H204.5V189.266H204ZM203.5 92.2373V189.266H204.5V92.2373H203.5ZM204 188.766H25.1553V189.766H204V188.766Z" fill="#64748B" mask="url(#path-10-inside-2_5100_41987)"/>
<path d="M48.8865 127.166V118.912H49.9068V122.552H54.2518V118.912H55.2722V127.166H54.2518V123.52H49.9068V127.166H48.8865ZM58.1413 127.166V118.912H59.1616V127.166H58.1413ZM65.3699 127.338C64.8043 127.338 64.2884 127.239 63.8222 127.04C63.356 126.841 62.9547 126.556 62.6184 126.186C62.2821 125.811 62.0223 125.36 61.8389 124.833C61.6592 124.302 61.5694 123.704 61.5694 123.039C61.5694 122.16 61.7261 121.399 62.0395 120.757C62.3528 120.115 62.7942 119.621 63.3636 119.273C63.933 118.921 64.6018 118.745 65.3699 118.745C66.2947 118.745 67.0399 118.961 67.6054 119.393C68.171 119.821 68.5608 120.408 68.7748 121.153L67.743 121.365C67.5711 120.864 67.2883 120.465 66.8947 120.167C66.501 119.869 66.01 119.72 65.4215 119.72C64.8062 119.716 64.2941 119.854 63.8852 120.133C63.4802 120.408 63.1745 120.796 62.9681 121.296C62.7617 121.797 62.6566 122.378 62.6528 123.039C62.649 123.696 62.7503 124.273 62.9566 124.77C63.163 125.267 63.4706 125.657 63.8795 125.939C64.2922 126.218 64.8062 126.36 65.4215 126.364C65.9527 126.367 66.3998 126.266 66.7628 126.06C67.1259 125.853 67.4067 125.555 67.6054 125.165C67.8042 124.776 67.9245 124.308 67.9666 123.761H66.2125V122.918H69.0442C69.0557 122.995 69.0614 123.087 69.0614 123.194C69.0652 123.297 69.0672 123.367 69.0672 123.406C69.0672 124.159 68.9258 124.833 68.643 125.429C68.364 126.021 67.9494 126.488 67.3991 126.828C66.8526 127.168 66.1762 127.338 65.3699 127.338ZM71.3585 127.166V118.912H72.3788V122.552H76.7239V118.912H77.7442V127.166H76.7239V123.52H72.3788V127.166H71.3585ZM80.4987 127.166V118.912H85.715V119.88H81.519V122.466H85.0271V123.434H81.519V126.197H85.715V127.166H80.4987ZM90.9334 127.338C90.3488 127.338 89.8214 127.239 89.3514 127.04C88.8851 126.841 88.4992 126.558 88.1935 126.192C87.8916 125.821 87.6948 125.383 87.603 124.879L88.6578 124.713C88.7915 125.232 89.0686 125.639 89.4889 125.934C89.9131 126.224 90.4118 126.369 90.985 126.369C91.3557 126.369 91.6901 126.312 91.9882 126.197C92.2901 126.079 92.5289 125.911 92.7047 125.693C92.8805 125.475 92.9684 125.217 92.9684 124.919C92.9684 124.736 92.9359 124.579 92.8709 124.449C92.8098 124.315 92.7238 124.202 92.613 124.111C92.506 124.015 92.3837 123.935 92.2461 123.87C92.1086 123.805 91.9652 123.752 91.8162 123.709L89.7125 123.085C89.4832 123.016 89.2616 122.93 89.0476 122.827C88.8336 122.72 88.6425 122.588 88.4743 122.431C88.3062 122.271 88.1724 122.08 88.0731 121.858C87.9737 121.633 87.924 121.367 87.924 121.061C87.924 120.572 88.0502 120.156 88.3024 119.812C88.5584 119.464 88.9043 119.198 89.3399 119.015C89.7755 118.831 90.2666 118.742 90.8131 118.745C91.3672 118.749 91.8621 118.849 92.2977 119.043C92.7372 119.235 93.1002 119.51 93.3868 119.869C93.6773 120.228 93.8722 120.658 93.9715 121.159L92.8881 121.348C92.8308 121.012 92.7028 120.723 92.5041 120.482C92.3092 120.238 92.0646 120.05 91.7704 119.921C91.4761 119.787 91.1532 119.718 90.8016 119.714C90.4653 119.71 90.1615 119.764 89.8902 119.875C89.6189 119.985 89.403 120.14 89.2425 120.339C89.0819 120.534 89.0017 120.759 89.0017 121.015C89.0017 121.268 89.0743 121.472 89.2195 121.629C89.3647 121.782 89.5424 121.904 89.7526 121.996C89.9666 122.083 90.1749 122.156 90.3774 122.213L91.948 122.666C92.1277 122.716 92.334 122.785 92.5671 122.873C92.8041 122.96 93.0333 123.085 93.255 123.245C93.4766 123.402 93.6601 123.612 93.8053 123.876C93.9505 124.136 94.0231 124.464 94.0231 124.862C94.0231 125.259 93.9429 125.613 93.7824 125.922C93.6257 126.232 93.4059 126.492 93.1232 126.702C92.8404 126.908 92.5117 127.065 92.1372 127.172C91.7627 127.283 91.3615 127.338 90.9334 127.338ZM98.4986 127.166V119.88H95.6841V118.912H102.333V119.88H99.5189V127.166H98.4986ZM107.487 127.166V118.912H110.703C111.196 118.912 111.616 119.013 111.964 119.215C112.315 119.418 112.583 119.685 112.766 120.018C112.954 120.347 113.047 120.702 113.047 121.084C113.047 121.531 112.933 121.923 112.703 122.259C112.474 122.596 112.165 122.827 111.775 122.953L111.763 122.672C112.294 122.813 112.707 123.073 113.001 123.452C113.296 123.83 113.443 124.281 113.443 124.804C113.443 125.286 113.343 125.702 113.145 126.054C112.95 126.406 112.667 126.679 112.296 126.874C111.93 127.069 111.494 127.166 110.989 127.166H107.487ZM108.519 126.192H110.795C111.1 126.192 111.373 126.136 111.614 126.025C111.855 125.911 112.044 125.75 112.182 125.544C112.323 125.337 112.394 125.089 112.394 124.799C112.394 124.52 112.331 124.269 112.205 124.048C112.082 123.826 111.909 123.65 111.683 123.52C111.461 123.387 111.203 123.32 110.909 123.32H108.519V126.192ZM108.519 122.357H110.691C110.936 122.357 111.156 122.305 111.351 122.202C111.549 122.095 111.706 121.946 111.821 121.755C111.939 121.564 111.998 121.34 111.998 121.084C111.998 120.729 111.878 120.438 111.637 120.213C111.396 119.987 111.081 119.875 110.691 119.875H108.519V122.357ZM115.846 127.166V118.912H116.867V127.166H115.846ZM119.733 127.166V118.912H122.278C122.362 118.912 122.509 118.914 122.719 118.917C122.93 118.921 123.13 118.936 123.321 118.963C123.959 119.047 124.493 119.28 124.921 119.663C125.352 120.041 125.677 120.522 125.895 121.107C126.113 121.692 126.222 122.336 126.222 123.039C126.222 123.742 126.113 124.386 125.895 124.971C125.677 125.555 125.352 126.039 124.921 126.421C124.493 126.799 123.959 127.03 123.321 127.114C123.13 127.137 122.928 127.153 122.714 127.16C122.503 127.164 122.358 127.166 122.278 127.166H119.733ZM120.782 126.192H122.278C122.423 126.192 122.586 126.188 122.765 126.18C122.945 126.169 123.102 126.151 123.235 126.128C123.686 126.044 124.051 125.855 124.33 125.561C124.609 125.267 124.814 124.9 124.944 124.46C125.073 124.021 125.138 123.547 125.138 123.039C125.138 122.519 125.072 122.04 124.938 121.6C124.808 121.161 124.603 120.796 124.324 120.505C124.045 120.215 123.682 120.029 123.235 119.949C123.102 119.922 122.943 119.905 122.76 119.898C122.576 119.89 122.416 119.886 122.278 119.886H120.782V126.192Z" fill="#8E9BAE"/>
<path d="M69.1017 163.608H52.8605C50.8828 163.608 49.2778 162.003 49.2778 160.025V143.784C49.2778 143.392 49.6027 143.068 49.9944 143.068C50.3861 143.068 50.7109 143.392 50.7109 143.784V160.025C50.7109 161.21 51.6758 162.175 52.8605 162.175H69.1017C69.4934 162.175 69.8182 162.5 69.8182 162.891C69.8182 163.283 69.4934 163.608 69.1017 163.608Z" fill="white"/>
<path d="M52.8604 158.831C52.698 158.831 52.526 158.774 52.3923 158.659C52.0961 158.401 52.0579 157.952 52.3158 157.646L56.701 152.526C57.1787 151.971 57.8665 151.637 58.5926 151.608C59.3187 151.589 60.0352 151.857 60.5511 152.373L61.4587 153.28C61.6975 153.519 62.0128 153.634 62.3472 153.634C62.6816 153.624 62.9873 153.471 63.207 153.213L67.5922 148.093C67.8501 147.797 68.2991 147.758 68.6048 148.016C68.901 148.274 68.9392 148.723 68.6813 149.029L64.2961 154.15C63.8185 154.704 63.1306 155.038 62.4045 155.067C61.6784 155.086 60.9619 154.819 60.446 154.303L59.548 153.395C59.3091 153.156 58.9939 153.032 58.6595 153.042C58.3251 153.051 58.0194 153.204 57.7996 153.462L53.4145 158.583C53.2617 158.745 53.061 158.831 52.8604 158.831Z" fill="white"/>
<path d="M84.9258 162.163V159.989H87.1361V162.163H84.9258ZM84.9258 147.488V145.315H87.1361V147.488H84.9258ZM86.0814 160.613C85.152 160.613 84.3204 160.442 83.5867 160.099C82.853 159.757 82.2507 159.274 81.7799 158.65C81.3152 158.026 81.0187 157.287 80.8903 156.431L83.0731 156.082C83.2443 156.834 83.6112 157.433 84.1737 157.88C84.7423 158.32 85.421 158.54 86.2098 158.54C86.968 158.54 87.5916 158.363 88.0808 158.008C88.5699 157.647 88.8145 157.192 88.8145 156.642C88.8145 156.256 88.6983 155.944 88.466 155.706C88.2336 155.461 87.8606 155.26 87.347 155.101L84.1645 154.11C82.3119 153.535 81.3856 152.41 81.3856 150.735C81.3856 149.952 81.572 149.271 81.945 148.69C82.3241 148.103 82.8561 147.653 83.5409 147.342C84.2257 147.024 85.0328 146.868 85.9621 146.874C86.8243 146.88 87.5916 147.036 88.2642 147.342C88.9429 147.647 89.5054 148.088 89.9518 148.662C90.4042 149.237 90.7252 149.928 90.9148 150.735L88.6494 151.148C88.5638 150.714 88.3957 150.332 88.145 150.001C87.8943 149.671 87.5794 149.414 87.2003 149.231C86.8212 149.047 86.3993 148.95 85.9346 148.937C85.4883 148.931 85.0878 149.002 84.7332 149.148C84.3785 149.289 84.0973 149.491 83.8894 149.754C83.6815 150.011 83.5775 150.301 83.5775 150.625C83.5775 150.986 83.7212 151.295 84.0086 151.551C84.3021 151.808 84.7637 152.028 85.3935 152.212L87.7689 152.9C88.9123 153.23 89.7347 153.679 90.2361 154.248C90.7436 154.81 90.9973 155.559 90.9973 156.495C90.9973 157.314 90.7925 158.033 90.3828 158.65C89.9732 159.268 89.3984 159.751 88.6586 160.099C87.9187 160.442 87.0597 160.613 86.0814 160.613ZM98.4708 160.338V158.155H92.6194V156.091L96.8475 147.131H99.3696L95.1415 156.091H98.4708V152.652H100.709V156.091H101.947V158.155H100.709V160.338H98.4708ZM108.714 160.613C107.851 160.613 107.075 160.411 106.384 160.007C105.699 159.598 105.155 159.032 104.751 158.311C104.348 157.589 104.146 156.761 104.146 155.825V151.808C104.146 150.805 104.345 149.934 104.742 149.194C105.146 148.454 105.708 147.883 106.43 147.479C107.157 147.076 108.001 146.874 108.961 146.874C109.628 146.874 110.26 146.987 110.86 147.213C111.459 147.433 111.991 147.788 112.456 148.277L110.86 149.827C110.627 149.552 110.343 149.335 110.007 149.176C109.677 149.017 109.328 148.937 108.961 148.937C108.448 148.937 107.998 149.06 107.613 149.304C107.228 149.543 106.928 149.858 106.714 150.249C106.506 150.64 106.402 151.059 106.402 151.505V153.697L105.999 153.257C106.378 152.817 106.833 152.475 107.365 152.23C107.897 151.979 108.454 151.854 109.035 151.854C109.866 151.854 110.6 152.044 111.236 152.423C111.872 152.796 112.373 153.309 112.74 153.963C113.107 154.612 113.29 155.351 113.29 156.183C113.29 157.008 113.079 157.757 112.657 158.43C112.242 159.096 111.688 159.628 110.997 160.026C110.306 160.417 109.545 160.613 108.714 160.613ZM108.714 158.494C109.142 158.494 109.533 158.393 109.887 158.192C110.242 157.984 110.523 157.705 110.731 157.357C110.945 157.002 111.052 156.611 111.052 156.183C111.052 155.755 110.948 155.364 110.74 155.009C110.533 154.654 110.251 154.373 109.897 154.165C109.548 153.951 109.16 153.844 108.732 153.844C108.304 153.844 107.913 153.951 107.558 154.165C107.203 154.373 106.922 154.654 106.714 155.009C106.506 155.364 106.402 155.755 106.402 156.183C106.402 156.599 106.503 156.984 106.705 157.339C106.913 157.687 107.191 157.968 107.54 158.182C107.894 158.39 108.286 158.494 108.714 158.494ZM119.859 160.613C118.984 160.613 118.208 160.435 117.529 160.081C116.85 159.726 116.318 159.234 115.933 158.604C115.548 157.974 115.355 157.253 115.355 156.44C115.355 155.712 115.524 155.037 115.86 154.413C116.196 153.789 116.688 153.291 117.336 152.918L117.291 153.624C116.783 153.239 116.389 152.796 116.108 152.294C115.832 151.787 115.695 151.218 115.695 150.588C115.695 149.83 115.872 149.173 116.227 148.616C116.587 148.06 117.08 147.629 117.703 147.323C118.327 147.011 119.045 146.856 119.859 146.856C120.672 146.856 121.39 147.011 122.014 147.323C122.644 147.629 123.136 148.06 123.491 148.616C123.851 149.173 124.032 149.83 124.032 150.588C124.032 151.218 123.897 151.784 123.628 152.285C123.365 152.786 122.965 153.239 122.427 153.642L122.418 152.927C123.053 153.288 123.539 153.783 123.876 154.413C124.218 155.037 124.389 155.712 124.389 156.44C124.389 157.253 124.194 157.974 123.802 158.604C123.417 159.234 122.882 159.726 122.197 160.081C121.519 160.435 120.739 160.613 119.859 160.613ZM119.859 158.531C120.507 158.531 121.033 158.354 121.436 157.999C121.846 157.644 122.051 157.125 122.051 156.44C122.051 155.755 121.849 155.235 121.445 154.881C121.042 154.52 120.513 154.339 119.859 154.339C119.211 154.339 118.688 154.52 118.29 154.881C117.893 155.235 117.694 155.755 117.694 156.44C117.694 157.125 117.893 157.644 118.29 157.999C118.688 158.354 119.211 158.531 119.859 158.531ZM119.859 152.239C120.403 152.239 120.843 152.105 121.179 151.836C121.522 151.56 121.693 151.145 121.693 150.588C121.693 150.032 121.522 149.619 121.179 149.35C120.843 149.075 120.403 148.937 119.859 148.937C119.321 148.937 118.88 149.075 118.538 149.35C118.202 149.619 118.034 150.032 118.034 150.588C118.034 151.145 118.202 151.56 118.538 151.836C118.88 152.105 119.321 152.239 119.859 152.239ZM131.09 160.613C130.216 160.613 129.439 160.435 128.761 160.081C128.082 159.726 127.55 159.234 127.165 158.604C126.78 157.974 126.587 157.253 126.587 156.44C126.587 155.712 126.755 155.037 127.091 154.413C127.428 153.789 127.92 153.291 128.568 152.918L128.522 153.624C128.015 153.239 127.62 152.796 127.339 152.294C127.064 151.787 126.926 151.218 126.926 150.588C126.926 149.83 127.104 149.173 127.458 148.616C127.819 148.06 128.311 147.629 128.935 147.323C129.559 147.011 130.277 146.856 131.09 146.856C131.903 146.856 132.622 147.011 133.246 147.323C133.875 147.629 134.367 148.06 134.722 148.616C135.083 149.173 135.263 149.83 135.263 150.588C135.263 151.218 135.129 151.784 134.86 152.285C134.597 152.786 134.196 153.239 133.658 153.642L133.649 152.927C134.285 153.288 134.771 153.783 135.107 154.413C135.45 155.037 135.621 155.712 135.621 156.44C135.621 157.253 135.425 157.974 135.034 158.604C134.649 159.234 134.114 159.726 133.429 160.081C132.75 160.435 131.971 160.613 131.09 160.613ZM131.09 158.531C131.738 158.531 132.264 158.354 132.668 157.999C133.077 157.644 133.282 157.125 133.282 156.44C133.282 155.755 133.08 155.235 132.677 154.881C132.273 154.52 131.744 154.339 131.09 154.339C130.442 154.339 129.919 154.52 129.522 154.881C129.124 155.235 128.926 155.755 128.926 156.44C128.926 157.125 129.124 157.644 129.522 157.999C129.919 158.354 130.442 158.531 131.09 158.531ZM131.09 152.239C131.634 152.239 132.075 152.105 132.411 151.836C132.753 151.56 132.925 151.145 132.925 150.588C132.925 150.032 132.753 149.619 132.411 149.35C132.075 149.075 131.634 148.937 131.09 148.937C130.552 148.937 130.112 149.075 129.769 149.35C129.433 149.619 129.265 150.032 129.265 150.588C129.265 151.145 129.433 151.56 129.769 151.836C130.112 152.105 130.552 152.239 131.09 152.239ZM138.369 160.338V158.072H140.634V160.338H138.369ZM148.324 160.613C147.388 160.613 146.563 160.414 145.847 160.017C145.132 159.613 144.573 159.054 144.169 158.338C143.772 157.623 143.573 156.797 143.573 155.862V151.606C143.573 150.671 143.772 149.845 144.169 149.13C144.573 148.415 145.132 147.858 145.847 147.461C146.563 147.057 147.388 146.856 148.324 146.856C149.259 146.856 150.082 147.057 150.791 147.461C151.506 147.858 152.066 148.415 152.469 149.13C152.873 149.845 153.075 150.671 153.075 151.606V155.862C153.075 156.797 152.873 157.623 152.469 158.338C152.066 159.054 151.506 159.613 150.791 160.017C150.082 160.414 149.259 160.613 148.324 160.613ZM148.324 158.513C148.788 158.513 149.21 158.402 149.589 158.182C149.969 157.956 150.268 157.657 150.488 157.284C150.708 156.904 150.818 156.483 150.818 156.018V151.441C150.818 150.97 150.708 150.549 150.488 150.176C150.268 149.797 149.969 149.497 149.589 149.277C149.21 149.051 148.788 148.937 148.324 148.937C147.859 148.937 147.437 149.051 147.058 149.277C146.679 149.497 146.379 149.797 146.159 150.176C145.939 150.549 145.829 150.97 145.829 151.441V156.018C145.829 156.483 145.939 156.904 146.159 157.284C146.379 157.657 146.679 157.956 147.058 158.182C147.437 158.402 147.859 158.513 148.324 158.513ZM160.397 160.613C159.462 160.613 158.636 160.414 157.921 160.017C157.206 159.613 156.646 159.054 156.243 158.338C155.845 157.623 155.646 156.797 155.646 155.862V151.606C155.646 150.671 155.845 149.845 156.243 149.13C156.646 148.415 157.206 147.858 157.921 147.461C158.636 147.057 159.462 146.856 160.397 146.856C161.333 146.856 162.155 147.057 162.864 147.461C163.58 147.858 164.139 148.415 164.543 149.13C164.946 149.845 165.148 150.671 165.148 151.606V155.862C165.148 156.797 164.946 157.623 164.543 158.338C164.139 159.054 163.58 159.613 162.864 160.017C162.155 160.414 161.333 160.613 160.397 160.613ZM160.397 158.513C160.862 158.513 161.284 158.402 161.663 158.182C162.042 157.956 162.342 157.657 162.562 157.284C162.782 156.904 162.892 156.483 162.892 156.018V151.441C162.892 150.97 162.782 150.549 162.562 150.176C162.342 149.797 162.042 149.497 161.663 149.277C161.284 149.051 160.862 148.937 160.397 148.937C159.933 148.937 159.511 149.051 159.132 149.277C158.752 149.497 158.453 149.797 158.233 150.176C158.013 150.549 157.903 150.97 157.903 151.441V156.018C157.903 156.483 158.013 156.904 158.233 157.284C158.453 157.657 158.752 157.956 159.132 158.182C159.511 158.402 159.933 158.513 160.397 158.513Z" fill="white"/>
<mask id="path-16-inside-3_5100_41987" fill="white">
<path d="M204 92.2373H382.845V189.266H204V92.2373Z"/>
</mask>
<path d="M382.845 188.766H204V189.766H382.845V188.766Z" fill="#64748B" mask="url(#path-16-inside-3_5100_41987)"/>
<path d="M227.731 127.166V118.912H228.66L231.778 125.486L234.879 118.912H235.819V127.16H234.851V121.153L232.048 127.166H231.503L228.7 121.153V127.166H227.731ZM238 127.166L240.763 118.912H242.184L244.947 127.166H243.887L241.302 119.508H241.623L239.06 127.166H238ZM239.33 125.234V124.277H243.617V125.234H239.33ZM246.432 127.166L249.27 122.987L246.507 118.912H247.75L249.889 122.127L252.021 118.912H253.271L250.508 122.987L253.339 127.166H252.095L249.889 123.853L247.682 127.166H246.432ZM258.266 127.166L261.029 118.912H262.451L265.214 127.166H264.153L261.568 119.508H261.889L259.327 127.166H258.266ZM259.596 125.234V124.277H263.884V125.234H259.596ZM267.386 127.166V118.912H268.315L271.433 125.486L274.534 118.912H275.475V127.16H274.506V121.153L271.703 127.166H271.158L268.355 121.153V127.166H267.386ZM281.622 127.338C280.8 127.338 280.103 127.156 279.53 126.793C278.956 126.43 278.519 125.926 278.217 125.28C277.919 124.634 277.77 123.887 277.77 123.039C277.77 122.19 277.919 121.443 278.217 120.798C278.519 120.152 278.956 119.647 279.53 119.284C280.103 118.921 280.8 118.74 281.622 118.74C282.447 118.74 283.147 118.921 283.72 119.284C284.293 119.647 284.729 120.152 285.027 120.798C285.325 121.443 285.474 122.19 285.474 123.039C285.474 123.887 285.325 124.634 285.027 125.28C284.729 125.926 284.293 126.43 283.72 126.793C283.147 127.156 282.447 127.338 281.622 127.338ZM281.622 126.364C282.237 126.367 282.749 126.23 283.158 125.951C283.571 125.668 283.878 125.276 284.081 124.776C284.287 124.275 284.39 123.696 284.39 123.039C284.39 122.378 284.287 121.799 284.081 121.302C283.878 120.805 283.571 120.417 283.158 120.138C282.749 119.859 282.237 119.718 281.622 119.714C281.007 119.71 280.494 119.848 280.086 120.127C279.68 120.406 279.375 120.796 279.168 121.296C278.962 121.797 278.857 122.378 278.853 123.039C278.849 123.696 278.951 124.273 279.157 124.77C279.363 125.267 279.671 125.657 280.08 125.939C280.493 126.218 281.007 126.36 281.622 126.364ZM291.027 127.338C290.389 127.338 289.826 127.206 289.336 126.942C288.847 126.679 288.463 126.31 288.184 125.836C287.909 125.358 287.772 124.799 287.772 124.157V118.917L288.803 118.912V124.071C288.803 124.46 288.868 124.801 288.998 125.091C289.132 125.378 289.308 125.616 289.526 125.807C289.743 125.999 289.982 126.142 290.242 126.237C290.506 126.329 290.768 126.375 291.027 126.375C291.291 126.375 291.555 126.327 291.818 126.232C292.082 126.136 292.321 125.995 292.535 125.807C292.753 125.616 292.927 125.376 293.057 125.085C293.187 124.795 293.252 124.457 293.252 124.071V118.912H294.283V124.157C294.283 124.795 294.144 125.353 293.865 125.83C293.59 126.308 293.208 126.679 292.718 126.942C292.229 127.206 291.666 127.338 291.027 127.338ZM297.035 127.166V118.912H298.067L302.372 125.36V118.912H303.403V127.166H302.372L298.067 120.712V127.166H297.035ZM308.279 127.166V119.88H305.465V118.912H312.114V119.88H309.3V127.166H308.279Z" fill="#8E9BAE"/>
<path d="M228.213 160.338V147.131H233.45C234.342 147.131 235.073 147.311 235.642 147.672C236.216 148.026 236.641 148.482 236.917 149.038C237.198 149.595 237.338 150.169 237.338 150.763C237.338 151.49 237.164 152.108 236.816 152.615C236.473 153.123 236.005 153.465 235.412 153.642V153.184C236.244 153.373 236.874 153.768 237.302 154.367C237.736 154.966 237.953 155.648 237.953 156.412C237.953 157.195 237.803 157.88 237.503 158.467C237.204 159.054 236.758 159.512 236.164 159.842C235.577 160.173 234.85 160.338 233.982 160.338H228.213ZM230.451 158.256H233.706C234.092 158.256 234.437 158.179 234.743 158.026C235.049 157.867 235.287 157.647 235.458 157.366C235.636 157.079 235.724 156.739 235.724 156.348C235.724 155.993 235.648 155.675 235.495 155.394C235.342 155.113 235.119 154.89 234.825 154.725C234.532 154.553 234.18 154.468 233.771 154.468H230.451V158.256ZM230.451 152.404H233.422C233.74 152.404 234.024 152.343 234.275 152.221C234.526 152.099 234.725 151.918 234.871 151.68C235.018 151.441 235.091 151.148 235.091 150.799C235.091 150.341 234.945 149.959 234.651 149.653C234.358 149.347 233.948 149.194 233.422 149.194H230.451V152.404ZM242.6 160.338V149.203H238.326V147.131H249.084V149.203H244.81V160.338H242.6ZM256.136 160.613C254.815 160.613 253.684 160.325 252.742 159.751C251.801 159.17 251.076 158.363 250.569 157.329C250.067 156.296 249.817 155.098 249.817 153.734C249.817 152.371 250.067 151.172 250.569 150.139C251.076 149.106 251.801 148.302 252.742 147.727C253.684 147.146 254.815 146.856 256.136 146.856C257.658 146.856 258.927 147.238 259.942 148.002C260.957 148.76 261.669 149.784 262.079 151.074L259.85 151.689C259.594 150.827 259.156 150.154 258.539 149.671C257.921 149.182 257.12 148.937 256.136 148.937C255.249 148.937 254.509 149.136 253.916 149.534C253.329 149.931 252.886 150.49 252.586 151.212C252.293 151.927 252.143 152.768 252.137 153.734C252.137 154.7 252.284 155.544 252.577 156.265C252.877 156.981 253.323 157.537 253.916 157.935C254.509 158.332 255.249 158.531 256.136 158.531C257.12 158.531 257.921 158.286 258.539 157.797C259.156 157.308 259.594 156.635 259.85 155.779L262.079 156.394C261.669 157.684 260.957 158.711 259.942 159.476C258.927 160.234 257.658 160.613 256.136 160.613Z" fill="white"/>
<mask id="path-20-inside-4_5100_41987" fill="white">
<path d="M25.1553 189.267H382.845V238.564H25.1553V189.267Z"/>
</mask>
<path d="M382.845 238.064H25.1553V239.064H382.845V238.064Z" fill="#64748B" mask="url(#path-20-inside-4_5100_41987)"/>
<path d="M49.047 219.415V209.51H53.1398C53.2361 209.51 53.3599 209.514 53.5112 209.524C53.6626 209.528 53.8024 209.542 53.9308 209.565C54.5041 209.652 54.9764 209.842 55.3478 210.136C55.7239 210.429 56.0013 210.801 56.1801 211.25C56.3636 211.695 56.4553 212.19 56.4553 212.736C56.4553 213.277 56.3636 213.772 56.1801 214.222C55.9967 214.666 55.717 215.036 55.341 215.329C54.9695 215.623 54.4995 215.813 53.9308 215.9C53.8024 215.918 53.6603 215.932 53.5044 215.941C53.353 215.95 53.2315 215.955 53.1398 215.955H50.7047V219.415H49.047ZM50.7047 214.407H53.071C53.1627 214.407 53.2659 214.403 53.3805 214.394C53.4952 214.384 53.6007 214.366 53.697 214.339C53.9721 214.27 54.1876 214.148 54.3435 213.974C54.5041 213.8 54.6164 213.603 54.6806 213.382C54.7494 213.162 54.7838 212.947 54.7838 212.736C54.7838 212.525 54.7494 212.309 54.6806 212.089C54.6164 211.865 54.5041 211.665 54.3435 211.491C54.1876 211.317 53.9721 211.195 53.697 211.126C53.6007 211.099 53.4952 211.083 53.3805 211.078C53.2659 211.069 53.1627 211.064 53.071 211.064H50.7047V214.407ZM57.8334 219.415V211.986H59.2985V213.795L59.1197 213.561C59.2114 213.314 59.3329 213.089 59.4843 212.887C59.6402 212.681 59.8259 212.511 60.0414 212.378C60.2249 212.254 60.4266 212.158 60.6468 212.089C60.8715 212.016 61.1007 211.972 61.3346 211.959C61.5685 211.94 61.7955 211.949 62.0156 211.986V213.534C61.7955 213.47 61.541 213.449 61.2521 213.472C60.9678 213.495 60.711 213.575 60.4817 213.713C60.2524 213.836 60.0644 213.995 59.9176 214.187C59.7755 214.38 59.67 214.6 59.6012 214.848C59.5324 215.091 59.498 215.354 59.498 215.639V219.415H57.8334ZM63.4658 210.858V209.338H65.1236V210.858H63.4658ZM63.4658 219.415V211.986H65.1236V219.415H63.4658ZM70.4101 219.621C69.6443 219.621 68.9908 219.452 68.4497 219.112C67.9086 218.768 67.4936 218.301 67.2047 217.709C66.9204 217.118 66.7759 216.448 66.7713 215.701C66.7759 214.939 66.9249 214.265 67.2184 213.678C67.5165 213.087 67.9384 212.624 68.4841 212.289C69.0298 211.949 69.6787 211.78 70.4308 211.78C71.2745 211.78 71.9876 211.993 72.57 212.419C73.157 212.841 73.5399 213.419 73.7188 214.153L72.0679 214.6C71.9395 214.201 71.7262 213.891 71.4282 213.671C71.1301 213.447 70.7907 213.334 70.4101 213.334C69.9791 213.334 69.6237 213.437 69.3439 213.644C69.0642 213.846 68.8578 214.125 68.7249 214.483C68.5919 214.841 68.5254 215.247 68.5254 215.701C68.5254 216.407 68.6836 216.978 69 217.413C69.3164 217.849 69.7865 218.067 70.4101 218.067C70.8504 218.067 71.1966 217.966 71.4488 217.764C71.7056 217.562 71.8982 217.271 72.0266 216.891L73.7188 217.269C73.4895 218.026 73.0882 218.608 72.515 219.016C71.9418 219.42 71.2401 219.621 70.4101 219.621ZM78.2731 219.621C77.521 219.621 76.8606 219.459 76.292 219.133C75.7234 218.807 75.2786 218.356 74.9576 217.778C74.6411 217.2 74.4829 216.535 74.4829 215.783C74.4829 214.971 74.6388 214.268 74.9507 213.671C75.2625 213.071 75.6959 212.605 76.2507 212.275C76.8056 211.945 77.4476 211.78 78.1768 211.78C78.9472 211.78 79.6006 211.961 80.1372 212.323C80.6783 212.681 81.0795 213.188 81.3409 213.843C81.6023 214.499 81.7009 215.272 81.6367 216.161H79.9927V215.556C79.9881 214.749 79.846 214.16 79.5662 213.788C79.2865 213.417 78.8463 213.231 78.2455 213.231C77.5669 213.231 77.0624 213.442 76.7322 213.864C76.4021 214.281 76.237 214.893 76.237 215.701C76.237 216.453 76.4021 217.035 76.7322 217.448C77.0624 217.86 77.5439 218.067 78.1768 218.067C78.5849 218.067 78.9357 217.977 79.2292 217.799C79.5273 217.615 79.7566 217.351 79.9171 217.008L81.5542 217.503C81.2699 218.172 80.8296 218.693 80.2335 219.064C79.6419 219.436 78.9884 219.621 78.2731 219.621ZM75.7142 216.161V214.91H80.825V216.161H75.7142ZM83.7218 218.521V216.822H85.4208V218.521H83.7218ZM83.7356 214.579V212.88H85.4346V214.579H83.7356Z" fill="white"/>
<rect x="124.896" y="208.915" width="108.371" height="10" rx="5" fill="#64748B"/>
<path d="M333.879 219.415V209.51H337.807C338.476 209.51 339.024 209.645 339.451 209.916C339.882 210.182 340.2 210.523 340.407 210.941C340.618 211.358 340.723 211.789 340.723 212.234C340.723 212.779 340.593 213.243 340.331 213.623C340.074 214.004 339.724 214.261 339.279 214.394V214.05C339.902 214.192 340.375 214.488 340.696 214.937C341.021 215.386 341.184 215.898 341.184 216.471C341.184 217.058 341.072 217.572 340.847 218.012C340.622 218.452 340.288 218.796 339.843 219.044C339.403 219.291 338.857 219.415 338.206 219.415H333.879ZM335.557 217.854H337.999C338.288 217.854 338.547 217.796 338.777 217.682C339.006 217.562 339.185 217.397 339.313 217.186C339.446 216.971 339.513 216.716 339.513 216.423C339.513 216.157 339.455 215.918 339.341 215.707C339.226 215.497 339.059 215.329 338.839 215.205C338.618 215.077 338.355 215.013 338.047 215.013H335.557V217.854ZM335.557 213.465H337.786C338.025 213.465 338.238 213.419 338.426 213.327C338.614 213.236 338.763 213.1 338.873 212.922C338.983 212.743 339.038 212.523 339.038 212.261C339.038 211.917 338.928 211.631 338.708 211.401C338.488 211.172 338.18 211.057 337.786 211.057H335.557V213.465ZM344.669 219.415V211.064H341.464V209.51H349.532V211.064H346.327V219.415H344.669ZM354.821 219.621C353.831 219.621 352.982 219.406 352.276 218.975C351.57 218.539 351.027 217.934 350.646 217.159C350.27 216.384 350.082 215.485 350.082 214.462C350.082 213.44 350.27 212.541 350.646 211.766C351.027 210.991 351.57 210.388 352.276 209.957C352.982 209.521 353.831 209.303 354.821 209.303C355.963 209.303 356.915 209.59 357.676 210.163C358.437 210.732 358.971 211.5 359.279 212.468L357.607 212.928C357.415 212.282 357.087 211.777 356.624 211.415C356.16 211.048 355.56 210.865 354.821 210.865C354.156 210.865 353.602 211.014 353.157 211.312C352.717 211.61 352.384 212.03 352.159 212.571C351.939 213.107 351.827 213.738 351.822 214.462C351.822 215.187 351.932 215.82 352.152 216.361C352.377 216.897 352.712 217.315 353.157 217.613C353.602 217.911 354.156 218.06 354.821 218.06C355.56 218.06 356.16 217.877 356.624 217.51C357.087 217.143 357.415 216.638 357.607 215.996L359.279 216.457C358.971 217.425 358.437 218.195 357.676 218.768C356.915 219.337 355.963 219.621 354.821 219.621Z" fill="white"/>
<mask id="path-25-inside-5_5100_41987" fill="white">
<path d="M25.1553 238.563H382.845V289.007H25.1553V238.563Z"/>
</mask>
<path d="M382.845 288.507H25.1553V289.507H382.845V288.507Z" fill="#64748B" mask="url(#path-25-inside-5_5100_41987)"/>
<path d="M48.3591 269.285L51.482 259.38H53.9102L57.0331 269.285H55.3272L52.4932 260.398H52.8646L50.065 269.285H48.3591ZM50.0994 267.139V265.591H55.2997V267.139H50.0994ZM67.1983 269.285V264.773C67.1983 264.264 67.0722 263.867 66.82 263.583C66.5678 263.294 66.2262 263.149 65.7951 263.149C65.5291 263.149 65.2907 263.211 65.0797 263.335C64.8688 263.454 64.7014 263.633 64.5776 263.872C64.4538 264.106 64.3919 264.385 64.3919 264.711L63.6558 264.278C63.6512 263.764 63.7659 263.312 63.9998 262.922C64.2382 262.528 64.5592 262.221 64.9628 262.001C65.3663 261.781 65.8157 261.67 66.311 261.67C67.1318 261.67 67.7601 261.918 68.1957 262.413C68.636 262.904 68.8561 263.551 68.8561 264.353V269.285H67.1983ZM58.263 269.285V261.856H59.7281V264.161H59.9345V269.285H58.263ZM62.741 269.285V264.793C62.741 264.275 62.6149 263.872 62.3627 263.583C62.1104 263.294 61.7665 263.149 61.3309 263.149C60.909 263.149 60.5696 263.294 60.3128 263.583C60.0606 263.872 59.9345 264.248 59.9345 264.711L59.1916 264.216C59.1916 263.734 59.3108 263.301 59.5493 262.916C59.7877 262.53 60.1087 262.228 60.5123 262.008C60.9204 261.783 61.3767 261.67 61.8811 261.67C62.436 261.67 62.8992 261.79 63.2706 262.028C63.6467 262.262 63.9264 262.583 64.1098 262.991C64.2978 263.395 64.3919 263.851 64.3919 264.36V269.285H62.741ZM73.8104 269.492C73.0675 269.492 72.4187 269.324 71.8638 268.989C71.3089 268.655 70.8778 268.194 70.5706 267.607C70.2679 267.015 70.1166 266.337 70.1166 265.571C70.1166 264.791 70.2725 264.108 70.5843 263.521C70.8962 262.934 71.3295 262.475 71.8844 262.145C72.4393 261.815 73.0813 261.65 73.8104 261.65C74.5579 261.65 75.2091 261.817 75.764 262.152C76.3188 262.487 76.7499 262.95 77.0572 263.541C77.3644 264.128 77.518 264.805 77.518 265.571C77.518 266.341 77.3621 267.022 77.0503 267.614C76.743 268.201 76.312 268.661 75.7571 268.996C75.2022 269.326 74.5533 269.492 73.8104 269.492ZM73.8104 267.937C74.4708 267.937 74.9615 267.717 75.2825 267.277C75.6035 266.836 75.764 266.268 75.764 265.571C75.764 264.851 75.6012 264.278 75.2756 263.851C74.95 263.42 74.4616 263.204 73.8104 263.204C73.3656 263.204 72.9988 263.305 72.7098 263.507C72.4255 263.704 72.2146 263.982 72.077 264.339C71.9394 264.693 71.8707 265.103 71.8707 265.571C71.8707 266.291 72.0334 266.866 72.359 267.297C72.6892 267.724 73.173 267.937 73.8104 267.937ZM81.8194 269.498C81.2691 269.498 80.8151 269.407 80.4575 269.223C80.0998 269.04 79.8155 268.806 79.6045 268.522C79.3936 268.237 79.2376 267.935 79.1368 267.614C79.0359 267.293 78.9694 266.99 78.9373 266.706C78.9098 266.417 78.896 266.183 78.896 266.004V261.856H80.5744V265.433C80.5744 265.662 80.5904 265.921 80.6225 266.21C80.6546 266.495 80.728 266.77 80.8427 267.036C80.9619 267.297 81.1362 267.513 81.3654 267.682C81.5993 267.852 81.9134 267.937 82.3078 267.937C82.5188 267.937 82.7274 267.903 82.9338 267.834C83.1401 267.765 83.3259 267.648 83.4909 267.483C83.6606 267.313 83.7959 267.082 83.8968 266.788C83.9977 266.495 84.0481 266.123 84.0481 265.674L85.0318 266.093C85.0318 266.726 84.9079 267.3 84.6603 267.813C84.4173 268.327 84.0573 268.737 83.5804 269.044C83.1034 269.347 82.5165 269.498 81.8194 269.498ZM84.2476 269.285V266.981H84.0481V261.856H85.7127V269.285H84.2476ZM92.7837 269.285V265.708C92.7837 265.474 92.7676 265.215 92.7355 264.931C92.7034 264.647 92.6277 264.374 92.5085 264.112C92.3939 263.846 92.2196 263.629 91.9857 263.459C91.7565 263.289 91.4446 263.204 91.0502 263.204C90.8393 263.204 90.6306 263.239 90.4243 263.308C90.2179 263.376 90.0299 263.496 89.8602 263.665C89.6952 263.83 89.5622 264.06 89.4613 264.353C89.3604 264.642 89.31 265.014 89.31 265.468L88.3263 265.048C88.3263 264.415 88.4478 263.842 88.6909 263.328C88.9385 262.815 89.3008 262.407 89.7777 262.104C90.2546 261.797 90.8416 261.643 91.5386 261.643C92.0889 261.643 92.5429 261.735 92.9006 261.918C93.2583 262.102 93.5426 262.335 93.7536 262.62C93.9645 262.904 94.1204 263.207 94.2213 263.528C94.3222 263.849 94.3864 264.154 94.4139 264.443C94.446 264.727 94.4621 264.958 94.4621 265.137V269.285H92.7837ZM87.6316 269.285V261.856H89.1105V264.161H89.31V269.285H87.6316ZM100.611 269.285C100.121 269.377 99.6391 269.416 99.1667 269.402C98.699 269.393 98.2794 269.308 97.9079 269.148C97.5365 268.982 97.2545 268.723 97.0619 268.37C96.8922 268.049 96.8028 267.721 96.7936 267.387C96.7844 267.052 96.7798 266.674 96.7798 266.252V259.793H98.4307V266.155C98.4307 266.453 98.433 266.715 98.4376 266.94C98.4468 267.164 98.4949 267.348 98.582 267.49C98.7471 267.765 99.0108 267.919 99.3731 267.951C99.7354 267.983 100.148 267.964 100.611 267.896V269.285ZM95.4316 263.156V261.856H100.611V263.156H95.4316ZM102.759 268.391V266.692H104.458V268.391H102.759ZM102.773 264.449V262.75H104.472V264.449H102.773Z" fill="white"/>
<rect x="124.427" y="258.785" width="108.371" height="10" rx="5" fill="#64748B"/>
<path d="M333.879 269.285V259.38H337.807C338.476 259.38 339.024 259.515 339.451 259.786C339.882 260.052 340.2 260.393 340.407 260.811C340.618 261.228 340.723 261.659 340.723 262.104C340.723 262.65 340.593 263.113 340.331 263.493C340.074 263.874 339.724 264.131 339.279 264.264V263.92C339.902 264.062 340.375 264.358 340.696 264.807C341.021 265.257 341.184 265.768 341.184 266.341C341.184 266.928 341.072 267.442 340.847 267.882C340.622 268.322 340.288 268.666 339.843 268.914C339.403 269.161 338.857 269.285 338.206 269.285H333.879ZM335.557 267.724H337.999C338.288 267.724 338.547 267.666 338.777 267.552C339.006 267.433 339.185 267.267 339.313 267.056C339.446 266.841 339.513 266.586 339.513 266.293C339.513 266.027 339.455 265.789 339.341 265.578C339.226 265.367 339.059 265.199 338.839 265.075C338.618 264.947 338.355 264.883 338.047 264.883H335.557V267.724ZM335.557 263.335H337.786C338.025 263.335 338.238 263.289 338.426 263.198C338.614 263.106 338.763 262.971 338.873 262.792C338.983 262.613 339.038 262.393 339.038 262.131C339.038 261.787 338.928 261.501 338.708 261.272C338.488 261.042 338.18 260.928 337.786 260.928H335.557V263.335ZM344.669 269.285V260.934H341.464V259.38H349.532V260.934H346.327V269.285H344.669ZM354.821 269.492C353.831 269.492 352.982 269.276 352.276 268.845C351.57 268.409 351.027 267.804 350.646 267.029C350.27 266.254 350.082 265.355 350.082 264.333C350.082 263.31 350.27 262.411 350.646 261.636C351.027 260.861 351.57 260.258 352.276 259.827C352.982 259.391 353.831 259.174 354.821 259.174C355.963 259.174 356.915 259.46 357.676 260.033C358.437 260.602 358.971 261.37 359.279 262.338L357.607 262.799C357.415 262.152 357.087 261.648 356.624 261.285C356.16 260.918 355.56 260.735 354.821 260.735C354.156 260.735 353.602 260.884 353.157 261.182C352.717 261.48 352.384 261.9 352.159 262.441C351.939 262.977 351.827 263.608 351.822 264.333C351.822 265.057 351.932 265.69 352.152 266.231C352.377 266.768 352.712 267.185 353.157 267.483C353.602 267.781 354.156 267.93 354.821 267.93C355.56 267.93 356.16 267.747 356.624 267.38C357.087 267.013 357.415 266.508 357.607 265.866L359.279 266.327C358.971 267.295 358.437 268.065 357.676 268.639C356.915 269.207 355.963 269.492 354.821 269.492Z" fill="white"/>
<path d="M51.427 326.936V318.585H48.2216V317.03H56.2902V318.585H53.0848V326.936H51.427ZM59.5695 327.142C58.8266 327.142 58.1777 326.975 57.6228 326.64C57.068 326.305 56.6369 325.844 56.3297 325.257C56.027 324.666 55.8757 323.987 55.8757 323.221C55.8757 322.441 56.0316 321.758 56.3434 321.171C56.6552 320.584 57.0886 320.126 57.6435 319.796C58.1983 319.465 58.8404 319.3 59.5695 319.3C60.317 319.3 60.9681 319.468 61.523 319.802C62.0779 320.137 62.509 320.6 62.8162 321.192C63.1235 321.779 63.2771 322.455 63.2771 323.221C63.2771 323.991 63.1212 324.672 62.8093 325.264C62.5021 325.851 62.071 326.312 61.5161 326.647C60.9613 326.977 60.3124 327.142 59.5695 327.142ZM59.5695 325.587C60.2298 325.587 60.7205 325.367 61.0415 324.927C61.3625 324.487 61.523 323.918 61.523 323.221C61.523 322.501 61.3602 321.928 61.0346 321.501C60.7091 321.07 60.2207 320.855 59.5695 320.855C59.1247 320.855 58.7578 320.956 58.4689 321.157C58.1846 321.355 57.9736 321.632 57.8361 321.99C57.6985 322.343 57.6297 322.753 57.6297 323.221C57.6297 323.941 57.7925 324.517 58.1181 324.948C58.4483 325.374 58.9321 325.587 59.5695 325.587ZM69.1468 326.936C68.6561 327.027 68.1746 327.066 67.7023 327.052C67.2346 327.043 66.815 326.958 66.4435 326.798C66.0721 326.633 65.79 326.374 65.5974 326.021C65.4278 325.7 65.3383 325.372 65.3292 325.037C65.32 324.702 65.3154 324.324 65.3154 323.902V317.443H66.9663V323.806C66.9663 324.104 66.9686 324.365 66.9732 324.59C66.9823 324.815 67.0305 324.998 67.1176 325.14C67.2827 325.415 67.5464 325.569 67.9087 325.601C68.2709 325.633 68.6837 325.615 69.1468 325.546V326.936ZM63.9672 320.807V319.507H69.1468V320.807H63.9672ZM72.8216 327.142C72.2851 327.142 71.8311 327.041 71.4597 326.839C71.0882 326.633 70.8062 326.36 70.6136 326.021C70.4256 325.681 70.3316 325.308 70.3316 324.899C70.3316 324.542 70.3912 324.221 70.5104 323.936C70.6296 323.648 70.8131 323.4 71.0607 323.194C71.3083 322.983 71.6293 322.811 72.0237 322.678C72.3218 322.581 72.6703 322.494 73.0693 322.416C73.4728 322.338 73.9085 322.267 74.3762 322.203C74.8485 322.134 75.3415 322.061 75.8551 321.983L75.2635 322.32C75.2681 321.806 75.1535 321.428 74.9196 321.185C74.6857 320.942 74.2914 320.82 73.7365 320.82C73.4017 320.82 73.0784 320.898 72.7666 321.054C72.4548 321.21 72.2369 321.478 72.1131 321.859L70.5998 321.384C70.7833 320.756 71.1318 320.252 71.6454 319.871C72.1636 319.491 72.8606 319.3 73.7365 319.3C74.3968 319.3 74.9769 319.408 75.4768 319.624C75.9812 319.839 76.355 320.192 76.598 320.683C76.731 320.944 76.8112 321.213 76.8388 321.488C76.8663 321.758 76.88 322.054 76.88 322.375V326.936H75.4286V325.326L75.6694 325.587C75.3346 326.124 74.9425 326.518 74.4931 326.77C74.0483 327.018 73.4911 327.142 72.8216 327.142ZM73.1518 325.821C73.5278 325.821 73.8488 325.755 74.1148 325.622C74.3808 325.489 74.5917 325.326 74.7476 325.133C74.9081 324.941 75.0159 324.76 75.0709 324.59C75.1581 324.379 75.2062 324.138 75.2154 323.868C75.2292 323.593 75.236 323.37 75.236 323.2L75.7451 323.352C75.2452 323.43 74.8164 323.499 74.4587 323.558C74.1011 323.618 73.7938 323.675 73.537 323.73C73.2802 323.781 73.0532 323.838 72.856 323.902C72.6634 323.971 72.5006 324.051 72.3676 324.143C72.2346 324.235 72.1315 324.34 72.0581 324.459C71.9893 324.578 71.9549 324.718 71.9549 324.879C71.9549 325.062 72.0008 325.225 72.0925 325.367C72.1842 325.505 72.3172 325.615 72.4915 325.697C72.6703 325.78 72.8904 325.821 73.1518 325.821ZM78.8084 326.936V316.824H80.4662V326.936H78.8084ZM83.0769 326.041V324.342H84.776V326.041H83.0769ZM83.0907 322.1V320.401H84.7897V322.1H83.0907Z" fill="white"/>
<path d="M98.938 326.936V318.839L97.0808 319.974V318.145L98.938 317.03H100.63V326.936H98.938ZM106.814 327.142C106.112 327.142 105.493 326.993 104.957 326.695C104.42 326.392 104 325.973 103.698 325.436C103.4 324.899 103.251 324.28 103.251 323.579V320.387C103.251 319.685 103.4 319.066 103.698 318.53C104 317.993 104.42 317.576 104.957 317.278C105.493 316.975 106.112 316.824 106.814 316.824C107.515 316.824 108.132 316.975 108.664 317.278C109.201 317.576 109.62 317.993 109.923 318.53C110.226 319.066 110.377 319.685 110.377 320.387V323.579C110.377 324.28 110.226 324.899 109.923 325.436C109.62 325.973 109.201 326.392 108.664 326.695C108.132 326.993 107.515 327.142 106.814 327.142ZM106.814 325.567C107.162 325.567 107.479 325.484 107.763 325.319C108.047 325.149 108.272 324.925 108.437 324.645C108.602 324.361 108.685 324.044 108.685 323.696V320.263C108.685 319.91 108.602 319.594 108.437 319.314C108.272 319.03 108.047 318.805 107.763 318.64C107.479 318.47 107.162 318.385 106.814 318.385C106.465 318.385 106.149 318.47 105.865 318.64C105.58 318.805 105.355 319.03 105.19 319.314C105.025 319.594 104.943 319.91 104.943 320.263V323.696C104.943 324.044 105.025 324.361 105.19 324.645C105.355 324.925 105.58 325.149 105.865 325.319C106.149 325.484 106.465 325.567 106.814 325.567ZM112.581 326.936V325.237H114.28V326.936H112.581ZM120.047 327.142C119.345 327.142 118.726 326.993 118.19 326.695C117.653 326.392 117.234 325.973 116.931 325.436C116.633 324.899 116.484 324.28 116.484 323.579V320.387C116.484 319.685 116.633 319.066 116.931 318.53C117.234 317.993 117.653 317.576 118.19 317.278C118.726 316.975 119.345 316.824 120.047 316.824C120.749 316.824 121.366 316.975 121.897 317.278C122.434 317.576 122.854 317.993 123.156 318.53C123.459 319.066 123.61 319.685 123.61 320.387V323.579C123.61 324.28 123.459 324.899 123.156 325.436C122.854 325.973 122.434 326.392 121.897 326.695C121.366 326.993 120.749 327.142 120.047 327.142ZM120.047 325.567C120.396 325.567 120.712 325.484 120.996 325.319C121.281 325.149 121.505 324.925 121.67 324.645C121.836 324.361 121.918 324.044 121.918 323.696V320.263C121.918 319.91 121.836 319.594 121.67 319.314C121.505 319.03 121.281 318.805 120.996 318.64C120.712 318.47 120.396 318.385 120.047 318.385C119.699 318.385 119.382 318.47 119.098 318.64C118.814 318.805 118.589 319.03 118.424 319.314C118.259 319.594 118.176 319.91 118.176 320.263V323.696C118.176 324.044 118.259 324.361 118.424 324.645C118.589 324.925 118.814 325.149 119.098 325.319C119.382 325.484 119.699 325.567 120.047 325.567ZM129.102 327.142C128.401 327.142 127.781 326.993 127.245 326.695C126.708 326.392 126.289 325.973 125.986 325.436C125.688 324.899 125.539 324.28 125.539 323.579V320.387C125.539 319.685 125.688 319.066 125.986 318.53C126.289 317.993 126.708 317.576 127.245 317.278C127.781 316.975 128.401 316.824 129.102 316.824C129.804 316.824 130.421 316.975 130.953 317.278C131.489 317.576 131.909 317.993 132.211 318.53C132.514 319.066 132.665 319.685 132.665 320.387V323.579C132.665 324.28 132.514 324.899 132.211 325.436C131.909 325.973 131.489 326.392 130.953 326.695C130.421 326.993 129.804 327.142 129.102 327.142ZM129.102 325.567C129.451 325.567 129.767 325.484 130.051 325.319C130.336 325.149 130.56 324.925 130.726 324.645C130.891 324.361 130.973 324.044 130.973 323.696V320.263C130.973 319.91 130.891 319.594 130.726 319.314C130.56 319.03 130.336 318.805 130.051 318.64C129.767 318.47 129.451 318.385 129.102 318.385C128.754 318.385 128.437 318.47 128.153 318.64C127.869 318.805 127.644 319.03 127.479 319.314C127.314 319.594 127.231 319.91 127.231 320.263V323.696C127.231 324.044 127.314 324.361 127.479 324.645C127.644 324.925 127.869 325.149 128.153 325.319C128.437 325.484 128.754 325.567 129.102 325.567ZM137.348 326.936V317.03H141.276C141.946 317.03 142.494 317.166 142.92 317.436C143.351 317.702 143.67 318.044 143.876 318.461C144.087 318.878 144.193 319.309 144.193 319.754C144.193 320.3 144.062 320.763 143.8 321.144C143.544 321.524 143.193 321.781 142.748 321.914V321.57C143.372 321.712 143.844 322.008 144.165 322.458C144.491 322.907 144.653 323.418 144.653 323.991C144.653 324.578 144.541 325.092 144.316 325.532C144.092 325.973 143.757 326.316 143.312 326.564C142.872 326.812 142.326 326.936 141.675 326.936H137.348ZM139.027 325.374H141.469C141.757 325.374 142.017 325.317 142.246 325.202C142.475 325.083 142.654 324.918 142.782 324.707C142.915 324.491 142.982 324.237 142.982 323.943C142.982 323.677 142.925 323.439 142.81 323.228C142.695 323.017 142.528 322.85 142.308 322.726C142.088 322.597 141.824 322.533 141.517 322.533H139.027V325.374ZM139.027 320.986H141.255C141.494 320.986 141.707 320.94 141.895 320.848C142.083 320.756 142.232 320.621 142.342 320.442C142.452 320.263 142.507 320.043 142.507 319.782C142.507 319.438 142.397 319.151 142.177 318.922C141.957 318.693 141.65 318.578 141.255 318.578H139.027V320.986ZM148.139 326.936V318.585H144.933V317.03H153.002V318.585H149.796V326.936H148.139ZM158.291 327.142C157.3 327.142 156.452 326.926 155.746 326.495C155.039 326.06 154.496 325.454 154.115 324.679C153.739 323.904 153.551 323.006 153.551 321.983C153.551 320.96 153.739 320.061 154.115 319.286C154.496 318.512 155.039 317.908 155.746 317.477C156.452 317.042 157.3 316.824 158.291 316.824C159.432 316.824 160.384 317.111 161.145 317.684C161.907 318.252 162.441 319.021 162.748 319.988L161.076 320.449C160.884 319.802 160.556 319.298 160.093 318.936C159.63 318.569 159.029 318.385 158.291 318.385C157.626 318.385 157.071 318.534 156.626 318.833C156.186 319.131 155.853 319.55 155.629 320.091C155.408 320.628 155.296 321.258 155.292 321.983C155.292 322.707 155.402 323.34 155.622 323.881C155.846 324.418 156.181 324.835 156.626 325.133C157.071 325.431 157.626 325.58 158.291 325.58C159.029 325.58 159.63 325.397 160.093 325.03C160.556 324.663 160.884 324.159 161.076 323.517L162.748 323.978C162.441 324.945 161.907 325.716 161.145 326.289C160.384 326.858 159.432 327.142 158.291 327.142Z" fill="#8E9BAE"/>
<path d="M52.7133 359.899C51.9888 359.899 51.3353 359.773 50.7529 359.521C50.1751 359.269 49.6982 358.909 49.3221 358.441C48.9507 357.969 48.7145 357.409 48.6136 356.763L50.3333 356.501C50.48 357.088 50.7804 357.542 51.2344 357.863C51.693 358.184 52.2203 358.345 52.8165 358.345C53.1696 358.345 53.5021 358.29 53.8139 358.18C54.1257 358.07 54.3779 357.909 54.5705 357.698C54.7677 357.487 54.8663 357.228 54.8663 356.921C54.8663 356.783 54.8434 356.657 54.7975 356.542C54.7517 356.423 54.6829 356.318 54.5912 356.226C54.5041 356.134 54.3894 356.052 54.2472 355.978C54.1097 355.9 53.9492 355.834 53.7657 355.779L51.2069 355.022C50.9868 354.958 50.7483 354.873 50.4915 354.768C50.2393 354.658 49.9985 354.509 49.7693 354.321C49.5445 354.128 49.3588 353.885 49.2121 353.592C49.0699 353.293 48.9988 352.927 48.9988 352.491C48.9988 351.854 49.1593 351.319 49.4803 350.888C49.8059 350.453 50.2416 350.127 50.7873 349.911C51.3376 349.696 51.9475 349.59 52.617 349.595C53.2957 349.6 53.901 349.717 54.433 349.946C54.9649 350.171 55.4097 350.498 55.7674 350.929C56.1251 351.361 56.3773 351.881 56.5241 352.491L54.7425 352.8C54.6691 352.452 54.527 352.156 54.316 351.913C54.1097 351.665 53.8552 351.477 53.5525 351.349C53.2544 351.221 52.9357 351.152 52.5964 351.143C52.2662 351.138 51.959 351.189 51.6746 351.294C51.3949 351.395 51.1679 351.542 50.9937 351.734C50.824 351.927 50.7391 352.152 50.7391 352.408C50.7391 352.651 50.8125 352.851 50.9593 353.007C51.106 353.158 51.2871 353.28 51.5027 353.371C51.7228 353.459 51.9452 353.532 52.1699 353.592L53.9446 354.087C54.1876 354.151 54.4605 354.238 54.7631 354.348C55.0658 354.458 55.357 354.612 55.6367 354.809C55.9165 355.006 56.1458 355.265 56.3246 355.586C56.508 355.907 56.5997 356.315 56.5997 356.811C56.5997 357.324 56.492 357.776 56.2764 358.166C56.0655 358.551 55.7789 358.872 55.4166 359.129C55.0543 359.386 54.6393 359.578 54.1716 359.707C53.7084 359.835 53.2223 359.899 52.7133 359.899ZM61.4661 359.899C60.714 359.899 60.0536 359.736 59.485 359.411C58.9164 359.085 58.4716 358.634 58.1506 358.056C57.8341 357.478 57.6759 356.813 57.6759 356.061C57.6759 355.249 57.8318 354.545 58.1437 353.949C58.4555 353.348 58.8889 352.883 59.4437 352.553C59.9986 352.223 60.6406 352.058 61.3698 352.058C62.1402 352.058 62.7936 352.239 63.3302 352.601C63.8713 352.959 64.2725 353.465 64.5339 354.121C64.7953 354.777 64.8939 355.55 64.8297 356.439H63.1857V355.834C63.1811 355.027 63.039 354.438 62.7592 354.066C62.4795 353.695 62.0393 353.509 61.4385 353.509C60.7599 353.509 60.2554 353.72 59.9252 354.142C59.5951 354.559 59.43 355.171 59.43 355.978C59.43 356.73 59.5951 357.313 59.9252 357.726C60.2554 358.138 60.7369 358.345 61.3698 358.345C61.7779 358.345 62.1287 358.255 62.4222 358.076C62.7203 357.893 62.9496 357.629 63.1101 357.285L64.7472 357.781C64.4629 358.45 64.0226 358.971 63.4265 359.342C62.8349 359.714 62.1814 359.899 61.4661 359.899ZM58.9072 356.439V355.187H64.018V356.439H58.9072ZM66.3645 359.693V352.264H67.8297V354.073L67.6508 353.839C67.7425 353.592 67.8641 353.367 68.0154 353.165C68.1713 352.959 68.357 352.789 68.5726 352.656C68.756 352.532 68.9578 352.436 69.1779 352.367C69.4026 352.294 69.6319 352.25 69.8657 352.236C70.0996 352.218 70.3266 352.227 70.5467 352.264V353.812C70.3266 353.747 70.0721 353.727 69.7832 353.75C69.4989 353.773 69.2421 353.853 69.0128 353.99C68.7835 354.114 68.5955 354.273 68.4487 354.465C68.3066 354.658 68.2011 354.878 68.1323 355.125C68.0635 355.368 68.0291 355.632 68.0291 355.916V359.693H66.3645ZM73.8679 359.693L71.1715 352.264H72.8293L74.7002 357.65L76.5644 352.264H78.229L75.5326 359.693H73.8679ZM79.6011 351.136V349.616H81.2588V351.136H79.6011ZM79.6011 359.693V352.264H81.2588V359.693H79.6011ZM86.5454 359.899C85.7796 359.899 85.1261 359.73 84.585 359.39C84.0438 359.046 83.6288 358.579 83.3399 357.987C83.0556 357.395 82.9112 356.726 82.9066 355.978C82.9112 355.217 83.0602 354.543 83.3537 353.956C83.6518 353.365 84.0737 352.901 84.6194 352.567C85.1651 352.227 85.8139 352.058 86.566 352.058C87.4098 352.058 88.1229 352.271 88.7053 352.697C89.2923 353.119 89.6752 353.697 89.854 354.431L88.2031 354.878C88.0747 354.479 87.8615 354.169 87.5634 353.949C87.2653 353.725 86.926 353.612 86.5454 353.612C86.1143 353.612 85.7589 353.715 85.4792 353.922C85.1995 354.123 84.9931 354.403 84.8601 354.761C84.7271 355.119 84.6606 355.524 84.6606 355.978C84.6606 356.685 84.8188 357.256 85.1353 357.691C85.4517 358.127 85.9217 358.345 86.5454 358.345C86.9856 358.345 87.3318 358.244 87.5841 358.042C87.8409 357.84 88.0335 357.549 88.1619 357.168L89.854 357.547C89.6247 358.303 89.2235 358.886 88.6502 359.294C88.077 359.697 87.3754 359.899 86.5454 359.899ZM94.4083 359.899C93.6562 359.899 92.9959 359.736 92.4273 359.411C91.8586 359.085 91.4138 358.634 91.0928 358.056C90.7764 357.478 90.6182 356.813 90.6182 356.061C90.6182 355.249 90.7741 354.545 91.0859 353.949C91.3978 353.348 91.8311 352.883 92.386 352.553C92.9409 352.223 93.5829 352.058 94.312 352.058C95.0824 352.058 95.7359 352.239 96.2724 352.601C96.8135 352.959 97.2148 353.465 97.4762 354.121C97.7376 354.777 97.8362 355.55 97.772 356.439H96.128V355.834C96.1234 355.027 95.9812 354.438 95.7015 354.066C95.4218 353.695 94.9815 353.509 94.3808 353.509C93.7021 353.509 93.1977 353.72 92.8675 354.142C92.5373 354.559 92.3722 355.171 92.3722 355.978C92.3722 356.73 92.5373 357.313 92.8675 357.726C93.1977 358.138 93.6792 358.345 94.312 358.345C94.7201 358.345 95.071 358.255 95.3644 358.076C95.6625 357.893 95.8918 357.629 96.0523 357.285L97.6894 357.781C97.4051 358.45 96.9649 358.971 96.3687 359.342C95.7772 359.714 95.1237 359.899 94.4083 359.899ZM91.8495 356.439V355.187H96.9603V356.439H91.8495ZM102.708 359.693V352.147C102.708 351.959 102.714 351.753 102.728 351.528C102.742 351.299 102.781 351.072 102.845 350.847C102.909 350.622 103.026 350.418 103.196 350.235C103.407 350.001 103.634 349.84 103.877 349.753C104.125 349.662 104.368 349.611 104.606 349.602C104.844 349.588 105.053 349.581 105.232 349.581H106.161V350.929H105.301C104.984 350.929 104.748 351.01 104.592 351.17C104.441 351.326 104.365 351.533 104.365 351.789V359.693H102.708ZM101.511 353.564V352.264H106.161V353.564H101.511ZM110.369 359.899C109.617 359.899 108.957 359.736 108.388 359.411C107.819 359.085 107.374 358.634 107.053 358.056C106.737 357.478 106.579 356.813 106.579 356.061C106.579 355.249 106.735 354.545 107.047 353.949C107.358 353.348 107.792 352.883 108.347 352.553C108.901 352.223 109.543 352.058 110.273 352.058C111.043 352.058 111.696 352.239 112.233 352.601C112.774 352.959 113.175 353.465 113.437 354.121C113.698 354.777 113.797 355.55 113.733 356.439H112.089V355.834C112.084 355.027 111.942 354.438 111.662 354.066C111.382 353.695 110.942 353.509 110.341 353.509C109.663 353.509 109.158 353.72 108.828 354.142C108.498 354.559 108.333 355.171 108.333 355.978C108.333 356.73 108.498 357.313 108.828 357.726C109.158 358.138 109.64 358.345 110.273 358.345C110.681 358.345 111.032 358.255 111.325 358.076C111.623 357.893 111.852 357.629 112.013 357.285L113.65 357.781C113.366 358.45 112.925 358.971 112.329 359.342C111.738 359.714 111.084 359.899 110.369 359.899ZM107.81 356.439V355.187H112.921V356.439H107.81ZM118.645 359.899C117.893 359.899 117.232 359.736 116.664 359.411C116.095 359.085 115.65 358.634 115.329 358.056C115.013 357.478 114.855 356.813 114.855 356.061C114.855 355.249 115.011 354.545 115.322 353.949C115.634 353.348 116.068 352.883 116.622 352.553C117.177 352.223 117.819 352.058 118.548 352.058C119.319 352.058 119.972 352.239 120.509 352.601C121.05 352.959 121.451 353.465 121.713 354.121C121.974 354.777 122.073 355.55 122.008 356.439H120.364V355.834C120.36 355.027 120.218 354.438 119.938 354.066C119.658 353.695 119.218 353.509 118.617 353.509C117.939 353.509 117.434 353.72 117.104 354.142C116.774 354.559 116.609 355.171 116.609 355.978C116.609 356.73 116.774 357.313 117.104 357.726C117.434 358.138 117.916 358.345 118.548 358.345C118.957 358.345 119.307 358.255 119.601 358.076C119.899 357.893 120.128 357.629 120.289 357.285L121.926 357.781C121.642 358.45 121.201 358.971 120.605 359.342C120.014 359.714 119.36 359.899 118.645 359.899ZM116.086 356.439V355.187H121.197V356.439H116.086ZM124.094 358.799V357.1H125.793V358.799H124.094ZM124.107 354.857V353.158H125.806V354.857H124.107Z" fill="#8E9BAE"/>
<rect x="137.255" y="349.193" width="142.761" height="10" rx="5" fill="#64748B"/>
<rect x="48.084" y="391.208" width="311.832" height="50.4434" rx="11.4644" fill="#2873FF"/>
<path d="M128.463 421.929V412.024H132.391C133.06 412.024 133.608 412.159 134.035 412.43C134.466 412.696 134.784 413.037 134.991 413.455C135.202 413.872 135.307 414.303 135.307 414.748C135.307 415.294 135.177 415.757 134.915 416.137C134.658 416.518 134.308 416.775 133.863 416.908V416.564C134.486 416.706 134.959 417.002 135.28 417.451C135.605 417.901 135.768 418.412 135.768 418.985C135.768 419.572 135.656 420.086 135.431 420.526C135.206 420.966 134.872 421.31 134.427 421.558C133.987 421.805 133.441 421.929 132.79 421.929H128.463ZM130.141 420.368H132.583C132.872 420.368 133.131 420.31 133.361 420.196C133.59 420.077 133.769 419.911 133.897 419.701C134.03 419.485 134.097 419.23 134.097 418.937C134.097 418.671 134.039 418.433 133.925 418.222C133.81 418.011 133.643 417.843 133.423 417.719C133.202 417.591 132.939 417.527 132.631 417.527H130.141V420.368ZM130.141 415.979H132.37C132.609 415.979 132.822 415.933 133.01 415.842C133.198 415.75 133.347 415.615 133.457 415.436C133.567 415.257 133.622 415.037 133.622 414.775C133.622 414.431 133.512 414.145 133.292 413.916C133.072 413.686 132.764 413.572 132.37 413.572H130.141V415.979ZM139.928 422.142C139.377 422.142 138.923 422.051 138.566 421.867C138.208 421.684 137.924 421.45 137.713 421.166C137.502 420.881 137.346 420.579 137.245 420.258C137.144 419.937 137.078 419.634 137.046 419.35C137.018 419.061 137.004 418.827 137.004 418.648V414.5H138.683V418.077C138.683 418.306 138.699 418.566 138.731 418.854C138.763 419.139 138.836 419.414 138.951 419.68C139.07 419.941 139.244 420.157 139.474 420.326C139.708 420.496 140.022 420.581 140.416 420.581C140.627 420.581 140.836 420.547 141.042 420.478C141.248 420.409 141.434 420.292 141.599 420.127C141.769 419.957 141.904 419.726 142.005 419.432C142.106 419.139 142.156 418.767 142.156 418.318L143.14 418.738C143.14 419.37 143.016 419.944 142.769 420.457C142.526 420.971 142.166 421.381 141.689 421.688C141.212 421.991 140.625 422.142 139.928 422.142ZM142.356 421.929V419.625H142.156V414.5H143.821V421.929H142.356ZM146.73 425.231L148.161 421.303L148.189 422.459L144.949 414.5H146.675L148.973 420.388H148.533L150.768 414.5H152.426L148.285 425.231H146.73ZM159.776 422.136C159.051 422.136 158.444 421.964 157.953 421.62C157.462 421.276 157.093 420.808 156.846 420.216C156.598 419.62 156.474 418.953 156.474 418.215C156.474 417.467 156.598 416.798 156.846 416.206C157.093 415.615 157.456 415.149 157.933 414.81C158.414 414.466 159.008 414.294 159.714 414.294C160.416 414.294 161.023 414.466 161.537 414.81C162.055 415.149 162.456 415.615 162.741 416.206C163.025 416.793 163.167 417.463 163.167 418.215C163.167 418.958 163.027 419.625 162.748 420.216C162.468 420.808 162.073 421.276 161.564 421.62C161.055 421.964 160.459 422.136 159.776 422.136ZM156.192 421.929V412.024H157.864V416.715H157.657V421.929H156.192ZM159.521 420.65C159.953 420.65 160.308 420.542 160.588 420.326C160.867 420.111 161.074 419.82 161.207 419.453C161.344 419.081 161.413 418.669 161.413 418.215C161.413 417.765 161.344 417.357 161.207 416.99C161.069 416.619 160.856 416.325 160.567 416.11C160.278 415.89 159.911 415.78 159.466 415.78C159.045 415.78 158.701 415.883 158.435 416.089C158.169 416.291 157.971 416.575 157.843 416.942C157.719 417.304 157.657 417.729 157.657 418.215C157.657 418.696 157.719 419.12 157.843 419.487C157.971 419.854 158.171 420.141 158.442 420.347C158.717 420.549 159.077 420.65 159.521 420.65ZM164.821 413.372V411.852H166.479V413.372H164.821ZM164.821 421.929V414.5H166.479V421.929H164.821ZM172.893 421.929C172.403 422.021 171.921 422.06 171.449 422.046C170.981 422.037 170.561 421.952 170.19 421.792C169.819 421.627 169.537 421.367 169.344 421.014C169.174 420.693 169.085 420.365 169.076 420.031C169.067 419.696 169.062 419.318 169.062 418.896V412.437H170.713V418.799C170.713 419.097 170.715 419.359 170.72 419.584C170.729 419.808 170.777 419.992 170.864 420.134C171.029 420.409 171.293 420.563 171.655 420.595C172.017 420.627 172.43 420.608 172.893 420.54V421.929ZM167.714 415.8V414.5H172.893V415.8H167.714ZM177.341 422.136C176.575 422.136 175.921 421.966 175.38 421.627C174.839 421.283 174.424 420.815 174.135 420.223C173.851 419.632 173.706 418.962 173.702 418.215C173.706 417.453 173.856 416.779 174.149 416.192C174.447 415.601 174.869 415.138 175.415 414.803C175.96 414.464 176.609 414.294 177.361 414.294C178.205 414.294 178.918 414.507 179.501 414.934C180.088 415.356 180.47 415.933 180.649 416.667L178.998 417.114C178.87 416.715 178.657 416.406 178.359 416.186C178.061 415.961 177.721 415.848 177.341 415.848C176.91 415.848 176.554 415.952 176.275 416.158C175.995 416.36 175.788 416.64 175.655 416.997C175.522 417.355 175.456 417.761 175.456 418.215C175.456 418.921 175.614 419.492 175.931 419.928C176.247 420.363 176.717 420.581 177.341 420.581C177.781 420.581 178.127 420.48 178.379 420.278C178.636 420.077 178.829 419.785 178.957 419.405L180.649 419.783C180.42 420.54 180.019 421.122 179.446 421.53C178.872 421.934 178.171 422.136 177.341 422.136ZM185.107 422.136C184.364 422.136 183.716 421.968 183.161 421.633C182.606 421.299 182.175 420.838 181.868 420.251C181.565 419.659 181.414 418.981 181.414 418.215C181.414 417.435 181.569 416.752 181.881 416.165C182.193 415.578 182.626 415.119 183.181 414.789C183.736 414.459 184.378 414.294 185.107 414.294C185.855 414.294 186.506 414.461 187.061 414.796C187.616 415.131 188.047 415.594 188.354 416.186C188.661 416.773 188.815 417.449 188.815 418.215C188.815 418.985 188.659 419.666 188.347 420.258C188.04 420.845 187.609 421.306 187.054 421.64C186.499 421.97 185.85 422.136 185.107 422.136ZM185.107 420.581C185.768 420.581 186.258 420.361 186.579 419.921C186.9 419.48 187.061 418.912 187.061 418.215C187.061 417.495 186.898 416.922 186.572 416.495C186.247 416.064 185.759 415.848 185.107 415.848C184.663 415.848 184.296 415.949 184.007 416.151C183.722 416.348 183.512 416.626 183.374 416.983C183.236 417.337 183.168 417.747 183.168 418.215C183.168 418.935 183.33 419.51 183.656 419.941C183.986 420.368 184.47 420.581 185.107 420.581ZM190.468 413.372V411.852H192.126V413.372H190.468ZM190.468 421.929V414.5H192.126V421.929H190.468ZM199.325 421.929V418.352C199.325 418.118 199.309 417.859 199.276 417.575C199.244 417.291 199.169 417.018 199.049 416.756C198.935 416.49 198.761 416.273 198.527 416.103C198.297 415.933 197.986 415.848 197.591 415.848C197.38 415.848 197.172 415.883 196.965 415.952C196.759 416.02 196.571 416.14 196.401 416.309C196.236 416.474 196.103 416.704 196.002 416.997C195.901 417.286 195.851 417.658 195.851 418.112L194.867 417.692C194.867 417.059 194.989 416.486 195.232 415.972C195.479 415.459 195.842 415.051 196.319 414.748C196.796 414.441 197.383 414.287 198.08 414.287C198.63 414.287 199.084 414.379 199.442 414.562C199.799 414.746 200.084 414.979 200.295 415.264C200.505 415.548 200.661 415.851 200.762 416.172C200.863 416.493 200.927 416.798 200.955 417.087C200.987 417.371 201.003 417.603 201.003 417.781V421.929H199.325ZM194.173 421.929V414.5H195.651V416.805H195.851V421.929H194.173ZM205.415 418.242V416.942H209.542V418.242H205.415ZM215.803 421.929V413.833L213.946 414.968V413.138L215.803 412.024H217.495V421.929H215.803ZM223.679 422.136C222.977 422.136 222.358 421.987 221.821 421.688C221.285 421.386 220.865 420.966 220.563 420.43C220.265 419.893 220.116 419.274 220.116 418.572V415.381C220.116 414.679 220.265 414.06 220.563 413.523C220.865 412.987 221.285 412.57 221.821 412.272C222.358 411.969 222.977 411.818 223.679 411.818C224.38 411.818 224.997 411.969 225.529 412.272C226.066 412.57 226.485 412.987 226.788 413.523C227.09 414.06 227.242 414.679 227.242 415.381V418.572C227.242 419.274 227.09 419.893 226.788 420.43C226.485 420.966 226.066 421.386 225.529 421.688C224.997 421.987 224.38 422.136 223.679 422.136ZM223.679 420.56C224.027 420.56 224.344 420.478 224.628 420.313C224.912 420.143 225.137 419.918 225.302 419.639C225.467 419.354 225.55 419.038 225.55 418.689V415.257C225.55 414.904 225.467 414.587 225.302 414.308C225.137 414.023 224.912 413.799 224.628 413.634C224.344 413.464 224.027 413.379 223.679 413.379C223.33 413.379 223.014 413.464 222.729 413.634C222.445 413.799 222.22 414.023 222.055 414.308C221.89 414.587 221.808 414.904 221.808 415.257V418.689C221.808 419.038 221.89 419.354 222.055 419.639C222.22 419.918 222.445 420.143 222.729 420.313C223.014 420.478 223.33 420.56 223.679 420.56ZM229.446 421.929V420.23H231.145V421.929H229.446ZM236.912 422.136C236.21 422.136 235.591 421.987 235.055 421.688C234.518 421.386 234.099 420.966 233.796 420.43C233.498 419.893 233.349 419.274 233.349 418.572V415.381C233.349 414.679 233.498 414.06 233.796 413.523C234.099 412.987 234.518 412.57 235.055 412.272C235.591 411.969 236.21 411.818 236.912 411.818C237.614 411.818 238.23 411.969 238.762 412.272C239.299 412.57 239.719 412.987 240.021 413.523C240.324 414.06 240.475 414.679 240.475 415.381V418.572C240.475 419.274 240.324 419.893 240.021 420.43C239.719 420.966 239.299 421.386 238.762 421.688C238.23 421.987 237.614 422.136 236.912 422.136ZM236.912 420.56C237.261 420.56 237.577 420.478 237.861 420.313C238.146 420.143 238.37 419.918 238.535 419.639C238.7 419.354 238.783 419.038 238.783 418.689V415.257C238.783 414.904 238.7 414.587 238.535 414.308C238.37 414.023 238.146 413.799 237.861 413.634C237.577 413.464 237.261 413.379 236.912 413.379C236.564 413.379 236.247 413.464 235.963 413.634C235.678 413.799 235.454 414.023 235.289 414.308C235.124 414.587 235.041 414.904 235.041 415.257V418.689C235.041 419.038 235.124 419.354 235.289 419.639C235.454 419.918 235.678 420.143 235.963 420.313C236.247 420.478 236.564 420.56 236.912 420.56ZM245.967 422.136C245.265 422.136 244.646 421.987 244.11 421.688C243.573 421.386 243.154 420.966 242.851 420.43C242.553 419.893 242.404 419.274 242.404 418.572V415.381C242.404 414.679 242.553 414.06 242.851 413.523C243.154 412.987 243.573 412.57 244.11 412.272C244.646 411.969 245.265 411.818 245.967 411.818C246.669 411.818 247.286 411.969 247.817 412.272C248.354 412.57 248.774 412.987 249.076 413.523C249.379 414.06 249.53 414.679 249.53 415.381V418.572C249.53 419.274 249.379 419.893 249.076 420.43C248.774 420.966 248.354 421.386 247.817 421.688C247.286 421.987 246.669 422.136 245.967 422.136ZM245.967 420.56C246.316 420.56 246.632 420.478 246.916 420.313C247.201 420.143 247.425 419.918 247.59 419.639C247.756 419.354 247.838 419.038 247.838 418.689V415.257C247.838 414.904 247.756 414.587 247.59 414.308C247.425 414.023 247.201 413.799 246.916 413.634C246.632 413.464 246.316 413.379 245.967 413.379C245.619 413.379 245.302 413.464 245.018 413.634C244.734 413.799 244.509 414.023 244.344 414.308C244.179 414.587 244.096 414.904 244.096 415.257V418.689C244.096 419.038 244.179 419.354 244.344 419.639C244.509 419.918 244.734 420.143 245.018 420.313C245.302 420.478 245.619 420.56 245.967 420.56ZM254.213 421.929V412.024H258.141C258.81 412.024 259.358 412.159 259.785 412.43C260.216 412.696 260.535 413.037 260.741 413.455C260.952 413.872 261.057 414.303 261.057 414.748C261.057 415.294 260.927 415.757 260.665 416.137C260.409 416.518 260.058 416.775 259.613 416.908V416.564C260.237 416.706 260.709 417.002 261.03 417.451C261.356 417.901 261.518 418.412 261.518 418.985C261.518 419.572 261.406 420.086 261.181 420.526C260.957 420.966 260.622 421.31 260.177 421.558C259.737 421.805 259.191 421.929 258.54 421.929H254.213ZM255.892 420.368H258.334C258.622 420.368 258.882 420.31 259.111 420.196C259.34 420.077 259.519 419.911 259.647 419.701C259.78 419.485 259.847 419.23 259.847 418.937C259.847 418.671 259.789 418.433 259.675 418.222C259.56 418.011 259.393 417.843 259.173 417.719C258.953 417.591 258.689 417.527 258.382 417.527H255.892V420.368ZM255.892 415.979H258.12C258.359 415.979 258.572 415.933 258.76 415.842C258.948 415.75 259.097 415.615 259.207 415.436C259.317 415.257 259.372 415.037 259.372 414.775C259.372 414.431 259.262 414.145 259.042 413.916C258.822 413.686 258.515 413.572 258.12 413.572H255.892V415.979ZM265.003 421.929V413.579H261.798V412.024H269.867V413.579H266.661V421.929H265.003ZM275.156 422.136C274.165 422.136 273.317 421.92 272.61 421.489C271.904 421.053 271.361 420.448 270.98 419.673C270.604 418.898 270.416 417.999 270.416 416.977C270.416 415.954 270.604 415.055 270.98 414.28C271.361 413.505 271.904 412.902 272.61 412.471C273.317 412.035 274.165 411.818 275.156 411.818C276.297 411.818 277.249 412.104 278.01 412.677C278.771 413.246 279.306 414.014 279.613 414.982L277.941 415.443C277.749 414.796 277.421 414.292 276.958 413.929C276.495 413.562 275.894 413.379 275.156 413.379C274.491 413.379 273.936 413.528 273.491 413.826C273.051 414.124 272.718 414.544 272.494 415.085C272.273 415.621 272.161 416.252 272.156 416.977C272.156 417.701 272.267 418.334 272.487 418.875C272.711 419.412 273.046 419.829 273.491 420.127C273.936 420.425 274.491 420.574 275.156 420.574C275.894 420.574 276.495 420.391 276.958 420.024C277.421 419.657 277.749 419.153 277.941 418.511L279.613 418.971C279.306 419.939 278.771 420.709 278.01 421.283C277.249 421.851 276.297 422.136 275.156 422.136Z" fill="white"/>
</g>
<rect x="25.4053" y="15.3818" width="357.189" height="448.948" rx="14.75" stroke="url(#paint0_linear_5100_41987)" stroke-width="0.5"/>
</g>
<defs>
<filter id="filter0_d_5100_41987" x="0.155273" y="0.131836" width="407.689" height="499.448" filterUnits="userSpaceOnUse" color-interpolation-filters="sRGB">
<feFlood flood-opacity="0" result="BackgroundImageFix"/>
<feColorMatrix in="SourceAlpha" type="matrix" values="0 0 0 0 0 0 0 0 0 0 0 0 0 0 0 0 0 0 127 0" result="hardAlpha"/>
<feOffset dy="10"/>
<feGaussianBlur stdDeviation="12.5"/>
<feComposite in2="hardAlpha" operator="out"/>
<feColorMatrix type="matrix" values="0 0 0 0 0.0627451 0 0 0 0 0.0980392 0 0 0 0 0.176471 0 0 0 0.05 0"/>
<feBlend mode="normal" in2="BackgroundImageFix" result="effect1_dropShadow_5100_41987"/>
<feBlend mode="normal" in="SourceGraphic" in2="effect1_dropShadow_5100_41987" result="shape"/>
</filter>
<linearGradient id="paint0_linear_5100_41987" x1="25.1553" y1="38.5141" x2="446.443" y2="115.203" gradientUnits="userSpaceOnUse">
<stop stop-color="#64748B"/>
<stop offset="0.515" stop-color="#64748B" stop-opacity="0"/>
<stop offset="1" stop-color="#64748B" stop-opacity="0.35"/>
</linearGradient>
<clipPath id="clip0_5100_41987">
<rect x="25.1553" y="15.1318" width="357.689" height="449.448" rx="15" fill="white"/>
</clipPath>
<clipPath id="clip1_5100_41987">
<rect width="18.7487" height="18.7487" fill="white" transform="translate(337.817 42.2041) rotate(15)"/>
</clipPath>
</defs>
</svg>
