<svg width="588" height="370" viewBox="0 0 588 375" fill="none" xmlns="http://www.w3.org/2000/svg">
<g clip-path="url(#clip0_4140_72430)">
<rect y="0.5" width="588" height="374" rx="25" fill="#F8FAFC"/>
<rect y="0.5" width="588" height="193.961" rx="15" fill="#DBE8FF"/>
<rect x="40" y="224.461" width="101.039" height="36.0385" rx="18.0193" fill="#E9F1FF"/>
<path fill-rule="evenodd" clip-rule="evenodd" d="M60.6096 234.376C60.2836 234.05 59.7549 234.05 59.4288 234.376C58.753 235.052 57.7817 235.453 56.7717 235.662C55.7674 235.869 54.8121 235.867 54.2669 235.806C54.0308 235.78 53.7948 235.856 53.6178 236.014C53.4409 236.172 53.3397 236.399 53.3397 236.636V244.151C53.3397 245.236 53.8141 246.195 54.4288 246.985C55.0446 247.777 55.8452 248.457 56.6116 249.005C57.3826 249.555 58.1484 249.993 58.7186 250.291C59.0047 250.441 59.244 250.557 59.4133 250.637C59.498 250.677 59.5654 250.707 59.6125 250.728L59.6676 250.753L59.6832 250.76L59.6878 250.762L59.6899 250.762C59.8999 250.852 60.1381 250.853 60.3481 250.763L60.0192 249.995C60.3481 250.763 60.3489 250.762 60.3491 250.762L60.3506 250.762L60.3553 250.76L60.3708 250.753L60.426 250.728C60.4731 250.707 60.5404 250.677 60.6251 250.637C60.7944 250.557 61.0338 250.441 61.3199 250.291C61.8901 249.993 62.6559 249.555 63.4268 249.005C64.1933 248.457 64.9938 247.777 65.6096 246.985C66.2244 246.195 66.6987 245.236 66.6987 244.151V236.636C66.6987 236.399 66.5976 236.172 66.4206 236.014C66.2437 235.856 66.0076 235.78 65.7716 235.806C65.2264 235.867 64.271 235.869 63.2668 235.662C62.2567 235.453 61.2854 235.052 60.6096 234.376ZM60.0192 249.995L59.6899 250.762C59.6901 250.763 59.6903 250.763 60.0192 249.995Z" fill="#2873FF"/>
<path d="M78.7897 244.705H80.4987C80.6081 245.615 81.5173 246.209 82.7204 246.209C83.9098 246.209 84.737 245.621 84.737 244.801C84.737 244.09 84.2311 243.68 82.987 243.386L81.7087 243.085C79.8903 242.668 79.029 241.793 79.029 240.385C79.029 238.635 80.5534 237.452 82.6999 237.452C84.8737 237.452 86.3093 238.628 86.3503 240.365H84.6686C84.5866 239.442 83.8141 238.888 82.6862 238.888C81.572 238.888 80.82 239.435 80.82 240.255C80.82 240.911 81.319 241.294 82.529 241.581L83.6637 241.841C85.6667 242.299 86.5143 243.126 86.5143 244.596C86.5143 246.469 85.0104 247.645 82.6247 247.645C80.3552 247.645 78.8649 246.524 78.7897 244.705ZM90.9405 241.404C89.9834 241.404 89.293 242.135 89.2246 243.147H92.6084C92.5743 242.121 91.918 241.404 90.9405 241.404ZM92.6153 245.314H94.208C93.9893 246.681 92.7178 247.624 91.002 247.624C88.8282 247.624 87.5157 246.196 87.5157 243.885C87.5157 241.595 88.8418 240.084 90.9336 240.084C92.9912 240.084 94.2764 241.513 94.2764 243.714V244.268H89.211V244.37C89.211 245.532 89.9219 246.312 91.0362 246.312C91.8291 246.312 92.4307 245.915 92.6153 245.314ZM101.902 242.819H100.295C100.159 242.046 99.6186 241.465 98.7094 241.465C97.6361 241.465 96.9457 242.367 96.9457 243.858C96.9457 245.375 97.643 246.25 98.723 246.25C99.5844 246.25 100.145 245.758 100.302 244.938H101.909C101.772 246.558 100.521 247.624 98.7025 247.624C96.5834 247.624 95.2162 246.209 95.2162 243.858C95.2162 241.54 96.5834 240.084 98.6889 240.084C100.603 240.084 101.786 241.294 101.902 242.819ZM109.493 240.235V247.481H107.852V246.223H107.818C107.435 247.105 106.704 247.611 105.603 247.611C104.031 247.611 103.033 246.592 103.033 244.917V240.235H104.735V244.575C104.735 245.615 105.241 246.175 106.198 246.175C107.182 246.175 107.791 245.478 107.791 244.425V240.235H109.493ZM111.027 247.481V240.235H112.661V241.499H112.695C112.942 240.617 113.577 240.112 114.432 240.112C114.651 240.112 114.842 240.153 114.965 240.18V241.718C114.821 241.663 114.562 241.622 114.275 241.622C113.311 241.622 112.73 242.244 112.73 243.263V247.481H111.027ZM116.021 247.481V240.235H117.723V247.481H116.021ZM116.869 239.284C116.342 239.284 115.925 238.874 115.925 238.362C115.925 237.842 116.342 237.432 116.869 237.432C117.402 237.432 117.819 237.842 117.819 238.362C117.819 238.874 117.402 239.284 116.869 239.284ZM119.764 238.539H121.466V240.235H122.833V241.547H121.466V245.314C121.466 245.908 121.739 246.182 122.341 246.182C122.498 246.182 122.717 246.168 122.826 246.148V247.447C122.641 247.488 122.306 247.515 121.944 247.515C120.379 247.515 119.764 246.961 119.764 245.553V241.547H118.724V240.235H119.764V238.539ZM124.942 250.174C124.846 250.174 124.361 250.167 124.272 250.147V248.8C124.361 248.821 124.661 248.827 124.764 248.827C125.468 248.827 125.83 248.561 126.022 247.891C126.022 247.87 126.124 247.508 126.117 247.488L123.54 240.235H125.4L127.109 246.031H127.136L128.845 240.235H130.636L128.018 247.768C127.396 249.566 126.596 250.174 124.942 250.174Z" fill="#1B2537"/>
<path d="M41.3281 300.156H45.2344C45.4844 302.234 47.5625 303.594 50.3125 303.594C53.0312 303.594 54.9219 302.25 54.9219 300.375C54.9219 298.75 53.7656 297.812 50.9219 297.141L48 296.453C43.8438 295.5 41.875 293.5 41.875 290.281C41.875 286.281 45.3594 283.578 50.2656 283.578C55.2344 283.578 58.5156 286.266 58.6094 290.234H54.7656C54.5781 288.125 52.8125 286.859 50.2344 286.859C47.6875 286.859 45.9688 288.109 45.9688 289.984C45.9688 291.484 47.1094 292.359 49.875 293.016L52.4688 293.609C57.0469 294.656 58.9844 296.547 58.9844 299.906C58.9844 304.188 55.5469 306.875 50.0938 306.875C44.9062 306.875 41.5 304.312 41.3281 300.156ZM68.7812 292.609C66.5938 292.609 65.0156 294.281 64.8594 296.594H72.5938C72.5156 294.25 71.0156 292.609 68.7812 292.609ZM72.6094 301.547H76.25C75.75 304.672 72.8438 306.828 68.9219 306.828C63.9531 306.828 60.9531 303.562 60.9531 298.281C60.9531 293.047 63.9844 289.594 68.7656 289.594C73.4688 289.594 76.4062 292.859 76.4062 297.891V299.156H64.8281V299.391C64.8281 302.047 66.4531 303.828 69 303.828C70.8125 303.828 72.1875 302.922 72.6094 301.547ZM93.5156 295.844H89.8438C89.5312 294.078 88.2969 292.75 86.2188 292.75C83.7656 292.75 82.1875 294.812 82.1875 298.219C82.1875 301.688 83.7812 303.688 86.25 303.688C88.2188 303.688 89.5 302.562 89.8594 300.688H93.5312C93.2188 304.391 90.3594 306.828 86.2031 306.828C81.3594 306.828 78.2344 303.594 78.2344 298.219C78.2344 292.922 81.3594 289.594 86.1719 289.594C90.5469 289.594 93.25 292.359 93.5156 295.844ZM110.547 289.938V306.5H106.797V303.625H106.719C105.844 305.641 104.172 306.797 101.656 306.797C98.0625 306.797 95.7812 304.469 95.7812 300.641V289.938H99.6719V299.859C99.6719 302.234 100.828 303.516 103.016 303.516C105.266 303.516 106.656 301.922 106.656 299.516V289.938H110.547ZM113.734 306.5V289.938H117.469V292.828H117.547C118.109 290.812 119.562 289.656 121.516 289.656C122.016 289.656 122.453 289.75 122.734 289.812V293.328C122.406 293.203 121.812 293.109 121.156 293.109C118.953 293.109 117.625 294.531 117.625 296.859V306.5H113.734ZM131.25 292.609C129.062 292.609 127.484 294.281 127.328 296.594H135.062C134.984 294.25 133.484 292.609 131.25 292.609ZM135.078 301.547H138.719C138.219 304.672 135.312 306.828 131.391 306.828C126.422 306.828 123.422 303.562 123.422 298.281C123.422 293.047 126.453 289.594 131.234 289.594C135.938 289.594 138.875 292.859 138.875 297.891V299.156H127.297V299.391C127.297 302.047 128.922 303.828 131.469 303.828C133.281 303.828 134.656 302.922 135.078 301.547ZM148.875 286.062H152.766V289.938H155.891V292.938H152.766V301.547C152.766 302.906 153.391 303.531 154.766 303.531C155.125 303.531 155.625 303.5 155.875 303.453V306.422C155.453 306.516 154.688 306.578 153.859 306.578C150.281 306.578 148.875 305.312 148.875 302.094V292.938H146.5V289.938H148.875V286.062ZM158.547 306.5V289.938H162.281V292.828H162.359C162.922 290.812 164.375 289.656 166.328 289.656C166.828 289.656 167.266 289.75 167.547 289.812V293.328C167.219 293.203 166.625 293.109 165.969 293.109C163.766 293.109 162.438 294.531 162.438 296.859V306.5H158.547ZM175.219 303.828C177.422 303.828 179.188 302.359 179.188 300.359V299.094L175.359 299.328C173.484 299.453 172.406 300.297 172.406 301.609C172.406 302.969 173.531 303.828 175.219 303.828ZM174.047 306.766C170.844 306.766 168.516 304.75 168.516 301.766C168.516 298.828 170.781 297.062 174.812 296.812L179.188 296.562V295.375C179.188 293.641 178.016 292.641 176.094 292.641C174.25 292.641 173.078 293.531 172.828 294.906H169.219C169.391 291.812 172.031 289.594 176.25 289.594C180.359 289.594 183.031 291.766 183.031 295.094V306.5H179.281V303.859H179.203C178.25 305.656 176.172 306.766 174.047 306.766ZM192.359 306.766C188.188 306.766 185.484 303.469 185.484 298.203C185.484 292.969 188.188 289.656 192.359 289.656C194.734 289.656 196.609 290.891 197.484 292.719H197.578V283.953H201.469V306.5H197.656V303.672H197.594C196.688 305.531 194.781 306.766 192.359 306.766ZM193.531 292.859C191.031 292.859 189.469 294.938 189.469 298.219C189.469 301.516 191.016 303.578 193.531 303.578C195.984 303.578 197.594 301.5 197.594 298.219C197.594 294.969 195.984 292.859 193.531 292.859ZM204.828 306.5V289.938H208.719V306.5H204.828ZM206.766 287.766C205.562 287.766 204.609 286.828 204.609 285.656C204.609 284.469 205.562 283.531 206.766 283.531C207.984 283.531 208.938 284.469 208.938 285.656C208.938 286.828 207.984 287.766 206.766 287.766ZM211.984 306.5V289.938H215.719V292.781H215.797C216.688 290.812 218.453 289.625 221 289.625C224.656 289.625 226.734 291.969 226.734 295.797V306.5H222.844V296.578C222.844 294.234 221.75 292.922 219.531 292.922C217.297 292.922 215.875 294.531 215.875 296.906V306.5H211.984ZM237.172 303.422C239.656 303.422 241.266 301.406 241.266 298.172C241.266 294.953 239.656 292.859 237.172 292.859C234.719 292.859 233.156 294.922 233.156 298.172C233.156 301.453 234.719 303.422 237.172 303.422ZM237.156 312.75C233.062 312.75 230.125 310.656 229.734 307.75H233.594C234.016 309.016 235.438 309.875 237.281 309.875C239.812 309.875 241.266 308.453 241.266 306.344V303.547H241.172C240.312 305.328 238.359 306.516 235.984 306.516C231.891 306.516 229.172 303.312 229.172 298.156C229.172 292.922 231.828 289.656 236.062 289.656C238.422 289.656 240.328 290.875 241.281 292.781H241.344V289.938H245.156V306.234C245.156 310.188 241.984 312.75 237.156 312.75Z" fill="url(#paint0_linear_4140_72430)"/>
<path d="M45.3516 339.5H41.0938V328.227H45.3672C46.3307 328.227 47.1094 328.484 47.7031 329C48.3021 329.516 48.6016 330.195 48.6016 331.039C48.6016 331.628 48.4115 332.161 48.0312 332.641C47.6562 333.115 47.1979 333.401 46.6562 333.5V333.562C47.4219 333.661 48.0312 333.961 48.4844 334.461C48.9427 334.961 49.1719 335.586 49.1719 336.336C49.1719 337.331 48.8333 338.107 48.1562 338.664C47.4844 339.221 46.5495 339.5 45.3516 339.5ZM42.5 329.469V333.086H44.6094C45.4427 333.086 46.0781 332.924 46.5156 332.602C46.9583 332.279 47.1797 331.812 47.1797 331.203C47.1797 330.646 46.9948 330.219 46.625 329.922C46.2552 329.62 45.7292 329.469 45.0469 329.469H42.5ZM42.5 338.258H45.1406C45.9896 338.258 46.6328 338.089 47.0703 337.75C47.5078 337.411 47.7266 336.917 47.7266 336.266C47.7266 334.953 46.8203 334.297 45.0078 334.297H42.5V338.258ZM50.945 339.5V331.375H52.3044V339.5H50.945ZM51.6247 330.008C51.3955 330.008 51.1976 329.924 51.0309 329.758C50.8643 329.591 50.7809 329.393 50.7809 329.164C50.7809 328.93 50.8643 328.732 51.0309 328.57C51.1976 328.404 51.3955 328.32 51.6247 328.32C51.8591 328.32 52.0596 328.404 52.2262 328.57C52.3929 328.732 52.4762 328.93 52.4762 329.164C52.4762 329.393 52.3929 329.591 52.2262 329.758C52.0596 329.924 51.8591 330.008 51.6247 330.008ZM54.8978 329.414H56.2572V331.375H57.8353V332.492H56.2572V337.32C56.2572 337.69 56.3379 337.964 56.4994 338.141C56.6608 338.312 56.916 338.398 57.265 338.398C57.4838 338.398 57.6713 338.385 57.8275 338.359V339.5C57.6504 339.542 57.364 339.562 56.9681 339.562C56.2233 339.562 55.6921 339.396 55.3744 339.062C55.0567 338.729 54.8978 338.172 54.8978 337.391V332.492H53.6869V331.375H54.8978V329.414ZM66.1241 334.039H64.7959C64.6918 333.57 64.46 333.185 64.1006 332.883C63.7465 332.581 63.2855 332.43 62.7178 332.43C62.0095 332.43 61.4392 332.703 61.0069 333.25C60.5746 333.792 60.3584 334.521 60.3584 335.438C60.3584 336.37 60.5746 337.104 61.0069 337.641C61.4444 338.177 62.0199 338.445 62.7334 338.445C63.2803 338.445 63.7308 338.31 64.085 338.039C64.4444 337.763 64.684 337.378 64.8037 336.883H66.1397C66.0355 337.695 65.6683 338.359 65.0381 338.875C64.4131 339.385 63.6423 339.641 62.7256 339.641C61.5902 339.641 60.6814 339.266 59.9991 338.516C59.3168 337.76 58.9756 336.734 58.9756 335.438C58.9756 334.161 59.3168 333.143 59.9991 332.383C60.6814 331.617 61.585 331.234 62.71 331.234C63.6787 331.234 64.4652 331.508 65.0694 332.055C65.6787 332.602 66.0303 333.263 66.1241 334.039ZM71.0769 339.641C69.9415 339.641 69.03 339.263 68.3425 338.508C67.655 337.747 67.3113 336.724 67.3113 335.438C67.3113 334.151 67.655 333.13 68.3425 332.375C69.03 331.615 69.9415 331.234 71.0769 331.234C72.2071 331.234 73.1159 331.615 73.8034 332.375C74.4909 333.13 74.8347 334.151 74.8347 335.438C74.8347 336.719 74.4909 337.74 73.8034 338.5C73.1159 339.26 72.2071 339.641 71.0769 339.641ZM69.3347 337.648C69.767 338.18 70.3477 338.445 71.0769 338.445C71.806 338.445 72.3842 338.182 72.8113 337.656C73.2383 337.125 73.4519 336.385 73.4519 335.438C73.4519 334.49 73.2383 333.753 72.8113 333.227C72.3842 332.695 71.806 332.43 71.0769 332.43C70.3477 332.43 69.767 332.695 69.3347 333.227C68.9076 333.758 68.6941 334.495 68.6941 335.438C68.6941 336.38 68.9076 337.117 69.3347 337.648ZM76.6 339.5V331.375H77.9594V339.5H76.6ZM77.2797 330.008C77.0505 330.008 76.8526 329.924 76.6859 329.758C76.5193 329.591 76.4359 329.393 76.4359 329.164C76.4359 328.93 76.5193 328.732 76.6859 328.57C76.8526 328.404 77.0505 328.32 77.2797 328.32C77.5141 328.32 77.7146 328.404 77.8812 328.57C78.0479 328.732 78.1312 328.93 78.1312 329.164C78.1312 329.393 78.0479 329.591 77.8812 329.758C77.7146 329.924 77.5141 330.008 77.2797 330.008ZM80.1153 339.5V331.375H81.3966V332.672H81.4278C81.6622 332.219 81.9981 331.867 82.4356 331.617C82.8731 331.362 83.3966 331.234 84.0059 331.234C84.8914 331.234 85.5815 331.503 86.0762 332.039C86.571 332.57 86.8184 333.299 86.8184 334.227V339.5H85.4591V334.469C85.4591 333.807 85.3028 333.305 84.9903 332.961C84.6778 332.612 84.2117 332.438 83.5919 332.438C82.9512 332.438 82.4382 332.646 82.0528 333.062C81.6674 333.479 81.4747 334.031 81.4747 334.719V339.5H80.1153ZM92.5444 339.5V331.375H93.9038V339.5H92.5444ZM93.2241 330.008C92.9949 330.008 92.797 329.924 92.6303 329.758C92.4636 329.591 92.3803 329.393 92.3803 329.164C92.3803 328.93 92.4636 328.732 92.6303 328.57C92.797 328.404 92.9949 328.32 93.2241 328.32C93.4584 328.32 93.659 328.404 93.8256 328.57C93.9923 328.732 94.0756 328.93 94.0756 329.164C94.0756 329.393 93.9923 329.591 93.8256 329.758C93.659 329.924 93.4584 330.008 93.2241 330.008ZM95.9191 333.617C95.9191 332.919 96.2003 332.349 96.7628 331.906C97.3305 331.458 98.0597 331.234 98.9503 331.234C99.7889 331.234 100.487 331.458 101.044 331.906C101.601 332.354 101.896 332.922 101.927 333.609H100.63C100.583 333.214 100.406 332.904 100.099 332.68C99.7967 332.456 99.3982 332.344 98.9034 332.344C98.4086 332.344 98.0102 332.456 97.7081 332.68C97.406 332.898 97.255 333.188 97.255 333.547C97.255 334.099 97.7055 334.49 98.6066 334.719L99.8644 335.023C100.682 335.232 101.258 335.503 101.591 335.836C101.929 336.164 102.099 336.628 102.099 337.227C102.099 337.935 101.797 338.516 101.193 338.969C100.588 339.417 99.8123 339.641 98.8644 339.641C97.979 339.641 97.2472 339.422 96.6691 338.984C96.0961 338.542 95.7732 337.958 95.7003 337.234H97.0597C97.2107 338.099 97.8409 338.531 98.9503 338.531C99.4972 338.531 99.9295 338.424 100.247 338.211C100.57 337.992 100.732 337.698 100.732 337.328C100.732 337.036 100.635 336.805 100.443 336.633C100.255 336.461 99.9347 336.315 99.4816 336.195L98.0519 335.828C96.63 335.464 95.9191 334.727 95.9191 333.617ZM107.504 339.5V328.227H108.864V332.672H108.895C109.124 332.214 109.457 331.859 109.895 331.609C110.338 331.359 110.864 331.234 111.473 331.234C112.359 331.234 113.056 331.508 113.567 332.055C114.077 332.602 114.332 333.333 114.332 334.25V339.5H112.973V334.5C112.973 333.844 112.809 333.336 112.481 332.977C112.158 332.617 111.681 332.438 111.051 332.438C110.379 332.438 109.846 332.648 109.45 333.07C109.059 333.492 108.864 334.057 108.864 334.766V339.5H107.504ZM119.637 332.414C119.007 332.414 118.483 332.633 118.067 333.07C117.655 333.503 117.429 334.06 117.387 334.742H121.801C121.785 334.055 121.58 333.495 121.184 333.062C120.788 332.63 120.272 332.414 119.637 332.414ZM121.77 337.172H123.106C122.986 337.891 122.611 338.482 121.981 338.945C121.356 339.409 120.603 339.641 119.723 339.641C118.561 339.641 117.647 339.266 116.981 338.516C116.314 337.766 115.981 336.75 115.981 335.469C115.981 334.198 116.314 333.174 116.981 332.398C117.652 331.622 118.546 331.234 119.66 331.234C120.754 331.234 121.619 331.602 122.254 332.336C122.889 333.07 123.207 334.055 123.207 335.289V335.805H117.379V335.883C117.379 336.664 117.593 337.289 118.02 337.758C118.447 338.227 119.025 338.461 119.754 338.461C120.264 338.461 120.699 338.344 121.059 338.109C121.418 337.875 121.655 337.562 121.77 337.172ZM124.973 339.5V328.227H126.332V339.5H124.973ZM131.566 339.641C130.524 339.641 129.683 339.258 129.043 338.492C128.407 337.727 128.089 336.708 128.089 335.438C128.089 334.172 128.407 333.156 129.043 332.391C129.678 331.62 130.509 331.234 131.535 331.234C132.108 331.234 132.621 331.365 133.074 331.625C133.527 331.885 133.876 332.242 134.121 332.695H134.152V328.227H135.511V339.5H134.214V338.125H134.191C133.925 338.599 133.566 338.971 133.113 339.242C132.66 339.508 132.144 339.641 131.566 339.641ZM131.824 332.43C131.105 332.43 130.535 332.703 130.113 333.25C129.691 333.792 129.48 334.521 129.48 335.438C129.48 336.359 129.691 337.091 130.113 337.633C130.535 338.174 131.105 338.445 131.824 338.445C132.527 338.445 133.092 338.172 133.519 337.625C133.946 337.073 134.16 336.344 134.16 335.438C134.16 334.531 133.944 333.805 133.511 333.258C133.084 332.706 132.522 332.43 131.824 332.43ZM141.339 339.5V331.375H142.698V339.5H141.339ZM142.018 330.008C141.789 330.008 141.591 329.924 141.425 329.758C141.258 329.591 141.175 329.393 141.175 329.164C141.175 328.93 141.258 328.732 141.425 328.57C141.591 328.404 141.789 328.32 142.018 328.32C142.253 328.32 142.453 328.404 142.62 328.57C142.787 328.732 142.87 328.93 142.87 329.164C142.87 329.393 142.787 329.591 142.62 329.758C142.453 329.924 142.253 330.008 142.018 330.008ZM144.854 339.5V331.375H146.135V332.672H146.167C146.401 332.219 146.737 331.867 147.174 331.617C147.612 331.362 148.135 331.234 148.745 331.234C149.63 331.234 150.32 331.503 150.815 332.039C151.31 332.57 151.557 333.299 151.557 334.227V339.5H150.198V334.469C150.198 333.807 150.042 333.305 149.729 332.961C149.417 332.612 148.95 332.438 148.331 332.438C147.69 332.438 147.177 332.646 146.792 333.062C146.406 333.479 146.213 334.031 146.213 334.719V339.5H144.854ZM157.072 333.617C157.072 332.919 157.353 332.349 157.916 331.906C158.484 331.458 159.213 331.234 160.103 331.234C160.942 331.234 161.64 331.458 162.197 331.906C162.754 332.354 163.049 332.922 163.08 333.609H161.783C161.736 333.214 161.559 332.904 161.252 332.68C160.95 332.456 160.551 332.344 160.057 332.344C159.562 332.344 159.163 332.456 158.861 332.68C158.559 332.898 158.408 333.188 158.408 333.547C158.408 334.099 158.859 334.49 159.76 334.719L161.018 335.023C161.835 335.232 162.411 335.503 162.744 335.836C163.083 336.164 163.252 336.628 163.252 337.227C163.252 337.935 162.95 338.516 162.346 338.969C161.741 339.417 160.965 339.641 160.018 339.641C159.132 339.641 158.4 339.422 157.822 338.984C157.249 338.542 156.926 337.958 156.853 337.234H158.213C158.364 338.099 158.994 338.531 160.103 338.531C160.65 338.531 161.083 338.424 161.4 338.211C161.723 337.992 161.885 337.698 161.885 337.328C161.885 337.036 161.788 336.805 161.596 336.633C161.408 336.461 161.088 336.315 160.635 336.195L159.205 335.828C157.783 335.464 157.072 334.727 157.072 333.617ZM168.244 332.414C167.614 332.414 167.09 332.633 166.673 333.07C166.262 333.503 166.035 334.06 165.994 334.742H170.408C170.392 334.055 170.186 333.495 169.791 333.062C169.395 332.63 168.879 332.414 168.244 332.414ZM170.377 337.172H171.713C171.593 337.891 171.218 338.482 170.588 338.945C169.963 339.409 169.21 339.641 168.33 339.641C167.168 339.641 166.254 339.266 165.588 338.516C164.921 337.766 164.588 336.75 164.588 335.469C164.588 334.198 164.921 333.174 165.588 332.398C166.259 331.622 167.153 331.234 168.267 331.234C169.361 331.234 170.226 331.602 170.861 332.336C171.496 333.07 171.814 334.055 171.814 335.289V335.805H165.986V335.883C165.986 336.664 166.199 337.289 166.627 337.758C167.054 338.227 167.632 338.461 168.361 338.461C168.871 338.461 169.306 338.344 169.666 338.109C170.025 337.875 170.262 337.562 170.377 337.172ZM180.259 334.039H178.931C178.827 333.57 178.595 333.185 178.236 332.883C177.881 332.581 177.421 332.43 176.853 332.43C176.144 332.43 175.574 332.703 175.142 333.25C174.71 333.792 174.493 334.521 174.493 335.438C174.493 336.37 174.71 337.104 175.142 337.641C175.579 338.177 176.155 338.445 176.868 338.445C177.415 338.445 177.866 338.31 178.22 338.039C178.579 337.763 178.819 337.378 178.939 336.883H180.275C180.171 337.695 179.803 338.359 179.173 338.875C178.548 339.385 177.777 339.641 176.861 339.641C175.725 339.641 174.816 339.266 174.134 338.516C173.452 337.76 173.111 336.734 173.111 335.438C173.111 334.161 173.452 333.143 174.134 332.383C174.816 331.617 175.72 331.234 176.845 331.234C177.814 331.234 178.6 331.508 179.204 332.055C179.814 332.602 180.165 333.263 180.259 334.039ZM188.517 331.375V339.5H187.227V338.18H187.196C186.691 339.154 185.832 339.641 184.618 339.641C183.738 339.641 183.048 339.375 182.548 338.844C182.053 338.307 181.806 337.576 181.806 336.648V331.375H183.165V336.406C183.165 337.76 183.79 338.438 185.04 338.438C185.696 338.438 186.212 338.232 186.587 337.82C186.967 337.404 187.157 336.846 187.157 336.148V331.375H188.517ZM190.602 339.5V331.375H191.883V332.703H191.915C192.05 332.25 192.292 331.893 192.641 331.633C192.995 331.367 193.409 331.234 193.883 331.234C193.993 331.234 194.175 331.253 194.43 331.289V332.609C194.284 332.557 194.042 332.531 193.704 332.531C193.178 332.531 192.756 332.706 192.438 333.055C192.12 333.404 191.962 333.865 191.962 334.438V339.5H190.602ZM198.727 332.414C198.097 332.414 197.573 332.633 197.157 333.07C196.745 333.503 196.519 334.06 196.477 334.742H200.891C200.875 334.055 200.67 333.495 200.274 333.062C199.878 332.63 199.362 332.414 198.727 332.414ZM200.86 337.172H202.196C202.076 337.891 201.701 338.482 201.071 338.945C200.446 339.409 199.693 339.641 198.813 339.641C197.651 339.641 196.737 339.266 196.071 338.516C195.404 337.766 195.071 336.75 195.071 335.469C195.071 334.198 195.404 333.174 196.071 332.398C196.742 331.622 197.636 331.234 198.75 331.234C199.844 331.234 200.709 331.602 201.344 332.336C201.979 333.07 202.297 334.055 202.297 335.289V335.805H196.469V335.883C196.469 336.664 196.683 337.289 197.11 337.758C197.537 338.227 198.115 338.461 198.844 338.461C199.354 338.461 199.789 338.344 200.149 338.109C200.508 337.875 200.745 337.562 200.86 337.172ZM210.851 332.414C210.221 332.414 209.698 332.633 209.281 333.07C208.869 333.503 208.643 334.06 208.601 334.742H213.015C213 334.055 212.794 333.495 212.398 333.062C212.002 332.63 211.487 332.414 210.851 332.414ZM212.984 337.172H214.32C214.2 337.891 213.825 338.482 213.195 338.945C212.57 339.409 211.817 339.641 210.937 339.641C209.776 339.641 208.862 339.266 208.195 338.516C207.528 337.766 207.195 336.75 207.195 335.469C207.195 334.198 207.528 333.174 208.195 332.398C208.867 331.622 209.76 331.234 210.875 331.234C211.968 331.234 212.833 331.602 213.468 332.336C214.104 333.07 214.422 334.055 214.422 335.289V335.805H208.593V335.883C208.593 336.664 208.807 337.289 209.234 337.758C209.661 338.227 210.239 338.461 210.968 338.461C211.479 338.461 211.914 338.344 212.273 338.109C212.633 337.875 212.869 337.562 212.984 337.172ZM215.976 333.617C215.976 332.919 216.257 332.349 216.82 331.906C217.387 331.458 218.117 331.234 219.007 331.234C219.846 331.234 220.544 331.458 221.101 331.906C221.658 332.354 221.952 332.922 221.984 333.609H220.687C220.64 333.214 220.463 332.904 220.156 332.68C219.854 332.456 219.455 332.344 218.96 332.344C218.466 332.344 218.067 332.456 217.765 332.68C217.463 332.898 217.312 333.188 217.312 333.547C217.312 334.099 217.762 334.49 218.663 334.719L219.921 335.023C220.739 335.232 221.314 335.503 221.648 335.836C221.986 336.164 222.156 336.628 222.156 337.227C222.156 337.935 221.854 338.516 221.249 338.969C220.645 339.417 219.869 339.641 218.921 339.641C218.036 339.641 217.304 339.422 216.726 338.984C216.153 338.542 215.83 337.958 215.757 337.234H217.117C217.268 338.099 217.898 338.531 219.007 338.531C219.554 338.531 219.986 338.424 220.304 338.211C220.627 337.992 220.788 337.698 220.788 337.328C220.788 337.036 220.692 336.805 220.499 336.633C220.312 336.461 219.992 336.315 219.538 336.195L218.109 335.828C216.687 335.464 215.976 334.727 215.976 333.617ZM230.64 334.039H229.312C229.207 333.57 228.976 333.185 228.616 332.883C228.262 332.581 227.801 332.43 227.233 332.43C226.525 332.43 225.955 332.703 225.523 333.25C225.09 333.792 224.874 334.521 224.874 335.438C224.874 336.37 225.09 337.104 225.523 337.641C225.96 338.177 226.536 338.445 227.249 338.445C227.796 338.445 228.246 338.31 228.601 338.039C228.96 337.763 229.2 337.378 229.319 336.883H230.655C230.551 337.695 230.184 338.359 229.554 338.875C228.929 339.385 228.158 339.641 227.241 339.641C226.106 339.641 225.197 339.266 224.515 338.516C223.832 337.76 223.491 336.734 223.491 335.438C223.491 334.161 223.832 333.143 224.515 332.383C225.197 331.617 226.101 331.234 227.226 331.234C228.194 331.234 228.981 331.508 229.585 332.055C230.194 332.602 230.546 333.263 230.64 334.039ZM232.225 339.5V331.375H233.507V332.703H233.538C233.673 332.25 233.915 331.893 234.264 331.633C234.619 331.367 235.033 331.234 235.507 331.234C235.616 331.234 235.798 331.253 236.053 331.289V332.609C235.908 332.557 235.665 332.531 235.327 332.531C234.801 332.531 234.379 332.706 234.061 333.055C233.744 333.404 233.585 333.865 233.585 334.438V339.5H232.225ZM240.459 339.641C239.324 339.641 238.413 339.263 237.725 338.508C237.038 337.747 236.694 336.724 236.694 335.438C236.694 334.151 237.038 333.13 237.725 332.375C238.413 331.615 239.324 331.234 240.459 331.234C241.59 331.234 242.498 331.615 243.186 332.375C243.873 333.13 244.217 334.151 244.217 335.438C244.217 336.719 243.873 337.74 243.186 338.5C242.498 339.26 241.59 339.641 240.459 339.641ZM238.717 337.648C239.149 338.18 239.73 338.445 240.459 338.445C241.189 338.445 241.767 338.182 242.194 337.656C242.621 337.125 242.834 336.385 242.834 335.438C242.834 334.49 242.621 333.753 242.194 333.227C241.767 332.695 241.189 332.43 240.459 332.43C239.73 332.43 239.149 332.695 238.717 333.227C238.29 333.758 238.077 334.495 238.077 335.438C238.077 336.38 238.29 337.117 238.717 337.648ZM256.248 331.375L253.982 339.5H252.6L250.764 333.211H250.732L248.904 339.5H247.522L245.248 331.375H246.6L248.225 337.984H248.256L250.092 331.375H251.404L253.248 337.984H253.279L254.904 331.375H256.248ZM267.958 331.375V339.5H266.669V338.18H266.638C266.133 339.154 265.274 339.641 264.06 339.641C263.18 339.641 262.49 339.375 261.99 338.844C261.495 338.307 261.247 337.576 261.247 336.648V331.375H262.607V336.406C262.607 337.76 263.232 338.438 264.482 338.438C265.138 338.438 265.654 338.232 266.029 337.82C266.409 337.404 266.599 336.846 266.599 336.148V331.375H267.958ZM270.044 339.5V331.375H271.325V332.672H271.357C271.591 332.219 271.927 331.867 272.364 331.617C272.802 331.362 273.325 331.234 273.935 331.234C274.82 331.234 275.51 331.503 276.005 332.039C276.5 332.57 276.747 333.299 276.747 334.227V339.5H275.388V334.469C275.388 333.807 275.232 333.305 274.919 332.961C274.607 332.612 274.14 332.438 273.521 332.438C272.88 332.438 272.367 332.646 271.982 333.062C271.596 333.479 271.403 334.031 271.403 334.719V339.5H270.044ZM279.239 329.414H280.598V331.375H282.177V332.492H280.598V337.32C280.598 337.69 280.679 337.964 280.841 338.141C281.002 338.312 281.257 338.398 281.606 338.398C281.825 338.398 282.012 338.385 282.169 338.359V339.5C281.992 339.542 281.705 339.562 281.309 339.562C280.565 339.562 280.033 339.396 279.716 339.062C279.398 338.729 279.239 338.172 279.239 337.391V332.492H278.028V331.375H279.239V329.414ZM284.02 339.5V331.375H285.379V339.5H284.02ZM284.7 330.008C284.471 330.008 284.273 329.924 284.106 329.758C283.939 329.591 283.856 329.393 283.856 329.164C283.856 328.93 283.939 328.732 284.106 328.57C284.273 328.404 284.471 328.32 284.7 328.32C284.934 328.32 285.135 328.404 285.301 328.57C285.468 328.732 285.551 328.93 285.551 329.164C285.551 329.393 285.468 329.591 285.301 329.758C285.135 329.924 284.934 330.008 284.7 330.008ZM287.606 339.5V328.227H288.965V339.5H287.606ZM297.402 338.484C298.042 338.484 298.579 338.286 299.011 337.891C299.449 337.49 299.667 336.997 299.667 336.414V335.75L297.496 335.883C296.949 335.919 296.524 336.052 296.222 336.281C295.925 336.51 295.777 336.818 295.777 337.203C295.777 337.589 295.925 337.898 296.222 338.133C296.519 338.367 296.912 338.484 297.402 338.484ZM297.097 339.641C296.29 339.641 295.636 339.417 295.136 338.969C294.641 338.521 294.394 337.932 294.394 337.203C294.394 336.505 294.649 335.948 295.16 335.531C295.675 335.115 296.402 334.88 297.339 334.828L299.667 334.695V334.016C299.667 333.521 299.511 333.133 299.199 332.852C298.886 332.57 298.449 332.43 297.886 332.43C297.371 332.43 296.951 332.544 296.628 332.773C296.306 332.997 296.1 333.312 296.011 333.719H294.699C294.746 332.995 295.058 332.401 295.636 331.938C296.22 331.469 296.98 331.234 297.917 331.234C298.871 331.234 299.626 331.474 300.183 331.953C300.746 332.432 301.027 333.076 301.027 333.883V339.5H299.738V338.102H299.707C299.462 338.565 299.102 338.938 298.628 339.219C298.154 339.5 297.644 339.641 297.097 339.641ZM307.112 329.414H308.472V331.375H310.05V332.492H308.472V337.32C308.472 337.69 308.552 337.964 308.714 338.141C308.875 338.312 309.13 338.398 309.479 338.398C309.698 338.398 309.886 338.385 310.042 338.359V339.5C309.865 339.542 309.578 339.562 309.182 339.562C308.438 339.562 307.906 339.396 307.589 339.062C307.271 338.729 307.112 338.172 307.112 337.391V332.492H305.901V331.375H307.112V329.414ZM311.823 339.5V331.375H313.104V332.703H313.135C313.271 332.25 313.513 331.893 313.862 331.633C314.216 331.367 314.63 331.234 315.104 331.234C315.213 331.234 315.396 331.253 315.651 331.289V332.609C315.505 332.557 315.263 332.531 314.924 332.531C314.398 332.531 313.976 332.706 313.659 333.055C313.341 333.404 313.182 333.865 313.182 334.438V339.5H311.823ZM319.604 338.484C320.244 338.484 320.781 338.286 321.213 337.891C321.651 337.49 321.869 336.997 321.869 336.414V335.75L319.698 335.883C319.151 335.919 318.726 336.052 318.424 336.281C318.127 336.51 317.979 336.818 317.979 337.203C317.979 337.589 318.127 337.898 318.424 338.133C318.721 338.367 319.114 338.484 319.604 338.484ZM319.299 339.641C318.492 339.641 317.838 339.417 317.338 338.969C316.843 338.521 316.596 337.932 316.596 337.203C316.596 336.505 316.851 335.948 317.362 335.531C317.877 335.115 318.604 334.88 319.541 334.828L321.869 334.695V334.016C321.869 333.521 321.713 333.133 321.401 332.852C321.088 332.57 320.651 332.43 320.088 332.43C319.573 332.43 319.153 332.544 318.83 332.773C318.507 332.997 318.302 333.312 318.213 333.719H316.901C316.948 332.995 317.26 332.401 317.838 331.938C318.421 331.469 319.182 331.234 320.119 331.234C321.073 331.234 321.828 331.474 322.385 331.953C322.948 332.432 323.229 333.076 323.229 333.883V339.5H321.94V338.102H321.908C321.664 338.565 321.304 338.938 320.83 339.219C320.356 339.5 319.846 339.641 319.299 339.641ZM328.353 339.641C327.312 339.641 326.471 339.258 325.83 338.492C325.195 337.727 324.877 336.708 324.877 335.438C324.877 334.172 325.195 333.156 325.83 332.391C326.465 331.62 327.296 331.234 328.322 331.234C328.895 331.234 329.408 331.365 329.861 331.625C330.314 331.885 330.663 332.242 330.908 332.695H330.939V328.227H332.299V339.5H331.002V338.125H330.978C330.713 338.599 330.353 338.971 329.9 339.242C329.447 339.508 328.932 339.641 328.353 339.641ZM328.611 332.43C327.892 332.43 327.322 332.703 326.9 333.25C326.478 333.792 326.267 334.521 326.267 335.438C326.267 336.359 326.478 337.091 326.9 337.633C327.322 338.174 327.892 338.445 328.611 338.445C329.314 338.445 329.879 338.172 330.307 337.625C330.734 337.073 330.947 336.344 330.947 335.438C330.947 334.531 330.731 333.805 330.299 333.258C329.872 332.706 329.309 332.43 328.611 332.43ZM337.712 332.414C337.082 332.414 336.559 332.633 336.142 333.07C335.731 333.503 335.504 334.06 335.462 334.742H339.877C339.861 334.055 339.655 333.495 339.259 333.062C338.864 332.63 338.348 332.414 337.712 332.414ZM339.845 337.172H341.181C341.061 337.891 340.686 338.482 340.056 338.945C339.431 339.409 338.679 339.641 337.798 339.641C336.637 339.641 335.723 339.266 335.056 338.516C334.39 337.766 334.056 336.75 334.056 335.469C334.056 334.198 334.39 333.174 335.056 332.398C335.728 331.622 336.621 331.234 337.736 331.234C338.83 331.234 339.694 331.602 340.33 332.336C340.965 333.07 341.283 334.055 341.283 335.289V335.805H335.455V335.883C335.455 336.664 335.668 337.289 336.095 337.758C336.522 338.227 337.101 338.461 337.83 338.461C338.34 338.461 338.775 338.344 339.134 338.109C339.494 337.875 339.731 337.562 339.845 337.172ZM346.649 339.5V331.375H348.009V339.5H346.649ZM347.329 330.008C347.1 330.008 346.902 329.924 346.735 329.758C346.569 329.591 346.485 329.393 346.485 329.164C346.485 328.93 346.569 328.732 346.735 328.57C346.902 328.404 347.1 328.32 347.329 328.32C347.563 328.32 347.764 328.404 347.931 328.57C348.097 328.732 348.181 328.93 348.181 329.164C348.181 329.393 348.097 329.591 347.931 329.758C347.764 329.924 347.563 330.008 347.329 330.008ZM350.024 333.617C350.024 332.919 350.305 332.349 350.868 331.906C351.436 331.458 352.165 331.234 353.055 331.234C353.894 331.234 354.592 331.458 355.149 331.906C355.706 332.354 356.001 332.922 356.032 333.609H354.735C354.688 333.214 354.511 332.904 354.204 332.68C353.902 332.456 353.503 332.344 353.008 332.344C352.514 332.344 352.115 332.456 351.813 332.68C351.511 332.898 351.36 333.188 351.36 333.547C351.36 334.099 351.811 334.49 352.712 334.719L353.969 335.023C354.787 335.232 355.363 335.503 355.696 335.836C356.034 336.164 356.204 336.628 356.204 337.227C356.204 337.935 355.902 338.516 355.297 338.969C354.693 339.417 353.917 339.641 352.969 339.641C352.084 339.641 351.352 339.422 350.774 338.984C350.201 338.542 349.878 337.958 349.805 337.234H351.165C351.316 338.099 351.946 338.531 353.055 338.531C353.602 338.531 354.034 338.424 354.352 338.211C354.675 337.992 354.837 337.698 354.837 337.328C354.837 337.036 354.74 336.805 354.547 336.633C354.36 336.461 354.04 336.315 353.587 336.195L352.157 335.828C350.735 335.464 350.024 334.727 350.024 333.617ZM361.398 333.617C361.398 332.919 361.68 332.349 362.242 331.906C362.81 331.458 363.539 331.234 364.43 331.234C365.268 331.234 365.966 331.458 366.523 331.906C367.081 332.354 367.375 332.922 367.406 333.609H366.109C366.062 333.214 365.885 332.904 365.578 332.68C365.276 332.456 364.878 332.344 364.383 332.344C363.888 332.344 363.49 332.456 363.188 332.68C362.885 332.898 362.734 333.188 362.734 333.547C362.734 334.099 363.185 334.49 364.086 334.719L365.344 335.023C366.161 335.232 366.737 335.503 367.07 335.836C367.409 336.164 367.578 336.628 367.578 337.227C367.578 337.935 367.276 338.516 366.672 338.969C366.068 339.417 365.292 339.641 364.344 339.641C363.458 339.641 362.727 339.422 362.148 338.984C361.576 338.542 361.253 337.958 361.18 337.234H362.539C362.69 338.099 363.32 338.531 364.43 338.531C364.977 338.531 365.409 338.424 365.727 338.211C366.049 337.992 366.211 337.698 366.211 337.328C366.211 337.036 366.115 336.805 365.922 336.633C365.734 336.461 365.414 336.315 364.961 336.195L363.531 335.828C362.109 335.464 361.398 334.727 361.398 333.617ZM375.984 331.375V339.5H374.695V338.18H374.664C374.159 339.154 373.299 339.641 372.086 339.641C371.205 339.641 370.515 339.375 370.015 338.844C369.521 338.307 369.273 337.576 369.273 336.648V331.375H370.633V336.406C370.633 337.76 371.258 338.438 372.508 338.438C373.164 338.438 373.679 338.232 374.054 337.82C374.435 337.404 374.625 336.846 374.625 336.148V331.375H375.984ZM384.82 334.039H383.492C383.387 333.57 383.156 333.185 382.796 332.883C382.442 332.581 381.981 332.43 381.413 332.43C380.705 332.43 380.135 332.703 379.703 333.25C379.27 333.792 379.054 334.521 379.054 335.438C379.054 336.37 379.27 337.104 379.703 337.641C380.14 338.177 380.716 338.445 381.429 338.445C381.976 338.445 382.426 338.31 382.781 338.039C383.14 337.763 383.38 337.378 383.499 336.883H384.835C384.731 337.695 384.364 338.359 383.734 338.875C383.109 339.385 382.338 339.641 381.421 339.641C380.286 339.641 379.377 339.266 378.695 338.516C378.012 337.76 377.671 336.734 377.671 335.438C377.671 334.161 378.012 333.143 378.695 332.383C379.377 331.617 380.281 331.234 381.406 331.234C382.374 331.234 383.161 331.508 383.765 332.055C384.374 332.602 384.726 333.263 384.82 334.039ZM393.155 334.039H391.827C391.723 333.57 391.491 333.185 391.132 332.883C390.778 332.581 390.317 332.43 389.749 332.43C389.041 332.43 388.47 332.703 388.038 333.25C387.606 333.792 387.39 334.521 387.39 335.438C387.39 336.37 387.606 337.104 388.038 337.641C388.476 338.177 389.051 338.445 389.765 338.445C390.312 338.445 390.762 338.31 391.116 338.039C391.476 337.763 391.715 337.378 391.835 336.883H393.171C393.067 337.695 392.7 338.359 392.069 338.875C391.444 339.385 390.674 339.641 389.757 339.641C388.621 339.641 387.713 339.266 387.03 338.516C386.348 337.76 386.007 336.734 386.007 335.438C386.007 334.161 386.348 333.143 387.03 332.383C387.713 331.617 388.616 331.234 389.741 331.234C390.71 331.234 391.496 331.508 392.101 332.055C392.71 332.602 393.062 333.263 393.155 334.039ZM397.999 332.414C397.369 332.414 396.845 332.633 396.428 333.07C396.017 333.503 395.79 334.06 395.749 334.742H400.163C400.147 334.055 399.941 333.495 399.546 333.062C399.15 332.63 398.634 332.414 397.999 332.414ZM400.132 337.172H401.467C401.348 337.891 400.973 338.482 400.342 338.945C399.717 339.409 398.965 339.641 398.085 339.641C396.923 339.641 396.009 339.266 395.342 338.516C394.676 337.766 394.342 336.75 394.342 335.469C394.342 334.198 394.676 333.174 395.342 332.398C396.014 331.622 396.908 331.234 398.022 331.234C399.116 331.234 399.981 331.602 400.616 332.336C401.251 333.07 401.569 334.055 401.569 335.289V335.805H395.741V335.883C395.741 336.664 395.954 337.289 396.382 337.758C396.809 338.227 397.387 338.461 398.116 338.461C398.626 338.461 399.061 338.344 399.421 338.109C399.78 337.875 400.017 337.562 400.132 337.172ZM403.123 333.617C403.123 332.919 403.405 332.349 403.967 331.906C404.535 331.458 405.264 331.234 406.155 331.234C406.993 331.234 407.691 331.458 408.248 331.906C408.806 332.354 409.1 332.922 409.131 333.609H407.834C407.788 333.214 407.61 332.904 407.303 332.68C407.001 332.456 406.603 332.344 406.108 332.344C405.613 332.344 405.215 332.456 404.913 332.68C404.61 332.898 404.459 333.188 404.459 333.547C404.459 334.099 404.91 334.49 405.811 334.719L407.069 335.023C407.886 335.232 408.462 335.503 408.795 335.836C409.134 336.164 409.303 336.628 409.303 337.227C409.303 337.935 409.001 338.516 408.397 338.969C407.793 339.417 407.017 339.641 406.069 339.641C405.183 339.641 404.452 339.422 403.873 338.984C403.301 338.542 402.978 337.958 402.905 337.234H404.264C404.415 338.099 405.045 338.531 406.155 338.531C406.702 338.531 407.134 338.424 407.452 338.211C407.774 337.992 407.936 337.698 407.936 337.328C407.936 337.036 407.84 336.805 407.647 336.633C407.459 336.461 407.139 336.315 406.686 336.195L405.256 335.828C403.834 335.464 403.123 334.727 403.123 333.617ZM410.897 333.617C410.897 332.919 411.178 332.349 411.74 331.906C412.308 331.458 413.037 331.234 413.928 331.234C414.766 331.234 415.464 331.458 416.022 331.906C416.579 332.354 416.873 332.922 416.904 333.609H415.608C415.561 333.214 415.384 332.904 415.076 332.68C414.774 332.456 414.376 332.344 413.881 332.344C413.386 332.344 412.988 332.456 412.686 332.68C412.384 332.898 412.233 333.188 412.233 333.547C412.233 334.099 412.683 334.49 413.584 334.719L414.842 335.023C415.66 335.232 416.235 335.503 416.568 335.836C416.907 336.164 417.076 336.628 417.076 337.227C417.076 337.935 416.774 338.516 416.17 338.969C415.566 339.417 414.79 339.641 413.842 339.641C412.956 339.641 412.225 339.422 411.647 338.984C411.074 338.542 410.751 337.958 410.678 337.234H412.037C412.188 338.099 412.818 338.531 413.928 338.531C414.475 338.531 414.907 338.424 415.225 338.211C415.548 337.992 415.709 337.698 415.709 337.328C415.709 337.036 415.613 336.805 415.42 336.633C415.233 336.461 414.912 336.315 414.459 336.195L413.029 335.828C411.608 335.464 410.897 334.727 410.897 333.617ZM419.248 339.5V332.492H418.115V331.375H419.248V330.469C419.248 329.688 419.43 329.109 419.795 328.734C420.164 328.354 420.724 328.164 421.474 328.164C421.766 328.164 422.042 328.185 422.302 328.227V329.328C422.084 329.297 421.878 329.281 421.685 329.281C420.961 329.281 420.599 329.68 420.599 330.477V331.375H422.263V332.492H420.607V339.5H419.248ZM430.662 331.375V339.5H429.372V338.18H429.341C428.836 339.154 427.977 339.641 426.763 339.641C425.883 339.641 425.193 339.375 424.693 338.844C424.198 338.307 423.951 337.576 423.951 336.648V331.375H425.31V336.406C425.31 337.76 425.935 338.438 427.185 338.438C427.841 338.438 428.357 338.232 428.732 337.82C429.112 337.404 429.302 336.846 429.302 336.148V331.375H430.662ZM432.818 339.5V328.227H434.177V339.5H432.818ZM436.403 339.5V328.227H437.763V339.5H436.403ZM440.59 342.539C440.351 342.539 440.155 342.523 440.004 342.492V341.352C440.129 341.378 440.306 341.391 440.536 341.391C440.916 341.391 441.221 341.289 441.45 341.086C441.679 340.888 441.872 340.552 442.028 340.078L442.215 339.508L439.215 331.375H440.668L442.918 338.141H442.942L445.192 331.375H446.622L443.426 340.07C443.077 341.018 442.7 341.667 442.293 342.016C441.892 342.365 441.325 342.539 440.59 342.539ZM458.371 334.039H457.043C456.939 333.57 456.707 333.185 456.348 332.883C455.993 332.581 455.532 332.43 454.965 332.43C454.256 332.43 453.686 332.703 453.254 333.25C452.821 333.792 452.605 334.521 452.605 335.438C452.605 336.37 452.821 337.104 453.254 337.641C453.691 338.177 454.267 338.445 454.98 338.445C455.527 338.445 455.978 338.31 456.332 338.039C456.691 337.763 456.931 337.378 457.051 336.883H458.387C458.282 337.695 457.915 338.359 457.285 338.875C456.66 339.385 455.889 339.641 454.973 339.641C453.837 339.641 452.928 339.266 452.246 338.516C451.564 337.76 451.223 336.734 451.223 335.438C451.223 334.161 451.564 333.143 452.246 332.383C452.928 331.617 453.832 331.234 454.957 331.234C455.926 331.234 456.712 331.508 457.316 332.055C457.926 332.602 458.277 333.263 458.371 334.039ZM463.324 339.641C462.188 339.641 461.277 339.263 460.589 338.508C459.902 337.747 459.558 336.724 459.558 335.438C459.558 334.151 459.902 333.13 460.589 332.375C461.277 331.615 462.188 331.234 463.324 331.234C464.454 331.234 465.363 331.615 466.05 332.375C466.738 333.13 467.082 334.151 467.082 335.438C467.082 336.719 466.738 337.74 466.05 338.5C465.363 339.26 464.454 339.641 463.324 339.641ZM461.582 337.648C462.014 338.18 462.595 338.445 463.324 338.445C464.053 338.445 464.631 338.182 465.058 337.656C465.485 337.125 465.699 336.385 465.699 335.438C465.699 334.49 465.485 333.753 465.058 333.227C464.631 332.695 464.053 332.43 463.324 332.43C462.595 332.43 462.014 332.695 461.582 333.227C461.154 333.758 460.941 334.495 460.941 335.438C460.941 336.38 461.154 337.117 461.582 337.648ZM468.777 339.5V331.375H470.058V332.672H470.089C470.287 332.229 470.586 331.88 470.987 331.625C471.389 331.365 471.857 331.234 472.394 331.234C472.946 331.234 473.42 331.37 473.816 331.641C474.211 331.906 474.498 332.286 474.675 332.781H474.706C474.93 332.297 475.266 331.919 475.714 331.648C476.167 331.372 476.68 331.234 477.253 331.234C478.055 331.234 478.696 331.477 479.175 331.961C479.659 332.44 479.902 333.083 479.902 333.891V339.5H478.542V334.203C478.542 333.646 478.394 333.214 478.097 332.906C477.805 332.594 477.391 332.438 476.855 332.438C476.318 332.438 475.878 332.617 475.534 332.977C475.191 333.331 475.019 333.784 475.019 334.336V339.5H473.659V334.055C473.659 333.565 473.508 333.174 473.206 332.883C472.904 332.586 472.501 332.438 471.995 332.438C471.459 332.438 471.014 332.625 470.659 333C470.31 333.375 470.136 333.844 470.136 334.406V339.5H468.777ZM485.901 331.234C486.943 331.234 487.781 331.617 488.417 332.383C489.057 333.148 489.378 334.167 489.378 335.438C489.378 336.703 489.06 337.721 488.425 338.492C487.789 339.258 486.959 339.641 485.932 339.641C485.36 339.641 484.847 339.51 484.393 339.25C483.94 338.99 483.591 338.633 483.347 338.18H483.315V342.211H481.956V331.375H483.245V332.75H483.276C483.531 332.281 483.888 331.911 484.347 331.641C484.805 331.37 485.323 331.234 485.901 331.234ZM485.636 338.445C486.36 338.445 486.932 338.174 487.354 337.633C487.776 337.091 487.987 336.359 487.987 335.438C487.987 334.516 487.776 333.784 487.354 333.242C486.932 332.701 486.36 332.43 485.636 332.43C484.938 332.43 484.375 332.706 483.948 333.258C483.521 333.81 483.307 334.536 483.307 335.438C483.307 336.344 483.521 337.073 483.948 337.625C484.375 338.172 484.938 338.445 485.636 338.445ZM491.143 339.5V328.227H492.503V339.5H491.143ZM497.916 332.414C497.286 332.414 496.763 332.633 496.346 333.07C495.934 333.503 495.708 334.06 495.666 334.742H500.08C500.065 334.055 499.859 333.495 499.463 333.062C499.067 332.63 498.552 332.414 497.916 332.414ZM500.049 337.172H501.385C501.265 337.891 500.89 338.482 500.26 338.945C499.635 339.409 498.882 339.641 498.002 339.641C496.841 339.641 495.927 339.266 495.26 338.516C494.593 337.766 494.26 336.75 494.26 335.469C494.26 334.198 494.593 333.174 495.26 332.398C495.932 331.622 496.825 331.234 497.94 331.234C499.033 331.234 499.898 331.602 500.533 332.336C501.169 333.07 501.487 334.055 501.487 335.289V335.805H495.658V335.883C495.658 336.664 495.872 337.289 496.299 337.758C496.726 338.227 497.304 338.461 498.033 338.461C498.544 338.461 498.979 338.344 499.338 338.109C499.698 337.875 499.934 337.562 500.049 337.172ZM503.619 329.414H504.978V331.375H506.557V332.492H504.978V337.32C504.978 337.69 505.059 337.964 505.221 338.141C505.382 338.312 505.637 338.398 505.986 338.398C506.205 338.398 506.392 338.385 506.549 338.359V339.5C506.372 339.542 506.085 339.562 505.689 339.562C504.945 339.562 504.413 339.396 504.096 339.062C503.778 338.729 503.619 338.172 503.619 337.391V332.492H502.408V331.375H503.619V329.414ZM511.353 332.414C510.723 332.414 510.199 332.633 509.783 333.07C509.371 333.503 509.145 334.06 509.103 334.742H513.517C513.502 334.055 513.296 333.495 512.9 333.062C512.504 332.63 511.989 332.414 511.353 332.414ZM513.486 337.172H514.822C514.702 337.891 514.327 338.482 513.697 338.945C513.072 339.409 512.319 339.641 511.439 339.641C510.278 339.641 509.364 339.266 508.697 338.516C508.03 337.766 507.697 336.75 507.697 335.469C507.697 334.198 508.03 333.174 508.697 332.398C509.369 331.622 510.262 331.234 511.377 331.234C512.47 331.234 513.335 331.602 513.97 332.336C514.606 333.07 514.923 334.055 514.923 335.289V335.805H509.095V335.883C509.095 336.664 509.309 337.289 509.736 337.758C510.163 338.227 510.741 338.461 511.47 338.461C511.981 338.461 512.416 338.344 512.775 338.109C513.134 337.875 513.371 337.562 513.486 337.172ZM519.697 339.641C518.655 339.641 517.814 339.258 517.173 338.492C516.538 337.727 516.22 336.708 516.22 335.438C516.22 334.172 516.538 333.156 517.173 332.391C517.809 331.62 518.639 331.234 519.665 331.234C520.238 331.234 520.751 331.365 521.204 331.625C521.658 331.885 522.006 332.242 522.251 332.695H522.283V328.227H523.642V339.5H522.345V338.125H522.322C522.056 338.599 521.697 338.971 521.243 339.242C520.79 339.508 520.275 339.641 519.697 339.641ZM519.954 332.43C519.236 332.43 518.665 332.703 518.243 333.25C517.822 333.792 517.611 334.521 517.611 335.438C517.611 336.359 517.822 337.091 518.243 337.633C518.665 338.174 519.236 338.445 519.954 338.445C520.658 338.445 521.223 338.172 521.65 337.625C522.077 337.073 522.29 336.344 522.29 335.438C522.29 334.531 522.074 333.805 521.642 333.258C521.215 332.706 520.652 332.43 519.954 332.43ZM527.579 339.32C527.407 339.492 527.196 339.578 526.946 339.578C526.696 339.578 526.485 339.492 526.313 339.32C526.142 339.148 526.056 338.938 526.056 338.688C526.056 338.438 526.142 338.227 526.313 338.055C526.485 337.883 526.696 337.797 526.946 337.797C527.196 337.797 527.407 337.883 527.579 338.055C527.751 338.227 527.837 338.438 527.837 338.688C527.837 338.938 527.751 339.148 527.579 339.32Z" fill="#64748B"/>
<g filter="url(#filter0_d_4140_72430)">
<rect x="91.541" y="27.9722" width="298.836" height="69.4543" rx="9.13872" transform="rotate(-2.85 91.541 27.9722)" fill="white" shape-rendering="crispEdges"/>
<path d="M147.706 64.3731C145.754 74.2739 136.144 80.7187 126.241 78.767C116.342 76.8157 109.897 67.2063 111.85 57.3062C113.8 47.4043 123.41 40.9591 133.31 42.9104C143.212 44.8615 149.657 54.4719 147.706 64.3733L147.706 64.3731L147.706 64.3731Z" fill="#F7931A"/>
<path fill-rule="evenodd" clip-rule="evenodd" d="M137.698 57.8371C137.941 55.3897 136.026 54.1759 133.453 53.4307L134.11 50.0991L132.082 49.6997L131.443 52.9436C130.909 52.8384 130.362 52.7416 129.819 52.6457L130.463 49.3804L128.436 48.9809L127.778 52.3115C127.338 52.2339 126.905 52.1572 126.484 52.0745L126.486 52.0641L123.689 51.5118L123.263 53.6778C123.263 53.6778 124.766 53.9445 124.736 53.967C125.557 54.1291 125.73 54.6588 125.727 55.0856L124.979 58.881C125.036 58.8924 125.109 58.9094 125.191 58.9375L125.132 58.9259C125.082 58.916 125.03 58.9057 124.976 58.8957L123.928 64.2126C123.841 64.464 123.608 64.8463 123.033 64.7341C123.055 64.7622 121.559 64.4433 121.559 64.4433L120.679 66.7858L123.318 67.3058C123.607 67.3632 123.893 67.4227 124.176 67.4816C124.374 67.5228 124.57 67.5636 124.765 67.6032L124.102 70.973L126.127 71.3725L126.785 68.0385C127.339 68.1597 127.876 68.2701 128.402 68.3733L127.747 71.6917L129.775 72.0911L130.439 68.7276C133.887 69.204 136.443 68.8154 137.37 65.672C138.117 63.1411 137.131 61.7519 135.288 60.9057C136.582 60.5387 137.525 59.6287 137.699 57.8373L137.698 57.8369L137.698 57.8371ZM133.441 64.4828C132.986 66.7933 129.367 66.0276 127.71 65.6773L127.71 65.6773C127.561 65.6458 127.428 65.6176 127.315 65.5954L128.195 61.131C128.334 61.1583 128.503 61.1874 128.694 61.2204L128.694 61.2204C130.403 61.5157 133.906 62.1205 133.441 64.4828L133.441 64.4828ZM128.931 59.1569C130.312 59.4527 133.324 60.098 133.739 57.998L133.739 57.998C134.162 55.8503 131.241 55.3545 129.814 55.1124C129.654 55.0851 129.512 55.0611 129.396 55.0383L128.598 59.0872C128.694 59.106 128.805 59.13 128.931 59.1569Z" fill="white"/>
<path d="M163.29 54.3366L162.832 45.1362L166.481 44.9545C167.103 44.9236 167.618 45.0239 168.026 45.2555C168.439 45.4826 168.751 45.7852 168.962 46.1633C169.177 46.5411 169.295 46.9366 169.316 47.3498C169.341 47.8567 169.241 48.2929 169.016 48.6585C168.795 49.0239 168.481 49.2787 168.074 49.4228L168.058 49.1033C168.644 49.2065 169.096 49.4594 169.415 49.862C169.738 50.2644 169.913 50.7318 169.94 51.2642C169.967 51.8094 169.886 52.2917 169.698 52.711C169.509 53.1303 169.214 53.4652 168.813 53.7158C168.415 53.9662 167.914 54.1064 167.309 54.1365L163.29 54.3366ZM164.777 52.8086L167.045 52.6957C167.314 52.6824 167.552 52.6171 167.759 52.5C167.967 52.3787 168.125 52.2171 168.235 52.0152C168.348 51.8089 168.398 51.5694 168.385 51.2968C168.373 51.0497 168.308 50.8309 168.192 50.6403C168.076 50.4496 167.913 50.3019 167.702 50.1971C167.492 50.088 167.244 50.0405 166.959 50.0548L164.646 50.1699L164.777 52.8086ZM164.574 48.7323L166.644 48.6293C166.866 48.6182 167.062 48.5658 167.232 48.4719C167.403 48.378 167.535 48.2455 167.629 48.0743C167.723 47.9031 167.764 47.6961 167.752 47.4533C167.736 47.1338 167.62 46.8727 167.405 46.6699C167.19 46.4671 166.899 46.3748 166.533 46.3931L164.463 46.4961L164.574 48.7323ZM171.084 45.9808L171.014 44.5687L172.553 44.4921L172.624 45.9041L171.084 45.9808ZM171.48 53.9289L171.136 47.0286L172.676 46.9519L173.019 53.8523L171.48 53.9289ZM178.978 53.5556C178.526 53.6635 178.081 53.722 177.641 53.731C177.206 53.7442 176.813 53.6848 176.46 53.5529C176.108 53.4167 175.834 53.1891 175.639 52.87C175.466 52.5797 175.368 52.2793 175.344 51.9688C175.32 51.6582 175.298 51.307 175.279 50.9152L174.98 44.9157L176.513 44.8394L176.808 50.7494C176.821 51.0262 176.836 51.2689 176.85 51.4774C176.869 51.6857 176.922 51.8539 177.01 51.9819C177.176 52.2298 177.428 52.3603 177.766 52.3734C178.104 52.3865 178.486 52.3503 178.913 52.265L178.978 53.5556ZM173.883 48.1024L173.823 46.8948L178.634 46.6553L178.694 47.8629L173.883 48.1024ZM183.118 53.5417C182.407 53.5771 181.792 53.4497 181.274 53.1595C180.755 52.8651 180.348 52.4498 180.052 51.9137C179.761 51.3774 179.596 50.7622 179.557 50.0681C179.526 49.3608 179.633 48.7278 179.879 48.169C180.128 47.6057 180.499 47.156 180.99 46.8198C181.481 46.4794 182.076 46.2918 182.775 46.257C183.558 46.218 184.231 46.3831 184.791 46.7523C185.356 47.117 185.738 47.636 185.938 48.3093L184.426 48.8009C184.288 48.4363 184.076 48.1586 183.789 47.9679C183.501 47.773 183.181 47.6843 182.827 47.7019C182.427 47.7219 182.102 47.8341 181.851 48.0388C181.601 48.2391 181.422 48.5085 181.315 48.8469C181.208 49.1853 181.165 49.5653 181.186 49.987C181.219 50.6429 181.392 51.1659 181.706 51.5559C182.02 51.946 182.467 52.1265 183.046 52.0977C183.455 52.0774 183.772 51.9676 183.997 51.7686C184.226 51.5693 184.392 51.2899 184.493 50.9304L186.083 51.2036C185.905 51.917 185.559 52.4765 185.045 52.8821C184.531 53.2834 183.889 53.5033 183.118 53.5417ZM190.332 53.1825C189.642 53.2169 189.032 53.0914 188.501 52.8061C187.97 52.5209 187.548 52.1127 187.236 51.5817C186.927 51.0462 186.755 50.4228 186.72 49.7115C186.684 48.9874 186.797 48.3455 187.059 47.7859C187.322 47.2263 187.703 46.7803 188.203 46.4479C188.704 46.1156 189.292 45.9326 189.969 45.8989C190.664 45.8643 191.276 45.9896 191.807 46.2749C192.338 46.5602 192.76 46.9705 193.073 47.5057C193.385 48.0368 193.559 48.6579 193.595 49.3692C193.63 50.0848 193.517 50.7246 193.255 51.2885C192.996 51.8479 192.617 52.2959 192.117 52.6325C191.617 52.9648 191.022 53.1482 190.332 53.1825ZM190.26 51.7386C190.874 51.708 191.319 51.4809 191.597 51.0571C191.875 50.6334 191.998 50.0978 191.965 49.4504C191.932 48.7816 191.754 48.2567 191.432 47.8756C191.11 47.4903 190.646 47.3127 190.041 47.3428C189.628 47.3634 189.292 47.474 189.033 47.6748C188.778 47.8711 188.595 48.1386 188.484 48.4772C188.372 48.8115 188.327 49.1959 188.349 49.6304C188.382 50.2991 188.56 50.8262 188.883 51.2115C189.209 51.5924 189.668 51.768 190.26 51.7386ZM194.906 44.7948L194.836 43.3828L196.376 43.3061L196.446 44.7182L194.906 44.7948ZM195.302 52.743L194.958 45.8426L196.498 45.766L196.842 52.6663L195.302 52.743ZM203.528 52.3334L203.363 49.0111C203.352 48.7938 203.325 48.5539 203.282 48.2913C203.239 48.0287 203.156 47.7788 203.033 47.5415C202.915 47.2997 202.743 47.1055 202.518 46.9587C202.297 46.8117 202.003 46.7473 201.637 46.7655C201.441 46.7753 201.249 46.8169 201.06 46.8903C200.872 46.9638 200.703 47.0832 200.553 47.2486C200.407 47.4096 200.294 47.6287 200.214 47.906C200.134 48.179 200.104 48.5264 200.125 48.9481L199.192 48.6038C199.163 48.016 199.249 47.4779 199.451 46.9897C199.657 46.5011 199.975 46.1053 200.404 45.8021C200.833 45.4947 201.371 45.3248 202.018 45.2926C202.53 45.2672 202.955 45.3314 203.296 45.4852C203.637 45.639 203.912 45.8431 204.121 46.0975C204.33 46.3518 204.489 46.6257 204.597 46.9192C204.706 47.2127 204.78 47.493 204.819 47.7601C204.861 48.0227 204.887 48.237 204.895 48.4031L205.087 52.2558L203.528 52.3334ZM198.743 52.5717L198.399 45.6713L199.773 45.603L199.879 47.7433L200.065 47.7341L200.302 52.4941L198.743 52.5717Z" fill="#10192D"/>
<path d="M164.14 73.9741L163.747 66.088L166.792 65.9364C167.234 65.9144 167.624 65.9865 167.961 66.1527C168.299 66.3189 168.567 66.5526 168.765 66.8539C168.963 67.1515 169.071 67.4865 169.089 67.8589C169.111 68.2824 169.016 68.6659 168.806 69.0094C168.596 69.3492 168.305 69.5925 167.931 69.7392L167.907 69.4714C168.425 69.592 168.84 69.8276 169.15 70.1781C169.46 70.5287 169.628 70.9632 169.654 71.4816C169.677 71.938 169.6 72.3371 169.423 72.679C169.246 73.0172 168.986 73.2845 168.645 73.4808C168.303 73.6772 167.9 73.7869 167.437 73.81L164.14 73.9741ZM164.912 73.1616L167.201 73.0476C167.522 73.0316 167.808 72.9607 168.058 72.8348C168.308 72.7052 168.5 72.5309 168.636 72.3119C168.775 72.0927 168.837 71.8334 168.822 71.534C168.808 71.2419 168.727 70.9824 168.58 70.7555C168.434 70.5285 168.24 70.3515 167.999 70.2244C167.762 70.0935 167.496 70.0354 167.2 70.0501L164.763 70.1714L164.912 73.1616ZM164.725 69.4102L166.954 69.2992C167.206 69.2867 167.433 69.2186 167.636 69.0951C167.838 68.9679 167.994 68.8009 168.105 68.5941C168.219 68.3871 168.27 68.1522 168.257 67.8893C168.238 67.5169 168.093 67.2204 167.822 66.9996C167.555 66.7787 167.223 66.6781 166.825 66.6979L164.596 66.8089L164.725 69.4102ZM172.741 73.5459L172.387 66.432L169.632 66.5691L169.593 65.797L175.908 65.4826L175.946 66.2548L173.192 66.3919L173.546 73.5058L172.741 73.5459ZM180.38 73.3303C179.595 73.3694 178.923 73.229 178.366 72.909C177.808 72.5854 177.375 72.122 177.067 71.5188C176.759 70.9156 176.584 70.2106 176.544 69.4038C176.504 68.5969 176.607 67.878 176.854 67.2472C177.101 66.6164 177.486 66.1141 178.009 65.7404C178.532 65.363 179.186 65.1547 179.971 65.1157C180.887 65.07 181.647 65.2683 182.251 65.7103C182.855 66.1488 183.284 66.7569 183.539 67.5348L182.728 67.7893C182.529 67.1733 182.203 66.6936 181.75 66.3501C181.298 66.0067 180.717 65.8526 180.009 65.8878C179.392 65.9186 178.886 66.0847 178.491 66.3861C178.096 66.6876 177.807 67.0955 177.624 67.6096C177.445 68.12 177.368 68.704 177.393 69.3615C177.422 70.0188 177.551 70.5925 177.781 71.0825C178.014 71.5724 178.344 71.9494 178.77 72.2136C179.201 72.474 179.724 72.5889 180.341 72.5582C181.049 72.5229 181.612 72.3119 182.028 71.9252C182.444 71.5348 182.721 71.0251 182.858 70.3961L183.69 70.5688C183.514 71.3681 183.147 72.0177 182.59 72.5176C182.033 73.0138 181.296 73.2847 180.38 73.3303Z" fill="#8E9BAE"/>
<path d="M233.904 57.154C239.515 55.4945 244.367 66.1144 248.1 65.9286C253.326 65.6684 251.823 53.8715 255.501 52.5858C259.614 50.7294 261.745 63.6414 265.039 63.0893C269.274 62.3794 269.416 54.4025 271.224 53.9159C274.033 53.1602 274.728 41.615 277.583 42.5751C280.898 43.6902 285.195 57.0957 288.928 56.9099C292.661 56.724 293.94 51.6703 297.672 51.4843" stroke="#22C36B" stroke-width="1.82774" stroke-linecap="round"/>
<rect x="318.912" y="37.0083" width="53.9185" height="9.13872" rx="4.56936" transform="rotate(-2.85 318.912 37.0083)" fill="#E2E8F0"/>
<path d="M337.91 59.4326L337.806 57.3406L335.714 57.4447L335.674 56.6397L337.766 56.5355L337.662 54.449L338.467 54.4089L338.571 56.4954L340.658 56.3916L340.698 57.1966L338.611 57.3005L338.715 59.3925L337.91 59.4326ZM344.97 60.7007C344.459 60.7261 343.997 60.6338 343.584 60.4238C343.174 60.21 342.842 59.9099 342.589 59.5236C342.339 59.1334 342.201 58.6828 342.176 58.1716L342.032 55.2801C342.006 54.7689 342.099 54.3068 342.309 53.8938C342.522 53.4805 342.822 53.149 343.209 52.8992C343.599 52.6492 344.05 52.5114 344.561 52.486C345.072 52.4605 345.534 52.5528 345.947 52.7629C346.36 52.9729 346.692 53.273 346.942 53.6631C347.192 54.0533 347.33 54.5039 347.355 55.0151L347.499 57.9066C347.524 58.4178 347.432 58.8798 347.222 59.2929C347.012 59.7023 346.712 60.0338 346.322 60.2875C345.932 60.5375 345.481 60.6752 344.97 60.7007ZM344.923 59.7642C345.234 59.7487 345.511 59.6599 345.755 59.4977C346 59.3354 346.191 59.1246 346.328 58.8653C346.465 58.6023 346.526 58.3174 346.51 58.0107L346.361 55.0042C346.345 54.6938 346.256 54.4164 346.094 54.172C345.932 53.9275 345.721 53.7367 345.462 53.5995C345.202 53.4624 344.918 53.4015 344.607 53.417C344.301 53.4323 344.023 53.5211 343.775 53.6835C343.531 53.8457 343.34 54.0565 343.203 54.3159C343.065 54.5753 343.005 54.8601 343.02 55.1705L343.17 58.177C343.185 58.4837 343.274 58.7611 343.436 59.0092C343.599 59.2537 343.809 59.4445 344.069 59.5816C344.332 59.7186 344.617 59.7795 344.923 59.7642ZM349.108 61.5597L349.146 61.1022C349.299 61.1055 349.413 61.0706 349.486 60.9974C349.559 60.9242 349.604 60.8268 349.62 60.7053C349.636 60.5837 349.633 60.4502 349.611 60.3049L349.047 60.333L348.985 59.0953L350.059 59.0419L350.128 60.4439C350.147 60.8272 350.067 61.1204 349.887 61.3233C349.71 61.5261 349.451 61.6049 349.108 61.5597ZM351.985 60.1812L351.947 59.3047L355.29 55.9815C355.569 55.7041 355.752 55.4461 355.839 55.2076C355.929 54.9652 355.968 54.7198 355.956 54.4716C355.941 54.1685 355.858 53.8982 355.707 53.6605C355.556 53.4228 355.357 53.2387 355.109 53.1083C354.864 52.9777 354.59 52.92 354.287 52.9351C353.973 52.9507 353.698 53.0395 353.461 53.2013C353.223 53.3595 353.04 53.5645 352.909 53.8162C352.783 54.0677 352.729 54.3376 352.747 54.6259L351.75 54.6755C351.725 54.179 351.818 53.7351 352.029 53.344C352.24 52.9492 352.538 52.6342 352.921 52.3992C353.308 52.1603 353.754 52.0284 354.257 52.0033C354.747 51.9789 355.19 52.0703 355.589 52.2774C355.987 52.4808 356.307 52.7705 356.549 53.1464C356.794 53.5185 356.929 53.9473 356.953 54.4329C356.97 54.7761 356.941 55.0758 356.866 55.3321C356.795 55.5882 356.675 55.8284 356.507 56.0527C356.338 56.2734 356.125 56.5109 355.867 56.7653L353.089 59.5224L352.947 59.2001L357.18 58.9893L357.226 59.9203L351.985 60.1812ZM360.878 59.9087C360.473 59.9289 360.091 59.8637 359.732 59.7132C359.377 59.5626 359.068 59.3474 358.805 59.0676C358.546 58.7841 358.353 58.4533 358.228 58.0752L359.152 57.7767C359.231 58.0326 359.359 58.2513 359.536 58.4328C359.714 58.6106 359.916 58.747 360.144 58.8418C360.376 58.9327 360.614 58.9721 360.858 58.9599C361.18 58.9439 361.464 58.8529 361.712 58.6868C361.964 58.5169 362.158 58.3005 362.295 58.0375C362.431 57.7708 362.492 57.4841 362.477 57.1774C362.461 56.8598 362.368 56.5771 362.199 56.3294C362.032 56.0778 361.816 55.8836 361.549 55.7468C361.283 55.61 360.996 55.5493 360.689 55.5645C360.342 55.5818 360.049 55.6696 359.808 55.828C359.57 55.9826 359.385 56.1675 359.253 56.3827L358.372 56.0971L358.407 51.9614L362.641 51.7506L362.687 52.6762L358.924 52.8635L359.337 52.4367L359.298 55.7491L359.071 55.4804C359.278 55.2358 359.53 55.0421 359.827 54.8992C360.127 54.7562 360.436 54.6767 360.754 54.6609C361.243 54.6366 361.687 54.7298 362.086 54.9405C362.484 55.1476 362.806 55.4427 363.052 55.8257C363.298 56.2051 363.433 56.6394 363.457 57.1286C363.481 57.6142 363.379 58.064 363.151 58.478C362.923 58.8883 362.608 59.2242 362.208 59.4857C361.81 59.7433 361.367 59.8844 360.878 59.9087ZM365.767 59.5006L365.077 58.8762L371.957 51.2868L372.647 51.9113L365.767 59.5006ZM371.372 59.3863C371.01 59.4043 370.676 59.3331 370.367 59.1728C370.063 59.0086 369.814 58.7831 369.62 58.4963C369.426 58.2058 369.32 57.878 369.302 57.5129C369.284 57.1551 369.359 56.822 369.527 56.5135C369.695 56.2051 369.924 55.9539 370.214 55.7601C370.505 55.5663 370.825 55.4607 371.176 55.4433C371.537 55.4253 371.872 55.4983 372.18 55.6623C372.488 55.8226 372.737 56.0481 372.927 56.3388C373.121 56.6256 373.227 56.9515 373.245 57.3166C373.263 57.6817 373.19 58.0184 373.026 58.3267C372.866 58.6312 372.64 58.8803 372.35 59.0741C372.059 59.2642 371.733 59.3683 371.372 59.3863ZM371.329 58.5265C371.53 58.5165 371.712 58.4562 371.875 58.3456C372.041 58.2349 372.169 58.093 372.26 57.9202C372.353 57.7472 372.395 57.5602 372.385 57.3594C372.375 57.1586 372.315 56.9768 372.205 56.8139C372.097 56.6473 371.956 56.5189 371.779 56.4289C371.606 56.335 371.419 56.2931 371.218 56.3031C371.018 56.3131 370.836 56.3734 370.673 56.4839C370.51 56.5909 370.381 56.7327 370.288 56.9094C370.194 57.0824 370.152 57.2693 370.162 57.4701C370.172 57.6709 370.232 57.8528 370.343 58.0156C370.453 58.1785 370.595 58.3068 370.768 58.4007C370.941 58.4946 371.128 58.5365 371.329 58.5265ZM366.548 55.3442C366.187 55.3622 365.852 55.291 365.544 55.1307C365.235 54.9667 364.984 54.7413 364.791 54.4545C364.601 54.1638 364.496 53.836 364.478 53.4709C364.461 53.1131 364.535 52.7799 364.703 52.4715C364.871 52.163 365.1 51.9119 365.39 51.7181C365.681 51.5243 366.001 51.4186 366.352 51.4012C366.713 51.3832 367.046 51.4563 367.351 51.6205C367.659 51.7808 367.91 52.0062 368.104 52.2967C368.297 52.5835 368.403 52.9095 368.421 53.2746C368.44 53.6397 368.367 53.9763 368.203 54.2846C368.038 54.5893 367.811 54.8385 367.521 55.0323C367.234 55.2223 366.909 55.3262 366.548 55.3442ZM366.505 54.4844C366.706 54.4744 366.888 54.4141 367.051 54.3036C367.217 54.1928 367.346 54.051 367.436 53.8781C367.53 53.7051 367.572 53.5182 367.562 53.3174C367.552 53.1166 367.491 52.9347 367.381 52.7719C367.274 52.6052 367.132 52.4768 366.955 52.3868C366.782 52.2929 366.595 52.251 366.394 52.261C366.194 52.271 366.012 52.3313 365.849 52.4419C365.686 52.5488 365.558 52.6906 365.464 52.8673C365.37 53.0403 365.328 53.2272 365.338 53.4281C365.348 53.6289 365.408 53.8107 365.519 53.9735C365.63 54.1364 365.771 54.2648 365.944 54.3586C366.117 54.4525 366.304 54.4944 366.505 54.4844Z" fill="#22C36B"/>
</g>
<g filter="url(#filter1_d_4140_72430)">
<rect x="198.37" y="52.5925" width="298.836" height="69.4543" rx="9.13872" transform="rotate(4.05 198.37 52.5925)" fill="white" shape-rendering="crispEdges"/>
<circle cx="232.381" cy="89.8147" r="18.2774" transform="rotate(4.05 232.381 89.8147)" fill="#EDF0F4"/>
<path d="M233.106 78.8721L232.926 79.3545L231.914 93.6487L232.049 93.8037L238.961 90.3514L233.106 78.8721Z" fill="#343434"/>
<path d="M233.106 78.8719L225.691 89.4116L232.049 93.8035L232.54 86.8655L233.106 78.8719Z" fill="#8C8C8C"/>
<path d="M231.96 95.0599L231.871 95.1537L231.51 100.246L231.575 100.49L238.876 91.6099L231.96 95.0599Z" fill="#3C3C3B"/>
<path d="M231.575 100.49L231.96 95.0598L225.602 90.6699L231.575 100.49Z" fill="#8C8C8C"/>
<path d="M232.049 93.8035L238.961 90.3512L232.54 86.8655L232.049 93.8035Z" fill="#141414"/>
<path d="M225.691 89.4117L232.049 93.8036L232.54 86.8656L225.691 89.4117Z" fill="#393939"/>
<path d="M266.433 87.386L267.083 78.1971L273.018 78.6173L272.916 80.0594L268.519 79.7482L268.359 82.0135L271.989 82.2705L271.887 83.7127L268.256 83.4556L268.073 86.0527L272.469 86.364L272.367 87.8061L266.433 87.386ZM277.937 88.2005C277.476 88.2534 277.027 88.2579 276.59 88.2141C276.156 88.1749 275.773 88.0686 275.439 87.8954C275.105 87.7178 274.86 87.4589 274.705 87.1187C274.568 86.8098 274.507 86.4997 274.52 86.1886C274.534 85.8774 274.555 85.5262 274.582 85.1348L275.006 79.1429L276.538 79.2514L276.12 85.1539C276.1 85.4304 276.085 85.673 276.075 85.8818C276.069 86.0908 276.101 86.2642 276.173 86.4018C276.308 86.6679 276.542 86.8277 276.876 86.8813C277.21 86.9348 277.594 86.9449 278.029 86.9115L277.937 88.2005ZM273.535 82.1747L273.62 80.9687L278.425 81.3089L278.34 82.5149L273.535 82.1747ZM284.186 88.643L284.421 85.3248C284.436 85.1078 284.438 84.8664 284.427 84.6005C284.416 84.3347 284.364 84.0766 284.27 83.8263C284.182 83.572 284.034 83.3585 283.828 83.1857C283.627 83.0133 283.343 82.9141 282.977 82.8882C282.782 82.8743 282.586 82.8925 282.39 82.9428C282.194 82.993 282.012 83.0913 281.843 83.2376C281.679 83.3799 281.541 83.5838 281.428 83.8495C281.315 84.1108 281.244 84.4521 281.214 84.8733L280.329 84.4194C280.371 83.8323 280.521 83.3086 280.78 82.8481C281.044 82.3879 281.407 82.0331 281.869 81.7836C282.332 81.5299 282.886 81.426 283.533 81.4717C284.043 81.5079 284.458 81.6228 284.778 81.8164C285.098 82.0101 285.346 82.2457 285.523 82.5233C285.7 82.801 285.825 83.092 285.898 83.3964C285.97 83.7008 286.01 83.9879 286.016 84.2577C286.027 84.5236 286.027 84.7395 286.015 84.9054L285.743 88.7532L284.186 88.643ZM279.406 88.3046L280.057 79.1157L281.429 79.2129L281.087 84.0498L281.272 84.0629L280.963 88.4148L279.406 88.3046ZM290.528 89.2844C289.83 89.235 289.228 89.0406 288.722 88.7012C288.216 88.3618 287.833 87.9136 287.573 87.3565C287.317 86.7997 287.214 86.1724 287.264 85.4748C287.317 84.7218 287.508 84.079 287.836 83.5465C288.165 83.0097 288.598 82.6063 289.134 82.3365C289.671 82.0666 290.277 81.9557 290.953 82.0036C291.668 82.0542 292.262 82.2651 292.736 82.6364C293.215 83.0038 293.554 83.5002 293.753 84.1257C293.953 84.7512 293.993 85.4745 293.875 86.2956L292.35 86.1876L292.39 85.6261C292.439 84.8771 292.346 84.3211 292.11 83.9581C291.875 83.5952 291.479 83.394 290.922 83.3545C290.292 83.3099 289.81 83.4725 289.476 83.8422C289.143 84.2076 288.949 84.7647 288.896 85.5134C288.847 86.2111 288.962 86.7622 289.241 87.1667C289.52 87.5713 289.953 87.7943 290.54 87.8359C290.919 87.8627 291.25 87.8028 291.534 87.6562C291.823 87.5056 292.053 87.276 292.224 86.9675L293.711 87.5345C293.403 88.1369 292.96 88.5908 292.383 88.8963C291.81 89.202 291.191 89.3314 290.528 89.2844ZM288.381 85.9066L288.463 84.7452L293.205 85.0809L293.122 86.2423L288.381 85.9066ZM295.085 89.4147L295.573 82.5231L296.932 82.6193L296.814 84.2975L296.663 84.0688C296.764 83.8451 296.892 83.6447 297.046 83.4674C297.204 83.2862 297.387 83.141 297.596 83.0318C297.774 82.929 297.968 82.8529 298.176 82.8036C298.39 82.7503 298.605 82.7249 298.823 82.7275C299.041 82.7259 299.251 82.7493 299.453 82.7978L299.351 84.2335C299.151 84.1595 298.917 84.1236 298.647 84.1259C298.382 84.1285 298.138 84.1861 297.917 84.2987C297.696 84.3985 297.511 84.5329 297.362 84.7019C297.218 84.8713 297.105 85.0685 297.025 85.2937C296.946 85.5147 296.896 85.757 296.878 86.0208L296.63 89.524L295.085 89.4147ZM303.178 90.18C302.48 90.1307 301.878 89.9363 301.372 89.5969C300.866 89.2575 300.483 88.8092 300.223 88.2521C299.968 87.6953 299.864 87.0681 299.914 86.3704C299.967 85.6175 300.158 84.9747 300.486 84.4421C300.815 83.9053 301.248 83.502 301.784 83.2322C302.321 82.9623 302.927 82.8513 303.603 82.8992C304.318 82.9498 304.912 83.1608 305.386 83.5321C305.865 83.8995 306.204 84.3959 306.403 85.0214C306.603 85.6469 306.643 86.3702 306.525 87.1913L305 87.0833L305.04 86.5218C305.089 85.7727 304.996 85.2167 304.761 84.8538C304.525 84.4908 304.129 84.2896 303.572 84.2502C302.942 84.2056 302.461 84.3681 302.127 84.7378C301.793 85.1033 301.599 85.6603 301.546 86.4091C301.497 87.1067 301.612 87.6579 301.891 88.0624C302.17 88.467 302.603 88.69 303.191 88.7316C303.569 88.7584 303.9 88.6985 304.184 88.5518C304.473 88.4013 304.703 88.1717 304.875 87.8632L306.361 88.4302C306.053 89.0326 305.61 89.4865 305.033 89.7919C304.46 90.0977 303.841 90.227 303.178 90.18ZM301.031 86.8023L301.113 85.6409L305.855 85.9766L305.772 87.138L301.031 86.8023ZM310.306 90.6912C309.795 90.655 309.38 90.5401 309.06 90.3465C308.741 90.1528 308.492 89.9172 308.315 89.6396C308.138 89.3619 308.013 89.0709 307.941 88.7665C307.868 88.4621 307.827 88.177 307.816 87.9111C307.809 87.6413 307.812 87.4234 307.823 87.2575L308.096 83.4097L309.653 83.5199L309.418 86.8381C309.403 87.0508 309.401 87.2922 309.411 87.5624C309.423 87.8282 309.473 88.0883 309.561 88.3426C309.655 88.5929 309.802 88.8043 310.004 88.9767C310.21 89.1495 310.496 89.2488 310.861 89.2747C311.057 89.2886 311.253 89.2704 311.449 89.2201C311.645 89.1699 311.825 89.0736 311.989 88.9313C312.157 88.785 312.298 88.5791 312.411 88.3134C312.524 88.0478 312.595 87.7065 312.624 87.2896L313.509 87.7435C313.468 88.3306 313.315 88.8542 313.052 89.3144C312.793 89.7749 312.432 90.132 311.969 90.3857C311.507 90.6351 310.952 90.7369 310.306 90.6912ZM312.572 90.6528L312.724 88.5151L312.539 88.502L312.875 83.7481L314.419 83.8574L313.932 90.7491L312.572 90.6528ZM324.001 91.462L324.297 87.276C324.33 86.8038 324.24 86.4275 324.024 86.1472C323.809 85.8626 323.502 85.7062 323.102 85.6779C322.855 85.6604 322.63 85.7022 322.426 85.8032C322.223 85.8999 322.056 86.0548 321.925 86.2679C321.795 86.4767 321.719 86.7322 321.698 87.0342L321.043 86.5839C321.073 86.1071 321.209 85.6956 321.451 85.3494C321.698 84.9992 322.016 84.7352 322.405 84.5575C322.794 84.3799 323.218 84.3073 323.678 84.3398C324.439 84.3937 325.006 84.6647 325.377 85.1528C325.753 85.6369 325.915 86.2511 325.862 86.9956L325.539 91.5709L324.001 91.462ZM315.712 90.8751L316.2 83.9835L317.559 84.0797L317.407 86.2174L317.599 86.2309L317.262 90.9849L315.712 90.8751ZM319.866 91.1692L320.161 87.0023C320.195 86.5216 320.104 86.139 319.889 85.8544C319.674 85.5698 319.365 85.4132 318.961 85.3846C318.569 85.3569 318.245 85.4686 317.988 85.7198C317.735 85.9712 317.593 86.3118 317.563 86.7414L316.906 86.2332C316.938 85.7865 317.077 85.3923 317.323 85.0507C317.57 84.709 317.887 84.4493 318.276 84.2716C318.67 84.09 319.1 84.0157 319.568 84.0488C320.083 84.0853 320.505 84.2263 320.834 84.4719C321.167 84.7136 321.406 85.0297 321.549 85.4204C321.697 85.8071 321.754 86.2366 321.721 86.7088L321.397 91.2777L319.866 91.1692Z" fill="#10192D"/>
<path d="M264.917 106.983L265.474 99.1071L270.397 99.4556L270.342 100.227L266.224 99.9352L266.031 102.659L269.493 102.904L269.439 103.675L265.976 103.43L265.775 106.269L269.894 106.561L269.839 107.332L264.917 106.983ZM273.25 107.573L273.753 100.468L271.002 100.274L271.057 99.5023L277.363 99.9489L277.309 100.72L274.557 100.525L274.054 107.63L273.25 107.573ZM277.683 107.887L278.24 100.011L279.044 100.068L278.793 103.618L283.147 103.926L283.398 100.376L284.197 100.433L283.639 108.309L282.84 108.252L283.092 104.697L278.738 104.389L278.487 107.944L277.683 107.887Z" fill="#8E9BAE"/>
<path d="M336.408 95.6795C341.983 97.4562 347.056 86.9402 350.784 87.2042C356.004 87.5738 354.254 99.3366 357.905 100.699C361.978 102.641 364.379 89.7766 367.66 90.3976C371.879 91.1961 371.854 99.1742 373.652 99.6985C376.445 100.513 376.898 112.07 379.771 111.17C383.109 110.125 387.686 96.812 391.414 97.076C395.143 97.34 396.315 102.419 400.043 102.683" stroke="#22C36B" stroke-width="1.82774" stroke-linecap="round"/>
<rect x="423.009" y="88.8787" width="53.9185" height="9.13872" rx="4.56936" transform="rotate(4.05 423.009 88.8787)" fill="#E2E8F0"/>
<path d="M441.547 113.591L441.695 111.502L439.606 111.354L439.663 110.55L441.752 110.698L441.899 108.614L442.703 108.671L442.556 110.755L444.64 110.902L444.583 111.706L442.499 111.559L442.351 113.648L441.547 113.591ZM447.129 115.443L447.611 108.644L446.065 109.436L446.142 108.348L447.687 107.567L448.677 107.637L448.119 115.513L447.129 115.443ZM449.566 116.847L449.659 116.397C449.811 116.419 449.928 116.398 450.009 116.334C450.091 116.27 450.147 116.179 450.177 116.06C450.208 115.941 450.221 115.808 450.217 115.661L449.653 115.622L449.741 114.385L450.813 114.461L450.714 115.862C450.686 116.244 450.571 116.526 450.368 116.706C450.168 116.886 449.901 116.933 449.566 116.847ZM455.126 116.174C454.721 116.145 454.349 116.035 454.011 115.842C453.677 115.65 453.396 115.399 453.168 115.09C452.945 114.777 452.794 114.426 452.715 114.035L453.668 113.85C453.716 114.114 453.817 114.346 453.971 114.548C454.125 114.745 454.31 114.905 454.525 115.027C454.744 115.145 454.976 115.212 455.22 115.23C455.541 115.252 455.834 115.196 456.1 115.061C456.37 114.923 456.589 114.731 456.757 114.486C456.924 114.238 457.019 113.961 457.041 113.655C457.063 113.337 457.005 113.046 456.867 112.779C456.732 112.509 456.54 112.291 456.292 112.123C456.044 111.955 455.766 111.86 455.46 111.839C455.114 111.814 454.811 111.866 454.553 111.994C454.299 112.119 454.093 112.28 453.936 112.478L453.095 112.089L453.627 107.987L457.855 108.287L457.79 109.211L454.032 108.945L454.493 108.571L454.057 111.855L453.864 111.561C454.099 111.343 454.372 111.181 454.684 111.075C454.999 110.969 455.316 110.927 455.633 110.949C456.121 110.984 456.551 111.13 456.921 111.387C457.292 111.64 457.576 111.972 457.774 112.382C457.973 112.788 458.055 113.235 458.02 113.724C457.986 114.209 457.83 114.643 457.554 115.027C457.278 115.407 456.925 115.702 456.496 115.914C456.071 116.122 455.614 116.209 455.126 116.174ZM461.827 116.648C461.327 116.613 460.882 116.461 460.49 116.191C460.102 115.922 459.803 115.571 459.592 115.138C459.384 114.702 459.299 114.221 459.337 113.696L459.522 111.076C459.561 110.526 459.714 110.047 459.981 109.641C460.252 109.231 460.604 108.923 461.036 108.715C461.472 108.504 461.959 108.418 462.495 108.456C462.928 108.487 463.325 108.604 463.684 108.809C464.048 109.011 464.345 109.287 464.577 109.637L463.804 110.231C463.663 109.99 463.472 109.793 463.23 109.64C462.988 109.487 462.721 109.401 462.429 109.38C462.083 109.356 461.769 109.418 461.487 109.566C461.209 109.712 460.984 109.915 460.811 110.178C460.639 110.437 460.542 110.723 460.52 111.037L460.408 112.618L460.212 112.362C460.465 112.05 460.775 111.808 461.143 111.636C461.51 111.464 461.9 111.393 462.312 111.422C462.801 111.457 463.23 111.603 463.6 111.86C463.974 112.117 464.258 112.451 464.453 112.86C464.651 113.266 464.733 113.714 464.699 114.202C464.664 114.691 464.511 115.125 464.238 115.505C463.966 115.886 463.617 116.18 463.192 116.388C462.77 116.596 462.315 116.683 461.827 116.648ZM461.893 115.708C462.207 115.73 462.498 115.675 462.768 115.544C463.038 115.409 463.256 115.22 463.424 114.975C463.595 114.727 463.692 114.446 463.714 114.133C463.736 113.819 463.68 113.527 463.545 113.258C463.414 112.988 463.224 112.769 462.976 112.602C462.732 112.43 462.453 112.334 462.139 112.311C461.826 112.289 461.534 112.346 461.264 112.48C460.998 112.612 460.78 112.802 460.608 113.05C460.437 113.298 460.34 113.578 460.318 113.892C460.296 114.202 460.35 114.492 460.482 114.761C460.617 115.027 460.806 115.246 461.051 115.417C461.299 115.589 461.58 115.685 461.893 115.708ZM466.822 116.837L466.212 116.134L473.954 109.427L474.564 110.129L466.822 116.837ZM472.4 117.397C472.039 117.372 471.715 117.261 471.429 117.064C471.146 116.865 470.926 116.611 470.768 116.303C470.611 115.991 470.545 115.653 470.571 115.289C470.596 114.931 470.71 114.61 470.914 114.323C471.117 114.037 471.375 113.816 471.686 113.658C471.998 113.501 472.329 113.434 472.679 113.459C473.04 113.485 473.364 113.597 473.65 113.797C473.937 113.993 474.157 114.247 474.311 114.559C474.469 114.867 474.534 115.203 474.509 115.567C474.483 115.932 474.37 116.258 474.17 116.544C473.974 116.827 473.72 117.047 473.409 117.205C473.097 117.358 472.761 117.423 472.4 117.397ZM472.461 116.538C472.662 116.553 472.849 116.515 473.024 116.424C473.203 116.334 473.347 116.209 473.458 116.048C473.572 115.888 473.636 115.707 473.65 115.507C473.664 115.306 473.626 115.118 473.536 114.943C473.45 114.765 473.324 114.621 473.16 114.51C472.999 114.396 472.819 114.332 472.618 114.318C472.418 114.304 472.23 114.342 472.055 114.432C471.88 114.518 471.736 114.644 471.622 114.808C471.508 114.968 471.444 115.149 471.429 115.349C471.415 115.55 471.453 115.738 471.543 115.913C471.634 116.088 471.759 116.232 471.919 116.346C472.08 116.46 472.26 116.524 472.461 116.538ZM468.097 112.805C467.736 112.779 467.412 112.668 467.126 112.472C466.839 112.272 466.617 112.018 466.459 111.71C466.306 111.399 466.241 111.061 466.267 110.696C466.293 110.339 466.407 110.017 466.61 109.731C466.814 109.445 467.072 109.223 467.383 109.066C467.695 108.908 468.026 108.842 468.376 108.867C468.737 108.892 469.059 109.005 469.341 109.204C469.628 109.401 469.85 109.655 470.007 109.966C470.165 110.274 470.231 110.611 470.205 110.975C470.18 111.34 470.067 111.665 469.867 111.952C469.667 112.234 469.412 112.454 469.1 112.612C468.792 112.766 468.458 112.83 468.097 112.805ZM468.158 111.946C468.358 111.96 468.546 111.922 468.721 111.832C468.9 111.742 469.044 111.617 469.154 111.456C469.268 111.295 469.332 111.115 469.347 110.914C469.361 110.714 469.323 110.526 469.233 110.351C469.146 110.173 469.021 110.028 468.857 109.918C468.696 109.804 468.515 109.74 468.315 109.725C468.114 109.711 467.927 109.749 467.752 109.839C467.577 109.926 467.433 110.051 467.318 110.216C467.204 110.376 467.14 110.557 467.126 110.757C467.112 110.958 467.15 111.145 467.24 111.32C467.33 111.495 467.456 111.64 467.616 111.754C467.777 111.868 467.957 111.932 468.158 111.946Z" fill="#22C36B"/>
</g>
<g filter="url(#filter2_d_4140_72430)">
<rect x="136.215" y="114.863" width="298.836" height="70.3682" rx="9.13872" transform="rotate(-3.11 136.215 114.863)" fill="white" shape-rendering="crispEdges"/>
<path d="M192.569 151.465C190.662 161.374 181.082 167.862 171.17 165.956C161.262 164.049 154.773 154.469 156.681 144.56C158.586 134.65 168.167 128.161 178.076 130.067C187.987 131.974 194.476 141.555 192.569 151.465L192.569 151.465L192.569 151.465Z" fill="#23292F"/>
<path d="M183.023 136.878L186.706 136.677L179.453 144.683C176.827 147.58 172.326 147.825 169.399 145.229L161.318 138.057L165.005 137.857L171.142 143.305C173.002 144.949 175.837 144.795 177.508 142.959L183.023 136.878Z" fill="white"/>
<path d="M166.104 158.961L162.418 159.161L169.718 151.107C172.345 148.209 176.846 147.965 179.773 150.56L187.903 157.777L184.219 157.977L178.03 152.485C176.17 150.841 173.335 150.995 171.664 152.83L166.104 158.961Z" fill="white"/>
<path d="M207.341 141.399L210.206 136.58L206.931 132.196L208.815 132.094L211.087 135.218L212.987 131.867L214.884 131.764L212.103 136.477L215.46 140.958L213.576 141.06L211.229 137.837L209.239 141.296L207.341 141.399ZM216.479 140.903L215.98 131.704L219.78 131.498C219.87 131.493 219.985 131.491 220.126 131.492C220.267 131.489 220.397 131.494 220.518 131.509C221.054 131.561 221.503 131.714 221.862 131.968C222.226 132.221 222.503 132.552 222.691 132.961C222.884 133.364 222.994 133.82 223.022 134.326C223.063 135.076 222.908 135.731 222.559 136.293C222.209 136.85 221.645 137.214 220.869 137.384L220.214 137.477L217.844 137.606L218.019 140.819L216.479 140.903ZM221.762 140.616L219.744 136.971L221.291 136.541L223.506 140.521L221.762 140.616ZM217.766 136.169L219.963 136.049C220.049 136.045 220.144 136.035 220.25 136.021C220.356 136.007 220.453 135.984 220.541 135.954C220.793 135.876 220.987 135.753 221.123 135.583C221.264 135.413 221.358 135.224 221.406 135.016C221.459 134.809 221.48 134.607 221.47 134.411C221.459 134.215 221.416 134.017 221.341 133.816C221.27 133.61 221.156 133.431 220.998 133.277C220.844 133.123 220.638 133.021 220.379 132.971C220.288 132.95 220.19 132.941 220.083 132.942C219.976 132.939 219.88 132.94 219.795 132.945L217.597 133.064L217.766 136.169ZM224.913 140.444L224.413 131.246L228.214 131.04C228.303 131.035 228.419 131.033 228.56 131.034C228.7 131.03 228.831 131.036 228.951 131.051C229.488 131.103 229.936 131.256 230.296 131.51C230.66 131.763 230.936 132.094 231.125 132.502C231.318 132.906 231.428 133.361 231.456 133.868C231.483 134.371 231.423 134.835 231.275 135.262C231.127 135.684 230.886 136.041 230.552 136.333C230.222 136.624 229.795 136.824 229.271 136.934C229.153 136.957 229.021 136.977 228.877 136.994C228.737 137.01 228.624 137.02 228.539 137.025L226.278 137.148L226.453 140.361L224.913 140.444ZM226.2 135.711L228.397 135.591C228.482 135.587 228.578 135.577 228.684 135.563C228.79 135.549 228.887 135.526 228.975 135.496C229.227 135.418 229.421 135.294 229.557 135.125C229.697 134.955 229.792 134.766 229.84 134.558C229.893 134.35 229.914 134.148 229.903 133.953C229.893 133.757 229.85 133.558 229.775 133.357C229.704 133.152 229.59 132.972 229.432 132.819C229.278 132.665 229.072 132.563 228.813 132.513C228.722 132.492 228.623 132.482 228.517 132.484C228.41 132.481 228.314 132.482 228.229 132.487L226.031 132.606L226.2 135.711Z" fill="#10192D"/>
<path d="M208.39 161.027L210.905 156.887L208.032 153.139L209.007 153.086L211.345 156.188L213.332 152.851L214.312 152.797L211.863 156.835L214.806 160.678L213.832 160.731L211.418 157.54L209.37 160.973L208.39 161.027ZM215.687 160.63L215.259 152.746L218.303 152.581C218.38 152.576 218.466 152.575 218.561 152.578C218.66 152.576 218.759 152.581 218.859 152.594C219.274 152.634 219.631 152.759 219.928 152.97C220.228 153.177 220.461 153.446 220.625 153.778C220.793 154.109 220.889 154.481 220.911 154.893C220.943 155.488 220.814 156.013 220.524 156.469C220.234 156.924 219.8 157.224 219.222 157.368L218.947 157.449L216.329 157.592L216.492 160.586L215.687 160.63ZM220.462 160.371L218.732 157.247L219.488 156.909L221.387 160.32L220.462 160.371ZM216.288 156.825L218.505 156.705C218.571 156.701 218.647 156.693 218.735 156.681C218.822 156.669 218.907 156.652 218.99 156.629C219.257 156.556 219.472 156.432 219.634 156.259C219.801 156.085 219.919 155.883 219.991 155.652C220.066 155.421 220.097 155.183 220.084 154.938C220.071 154.694 220.014 154.461 219.914 154.239C219.818 154.014 219.678 153.824 219.494 153.669C219.313 153.514 219.086 153.415 218.813 153.371C218.728 153.357 218.642 153.351 218.554 153.352C218.466 153.35 218.389 153.35 218.323 153.354L216.106 153.474L216.288 156.825ZM222.595 160.255L222.167 152.371L225.211 152.205C225.288 152.201 225.374 152.2 225.469 152.202C225.568 152.2 225.667 152.206 225.767 152.219C226.182 152.259 226.539 152.384 226.836 152.595C227.136 152.802 227.369 153.071 227.533 153.402C227.701 153.734 227.797 154.106 227.819 154.518C227.841 154.927 227.787 155.305 227.656 155.653C227.524 156 227.321 156.295 227.045 156.537C226.772 156.775 226.433 156.936 226.028 157.021C225.93 157.041 225.832 157.057 225.734 157.07C225.639 157.082 225.554 157.09 225.477 157.095L223.238 157.216L223.4 160.211L222.595 160.255ZM223.196 156.45L225.413 156.329C225.479 156.326 225.556 156.318 225.643 156.306C225.73 156.294 225.815 156.276 225.898 156.253C226.165 156.18 226.38 156.057 226.542 155.883C226.709 155.71 226.828 155.507 226.899 155.276C226.975 155.045 227.006 154.808 226.992 154.563C226.979 154.318 226.922 154.085 226.822 153.864C226.726 153.638 226.586 153.448 226.402 153.294C226.221 153.139 225.994 153.039 225.721 152.996C225.636 152.982 225.55 152.976 225.462 152.977C225.374 152.974 225.297 152.975 225.231 152.978L223.014 153.099L223.196 156.45Z" fill="#8E9BAE"/>
<path d="M281.602 146.105C287.084 145.416 290.545 152.676 293.603 152.521C298.495 152.272 296.915 144.491 301.691 143.367C307.041 141.78 305.575 135.832 309.183 134.516C312.791 133.199 314.388 140.017 317.445 139.851C321.726 139.619 323.48 145.093 328.329 144.046C332.642 143.116 330.401 128.567 335.217 128.312C339.563 128.082 339.54 134.926 345.044 134.627" stroke="#F65556" stroke-width="1.82774" stroke-linecap="round"/>
<rect x="363.649" y="123.323" width="53.9185" height="9.13872" rx="4.56936" transform="rotate(-3.11 363.649 123.323)" fill="#E2E8F0"/>
<path d="M384.613 143.956L384.569 143.151L387.854 142.973L387.898 143.778L384.613 143.956ZM390.861 146.675L390.491 139.87L389.056 140.848L388.997 139.759L390.432 138.791L391.423 138.737L391.852 146.621L390.861 146.675ZM393.454 147.764L393.489 147.307C393.643 147.309 393.757 147.274 393.83 147.2C393.902 147.127 393.947 147.029 393.962 146.908C393.977 146.786 393.974 146.653 393.951 146.507L393.387 146.538L393.32 145.301L394.393 145.242L394.469 146.644C394.49 147.027 394.411 147.321 394.232 147.525C394.056 147.728 393.797 147.808 393.454 147.764ZM396.325 146.373L396.283 145.497L399.611 142.158C399.888 141.88 400.07 141.621 400.156 141.382C400.245 141.139 400.283 140.894 400.27 140.645C400.253 140.342 400.169 140.072 400.017 139.835C399.865 139.598 399.665 139.415 399.416 139.286C399.171 139.156 398.897 139.1 398.594 139.116C398.28 139.133 398.005 139.223 397.769 139.386C397.532 139.546 397.349 139.752 397.22 140.004C397.095 140.256 397.042 140.526 397.061 140.814L396.064 140.868C396.037 140.372 396.129 139.928 396.338 139.536C396.547 139.14 396.843 138.824 397.225 138.587C397.611 138.346 398.056 138.212 398.56 138.185C399.049 138.158 399.493 138.248 399.892 138.453C400.291 138.654 400.613 138.943 400.856 139.318C401.104 139.688 401.24 140.117 401.267 140.602C401.285 140.945 401.258 141.245 401.184 141.502C401.114 141.758 400.995 141.999 400.828 142.224C400.66 142.445 400.448 142.684 400.191 142.939L397.426 145.709L397.282 145.387L401.514 145.157L401.565 146.088L396.325 146.373ZM405.545 146.042C405.034 146.07 404.571 145.98 404.157 145.772C403.747 145.56 403.414 145.261 403.159 144.876C402.907 144.487 402.767 144.037 402.739 143.526L402.582 140.635C402.555 140.124 402.645 139.661 402.853 139.247C403.065 138.833 403.363 138.5 403.749 138.249C404.138 137.997 404.588 137.857 405.099 137.83C405.61 137.802 406.072 137.892 406.486 138.1C406.9 138.308 407.233 138.607 407.485 138.996C407.737 139.385 407.876 139.835 407.904 140.346L408.061 143.237C408.089 143.748 407.999 144.21 407.791 144.624C407.582 145.035 407.284 145.368 406.895 145.623C406.506 145.875 406.056 146.014 405.545 146.042ZM405.494 145.106C405.804 145.089 406.081 144.999 406.325 144.836C406.569 144.672 406.759 144.461 406.895 144.201C407.03 143.937 407.09 143.652 407.073 143.345L406.91 140.339C406.893 140.029 406.803 139.752 406.64 139.508C406.476 139.265 406.265 139.075 406.005 138.939C405.745 138.803 405.459 138.743 405.149 138.76C404.843 138.777 404.566 138.867 404.318 139.031C404.075 139.194 403.885 139.406 403.749 139.666C403.613 139.926 403.553 140.211 403.57 140.521L403.733 143.527C403.75 143.833 403.84 144.11 404.004 144.358C404.167 144.601 404.379 144.791 404.639 144.927C404.902 145.063 405.187 145.123 405.494 145.106ZM410.606 145.603L409.913 144.981L416.758 137.361L417.451 137.982L410.606 145.603ZM416.21 145.463C415.849 145.482 415.514 145.413 415.205 145.254C414.9 145.091 414.649 144.867 414.454 144.581C414.259 144.291 414.152 143.964 414.132 143.599C414.113 143.241 414.186 142.908 414.352 142.598C414.519 142.289 414.746 142.037 415.036 141.842C415.326 141.647 415.646 141.54 415.996 141.521C416.357 141.501 416.693 141.572 417.002 141.735C417.31 141.894 417.561 142.118 417.752 142.408C417.947 142.694 418.054 143.02 418.074 143.385C418.094 143.75 418.023 144.087 417.86 144.396C417.701 144.701 417.477 144.951 417.187 145.146C416.897 145.338 416.572 145.443 416.21 145.463ZM416.164 144.603C416.364 144.592 416.546 144.531 416.708 144.42C416.874 144.308 417.002 144.166 417.091 143.993C417.184 143.819 417.225 143.632 417.215 143.431C417.204 143.231 417.143 143.049 417.031 142.887C416.923 142.72 416.781 142.593 416.604 142.504C416.431 142.41 416.243 142.369 416.043 142.38C415.842 142.391 415.66 142.452 415.498 142.564C415.336 142.671 415.208 142.814 415.115 142.991C415.022 143.164 414.981 143.351 414.992 143.552C415.003 143.753 415.064 143.934 415.175 144.097C415.286 144.259 415.429 144.387 415.602 144.48C415.776 144.573 415.963 144.614 416.164 144.603ZM411.368 141.443C411.007 141.462 410.672 141.393 410.363 141.234C410.054 141.071 409.802 140.847 409.607 140.561C409.415 140.271 409.31 139.944 409.29 139.579C409.271 139.221 409.344 138.887 409.51 138.578C409.676 138.269 409.904 138.017 410.194 137.822C410.483 137.627 410.803 137.52 411.154 137.5C411.515 137.481 411.849 137.552 412.154 137.715C412.463 137.874 412.715 138.098 412.91 138.388C413.105 138.674 413.212 138.999 413.232 139.364C413.252 139.729 413.181 140.066 413.018 140.376C412.855 140.681 412.629 140.931 412.339 141.126C412.053 141.318 411.729 141.423 411.368 141.443ZM411.321 140.583C411.522 140.572 411.704 140.511 411.866 140.4C412.032 140.288 412.16 140.146 412.249 139.972C412.342 139.799 412.383 139.612 412.372 139.411C412.362 139.21 412.3 139.029 412.189 138.867C412.081 138.7 411.939 138.573 411.762 138.483C411.588 138.39 411.401 138.349 411.201 138.36C411 138.371 410.818 138.432 410.656 138.543C410.493 138.651 410.366 138.794 410.273 138.971C410.18 139.144 410.139 139.331 410.15 139.532C410.16 139.733 410.222 139.914 410.333 140.077C410.444 140.239 410.587 140.367 410.76 140.46C410.934 140.553 411.121 140.594 411.321 140.583Z" fill="#F65556"/>
</g>
<rect y="0.5" width="588" height="202" rx="15" fill="url(#paint1_linear_4140_72430)"/>
</g>
<rect x="0.5" y="1" width="587" height="373" rx="24.5" stroke="url(#paint2_linear_4140_72430)"/>
<defs>
<filter id="filter0_d_4140_72430" x="68.6942" y="-0.594557" width="347.614" height="129.921" filterUnits="userSpaceOnUse" color-interpolation-filters="sRGB">
<feFlood flood-opacity="0" result="BackgroundImageFix"/>
<feColorMatrix in="SourceAlpha" type="matrix" values="0 0 0 0 0 0 0 0 0 0 0 0 0 0 0 0 0 0 127 0" result="hardAlpha"/>
<feOffset dy="9.13872"/>
<feGaussianBlur stdDeviation="11.4234"/>
<feComposite in2="hardAlpha" operator="out"/>
<feColorMatrix type="matrix" values="0 0 0 0 0.105882 0 0 0 0 0.145098 0 0 0 0 0.215686 0 0 0 0.05 0"/>
<feBlend mode="normal" in2="BackgroundImageFix" result="effect1_dropShadow_4140_72430"/>
<feBlend mode="normal" in="SourceGraphic" in2="effect1_dropShadow_4140_72430" result="shape"/>
</filter>
<filter id="filter1_d_4140_72430" x="170.618" y="38.8844" width="348.689" height="136.08" filterUnits="userSpaceOnUse" color-interpolation-filters="sRGB">
<feFlood flood-opacity="0" result="BackgroundImageFix"/>
<feColorMatrix in="SourceAlpha" type="matrix" values="0 0 0 0 0 0 0 0 0 0 0 0 0 0 0 0 0 0 127 0" result="hardAlpha"/>
<feOffset dy="9.13872"/>
<feGaussianBlur stdDeviation="11.4234"/>
<feComposite in2="hardAlpha" operator="out"/>
<feColorMatrix type="matrix" values="0 0 0 0 0.105882 0 0 0 0 0.145098 0 0 0 0 0.215686 0 0 0 0.05 0"/>
<feBlend mode="normal" in2="BackgroundImageFix" result="effect1_dropShadow_4140_72430"/>
<feBlend mode="normal" in="SourceGraphic" in2="effect1_dropShadow_4140_72430" result="shape"/>
</filter>
<filter id="filter2_d_4140_72430" x="113.368" y="84.9416" width="347.907" height="132.171" filterUnits="userSpaceOnUse" color-interpolation-filters="sRGB">
<feFlood flood-opacity="0" result="BackgroundImageFix"/>
<feColorMatrix in="SourceAlpha" type="matrix" values="0 0 0 0 0 0 0 0 0 0 0 0 0 0 0 0 0 0 127 0" result="hardAlpha"/>
<feOffset dy="9.13872"/>
<feGaussianBlur stdDeviation="11.4234"/>
<feComposite in2="hardAlpha" operator="out"/>
<feColorMatrix type="matrix" values="0 0 0 0 0.105882 0 0 0 0 0.145098 0 0 0 0 0.215686 0 0 0 0.05 0"/>
<feBlend mode="normal" in2="BackgroundImageFix" result="effect1_dropShadow_4140_72430"/>
<feBlend mode="normal" in="SourceGraphic" in2="effect1_dropShadow_4140_72430" result="shape"/>
</filter>
<linearGradient id="paint0_linear_4140_72430" x1="52.7618" y1="300.367" x2="242.222" y2="300.367" gradientUnits="userSpaceOnUse">
<stop stop-color="#060A1D"/>
<stop offset="1" stop-color="#060A1D" stop-opacity="0.5"/>
</linearGradient>
<linearGradient id="paint1_linear_4140_72430" x1="294" y1="0.5" x2="294" y2="202.5" gradientUnits="userSpaceOnUse">
<stop offset="0.651856" stop-color="#F8FAFC" stop-opacity="0"/>
<stop offset="1" stop-color="#F8FAFC"/>
</linearGradient>
<linearGradient id="paint2_linear_4140_72430" x1="0" y1="0.5" x2="191.369" y2="520.474" gradientUnits="userSpaceOnUse">
<stop stop-color="#DBE8FF"/>
<stop offset="0.49" stop-color="#DBE8FF" stop-opacity="0"/>
<stop offset="1" stop-color="#DBE8FF" stop-opacity="0.35"/>
</linearGradient>
<clipPath id="clip0_4140_72430">
<rect y="0.5" width="588" height="374" rx="25" fill="white"/>
</clipPath>
</defs>
</svg>
