<svg width="136" height="83" viewBox="0 0 136 83" fill="none" xmlns="http://www.w3.org/2000/svg">
<g clip-path="url(#clip0_4140_73846)">
<path d="M24.5469 40.2244L36.853 82.4324C43.2448 82.6161 50.3345 82.1385 57.8284 81.0365L42.9876 30.1591C36.0448 33.2081 29.8367 36.6244 24.5469 40.2244Z" fill="#005DA6"/>
<path d="M39.6447 82.6527C38.6896 82.6527 37.7713 82.6527 36.8529 82.6159H36.7427L36.706 82.5057L24.3264 40.1508L24.4366 40.0773C29.8366 36.4038 36.0447 33.0243 42.9141 29.9753L43.0978 29.9018L43.1713 30.0855L58.0487 81.1465L57.8651 81.1833C51.4733 82.1384 45.3753 82.6527 39.6447 82.6527ZM36.9631 82.2486C43.3549 82.4323 50.2978 81.9547 57.5712 80.8527L42.8774 30.3794C36.1549 33.3549 30.057 36.6977 24.7305 40.2977L36.9631 82.2486Z" fill="#00DBA1"/>
<path d="M42.9875 30.1594L57.8283 81.0368C64.2936 80.045 71.0528 78.5756 77.9221 76.5552L62.3467 23.1064C55.4406 25.1268 48.9385 27.5145 42.9875 30.1594Z" fill="#0071A7"/>
<path d="M57.6813 81.2202L57.6446 81.0733L42.7671 30.049L42.914 29.9755C49.012 27.2571 55.5507 24.9061 62.2731 22.9224L62.4568 22.8857L62.4935 23.0694L78.1057 76.6651L77.9221 76.7019C71.1996 78.6488 64.4037 80.1549 57.8283 81.1835L57.6813 81.2202ZM43.2079 30.2326L57.9385 80.8161C64.4405 79.8243 71.0527 78.3549 77.7017 76.408L62.1997 23.3265C55.5875 25.2735 49.1956 27.5877 43.2079 30.2326Z" fill="#00DBA1"/>
<path d="M0.889648 51.5751L5.84881 68.5832C6.95085 72.2934 9.77941 75.3057 14.0406 77.5832L6.03249 50.1057L0.889648 51.5751Z" fill="#0040A4"/>
<path d="M14.2977 77.9132L13.9304 77.7296C9.52222 75.3785 6.73039 72.3296 5.66509 68.6561L0.669189 51.4276L6.14264 49.848L6.17937 50.0317L14.2977 77.9132ZM1.07327 51.6848L5.9957 68.5459C7.02427 72.0357 9.63242 74.9377 13.7467 77.2153L5.8855 50.2888L1.07327 51.6848Z" fill="#00DBA1"/>
<path d="M15.5833 47.2779L5.99561 50.0697L14.0037 77.5471C19.5507 80.4859 27.4486 82.139 36.8159 82.4328L24.5466 40.2248C21.167 42.5024 18.1547 44.8901 15.5833 47.2779Z" fill="#0053A5"/>
<path d="M37.0731 82.616H36.816C27.3384 82.3589 19.4405 80.6691 13.9303 77.7303L13.8569 77.6936L13.8201 77.6201L5.73853 49.959L15.4365 47.1304C18.0079 44.7427 21.0201 42.3917 24.3629 40.1141L24.5466 39.9672L37.0731 82.616ZM14.1875 77.4365C19.5875 80.3018 27.3384 81.9548 36.6323 82.2487L24.4364 40.5182C21.167 42.759 18.2283 45.0733 15.6936 47.4243L15.6569 47.461L6.21607 50.2161L14.1875 77.4365Z" fill="#00DBA1"/>
<path d="M103.379 17.2284L115.685 59.4364C123.436 54.1834 129.204 48.5263 132.289 43.0528L124.281 15.5753L114.73 18.3672C111.277 17.7427 107.493 17.3386 103.379 17.2284Z" fill="#56E0B0"/>
<path d="M115.612 59.6934L103.159 17.0446H103.416C107.493 17.1548 111.277 17.5589 114.73 18.1834L124.428 15.3548L124.465 15.5385L132.51 43.0894L132.473 43.1629C129.387 48.5996 123.62 54.2567 115.795 59.5832L115.612 59.6934ZM103.636 17.4119L115.795 59.1424C123.436 53.9261 129.093 48.3424 132.142 43.0159L124.171 15.7956L114.73 18.5507H114.693C111.314 17.9262 107.604 17.5221 103.636 17.4119Z" fill="#00DBA1"/>
<path d="M134.383 31.0775L129.424 14.0694L124.281 15.5755L132.289 43.0529C134.677 38.8652 135.485 34.7877 134.383 31.0775Z" fill="#5EEAB0"/>
<path d="M132.253 43.4934L124.061 15.4282L129.534 13.8486L129.571 14.0323L134.53 31.0404C135.595 34.7139 134.897 38.7914 132.436 43.1628L132.253 43.4934ZM124.538 15.6854L132.4 42.6118C134.64 38.4975 135.265 34.6037 134.273 31.1139L129.351 14.2527L124.538 15.6854Z" fill="#00DBA1"/>
<path d="M77.922 76.5547C84.7914 74.5343 91.2934 72.1832 97.2811 69.5384L82.4036 18.661C75.9383 19.6528 69.1792 21.1222 62.3098 23.1426L77.922 76.5547Z" fill="#149CAA"/>
<path d="M77.7751 76.7748L77.7384 76.5912L62.1262 22.9954L62.3099 22.9587C69.0323 20.975 75.8282 19.5056 82.4037 18.4771L82.5506 18.4403L82.5874 18.5873L97.4649 69.6116L97.3179 69.6851C91.22 72.4034 84.6812 74.7544 77.9588 76.7381L77.7751 76.7748ZM62.5303 23.2158L77.9956 76.2973C84.6078 74.3504 90.9996 72.0361 97.0241 69.3912L82.2935 18.8444C75.7915 19.8363 69.1793 21.3056 62.5303 23.2158Z" fill="#00DBA1"/>
<path d="M82.4036 18.6608L97.2443 69.5382C104.187 66.4525 110.395 63.0362 115.685 59.4362L103.379 17.2282C96.9872 17.0445 89.8974 17.5221 82.4036 18.6608Z" fill="#35BAAD"/>
<path d="M97.1343 69.7587L97.0608 69.575L82.1833 18.514L82.367 18.4772C89.7874 17.3385 96.8772 16.8609 103.379 17.0446H103.489L103.526 17.1548L115.906 59.5097L115.795 59.5832C110.395 63.2567 104.187 66.6362 97.318 69.6852L97.1343 69.7587ZM82.6242 18.7711L97.3547 69.2444C104.077 66.2689 110.175 62.9261 115.502 59.3261L103.269 17.4119C96.8772 17.2283 89.9343 17.7058 82.6242 18.7711Z" fill="#00DBA1"/>
<path d="M129.424 14.0692C133.722 28.8365 108.449 49.1875 72.9263 59.5466C37.4407 69.9057 5.15102 66.3425 0.853072 51.5752C-3.44487 36.8079 21.8652 16.457 57.3508 6.0978C92.8364 -4.26134 125.126 -0.698092 129.424 14.0692Z" fill="url(#paint0_linear_4140_73846)"/>
<path d="M34.759 65.6077C16.6489 65.6077 3.38772 60.722 0.706096 51.6118C-3.62858 36.7711 21.7917 16.3099 57.3141 5.95077C74.5058 0.954871 91.4772 -0.992061 105.106 0.514056C118.808 2.02017 127.477 6.8324 129.608 14.0324C131.702 21.2323 126.963 29.9752 116.236 38.6078C105.547 47.2037 90.1915 54.6975 72.9997 59.7302C59.2977 63.6975 46.0733 65.6077 34.759 65.6077ZM95.5915 0.330383C83.9834 0.330383 70.7589 2.38752 57.4243 6.28138C22.0489 16.5671 -3.2245 36.8813 1.03671 51.5016C3.64486 60.4649 16.7591 65.2771 34.6488 65.2771C45.9631 65.2771 59.1875 63.3669 72.8895 59.3628C90.0446 54.3669 105.363 46.8731 116.016 38.3139C126.632 29.7915 131.334 21.1956 129.277 14.1058C127.22 7.05281 118.624 2.31405 105.106 0.844667C102.057 0.514056 98.8976 0.330383 95.5915 0.330383Z" fill="#00DBA1"/>
<path d="M123.84 15.3185C127.66 28.4695 104.444 46.8 72.0076 56.2408C39.5342 65.7183 10.1099 62.7428 6.25273 49.5918C2.39561 36.4409 25.6486 18.1103 58.1219 8.66954C90.5953 -0.807981 120.02 2.16752 123.84 15.3185Z" fill="url(#paint1_linear_4140_73846)"/>
<path d="M36.412 61.9708C33.6202 61.9708 30.9386 61.8606 28.3671 61.5667C15.8774 60.3177 7.97945 56.0565 6.10599 49.628C4.23253 43.1994 8.64068 35.3749 18.4855 27.5872C28.2937 19.8362 42.363 13.0403 58.0854 8.44851C90.5588 -0.992277 120.167 2.05669 124.024 15.2811C127.881 28.5056 104.555 46.9463 72.0445 56.4239C59.5548 60.0606 47.212 61.9708 36.412 61.9708ZM93.7547 3.30567C83.2853 3.30567 70.9425 5.10566 58.1589 8.81585C42.4732 13.4077 28.4773 20.1668 18.6692 27.8811C8.93455 35.5586 4.59987 43.2729 6.39987 49.5545C8.2366 55.8361 16.0243 59.9871 28.3671 61.2361C40.7467 62.4851 56.2119 60.6483 71.8976 56.0932C104.261 46.6525 127.477 28.3954 123.657 15.3546C121.379 7.49341 109.734 3.30567 93.7547 3.30567Z" fill="#00DBA1"/>
<path d="M122.481 18.0367C126.044 30.3061 103.526 47.6815 72.1548 56.8284C40.7835 65.9753 12.4611 63.4407 8.86112 51.1713C5.26114 38.902 27.8162 21.5265 59.1875 12.3796C90.5955 3.26943 118.918 5.76738 122.481 18.0367Z" fill="url(#paint2_linear_4140_73846)"/>
<path d="M36.9998 62.5222C34.6121 62.5222 32.2978 62.4119 30.057 62.2283C18.0448 61.163 10.4407 57.2691 8.67745 51.2446C5.07747 38.9018 27.706 21.4162 59.114 12.2693C74.3221 7.82438 89.2731 5.98765 101.249 7.05295C113.261 8.11825 120.865 12.0121 122.628 18.0366C126.228 30.3794 103.6 47.8651 72.1915 57.012C59.812 60.612 47.6161 62.5222 36.9998 62.5222ZM94.3425 7.08968C83.7996 7.08968 71.6038 8.99988 59.2609 12.5999C28.0366 21.6733 5.51828 38.9753 9.0448 51.1344C10.7713 57.012 18.2284 60.7956 30.0937 61.8609C42.0324 62.9262 56.9467 61.0895 72.0813 56.6446C103.306 47.5344 125.824 30.2325 122.297 18.0733C120.571 12.1958 113.114 8.41213 101.249 7.34683C99.0445 7.16315 96.7302 7.08968 94.3425 7.08968Z" fill="#00DBA1"/>
<path d="M72.9262 33.0241L78.5833 31.3711L82.4404 41.62L92.0649 38.8282L81.1547 13.9589L72.9262 16.3466L76.1221 24.7589L70.6854 26.3384C67.8568 19.5058 64.2568 15.2079 61.9425 15.9058C59.5915 16.6038 59.0038 22.114 60.4731 29.3507L42.2161 34.6772L43.2814 41.6568L62.3099 36.1098C65.1384 44.4118 69.4364 50.6567 72.3017 49.8118C75.1302 49.0037 75.2037 41.4731 72.9262 33.0241ZM63.8895 35.6323C63.5221 34.5303 63.1548 33.3915 62.8242 32.216C62.4935 31.0772 62.2364 29.9384 61.9793 28.8731C60.5833 22.4078 60.8772 17.5589 62.714 17.0079C64.5507 16.4568 67.5262 20.3874 70.0241 26.5221L63.5588 28.3956C63.816 29.4609 64.1099 30.5629 64.4405 31.7017C64.7711 32.8772 65.1384 34.016 65.5058 35.118L72.2649 33.1343C74.2853 40.6282 74.4323 47.1302 72.2282 47.7914C69.9874 48.4894 66.4241 43.0159 63.8895 35.6323Z" fill="white"/>
</g>
<defs>
<linearGradient id="paint0_linear_4140_73846" x1="1.33856" y1="51.4252" x2="123.58" y2="15.7841" gradientUnits="userSpaceOnUse">
<stop offset="1e-08" stop-color="#5BDAB0"/>
<stop offset="1" stop-color="#57E4B0"/>
</linearGradient>
<linearGradient id="paint1_linear_4140_73846" x1="1.66485" y1="50.9387" x2="103.375" y2="21.2839" gradientUnits="userSpaceOnUse">
<stop stop-color="#68F5B0"/>
<stop offset="1" stop-color="#0060A7"/>
</linearGradient>
<linearGradient id="paint2_linear_4140_73846" x1="9.85275" y1="50.8943" x2="91.2703" y2="27.156" gradientUnits="userSpaceOnUse">
<stop stop-color="#36B1AC"/>
<stop offset="0.5362" stop-color="#5DE2B0"/>
<stop offset="1" stop-color="#63FCB0"/>
</linearGradient>
<clipPath id="clip0_4140_73846">
<rect width="134.816" height="82.6528" fill="white" transform="translate(0.228516)"/>
</clipPath>
</defs>
</svg>
