<svg width="483" height="223" viewBox="0 0 483 223" fill="none" xmlns="http://www.w3.org/2000/svg">
<g filter="url(#filter0_d_5100_42258)">
<rect x="25" y="15.876" width="458" height="253.248" rx="15" fill="#1B2537" shape-rendering="crispEdges"/>
<rect x="25.25" y="16.126" width="457.5" height="252.748" rx="14.75" stroke="url(#paint0_linear_5100_42258)" stroke-width="0.5" shape-rendering="crispEdges"/>
<rect x="49" y="39.876" width="50" height="50" rx="25" fill="#10192D"/>
<circle cx="74" cy="60.876" r="5" stroke="#8E9BAE" stroke-width="2" stroke-linecap="round" stroke-linejoin="round"/>
<path d="M82 73.876C82 69.4577 78.4183 65.876 74 65.876C69.5817 65.876 66 69.4577 66 73.876" stroke="#8E9BAE" stroke-width="2" stroke-linecap="round" stroke-linejoin="round"/>
<path d="M82 73.876C82 69.4577 78.4183 65.876 74 65.876C69.5817 65.876 66 69.4577 66 73.876" stroke="#8E9BAE" stroke-width="2" stroke-linecap="round" stroke-linejoin="round"/>
<path d="M120.992 60.116C119.84 60.116 118.853 59.8653 118.032 59.364C117.211 58.8573 116.579 58.1533 116.136 57.252C115.699 56.3506 115.48 55.3053 115.48 54.116C115.48 52.9266 115.699 51.8813 116.136 50.98C116.579 50.0786 117.211 49.3773 118.032 48.876C118.853 48.3693 119.84 48.116 120.992 48.116C122.144 48.116 123.131 48.3693 123.952 48.876C124.779 49.3773 125.411 50.0786 125.848 50.98C126.291 51.8813 126.512 52.9266 126.512 54.116C126.512 55.3053 126.291 56.3506 125.848 57.252C125.411 58.1533 124.779 58.8573 123.952 59.364C123.131 59.8653 122.144 60.116 120.992 60.116ZM120.992 58.3C121.765 58.3053 122.408 58.1346 122.92 57.788C123.437 57.4413 123.824 56.9533 124.08 56.324C124.341 55.6946 124.472 54.9586 124.472 54.116C124.472 53.2733 124.341 52.5426 124.08 51.924C123.824 51.3 123.437 50.8146 122.92 50.468C122.408 50.1213 121.765 49.9426 120.992 49.932C120.219 49.9266 119.576 50.0973 119.064 50.444C118.552 50.7906 118.165 51.2786 117.904 51.908C117.648 52.5373 117.52 53.2733 117.52 54.116C117.52 54.9586 117.648 55.692 117.904 56.316C118.16 56.9346 118.544 57.4173 119.056 57.764C119.573 58.1106 120.219 58.2893 120.992 58.3ZM128.088 59.876L128.104 48.356H130.056V55.396L133.216 51.236H135.624L132.272 55.556L135.912 59.876H133.36L130.056 55.716V59.876H128.088ZM140.374 60.116C139.51 60.116 138.755 59.9213 138.11 59.532C137.464 59.1426 136.963 58.6066 136.606 57.924C136.254 57.236 136.078 56.4466 136.078 55.556C136.078 54.6493 136.259 53.8546 136.622 53.172C136.984 52.4893 137.488 51.956 138.134 51.572C138.779 51.188 139.526 50.996 140.374 50.996C141.243 50.996 142 51.1906 142.646 51.58C143.291 51.9693 143.792 52.508 144.15 53.196C144.507 53.8786 144.686 54.6653 144.686 55.556C144.686 56.452 144.504 57.244 144.142 57.932C143.784 58.6146 143.283 59.1506 142.638 59.54C141.992 59.924 141.238 60.116 140.374 60.116ZM140.374 58.308C141.142 58.308 141.712 58.052 142.086 57.54C142.459 57.028 142.646 56.3666 142.646 55.556C142.646 54.7186 142.456 54.052 142.078 53.556C141.699 53.0546 141.131 52.804 140.374 52.804C139.856 52.804 139.43 52.9213 139.094 53.156C138.763 53.3853 138.518 53.708 138.358 54.124C138.198 54.5346 138.118 55.012 138.118 55.556C138.118 56.3933 138.307 57.0626 138.686 57.564C139.07 58.06 139.632 58.308 140.374 58.308ZM146.608 59.876V48.116H148.536V59.876H146.608ZM151.093 49.924V48.156H153.021V49.924H151.093ZM151.093 59.876V51.236H153.021V59.876H151.093ZM158.62 59.876V48.356H163.188C163.967 48.356 164.604 48.5133 165.1 48.828C165.601 49.1373 165.972 49.5346 166.212 50.02C166.457 50.5053 166.58 51.0066 166.58 51.524C166.58 52.1586 166.428 52.6973 166.124 53.14C165.825 53.5826 165.417 53.8813 164.9 54.036V53.636C165.625 53.8013 166.175 54.1453 166.548 54.668C166.927 55.1906 167.116 55.7853 167.116 56.452C167.116 57.1346 166.985 57.732 166.724 58.244C166.463 58.756 166.073 59.156 165.556 59.444C165.044 59.732 164.409 59.876 163.652 59.876H158.62ZM160.572 58.06H163.412C163.748 58.06 164.049 57.9933 164.316 57.86C164.583 57.7213 164.791 57.5293 164.94 57.284C165.095 57.0333 165.172 56.7373 165.172 56.396C165.172 56.0866 165.105 55.8093 164.972 55.564C164.839 55.3186 164.644 55.124 164.388 54.98C164.132 54.8306 163.825 54.756 163.468 54.756H160.572V58.06ZM160.572 52.956H163.164C163.441 52.956 163.689 52.9026 163.908 52.796C164.127 52.6893 164.3 52.532 164.428 52.324C164.556 52.116 164.62 51.86 164.62 51.556C164.62 51.156 164.492 50.8226 164.236 50.556C163.98 50.2893 163.623 50.156 163.164 50.156H160.572V52.956ZM172.53 60.116C171.666 60.116 170.911 59.9213 170.266 59.532C169.62 59.1426 169.119 58.6066 168.762 57.924C168.41 57.236 168.234 56.4466 168.234 55.556C168.234 54.6493 168.415 53.8546 168.778 53.172C169.14 52.4893 169.644 51.956 170.29 51.572C170.935 51.188 171.682 50.996 172.53 50.996C173.399 50.996 174.156 51.1906 174.802 51.58C175.447 51.9693 175.948 52.508 176.306 53.196C176.663 53.8786 176.842 54.6653 176.842 55.556C176.842 56.452 176.66 57.244 176.298 57.932C175.94 58.6146 175.439 59.1506 174.794 59.54C174.148 59.924 173.394 60.116 172.53 60.116ZM172.53 58.308C173.298 58.308 173.868 58.052 174.242 57.54C174.615 57.028 174.802 56.3666 174.802 55.556C174.802 54.7186 174.612 54.052 174.234 53.556C173.855 53.0546 173.287 52.804 172.53 52.804C172.012 52.804 171.586 52.9213 171.25 53.156C170.919 53.3853 170.674 53.708 170.514 54.124C170.354 54.5346 170.274 55.012 170.274 55.556C170.274 56.3933 170.463 57.0626 170.842 57.564C171.226 58.06 171.788 58.308 172.53 58.308ZM184.58 59.876V55.716C184.58 55.444 184.562 55.1426 184.524 54.812C184.487 54.4813 184.399 54.164 184.26 53.86C184.127 53.5506 183.924 53.2973 183.652 53.1C183.386 52.9026 183.023 52.804 182.564 52.804C182.319 52.804 182.076 52.844 181.836 52.924C181.596 53.004 181.378 53.1426 181.18 53.34C180.988 53.532 180.834 53.7986 180.716 54.14C180.599 54.476 180.54 54.908 180.54 55.436L179.396 54.948C179.396 54.212 179.538 53.5453 179.82 52.948C180.108 52.3506 180.53 51.876 181.084 51.524C181.639 51.1666 182.322 50.988 183.132 50.988C183.772 50.988 184.3 51.0946 184.716 51.308C185.132 51.5213 185.463 51.7933 185.708 52.124C185.954 52.4546 186.135 52.8066 186.252 53.18C186.37 53.5533 186.444 53.908 186.476 54.244C186.514 54.5746 186.532 54.844 186.532 55.052V59.876H184.58ZM178.588 59.876V51.236H180.308V53.916H180.54V59.876H178.588ZM191.036 60.116C190.412 60.116 189.884 59.9986 189.452 59.764C189.02 59.524 188.692 59.2066 188.468 58.812C188.249 58.4173 188.14 57.9826 188.14 57.508C188.14 57.092 188.209 56.7186 188.348 56.388C188.487 56.052 188.7 55.764 188.988 55.524C189.276 55.2786 189.649 55.0786 190.108 54.924C190.455 54.812 190.86 54.7106 191.324 54.62C191.793 54.5293 192.3 54.4466 192.844 54.372C193.393 54.292 193.967 54.2066 194.564 54.116L193.876 54.508C193.881 53.9106 193.748 53.4706 193.476 53.188C193.204 52.9053 192.745 52.764 192.1 52.764C191.711 52.764 191.335 52.8546 190.972 53.036C190.609 53.2173 190.356 53.5293 190.212 53.972L188.452 53.42C188.665 52.6893 189.071 52.1026 189.668 51.66C190.271 51.2173 191.081 50.996 192.1 50.996C192.868 50.996 193.543 51.1213 194.124 51.372C194.711 51.6226 195.145 52.0333 195.428 52.604C195.583 52.908 195.676 53.22 195.708 53.54C195.74 53.8546 195.756 54.1986 195.756 54.572V59.876H194.068V58.004L194.348 58.308C193.959 58.932 193.503 59.3906 192.98 59.684C192.463 59.972 191.815 60.116 191.036 60.116ZM191.42 58.58C191.857 58.58 192.231 58.5026 192.54 58.348C192.849 58.1933 193.095 58.004 193.276 57.78C193.463 57.556 193.588 57.3453 193.652 57.148C193.753 56.9026 193.809 56.6226 193.82 56.308C193.836 55.988 193.844 55.7293 193.844 55.532L194.436 55.708C193.855 55.7986 193.356 55.8786 192.94 55.948C192.524 56.0173 192.167 56.084 191.868 56.148C191.569 56.2066 191.305 56.2733 191.076 56.348C190.852 56.428 190.663 56.5213 190.508 56.628C190.353 56.7346 190.233 56.8573 190.148 56.996C190.068 57.1346 190.028 57.2973 190.028 57.484C190.028 57.6973 190.081 57.8866 190.188 58.052C190.295 58.212 190.449 58.34 190.652 58.436C190.86 58.532 191.116 58.58 191.42 58.58ZM199.862 59.876L196.726 51.236H198.654L200.83 57.5L202.998 51.236H204.934L201.798 59.876H199.862ZM209.986 60.116C209.111 60.116 208.343 59.9266 207.682 59.548C207.02 59.1693 206.503 58.644 206.13 57.972C205.762 57.3 205.578 56.5266 205.578 55.652C205.578 54.708 205.759 53.8893 206.122 53.196C206.484 52.4973 206.988 51.956 207.634 51.572C208.279 51.188 209.026 50.996 209.874 50.996C210.77 50.996 211.53 51.2066 212.154 51.628C212.783 52.044 213.25 52.6333 213.554 53.396C213.858 54.1586 213.972 55.0573 213.898 56.092H211.986V55.388C211.98 54.4493 211.815 53.764 211.49 53.332C211.164 52.9 210.652 52.684 209.954 52.684C209.164 52.684 208.578 52.9293 208.194 53.42C207.81 53.9053 207.618 54.6173 207.618 55.556C207.618 56.4306 207.81 57.108 208.194 57.588C208.578 58.068 209.138 58.308 209.874 58.308C210.348 58.308 210.756 58.204 211.098 57.996C211.444 57.7826 211.711 57.476 211.898 57.076L213.802 57.652C213.471 58.4306 212.959 59.036 212.266 59.468C211.578 59.9 210.818 60.116 209.986 60.116ZM207.01 56.092V54.636H212.954V56.092H207.01ZM221.424 59.876V55.716C221.424 55.444 221.405 55.1426 221.368 54.812C221.331 54.4813 221.243 54.164 221.104 53.86C220.971 53.5506 220.768 53.2973 220.496 53.1C220.229 52.9026 219.867 52.804 219.408 52.804C219.163 52.804 218.92 52.844 218.68 52.924C218.44 53.004 218.221 53.1426 218.024 53.34C217.832 53.532 217.677 53.7986 217.56 54.14C217.443 54.476 217.384 54.908 217.384 55.436L216.24 54.948C216.24 54.212 216.381 53.5453 216.664 52.948C216.952 52.3506 217.373 51.876 217.928 51.524C218.483 51.1666 219.165 50.988 219.976 50.988C220.616 50.988 221.144 51.0946 221.56 51.308C221.976 51.5213 222.307 51.7933 222.552 52.124C222.797 52.4546 222.979 52.8066 223.096 53.18C223.213 53.5533 223.288 53.908 223.32 54.244C223.357 54.5746 223.376 54.844 223.376 55.052V59.876H221.424ZM215.432 59.876V51.236H217.152V53.916H217.384V59.876H215.432ZM230.528 59.876C229.957 59.9826 229.397 60.028 228.848 60.012C228.304 60.0013 227.816 59.9026 227.384 59.716C226.952 59.524 226.624 59.2226 226.4 58.812C226.202 58.4386 226.098 58.0573 226.088 57.668C226.077 57.2786 226.072 56.8386 226.072 56.348V48.836H227.992V56.236C227.992 56.5826 227.994 56.8866 228 57.148C228.01 57.4093 228.066 57.6226 228.168 57.788C228.36 58.108 228.666 58.2866 229.088 58.324C229.509 58.3613 229.989 58.34 230.528 58.26V59.876ZM224.504 52.748V51.236H230.528V52.748H224.504ZM235.626 60.124C234.986 60.124 234.458 60.0173 234.042 59.804C233.626 59.5906 233.295 59.3186 233.05 58.988C232.804 58.6573 232.623 58.3053 232.506 57.932C232.388 57.5586 232.311 57.2066 232.274 56.876C232.242 56.54 232.226 56.268 232.226 56.06V51.236H234.178V55.396C234.178 55.6626 234.196 55.964 234.234 56.3C234.271 56.6306 234.356 56.9506 234.49 57.26C234.628 57.564 234.831 57.8146 235.098 58.012C235.37 58.2093 235.735 58.308 236.194 58.308C236.439 58.308 236.682 58.268 236.922 58.188C237.162 58.108 237.378 57.972 237.57 57.78C237.767 57.5826 237.924 57.3133 238.042 56.972C238.159 56.6306 238.218 56.1986 238.218 55.676L239.362 56.164C239.362 56.9 239.218 57.5666 238.93 58.164C238.647 58.7613 238.228 59.2386 237.674 59.596C237.119 59.948 236.436 60.124 235.626 60.124ZM238.45 59.876V57.196H238.218V51.236H240.154V59.876H238.45ZM242.401 59.876V51.236H244.105V53.34L243.897 53.068C244.004 52.78 244.145 52.5186 244.321 52.284C244.503 52.044 244.719 51.8466 244.969 51.692C245.183 51.548 245.417 51.436 245.673 51.356C245.935 51.2706 246.201 51.22 246.473 51.204C246.745 51.1826 247.009 51.1933 247.265 51.236V53.036C247.009 52.9613 246.713 52.9373 246.377 52.964C246.047 52.9906 245.748 53.084 245.481 53.244C245.215 53.388 244.996 53.572 244.825 53.796C244.66 54.02 244.537 54.276 244.457 54.564C244.377 54.8466 244.337 55.1533 244.337 55.484V59.876H242.401ZM252.564 60.116C251.689 60.116 250.921 59.9266 250.26 59.548C249.598 59.1693 249.081 58.644 248.708 57.972C248.34 57.3 248.156 56.5266 248.156 55.652C248.156 54.708 248.337 53.8893 248.7 53.196C249.062 52.4973 249.566 51.956 250.212 51.572C250.857 51.188 251.604 50.996 252.452 50.996C253.348 50.996 254.108 51.2066 254.732 51.628C255.361 52.044 255.828 52.6333 256.132 53.396C256.436 54.1586 256.55 55.0573 256.476 56.092H254.564V55.388C254.558 54.4493 254.393 53.764 254.068 53.332C253.742 52.9 253.23 52.684 252.532 52.684C251.742 52.684 251.156 52.9293 250.772 53.42C250.388 53.9053 250.196 54.6173 250.196 55.556C250.196 56.4306 250.388 57.108 250.772 57.588C251.156 58.068 251.716 58.308 252.452 58.308C252.926 58.308 253.334 58.204 253.676 57.996C254.022 57.7826 254.289 57.476 254.476 57.076L256.38 57.652C256.049 58.4306 255.537 59.036 254.844 59.468C254.156 59.9 253.396 60.116 252.564 60.116ZM249.588 56.092V54.636H255.532V56.092H249.588Z" fill="white"/>
<path d="M115.96 75.25V74.146H117.028V75.25H115.96ZM115.96 82.876V76.396H117.028V82.876H115.96ZM123.442 82.876V79.63C123.442 79.322 123.414 79.026 123.358 78.742C123.306 78.458 123.212 78.204 123.076 77.98C122.944 77.752 122.764 77.572 122.536 77.44C122.312 77.308 122.028 77.242 121.684 77.242C121.416 77.242 121.172 77.288 120.952 77.38C120.736 77.468 120.55 77.604 120.394 77.788C120.238 77.972 120.116 78.204 120.028 78.484C119.944 78.76 119.902 79.086 119.902 79.462L119.2 79.246C119.2 78.618 119.312 78.08 119.536 77.632C119.764 77.18 120.082 76.834 120.49 76.594C120.902 76.35 121.386 76.228 121.942 76.228C122.362 76.228 122.72 76.294 123.016 76.426C123.312 76.558 123.558 76.734 123.754 76.954C123.95 77.17 124.104 77.414 124.216 77.686C124.328 77.954 124.406 78.228 124.45 78.508C124.498 78.784 124.522 79.046 124.522 79.294V82.876H123.442ZM118.822 82.876V76.396H119.782V78.13H119.902V82.876H118.822ZM131.983 83.056C131.391 83.056 130.851 82.952 130.363 82.744C129.875 82.536 129.455 82.238 129.103 81.85C128.751 81.458 128.479 80.986 128.287 80.434C128.099 79.878 128.005 79.252 128.005 78.556C128.005 77.636 128.169 76.84 128.497 76.168C128.825 75.496 129.287 74.978 129.883 74.614C130.479 74.246 131.179 74.062 131.983 74.062C132.951 74.062 133.731 74.288 134.323 74.74C134.915 75.188 135.323 75.802 135.547 76.582L134.467 76.804C134.287 76.28 133.991 75.862 133.579 75.55C133.167 75.238 132.653 75.082 132.037 75.082C131.393 75.078 130.857 75.222 130.429 75.514C130.005 75.802 129.685 76.208 129.469 76.732C129.253 77.256 129.143 77.864 129.139 78.556C129.135 79.244 129.241 79.848 129.457 80.368C129.673 80.888 129.995 81.296 130.423 81.592C130.855 81.884 131.393 82.032 132.037 82.036C132.593 82.04 133.061 81.934 133.441 81.718C133.821 81.502 134.115 81.19 134.323 80.782C134.531 80.374 134.657 79.884 134.701 79.312H132.865V78.43H135.829C135.841 78.51 135.847 78.606 135.847 78.718C135.851 78.826 135.853 78.9 135.853 78.94C135.853 79.728 135.705 80.434 135.409 81.058C135.117 81.678 134.683 82.166 134.107 82.522C133.535 82.878 132.827 83.056 131.983 83.056ZM139.859 83.056C139.223 83.056 138.667 82.916 138.191 82.636C137.719 82.352 137.351 81.958 137.087 81.454C136.823 80.946 136.691 80.354 136.691 79.678C136.691 78.97 136.821 78.358 137.081 77.842C137.341 77.322 137.703 76.922 138.167 76.642C138.635 76.358 139.183 76.216 139.811 76.216C140.463 76.216 141.017 76.366 141.473 76.666C141.933 76.966 142.277 77.394 142.505 77.95C142.737 78.506 142.837 79.168 142.805 79.936H141.725V79.552C141.713 78.756 141.551 78.162 141.239 77.77C140.927 77.374 140.463 77.176 139.847 77.176C139.187 77.176 138.685 77.388 138.341 77.812C137.997 78.236 137.825 78.844 137.825 79.636C137.825 80.4 137.997 80.992 138.341 81.412C138.685 81.832 139.175 82.042 139.811 82.042C140.239 82.042 140.611 81.944 140.927 81.748C141.243 81.552 141.491 81.27 141.671 80.902L142.697 81.256C142.445 81.828 142.065 82.272 141.557 82.588C141.053 82.9 140.487 83.056 139.859 83.056ZM137.465 79.936V79.078H142.253V79.936H137.465ZM144.141 82.876V76.396H145.095V77.962L144.939 77.758C145.015 77.558 145.113 77.374 145.233 77.206C145.357 77.038 145.495 76.9 145.647 76.792C145.815 76.656 146.005 76.552 146.217 76.48C146.429 76.408 146.645 76.366 146.865 76.354C147.085 76.338 147.291 76.352 147.483 76.396V77.398C147.259 77.338 147.013 77.322 146.745 77.35C146.477 77.378 146.229 77.476 146.001 77.644C145.793 77.792 145.631 77.972 145.515 78.184C145.403 78.396 145.325 78.626 145.281 78.874C145.237 79.118 145.215 79.368 145.215 79.624V82.876H144.141ZM156.363 82.876L156.369 78.73C156.369 78.246 156.239 77.868 155.979 77.596C155.723 77.32 155.389 77.182 154.977 77.182C154.737 77.182 154.509 77.238 154.293 77.35C154.077 77.458 153.901 77.63 153.765 77.866C153.629 78.098 153.561 78.396 153.561 78.76L152.997 78.532C152.989 78.072 153.083 77.67 153.279 77.326C153.479 76.978 153.751 76.708 154.095 76.516C154.439 76.324 154.827 76.228 155.259 76.228C155.935 76.228 156.467 76.434 156.855 76.846C157.243 77.254 157.437 77.804 157.437 78.496L157.431 82.876H156.363ZM148.611 82.876V76.396H149.565V78.13H149.685V82.876H148.611ZM152.493 82.876L152.499 78.772C152.499 78.276 152.371 77.888 152.115 77.608C151.859 77.324 151.519 77.182 151.095 77.182C150.675 77.182 150.335 77.326 150.075 77.614C149.815 77.902 149.685 78.284 149.685 78.76L149.121 78.424C149.121 78.004 149.221 77.628 149.421 77.296C149.621 76.964 149.893 76.704 150.237 76.516C150.581 76.324 150.971 76.228 151.407 76.228C151.843 76.228 152.223 76.32 152.547 76.504C152.871 76.688 153.121 76.952 153.297 77.296C153.473 77.636 153.561 78.042 153.561 78.514L153.555 82.876H152.493ZM160.842 83.056C160.358 83.056 159.952 82.968 159.624 82.792C159.3 82.612 159.054 82.376 158.886 82.084C158.722 81.792 158.64 81.472 158.64 81.124C158.64 80.784 158.704 80.49 158.832 80.242C158.964 79.99 159.148 79.782 159.384 79.618C159.62 79.45 159.902 79.318 160.23 79.222C160.538 79.138 160.882 79.066 161.262 79.006C161.646 78.942 162.034 78.884 162.426 78.832C162.818 78.78 163.184 78.73 163.524 78.682L163.14 78.904C163.152 78.328 163.036 77.902 162.792 77.626C162.552 77.35 162.136 77.212 161.544 77.212C161.152 77.212 160.808 77.302 160.512 77.482C160.22 77.658 160.014 77.946 159.894 78.346L158.88 78.04C159.036 77.472 159.338 77.026 159.786 76.702C160.234 76.378 160.824 76.216 161.556 76.216C162.144 76.216 162.648 76.322 163.068 76.534C163.492 76.742 163.796 77.058 163.98 77.482C164.072 77.682 164.13 77.9 164.154 78.136C164.178 78.368 164.19 78.612 164.19 78.868V82.876H163.242V81.322L163.464 81.466C163.22 81.99 162.878 82.386 162.438 82.654C162.002 82.922 161.47 83.056 160.842 83.056ZM161.004 82.162C161.388 82.162 161.72 82.094 162 81.958C162.284 81.818 162.512 81.636 162.684 81.412C162.856 81.184 162.968 80.936 163.02 80.668C163.08 80.468 163.112 80.246 163.116 80.002C163.124 79.754 163.128 79.564 163.128 79.432L163.5 79.594C163.152 79.642 162.81 79.688 162.474 79.732C162.138 79.776 161.82 79.824 161.52 79.876C161.22 79.924 160.95 79.982 160.71 80.05C160.534 80.106 160.368 80.178 160.212 80.266C160.06 80.354 159.936 80.468 159.84 80.608C159.748 80.744 159.702 80.914 159.702 81.118C159.702 81.294 159.746 81.462 159.834 81.622C159.926 81.782 160.066 81.912 160.254 82.012C160.446 82.112 160.696 82.162 161.004 82.162ZM170.364 82.876V79.63C170.364 79.322 170.336 79.026 170.28 78.742C170.228 78.458 170.134 78.204 169.998 77.98C169.866 77.752 169.686 77.572 169.458 77.44C169.234 77.308 168.95 77.242 168.606 77.242C168.338 77.242 168.094 77.288 167.874 77.38C167.658 77.468 167.472 77.604 167.316 77.788C167.16 77.972 167.038 78.204 166.95 78.484C166.866 78.76 166.824 79.086 166.824 79.462L166.122 79.246C166.122 78.618 166.234 78.08 166.458 77.632C166.686 77.18 167.004 76.834 167.412 76.594C167.824 76.35 168.308 76.228 168.864 76.228C169.284 76.228 169.642 76.294 169.938 76.426C170.234 76.558 170.48 76.734 170.676 76.954C170.872 77.17 171.026 77.414 171.138 77.686C171.25 77.954 171.328 78.228 171.372 78.508C171.42 78.784 171.444 79.046 171.444 79.294V82.876H170.364ZM165.744 82.876V76.396H166.704V78.13H166.824V82.876H165.744ZM173.67 85.756L174.924 82.348L174.942 83.356L172.11 76.396H173.232L175.452 81.994H175.068L177.15 76.396H178.236L174.708 85.756H173.67Z" fill="#8E9BAE"/>
<circle cx="197" cy="78.376" r="2" fill="#64748B"/>
<path d="M217.4 83.05C216.796 83.05 216.284 82.886 215.864 82.558C215.444 82.23 215.156 81.79 215 81.238L216.062 80.986C216.126 81.278 216.28 81.526 216.524 81.73C216.772 81.934 217.056 82.036 217.376 82.036C217.584 82.036 217.796 81.986 218.012 81.886C218.228 81.782 218.394 81.614 218.51 81.382C218.59 81.222 218.636 81.046 218.648 80.854C218.66 80.658 218.666 80.428 218.666 80.164V74.236H219.746V80.164C219.746 80.412 219.744 80.634 219.74 80.83C219.74 81.026 219.72 81.214 219.68 81.394C219.644 81.57 219.572 81.75 219.464 81.934C219.248 82.314 218.958 82.596 218.594 82.78C218.234 82.96 217.836 83.05 217.4 83.05ZM223.389 83.056C222.905 83.056 222.499 82.968 222.171 82.792C221.847 82.612 221.601 82.376 221.433 82.084C221.269 81.792 221.187 81.472 221.187 81.124C221.187 80.784 221.251 80.49 221.379 80.242C221.511 79.99 221.695 79.782 221.931 79.618C222.167 79.45 222.449 79.318 222.777 79.222C223.085 79.138 223.429 79.066 223.809 79.006C224.193 78.942 224.581 78.884 224.973 78.832C225.365 78.78 225.731 78.73 226.071 78.682L225.687 78.904C225.699 78.328 225.583 77.902 225.339 77.626C225.099 77.35 224.683 77.212 224.091 77.212C223.699 77.212 223.355 77.302 223.059 77.482C222.767 77.658 222.561 77.946 222.441 78.346L221.427 78.04C221.583 77.472 221.885 77.026 222.333 76.702C222.781 76.378 223.371 76.216 224.103 76.216C224.691 76.216 225.195 76.322 225.615 76.534C226.039 76.742 226.343 77.058 226.527 77.482C226.619 77.682 226.677 77.9 226.701 78.136C226.725 78.368 226.737 78.612 226.737 78.868V82.876H225.789V81.322L226.011 81.466C225.767 81.99 225.425 82.386 224.985 82.654C224.549 82.922 224.017 83.056 223.389 83.056ZM223.551 82.162C223.935 82.162 224.267 82.094 224.547 81.958C224.831 81.818 225.059 81.636 225.231 81.412C225.403 81.184 225.515 80.936 225.567 80.668C225.627 80.468 225.659 80.246 225.663 80.002C225.671 79.754 225.675 79.564 225.675 79.432L226.047 79.594C225.699 79.642 225.357 79.688 225.021 79.732C224.685 79.776 224.367 79.824 224.067 79.876C223.767 79.924 223.497 79.982 223.257 80.05C223.081 80.106 222.915 80.178 222.759 80.266C222.607 80.354 222.483 80.468 222.387 80.608C222.295 80.744 222.249 80.914 222.249 81.118C222.249 81.294 222.293 81.462 222.381 81.622C222.473 81.782 222.613 81.912 222.801 82.012C222.993 82.112 223.243 82.162 223.551 82.162ZM232.911 82.876V79.63C232.911 79.322 232.883 79.026 232.827 78.742C232.775 78.458 232.681 78.204 232.545 77.98C232.413 77.752 232.233 77.572 232.005 77.44C231.781 77.308 231.497 77.242 231.153 77.242C230.885 77.242 230.641 77.288 230.421 77.38C230.205 77.468 230.019 77.604 229.863 77.788C229.707 77.972 229.585 78.204 229.497 78.484C229.413 78.76 229.371 79.086 229.371 79.462L228.669 79.246C228.669 78.618 228.781 78.08 229.005 77.632C229.233 77.18 229.551 76.834 229.959 76.594C230.371 76.35 230.855 76.228 231.411 76.228C231.831 76.228 232.189 76.294 232.485 76.426C232.781 76.558 233.027 76.734 233.223 76.954C233.419 77.17 233.573 77.414 233.685 77.686C233.797 77.954 233.875 78.228 233.919 78.508C233.967 78.784 233.991 79.046 233.991 79.294V82.876H232.911ZM228.291 82.876V76.396H229.251V78.13H229.371V82.876H228.291ZM238.011 83.044C237.595 83.044 237.237 82.978 236.937 82.846C236.641 82.714 236.395 82.538 236.199 82.318C236.003 82.098 235.849 81.854 235.737 81.586C235.625 81.318 235.545 81.044 235.497 80.764C235.453 80.484 235.431 80.222 235.431 79.978V76.396H236.511V79.642C236.511 79.946 236.539 80.24 236.595 80.524C236.651 80.808 236.745 81.064 236.877 81.292C237.013 81.52 237.193 81.7 237.417 81.832C237.645 81.964 237.929 82.03 238.269 82.03C238.537 82.03 238.781 81.984 239.001 81.892C239.221 81.8 239.409 81.664 239.565 81.484C239.721 81.3 239.841 81.068 239.925 80.788C240.009 80.508 240.051 80.182 240.051 79.81L240.753 80.026C240.753 80.65 240.639 81.188 240.411 81.64C240.187 82.092 239.869 82.44 239.457 82.684C239.049 82.924 238.567 83.044 238.011 83.044ZM240.171 82.876V81.142H240.051V76.396H241.125V82.876H240.171ZM244.647 83.056C244.163 83.056 243.757 82.968 243.429 82.792C243.105 82.612 242.859 82.376 242.691 82.084C242.527 81.792 242.445 81.472 242.445 81.124C242.445 80.784 242.509 80.49 242.637 80.242C242.769 79.99 242.953 79.782 243.189 79.618C243.425 79.45 243.707 79.318 244.035 79.222C244.343 79.138 244.687 79.066 245.067 79.006C245.451 78.942 245.839 78.884 246.231 78.832C246.623 78.78 246.989 78.73 247.329 78.682L246.945 78.904C246.957 78.328 246.841 77.902 246.597 77.626C246.357 77.35 245.941 77.212 245.349 77.212C244.957 77.212 244.613 77.302 244.317 77.482C244.025 77.658 243.819 77.946 243.699 78.346L242.685 78.04C242.841 77.472 243.143 77.026 243.591 76.702C244.039 76.378 244.629 76.216 245.361 76.216C245.949 76.216 246.453 76.322 246.873 76.534C247.297 76.742 247.601 77.058 247.785 77.482C247.877 77.682 247.935 77.9 247.959 78.136C247.983 78.368 247.995 78.612 247.995 78.868V82.876H247.047V81.322L247.269 81.466C247.025 81.99 246.683 82.386 246.243 82.654C245.807 82.922 245.275 83.056 244.647 83.056ZM244.809 82.162C245.193 82.162 245.525 82.094 245.805 81.958C246.089 81.818 246.317 81.636 246.489 81.412C246.661 81.184 246.773 80.936 246.825 80.668C246.885 80.468 246.917 80.246 246.921 80.002C246.929 79.754 246.933 79.564 246.933 79.432L247.305 79.594C246.957 79.642 246.615 79.688 246.279 79.732C245.943 79.776 245.625 79.824 245.325 79.876C245.025 79.924 244.755 79.982 244.515 80.05C244.339 80.106 244.173 80.178 244.017 80.266C243.865 80.354 243.741 80.468 243.645 80.608C243.553 80.744 243.507 80.914 243.507 81.118C243.507 81.294 243.551 81.462 243.639 81.622C243.731 81.782 243.871 81.912 244.059 82.012C244.251 82.112 244.501 82.162 244.809 82.162ZM249.555 82.876V76.396H250.509V77.962L250.353 77.758C250.429 77.558 250.527 77.374 250.647 77.206C250.771 77.038 250.909 76.9 251.061 76.792C251.229 76.656 251.419 76.552 251.631 76.48C251.843 76.408 252.059 76.366 252.279 76.354C252.499 76.338 252.705 76.352 252.897 76.396V77.398C252.673 77.338 252.427 77.322 252.159 77.35C251.891 77.378 251.643 77.476 251.415 77.644C251.207 77.792 251.045 77.972 250.929 78.184C250.817 78.396 250.739 78.626 250.695 78.874C250.651 79.118 250.629 79.368 250.629 79.624V82.876H249.555ZM254.814 85.756L256.068 82.348L256.086 83.356L253.254 76.396H254.376L256.596 81.994H256.212L258.294 76.396H259.38L255.852 85.756H254.814ZM262.534 82.87L262.54 81.91L266.374 78.46C266.694 78.172 266.908 77.9 267.016 77.644C267.128 77.384 267.184 77.118 267.184 76.846C267.184 76.514 267.108 76.214 266.956 75.946C266.804 75.678 266.596 75.466 266.332 75.31C266.072 75.154 265.776 75.076 265.444 75.076C265.1 75.076 264.794 75.158 264.526 75.322C264.258 75.482 264.046 75.696 263.89 75.964C263.738 76.232 263.664 76.524 263.668 76.84H262.576C262.576 76.296 262.702 75.816 262.954 75.4C263.206 74.98 263.548 74.652 263.98 74.416C264.416 74.176 264.91 74.056 265.462 74.056C265.998 74.056 266.478 74.18 266.902 74.428C267.326 74.672 267.66 75.006 267.904 75.43C268.152 75.85 268.276 76.326 268.276 76.858C268.276 77.234 268.228 77.56 268.132 77.836C268.04 78.112 267.896 78.368 267.7 78.604C267.504 78.836 267.258 79.084 266.962 79.348L263.776 82.21L263.638 81.85H268.276V82.87H262.534ZM272.411 83.056C271.859 83.056 271.371 82.946 270.947 82.726C270.523 82.502 270.191 82.192 269.951 81.796C269.711 81.4 269.591 80.938 269.591 80.41C269.591 79.894 269.713 79.428 269.957 79.012C270.205 78.596 270.577 78.276 271.073 78.052L271.055 78.442C270.651 78.246 270.341 77.97 270.125 77.614C269.909 77.254 269.801 76.856 269.801 76.42C269.801 75.932 269.913 75.512 270.137 75.16C270.361 74.808 270.669 74.536 271.061 74.344C271.453 74.152 271.903 74.056 272.411 74.056C272.919 74.056 273.369 74.152 273.761 74.344C274.153 74.536 274.461 74.808 274.685 75.16C274.909 75.512 275.021 75.932 275.021 76.42C275.021 76.856 274.919 77.252 274.715 77.608C274.511 77.96 274.197 78.238 273.773 78.442L273.749 78.058C274.245 78.274 274.617 78.592 274.865 79.012C275.117 79.428 275.243 79.894 275.243 80.41C275.243 80.938 275.121 81.4 274.877 81.796C274.637 82.192 274.303 82.502 273.875 82.726C273.451 82.946 272.963 83.056 272.411 83.056ZM272.411 82.036C272.915 82.036 273.323 81.898 273.635 81.622C273.951 81.342 274.109 80.938 274.109 80.41C274.109 79.878 273.953 79.474 273.641 79.198C273.333 78.918 272.923 78.778 272.411 78.778C271.903 78.778 271.493 78.918 271.181 79.198C270.873 79.474 270.719 79.878 270.719 80.41C270.719 80.938 270.875 81.342 271.187 81.622C271.499 81.898 271.907 82.036 272.411 82.036ZM272.411 77.752C272.851 77.752 273.207 77.642 273.479 77.422C273.751 77.198 273.887 76.864 273.887 76.42C273.887 75.976 273.751 75.644 273.479 75.424C273.207 75.2 272.851 75.088 272.411 75.088C271.975 75.088 271.619 75.2 271.343 75.424C271.071 75.644 270.935 75.976 270.935 76.42C270.935 76.864 271.071 77.198 271.343 77.422C271.619 77.642 271.975 77.752 272.411 77.752ZM280.419 82.876C280.035 82.952 279.655 82.982 279.279 82.966C278.907 82.954 278.575 82.88 278.283 82.744C277.991 82.604 277.769 82.388 277.617 82.096C277.489 81.84 277.419 81.582 277.407 81.322C277.399 81.058 277.395 80.76 277.395 80.428V74.596H278.463V80.38C278.463 80.644 278.465 80.87 278.469 81.058C278.477 81.246 278.519 81.408 278.595 81.544C278.739 81.8 278.967 81.95 279.279 81.994C279.595 82.038 279.975 82.026 280.419 81.958V82.876ZM276.081 77.278V76.396H280.419V77.278H276.081ZM286.349 82.876V79.63C286.349 79.322 286.321 79.026 286.265 78.742C286.213 78.458 286.119 78.204 285.983 77.98C285.851 77.752 285.671 77.572 285.443 77.44C285.219 77.308 284.935 77.242 284.591 77.242C284.323 77.242 284.079 77.288 283.859 77.38C283.643 77.468 283.457 77.604 283.301 77.788C283.145 77.972 283.023 78.204 282.935 78.484C282.851 78.76 282.809 79.086 282.809 79.462L282.107 79.246C282.107 78.618 282.219 78.08 282.443 77.632C282.671 77.18 282.989 76.834 283.397 76.594C283.809 76.35 284.293 76.228 284.849 76.228C285.269 76.228 285.627 76.294 285.923 76.426C286.219 76.558 286.465 76.734 286.661 76.954C286.857 77.17 287.011 77.414 287.123 77.686C287.235 77.954 287.313 78.228 287.357 78.508C287.405 78.784 287.429 79.046 287.429 79.294V82.876H286.349ZM281.729 82.876V74.236H282.689V79.006H282.809V82.876H281.729Z" fill="#8E9BAE"/>
<rect x="378" y="51.7915" width="81" height="26.1689" rx="13.0845" fill="#2873FF"/>
<rect x="398.5" y="61.7915" width="40" height="6.16895" rx="3.08447" fill="#5892FF"/>
<rect x="49" y="121.876" width="109.32" height="13.9619" rx="6.98096" fill="#64748B"/>
<rect x="49" y="146.838" width="383.412" height="11.6572" rx="5.82861" fill="#8E9BAE"/>
<rect x="49" y="168.495" width="308.432" height="11.6572" rx="5.82861" fill="#8E9BAE"/>
<rect x="49" y="190.152" width="383.412" height="11.6572" rx="5.82861" fill="#8E9BAE"/>
<rect x="49" y="211.81" width="308.432" height="11.6572" rx="5.82861" fill="#8E9BAE"/>
</g>
<defs>
<filter id="filter0_d_5100_42258" x="0" y="0.875977" width="508" height="303.248" filterUnits="userSpaceOnUse" color-interpolation-filters="sRGB">
<feFlood flood-opacity="0" result="BackgroundImageFix"/>
<feColorMatrix in="SourceAlpha" type="matrix" values="0 0 0 0 0 0 0 0 0 0 0 0 0 0 0 0 0 0 127 0" result="hardAlpha"/>
<feOffset dy="10"/>
<feGaussianBlur stdDeviation="12.5"/>
<feComposite in2="hardAlpha" operator="out"/>
<feColorMatrix type="matrix" values="0 0 0 0 0.105882 0 0 0 0 0.145098 0 0 0 0 0.215686 0 0 0 0.05 0"/>
<feBlend mode="normal" in2="BackgroundImageFix" result="effect1_dropShadow_5100_42258"/>
<feBlend mode="normal" in="SourceGraphic" in2="effect1_dropShadow_5100_42258" result="shape"/>
</filter>
<linearGradient id="paint0_linear_5100_42258" x1="25" y1="15.876" x2="483" y2="269.124" gradientUnits="userSpaceOnUse">
<stop stop-color="#64748B"/>
<stop offset="0.555" stop-color="#64748B" stop-opacity="0"/>
<stop offset="1" stop-color="#64748B" stop-opacity="0.35"/>
</linearGradient>
</defs>
</svg>
