<svg width="462" height="81" viewBox="0 0 462 81" fill="none" xmlns="http://www.w3.org/2000/svg">
<path d="M333.03 31.5386L372.607 20.6916" stroke="#1B2537" stroke-width="3.40789" stroke-linecap="round"/>
<path d="M31.03 25.5386L71.4583 15.2163" stroke="#FACC15" stroke-width="3.40789" stroke-linecap="round"/>
<path d="M386.03 65.5386L425.607 54.6916" stroke="#2873FF" stroke-width="3.40789" stroke-linecap="round"/>
<circle cx="310.894" cy="31.9439" r="6.5" transform="rotate(31.648 310.894 31.9439)" fill="#2873FF"/>
<circle cx="222.894" cy="31.9439" r="6.5" transform="rotate(31.648 222.894 31.9439)" fill="#1B2537"/>
<circle cx="93.8938" cy="48.9439" r="6.5" transform="rotate(31.648 93.8938 48.9439)" fill="#1B2537"/>
<circle cx="8.94387" cy="48.9439" r="6.5" transform="rotate(31.648 8.94387 48.9439)" fill="#2873FF"/>
<circle cx="253.894" cy="48.9439" r="6.5" transform="rotate(31.648 253.894 48.9439)" fill="#1B2537"/>
<circle cx="189.547" cy="30.6959" r="8.5" transform="rotate(31.648 189.547 30.6959)" fill="#FACC15"/>
<circle cx="153.547" cy="51.6959" r="8.5" transform="rotate(31.648 153.547 51.6959)" fill="#1B2537"/>
<ellipse cx="449.809" cy="51.2702" rx="8.5" ry="8" transform="rotate(31.648 449.809 51.2702)" fill="#2873FF"/>
<circle cx="282.404" cy="46.8799" r="5" transform="rotate(31.648 282.404 46.8799)" fill="#1B2537"/>
<ellipse cx="121.978" cy="33.6176" rx="4.5" ry="5" transform="rotate(31.648 121.978 33.6176)" fill="#FACC15"/>
</svg>
