<svg width="112" height="80" viewBox="0 0 112 80" fill="none" xmlns="http://www.w3.org/2000/svg">
<g clip-path="url(#clip0_4140_73799)">
<path d="M92.1848 45.6084L75.8992 79.0258C70.5455 78.2659 64.691 76.8671 58.612 74.8465L78.248 34.5729C83.5844 38.1132 88.2818 41.8608 92.1848 45.6084Z" fill="#7A0082"/>
<path d="M75.9337 79.1121L75.9683 79.0602L92.2711 45.591L92.2366 45.5565C88.2645 41.7398 83.5671 38.0268 78.2824 34.5037L78.1961 34.4519L78.1616 34.5383L58.4911 74.8982L58.5774 74.9327C64.6046 76.936 70.4246 78.3349 75.8819 79.1121H75.9337ZM92.0811 45.6256L75.8474 78.9221C70.4419 78.1449 64.691 76.7633 58.7328 74.7946L78.2652 34.6937C83.498 38.165 88.1436 41.8435 92.0811 45.6256Z" fill="#FF1F70"/>
<path d="M78.2479 34.5732L58.612 74.8468C53.3792 73.1025 47.9564 70.9092 42.5164 68.2496L63.1194 25.9555C68.5767 28.5978 73.6368 31.5164 78.2479 34.5732Z" fill="#7C0083"/>
<path d="M58.6465 74.9502L58.6811 74.8811L78.3516 34.5384L78.2998 34.5039C73.6023 31.378 68.5077 28.4767 63.1713 25.8689L63.1022 25.8344L63.0676 25.9035L42.4128 68.284L42.4818 68.3185C47.8183 70.909 53.241 73.1368 58.5947 74.9156L58.6465 74.9502ZM78.1271 34.5902L58.5602 74.7429C53.2583 72.9814 47.8873 70.7881 42.6027 68.2149L63.154 26.0589C68.4386 28.6321 73.4814 31.4989 78.1271 34.5902Z" fill="#FF1F70"/>
<path d="M110.266 58.4404L103.704 71.911C102.27 74.8641 99.4555 76.9538 95.587 78.2318L106.191 56.4716L110.266 58.4404Z" fill="#7A0080"/>
<path d="M95.4315 78.3524L95.6215 78.2834C99.6281 76.9708 102.374 74.8294 103.773 71.928L110.387 58.4056L106.173 56.3505L106.139 56.4196L95.4315 78.3524ZM110.163 58.4747L103.635 71.8762C102.27 74.6912 99.6109 76.7809 95.7597 78.0934L106.243 56.5577L110.163 58.4747Z" fill="#FF1F70"/>
<path d="M98.6265 52.7583L106.208 56.454L95.6042 78.2142C90.5614 79.8721 83.7398 80.1312 75.8992 79.0086L92.1848 45.5912C94.6717 48.009 96.8304 50.4095 98.6265 52.7583Z" fill="#7A0081"/>
<path d="M84.8623 79.7863C88.9899 79.7863 92.6338 79.2854 95.6215 78.3011L95.6561 78.2838L95.6733 78.2492L106.312 56.42L98.6783 52.6897C96.8822 50.341 94.7235 47.9405 92.2366 45.5399L92.1503 45.4536L92.0985 45.5572L75.7611 79.0609L75.8647 79.0782C79.0596 79.5618 82.0819 79.7863 84.8623 79.7863ZM95.5352 78.1629C90.5787 79.7863 83.8434 80.0626 76.0028 78.9573L92.1848 45.7472C94.6371 48.1132 96.7786 50.4791 98.5402 52.8106L98.5574 52.8279L106.087 56.4891L95.5352 78.1629Z" fill="#FF1F70"/>
<path d="M29.7366 15.1789L13.451 48.5963C7.73463 43.1045 3.72799 37.5781 1.93192 32.587L12.5357 10.8269L20.1172 14.5227C23.1049 14.4708 26.3171 14.6954 29.7366 15.1789Z" fill="#EF568C"/>
<path d="M13.4855 48.7344L29.8574 15.1097L29.7538 15.0925C26.3516 14.6089 23.1221 14.3844 20.1517 14.4189L12.5184 10.6886L12.4838 10.7577L1.86281 32.5524L1.88008 32.5869C3.65888 37.5434 7.64824 43.0871 13.4164 48.6307L13.4855 48.7344ZM29.6156 15.2479L13.4337 48.458C7.75187 42.9662 3.81432 37.4916 2.03551 32.5869L12.5875 10.9131L20.1172 14.5916H20.1344C23.0531 14.5571 26.248 14.7643 29.6156 15.2479Z" fill="#FF1F70"/>
<path d="M1.91468 22.2939L8.47727 8.82334L12.553 10.8094L1.94923 32.5695C0.567629 28.7529 0.481277 25.2471 1.91468 22.2939Z" fill="#F7608C"/>
<path d="M1.93196 32.7771L2.01831 32.6044L12.6566 10.7752L8.44274 8.72005L8.4082 8.78913L1.84561 22.2597C0.429472 25.1611 0.446748 28.6323 1.86289 32.6044L1.93196 32.7771ZM12.4494 10.8443L1.9665 32.3626C0.619444 28.5114 0.636716 25.1438 2.00104 22.3288L8.52909 8.92729L12.4494 10.8443Z" fill="#FF1F70"/>
<path d="M42.4992 68.2488C37.0591 65.5892 31.9818 62.6879 27.3879 59.6311L47.0239 19.3575C52.2567 21.1018 57.6795 23.2951 63.1195 25.9547L42.4992 68.2488Z" fill="#AD1286"/>
<path d="M42.5509 68.3528L42.5855 68.2837L63.2404 25.9032L63.1713 25.8686C57.8349 23.2609 52.4121 21.0503 47.0584 19.2715L46.9893 19.2542L46.9548 19.3233L27.2843 59.666L27.3361 59.7005C32.0335 62.8264 37.1282 65.7277 42.4646 68.3355L42.5509 68.3528ZM63.0158 25.9895L42.4646 68.1455C37.18 65.5723 32.1544 62.7055 27.4915 59.5969L47.0584 19.4615C52.3775 21.223 57.7312 23.4163 63.0158 25.9895Z" fill="#FF1F70"/>
<path d="M47.0239 19.3584L27.388 59.632C22.0516 56.0916 17.3541 52.344 13.4511 48.5965L29.7367 15.1791C35.1076 15.939 40.9449 17.3378 47.0239 19.3584Z" fill="#CE3089"/>
<path d="M27.4225 59.753L27.457 59.6666L47.1448 19.3067L47.0584 19.2722C41.0312 17.2689 35.2112 15.87 29.7539 15.0928H29.7021L29.6676 15.1447L13.3474 48.6139L13.382 48.6484C17.3541 52.4651 22.0515 56.1781 27.3361 59.7012L27.4225 59.753ZM46.903 19.4103L27.3534 59.5112C22.1206 56.0399 17.475 52.3614 13.5547 48.5793L29.7885 15.2828C35.194 16.0427 40.9449 17.4243 46.903 19.4103Z" fill="#FF1F70"/>
<path d="M8.47729 8.82369C2.7782 20.4982 20.9462 41.084 49.0617 54.7791C77.1772 68.4914 104.585 70.1148 110.266 58.4403C115.966 46.7658 97.7976 26.18 69.682 12.4849C41.5665 -1.21016 14.1764 -2.85081 8.47729 8.82369Z" fill="url(#paint0_linear_4140_73799)"/>
<path d="M91.4941 66.3151C101.234 66.3151 107.866 63.5865 110.353 58.4745C113.116 52.7927 110.405 44.8658 102.72 36.1617C95.0517 27.475 83.3254 19.0299 69.7339 12.3983C56.1252 5.78388 42.2574 1.7427 30.6865 1.0519C19.0984 0.361106 11.1887 3.10703 8.40828 8.78885C5.64508 14.4707 8.35647 22.3976 16.0416 31.1017C23.7095 39.7884 35.4358 48.2335 49.0272 54.8651C62.636 61.4968 76.5038 65.5207 88.0574 66.2115C89.249 66.2806 90.3888 66.3151 91.4941 66.3151ZM27.2671 1.12098C28.3724 1.12098 29.4949 1.15552 30.6693 1.2246C42.2229 1.9154 56.0561 5.9393 69.6476 12.5537C97.6767 26.2142 115.862 46.7828 110.197 58.4055C107.745 63.4483 101.148 66.1597 91.4941 66.1597C90.3888 66.1597 89.2663 66.1251 88.0919 66.0561C76.5383 65.3653 62.7051 61.3414 49.1136 54.727C21.0844 41.0491 2.89916 20.4806 8.56371 8.85793C11.016 3.8151 17.6132 1.12098 27.2671 1.12098Z" fill="#FF1F70"/>
<path d="M12.9674 10.6537C7.89007 21.0675 24.6247 39.6499 50.3224 52.1879C76.0374 64.7087 100.992 66.4357 106.07 56.0391C111.13 45.6253 94.4126 27.0429 68.6976 14.5049C42.9999 1.98414 18.0448 0.257145 12.9674 10.6537Z" fill="url(#paint1_linear_4140_73799)"/>
<path d="M89.5252 62.913C98.1256 62.913 103.963 60.5298 106.139 56.0568C108.608 50.9967 106.07 43.8642 98.9891 36.0064C91.9257 28.1486 81.1838 20.498 68.7494 14.4362C56.315 8.37445 43.6561 4.62687 33.1215 3.90153C22.5522 3.17619 15.3852 5.55945 12.9156 10.6195C10.446 15.6796 12.9847 22.8121 20.0654 30.67C27.1288 38.5278 37.8707 46.1784 50.3051 52.2402C62.7395 58.3019 75.3983 62.0495 85.933 62.7748C87.1765 62.8785 88.3681 62.913 89.5252 62.913ZM29.5466 3.95334C40.0985 3.95334 54.2772 7.58003 68.6631 14.5916C81.0802 20.6534 91.8048 28.304 98.8682 36.1273C105.897 43.9506 108.436 50.9967 106.001 56.005C103.566 61.0133 96.4504 63.362 85.9503 62.6367C75.4329 61.9114 62.8085 58.181 50.3742 52.1193C24.7455 39.6331 8.01093 21.0506 13.0538 10.7059C15.2643 6.1639 21.3088 3.95334 29.5466 3.95334Z" fill="#FF1F70"/>
<path d="M13.71 13.1412C8.97803 22.8469 25.2809 40.5486 50.1151 52.6549C74.9493 64.7611 98.92 66.6954 103.652 56.9896C108.384 47.2839 92.0811 29.5822 67.2469 17.4759C42.4127 5.36969 18.442 3.41819 13.71 13.1412Z" fill="url(#paint2_linear_4140_73799)"/>
<path d="M88.4718 63.241C96.3987 63.241 101.752 61.0823 103.738 57.0066C106.035 52.2746 103.514 45.5393 96.6059 38.0614C89.7152 30.6008 79.3187 23.2438 67.2988 17.3893C55.2789 11.5347 43.069 7.85624 32.9488 7.04455C22.7941 6.21559 15.9379 8.37434 13.641 13.1063C11.3441 17.8383 13.8655 24.5736 20.7735 32.0515C27.6642 39.5121 38.0607 46.8691 50.0806 52.7236C62.1005 58.5781 74.2931 62.2566 84.4133 63.0856C85.8294 63.1892 87.1765 63.241 88.4718 63.241ZM28.9422 7.04455C39.1314 7.04455 53.051 10.6367 67.2297 17.5447C79.2323 23.3992 89.6116 30.7217 96.485 38.1823C103.341 45.6257 105.863 52.2746 103.583 56.9548C101.303 61.6176 94.499 63.7419 84.4306 62.9302C74.3276 62.1185 62.1523 58.44 50.1497 52.5855C25.3846 40.4965 9.0817 22.8293 13.7791 13.1754C15.7997 9.04787 21.3261 7.04455 28.9422 7.04455Z" fill="#FF1F70"/>
<path d="M45.0378 24.8846C43.7943 23.8829 42.6718 22.7604 41.2729 21.7933C40.1676 21.0334 38.8896 20.4462 37.7844 19.7036C35.5738 18.2011 34.2613 16.5432 35.1075 15.4724C35.1075 15.4724 42.3091 18.6674 44.416 21.9141C46.5402 25.1954 45.6249 25.3509 45.0378 24.8846Z" fill="white"/>
<path d="M38.5961 24.0038C45.5559 30.3592 44.2779 33.2778 43.7425 35.0394C43.2071 36.8182 41.5665 39.1669 45.2795 42.1719C45.2795 42.1719 40.7894 39.8404 37.6117 35.782C37.6117 35.782 42.7236 38.0616 42.7754 36.2655C42.7754 36.2655 42.5682 35.5747 40.4439 35.0912C38.3197 34.6076 35.5393 32.7424 35.5393 32.7424C35.5393 32.7424 31.7572 27.8205 36.6446 23.3303C36.6446 23.3303 30.7555 17.7003 33.2942 14.609C33.3115 14.5917 31.7744 17.7521 38.5961 24.0038Z" fill="white"/>
<path d="M47.8701 43.8299C46.6784 42.2065 46.2467 40.6177 46.1258 39.2361C46.0567 38.4244 46.0913 37.6472 46.2294 36.9046C47.0238 32.6044 45.4177 30.5147 45.4177 30.5147C45.4177 30.5147 52.533 32.8807 54.4499 40.065C56.4532 47.5429 57.0231 49.1663 62.0487 51.9295C61.7897 51.7913 60.9262 51.705 60.6498 51.6359C59.4409 51.3423 58.1975 50.9278 56.9541 50.4097C53.2928 48.9072 49.6834 46.334 47.8701 43.8299Z" fill="white"/>
<path d="M59.3891 46.9385C58.0421 44.7625 57.2476 42.6383 56.3669 40.5659C56.3669 40.5659 61.4615 42.5174 64.6392 45.5742C67.8514 48.6655 73.4814 54.9345 80.0267 55.9707C79.785 55.9361 79.4223 56.1952 79.2496 56.247C78.5415 56.437 77.7471 56.5579 76.8836 56.5924C74.0859 56.6787 70.5282 55.6425 67.2297 53.8292C63.862 51.9813 60.8571 49.3217 59.3891 46.9385Z" fill="white"/>
<path d="M66.4525 40.6866C68.3177 39.6332 69.1466 37.9062 71.1154 37.0081C71.3745 36.8872 71.7199 36.7145 72.1862 36.8009C71.9962 37.1808 71.3917 37.4226 71.0982 37.768C70.7528 38.1479 70.4764 38.5624 70.2001 38.9942C69.6647 39.8404 69.1985 40.7212 68.4558 41.4638C67.7478 42.1546 66.7461 42.7072 65.2091 42.7245C63.6893 42.7418 61.7551 42.2064 59.959 41.3256C58.1629 40.4448 56.5396 39.2532 55.4343 38.0271C57.593 39.3568 59.959 40.773 62.2214 41.2393C64.0865 41.6192 65.4681 41.2565 66.4525 40.6866Z" fill="white"/>
<path d="M35.0212 33.2951C37.4908 34.6422 40.1503 35.9202 40.962 36.0238C40.962 36.0238 39.8395 36.231 35.3666 34.0895C35.3666 34.0895 32.6897 32.518 36.5409 37.3536C36.5409 37.3536 34.0713 34.4695 32.707 32.8116C31.3599 31.1536 25.989 29.2194 25.989 29.2194C25.989 29.2194 28.1823 29.703 31.3599 31.1709C31.3599 31.1709 32.1544 31.5681 32.0853 31.1191C32.0162 30.6528 31.878 29.0813 31.9471 28.2523C31.9471 28.235 32.5516 31.9481 35.0212 33.2951Z" fill="white"/>
<path d="M55.0543 26.3007C56.954 27.1642 57.0231 28.2522 56.4359 28.8221C56.4014 28.8567 56.3496 28.8912 56.2978 28.943C55.3824 29.6856 53.8109 29.5993 52.5502 28.4767C51.7385 27.7514 51.2204 26.8533 51.4622 26.3352C51.4967 26.2489 51.5658 26.1798 51.6349 26.1107C52.1875 25.6272 53.69 25.6963 55.0543 26.3007ZM51.8939 26.5425C51.7039 26.9397 52.0148 27.4923 52.6193 27.7859C53.2064 28.0795 53.8454 27.9932 54.0354 27.5787C54.2254 27.1815 53.8972 26.6288 53.31 26.3352C52.7229 26.0589 52.0839 26.1453 51.8939 26.5425Z" fill="white"/>
<path d="M85.7431 51.6706C84.2406 49.8572 81.0629 48.4584 78.8697 46.9732C76.7109 45.4879 74.7594 43.7782 73.9304 42.1376C73.8096 41.8958 73.7232 41.6713 73.6541 41.4468C72.7215 38.4936 75.502 36.853 78.5415 36.2658C78.9733 36.1794 79.4223 36.1103 79.9059 36.0758C80.1304 36.0585 81.4601 36.1449 81.4774 36.024C81.4774 36.024 80.9766 38.8908 84.3442 42.1894C85.415 43.2256 86.123 44.3309 85.864 45.108C85.4668 46.2478 83.4635 46.3687 81.1147 45.0044C79.8886 44.2963 79.1287 43.1047 79.3705 42.5175C79.5086 42.1894 80.044 41.8267 80.7693 42.0512C81.4947 42.2757 82.2891 42.8629 82.5136 43.3292C82.22 42.9838 81.8401 42.5866 81.322 42.3793C80.8902 42.2066 80.493 42.2067 80.234 42.2757C79.2841 42.5693 79.854 43.83 81.4083 44.6244C82.41 45.1425 83.5153 45.2807 84.0334 44.9871C84.5687 44.7108 84.5515 44.0545 84.0852 43.3637C82.6345 41.1705 78.3688 40.2551 78.0407 41.7749C77.7126 43.3637 80.1304 45.8506 83.239 48.0957C86.3648 50.3581 90.3024 54.2438 85.2595 55.3146C85.7776 55.2109 86.054 54.6928 86.2267 54.3647C86.6411 53.7084 86.6584 52.7759 85.7431 51.6706Z" fill="white"/>
<path d="M46.4711 20.7401C46.4711 20.7401 47.3519 22.1908 48.8026 22.139C50.2533 22.0871 51.0822 21.1028 49.0098 19.2203C46.9547 17.3552 37.4562 8.54749 37.4562 8.54749L49.5279 18.754C49.5279 18.754 50.9095 19.9975 51.8076 19.9457C52.7056 19.8939 54.778 20.412 56.4186 21.12C58.0593 21.8281 62.0141 23.486 67.3333 23.9005C72.5833 24.315 76.9354 26.6464 79.3704 28.7879C81.8228 30.9466 82.8762 31.8274 83.7052 32.2937C83.7052 32.2937 81.771 35.0742 78.0579 34.4524C76.8145 34.2452 75.3983 33.7962 74.1722 32.9672C72.2897 31.7065 71.7889 30.2558 70.6664 28.9433C69.9756 28.1316 69.0085 27.2681 67.8168 26.5946C65.9689 25.5584 63.8965 25.2648 62.0832 24.7813C60.5116 24.3668 58.9919 23.8487 57.403 23.1061C54.8989 21.949 53.3619 21.5518 52.4293 22.4844C51.4794 23.4342 49.5797 24.0041 46.0739 22.4498L32.7761 7.07954L33.7086 7.16589L46.4711 20.7401ZM73.3778 27.769C73.9995 28.2698 75.1911 28.7361 75.7092 28.5807C76.0201 28.4943 76.0373 28.0798 75.502 27.7517C74.9666 27.4236 74.5176 27.7172 74.1031 27.0782C73.8786 26.7155 73.4296 26.6637 73.1014 26.681C72.9633 26.6982 72.8597 26.7328 72.8078 26.7846C72.6006 26.9745 72.9633 27.4236 73.3778 27.769Z" fill="white"/>
</g>
<defs>
<linearGradient id="paint0_linear_4140_73799" x1="109.908" y1="58.2584" x2="13.1258" y2="11.0892" gradientUnits="userSpaceOnUse">
<stop offset="1e-08" stop-color="#F4508C"/>
<stop offset="1" stop-color="#F05A8C"/>
</linearGradient>
<linearGradient id="paint1_linear_4140_73799" x1="109.705" y1="57.8054" x2="29.1786" y2="18.5587" gradientUnits="userSpaceOnUse">
<stop stop-color="#FF6B8C"/>
<stop offset="1" stop-color="#7A0083"/>
</linearGradient>
<linearGradient id="paint2_linear_4140_73799" x1="102.888" y1="56.5993" x2="38.4274" y2="25.1828" gradientUnits="userSpaceOnUse">
<stop stop-color="#CF2788"/>
<stop offset="0.5362" stop-color="#F6588C"/>
<stop offset="1" stop-color="#FC728C"/>
</linearGradient>
<clipPath id="clip0_4140_73799">
<rect width="110.614" height="78.8374" fill="white" transform="matrix(-1 0 0 1 111.406 0.94873)"/>
</clipPath>
</defs>
</svg>
