<svg width="123" height="123" viewBox="0 0 123 123" fill="none" xmlns="http://www.w3.org/2000/svg">
<path d="M79.4697 55.6715C76.5961 51.3117 73.7226 32.0822 73.029 28.3169C73.029 28.3169 68.8673 51.3117 65.6965 55.6715C61.9312 60.725 48.8516 63.004 48.8516 63.004C48.8516 63.004 61.9312 65.0849 65.6965 69.742C68.9664 73.8046 73.029 95.0248 73.029 95.0248C73.6235 91.5567 76.5961 73.7055 79.4697 69.742C82.8387 65.0849 94.6301 63.004 94.6301 63.004C94.6301 63.004 82.9378 60.8241 79.4697 55.6715Z" fill="#89B2FF"/>
<path d="M45.3465 42.3679C43.6845 39.8461 41.8504 34.6306 41.4492 32.4527C41.4492 32.4527 39.214 39.8461 37.38 42.3679C35.2021 45.2909 27.6367 46.6091 27.6367 46.6091C27.6367 46.6091 35.2021 47.8127 37.38 50.5064C39.2713 52.8562 41.6212 59.1034 41.6212 59.1034C41.9651 57.0974 43.6845 52.7989 45.3465 50.5064C47.2952 47.8127 54.1155 46.6091 54.1155 46.6091C54.1155 46.6091 47.3525 45.3482 45.3465 42.3679Z" fill="#89B2FF"/>
<path d="M54.9354 76.7136C53.6159 74.7117 52.16 70.5713 51.8415 68.8423C51.8415 68.8423 50.067 74.7117 48.611 76.7136C46.8821 79.0341 40.8762 80.0806 40.8762 80.0806C40.8762 80.0806 46.8821 81.036 48.611 83.1745C50.1125 85.04 51.978 89.9993 51.978 89.9993C52.251 88.4069 53.6159 84.9945 54.9354 83.1745C56.4824 81.036 61.8967 80.0806 61.8967 80.0806C61.8967 80.0806 56.5279 79.0796 54.9354 76.7136Z" fill="#89B2FF"/>
<g style="mix-blend-mode:screen" filter="url(#filter0_f_4140_73605)">
<path d="M79.4697 55.6715C76.5961 51.3117 73.7226 32.0822 73.029 28.3169C73.029 28.3169 68.8673 51.3117 65.6965 55.6715C61.9312 60.725 48.8516 63.004 48.8516 63.004C48.8516 63.004 61.9312 65.0849 65.6965 69.742C68.9664 73.8046 73.029 95.0248 73.029 95.0248C73.6235 91.5567 76.5961 73.7055 79.4697 69.742C82.8387 65.0849 94.6301 63.004 94.6301 63.004C94.6301 63.004 82.9378 60.8241 79.4697 55.6715Z" fill="#2873FF"/>
<path d="M45.3465 42.3679C43.6845 39.8461 41.8504 34.6306 41.4492 32.4527C41.4492 32.4527 39.214 39.8461 37.38 42.3679C35.2021 45.2909 27.6367 46.6091 27.6367 46.6091C27.6367 46.6091 35.2021 47.8127 37.38 50.5064C39.2713 52.8562 41.6212 59.1034 41.6212 59.1034C41.9651 57.0974 43.6845 52.7989 45.3465 50.5064C47.2952 47.8127 54.1155 46.6091 54.1155 46.6091C54.1155 46.6091 47.3525 45.3482 45.3465 42.3679Z" fill="#2873FF"/>
<path d="M54.9354 76.7136C53.6159 74.7117 52.16 70.5713 51.8415 68.8423C51.8415 68.8423 50.067 74.7117 48.611 76.7136C46.8821 79.0341 40.8762 80.0806 40.8762 80.0806C40.8762 80.0806 46.8821 81.036 48.611 83.1745C50.1125 85.04 51.978 89.9993 51.978 89.9993C52.251 88.4069 53.6159 84.9945 54.9354 83.1745C56.4824 81.036 61.8967 80.0806 61.8967 80.0806C61.8967 80.0806 56.5279 79.0796 54.9354 76.7136Z" fill="#2873FF"/>
</g>
<defs>
<filter id="filter0_f_4140_73605" x="0.0367184" y="0.716894" width="122.193" height="121.908" filterUnits="userSpaceOnUse" color-interpolation-filters="sRGB">
<feFlood flood-opacity="0" result="BackgroundImageFix"/>
<feBlend mode="normal" in="SourceGraphic" in2="BackgroundImageFix" result="shape"/>
<feGaussianBlur stdDeviation="13.8" result="effect1_foregroundBlur_4140_73605"/>
</filter>
</defs>
</svg>
