<svg width="135" height="100" viewBox="0 0 135 100" fill="none" xmlns="http://www.w3.org/2000/svg">
<g clip-path="url(#clip0_4140_73747)" filter="url(#filter0_f_4140_73747)">
<path d="M33.3623 53.07L46.7736 85.3831C51.844 84.963 57.4246 83.9729 63.2451 82.4428L47.0736 43.4691C41.8531 46.4994 37.2327 49.7397 33.3623 53.07Z" fill="#8C0000"/>
<path d="M46.6836 85.5031L33.1824 53.0101L33.2724 52.9501C37.2328 49.5898 41.8532 46.3494 47.0137 43.3492L47.1637 43.2592L47.2237 43.4092L63.4852 82.5028L63.3352 82.5328C57.5747 84.063 52.0241 85.0831 46.8337 85.5031H46.6836ZM33.5124 53.1001L46.8637 85.2031C51.9341 84.7831 57.3946 83.793 63.0352 82.2928L47.0137 43.6792C41.9432 46.6195 37.4128 49.7998 33.5124 53.1001Z" fill="#FF3145"/>
<path d="M47.074 43.4688L63.2455 82.4125C68.256 81.0623 73.4765 79.3222 78.757 77.132L61.7454 36.2081C56.4949 38.3983 51.5444 40.8585 47.074 43.4688Z" fill="#8E0000"/>
<path d="M63.1553 82.5927L63.0953 82.4727L46.8938 43.4091L47.0138 43.349C51.6042 40.6788 56.5547 38.2186 61.7152 36.0884L61.8352 36.0284L61.8952 36.1484L78.9368 77.1922L78.8168 77.2522C73.6563 79.3824 68.4358 81.1826 63.3053 82.5627L63.1553 82.5927ZM47.2538 43.5291L63.3353 82.2327C68.3758 80.8826 73.5063 79.1424 78.5768 77.0422L61.6852 36.4184C56.6147 38.5186 51.7543 40.9188 47.2538 43.5291Z" fill="#FF3145"/>
<path d="M15.6306 64.1107L21.0311 77.1319C22.2012 79.9822 24.7515 82.1124 28.2918 83.5225L19.561 62.4606L15.6306 64.1107Z" fill="#8C0000"/>
<path d="M28.5619 83.7628L28.2619 83.6428C24.5715 82.1727 22.0813 79.9825 20.9112 77.1622L15.4507 64.021L19.6511 62.2808L28.5619 83.7628ZM15.8107 64.171L21.1812 77.0722C22.2913 79.7425 24.6015 81.8126 28.0519 83.2528L19.5011 62.6408L15.8107 64.171Z" fill="#FF3145"/>
<path d="M26.8817 59.4303L19.561 62.4606L28.3219 83.4925C32.9723 85.3227 39.3629 85.9528 46.8036 85.3527L33.3623 53.0697C30.8721 55.1699 28.7119 57.3001 26.8817 59.4303Z" fill="#8C0000"/>
<path d="M41.4932 85.7431C36.2727 85.7431 31.7423 85.023 28.2619 83.6429L28.2019 83.6129L28.1719 83.5529L19.3811 62.3709L26.8218 59.3106C28.652 57.2104 30.8122 55.0802 33.2724 52.98L33.4224 52.86L33.5124 53.04L47.0137 85.533L46.8037 85.563C44.9435 85.653 43.1733 85.7431 41.4932 85.7431ZM28.412 83.4028C32.9424 85.173 39.213 85.8331 46.5637 85.233L33.3024 53.31C30.9022 55.3802 28.772 57.4504 27.0018 59.5206L26.9718 59.5506H26.9418L19.7411 62.5509L28.412 83.4028Z" fill="#FF3145"/>
<path d="M93.728 27.9576L107.139 60.2706C112.81 55.4402 116.89 50.4597 118.84 45.8693L110.08 24.8373L102.759 27.8976C99.9986 27.6876 96.9683 27.7176 93.728 27.9576Z" fill="#F03500"/>
<path d="M107.079 60.5107L93.5181 27.8376L93.7281 27.8076C96.9684 27.5376 99.9987 27.5076 102.789 27.7176L110.23 24.6273L119.05 45.8693L119.02 45.9293C117.07 50.4898 112.99 55.5002 107.259 60.3907L107.079 60.5107ZM93.9381 28.1077L107.199 60.0607C112.81 55.2602 116.77 50.3697 118.69 45.8993L110.02 25.0474L102.789 28.0476H102.759C100.059 27.8076 97.0884 27.8376 93.9381 28.1077Z" fill="#FF3145"/>
<path d="M119.471 36.2082L114.07 23.187L110.14 24.8072L118.9 45.8391C120.371 42.3588 120.641 39.0585 119.471 36.2082Z" fill="#F03F00"/>
<path d="M118.871 46.2292L109.93 24.7472L114.13 23.0071L119.591 36.1483C120.761 38.9686 120.551 42.2689 118.991 45.9292L118.871 46.2292ZM110.29 24.8972L118.871 45.5092C120.281 42.0589 120.431 38.9386 119.351 36.2683L113.98 23.3671L110.29 24.8972Z" fill="#FF3145"/>
<path d="M78.7567 77.1022C84.0072 74.912 88.9577 72.4518 93.4281 69.8415L77.2566 30.9279C72.2461 32.278 67.0256 34.0182 61.7451 36.2084L78.7567 77.1022Z" fill="#BF0000"/>
<path d="M78.6668 77.3122L78.6068 77.1922L61.5652 36.1484L61.6852 36.0884C66.8457 33.9582 72.0662 32.158 77.1967 30.7779L77.3167 30.7479L77.3767 30.8679L93.6082 69.9315L93.4882 69.9916C88.8978 72.6618 83.9473 75.122 78.7868 77.2522L78.6668 77.3122ZM61.9252 36.2984L78.8168 76.9222C83.8873 74.822 88.7177 72.4218 93.2482 69.7815L77.1667 31.1079C72.1262 32.458 66.9957 34.1982 61.9252 36.2984Z" fill="#FF3145"/>
<path d="M77.2566 30.928L93.4281 69.8717C98.6486 66.8414 103.269 63.6011 107.139 60.2708L93.7281 27.9577C88.6277 28.3778 83.0771 29.3679 77.2566 30.928Z" fill="#E00F00"/>
<path d="M93.3682 70.0813L93.3082 69.9313L77.0466 30.8377L77.1966 30.8077C82.9572 29.2775 88.5077 28.2574 93.6982 27.8374H93.7882L107.289 60.3304L107.199 60.3904C103.239 63.7508 98.6187 66.9911 93.4582 69.9913L93.3682 70.0813ZM77.4367 31.0177L93.4882 69.6613C98.5587 66.721 103.089 63.5407 106.959 60.2404L93.6382 28.1074C88.5377 28.5274 83.1072 29.5175 77.4367 31.0177Z" fill="#FF3145"/>
<path d="M114.04 23.1872C118.72 34.4682 100.509 52.8 73.3262 64.081C46.1437 75.3621 20.3112 75.3921 15.6308 64.081C10.9503 52.77 29.1621 34.4982 56.3446 23.1872C83.5272 11.9061 109.36 11.9061 114.04 23.1872Z" fill="url(#paint0_linear_4140_73747)"/>
<path d="M36.0927 72.6918C25.5617 72.6918 17.881 69.8416 15.5108 64.171C10.8003 52.83 29.1021 34.3782 56.2846 23.0972C83.4972 11.7861 109.45 11.8161 114.19 23.1572C118.901 34.4982 100.599 52.95 73.4162 64.231C59.825 69.8716 46.5637 72.6918 36.0927 72.6918ZM93.6381 14.8764C83.1972 14.8764 69.9659 17.6967 56.4046 23.3372C29.3421 34.5882 11.1004 52.83 15.7508 64.051C20.4012 75.2421 46.2037 75.2121 73.2662 63.961C100.359 52.7099 118.57 34.4382 113.92 23.2472C111.58 17.6667 104.019 14.8764 93.6381 14.8764Z" fill="#FF3145"/>
<path d="M109.72 24.6574C113.89 34.7083 97.1484 51.2399 72.2761 61.5909C47.4037 71.9418 23.8815 72.1519 19.7111 62.0709C15.5408 52.02 32.3123 35.4884 57.1547 25.1674C81.997 14.8165 105.549 14.6065 109.72 24.6574Z" fill="url(#paint1_linear_4140_73747)"/>
<path d="M37.7429 69.6311C28.022 69.6311 21.6014 66.9909 19.5912 62.1304C15.3908 52.0195 32.2224 35.3679 57.0947 25.0169C69.1259 20.0065 81.247 17.2162 91.178 17.1262C101.169 17.0362 107.8 19.7064 109.84 24.6269C114.04 34.7379 97.2085 51.3894 72.3362 61.7404C60.3051 66.7509 48.1839 69.5411 38.253 69.6311C38.103 69.6311 37.9229 69.6311 37.7429 69.6311ZM91.688 17.3962C91.508 17.3962 91.358 17.3962 91.178 17.3962C81.277 17.4862 69.1859 20.2765 57.1848 25.287C32.4624 35.5779 15.7209 52.0495 19.8612 62.0104C21.8714 66.8109 28.382 69.4211 38.253 69.3311C48.1539 69.2411 60.245 66.4508 72.2462 61.4404C96.9685 51.1794 113.74 34.6779 109.6 24.7169C107.62 20.0065 101.289 17.3962 91.688 17.3962Z" fill="#FF3145"/>
<path d="M108.879 26.9376C112.78 36.3285 96.4883 52.02 72.456 62.0109C48.4537 72.0019 25.8016 72.4819 21.9012 63.091C18.0309 53.7001 34.3224 38.0087 58.3547 28.0177C82.3569 18.0268 104.979 17.5467 108.879 26.9376Z" fill="url(#paint2_linear_4140_73747)"/>
<path d="M38.5529 69.9914C29.5521 69.9914 23.6415 67.5912 21.7813 63.1508C19.8612 58.5604 22.6214 52.3498 29.5521 45.6892C36.4527 39.0585 46.6537 32.7279 58.2648 27.8975C82.327 17.9065 105.099 17.4565 109.03 26.9074C112.96 36.3583 96.5784 52.1698 72.5461 62.1607C60.905 66.9912 49.2339 69.7814 39.693 69.9614C39.303 69.9614 38.9129 69.9914 38.5529 69.9914ZM92.2579 20.3368C82.9871 20.3368 70.8659 22.947 58.3848 28.1375C46.8037 32.968 36.6327 39.2686 29.7621 45.8692C22.9214 52.4398 20.1912 58.5304 22.0514 63.0308C23.9115 67.5012 30.1521 69.8714 39.663 69.6614C49.2039 69.4514 60.815 66.6911 72.4261 61.8607C96.3383 51.9297 112.63 36.2683 108.76 26.9674C106.899 22.557 100.779 20.3368 92.2579 20.3368Z" fill="#FF3145"/>
<path d="M73.6264 53.2194C74.5865 53.1894 75.5766 53.1294 76.5967 53.0094C81.4571 52.4993 86.2276 51.2092 90.878 49.289C92.9782 48.4189 98.1087 46.4087 97.4186 44.6686C96.9686 43.5585 94.7184 43.1384 93.1582 42.8684C89.3178 42.2083 84.3374 41.9383 81.9972 41.8183C81.9972 41.7883 81.9972 41.7583 82.0272 41.7283C82.7772 38.278 81.3671 35.3077 78.1868 33.4775C78.1568 33.4475 78.1268 33.4475 78.0968 33.4175C79.6269 32.0074 82.6872 29.0971 84.6674 26.6969C85.4475 25.7368 86.4976 24.3867 85.9275 23.5766C85.0575 22.3765 80.497 23.9066 78.6068 24.4767C74.4365 25.7968 70.5661 27.477 67.0858 29.6672C66.3657 30.1172 65.6456 30.5973 64.9856 31.0773C55.9847 31.8274 47.2839 34.2276 41.9734 41.3983C35.9128 49.589 37.1129 52.8894 37.1129 52.8894C37.1129 52.8894 37.263 56.6997 46.4138 60.3601C55.5047 64.0204 65.1956 59.55 73.6264 53.2194Z" fill="#FFA600"/>
<path d="M63.3052 35.5182C63.3052 35.5182 60.545 35.6682 59.5249 37.3183C58.5048 38.9685 58.4748 42.6588 59.4949 42.0888C60.485 41.4887 64.0553 37.1983 63.3052 35.5182Z" fill="black"/>
<path d="M68.9458 35.1579C68.6158 34.5578 67.3556 34.1978 66.0955 34.7678C64.1753 35.6079 64.5054 37.1381 65.3155 37.9481C65.7655 38.3982 66.8156 38.0982 67.5657 37.5881C68.6158 36.868 69.2758 35.8479 68.9458 35.1579Z" fill="white"/>
<path d="M52.4444 53.6397C53.0144 53.7297 56.0747 51.1494 56.4048 50.8494C57.9949 49.4693 59.375 47.8491 59.9151 46.379C60.4851 44.8788 59.7051 43.9487 58.3249 43.2287C56.4048 42.2386 53.5245 42.0886 50.5542 42.4786C50.1642 42.5386 49.8041 42.5686 49.4141 42.6586C52.7744 39.3583 52.7144 36.178 51.8743 33.9278C48.034 35.4879 44.6136 37.8582 41.9734 41.4285C35.9128 49.6193 37.1129 52.9196 37.1129 52.9196C37.1129 52.9196 37.263 56.7299 46.4138 60.3903C50.7942 62.1305 55.4147 61.9804 60.0051 60.5703C59.255 57.54 57.3048 54.3297 52.4444 53.6397Z" fill="white"/>
<path d="M68.7959 50.3094C68.7959 50.3094 66.3957 52.1696 64.3555 51.3895C62.3753 50.6094 60.0051 47.4291 61.2052 47.2191C62.3753 47.0091 68.1659 48.2692 68.7959 50.3094Z" fill="black"/>
<path d="M73.5964 46.6491C73.8064 47.3992 73.0863 48.5993 71.6162 49.0194C69.426 49.6194 68.5559 48.0293 68.6159 46.7992C68.6459 46.1391 69.696 45.6591 70.6561 45.569C72.0363 45.419 73.3564 45.8091 73.5964 46.6491Z" fill="white"/>
<path d="M76.1765 51.4194C76.1765 51.4194 83.9172 50.9394 92.408 46.709C96.8785 44.4587 81.547 43.6787 81.547 43.6787C81.547 43.6787 80.3469 47.609 76.1765 51.4194Z" fill="#FF8300"/>
<path d="M92.4081 46.6791C91.7481 47.0091 91.088 47.3091 90.4279 47.6091C89.9479 46.7391 88.1177 44.9389 80.707 45.569C81.3071 44.3988 81.5471 43.6488 81.5471 43.6488C81.5471 43.6488 96.9086 44.4589 92.4081 46.6791Z" fill="#FF9501"/>
<path d="M67.7759 30.8375C67.7759 30.8375 73.1464 27.1172 81.3672 25.077C85.7776 23.9669 76.4767 32.5477 76.4767 32.5477C76.4767 32.5477 72.9364 30.8375 67.7759 30.8375Z" fill="#FF8300"/>
<path d="M44.3738 48.8388C44.3738 48.8388 43.9537 48.9889 43.8337 49.1389C43.7137 49.2889 43.6237 49.6489 43.8637 49.6189C44.1037 49.5889 44.1337 49.6489 44.1337 49.6489C44.1337 49.6489 44.3738 49.919 44.0137 50.159C43.6537 50.369 43.3537 50.579 43.3837 50.699C43.4137 50.849 43.7737 50.789 44.1637 50.729C44.5538 50.669 44.4638 51.0891 44.4638 51.0891C44.4638 51.0891 44.4638 51.1491 44.2237 51.2991C44.0137 51.4491 44.2237 51.6891 44.4038 51.7491C44.5838 51.8091 45.0038 51.6591 45.0038 51.6591L44.6738 50.219L44.3738 48.8388Z" fill="black"/>
<path d="M47.4939 53.2492C47.4939 53.2492 47.2839 52.4091 47.2239 52.1991C47.1639 51.9891 46.8639 52.0791 46.8639 52.0791C46.8639 52.0791 46.6539 51.209 46.5338 50.759C46.4138 50.3089 47.2239 49.9489 47.2239 49.9489L47.1639 49.7389L49.2641 48.9888C49.8041 49.7989 51.4243 50.0089 53.1345 49.3789L54.0646 49.0488C54.7846 48.7788 55.2647 48.2687 55.1447 47.8487L54.4246 45.3885C54.3046 44.9984 53.6445 44.8784 52.9544 45.1485L52.0244 45.4785C50.3442 46.0785 49.1141 47.2787 49.0841 48.2687L46.9839 49.0188L46.9239 48.8088C46.9239 48.8088 46.0838 49.0488 45.9638 48.5988C45.8438 48.1787 45.6338 47.3087 45.6338 47.3087C45.6338 47.3087 45.9338 47.1886 45.8738 46.9786C45.8138 46.7686 45.6338 45.9885 45.6338 45.9885C45.6338 45.9885 45.5437 45.8685 45.2737 46.1685C45.0037 46.4686 44.8837 46.6186 44.5237 46.7686C44.1636 46.9186 43.8336 47.0086 43.8936 47.1886C43.9236 47.3687 43.9236 47.3687 43.4736 47.5787C43.0535 47.8187 41.7634 48.5388 41.7334 48.7188C41.7034 48.8988 44.5537 47.6987 44.5537 47.6987C44.5537 47.6987 45.0037 47.5187 44.9437 47.9087C44.8837 48.3288 45.1237 49.6789 45.1837 49.9789C45.2737 50.3089 45.6938 51.5991 45.9038 51.9291C46.1438 52.2591 45.6638 52.4091 45.6638 52.4091C45.6638 52.4091 42.6635 53.3092 42.7835 53.4592C42.9035 53.6092 44.3136 53.3692 44.7937 53.2792C45.2737 53.1892 45.3037 53.1892 45.3337 53.3692C45.3637 53.5492 45.6938 53.3992 46.0838 53.3092C46.4738 53.1892 46.6238 53.2492 47.0139 53.3392C47.4939 53.4292 47.4939 53.2492 47.4939 53.2492Z" fill="black"/>
<path d="M81.367 25.0774C80.707 25.2274 80.0769 25.4074 79.4769 25.5874C79.7769 26.3075 79.8969 28.1977 74.5564 31.828C75.7865 32.188 76.4766 32.5481 76.4766 32.5481C76.4766 32.5481 85.7775 23.9973 81.367 25.0774Z" fill="#FF9501"/>
</g>
<defs>
<filter id="filter0_f_4140_73747" x="0.760742" y="0.606133" width="133.58" height="99.1367" filterUnits="userSpaceOnUse" color-interpolation-filters="sRGB">
<feFlood flood-opacity="0" result="BackgroundImageFix"/>
<feBlend mode="normal" in="SourceGraphic" in2="BackgroundImageFix" result="shape"/>
<feGaussianBlur stdDeviation="7" result="effect1_foregroundBlur_4140_73747"/>
</filter>
<linearGradient id="paint0_linear_4140_73747" x1="15.9882" y1="63.9503" x2="109.558" y2="25.059" gradientUnits="userSpaceOnUse">
<stop stop-color="#CB2F00"/>
<stop offset="0.9989" stop-color="#FF2700"/>
</linearGradient>
<linearGradient id="paint1_linear_4140_73747" x1="16.204" y1="63.5367" x2="94.0582" y2="31.1776" gradientUnits="userSpaceOnUse">
<stop stop-color="#FF650A"/>
<stop offset="1" stop-color="#8C0000"/>
</linearGradient>
<linearGradient id="paint2_linear_4140_73747" x1="22.6762" y1="62.7851" x2="84.9976" y2="36.8819" gradientUnits="userSpaceOnUse">
<stop stop-color="#E10600"/>
<stop offset="0.5362" stop-color="#F03700"/>
<stop offset="1" stop-color="#F05100"/>
</linearGradient>
<clipPath id="clip0_4140_73747">
<rect width="105.58" height="71.1367" fill="white" transform="translate(14.7607 14.6061)"/>
</clipPath>
</defs>
</svg>
