<svg xmlns="http://www.w3.org/2000/svg" width="16" height="16" viewBox="0 0 16 16" fill="#8E9BAE">
  <path d="M8.00002 8.00016C9.84097 8.00016 11.3334 6.50778 11.3334 4.66683C11.3334 2.82588 9.84097 1.3335 8.00002 1.3335C6.15907 1.3335 4.66669 2.82588 4.66669 4.66683C4.66669 6.50778 6.15907 8.00016 8.00002 8.00016Z" stroke="##8E9BAE" stroke-linecap="round" stroke-linejoin="round"/>
  <path d="M2.27332 14.6667C2.27332 12.0867 4.83998 10 7.99998 10C8.63998 10 9.25999 10.0867 9.83999 10.2467" stroke="##8E9BAE" stroke-linecap="round" stroke-linejoin="round"/>
  <path d="M14.6666 12.0002C14.6666 12.2135 14.64 12.4202 14.5867 12.6202C14.5267 12.8868 14.42 13.1468 14.28 13.3735C13.82 14.1468 12.9733 14.6668 12 14.6668C11.3133 14.6668 10.6933 14.4068 10.2266 13.9801C10.0266 13.8068 9.8533 13.6002 9.71997 13.3735C9.4733 12.9735 9.33331 12.5002 9.33331 12.0002C9.33331 11.2802 9.61998 10.6202 10.0866 10.1402C10.5733 9.64018 11.2533 9.3335 12 9.3335C12.7866 9.3335 13.5 9.67351 13.98 10.2202C14.4066 10.6935 14.6666 11.3202 14.6666 12.0002Z" stroke="##8E9BAE" stroke-miterlimit="10" stroke-linecap="round" stroke-linejoin="round"/>
  <path d="M12.9933 11.9863H11.0067" stroke="##8E9BAE" stroke-miterlimit="10" stroke-linecap="round" stroke-linejoin="round"/>
  <path d="M12 11.0132V13.0065" stroke="##8E9BAE" stroke-miterlimit="10" stroke-linecap="round" stroke-linejoin="round"/>
</svg>