<svg xmlns="http://www.w3.org/2000/svg" width="33" height="32" viewBox="0 0 33 32" fill="none">
  <path d="M27.5 9.00004H23.115C23.1637 8.95879 23.2137 8.91879 23.2612 8.87504C23.6409 8.53776 23.9468 8.12577 24.16 7.66485C24.3731 7.20393 24.4889 6.70398 24.5 6.19629C24.5164 5.64088 24.4191 5.08798 24.2142 4.57152C24.0092 4.05506 23.7008 3.58596 23.3079 3.19299C22.9151 2.80003 22.4461 2.49151 21.9297 2.28636C21.4133 2.08122 20.8604 1.98378 20.305 2.00004C19.7971 2.01098 19.2969 2.12664 18.8358 2.33979C18.3746 2.55295 17.9624 2.859 17.625 3.23879C17.1581 3.7799 16.7785 4.39059 16.5 5.04879C16.2215 4.39059 15.8419 3.7799 15.375 3.23879C15.0376 2.859 14.6254 2.55295 14.1642 2.33979C13.7031 2.12664 13.2029 2.01098 12.695 2.00004C12.1396 1.98378 11.5867 2.08122 11.0703 2.28636C10.5539 2.49151 10.0849 2.80003 9.69206 3.19299C9.29922 3.58596 8.99083 4.05506 8.78584 4.57152C8.58085 5.08798 8.48358 5.64088 8.5 6.19629C8.51111 6.70398 8.62686 7.20393 8.84001 7.66485C9.05315 8.12577 9.35911 8.53776 9.73875 8.87504C9.78625 8.91629 9.83625 8.95629 9.885 9.00004H5.5C4.96957 9.00004 4.46086 9.21075 4.08579 9.58582C3.71071 9.9609 3.5 10.4696 3.5 11V15C3.5 15.5305 3.71071 16.0392 4.08579 16.4142C4.46086 16.7893 4.96957 17 5.5 17V25C5.5 25.5305 5.71071 26.0392 6.08579 26.4142C6.46086 26.7893 6.96957 27 7.5 27H15C15.1326 27 15.2598 26.9474 15.3536 26.8536C15.4473 26.7598 15.5 26.6326 15.5 26.5V15H5.5V11H15.5V15H17.5V11H27.5V15H17.5V26.5C17.5 26.6326 17.5527 26.7598 17.6464 26.8536C17.7402 26.9474 17.8674 27 18 27H25.5C26.0304 27 26.5391 26.7893 26.9142 26.4142C27.2893 26.0392 27.5 25.5305 27.5 25V17C28.0304 17 28.5391 16.7893 28.9142 16.4142C29.2893 16.0392 29.5 15.5305 29.5 15V11C29.5 10.4696 29.2893 9.9609 28.9142 9.58582C28.5391 9.21075 28.0304 9.00004 27.5 9.00004ZM11.0638 7.37504C10.8889 7.2167 10.7487 7.02393 10.6519 6.80882C10.5551 6.59371 10.5038 6.36091 10.5013 6.12504C10.4949 5.84866 10.5438 5.57381 10.6451 5.31658C10.7463 5.05935 10.8979 4.82491 11.0909 4.627C11.284 4.4291 11.5145 4.27171 11.7691 4.16405C12.0238 4.05639 12.2973 4.00063 12.5737 4.00004H12.635C12.8709 4.00258 13.1037 4.05386 13.3188 4.15066C13.5339 4.24746 13.7267 4.38769 13.885 4.56254C14.9338 5.74754 15.3038 7.71254 15.4338 8.92754C14.2137 8.79879 12.25 8.42879 11.0638 7.37504ZM21.9387 7.37504C20.7525 8.42504 18.7837 8.79504 17.5637 8.92504C17.7125 7.61129 18.125 5.68754 19.125 4.56379C19.2833 4.38894 19.4761 4.24871 19.6912 4.15191C19.9063 4.05511 20.1391 4.00383 20.375 4.00129H20.4363C20.7127 4.00301 20.986 4.05991 21.2402 4.16863C21.4944 4.27735 21.7244 4.43571 21.9166 4.63443C22.1088 4.83315 22.2594 5.06824 22.3596 5.32592C22.4597 5.58359 22.5075 5.85867 22.5 6.13504C22.4959 6.36931 22.4438 6.60025 22.3468 6.81355C22.2498 7.02684 22.1101 7.21795 21.9363 7.37504H21.9387Z" fill="#2873FF"/>
</svg>