<svg width="24" height="25" viewBox="0 0 24 25" fill="none" xmlns="http://www.w3.org/2000/svg">
<path d="M12 22.4004C17.5228 22.4004 22 17.9232 22 12.4004C22 6.87754 17.5228 2.40039 12 2.40039C6.47715 2.40039 2 6.87754 2 12.4004C2 17.9232 6.47715 22.4004 12 22.4004Z" stroke="#969696" stroke-width="1.5" stroke-linecap="round" stroke-linejoin="round"/>
<path d="M7.54001 12.4004C7.54001 15.4404 8.03001 18.4804 9.00001 21.4004H8.00001" stroke="#969696" stroke-width="1.5" stroke-linecap="round" stroke-linejoin="round"/>
<path d="M7.99999 3.40039H8.99999C8.50999 4.86039 8.14999 6.35039 7.89999 7.86039" stroke="#969696" stroke-width="1.5" stroke-linecap="round" stroke-linejoin="round"/>
<path d="M16.13 16.7607C15.88 18.3207 15.51 19.8807 15 21.4007" stroke="#969696" stroke-width="1.5" stroke-linecap="round" stroke-linejoin="round"/>
<path d="M15 3.40039C15.97 6.32039 16.46 9.36039 16.46 12.4004" stroke="#969696" stroke-width="1.5" stroke-linecap="round" stroke-linejoin="round"/>
<path d="M3 16.4004V15.4004C8.84 17.3504 15.16 17.3504 21 15.4004V16.4004" stroke="#969696" stroke-width="1.5" stroke-linecap="round" stroke-linejoin="round"/>
<path d="M3 9.4C8.84 7.45 15.16 7.45 21 9.4" stroke="#969696" stroke-width="1.5" stroke-linecap="round" stroke-linejoin="round"/>
</svg>
