<svg xmlns="http://www.w3.org/2000/svg" width="20" height="20" viewBox="0 0 20 20" fill="none">
  <path d="M14.1666 2.91602H5.83329C3.33329 2.91602 1.66663 4.16602 1.66663 7.08268V12.916C1.66663 15.8327 3.33329 17.0827 5.83329 17.0827H14.1666C16.6666 17.0827 18.3333 15.8327 18.3333 12.916V7.08268C18.3333 4.16602 16.6666 2.91602 14.1666 2.91602ZM14.5583 7.99102L11.95 10.0743C11.4 10.516 10.7 10.7327 9.99996 10.7327C9.29996 10.7327 8.59163 10.516 8.04996 10.0743L5.44163 7.99102C5.17496 7.77435 5.13329 7.37435 5.34163 7.10768C5.55829 6.84102 5.94996 6.79102 6.21663 7.00768L8.82496 9.09102C9.45829 9.59935 10.5333 9.59935 11.1666 9.09102L13.775 7.00768C14.0416 6.79102 14.4416 6.83268 14.65 7.10768C14.8666 7.37435 14.825 7.77435 14.5583 7.99102Z" fill="#2873FF"/>
  <path d="M14.1666 2.91602H5.83329C3.33329 2.91602 1.66663 4.16602 1.66663 7.08268V12.916C1.66663 15.8327 3.33329 17.0827 5.83329 17.0827H14.1666C16.6666 17.0827 18.3333 15.8327 18.3333 12.916V7.08268C18.3333 4.16602 16.6666 2.91602 14.1666 2.91602ZM14.5583 7.99102L11.95 10.0743C11.4 10.516 10.7 10.7327 9.99996 10.7327C9.29996 10.7327 8.59163 10.516 8.04996 10.0743L5.44163 7.99102C5.17496 7.77435 5.13329 7.37435 5.34163 7.10768C5.55829 6.84102 5.94996 6.79102 6.21663 7.00768L8.82496 9.09102C9.45829 9.59935 10.5333 9.59935 11.1666 9.09102L13.775 7.00768C14.0416 6.79102 14.4416 6.83268 14.65 7.10768C14.8666 7.37435 14.825 7.77435 14.5583 7.99102Z" fill="url(#paint0_linear_7975_19386)"/>
  <defs>
    <linearGradient id="paint0_linear_7975_19386" x1="9.99996" y1="2.91602" x2="9.99996" y2="17.0827" gradientUnits="userSpaceOnUse">
      <stop stop-color="#2873FF"/>
      <stop offset="1" stop-color="#0B6B96"/>
    </linearGradient>
  </defs>
</svg>