<svg xmlns="http://www.w3.org/2000/svg" width="108" height="88" viewBox="0 0 108 88" fill="none">
  <g clip-path="url(#clip0_5100_42074)">
    <path d="M24.4064 42.3987L31.7553 71.9348C36.1577 72.2319 41.104 72.1133 46.2981 71.5372L37.4323 35.9412C32.561 37.8664 28.1471 40.0394 24.4064 42.3987Z" fill="#006C80"/>
    <path d="M46.4916 71.6589L46.3209 71.6654C41.1558 72.2286 36.2513 72.3633 31.7491 72.076L31.6364 72.0567L31.6267 71.9569L24.2391 42.3338L24.326 42.2951C28.1537 39.8971 32.5676 37.7242 37.3809 35.8247L37.5258 35.7603L37.5613 35.918L46.4916 71.6589ZM31.8617 71.7828C36.264 72.0799 41.0687 71.9549 46.0921 71.3854L37.3102 36.1339C32.5967 38.0236 28.2987 40.145 24.5451 42.4753L31.8617 71.7828Z" fill="#1EF7AE"/>
    <path d="M37.4199 35.9113L46.2857 71.5073C50.781 70.9992 55.4758 70.1594 60.2992 68.9845L50.988 31.6079C46.1936 32.7699 41.6118 34.2538 37.4199 35.9113Z" fill="#008081"/>
    <path d="M60.4796 69.0779L60.3219 69.1134C55.5983 70.2786 50.8745 71.1313 46.2794 71.6491L46.1506 71.6717L46.1279 71.5429L37.2395 35.8181L37.3554 35.7666C41.6633 34.0574 46.229 32.6154 50.9397 31.4213L51.0974 31.3858L60.4796 69.0779ZM46.4209 71.3431C50.9162 70.835 55.5401 69.992 60.1349 68.8495L50.8819 31.7595C46.2581 32.9149 41.7923 34.3472 37.6003 36.0047L46.4209 71.3431Z" fill="#1EF7AE"/>
    <path d="M7.71427 49.5855L10.6867 61.4895C11.3226 64.0879 13.227 66.2606 16.1197 67.9239L11.3334 48.6689L7.71427 49.5855Z" fill="#004F7E"/>
    <path d="M16.332 68.2459L16.0131 68.0754C13.0108 66.3219 11.1643 64.1235 10.5285 61.525L7.52053 49.4633L11.3973 48.5015L16.332 68.2459ZM7.90711 49.7078L10.8151 61.4669C11.4315 63.8657 13.1136 65.929 15.8776 67.615L11.2107 48.8623L7.90711 49.7078Z" fill="#1EF7AE"/>
    <path d="M17.9936 47.0222L11.3026 48.6811L16.0889 67.9361C19.8386 70.1206 25.2721 71.4863 31.7548 71.9336L24.4059 42.3975C21.9818 43.893 19.854 45.4303 17.9936 47.0222Z" fill="#00627F"/>
    <path d="M31.9326 72.0982L31.7201 72.0887C25.1954 71.6253 19.7491 70.2307 16.0123 68.0751L15.9575 68.03L15.9317 67.9721L11.0938 48.6012L17.9007 46.8907C19.7322 45.3117 21.889 43.7615 24.2841 42.2789L24.445 42.1725L31.9326 72.0982ZM16.2215 67.8431C19.8745 69.9665 25.1663 71.3258 31.5492 71.7828L24.2811 42.6621C21.9729 44.1061 19.8741 45.6304 18.0876 47.1546L18.0586 47.1675L11.4675 48.8167L16.2215 67.8431Z" fill="#1EF7AE"/>
    <path d="M79.5607 28.6465L86.9096 58.1826C92.4306 54.7531 96.5602 51.0056 98.8414 47.3171L94.0841 28.0492L87.3931 29.7081C85.0162 29.2038 82.3915 28.8446 79.5607 28.6465Z" fill="#49EF8A"/>
    <path d="M86.8419 58.4204L79.3833 28.4817L79.5958 28.4913C82.3976 28.7023 85.0224 29.0615 87.3993 29.5658L94.2061 27.8553L99.0409 47.2971L98.9958 47.3518C96.7146 51.0404 92.556 54.8008 87.0189 58.2721L86.8419 58.4204ZM79.7667 28.7971L87.0348 57.9179C92.4399 54.54 96.4826 50.8312 98.7156 47.2683L93.9616 28.2419L87.3705 29.8911L87.3286 29.875C85.0515 29.361 82.4976 29.005 79.7667 28.7971Z" fill="#1EF7AE"/>
    <path d="M100.63 39.0903L97.6577 27.1864L94.0676 28.0901L98.8539 47.345C100.63 44.4715 101.295 41.6759 100.63 39.0903Z" fill="#51F98A"/>
    <path d="M98.7964 47.683L93.8745 27.9676L97.7513 27.0058L100.759 39.0675C101.395 41.666 100.801 44.4648 98.9927 47.422L98.7964 47.683ZM94.2482 28.1831L98.9151 46.9358C100.559 44.1558 101.06 41.5374 100.473 39.1256L97.5357 27.3795L94.2482 28.1831Z" fill="#1EF7AE"/>
    <path d="M60.3276 68.9721C65.1382 67.7682 69.6909 66.2973 73.9119 64.6268L65.0171 29.0438C60.5218 29.5518 55.827 30.3917 51.0036 31.5665L60.3276 68.9721Z" fill="#07AB84"/>
    <path d="M74.0633 64.7331L73.9474 64.7847C69.6396 66.4939 65.0739 67.9359 60.3632 69.13L60.2054 69.1655L50.8232 31.4733L50.981 31.4378C55.7046 30.2727 60.4284 29.4199 65.0235 28.9022L65.1523 28.8796L65.1749 29.0084L74.0633 64.7331ZM60.421 68.7918C65.0158 67.6493 69.4816 66.217 73.7026 64.5466L64.882 29.2082C60.3867 29.7162 55.7627 30.5593 51.168 31.7018L60.421 68.7918Z" fill="#1EF7AE"/>
    <path d="M65.0175 29.0436L73.8833 64.6396C78.7546 62.7144 83.1556 60.5125 86.9382 58.1692L79.5893 28.6331C75.158 28.3489 70.2406 28.4547 65.0175 29.0436Z" fill="#28C987"/>
    <path d="M77.5799 63.2725C76.3919 63.8013 75.191 64.3011 73.9482 64.7848L73.8033 64.8493L73.7678 64.6915L64.8665 28.9378L65.0372 28.9312C70.2023 28.3681 75.1068 28.2333 79.609 28.5207L79.7217 28.54L79.7314 28.6398L87.119 58.2628L87.0321 58.3015C84.1702 60.0614 80.9991 61.7506 77.5799 63.2725ZM74.006 64.4466C78.7195 62.5569 83.0175 60.4356 86.7711 58.1052L79.4546 28.7977C75.0522 28.5007 70.2475 28.6257 65.2241 29.1952L74.006 64.4466Z" fill="#1EF7AE"/>
    <path d="M97.6868 27.1735C100.262 37.4836 82.2099 50.8998 57.3555 57.0675C32.514 63.2642 10.2886 59.895 7.71313 49.5849C5.13765 39.2748 23.1899 25.8586 48.0444 19.6909C72.8859 13.4942 95.0984 16.8344 97.6868 27.1735Z" fill="url(#paint0_linear_5100_42074)"/>
    <path d="M74.6359 51.355C69.3912 53.6894 63.5506 55.6989 57.391 57.2255C45.3582 60.2206 33.5626 61.0966 24.1423 59.6654C14.722 58.2343 8.83331 54.6759 7.55529 49.6206C6.30624 44.5525 9.82283 38.6477 17.5034 32.9725C25.1261 27.3231 35.947 22.5414 48.0088 19.5334C60.0415 16.5383 71.8372 15.6624 81.2445 17.0645C90.6938 18.4827 96.5825 22.0412 97.8316 27.1093C99.0806 32.1774 95.564 38.0822 87.8834 43.7574C84.1365 46.5709 79.6487 49.1238 74.6359 51.355ZM30.8799 25.6646C25.8671 27.8959 21.3793 30.4488 17.6775 33.2075C10.1128 38.8311 6.61543 44.6232 7.84186 49.5625C9.09728 54.489 14.8894 57.9863 24.184 59.3692C33.5334 60.7971 45.2872 59.905 57.291 56.9229C69.2948 53.9407 80.0867 49.1719 87.6804 43.5354C95.2451 37.9117 98.7424 32.1196 97.516 27.1803C96.2896 22.241 90.4685 18.7565 81.161 17.3447C71.8373 15.9747 60.0707 16.8378 48.0669 19.82C41.9491 21.3626 36.1246 23.3302 30.8799 25.6646Z" fill="#1EF7AE"/>
    <path d="M93.7644 27.8783C96.0494 37.0679 79.5067 49.1178 56.7903 54.7852C34.0611 60.4236 13.7714 57.5815 11.4863 48.3919C9.20129 39.2023 25.744 27.1524 48.4604 21.485C71.2057 15.8048 91.4793 18.6888 93.7644 27.8783Z" fill="url(#paint1_linear_5100_42074)"/>
    <path d="M72.9185 49.4471C68.0215 51.6267 62.5705 53.4975 56.8133 54.9144C34.039 60.6076 13.6398 57.6754 11.3579 48.4149C9.0471 39.1674 25.6799 27.0079 48.4542 21.3147C71.2125 15.6635 91.5988 18.5667 93.9226 27.8432C95.0554 32.3382 91.7928 37.6439 84.7464 42.7938C81.4146 45.2141 77.3808 47.4609 72.9185 49.4471ZM32.4781 27.0718C18.6276 33.2367 9.9469 41.5789 11.6445 48.3568C13.9198 57.4466 34.1387 60.2855 56.7552 54.6278C67.7254 51.8974 77.6159 47.5993 84.5594 42.5299C91.4868 37.5023 94.7172 32.2804 93.607 27.9142C91.3607 18.8116 71.1128 15.9855 48.5253 21.6303C42.6812 23.0859 37.2591 24.9438 32.4781 27.0718Z" fill="#1EF7AE"/>
    <path d="M92.758 29.7504C94.9139 38.3379 78.841 49.7274 56.8717 55.2011C34.9313 60.662 15.4082 58.1383 13.2523 49.5508C11.0964 40.9633 27.1693 29.5739 49.1387 24.1001C71.0791 18.6393 90.6311 21.1501 92.758 29.7504Z" fill="url(#paint2_linear_5100_42074)"/>
    <path d="M72.9417 49.8881C68.0738 52.0549 62.6517 53.9127 56.9235 55.3167C46.2979 57.9632 35.8934 58.8449 27.6359 57.7642C19.3204 56.7092 14.1695 53.7944 13.1238 49.5731C12.0491 45.3647 15.2409 40.3682 22.0751 35.5211C28.8512 30.6998 38.4778 26.5886 49.1034 23.942C59.7291 21.2955 70.1335 20.4139 78.3911 21.4946C86.6776 22.5625 91.8575 25.4644 92.9032 29.6857L92.7583 29.7501L92.9161 29.7146C93.9618 33.9359 90.7989 38.9195 83.9648 43.7667C80.8133 45.9679 77.0853 48.0438 72.9417 49.8881ZM33.1852 29.6733C29.0417 31.5176 25.3426 33.5807 22.233 35.798C15.5019 40.5645 12.3583 45.4354 13.3814 49.5279C14.4045 53.6204 19.4459 56.4451 27.6325 57.5226C35.8482 58.5873 46.2237 57.7185 56.8204 55.0849C67.417 52.4513 76.9728 48.3369 83.7328 43.5575C90.464 38.7909 93.6076 33.92 92.5845 29.8275C91.5614 25.735 86.52 22.9103 78.3333 21.8328C70.1176 20.7682 59.7422 21.6369 49.1455 24.2705C43.4463 25.6616 38.0242 27.5195 33.1852 29.6733Z" fill="#1EF7AE"/>
    <path d="M52.4614 47.4776C55.1724 46.5487 56.8592 45.3466 58.0533 44.0513C58.6648 43.3973 58.9897 42.8013 59.0602 42.1798C59.2728 42.1893 59.3565 42.2215 59.4563 42.2117C61.1503 42.4298 63.1018 42.2903 65.272 41.7062C69.2388 40.6349 71.9108 38.9942 72.4573 37.2582C72.7724 36.25 72.3984 35.4097 71.7667 34.6147C71.6733 34.4827 71.6765 34.4118 72.095 34.2602C74.2297 33.5184 76.3515 32.7476 78.4733 31.9767C78.8049 31.8639 78.8789 31.7962 78.7275 31.69C78.2185 31.3264 77.7545 30.908 77.3035 30.5186C77.181 30.3995 77.0233 30.435 76.6916 30.5479C74.5698 31.3187 72.4641 32.0477 70.3424 32.8185C69.9817 32.9443 69.8401 32.9379 69.7176 32.8188C69.418 32.5356 69.1054 32.2234 68.7478 31.966C68.5964 31.8598 68.6704 31.7921 69.0021 31.6792C71.1368 30.9374 73.2296 30.1795 75.3224 29.4215C75.625 29.3215 75.7409 29.2699 75.5895 29.1638C75.1095 28.7872 74.6294 28.4107 74.1784 28.0213C74.0559 27.9022 73.9271 27.9248 73.5665 28.0506C71.5027 28.7957 69.397 29.5246 67.3042 30.2825C66.8856 30.4341 66.7729 30.4149 66.6215 30.3087C65.6227 29.4687 64.6369 28.6577 63.6671 27.8049C63.5028 27.6697 63.374 27.6923 62.9844 27.831C61.7577 28.2729 60.531 28.7147 59.2914 29.1276C58.9018 29.2663 58.7859 29.3179 58.9792 29.4401C59.4044 29.7716 59.8587 30.0902 60.1262 30.4571C60.4613 30.8982 59.9109 31.4556 58.6842 31.8974C52.335 34.168 45.9149 36.4354 39.5076 38.7318C38.3099 39.1608 37.5564 39.1838 37.0763 38.8072C36.7477 38.5369 36.4352 38.2247 36.1645 37.9286C36.0421 37.8095 35.9293 37.7902 35.5687 37.916C34.0296 38.3581 32.4906 38.8001 30.9225 39.255C30.4911 39.3776 30.417 39.4453 30.5524 39.5934C31.4513 40.443 32.3213 41.3056 33.2041 42.1972C33.3395 42.3452 33.3363 42.4161 32.8308 42.6063C30.7701 43.2805 28.6484 44.0514 26.4976 44.8351C26.137 44.9609 26.063 45.0285 26.1854 45.1476C26.6075 45.5499 27.0167 45.9233 27.3808 46.3514C27.5161 46.4994 27.6739 46.4639 28.0635 46.3252C30.2432 45.5286 32.4359 44.761 34.5995 44.0062C35.0181 43.8546 35.1308 43.8739 35.2243 44.0059C35.4949 44.302 35.7656 44.5981 36.0653 44.8814C36.1877 45.0004 36.1845 45.0713 35.737 45.2358C33.5443 46.0034 31.3646 46.8 29.172 47.5677C28.8114 47.6935 28.7084 47.774 28.8598 47.8802C29.2819 48.2825 29.675 48.6977 30.0681 49.1129C30.1905 49.232 30.3322 49.2384 30.7218 49.0997C32.8726 48.316 35.0652 47.5483 37.2159 46.7646C37.6635 46.6001 37.8342 46.5936 37.9695 46.7417C38.8942 47.6493 40.2536 48.3635 42.4243 48.7165C45.3583 49.1464 48.7555 48.7452 52.4614 47.4776ZM54.8645 36.9651C54.7839 36.8621 54.8708 36.8234 55.0737 36.7331C57.8008 35.7623 60.515 34.7625 63.242 33.7917C63.4449 33.7014 63.5447 33.6917 63.6542 33.7818C64.5048 34.4447 65.4551 35.098 65.7067 35.8192C65.9293 36.5533 65.7461 37.1556 64.7772 37.8646C63.0614 39.0796 60.2149 39.5481 58.553 39.2463C57.3839 39.0376 56.6495 38.6355 56.0888 38.156C55.6378 37.7666 55.2866 37.3674 54.8645 36.9651ZM45.6168 44.9695C44.3705 44.8993 43.5459 44.6067 42.8823 44.2078C41.9127 43.6673 41.3327 42.9881 40.7816 42.2961C40.4852 41.942 40.4723 41.913 41.4961 41.5614C44.2812 40.5648 47.0373 39.5811 49.7804 38.5684C50.1121 38.4555 50.2409 38.4329 50.3633 38.552C51.1978 39.2568 52.0612 39.9487 52.5061 40.7922C52.5834 40.966 52.6608 41.1399 52.7382 41.3137C52.8124 41.5584 52.8158 41.8 52.7451 42.1092C52.321 43.9643 48.2093 45.1001 45.6168 44.9695Z" fill="white"/>
  </g>
  <defs>
    <linearGradient id="paint0_linear_5100_42074" x1="8.03472" y1="49.5067" x2="93.5712" y2="28.1944" gradientUnits="userSpaceOnUse">
      <stop offset="1e-08" stop-color="#4EE98A"/>
      <stop offset="1" stop-color="#4AF38A"/>
    </linearGradient>
    <linearGradient id="paint1_linear_5100_42074" x1="8.2736" y1="49.1795" x2="79.4435" y2="31.4469" gradientUnits="userSpaceOnUse">
      <stop stop-color="#5BFF8A"/>
      <stop offset="1" stop-color="#006F81"/>
    </linearGradient>
    <linearGradient id="paint2_linear_5100_42074" x1="13.9393" y1="49.3733" x2="70.9099" y2="35.1786" gradientUnits="userSpaceOnUse">
      <stop stop-color="#29C086"/>
      <stop offset="0.5362" stop-color="#50F18A"/>
      <stop offset="1" stop-color="#56FF8A"/>
    </linearGradient>
    <clipPath id="clip0_5100_42074">
      <rect width="93.9764" height="53.6329" fill="white" transform="translate(0.339844 38.9463) rotate(-23.9939)"/>
    </clipPath>
  </defs>
</svg>