<svg width="588" height="287" viewBox="0 0 588 287" fill="none" xmlns="http://www.w3.org/2000/svg">
<g clip-path="url(#clip0_5303_39288)">
<g filter="url(#filter0_d_5303_39288)">
<path d="M43 74.5401C43 64.3007 51.3007 56 61.5401 56H327.591C337.831 56 346.131 64.3007 346.131 74.5401V170.949C346.131 181.188 337.831 189.489 327.591 189.489H61.5401C51.3007 189.489 43 181.188 43 170.949V74.5401Z" fill="url(#paint0_linear_5303_39288)"/>
</g>
<path opacity="0.6" d="M66.1565 92.2485V82.9043H69.7644C70.2879 82.9043 70.7443 83.0125 71.1336 83.2288C71.523 83.4451 71.8258 83.7371 72.0421 84.1048C72.2584 84.4682 72.3665 84.8705 72.3665 85.3117C72.3665 85.8136 72.2324 86.2613 71.9642 86.655C71.696 87.0443 71.3369 87.3147 70.887 87.4661L70.8741 87.1481C71.4797 87.3212 71.9556 87.624 72.3016 88.0566C72.6477 88.4892 72.8208 89.0127 72.8208 89.627C72.8208 90.1677 72.7061 90.6349 72.4769 91.0286C72.2476 91.4179 71.9253 91.7186 71.51 91.9306C71.0947 92.1425 70.6123 92.2485 70.0629 92.2485H66.1565ZM67.1169 91.3336H69.8293C70.21 91.3336 70.5518 91.2665 70.8546 91.1324C71.1574 90.994 71.3953 90.7993 71.5684 90.5484C71.7458 90.2975 71.8344 89.9947 71.8344 89.6399C71.8344 89.2939 71.7544 88.9824 71.5943 88.7055C71.4343 88.4286 71.2158 88.208 70.9389 88.0436C70.6664 87.8749 70.3549 87.7906 70.0045 87.7906H67.1169V91.3336ZM67.1169 86.8886H69.7579C70.0564 86.8886 70.329 86.8215 70.5756 86.6874C70.8221 86.549 71.0168 86.3608 71.1596 86.1229C71.3067 85.8849 71.3802 85.6102 71.3802 85.2988C71.3802 84.8575 71.2266 84.4984 70.9195 84.2216C70.6167 83.9447 70.2295 83.8063 69.7579 83.8063H67.1169V86.8886ZM76.1209 92.4432C75.5931 92.4432 75.1497 92.348 74.7906 92.1577C74.4359 91.9673 74.1698 91.7143 73.9924 91.3985C73.8151 91.0827 73.7264 90.7387 73.7264 90.3667C73.7264 89.986 73.8021 89.6616 73.9535 89.3934C74.1093 89.1208 74.3191 88.898 74.583 88.725C74.8512 88.5519 75.1605 88.42 75.5109 88.3291C75.8656 88.2426 76.2571 88.1669 76.6854 88.102C77.118 88.0328 77.5398 87.9744 77.9508 87.9268C78.3661 87.8749 78.7295 87.8252 79.0409 87.7776L78.7035 87.9852C78.7165 87.2931 78.5824 86.7804 78.3012 86.4473C78.02 86.1142 77.5311 85.9477 76.8347 85.9477C76.3545 85.9477 75.9478 86.0558 75.6147 86.2721C75.2859 86.4884 75.0545 86.8302 74.9204 87.2974L73.9924 87.0248C74.1525 86.3976 74.4748 85.9109 74.9593 85.5648C75.4438 85.2187 76.0733 85.0457 76.8476 85.0457C77.4879 85.0457 78.0308 85.1668 78.4764 85.4091C78.9263 85.647 79.2443 85.9931 79.4303 86.4473C79.5168 86.6506 79.573 86.8778 79.599 87.1287C79.6249 87.3796 79.6379 87.6348 79.6379 87.8944V92.2485H78.7879V90.49L79.0344 90.5938C78.7965 91.1951 78.4266 91.6537 77.9248 91.9695C77.423 92.2853 76.8217 92.4432 76.1209 92.4432ZM76.2312 91.6191C76.6768 91.6191 77.0661 91.5391 77.3992 91.379C77.7323 91.2189 78.0005 91.0005 78.2038 90.7236C78.4072 90.4424 78.5391 90.1266 78.5997 89.7762C78.6516 89.5513 78.6797 89.3047 78.684 89.0365C78.6884 88.7639 78.6905 88.5606 78.6905 88.4265L79.0539 88.6147C78.7295 88.6579 78.3769 88.7012 77.9962 88.7444C77.6198 88.7877 77.2478 88.8375 76.8801 88.8937C76.5167 88.9499 76.1879 89.017 75.8937 89.0949C75.6947 89.1511 75.5022 89.2311 75.3162 89.335C75.1302 89.4344 74.9766 89.5686 74.8555 89.7373C74.7387 89.906 74.6803 90.1158 74.6803 90.3667C74.6803 90.57 74.73 90.7669 74.8295 90.9572C74.9334 91.1476 75.0978 91.3055 75.3227 91.4309C75.552 91.5564 75.8548 91.6191 76.2312 91.6191ZM81.457 92.2485V82.7096H82.4109V92.2485H81.457ZM86.3614 92.4432C85.8336 92.4432 85.3902 92.348 85.0311 92.1577C84.6764 91.9673 84.4103 91.7143 84.233 91.3985C84.0556 91.0827 83.9669 90.7387 83.9669 90.3667C83.9669 89.986 84.0426 89.6616 84.194 89.3934C84.3498 89.1208 84.5596 88.898 84.8235 88.725C85.0917 88.5519 85.401 88.42 85.7514 88.3291C86.1062 88.2426 86.4977 88.1669 86.9259 88.102C87.3585 88.0328 87.7803 87.9744 88.1913 87.9268C88.6066 87.8749 88.97 87.8252 89.2815 87.7776L88.944 87.9852C88.957 87.2931 88.8229 86.7804 88.5417 86.4473C88.2605 86.1142 87.7717 85.9477 87.0752 85.9477C86.595 85.9477 86.1884 86.0558 85.8552 86.2721C85.5265 86.4884 85.295 86.8302 85.1609 87.2974L84.233 87.0248C84.393 86.3976 84.7153 85.9109 85.1999 85.5648C85.6844 85.2187 86.3138 85.0457 87.0882 85.0457C87.7284 85.0457 88.2713 85.1668 88.7169 85.4091C89.1668 85.647 89.4848 85.9931 89.6708 86.4473C89.7573 86.6506 89.8136 86.8778 89.8395 87.1287C89.8655 87.3796 89.8785 87.6348 89.8785 87.8944V92.2485H89.0284V90.49L89.275 90.5938C89.037 91.1951 88.6672 91.6537 88.1653 91.9695C87.6635 92.2853 87.0622 92.4432 86.3614 92.4432ZM86.4717 91.6191C86.9173 91.6191 87.3066 91.5391 87.6397 91.379C87.9728 91.2189 88.2411 91.0005 88.4444 90.7236C88.6477 90.4424 88.7796 90.1266 88.8402 89.7762C88.8921 89.5513 88.9202 89.3047 88.9246 89.0365C88.9289 88.7639 88.9311 88.5606 88.9311 88.4265L89.2944 88.6147C88.97 88.6579 88.6174 88.7012 88.2367 88.7444C87.8604 88.7877 87.4883 88.8375 87.1206 88.8937C86.7572 88.9499 86.4284 89.017 86.1343 89.0949C85.9353 89.1511 85.7428 89.2311 85.5567 89.335C85.3707 89.4344 85.2172 89.5686 85.096 89.7373C84.9792 89.906 84.9208 90.1158 84.9208 90.3667C84.9208 90.57 84.9706 90.7669 85.0701 90.9572C85.1739 91.1476 85.3383 91.3055 85.5632 91.4309C85.7925 91.5564 86.0953 91.6191 86.4717 91.6191ZM96.6292 92.2485V88.6731C96.6292 88.2837 96.5924 87.9268 96.5189 87.6024C96.4453 87.2736 96.3264 86.9881 96.162 86.7458C96.0019 86.4992 95.7921 86.3089 95.5326 86.1748C95.2773 86.0407 94.9658 85.9736 94.5981 85.9736C94.2607 85.9736 93.9622 86.032 93.7026 86.1488C93.4474 86.2656 93.2311 86.4343 93.0537 86.655C92.8807 86.8713 92.7487 87.1352 92.6579 87.4466C92.5671 87.7581 92.5216 88.1128 92.5216 88.5108L91.8468 88.3616C91.8468 87.6435 91.9722 87.04 92.2231 86.5511C92.474 86.0623 92.8201 85.6924 93.2614 85.4415C93.7026 85.1906 94.2088 85.0652 94.7798 85.0652C95.1994 85.0652 95.565 85.13 95.8765 85.2598C96.1923 85.3896 96.4583 85.5648 96.6746 85.7854C96.8953 86.0061 97.0726 86.2591 97.2067 86.5447C97.3408 86.8259 97.4382 87.1265 97.4987 87.4466C97.5593 87.7624 97.5896 88.0782 97.5896 88.394V92.2485H96.6292ZM91.5613 92.2485V85.2404H92.4243V86.9664H92.5216V92.2485H91.5613ZM102.143 92.4432C101.437 92.4432 100.84 92.2853 100.352 91.9695C99.8627 91.6537 99.4907 91.2189 99.2355 90.6652C98.9846 90.1071 98.8548 89.4669 98.8461 88.7444C98.8548 88.009 98.9889 87.3644 99.2484 86.8107C99.508 86.2527 99.8822 85.82 100.371 85.5129C100.86 85.2014 101.453 85.0457 102.149 85.0457C102.859 85.0457 103.475 85.2187 103.998 85.5648C104.526 85.9109 104.887 86.3846 105.082 86.9859L104.148 87.2844C103.983 86.8648 103.722 86.5403 103.363 86.3111C103.008 86.0774 102.601 85.9606 102.143 85.9606C101.628 85.9606 101.202 86.0796 100.864 86.3175C100.527 86.5511 100.276 86.8778 100.111 87.2974C99.9471 87.717 99.8627 88.1994 99.8584 88.7444C99.8671 89.5837 100.062 90.2586 100.442 90.769C100.823 91.2752 101.39 91.5283 102.143 91.5283C102.618 91.5283 103.023 91.4201 103.356 91.2038C103.693 90.9832 103.949 90.663 104.122 90.2434L105.082 90.5289C104.823 91.1519 104.442 91.6277 103.94 91.9565C103.438 92.281 102.839 92.4432 102.143 92.4432ZM109.197 92.4432C108.513 92.4432 107.921 92.2918 107.419 91.989C106.921 91.6862 106.534 91.26 106.257 90.7106C105.981 90.1612 105.842 89.5166 105.842 88.7769C105.842 88.0112 105.978 87.3493 106.251 86.7912C106.523 86.2332 106.906 85.8027 107.4 85.4999C107.897 85.1971 108.483 85.0457 109.158 85.0457C109.85 85.0457 110.441 85.2058 110.93 85.5259C111.418 85.8417 111.788 86.2959 112.039 86.8886C112.29 87.4812 112.405 88.1886 112.383 89.0105H111.41V88.6731C111.392 87.7646 111.196 87.0789 110.819 86.616C110.447 86.1532 109.902 85.9217 109.184 85.9217C108.431 85.9217 107.854 86.1661 107.451 86.655C107.053 87.1438 106.854 87.8403 106.854 88.7444C106.854 89.627 107.053 90.3126 107.451 90.8015C107.854 91.286 108.423 91.5283 109.158 91.5283C109.66 91.5283 110.097 91.4136 110.469 91.1843C110.845 90.9507 111.142 90.6155 111.358 90.1785L112.247 90.5224C111.97 91.1324 111.561 91.6061 111.02 91.9435C110.484 92.2767 109.876 92.4432 109.197 92.4432ZM106.517 89.0105V88.2123H111.87V89.0105H106.517Z" fill="white"/>
<path d="M72.9014 135.171V131.611H76.9358V135.171H72.9014ZM72.9014 111.469V107.91H76.9358V111.469H72.9014ZM74.9483 132.65C73.4156 132.65 72.0461 132.368 70.8398 131.804C69.6334 131.231 68.6495 130.425 67.8882 129.386C67.1268 128.338 66.6423 127.102 66.4346 125.678L70.4393 125.056C70.7063 126.222 71.2649 127.152 72.1153 127.844C72.9756 128.536 73.999 128.882 75.1856 128.882C76.3029 128.882 77.2275 128.62 77.9592 128.096C78.7008 127.572 79.0716 126.924 79.0716 126.153C79.0716 125.629 78.9084 125.199 78.5821 124.863C78.2657 124.517 77.7664 124.235 77.0841 124.017L71.8038 122.386C68.7583 121.446 67.2356 119.587 67.2356 116.809C67.2356 115.504 67.5421 114.371 68.1551 113.412C68.7781 112.453 69.6532 111.716 70.7804 111.202C71.9176 110.678 73.2574 110.421 74.7999 110.431C76.2139 110.451 77.4697 110.708 78.5673 111.202C79.6649 111.687 80.5795 112.394 81.3112 113.323C82.0528 114.243 82.5917 115.365 82.9279 116.69L78.7749 117.432C78.6365 116.799 78.3794 116.245 78.0037 115.771C77.6279 115.286 77.1582 114.91 76.5946 114.643C76.0409 114.366 75.4229 114.218 74.7406 114.198C74.088 114.179 73.4947 114.273 72.9607 114.48C72.4367 114.688 72.0164 114.98 71.7 115.355C71.3935 115.721 71.2402 116.136 71.2402 116.601C71.2402 117.115 71.4578 117.56 71.8928 117.936C72.3279 118.302 73.0201 118.618 73.9693 118.885L77.7367 119.953C79.6253 120.497 80.9849 121.234 81.8155 122.163C82.656 123.093 83.0763 124.324 83.0763 125.856C83.0763 127.201 82.7351 128.383 82.0528 129.401C81.3706 130.42 80.4164 131.216 79.1902 131.789C77.974 132.363 76.56 132.65 74.9483 132.65ZM92.6763 132.65C91.5985 132.65 90.585 132.427 89.6358 131.982C88.6964 131.537 87.8856 130.919 87.2033 130.128C86.521 129.337 86.0316 128.417 85.7349 127.369L89.6209 126.331C89.7495 126.835 89.9769 127.27 90.3032 127.636C90.6394 128.002 91.025 128.289 91.4601 128.497C91.9051 128.694 92.3599 128.793 92.8247 128.793C93.4377 128.793 93.9964 128.645 94.5007 128.348C95.0149 128.052 95.4203 127.651 95.7169 127.147C96.0235 126.643 96.1767 126.084 96.1767 125.471C96.1767 124.858 96.0235 124.299 95.7169 123.795C95.4203 123.29 95.0149 122.89 94.5007 122.593C93.9964 122.297 93.4377 122.148 92.8247 122.148C92.0732 122.148 91.4601 122.277 90.9855 122.534C90.5109 122.781 90.1549 123.019 89.9176 123.246L86.5062 122.208L87.1588 110.846H98.8168V114.614H89.3836L90.8075 113.279L90.3625 120.606L89.6803 119.775C90.2142 119.34 90.8223 119.024 91.5046 118.826C92.1869 118.628 92.8247 118.529 93.4179 118.529C94.7627 118.529 95.9444 118.831 96.9628 119.434C97.9912 120.027 98.7921 120.848 99.3656 121.896C99.949 122.935 100.241 124.126 100.241 125.471C100.241 126.816 99.8897 128.032 99.1876 129.12C98.4856 130.197 97.5611 131.058 96.414 131.7C95.267 132.333 94.0211 132.65 92.6763 132.65ZM110.649 110.431C112.063 110.431 113.329 110.762 114.446 111.425C115.573 112.087 116.463 113.012 117.116 114.198C117.768 115.375 118.095 116.74 118.095 118.292V124.492C118.095 126.173 117.768 127.626 117.116 128.853C116.463 130.069 115.544 131.008 114.357 131.671C113.17 132.323 111.776 132.65 110.174 132.65C109.136 132.65 108.147 132.496 107.208 132.19C106.278 131.873 105.418 131.354 104.627 130.632L107.505 127.755C107.86 128.111 108.271 128.388 108.736 128.586C109.21 128.783 109.69 128.882 110.174 128.882C110.946 128.882 111.613 128.704 112.177 128.348C112.75 127.982 113.19 127.513 113.497 126.939C113.813 126.356 113.971 125.738 113.971 125.085V121.911L114.654 122.653C114.05 123.276 113.343 123.755 112.533 124.091C111.722 124.418 110.886 124.581 110.026 124.581C108.681 124.581 107.495 124.279 106.466 123.676C105.448 123.073 104.647 122.247 104.063 121.199C103.49 120.151 103.203 118.955 103.203 117.61C103.203 116.265 103.544 115.054 104.227 113.976C104.909 112.888 105.814 112.028 106.941 111.395C108.068 110.752 109.304 110.431 110.649 110.431ZM110.649 114.287C110.036 114.287 109.472 114.436 108.958 114.732C108.454 115.029 108.048 115.429 107.742 115.934C107.445 116.438 107.297 116.997 107.297 117.61C107.297 118.223 107.445 118.786 107.742 119.301C108.038 119.805 108.439 120.21 108.943 120.517C109.448 120.814 110.006 120.962 110.619 120.962C111.232 120.962 111.791 120.814 112.295 120.517C112.809 120.21 113.215 119.805 113.512 119.301C113.818 118.786 113.971 118.223 113.971 117.61C113.971 117.017 113.823 116.468 113.526 115.963C113.23 115.459 112.829 115.054 112.325 114.747C111.821 114.441 111.262 114.287 110.649 114.287ZM130.17 132.65C128.588 132.65 127.204 132.318 126.017 131.656C124.831 130.993 123.906 130.069 123.243 128.882C122.581 127.696 122.25 126.311 122.25 124.729V118.322C122.25 116.74 122.581 115.355 123.243 114.169C123.906 112.982 124.831 112.058 126.017 111.395C127.204 110.733 128.588 110.401 130.17 110.401C131.752 110.401 133.137 110.733 134.323 111.395C135.51 112.058 136.434 112.982 137.097 114.169C137.759 115.355 138.09 116.74 138.09 118.322V124.729C138.09 126.311 137.759 127.696 137.097 128.882C136.434 130.069 135.51 130.993 134.323 131.656C133.137 132.318 131.752 132.65 130.17 132.65ZM130.17 128.823C130.882 128.823 131.525 128.655 132.098 128.319C132.672 127.982 133.127 127.528 133.463 126.954C133.799 126.381 133.967 125.738 133.967 125.026V117.995C133.967 117.283 133.799 116.641 133.463 116.067C133.127 115.494 132.672 115.039 132.098 114.703C131.525 114.366 130.882 114.198 130.17 114.198C129.458 114.198 128.815 114.366 128.242 114.703C127.668 115.039 127.214 115.494 126.877 116.067C126.541 116.641 126.373 117.283 126.373 117.995V125.026C126.373 125.738 126.541 126.381 126.877 126.954C127.214 127.528 127.668 127.982 128.242 128.319C128.815 128.655 129.458 128.823 130.17 128.823ZM141.942 136.209L142.179 134.518C142.654 134.558 143.039 134.479 143.336 134.281C143.633 134.093 143.835 133.816 143.944 133.45C144.063 133.095 144.087 132.679 144.018 132.205H141.942V128.17H145.976V132.205C145.976 133.628 145.645 134.706 144.982 135.438C144.32 136.17 143.306 136.427 141.942 136.209ZM158.477 110.431C159.891 110.431 161.156 110.762 162.274 111.425C163.401 112.087 164.291 113.012 164.944 114.198C165.596 115.375 165.922 116.74 165.922 118.292V124.492C165.922 126.173 165.596 127.626 164.944 128.853C164.291 130.069 163.371 131.008 162.185 131.671C160.998 132.323 159.604 132.65 158.002 132.65C156.964 132.65 155.975 132.496 155.036 132.19C154.106 131.873 153.246 131.354 152.455 130.632L155.332 127.755C155.688 128.111 156.099 128.388 156.563 128.586C157.038 128.783 157.518 128.882 158.002 128.882C158.773 128.882 159.441 128.704 160.004 128.348C160.578 127.982 161.018 127.513 161.324 126.939C161.641 126.356 161.799 125.738 161.799 125.085V121.911L162.481 122.653C161.878 123.276 161.171 123.755 160.36 124.091C159.55 124.418 158.714 124.581 157.854 124.581C156.509 124.581 155.322 124.279 154.294 123.676C153.276 123.073 152.475 122.247 151.891 121.199C151.318 120.151 151.031 118.955 151.031 117.61C151.031 116.265 151.372 115.054 152.054 113.976C152.737 112.888 153.641 112.028 154.769 111.395C155.896 110.752 157.132 110.431 158.477 110.431ZM158.477 114.287C157.864 114.287 157.3 114.436 156.786 114.732C156.282 115.029 155.876 115.429 155.57 115.934C155.273 116.438 155.125 116.997 155.125 117.61C155.125 118.223 155.273 118.786 155.57 119.301C155.866 119.805 156.267 120.21 156.771 120.517C157.275 120.814 157.834 120.962 158.447 120.962C159.06 120.962 159.619 120.814 160.123 120.517C160.637 120.21 161.043 119.805 161.339 119.301C161.646 118.786 161.799 118.223 161.799 117.61C161.799 117.017 161.651 116.468 161.354 115.963C161.057 115.459 160.657 115.054 160.153 114.747C159.648 114.441 159.09 114.287 158.477 114.287ZM177.227 132.65C175.783 132.65 174.497 132.358 173.37 131.774C172.253 131.181 171.373 130.37 170.73 129.342C170.097 128.304 169.781 127.122 169.781 125.797C169.781 124.67 170.033 123.607 170.537 122.608C171.051 121.61 171.788 120.794 172.747 120.161L172.658 121.407C171.936 120.705 171.368 119.963 170.953 119.182C170.547 118.401 170.344 117.521 170.344 116.542C170.344 115.306 170.636 114.228 171.22 113.308C171.813 112.389 172.624 111.677 173.652 111.173C174.69 110.658 175.882 110.401 177.227 110.401C178.571 110.401 179.758 110.658 180.786 111.173C181.825 111.677 182.635 112.389 183.219 113.308C183.812 114.228 184.109 115.306 184.109 116.542C184.109 117.521 183.916 118.401 183.53 119.182C183.145 119.953 182.556 120.705 181.765 121.436V120.191C182.705 120.784 183.426 121.585 183.931 122.593C184.445 123.602 184.702 124.67 184.702 125.797C184.702 127.122 184.381 128.304 183.738 129.342C183.095 130.37 182.21 131.181 181.083 131.774C179.956 132.358 178.67 132.65 177.227 132.65ZM177.227 128.853C178.176 128.853 178.947 128.595 179.54 128.081C180.134 127.567 180.43 126.806 180.43 125.797C180.43 124.798 180.134 124.037 179.54 123.513C178.947 122.979 178.176 122.712 177.227 122.712C176.277 122.712 175.511 122.979 174.928 123.513C174.344 124.037 174.053 124.798 174.053 125.797C174.053 126.806 174.344 127.567 174.928 128.081C175.511 128.595 176.277 128.853 177.227 128.853ZM177.227 118.885C177.998 118.885 178.626 118.697 179.11 118.322C179.595 117.936 179.837 117.343 179.837 116.542C179.837 115.741 179.595 115.148 179.11 114.762C178.626 114.366 177.998 114.169 177.227 114.169C176.455 114.169 175.827 114.366 175.343 114.762C174.858 115.148 174.616 115.741 174.616 116.542C174.616 117.343 174.858 117.936 175.343 118.322C175.827 118.697 176.455 118.885 177.227 118.885ZM189.628 132.205L196.806 114.643H187.67V110.846H201.137V114.643L193.988 132.205H189.628Z" fill="white"/>
<g opacity="0.6">
<path d="M134.758 87.5185C134.758 89.0481 133.522 90.2841 131.993 90.2841C130.463 90.2841 129.227 89.0481 129.227 87.5185C129.227 85.9889 130.463 84.7529 131.993 84.7529C133.522 84.7529 134.758 85.9889 134.758 87.5185Z" stroke="white" stroke-width="1.39051" stroke-linecap="round" stroke-linejoin="round"/>
<path d="M131.993 93.9075C134.72 93.9075 137.261 92.3007 139.03 89.5197C139.725 88.4305 139.725 86.5996 139.03 85.5104C137.261 82.7294 134.72 81.1226 131.993 81.1226C129.266 81.1226 126.724 82.7294 124.955 85.5104C124.26 86.5996 124.26 88.4305 124.955 89.5197C126.724 92.3007 129.266 93.9075 131.993 93.9075Z" stroke="white" stroke-width="1.39051" stroke-linecap="round" stroke-linejoin="round"/>
</g>
<g opacity="0.8">
<path d="M68.1403 155.38V154.112H68.9579V155.38H68.1403ZM68.1403 146.442V145.168H68.9579V146.442H68.1403ZM68.6465 154.452C68.1162 154.452 67.6379 154.357 67.2114 154.168C66.7887 153.979 66.4383 153.712 66.1602 153.367C65.8858 153.022 65.706 152.614 65.6207 152.143L66.4161 152.004C66.5384 152.516 66.8017 152.922 67.2059 153.222C67.6138 153.519 68.1051 153.667 68.6798 153.667C69.262 153.667 69.7329 153.526 70.0926 153.245C70.4523 152.959 70.6321 152.586 70.6321 152.127C70.6321 151.785 70.532 151.513 70.3318 151.309C70.1315 151.105 69.7922 150.931 69.3139 150.786L67.534 150.23C66.4587 149.893 65.9211 149.255 65.9211 148.317C65.9211 147.879 66.0286 147.495 66.2437 147.165C66.4624 146.832 66.7646 146.572 67.1503 146.387C67.5396 146.201 67.9938 146.11 68.513 146.114C69.021 146.114 69.4752 146.21 69.8757 146.403C70.2798 146.592 70.6117 146.861 70.8713 147.21C71.1308 147.558 71.3033 147.972 71.3885 148.45L70.5709 148.606C70.519 148.265 70.3985 147.966 70.2094 147.71C70.024 147.454 69.7848 147.256 69.4919 147.115C69.199 146.971 68.8726 146.896 68.513 146.893C68.1718 146.893 67.8678 146.952 67.6008 147.071C67.3338 147.189 67.1225 147.354 66.9667 147.566C66.8147 147.773 66.7387 148.013 66.7387 148.283C66.7387 148.58 66.8444 148.832 67.0557 149.04C67.2708 149.244 67.6101 149.416 68.0736 149.557L69.6031 150.019C70.2483 150.211 70.7137 150.471 70.9992 150.797C71.2847 151.124 71.4275 151.559 71.4275 152.104C71.4275 152.575 71.3125 152.987 71.0826 153.339C70.8527 153.691 70.5283 153.966 70.1093 154.162C69.694 154.355 69.2064 154.452 68.6465 154.452ZM74.9412 154.452C74.5259 154.452 74.1421 154.366 73.7899 154.196C73.4376 154.025 73.1373 153.79 72.8888 153.489C72.6404 153.189 72.4624 152.844 72.3549 152.455L73.1391 152.243C73.2096 152.533 73.3375 152.783 73.5229 152.994C73.7083 153.202 73.9252 153.363 74.1737 153.478C74.4258 153.593 74.6891 153.651 74.9635 153.651C75.3194 153.651 75.6383 153.565 75.9201 153.395C76.2057 153.22 76.4318 152.991 76.5987 152.705C76.7656 152.42 76.849 152.106 76.849 151.765C76.849 151.413 76.7619 151.096 76.5876 150.814C76.4133 150.528 76.1834 150.302 75.8979 150.135C75.6124 149.969 75.3009 149.885 74.9635 149.885C74.5852 149.885 74.2589 149.969 73.9845 150.135C73.7101 150.299 73.4914 150.504 73.3282 150.753L72.5829 150.441L72.8276 146.275H77.1048V147.06H73.1892L73.5952 146.676L73.3783 150.23L73.1725 149.957C73.4024 149.694 73.6805 149.488 74.0068 149.34C74.3331 149.192 74.6761 149.118 75.0358 149.118C75.5289 149.118 75.9739 149.236 76.3707 149.473C76.7674 149.707 77.0826 150.024 77.3162 150.425C77.5498 150.825 77.6666 151.272 77.6666 151.765C77.6666 152.255 77.5424 152.703 77.294 153.111C77.0455 153.515 76.7155 153.84 76.3039 154.084C75.8923 154.329 75.4381 154.452 74.9412 154.452ZM78.8864 155.447L78.9364 155.041C79.0847 155.052 79.1923 155.023 79.259 154.952C79.3258 154.882 79.3665 154.787 79.3814 154.668C79.3962 154.55 79.3999 154.422 79.3925 154.285H78.8864V153.111H79.8375V154.507C79.8375 154.848 79.7503 155.104 79.576 155.275C79.4055 155.445 79.1756 155.503 78.8864 155.447ZM84.5888 146.114C85.0931 146.114 85.5492 146.236 85.9571 146.481C86.3687 146.722 86.695 147.052 86.936 147.471C87.177 147.886 87.2976 148.354 87.2976 148.873V151.654C87.2976 152.188 87.177 152.666 86.936 153.089C86.695 153.512 86.365 153.845 85.946 154.09C85.5307 154.331 85.0579 154.452 84.5277 154.452C84.0716 154.452 83.6489 154.351 83.2595 154.151C82.8739 153.947 82.555 153.667 82.3028 153.311L82.9258 152.794C83.0964 153.057 83.3225 153.269 83.6044 153.428C83.8899 153.588 84.1976 153.667 84.5277 153.667C84.9059 153.667 85.2396 153.578 85.5288 153.4C85.8218 153.219 86.0517 152.981 86.2185 152.688C86.3891 152.392 86.4744 152.071 86.4744 151.726V149.98L86.6746 150.213C86.4447 150.58 86.1388 150.877 85.7569 151.103C85.3786 151.329 84.9633 151.442 84.511 151.442C84.0178 151.442 83.571 151.324 83.1705 151.086C82.7738 150.849 82.4586 150.53 82.225 150.13C81.9951 149.729 81.8801 149.283 81.8801 148.789C81.8801 148.296 82.0025 147.848 82.2472 147.443C82.4919 147.035 82.8201 146.713 83.2317 146.476C83.6433 146.235 84.0957 146.114 84.5888 146.114ZM84.5888 146.904C84.2403 146.904 83.9232 146.989 83.6377 147.16C83.3522 147.327 83.1242 147.553 82.9536 147.838C82.7867 148.124 82.7033 148.441 82.7033 148.789C82.7033 149.138 82.7867 149.455 82.9536 149.74C83.1205 150.026 83.3466 150.254 83.6322 150.425C83.9177 150.591 84.2347 150.675 84.5833 150.675C84.9318 150.675 85.2489 150.591 85.5344 150.425C85.8236 150.254 86.0517 150.026 86.2185 149.74C86.3891 149.455 86.4744 149.138 86.4744 148.789C86.4744 148.445 86.3891 148.129 86.2185 147.844C86.0517 147.558 85.8255 147.33 85.5399 147.16C85.2544 146.989 84.9374 146.904 84.5888 146.904ZM91.2924 154.452C90.7918 154.452 90.3487 154.351 89.9631 154.151C89.5811 153.951 89.2808 153.671 89.062 153.311C88.847 152.948 88.7394 152.523 88.7394 152.038C88.7394 151.541 88.8599 151.099 89.101 150.714C89.342 150.324 89.7091 150.03 90.2022 149.829L90.1911 150.152C89.7795 150 89.4662 149.752 89.2511 149.407C89.0361 149.062 88.9285 148.68 88.9285 148.261C88.9285 147.816 89.0305 147.434 89.2344 147.115C89.4384 146.793 89.7165 146.544 90.0688 146.37C90.4247 146.196 90.8326 146.108 91.2924 146.108C91.7522 146.108 92.1601 146.196 92.5161 146.37C92.872 146.544 93.152 146.793 93.3559 147.115C93.5599 147.434 93.6618 147.816 93.6618 148.261C93.6618 148.68 93.558 149.06 93.3504 149.401C93.1464 149.742 92.8331 149.993 92.4104 150.152L92.3826 149.829C92.8757 150.026 93.2447 150.319 93.4894 150.708C93.7379 151.098 93.8621 151.541 93.8621 152.038C93.8621 152.523 93.7527 152.948 93.5339 153.311C93.3151 153.671 93.0129 153.951 92.6273 154.151C92.2417 154.351 91.7967 154.452 91.2924 154.452ZM91.2924 153.667C91.7967 153.667 92.2064 153.528 92.5216 153.25C92.8368 152.968 92.9944 152.564 92.9944 152.038C92.9944 151.504 92.8387 151.099 92.5272 150.825C92.2157 150.547 91.8041 150.408 91.2924 150.408C90.7807 150.408 90.371 150.547 90.0632 150.825C89.7554 151.099 89.6015 151.504 89.6015 152.038C89.6015 152.564 89.7573 152.968 90.0688 153.25C90.3802 153.528 90.7881 153.667 91.2924 153.667ZM91.2924 149.618C91.7374 149.618 92.0989 149.505 92.377 149.279C92.6551 149.049 92.7942 148.71 92.7942 148.261C92.7942 147.812 92.6551 147.477 92.377 147.254C92.0989 147.028 91.7374 146.915 91.2924 146.915C90.8474 146.915 90.4859 147.028 90.2078 147.254C89.9334 147.477 89.7962 147.812 89.7962 148.261C89.7962 148.71 89.9334 149.049 90.2078 149.279C90.4859 149.505 90.8474 149.618 91.2924 149.618ZM95.7318 154.285L98.6797 147.071H94.9698V146.275H99.5529V147.071L96.6106 154.285H95.7318Z" fill="white"/>
</g>
<path opacity="0.8" d="M155.612 152.822V150.63H153.421V149.93H155.612V147.738H156.313V149.93H158.499V150.63H156.313V152.822H155.612ZM161.338 154.285V147.187L159.83 148.094V147.176L161.338 146.275H162.166V154.285H161.338ZM166.89 154.452C166.397 154.452 165.952 154.337 165.555 154.107C165.162 153.877 164.851 153.565 164.621 153.172C164.391 152.775 164.276 152.331 164.276 151.837V148.723C164.276 148.229 164.391 147.786 164.621 147.393C164.851 146.997 165.162 146.683 165.555 146.453C165.952 146.223 166.397 146.108 166.89 146.108C167.383 146.108 167.827 146.223 168.22 146.453C168.616 146.683 168.93 146.997 169.16 147.393C169.39 147.786 169.504 148.229 169.504 148.723V151.837C169.504 152.331 169.39 152.775 169.16 153.172C168.93 153.565 168.616 153.877 168.22 154.107C167.827 154.337 167.383 154.452 166.89 154.452ZM166.89 153.662C167.22 153.662 167.521 153.582 167.791 153.423C168.062 153.259 168.277 153.042 168.437 152.772C168.596 152.501 168.676 152.203 168.676 151.876V148.684C168.676 148.354 168.596 148.053 168.437 147.783C168.277 147.512 168.062 147.297 167.791 147.137C167.521 146.974 167.22 146.893 166.89 146.893C166.56 146.893 166.26 146.974 165.989 147.137C165.719 147.297 165.504 147.512 165.344 147.783C165.185 148.053 165.105 148.354 165.105 148.684V151.876C165.105 152.203 165.185 152.501 165.344 152.772C165.504 153.042 165.719 153.259 165.989 153.423C166.26 153.582 166.56 153.662 166.89 153.662ZM171.844 154.285L171.288 153.728L178.758 146.275L179.314 146.826L171.844 154.285ZM177.646 154.452C177.279 154.452 176.943 154.363 176.639 154.185C176.339 154.003 176.098 153.762 175.916 153.461C175.734 153.157 175.643 152.82 175.643 152.449C175.643 152.086 175.736 151.752 175.921 151.448C176.107 151.144 176.352 150.901 176.656 150.719C176.96 150.538 177.29 150.447 177.646 150.447C178.013 150.447 178.348 150.538 178.652 150.719C178.956 150.897 179.197 151.138 179.375 151.442C179.557 151.743 179.648 152.078 179.648 152.449C179.648 152.82 179.557 153.157 179.375 153.461C179.197 153.762 178.956 154.003 178.652 154.185C178.348 154.363 178.013 154.452 177.646 154.452ZM177.646 153.712C177.872 153.712 178.081 153.654 178.274 153.539C178.467 153.424 178.621 153.272 178.736 153.083C178.851 152.89 178.908 152.679 178.908 152.449C178.908 152.219 178.851 152.01 178.736 151.821C178.621 151.628 178.467 151.474 178.274 151.359C178.081 151.244 177.872 151.187 177.646 151.187C177.416 151.187 177.204 151.244 177.012 151.359C176.822 151.474 176.669 151.628 176.55 151.821C176.435 152.01 176.378 152.219 176.378 152.449C176.378 152.679 176.435 152.89 176.55 153.083C176.669 153.272 176.822 153.424 177.012 153.539C177.204 153.654 177.416 153.712 177.646 153.712ZM172.957 150.113C172.59 150.113 172.254 150.024 171.95 149.846C171.646 149.664 171.403 149.423 171.221 149.123C171.044 148.819 170.955 148.482 170.955 148.111C170.955 147.747 171.047 147.414 171.233 147.11C171.418 146.806 171.663 146.563 171.967 146.381C172.271 146.199 172.601 146.108 172.957 146.108C173.324 146.108 173.658 146.199 173.958 146.381C174.262 146.559 174.505 146.8 174.687 147.104C174.868 147.404 174.959 147.74 174.959 148.111C174.959 148.482 174.868 148.819 174.687 149.123C174.505 149.423 174.262 149.664 173.958 149.846C173.658 150.024 173.324 150.113 172.957 150.113ZM172.957 149.373C173.187 149.373 173.396 149.316 173.585 149.201C173.778 149.086 173.932 148.934 174.047 148.745C174.162 148.552 174.219 148.341 174.219 148.111C174.219 147.881 174.162 147.671 174.047 147.482C173.932 147.289 173.778 147.136 173.585 147.021C173.396 146.906 173.187 146.848 172.957 146.848C172.727 146.848 172.516 146.906 172.323 147.021C172.134 147.136 171.982 147.289 171.867 147.482C171.752 147.671 171.694 147.881 171.694 148.111C171.694 148.341 171.752 148.552 171.867 148.745C171.982 148.934 172.134 149.086 172.323 149.201C172.516 149.316 172.727 149.373 172.957 149.373Z" fill="white"/>
<g opacity="0.8">
<path d="M143.939 151.945H146.002C147.284 151.945 147.806 151.038 147.168 149.929L146.883 149.435C146.813 149.315 146.686 149.242 146.546 149.242H143.395C143.256 149.242 143.128 149.315 143.059 149.435L142.773 149.929C142.135 151.038 142.657 151.945 143.939 151.945Z" fill="white"/>
<path d="M143.731 148.856H146.214C146.365 148.856 146.458 148.693 146.38 148.566L146.133 148.141C145.496 147.032 144.445 147.032 143.808 148.141L143.561 148.566C143.487 148.693 143.58 148.856 143.731 148.856Z" fill="white"/>
</g>
<path d="M282.089 92.4427C281.375 92.4427 280.743 92.2956 280.194 92.0015C279.649 91.7073 279.22 91.292 278.909 90.7556C278.597 90.2191 278.442 89.5919 278.442 88.8737V82.9103L279.402 82.9038V88.7504C279.402 89.235 279.484 89.6546 279.649 90.0093C279.813 90.3597 280.027 90.6496 280.291 90.8789C280.559 91.1038 280.851 91.2704 281.167 91.3785C281.483 91.4867 281.79 91.5407 282.089 91.5407C282.391 91.5407 282.701 91.4867 283.016 91.3785C283.332 91.2704 283.622 91.1038 283.886 90.8789C284.15 90.6496 284.364 90.3597 284.528 90.0093C284.693 89.6546 284.775 89.235 284.775 88.7504V82.9038H285.735V88.8737C285.735 89.5919 285.58 90.2191 285.268 90.7556C284.957 91.2877 284.526 91.703 283.977 92.0015C283.432 92.2956 282.802 92.4427 282.089 92.4427ZM290.406 92.4427C289.753 92.4427 289.164 92.3346 288.641 92.1183C288.122 91.8976 287.691 91.5862 287.35 91.1838C287.012 90.7815 286.791 90.3035 286.688 89.7498L287.661 89.5875C287.817 90.1932 288.146 90.669 288.647 91.0151C289.149 91.3569 289.748 91.5278 290.445 91.5278C290.903 91.5278 291.314 91.4564 291.678 91.3136C292.041 91.1665 292.327 90.9589 292.534 90.6907C292.742 90.4225 292.846 90.1045 292.846 89.7368C292.846 89.4945 292.802 89.289 292.716 89.1203C292.629 88.9473 292.515 88.8045 292.372 88.692C292.229 88.5796 292.074 88.4866 291.905 88.413C291.736 88.3351 291.572 88.2724 291.412 88.2248L289.043 87.5175C288.758 87.4353 288.494 87.3315 288.251 87.2061C288.009 87.0763 287.797 86.9227 287.616 86.7453C287.438 86.5636 287.3 86.3517 287.2 86.1094C287.101 85.8671 287.051 85.5903 287.051 85.2788C287.051 84.751 287.189 84.2946 287.466 83.9096C287.743 83.5246 288.122 83.2283 288.602 83.0206C289.082 82.813 289.629 82.7113 290.244 82.7156C290.867 82.7156 291.422 82.8259 291.911 83.0466C292.404 83.2672 292.811 83.583 293.131 83.994C293.451 84.4006 293.663 84.883 293.767 85.441L292.768 85.6227C292.703 85.2161 292.554 84.8635 292.32 84.565C292.087 84.2665 291.788 84.0372 291.425 83.8772C291.066 83.7128 290.67 83.6284 290.237 83.6241C289.818 83.6241 289.443 83.6955 289.115 83.8382C288.79 83.9767 288.533 84.167 288.342 84.4093C288.152 84.6515 288.057 84.9284 288.057 85.2399C288.057 85.5557 288.143 85.8087 288.316 85.9991C288.494 86.1894 288.71 86.3387 288.965 86.4468C289.225 86.555 289.476 86.6437 289.718 86.7129L291.548 87.2515C291.738 87.3034 291.961 87.3791 292.216 87.4786C292.476 87.5738 292.727 87.7122 292.969 87.8939C293.216 88.0713 293.419 88.3049 293.579 88.5947C293.739 88.8846 293.819 89.2523 293.819 89.6978C293.819 90.1305 293.733 90.5176 293.56 90.8594C293.391 91.2011 293.151 91.4888 292.839 91.7224C292.532 91.956 292.171 92.1334 291.756 92.2545C291.345 92.38 290.895 92.4427 290.406 92.4427ZM295.159 92.248V82.9038H297.994C298.094 82.9038 298.263 82.906 298.5 82.9103C298.743 82.9146 298.974 82.9319 299.195 82.9622C299.904 83.0617 300.497 83.3256 300.973 83.7539C301.449 84.1822 301.806 84.7272 302.043 85.3891C302.281 86.051 302.4 86.7799 302.4 87.5759C302.4 88.3719 302.281 89.1009 302.043 89.7627C301.806 90.4246 301.449 90.9697 300.973 91.398C300.497 91.8263 299.904 92.0901 299.195 92.1896C298.978 92.2156 298.747 92.2329 298.5 92.2416C298.254 92.2459 298.085 92.248 297.994 92.248H295.159ZM296.145 91.3331H297.994C298.172 91.3331 298.362 91.3288 298.565 91.3201C298.773 91.3071 298.95 91.2855 299.097 91.2552C299.643 91.16 300.082 90.9394 300.415 90.5933C300.752 90.2473 300.999 89.8147 301.154 89.2955C301.31 88.7721 301.388 88.1989 301.388 87.5759C301.388 86.9487 301.31 86.3733 301.154 85.8498C300.999 85.3264 300.752 84.8938 300.415 84.552C300.077 84.2103 299.638 83.9918 299.097 83.8966C298.95 83.8664 298.771 83.8469 298.559 83.8382C298.351 83.8253 298.163 83.8188 297.994 83.8188H296.145V91.3331Z" fill="white"/>
<path d="M321.677 85.8687L318.151 89.3944C317.735 89.8108 317.053 89.8108 316.637 89.3944L313.111 85.8687" stroke="white" stroke-width="1.39051" stroke-miterlimit="10" stroke-linecap="round" stroke-linejoin="round"/>
<g filter="url(#filter1_d_5303_39288)">
<rect x="43" y="204.252" width="145.938" height="44.4963" rx="14.8321" fill="white" shape-rendering="crispEdges"/>
<path d="M94.0806 230.363V231.908C94.0806 232.318 94.2433 232.711 94.5331 233.001C94.8228 233.291 95.2158 233.453 95.6256 233.453H104.896C105.305 233.453 105.698 233.291 105.988 233.001C106.278 232.711 106.441 232.318 106.441 231.908V230.363" stroke="#10192D" stroke-width="1.85401" stroke-linecap="round" stroke-linejoin="round"/>
<path d="M96.3979 225.728L100.26 229.591L104.123 225.728" stroke="#10192D" stroke-width="1.85401" stroke-linecap="round" stroke-linejoin="round"/>
<path d="M100.26 220.32V229.59" stroke="#10192D" stroke-width="1.85401" stroke-linecap="round" stroke-linejoin="round"/>
<path d="M117.856 231.5V222.156H121.561C122.193 222.156 122.71 222.283 123.112 222.539C123.519 222.79 123.819 223.112 124.014 223.505C124.213 223.899 124.312 224.306 124.312 224.725C124.312 225.24 124.189 225.677 123.942 226.036C123.7 226.395 123.369 226.638 122.95 226.763V226.439C123.538 226.573 123.984 226.852 124.286 227.276C124.594 227.7 124.747 228.182 124.747 228.723C124.747 229.276 124.641 229.761 124.429 230.176C124.217 230.592 123.901 230.916 123.482 231.15C123.066 231.383 122.552 231.5 121.937 231.5H117.856ZM119.439 230.027H121.743C122.015 230.027 122.26 229.973 122.476 229.865C122.692 229.752 122.861 229.597 122.982 229.398C123.108 229.194 123.17 228.954 123.17 228.677C123.17 228.426 123.116 228.201 123.008 228.002C122.9 227.803 122.742 227.646 122.534 227.529C122.327 227.408 122.078 227.347 121.788 227.347H119.439V230.027ZM119.439 225.887H121.542C121.766 225.887 121.968 225.844 122.145 225.757C122.322 225.671 122.463 225.543 122.567 225.374C122.671 225.206 122.723 224.998 122.723 224.751C122.723 224.427 122.619 224.157 122.411 223.94C122.203 223.724 121.914 223.616 121.542 223.616H119.439V225.887ZM128.671 231.701C128.152 231.701 127.724 231.615 127.386 231.442C127.049 231.269 126.781 231.048 126.582 230.78C126.383 230.512 126.236 230.226 126.14 229.923C126.045 229.62 125.983 229.335 125.952 229.067C125.926 228.794 125.913 228.573 125.913 228.405V224.492H127.497V227.866C127.497 228.082 127.512 228.327 127.542 228.599C127.572 228.868 127.642 229.127 127.75 229.378C127.862 229.625 128.027 229.828 128.243 229.988C128.464 230.148 128.76 230.228 129.132 230.228C129.331 230.228 129.528 230.196 129.722 230.131C129.917 230.066 130.092 229.956 130.248 229.8C130.408 229.64 130.536 229.421 130.631 229.144C130.726 228.868 130.774 228.517 130.774 228.093L131.702 228.489C131.702 229.086 131.585 229.627 131.351 230.111C131.122 230.596 130.782 230.983 130.332 231.273C129.882 231.558 129.329 231.701 128.671 231.701ZM130.962 231.5V229.326H130.774V224.492H132.344V231.5H130.962ZM135.089 234.615L136.438 230.909L136.464 232L133.408 224.492H135.037L137.204 230.046H136.789L138.898 224.492H140.461L136.555 234.615H135.089Z" fill="#10192D"/>
</g>
<g filter="url(#filter2_d_5303_39288)">
<rect x="200.062" y="204.252" width="145.938" height="44.4963" rx="14.8321" fill="white" shape-rendering="crispEdges"/>
<path d="M251.143 222.637V221.092C251.143 220.682 251.305 220.289 251.595 220C251.885 219.71 252.278 219.547 252.688 219.547H261.958C262.367 219.547 262.76 219.71 263.05 220C263.34 220.289 263.503 220.682 263.503 221.092V222.637" stroke="#10192D" stroke-width="1.85401" stroke-linecap="round" stroke-linejoin="round"/>
<path d="M253.46 227.272L257.322 223.409L261.185 227.272" stroke="#10192D" stroke-width="1.85401" stroke-linecap="round" stroke-linejoin="round"/>
<path d="M257.323 232.68V223.41" stroke="#10192D" stroke-width="1.85401" stroke-linecap="round" stroke-linejoin="round"/>
<path d="M278.376 231.695C277.693 231.695 277.076 231.576 276.527 231.338C275.982 231.1 275.532 230.76 275.177 230.319C274.827 229.873 274.604 229.346 274.509 228.736L276.131 228.489C276.27 229.043 276.553 229.471 276.981 229.774C277.414 230.077 277.911 230.228 278.474 230.228C278.807 230.228 279.12 230.176 279.415 230.072C279.709 229.969 279.947 229.817 280.128 229.618C280.314 229.419 280.407 229.175 280.407 228.885C280.407 228.755 280.386 228.636 280.343 228.528C280.299 228.416 280.234 228.316 280.148 228.23C280.066 228.143 279.958 228.065 279.823 227.996C279.694 227.922 279.542 227.86 279.369 227.808L276.955 227.094C276.748 227.033 276.523 226.953 276.28 226.854C276.043 226.75 275.815 226.609 275.599 226.432C275.387 226.25 275.212 226.021 275.073 225.744C274.939 225.463 274.872 225.117 274.872 224.706C274.872 224.105 275.024 223.601 275.327 223.194C275.634 222.783 276.045 222.476 276.559 222.273C277.079 222.069 277.654 221.97 278.286 221.974C278.926 221.978 279.497 222.089 279.999 222.305C280.5 222.517 280.92 222.826 281.258 223.233C281.595 223.64 281.833 224.131 281.971 224.706L280.291 224.998C280.221 224.669 280.087 224.39 279.888 224.161C279.694 223.927 279.454 223.75 279.168 223.629C278.887 223.508 278.586 223.443 278.266 223.434C277.955 223.43 277.665 223.477 277.397 223.577C277.133 223.672 276.919 223.81 276.754 223.992C276.594 224.174 276.514 224.386 276.514 224.628C276.514 224.857 276.583 225.046 276.722 225.193C276.86 225.335 277.031 225.45 277.234 225.537C277.442 225.619 277.652 225.688 277.864 225.744L279.538 226.211C279.767 226.272 280.025 226.354 280.31 226.458C280.596 226.562 280.87 226.707 281.134 226.893C281.398 227.079 281.614 227.323 281.783 227.626C281.956 227.929 282.043 228.314 282.043 228.781C282.043 229.266 281.941 229.692 281.738 230.059C281.539 230.423 281.268 230.726 280.927 230.968C280.585 231.21 280.193 231.392 279.752 231.513C279.315 231.634 278.857 231.695 278.376 231.695ZM286.633 231.695C285.924 231.695 285.301 231.541 284.765 231.234C284.228 230.927 283.809 230.501 283.506 229.956C283.207 229.411 283.058 228.783 283.058 228.074C283.058 227.308 283.205 226.644 283.499 226.082C283.793 225.515 284.202 225.076 284.726 224.764C285.249 224.453 285.855 224.297 286.543 224.297C287.269 224.297 287.886 224.468 288.392 224.81C288.902 225.147 289.281 225.625 289.528 226.244C289.774 226.862 289.867 227.591 289.807 228.431H288.256V227.86C288.251 227.098 288.117 226.542 287.853 226.192C287.589 225.842 287.174 225.666 286.607 225.666C285.967 225.666 285.491 225.865 285.18 226.263C284.868 226.657 284.713 227.235 284.713 227.996C284.713 228.705 284.868 229.255 285.18 229.644C285.491 230.033 285.946 230.228 286.543 230.228C286.928 230.228 287.259 230.144 287.535 229.975C287.817 229.802 288.033 229.553 288.184 229.229L289.729 229.696C289.46 230.328 289.045 230.819 288.483 231.169C287.925 231.519 287.308 231.695 286.633 231.695ZM284.219 228.431V227.25H289.041V228.431H284.219ZM291.384 231.5V221.961H292.948V231.5H291.384ZM295.022 231.5V221.961H296.585V231.5H295.022Z" fill="#10192D"/>
</g>
<g clip-path="url(#clip1_5303_39288)">
<g filter="url(#filter3_d_5303_39288)">
<rect x="358" y="33" width="192.818" height="155.737" rx="18.5401" fill="#1B2537"/>
<rect x="358.25" y="33.25" width="192.318" height="155.237" rx="18.2901" stroke="url(#paint1_linear_5303_39288)" stroke-width="0.5"/>
</g>
<mask id="mask0_5303_39288" style="mask-type:alpha" maskUnits="userSpaceOnUse" x="358" y="33" width="193" height="156">
<rect x="358" y="33" width="192.818" height="155.737" rx="18.5401" fill="#F5F9FF"/>
</mask>
<g mask="url(#mask0_5303_39288)">
<g opacity="0.1" clip-path="url(#clip2_5303_39288)">
<path d="M538.793 75.1697L536.991 77.9382L510.642 166.025L511.269 167.184L559.387 155.245L538.793 75.1697Z" fill="#7A899F" fill-opacity="0.4"/>
<path d="M538.791 75.1697L477.608 130.784L511.268 167.184L524.056 124.429L538.791 75.1697Z" fill="#7A899F" fill-opacity="0.4"/>
<path d="M508.957 174.913L508.27 175.376L498.884 206.754L498.948 208.375L557.096 162.994L508.957 174.913Z" fill="#7A899F" fill-opacity="0.4"/>
<path d="M498.946 208.375L508.956 174.912L475.292 138.525L498.946 208.375Z" fill="#7A899F" fill-opacity="0.4"/>
<path d="M511.265 167.199L559.383 155.26L524.054 124.444L511.265 167.199Z" fill="#64748B" fill-opacity="0.4"/>
<path d="M477.603 130.798L511.263 167.198L524.052 124.443L477.603 130.798Z" fill="#64748B" fill-opacity="0.4"/>
</g>
<path d="M508.253 161.34V159.148H506.061V158.448H508.253V156.256H508.954V158.448H511.14V159.148H508.954V161.34H508.253ZM513.978 162.803V155.706L512.471 156.612V155.694L513.978 154.793H514.807V162.803H513.978ZM519.531 162.97C519.038 162.97 518.593 162.855 518.196 162.625C517.803 162.395 517.491 162.083 517.261 161.69C517.032 161.294 516.917 160.849 516.917 160.355V157.241C516.917 156.748 517.032 156.304 517.261 155.911C517.491 155.515 517.803 155.201 518.196 154.971C518.593 154.741 519.038 154.627 519.531 154.627C520.024 154.627 520.467 154.741 520.86 154.971C521.257 155.201 521.57 155.515 521.8 155.911C522.03 156.304 522.145 156.748 522.145 157.241V160.355C522.145 160.849 522.03 161.294 521.8 161.69C521.57 162.083 521.257 162.395 520.86 162.625C520.467 162.855 520.024 162.97 519.531 162.97ZM519.531 162.18C519.861 162.18 520.161 162.1 520.432 161.941C520.702 161.777 520.918 161.561 521.077 161.29C521.236 161.019 521.316 160.721 521.316 160.394V157.202C521.316 156.872 521.236 156.571 521.077 156.301C520.918 156.03 520.702 155.815 520.432 155.656C520.161 155.492 519.861 155.411 519.531 155.411C519.201 155.411 518.9 155.492 518.63 155.656C518.359 155.815 518.144 156.03 517.985 156.301C517.825 156.571 517.745 156.872 517.745 157.202V160.394C517.745 160.721 517.825 161.019 517.985 161.29C518.144 161.561 518.359 161.777 518.63 161.941C518.9 162.1 519.201 162.18 519.531 162.18ZM524.485 162.803L523.929 162.247L531.399 154.793L531.955 155.344L524.485 162.803ZM530.286 162.97C529.919 162.97 529.583 162.881 529.279 162.703C528.979 162.521 528.738 162.28 528.556 161.98C528.375 161.675 528.284 161.338 528.284 160.967C528.284 160.604 528.376 160.27 528.562 159.966C528.747 159.662 528.992 159.419 529.296 159.237C529.6 159.056 529.93 158.965 530.286 158.965C530.653 158.965 530.989 159.056 531.293 159.237C531.597 159.415 531.838 159.656 532.016 159.961C532.198 160.261 532.288 160.596 532.288 160.967C532.288 161.338 532.198 161.675 532.016 161.98C531.838 162.28 531.597 162.521 531.293 162.703C530.989 162.881 530.653 162.97 530.286 162.97ZM530.286 162.23C530.512 162.23 530.722 162.172 530.915 162.057C531.107 161.942 531.261 161.79 531.376 161.601C531.491 161.409 531.549 161.197 531.549 160.967C531.549 160.737 531.491 160.528 531.376 160.339C531.261 160.146 531.107 159.992 530.915 159.877C530.722 159.762 530.512 159.705 530.286 159.705C530.056 159.705 529.845 159.762 529.652 159.877C529.463 159.992 529.309 160.146 529.19 160.339C529.075 160.528 529.018 160.737 529.018 160.967C529.018 161.197 529.075 161.409 529.19 161.601C529.309 161.79 529.463 161.942 529.652 162.057C529.845 162.172 530.056 162.23 530.286 162.23ZM525.597 158.631C525.23 158.631 524.895 158.542 524.591 158.364C524.287 158.183 524.044 157.942 523.862 157.641C523.684 157.337 523.595 157 523.595 156.629C523.595 156.265 523.688 155.932 523.873 155.628C524.058 155.324 524.303 155.081 524.607 154.899C524.911 154.717 525.241 154.627 525.597 154.627C525.964 154.627 526.298 154.717 526.598 154.899C526.903 155.077 527.145 155.318 527.327 155.622C527.509 155.922 527.6 156.258 527.6 156.629C527.6 157 527.509 157.337 527.327 157.641C527.145 157.942 526.903 158.183 526.598 158.364C526.298 158.542 525.964 158.631 525.597 158.631ZM525.597 157.891C525.827 157.891 526.037 157.834 526.226 157.719C526.419 157.604 526.573 157.452 526.687 157.263C526.802 157.07 526.86 156.859 526.86 156.629C526.86 156.399 526.802 156.189 526.687 156C526.573 155.808 526.419 155.654 526.226 155.539C526.037 155.424 525.827 155.366 525.597 155.366C525.367 155.366 525.156 155.424 524.963 155.539C524.774 155.654 524.622 155.808 524.507 156C524.392 156.189 524.335 156.399 524.335 156.629C524.335 156.859 524.392 157.07 524.507 157.263C524.622 157.452 524.774 157.604 524.963 157.719C525.156 157.834 525.367 157.891 525.597 157.891Z" fill="#22C36B"/>
<path d="M496.02 160.464H498.082C499.365 160.464 499.886 159.556 499.249 158.447L498.963 157.953C498.894 157.833 498.766 157.76 498.627 157.76H495.475C495.336 157.76 495.209 157.833 495.139 157.953L494.853 158.447C494.216 159.556 494.737 160.464 496.02 160.464Z" fill="#22C36B"/>
<path d="M495.811 157.373H498.295C498.446 157.373 498.538 157.211 498.461 157.083L498.214 156.659C497.576 155.55 496.526 155.55 495.889 156.659L495.641 157.083C495.568 157.211 495.661 157.373 495.811 157.373Z" fill="#22C36B"/>
<path d="M379.471 139.789C379.074 139.789 378.709 139.719 378.376 139.578C378.042 139.437 377.754 139.237 377.513 138.977C377.272 138.714 377.096 138.401 376.985 138.037L377.764 137.804C377.897 138.2 378.116 138.501 378.42 138.705C378.728 138.909 379.074 139.007 379.46 138.999C379.816 138.992 380.122 138.912 380.378 138.76C380.637 138.608 380.836 138.397 380.973 138.126C381.11 137.855 381.179 137.542 381.179 137.186C381.179 136.641 381.019 136.204 380.7 135.874C380.385 135.54 379.968 135.373 379.449 135.373C379.304 135.373 379.152 135.393 378.993 135.434C378.833 135.471 378.685 135.525 378.548 135.595L378.136 134.945L381.251 132.069L381.385 132.403H377.302V131.619H381.93V132.414L379.215 135.006L379.204 134.683C379.76 134.613 380.25 134.676 380.673 134.872C381.095 135.069 381.425 135.369 381.663 135.773C381.904 136.174 382.024 136.645 382.024 137.186C382.024 137.698 381.913 138.15 381.69 138.543C381.472 138.933 381.17 139.239 380.784 139.461C380.398 139.68 379.961 139.789 379.471 139.789ZM385.694 139.628V131.619H390.7V132.403H386.512V135.173H390.033V135.957H386.512V138.844H390.7V139.628H385.694ZM394.169 139.628V132.403H391.371V131.619H397.784V132.403H394.986V139.628H394.169ZM398.676 139.628V131.619H399.494V135.228H403.921V131.619H404.733V139.628H403.921V136.013H399.494V139.628H398.676Z" fill="#8E9BAE"/>
<rect x="376.427" y="143.305" width="73.8896" height="10" rx="5" fill="#64748B"/>
<path d="M429.491 79.6641V68.9849H436.314V70.4459H431.041V73.442H435.424V74.903H431.041V78.2031H436.314V79.6641H429.491ZM440.757 79.6641V70.4459H437.205V68.9849H445.859V70.4459H442.307V79.6641H440.757ZM447.046 79.6641V68.9849H448.596V73.5903H453.936V68.9849H455.493V79.6641H453.936V75.0513H448.596V79.6641H447.046Z" fill="white"/>
<path d="M461.854 68.9849H462.974L460.126 79.6641H459.007L461.854 68.9849ZM469.073 79.8865C468.257 79.8865 467.536 79.7184 466.908 79.3823C466.285 79.0461 465.795 78.5714 465.439 77.9584C465.083 77.3453 464.905 76.6284 464.905 75.8077V68.9924L466.003 68.9849V75.6668C466.003 76.2205 466.097 76.7001 466.285 77.1055C466.473 77.506 466.717 77.8372 467.019 78.0993C467.325 78.3564 467.659 78.5467 468.02 78.6703C468.381 78.7939 468.732 78.8557 469.073 78.8557C469.419 78.8557 469.773 78.7939 470.134 78.6703C470.495 78.5467 470.826 78.3564 471.127 78.0993C471.429 77.8372 471.674 77.506 471.862 77.1055C472.049 76.7001 472.143 76.2205 472.143 75.6668V68.9849H473.241V75.8077C473.241 76.6284 473.063 77.3453 472.707 77.9584C472.351 78.5665 471.859 79.0411 471.231 79.3823C470.608 79.7184 469.889 79.8865 469.073 79.8865ZM478.579 79.8865C477.832 79.8865 477.16 79.7629 476.561 79.5157C475.968 79.2636 475.476 78.9076 475.086 78.4478C474.7 77.988 474.448 77.4417 474.329 76.8089L475.442 76.6235C475.62 77.3156 475.995 77.8595 476.569 78.255C477.142 78.6456 477.827 78.8409 478.623 78.8409C479.147 78.8409 479.617 78.7593 480.032 78.5962C480.447 78.4281 480.774 78.1907 481.011 77.8842C481.248 77.5777 481.367 77.2143 481.367 76.794C481.367 76.5172 481.318 76.2823 481.219 76.0895C481.12 75.8918 480.989 75.7286 480.826 75.6001C480.663 75.4715 480.485 75.3652 480.292 75.2812C480.099 75.1922 479.911 75.1205 479.728 75.0661L477.021 74.2578C476.695 74.1638 476.393 74.0452 476.117 73.9018C475.84 73.7535 475.597 73.578 475.39 73.3752C475.187 73.1676 475.029 72.9253 474.915 72.6485C474.801 72.3716 474.745 72.0552 474.745 71.6992C474.745 71.096 474.903 70.5744 475.219 70.1344C475.536 69.6944 475.968 69.3557 476.517 69.1184C477.066 68.8811 477.691 68.7649 478.393 68.7699C479.105 68.7699 479.74 68.8959 480.299 69.1481C480.863 69.4002 481.328 69.7612 481.693 70.2308C482.059 70.6956 482.302 71.2468 482.42 71.8846L481.278 72.0923C481.204 71.6275 481.033 71.2246 480.766 70.8834C480.499 70.5423 480.158 70.2803 479.743 70.0973C479.333 69.9095 478.88 69.8131 478.386 69.8081C477.906 69.8081 477.479 69.8897 477.103 70.0529C476.732 70.2111 476.438 70.4286 476.22 70.7055C476.003 70.9823 475.894 71.2987 475.894 71.6547C475.894 72.0156 475.993 72.3049 476.191 72.5224C476.393 72.7399 476.641 72.9105 476.932 73.0341C477.229 73.1577 477.516 73.2591 477.793 73.3382L479.884 73.9537C480.101 74.013 480.356 74.0995 480.648 74.2133C480.944 74.322 481.231 74.4802 481.508 74.6879C481.79 74.8906 482.022 75.1576 482.205 75.4888C482.388 75.8201 482.479 76.2403 482.479 76.7496C482.479 77.244 482.381 77.6864 482.183 78.077C481.99 78.4676 481.716 78.7964 481.36 79.0634C481.009 79.3303 480.596 79.533 480.121 79.6715C479.652 79.8149 479.137 79.8865 478.579 79.8865ZM484.01 79.6641V68.9849H487.251C487.365 68.9849 487.558 68.9874 487.83 68.9924C488.106 68.9973 488.371 69.0171 488.623 69.0517C489.434 69.1654 490.111 69.467 490.655 69.9564C491.199 70.4459 491.607 71.0689 491.879 71.8253C492.151 72.5817 492.287 73.4148 492.287 74.3245C492.287 75.2342 492.151 76.0673 491.879 76.8237C491.607 77.5801 491.199 78.2031 490.655 78.6926C490.111 79.182 489.434 79.4836 488.623 79.5973C488.376 79.627 488.111 79.6468 487.83 79.6566C487.548 79.6616 487.355 79.6641 487.251 79.6641H484.01ZM485.138 78.6184H487.251C487.454 78.6184 487.671 78.6135 487.904 78.6036C488.141 78.5887 488.344 78.564 488.512 78.5294C489.135 78.4206 489.637 78.1685 490.017 77.773C490.403 77.3774 490.685 76.883 490.863 76.2898C491.041 75.6915 491.13 75.0364 491.13 74.3245C491.13 73.6076 491.041 72.9501 490.863 72.3518C490.685 71.7536 490.403 71.2592 490.017 70.8686C489.632 70.478 489.13 70.2284 488.512 70.1196C488.344 70.085 488.139 70.0627 487.896 70.0529C487.659 70.038 487.444 70.0306 487.251 70.0306H485.138V78.6184Z" fill="#8E9BAE"/>
<rect x="376.54" y="55.248" width="37.0803" height="37.0803" rx="18.5401" fill="#10192D"/>
<g clip-path="url(#clip3_5303_39288)">
<path d="M395.215 78.8614L388.957 75.165L395.214 83.9855L401.476 75.165L395.212 78.8614H395.215ZM395.31 63.5913L389.051 73.9779L395.309 77.6777L401.567 73.9813L395.31 63.5913Z" fill="white"/>
</g>
</g>
<g filter="url(#filter4_d_5303_39288)">
<mask id="mask1_5303_39288" style="mask-type:alpha" maskUnits="userSpaceOnUse" x="358" y="203" width="193" height="157">
<rect x="358" y="203.569" width="192.818" height="155.737" rx="18.5401" fill="white"/>
</mask>
<g mask="url(#mask1_5303_39288)">
<g filter="url(#filter5_d_5303_39288)">
<rect x="358" y="203.569" width="192.818" height="155.737" rx="18.5401" fill="#1B2537"/>
<rect x="358.25" y="203.819" width="192.318" height="155.237" rx="18.2901" stroke="url(#paint2_linear_5303_39288)" stroke-width="0.5"/>
</g>
<path d="M557.585 297.984C559.388 285.906 550.206 279.413 537.649 275.082L541.722 258.721L531.777 256.239L527.811 272.17C525.197 271.517 522.512 270.901 519.843 270.291L523.837 254.256L513.898 251.774L509.822 268.13C507.658 267.637 505.533 267.149 503.471 266.635L503.483 266.584L489.768 263.154L487.122 273.792C487.122 273.792 494.501 275.485 494.345 275.59C498.373 276.596 499.101 279.266 498.98 281.382L494.34 300.022C494.617 300.092 494.977 300.194 495.374 300.354C495.042 300.271 494.689 300.181 494.323 300.093L487.819 326.205C487.327 327.43 486.077 329.269 483.262 328.571C483.361 328.715 476.033 326.764 476.033 326.764L471.095 338.165L484.038 341.396C486.446 342 488.805 342.633 491.129 343.228L487.013 359.777L496.947 362.259L501.023 345.885C503.737 346.623 506.371 347.304 508.949 347.945L504.887 364.241L514.833 366.723L518.948 350.205C535.907 353.419 548.66 352.123 554.027 336.762C558.352 324.394 553.812 317.26 544.89 312.608C551.388 311.108 556.283 306.827 557.588 297.986L557.585 297.984L557.585 297.984ZM534.861 329.893C531.787 342.261 510.993 335.576 504.252 333.899L509.713 311.975C516.454 313.66 538.073 316.995 534.862 329.893H534.861ZM537.937 297.805C535.133 309.055 517.826 303.34 512.212 301.938L517.163 282.054C522.777 283.455 540.858 286.071 537.938 297.805H537.937Z" fill="#F4F7FA"/>
<path d="M429.491 250.233V239.554H433.688C434.366 239.554 434.934 239.693 435.394 239.97C435.854 240.246 436.2 240.605 436.432 241.045C436.665 241.48 436.781 241.94 436.781 242.424C436.781 243.013 436.635 243.517 436.343 243.937C436.057 244.357 435.668 244.644 435.179 244.797L435.164 244.434C435.846 244.602 436.371 244.931 436.736 245.42C437.102 245.905 437.285 246.471 437.285 247.119C437.285 247.747 437.159 248.293 436.907 248.758C436.66 249.222 436.296 249.586 435.817 249.848C435.342 250.105 434.766 250.233 434.089 250.233H429.491ZM431.063 248.758H433.852C434.203 248.758 434.517 248.691 434.793 248.557C435.075 248.424 435.295 248.234 435.453 247.986C435.617 247.734 435.698 247.435 435.698 247.089C435.698 246.768 435.626 246.478 435.483 246.221C435.345 245.959 435.142 245.754 434.875 245.606C434.613 245.453 434.304 245.376 433.948 245.376H431.063V248.758ZM431.063 243.915H433.666C433.953 243.915 434.21 243.858 434.437 243.744C434.67 243.626 434.853 243.458 434.986 243.24C435.125 243.018 435.194 242.751 435.194 242.439C435.194 242.024 435.055 241.683 434.779 241.416C434.502 241.149 434.131 241.015 433.666 241.015H431.063V243.915ZM441.134 250.233V241.015H437.581V239.554H446.236V241.015H442.684V250.233H441.134ZM451.88 250.456C450.812 250.456 449.902 250.224 449.151 249.759C448.399 249.289 447.823 248.636 447.423 247.801C447.027 246.965 446.829 245.996 446.829 244.894C446.829 243.791 447.027 242.822 447.423 241.987C447.823 241.151 448.399 240.501 449.151 240.036C449.902 239.567 450.812 239.332 451.88 239.332C453.111 239.332 454.129 239.643 454.935 240.266C455.746 240.889 456.31 241.727 456.626 242.78L455.054 243.203C454.846 242.456 454.475 241.871 453.941 241.445C453.412 241.02 452.725 240.808 451.88 240.808C451.123 240.808 450.493 240.978 449.989 241.319C449.484 241.66 449.104 242.138 448.847 242.751C448.594 243.364 448.468 244.078 448.468 244.894C448.463 245.71 448.587 246.424 448.839 247.037C449.096 247.65 449.477 248.127 449.981 248.468C450.49 248.81 451.123 248.98 451.88 248.98C452.725 248.98 453.412 248.767 453.941 248.342C454.475 247.912 454.846 247.326 455.054 246.585L456.626 247.007C456.31 248.06 455.746 248.899 454.935 249.521C454.129 250.144 453.111 250.456 451.88 250.456Z" fill="#10192D"/>
<path d="M462.782 239.554H463.901L461.054 250.233H459.934L462.782 239.554ZM470 250.456C469.185 250.456 468.463 250.288 467.835 249.952C467.212 249.615 466.722 249.141 466.366 248.528C466.011 247.915 465.833 247.198 465.833 246.377V239.562L466.93 239.554V246.236C466.93 246.79 467.024 247.269 467.212 247.675C467.4 248.075 467.645 248.407 467.946 248.669C468.253 248.926 468.586 249.116 468.947 249.24C469.308 249.363 469.659 249.425 470 249.425C470.346 249.425 470.7 249.363 471.061 249.24C471.422 249.116 471.753 248.926 472.055 248.669C472.356 248.407 472.601 248.075 472.789 247.675C472.977 247.269 473.071 246.79 473.071 246.236V239.554H474.168V246.377C474.168 247.198 473.99 247.915 473.634 248.528C473.278 249.136 472.786 249.61 472.158 249.952C471.535 250.288 470.816 250.456 470 250.456ZM479.506 250.456C478.759 250.456 478.087 250.332 477.489 250.085C476.895 249.833 476.404 249.477 476.013 249.017C475.627 248.557 475.375 248.011 475.256 247.378L476.369 247.193C476.547 247.885 476.923 248.429 477.496 248.824C478.07 249.215 478.754 249.41 479.55 249.41C480.074 249.41 480.544 249.329 480.959 249.165C481.375 248.997 481.701 248.76 481.938 248.454C482.176 248.147 482.294 247.784 482.294 247.363C482.294 247.087 482.245 246.852 482.146 246.659C482.047 246.461 481.916 246.298 481.753 246.169C481.59 246.041 481.412 245.935 481.219 245.851C481.026 245.762 480.838 245.69 480.655 245.635L477.949 244.827C477.622 244.733 477.321 244.614 477.044 244.471C476.767 244.323 476.525 244.147 476.317 243.945C476.114 243.737 475.956 243.495 475.842 243.218C475.729 242.941 475.672 242.625 475.672 242.269C475.672 241.665 475.83 241.144 476.146 240.704C476.463 240.264 476.895 239.925 477.444 239.688C477.993 239.45 478.618 239.334 479.32 239.339C480.032 239.339 480.668 239.465 481.226 239.717C481.79 239.97 482.255 240.33 482.621 240.8C482.986 241.265 483.229 241.816 483.347 242.454L482.205 242.662C482.131 242.197 481.961 241.794 481.694 241.453C481.427 241.112 481.086 240.85 480.67 240.667C480.26 240.479 479.807 240.382 479.313 240.377C478.834 240.377 478.406 240.459 478.03 240.622C477.659 240.78 477.365 240.998 477.148 241.275C476.93 241.552 476.821 241.868 476.821 242.224C476.821 242.585 476.92 242.874 477.118 243.092C477.321 243.309 477.568 243.48 477.86 243.603C478.156 243.727 478.443 243.828 478.72 243.908L480.811 244.523C481.029 244.582 481.283 244.669 481.575 244.783C481.872 244.891 482.158 245.05 482.435 245.257C482.717 245.46 482.949 245.727 483.132 246.058C483.315 246.389 483.407 246.81 483.407 247.319C483.407 247.813 483.308 248.256 483.11 248.646C482.917 249.037 482.643 249.366 482.287 249.633C481.936 249.9 481.523 250.102 481.048 250.241C480.579 250.384 480.065 250.456 479.506 250.456ZM484.938 250.233V239.554H488.178C488.292 239.554 488.485 239.557 488.757 239.562C489.034 239.567 489.298 239.586 489.55 239.621C490.361 239.735 491.039 240.036 491.582 240.526C492.126 241.015 492.534 241.638 492.806 242.395C493.078 243.151 493.214 243.984 493.214 244.894C493.214 245.804 493.078 246.637 492.806 247.393C492.534 248.149 492.126 248.772 491.582 249.262C491.039 249.751 490.361 250.053 489.55 250.167C489.303 250.196 489.039 250.216 488.757 250.226C488.475 250.231 488.282 250.233 488.178 250.233H484.938ZM486.065 249.188H488.178C488.381 249.188 488.599 249.183 488.831 249.173C489.068 249.158 489.271 249.133 489.439 249.099C490.062 248.99 490.564 248.738 490.945 248.342C491.33 247.947 491.612 247.452 491.79 246.859C491.968 246.261 492.057 245.606 492.057 244.894C492.057 244.177 491.968 243.519 491.79 242.921C491.612 242.323 491.33 241.829 490.945 241.438C490.559 241.047 490.057 240.798 489.439 240.689C489.271 240.654 489.066 240.632 488.824 240.622C488.586 240.607 488.371 240.6 488.178 240.6H486.065V249.188Z" fill="#99A0BB"/>
<rect x="376.54" y="225.817" width="37.0803" height="37.0803" rx="18.5401" fill="#F59E0B"/>
<g clip-path="url(#clip4_5303_39288)">
<path d="M390.105 250.174L389.655 251.853C389.606 252.038 389.716 252.229 389.901 252.279L391.244 252.639C391.333 252.662 391.428 252.65 391.508 252.604C391.588 252.558 391.646 252.482 391.67 252.393L392.12 250.714L392.791 250.894L392.342 252.573C392.292 252.758 392.402 252.949 392.587 252.998L393.931 253.358C394.02 253.382 394.115 253.37 394.194 253.324C394.274 253.277 394.332 253.202 394.356 253.113L394.806 251.434L394.919 251.464C397.595 252.181 399.879 251.306 400.522 248.906C401.063 246.888 400.006 245.423 398.464 244.842L398.496 244.723C399.886 244.747 401.107 244.021 401.544 242.388C402.096 240.33 400.886 238.667 398.529 238.035L398.405 238.002L398.855 236.323C398.879 236.234 398.866 236.139 398.82 236.06C398.774 235.98 398.698 235.921 398.609 235.898L397.266 235.538C397.177 235.514 397.082 235.526 397.002 235.572C396.922 235.619 396.864 235.694 396.84 235.784L396.39 237.462L395.621 237.256L396.071 235.577C396.095 235.488 396.082 235.393 396.036 235.314C395.99 235.234 395.914 235.175 395.825 235.152L394.58 234.818C394.491 234.794 394.396 234.807 394.316 234.853C394.236 234.899 394.178 234.975 394.154 235.064L393.704 236.743L391.017 236.038C390.928 236.015 390.833 236.027 390.753 236.073C390.673 236.119 390.615 236.195 390.591 236.284L390.235 237.613C390.186 237.797 390.293 237.988 390.478 238.038L391.494 238.303C391.759 238.376 391.985 238.551 392.122 238.79C392.259 239.029 392.296 239.312 392.225 239.578L390.243 246.972C390.172 247.239 389.997 247.467 389.758 247.605C389.518 247.744 389.233 247.781 388.966 247.709L387.958 247.455C387.868 247.431 387.774 247.444 387.694 247.49C387.614 247.536 387.556 247.612 387.532 247.701L387.172 249.044C387.122 249.229 387.232 249.42 387.418 249.47L390.105 250.174ZM395.086 239.253L397.394 239.872C398.611 240.198 399.147 241.059 398.854 242.152C398.54 243.322 397.591 243.774 395.842 243.306L394.123 242.845L395.086 239.253ZM393.628 244.694L396.099 245.357C397.626 245.766 398.249 246.768 397.909 248.036C397.566 249.316 396.546 249.758 394.489 249.206L392.557 248.689L393.627 244.696L393.628 244.694Z" fill="white"/>
</g>
</g>
</g>
</g>
</g>
<rect y="0.5" width="588" height="286" rx="15" fill="url(#paint3_linear_5303_39288)"/>
<defs>
<filter id="filter0_d_5303_39288" x="24.4599" y="56" width="340.212" height="177.059" filterUnits="userSpaceOnUse" color-interpolation-filters="sRGB">
<feFlood flood-opacity="0" result="BackgroundImageFix"/>
<feColorMatrix in="SourceAlpha" type="matrix" values="0 0 0 0 0 0 0 0 0 0 0 0 0 0 0 0 0 0 127 0" result="hardAlpha"/>
<feOffset dy="25.0292"/>
<feGaussianBlur stdDeviation="9.27007"/>
<feComposite in2="hardAlpha" operator="out"/>
<feColorMatrix type="matrix" values="0 0 0 0 0 0 0 0 0 0 0 0 0 0 0 0 0 0 0.02 0"/>
<feBlend mode="normal" in2="BackgroundImageFix" result="effect1_dropShadow_5303_39288"/>
<feBlend mode="normal" in="SourceGraphic" in2="effect1_dropShadow_5303_39288" result="shape"/>
</filter>
<filter id="filter1_d_5303_39288" x="19.8248" y="190.347" width="192.288" height="90.8469" filterUnits="userSpaceOnUse" color-interpolation-filters="sRGB">
<feFlood flood-opacity="0" result="BackgroundImageFix"/>
<feColorMatrix in="SourceAlpha" type="matrix" values="0 0 0 0 0 0 0 0 0 0 0 0 0 0 0 0 0 0 127 0" result="hardAlpha"/>
<feOffset dy="9.27007"/>
<feGaussianBlur stdDeviation="11.5876"/>
<feComposite in2="hardAlpha" operator="out"/>
<feColorMatrix type="matrix" values="0 0 0 0 0.104 0 0 0 0 0.146483 0 0 0 0 0.216 0 0 0 0.05 0"/>
<feBlend mode="normal" in2="BackgroundImageFix" result="effect1_dropShadow_5303_39288"/>
<feBlend mode="normal" in="SourceGraphic" in2="effect1_dropShadow_5303_39288" result="shape"/>
</filter>
<filter id="filter2_d_5303_39288" x="176.887" y="190.347" width="192.288" height="90.8469" filterUnits="userSpaceOnUse" color-interpolation-filters="sRGB">
<feFlood flood-opacity="0" result="BackgroundImageFix"/>
<feColorMatrix in="SourceAlpha" type="matrix" values="0 0 0 0 0 0 0 0 0 0 0 0 0 0 0 0 0 0 127 0" result="hardAlpha"/>
<feOffset dy="9.27007"/>
<feGaussianBlur stdDeviation="11.5876"/>
<feComposite in2="hardAlpha" operator="out"/>
<feColorMatrix type="matrix" values="0 0 0 0 0.104 0 0 0 0 0.146483 0 0 0 0 0.216 0 0 0 0.05 0"/>
<feBlend mode="normal" in2="BackgroundImageFix" result="effect1_dropShadow_5303_39288"/>
<feBlend mode="normal" in="SourceGraphic" in2="effect1_dropShadow_5303_39288" result="shape"/>
</filter>
<filter id="filter3_d_5303_39288" x="339.46" y="33" width="229.898" height="199.307" filterUnits="userSpaceOnUse" color-interpolation-filters="sRGB">
<feFlood flood-opacity="0" result="BackgroundImageFix"/>
<feColorMatrix in="SourceAlpha" type="matrix" values="0 0 0 0 0 0 0 0 0 0 0 0 0 0 0 0 0 0 127 0" result="hardAlpha"/>
<feOffset dy="25.0292"/>
<feGaussianBlur stdDeviation="9.27007"/>
<feComposite in2="hardAlpha" operator="out"/>
<feColorMatrix type="matrix" values="0 0 0 0 0 0 0 0 0 0 0 0 0 0 0 0 0 0 0.02 0"/>
<feBlend mode="normal" in2="BackgroundImageFix" result="effect1_dropShadow_5303_39288"/>
<feBlend mode="normal" in="SourceGraphic" in2="effect1_dropShadow_5303_39288" result="shape"/>
</filter>
<filter id="filter4_d_5303_39288" x="339.46" y="203.569" width="229.898" height="199.307" filterUnits="userSpaceOnUse" color-interpolation-filters="sRGB">
<feFlood flood-opacity="0" result="BackgroundImageFix"/>
<feColorMatrix in="SourceAlpha" type="matrix" values="0 0 0 0 0 0 0 0 0 0 0 0 0 0 0 0 0 0 127 0" result="hardAlpha"/>
<feOffset dy="25.0292"/>
<feGaussianBlur stdDeviation="9.27007"/>
<feComposite in2="hardAlpha" operator="out"/>
<feColorMatrix type="matrix" values="0 0 0 0 0 0 0 0 0 0 0 0 0 0 0 0 0 0 0.02 0"/>
<feBlend mode="normal" in2="BackgroundImageFix" result="effect1_dropShadow_5303_39288"/>
<feBlend mode="normal" in="SourceGraphic" in2="effect1_dropShadow_5303_39288" result="shape"/>
</filter>
<filter id="filter5_d_5303_39288" x="339.46" y="203.569" width="229.898" height="199.307" filterUnits="userSpaceOnUse" color-interpolation-filters="sRGB">
<feFlood flood-opacity="0" result="BackgroundImageFix"/>
<feColorMatrix in="SourceAlpha" type="matrix" values="0 0 0 0 0 0 0 0 0 0 0 0 0 0 0 0 0 0 127 0" result="hardAlpha"/>
<feOffset dy="25.0292"/>
<feGaussianBlur stdDeviation="9.27007"/>
<feComposite in2="hardAlpha" operator="out"/>
<feColorMatrix type="matrix" values="0 0 0 0 0 0 0 0 0 0 0 0 0 0 0 0 0 0 0.02 0"/>
<feBlend mode="normal" in2="BackgroundImageFix" result="effect1_dropShadow_5303_39288"/>
<feBlend mode="normal" in="SourceGraphic" in2="effect1_dropShadow_5303_39288" result="shape"/>
</filter>
<linearGradient id="paint0_linear_5303_39288" x1="381.761" y1="122.745" x2="-17.5132" y2="122.745" gradientUnits="userSpaceOnUse">
<stop stop-color="#38BDF8"/>
<stop offset="1" stop-color="#2873FF"/>
</linearGradient>
<linearGradient id="paint1_linear_5303_39288" x1="364.546" y1="33" x2="547.154" y2="188.737" gradientUnits="userSpaceOnUse">
<stop stop-color="#64748B"/>
<stop offset="0.515" stop-color="#64748B" stop-opacity="0"/>
<stop offset="1" stop-color="#64748B" stop-opacity="0.35"/>
</linearGradient>
<linearGradient id="paint2_linear_5303_39288" x1="364.546" y1="203.569" x2="547.154" y2="359.307" gradientUnits="userSpaceOnUse">
<stop stop-color="#64748B"/>
<stop offset="0.515" stop-color="#64748B" stop-opacity="0"/>
<stop offset="1" stop-color="#64748B" stop-opacity="0.35"/>
</linearGradient>
<linearGradient id="paint3_linear_5303_39288" x1="294" y1="0.5" x2="294" y2="286.5" gradientUnits="userSpaceOnUse">
<stop offset="0.651856" stop-color="#10192D" stop-opacity="0"/>
<stop offset="1" stop-color="#10192D"/>
</linearGradient>
<clipPath id="clip0_5303_39288">
<rect width="507.818" height="239" fill="white" transform="translate(43 33)"/>
</clipPath>
<clipPath id="clip1_5303_39288">
<rect width="192.818" height="239" fill="white" transform="translate(358 33)"/>
</clipPath>
<clipPath id="clip2_5303_39288">
<rect width="139.051" height="139.051" fill="white" transform="translate(472.009 55.248) rotate(16.653)"/>
</clipPath>
<clipPath id="clip3_5303_39288">
<rect width="20.3942" height="20.3942" fill="white" transform="translate(385.065 63.5913)"/>
</clipPath>
<clipPath id="clip4_5303_39288">
<rect width="22.2482" height="22.2482" fill="white" transform="translate(387.396 230.734) rotate(15)"/>
</clipPath>
</defs>
</svg>
