<svg width="375" height="117" viewBox="0 0 375 117" fill="none" xmlns="http://www.w3.org/2000/svg">
<g opacity="0.5">
<g filter="url(#filter0_d_1207_41976)">
<rect x="20.3494" y="0.217773" width="334.651" height="68.9706" rx="10" fill="white"/>
</g>
<g clip-path="url(#clip0_1207_41976)">
<path d="M58.3538 52.6419C69.2724 52.6419 78.1237 44.6102 78.1237 34.7027C78.1237 24.7951 69.2724 16.7635 58.3538 16.7635C47.4352 16.7635 38.584 24.7951 38.584 34.7027C38.584 44.6102 47.4352 52.6419 58.3538 52.6419Z" fill="white"/>
<path d="M58.3539 14.5867C53.9692 14.5867 49.683 15.7665 46.0373 17.9769C42.3916 20.1873 39.5501 23.3291 37.8721 27.0049C36.1942 30.6807 35.7552 34.7254 36.6106 38.6276C37.466 42.5298 39.5774 46.1142 42.6778 48.9276C45.7782 51.7409 49.7284 53.6568 54.0289 54.433C58.3293 55.2092 62.7868 54.8108 66.8377 53.2882C70.8886 51.7657 74.351 49.1873 76.7869 45.8792C79.2229 42.5711 80.5231 38.6817 80.5231 34.7031C80.5316 32.069 79.9682 29.4593 78.8652 27.0228C77.7621 24.5863 76.141 22.3708 74.0944 20.5028C72.0477 18.6348 69.6156 17.1509 66.937 16.1358C64.2583 15.1207 61.3856 14.5943 58.4827 14.5867H58.3539ZM58.7296 35.385L56.4214 42.4477H68.7675C68.8493 42.4451 68.9309 42.4571 69.0075 42.4831C69.0841 42.5091 69.1544 42.5486 69.2142 42.5993C69.274 42.6499 69.3223 42.7108 69.3562 42.7784C69.39 42.846 69.4089 42.919 69.4117 42.9932V43.1783L68.3381 46.5392C68.2908 46.6981 68.1853 46.8377 68.039 46.9351C67.8926 47.0324 67.7142 47.0817 67.5329 47.0749H48.638L51.8051 37.2846L48.2623 38.2588L49.0675 36.0182L52.6102 35.044L57.0656 21.3084C57.1146 21.1503 57.2205 21.0117 57.3665 20.9146C57.5124 20.8175 57.6899 20.7675 57.8708 20.7726H62.6482C62.7299 20.77 62.8115 20.782 62.8881 20.808C62.9648 20.8341 63.035 20.8735 63.0948 20.9242C63.1547 20.9749 63.2029 21.0357 63.2368 21.1033C63.2707 21.1709 63.2895 21.2439 63.2923 21.3181V21.5032L59.5348 33.0957L63.0776 32.1216L62.3261 34.4595L58.7296 35.385Z" fill="#345D9D"/>
</g>
<path d="M98.4081 31.4604V20.7784H100.186V29.8644H104.806V31.4604H98.4081ZM106.917 31.4604V22.3744H103.557V20.7784H112.083V22.3744H108.695V31.4604H106.917ZM117.467 31.6424C116.347 31.6424 115.405 31.3951 114.639 30.9004C113.883 30.3964 113.319 29.7244 112.945 28.8844C112.572 28.0444 112.385 27.1204 112.385 26.1124C112.385 25.1044 112.572 24.1851 112.945 23.3544C113.319 22.5144 113.883 21.8471 114.639 21.3524C115.405 20.8578 116.347 20.6104 117.467 20.6104C118.727 20.6104 119.745 20.9184 120.519 21.5344C121.303 22.1504 121.775 22.9718 121.933 23.9984H119.987C119.875 23.4291 119.591 22.9858 119.133 22.6684C118.685 22.3511 118.121 22.1924 117.439 22.1924C116.413 22.1924 115.619 22.5518 115.059 23.2704C114.499 23.9798 114.219 24.9271 114.219 26.1124C114.219 27.2978 114.499 28.2544 115.059 28.9824C115.619 29.7011 116.413 30.0604 117.439 30.0604C118.13 30.0604 118.699 29.8924 119.147 29.5564C119.595 29.2204 119.875 28.7258 119.987 28.0724H121.933C121.765 29.1738 121.294 30.0464 120.519 30.6904C119.745 31.3251 118.727 31.6424 117.467 31.6424Z" fill="#1A2B41"/>
<rect x="97.4141" y="43.3244" width="63.3408" height="7.6634" rx="3.8317" fill="url(#paint0_linear_1207_41976)"/>
<path d="M286.973 31.6144C285.909 31.5024 285.003 31.157 284.257 30.5784C283.519 29.9997 283.085 29.1644 282.955 28.0724H284.747C284.905 28.707 285.237 29.2157 285.741 29.5984C285.825 29.6544 285.918 29.7104 286.021 29.7664C286.123 29.813 286.198 29.8504 286.245 29.8784C286.543 30.0184 286.781 30.1677 286.959 30.3264L287.113 30.2004C287.047 29.9204 287.005 29.687 286.987 29.5004C286.977 29.3044 286.973 29.0897 286.973 28.8564V26.6724C286.198 26.5137 285.549 26.327 285.027 26.1124C284.513 25.8977 284.098 25.5944 283.781 25.2024C283.473 24.801 283.319 24.283 283.319 23.6484C283.319 23.023 283.473 22.4817 283.781 22.0244C284.098 21.567 284.532 21.217 285.083 20.9744C285.633 20.7317 286.263 20.6057 286.973 20.5964V18.9164H287.813V20.6384C288.699 20.8064 289.441 21.161 290.039 21.7024C290.636 22.2344 291 22.9577 291.131 23.8724H289.381C289.278 23.4244 289.068 23.0417 288.751 22.7244C288.704 22.6777 288.587 22.5797 288.401 22.4304L287.827 21.9404L287.673 22.0524C287.766 22.3884 287.813 22.7104 287.813 23.0184V25.2024C288.587 25.3704 289.231 25.571 289.745 25.8044C290.267 26.0284 290.683 26.3504 290.991 26.7704C291.299 27.1904 291.453 27.7317 291.453 28.3944C291.453 29.3557 291.131 30.1257 290.487 30.7044C289.852 31.2737 288.961 31.5817 287.813 31.6284V33.4484H286.973V31.6144ZM287.127 25.1464C287.061 24.9037 287.019 24.7077 287.001 24.5584C286.982 24.3997 286.973 24.2317 286.973 24.0544V22.9204C286.973 22.7617 286.977 22.617 286.987 22.4864C287.005 22.3464 287.047 22.1597 287.113 21.9264L286.959 21.8004C286.707 21.9684 286.483 22.0897 286.287 22.1644C286.091 22.239 285.96 22.2904 285.895 22.3184C285.344 22.5797 285.069 22.9717 285.069 23.4944C285.069 23.7837 285.148 24.0264 285.307 24.2224C285.465 24.409 285.699 24.5677 286.007 24.6984C286.053 24.7264 286.165 24.7824 286.343 24.8664C286.52 24.941 286.73 25.0717 286.973 25.2584L287.127 25.1464ZM287.827 30.3824C287.995 30.2424 288.228 30.121 288.527 30.0184C288.564 29.9997 288.639 29.967 288.751 29.9204C288.872 29.8644 288.975 29.8084 289.059 29.7524C289.479 29.463 289.689 29.0524 289.689 28.5204C289.689 28.2404 289.628 27.9977 289.507 27.7924C289.395 27.587 289.222 27.405 288.989 27.2464C288.933 27.209 288.863 27.1717 288.779 27.1344C288.695 27.0877 288.634 27.055 288.597 27.0364C288.279 26.8964 288.023 26.7517 287.827 26.6024L287.673 26.7144C287.738 26.9757 287.775 27.1904 287.785 27.3584C287.803 27.517 287.813 27.6944 287.813 27.8904V28.9684C287.813 29.1924 287.803 29.393 287.785 29.5704C287.775 29.7477 287.738 29.9717 287.673 30.2424L287.827 30.3824ZM295.547 23.9004C295.547 23.5364 295.594 23.1957 295.687 22.8784L295.519 22.8084C295.304 23.1537 295.066 23.4384 294.805 23.6624C294.478 23.9424 294.114 24.1757 293.713 24.3624C293.312 24.549 292.934 24.6704 292.579 24.7264V23.0744C293.26 22.9344 293.867 22.6497 294.399 22.2204C294.931 21.791 295.332 21.3104 295.603 20.7784H297.325V31.4604H295.547V23.9004ZM303.029 31.6424C301.732 31.6424 300.743 31.185 300.061 30.2704C299.389 29.3557 299.053 28.0817 299.053 26.4484C299.053 24.6284 299.394 23.2004 300.075 22.1644C300.757 21.1284 301.755 20.6104 303.071 20.6104C304.07 20.6104 304.877 20.8857 305.493 21.4364C306.119 21.9777 306.501 22.729 306.641 23.6904H305.017C304.896 23.1864 304.672 22.8037 304.345 22.5424C304.019 22.2717 303.594 22.1364 303.071 22.1364C302.409 22.1364 301.895 22.351 301.531 22.7804C301.177 23.2097 300.939 23.8164 300.817 24.6004C300.733 25.0484 300.635 25.4217 300.523 25.7204L300.705 25.8184C301.275 24.885 302.115 24.4184 303.225 24.4184C303.897 24.4184 304.49 24.563 305.003 24.8524C305.517 25.1417 305.913 25.5524 306.193 26.0844C306.483 26.6164 306.627 27.2324 306.627 27.9324C306.627 28.6417 306.473 29.281 306.165 29.8504C305.867 30.4104 305.442 30.849 304.891 31.1664C304.341 31.4837 303.72 31.6424 303.029 31.6424ZM303.001 30.1024C303.571 30.1024 304.019 29.9017 304.345 29.5004C304.681 29.099 304.849 28.5857 304.849 27.9604C304.849 27.335 304.686 26.831 304.359 26.4484C304.033 26.0657 303.58 25.8744 303.001 25.8744C302.395 25.8744 301.9 26.0704 301.517 26.4624C301.144 26.845 300.957 27.3444 300.957 27.9604C300.957 28.595 301.144 29.113 301.517 29.5144C301.9 29.9064 302.395 30.1024 303.001 30.1024ZM309.191 31.6144C308.902 31.6144 308.655 31.5164 308.449 31.3204C308.244 31.115 308.141 30.8677 308.141 30.5784C308.141 30.2984 308.244 30.0604 308.449 29.8644C308.655 29.6684 308.902 29.5704 309.191 29.5704C309.462 29.5704 309.695 29.673 309.891 29.8784C310.087 30.0744 310.185 30.3077 310.185 30.5784C310.185 30.8584 310.087 31.101 309.891 31.3064C309.695 31.5117 309.462 31.6144 309.191 31.6144ZM315.298 20.5964C316.595 20.5964 317.58 21.0537 318.252 21.9684C318.933 22.883 319.274 24.157 319.274 25.7904C319.274 27.6104 318.933 29.0384 318.252 30.0744C317.571 31.1104 316.572 31.6284 315.256 31.6284C314.257 31.6284 313.445 31.3577 312.82 30.8164C312.204 30.2657 311.826 29.5097 311.686 28.5484H313.31C313.431 29.0524 313.655 29.4397 313.982 29.7104C314.309 29.9717 314.733 30.1024 315.256 30.1024C315.919 30.1024 316.427 29.8877 316.782 29.4584C317.146 29.029 317.389 28.4224 317.51 27.6384C317.594 27.1904 317.692 26.817 317.804 26.5184L317.622 26.4204C317.053 27.3537 316.213 27.8204 315.102 27.8204C314.43 27.8204 313.837 27.6757 313.324 27.3864C312.811 27.097 312.409 26.6864 312.12 26.1544C311.84 25.6224 311.7 25.0064 311.7 24.3064C311.7 23.597 311.849 22.9624 312.148 22.4024C312.456 21.833 312.885 21.3897 313.436 21.0724C313.987 20.755 314.607 20.5964 315.298 20.5964ZM315.326 22.1364C314.757 22.1364 314.304 22.337 313.968 22.7384C313.641 23.1397 313.478 23.653 313.478 24.2784C313.478 24.9037 313.641 25.4077 313.968 25.7904C314.295 26.173 314.747 26.3644 315.326 26.3644C315.933 26.3644 316.423 26.173 316.796 25.7904C317.179 25.3984 317.37 24.8944 317.37 24.2784C317.37 23.6437 317.179 23.1304 316.796 22.7384C316.423 22.337 315.933 22.1364 315.326 22.1364ZM324.545 31.6424C323.789 31.6424 323.117 31.5024 322.529 31.2224C321.95 30.933 321.497 30.5364 321.171 30.0324C320.853 29.519 320.695 28.9404 320.695 28.2964C320.695 27.6897 320.863 27.1484 321.199 26.6724C321.535 26.187 322.025 25.8604 322.669 25.6924V25.5244C322.174 25.3937 321.796 25.1417 321.535 24.7684C321.283 24.3857 321.157 23.961 321.157 23.4944C321.157 22.9344 321.301 22.435 321.591 21.9964C321.88 21.5577 322.281 21.217 322.795 20.9744C323.308 20.7317 323.891 20.6104 324.545 20.6104C325.207 20.6104 325.795 20.7317 326.309 20.9744C326.822 21.217 327.219 21.5577 327.499 21.9964C327.788 22.435 327.933 22.9344 327.933 23.4944C327.933 23.961 327.802 24.3857 327.541 24.7684C327.289 25.151 326.915 25.403 326.421 25.5244V25.6924C327.074 25.8604 327.564 26.1824 327.891 26.6584C328.227 27.1344 328.395 27.6804 328.395 28.2964C328.395 28.9497 328.236 29.5284 327.919 30.0324C327.601 30.5364 327.149 30.933 326.561 31.2224C325.982 31.5024 325.31 31.6424 324.545 31.6424ZM324.545 25.0624C325.077 25.0624 325.487 24.927 325.777 24.6564C326.066 24.3857 326.211 24.0264 326.211 23.5784C326.211 23.1397 326.061 22.7804 325.763 22.5004C325.464 22.2204 325.058 22.0804 324.545 22.0804C324.031 22.0804 323.625 22.2204 323.327 22.5004C323.028 22.7804 322.879 23.1397 322.879 23.5784C322.879 24.0264 323.023 24.3857 323.313 24.6564C323.602 24.927 324.013 25.0624 324.545 25.0624ZM324.545 30.1024C325.17 30.1024 325.669 29.9297 326.043 29.5844C326.425 29.239 326.617 28.777 326.617 28.1984C326.617 27.6384 326.43 27.1857 326.057 26.8404C325.693 26.4857 325.189 26.3084 324.545 26.3084C323.901 26.3084 323.392 26.4857 323.019 26.8404C322.655 27.1857 322.473 27.6384 322.473 28.1984C322.473 28.777 322.664 29.239 323.047 29.5844C323.429 29.9297 323.929 30.1024 324.545 30.1024ZM334.738 23.2564C334.86 23.0324 334.976 22.8457 335.088 22.6964C335.21 22.547 335.392 22.3604 335.634 22.1364L335.522 21.9824C335.242 22.1317 335 22.2344 334.794 22.2904C334.598 22.3464 334.379 22.3744 334.136 22.3744H329.642V20.7784H337.034V22.3184L332.498 31.4604H330.566L334.738 23.2564Z" fill="#1A2B41"/>
<rect x="275.824" y="43.3244" width="63.3408" height="7.6634" rx="3.8317" fill="url(#paint1_linear_1207_41976)"/>
</g>
<defs>
<filter id="filter0_d_1207_41976" x="0.349365" y="0.217773" width="374.651" height="115.971" filterUnits="userSpaceOnUse" color-interpolation-filters="sRGB">
<feFlood flood-opacity="0" result="BackgroundImageFix"/>
<feColorMatrix in="SourceAlpha" type="matrix" values="0 0 0 0 0 0 0 0 0 0 0 0 0 0 0 0 0 0 127 0" result="hardAlpha"/>
<feOffset dy="27"/>
<feGaussianBlur stdDeviation="10"/>
<feComposite in2="hardAlpha" operator="out"/>
<feColorMatrix type="matrix" values="0 0 0 0 0 0 0 0 0 0 0 0 0 0 0 0 0 0 0.02 0"/>
<feBlend mode="normal" in2="BackgroundImageFix" result="effect1_dropShadow_1207_41976"/>
<feBlend mode="normal" in="SourceGraphic" in2="effect1_dropShadow_1207_41976" result="shape"/>
</filter>
<linearGradient id="paint0_linear_1207_41976" x1="97.4141" y1="47.1561" x2="160.755" y2="47.1561" gradientUnits="userSpaceOnUse">
<stop stop-color="#011154"/>
<stop offset="1" stop-color="#011154" stop-opacity="0"/>
</linearGradient>
<linearGradient id="paint1_linear_1207_41976" x1="339.165" y1="47.1561" x2="269.49" y2="47.1561" gradientUnits="userSpaceOnUse">
<stop stop-color="#30D299"/>
<stop offset="1" stop-color="#30D299" stop-opacity="0"/>
</linearGradient>
<clipPath id="clip0_1207_41976">
<rect width="44.3386" height="40.2329" fill="white" transform="translate(36.1846 14.5867)"/>
</clipPath>
</defs>
</svg>
