<svg width="250" height="260" viewBox="0 0 250 260" fill="none" xmlns="http://www.w3.org/2000/svg">
<g filter="url(#filter0_f_4140_73705)">
<path d="M98.3095 99.2571L85.2227 128.185C88.636 131.295 92.7382 134.366 97.3971 137.269L113.146 102.403C107.914 100.838 102.896 99.7705 98.3095 99.2571Z" fill="#000BB0"/>
<path d="M97.4441 137.406L97.3582 137.348C92.7521 134.471 88.6566 131.42 85.1839 128.265L85.1244 128.219L85.1435 128.147L98.2297 99.153L98.2953 99.1524C102.974 99.6782 107.965 100.733 113.171 102.285L113.27 102.317L113.218 102.423L97.4441 137.406ZM85.3472 128.165C88.7868 131.287 92.8228 134.294 97.3499 137.131L113.015 102.47C107.908 100.95 102.963 99.9015 98.3497 99.3752L85.3472 128.165Z" fill="#008EDD"/>
<path d="M113.146 102.404L97.397 137.269C101.389 139.763 105.794 142.116 110.519 144.25L127.074 107.639C122.349 105.505 117.667 103.751 113.146 102.404Z" fill="#001EB1"/>
<path d="M110.559 144.368L110.48 144.33C105.861 142.247 101.456 139.894 97.3583 137.348L97.2792 137.31L113.105 102.286L113.178 102.305C117.798 103.685 122.487 105.458 127.106 107.54L127.185 107.579L127.146 107.658L110.559 144.368ZM97.5345 137.222C101.58 139.742 105.925 142.05 110.472 144.113L126.936 107.686C122.39 105.623 117.76 103.895 113.213 102.535L97.5345 137.222Z" fill="#008EDD"/>
<path d="M80.0054 94.3799L74.7319 106.017C73.5912 108.58 73.7408 111.579 75.0214 114.805L83.5307 95.9591L80.0054 94.3799Z" fill="#0000AE"/>
<path d="M74.9972 115.055L74.9232 114.839C73.5955 111.476 73.4986 108.503 74.6528 105.979L79.9583 94.2428L83.6486 95.9191L83.6098 95.9982L74.9972 115.055ZM80.0458 94.4981L74.8374 106.069C73.7348 108.488 73.811 111.336 75.0192 114.543L83.3933 96.0065L80.0458 94.4981Z" fill="#008EDD"/>
<path d="M90.1005 98.9316L83.5307 95.9597L75.0214 114.806C76.6845 119.02 80.2415 123.638 85.2422 128.179L98.3093 99.2575C95.3722 98.947 92.6074 98.8189 90.1005 98.9316Z" fill="#0001AF"/>
<path d="M85.2568 128.35L85.1575 128.252C80.117 123.659 76.5532 119.021 74.9232 114.839L74.9098 114.8L83.4904 95.8419L90.1129 98.8396C92.6461 98.7398 95.4042 98.8483 98.3284 99.1851L98.4664 99.2036L85.2568 128.35ZM75.1067 114.799C76.7361 118.914 80.2141 123.494 85.1884 128.022L98.1657 99.3506C95.2942 99.0396 92.5754 98.9177 90.1078 99.0169L90.0882 99.0237L90.0618 99.0107L83.5778 96.0972L75.1067 114.799Z" fill="#008EDD"/>
<path d="M152.344 123.69L139.277 152.612C146.005 153.357 151.825 152.987 156.08 151.442L164.589 132.596L158.019 129.624C156.427 127.668 154.513 125.668 152.344 123.69Z" fill="#0055BA"/>
<path d="M155.773 151.634C151.57 153.074 145.862 153.45 139.238 152.691L139.1 152.672L152.283 123.513L152.382 123.611C154.552 125.589 156.466 127.588 158.058 129.544L164.68 132.542L164.642 132.621L156.146 151.507L156.106 151.52C155.989 151.56 155.89 151.594 155.773 151.634ZM139.42 152.518C146.103 153.257 151.824 152.855 156.007 151.357L164.451 132.643L157.961 129.709L157.954 129.69C156.395 127.766 154.515 125.799 152.378 123.854L139.42 152.518Z" fill="#008EDD"/>
<path d="M162.828 145.838L168.094 134.181L164.589 132.595L156.08 151.441C159.339 150.259 161.687 148.401 162.828 145.838Z" fill="#0061BA"/>
<path d="M155.878 151.621L164.542 132.458L168.252 134.128L162.946 145.864C161.812 148.381 159.523 150.284 156.126 151.514L155.878 151.621ZM164.636 132.733L156.262 151.269C159.469 150.061 161.672 148.231 162.755 145.819L167.99 134.261L164.636 132.733Z" fill="#008EDD"/>
<path d="M110.519 144.249C115.244 146.383 119.919 148.117 124.421 149.471L140.169 114.606C136.177 112.112 131.772 109.759 127.047 107.625L110.519 144.249Z" fill="#0029B4"/>
<path d="M124.481 149.583L124.408 149.564C119.788 148.184 115.099 146.411 110.48 144.329L110.401 144.29L110.44 144.211L127.027 107.501L127.106 107.54C131.725 109.622 136.13 111.975 140.228 114.521L140.307 114.559L124.481 149.583ZM110.65 144.183C115.196 146.246 119.826 147.974 124.373 149.334L140.045 114.627C136 112.107 131.654 109.8 127.107 107.736L110.65 144.183Z" fill="#008EDD"/>
<path d="M140.169 114.606L124.421 149.472C129.653 151.037 134.69 152.098 139.277 152.611L152.344 123.69C148.911 120.587 144.809 117.516 140.169 114.606Z" fill="#0035B7"/>
<path d="M139.33 152.703L139.264 152.703C134.586 152.178 129.594 151.123 124.389 149.57L124.29 149.538L124.341 149.433L140.142 114.462L140.228 114.521C144.827 117.378 148.929 120.449 152.402 123.604L152.462 123.649L152.442 123.722L139.33 152.703ZM124.551 149.405C129.665 150.945 134.604 151.974 139.217 152.5L152.219 123.71C148.78 120.588 144.743 117.582 140.216 114.744L124.551 149.405Z" fill="#008EDD"/>
<path d="M168.095 134.181C163.524 144.283 140.108 143.571 115.779 132.574C91.4503 121.576 75.428 104.463 79.9987 94.3609C84.5694 84.2591 107.986 84.9708 132.314 95.9687C156.663 106.96 172.665 124.08 168.095 134.181Z" fill="url(#paint0_linear_4140_73705)"/>
<path d="M161.066 139.99C157.963 141.053 154.008 141.552 149.346 141.394C139.457 141.095 127.509 137.991 115.747 132.672C103.965 127.361 93.7582 120.434 86.9825 113.21C80.2 105.966 77.6825 99.2578 79.9196 94.3221C82.137 89.3932 88.8384 86.8562 98.7668 87.1414C108.656 87.4402 120.603 90.5447 132.366 95.8632C144.148 101.175 154.355 108.102 161.13 115.326C167.913 122.57 170.43 129.278 168.193 134.213C167.007 136.836 164.561 138.793 161.066 139.99ZM87.1143 88.7414C83.6579 89.9255 81.2645 91.8426 80.0974 94.3929C77.9058 99.2691 80.3964 105.899 87.1323 113.071C93.8817 120.282 104.075 127.169 115.818 132.494C133.781 140.604 151.277 143.124 160.998 139.794C164.396 138.63 166.849 136.759 168.015 134.143C170.214 129.286 167.704 122.663 160.981 115.465C154.231 108.254 144.038 101.366 132.295 96.041C120.533 90.7226 108.638 87.6438 98.7685 87.3384C94.1195 87.2194 90.1976 87.6852 87.1143 88.7414Z" fill="#008EDD"/>
<path d="M164.448 132.249C160.38 141.257 139.044 140.403 116.791 130.34C94.5381 120.277 79.8098 104.827 83.8775 95.819C87.9452 86.8111 109.281 87.6648 131.534 97.728C153.787 107.791 168.516 123.241 164.448 132.249Z" fill="url(#paint1_linear_4140_73705)"/>
<path d="M158.306 137.315C155.458 138.291 151.786 138.715 147.425 138.541C138.415 138.182 127.513 135.312 116.74 130.445C105.966 125.578 96.6178 119.301 90.386 112.768C84.1476 106.215 81.8 100.195 83.7788 95.7867C85.784 91.3913 91.8446 89.1615 100.901 89.5263C109.911 89.8848 120.812 92.7552 131.586 97.6223C142.36 102.489 151.708 108.767 157.94 115.3C164.178 121.852 166.526 127.872 164.547 132.281C163.509 134.567 161.389 136.259 158.306 137.315ZM90.0869 90.9486C87.0625 91.9847 84.9755 93.6432 83.983 95.8704C82.0362 100.18 84.3636 106.141 90.5555 112.622C96.7609 119.142 106.102 125.399 116.85 130.254C127.597 135.108 138.46 137.992 147.443 138.337C156.407 138.69 162.403 136.526 164.362 132.19C166.309 127.881 163.982 121.919 157.79 115.439C151.585 108.919 142.243 102.661 131.496 97.8068C120.748 92.9526 109.886 90.0689 100.902 89.7232C96.5613 89.5426 92.9149 89.9798 90.0869 90.9486Z" fill="#008EDD"/>
<path d="M162.413 133.1C158.623 141.508 138.112 140.437 116.617 130.729C95.122 121.02 80.7806 106.316 84.5777 97.9273C88.3681 89.5191 108.879 90.5898 130.374 100.298C151.869 110.007 166.23 124.704 162.413 133.1Z" fill="url(#paint2_linear_4140_73705)"/>
<path d="M156.839 137.708C154.07 138.657 150.469 139.034 146.141 138.827C137.471 138.374 126.977 135.54 116.565 130.834C106.154 126.128 97.0971 120.124 91.0191 113.911C84.9343 107.679 82.609 101.981 84.4526 97.882C86.3158 93.7766 92.1221 91.7656 100.811 92.2122C109.48 92.6654 119.975 95.4998 130.386 100.206C140.798 104.912 149.855 110.916 155.933 117.128C162.018 123.36 164.343 129.059 162.499 133.158C161.578 135.207 159.647 136.746 156.839 137.708ZM90.2197 93.5145C87.431 94.4698 85.5724 95.9623 84.6764 97.9589C80.8855 106.301 95.2331 120.96 116.656 130.649C138.072 140.319 158.57 141.416 162.334 133.06C166.106 124.725 151.751 110.047 130.335 100.377C119.95 95.6838 109.475 92.8427 100.832 92.4024C96.6357 92.1943 93.1133 92.5452 90.3375 93.4741C90.2982 93.4876 90.259 93.501 90.2197 93.5145Z" fill="#008EDD"/>
<path d="M107.581 115.304L112.257 106.921L124.658 114.742L125.275 117.954L129.452 120.538L128.743 117.314L149.28 130.247C149.953 130.675 150.755 130.774 150.864 130.451L152.159 126.738C152.223 126.54 151.977 126.207 151.528 125.922L127.303 110.742L126.621 107.662L122.806 105.238L123.39 108.286L106.76 97.8547L99.1693 110.351C99.0397 110.549 99.2657 110.889 99.7078 111.154L105.845 115.042C106.552 115.503 107.399 115.607 107.581 115.304Z" fill="white"/>
</g>
<g style="mix-blend-mode:screen" filter="url(#filter1_f_4140_73705)">
<path d="M140.904 116.497C134.871 106.693 128.319 86.0582 127.07 77.6219C127.07 77.6219 119.165 106.693 112.405 116.497C104.604 128.011 77.5605 133.028 77.5605 133.028C77.5605 133.028 104.604 137.702 112.405 148.418C119.165 157.538 127.486 182.163 127.486 182.163C128.839 174.297 134.871 157.538 140.904 148.418C147.977 137.816 172.316 133.028 172.316 133.028C172.316 133.028 147.977 128.011 140.904 116.497Z" fill="#0183BB"/>
</g>
<defs>
<filter id="filter0_f_4140_73705" x="53.9221" y="53.4278" width="135.009" height="133.356" filterUnits="userSpaceOnUse" color-interpolation-filters="sRGB">
<feFlood flood-opacity="0" result="BackgroundImageFix"/>
<feBlend mode="normal" in="SourceGraphic" in2="BackgroundImageFix" result="shape"/>
<feGaussianBlur stdDeviation="7.1" result="effect1_foregroundBlur_4140_73705"/>
</filter>
<filter id="filter1_f_4140_73705" x="0.226875" y="0.288277" width="249.422" height="259.208" filterUnits="userSpaceOnUse" color-interpolation-filters="sRGB">
<feFlood flood-opacity="0" result="BackgroundImageFix"/>
<feBlend mode="normal" in="SourceGraphic" in2="BackgroundImageFix" result="shape"/>
<feGaussianBlur stdDeviation="38.6668" result="effect1_foregroundBlur_4140_73705"/>
</filter>
<linearGradient id="paint0_linear_4140_73705" x1="80.3225" y1="94.5161" x2="164.088" y2="132.371" gradientUnits="userSpaceOnUse">
<stop offset="1e-08" stop-color="#0045BA"/>
<stop offset="1" stop-color="#005CBA"/>
</linearGradient>
<linearGradient id="paint1_linear_4140_73705" x1="80.7302" y1="94.4026" x2="150.426" y2="125.9" gradientUnits="userSpaceOnUse">
<stop stop-color="#0275BA"/>
<stop offset="1" stop-color="#000EB1"/>
</linearGradient>
<linearGradient id="paint2_linear_4140_73705" x1="85.2405" y1="98.2231" x2="141.031" y2="123.436" gradientUnits="userSpaceOnUse">
<stop stop-color="#0027B6"/>
<stop offset="0.5362" stop-color="#0052BA"/>
<stop offset="1" stop-color="#0083BA"/>
</linearGradient>
</defs>
</svg>
