<svg width="375" height="117" viewBox="0 0 375 117" fill="none" xmlns="http://www.w3.org/2000/svg">
<g opacity="0.5">
<g filter="url(#filter0_d_1207_41987)">
<rect x="20.3494" y="0.811829" width="334.651" height="68.9706" rx="10" fill="white"/>
</g>
<g clip-path="url(#clip0_1207_41987)">
<path d="M58.3539 15.1807C70.5987 15.1807 80.5231 24.1879 80.5231 35.2972C80.5231 46.4082 70.5987 55.4136 58.3539 55.4136C46.111 55.4136 36.1846 46.4073 36.1846 35.2972C36.1846 24.1879 46.111 15.1807 58.3539 15.1807Z" fill="#F5AC37"/>
<path d="M59.1703 36.7172H67.5942C67.7738 36.7172 67.8586 36.7172 67.8716 36.5036C67.9404 35.7259 67.9404 34.9438 67.8716 34.1653C67.8716 34.0141 67.7888 33.9517 67.6082 33.9517H50.8431C50.6356 33.9517 50.5797 34.0141 50.5797 34.1906V36.4284C50.5797 36.7172 50.5797 36.7172 50.9119 36.7172H59.1703ZM66.9308 31.3364C66.9547 31.2794 66.9547 31.2169 66.9308 31.1608C66.7901 30.8829 66.6235 30.6176 66.43 30.3687C66.1387 29.9432 65.7955 29.5512 65.4044 29.1991C65.2199 28.9864 65.0064 28.7954 64.767 28.6333C63.5678 27.7073 62.1422 27.0519 60.6098 26.7223C59.8367 26.5648 59.0466 26.4897 58.2544 26.496H50.8141C50.6066 26.496 50.5787 26.5712 50.5787 26.735V31.1979C50.5787 31.3862 50.5787 31.4369 50.8421 31.4369H66.831C66.831 31.4369 66.9697 31.4115 66.9976 31.3364H66.9298H66.9308ZM66.9308 39.3325C66.6954 39.3089 66.4579 39.3089 66.2225 39.3325H50.857C50.6495 39.3325 50.5797 39.3325 50.5797 39.5841V43.9474C50.5797 44.1484 50.5797 44.1991 50.857 44.1991H57.9512C58.2904 44.2226 58.6295 44.2009 58.9618 44.1366C59.9913 44.0696 61.0039 43.8668 61.9696 43.5328C62.3208 43.4224 62.66 43.2784 62.9802 43.1055H63.077C64.74 42.3207 66.0908 41.0877 66.9428 39.5742C66.9428 39.5742 67.0395 39.3841 66.9308 39.3343V39.3325ZM47.7953 46.4613V46.3862V43.4568V42.4637V39.509C47.7953 39.3451 47.7953 39.3207 47.5738 39.3207H44.567C44.4004 39.3207 44.3315 39.3207 44.3315 39.1197V36.7308H47.5459C47.7255 36.7308 47.7953 36.7308 47.7953 36.5171V34.1535C47.7953 34.0023 47.7953 33.9652 47.5738 33.9652H44.567C44.4004 33.9652 44.3315 33.9652 44.3315 33.7643V31.5518C44.3315 31.4133 44.3315 31.3762 44.553 31.3762H47.5319C47.7394 31.3762 47.7953 31.3762 47.7953 31.1372V24.3605C47.7953 24.1596 47.7953 24.1089 48.0726 24.1089H58.4639C59.2181 24.136 59.9674 24.2112 60.7086 24.3352C62.236 24.5914 63.7035 25.0866 65.0453 25.7936C65.9352 26.2688 66.7542 26.8427 67.4835 27.5036C68.0322 28.0205 68.527 28.5799 68.966 29.1756C69.4019 29.7794 69.7641 30.4248 70.0484 31.0992C70.0833 31.2748 70.2689 31.3934 70.4624 31.3636H72.9425C73.2607 31.3636 73.2608 31.3636 73.2747 31.6406V33.7027C73.2747 33.9037 73.1919 33.9544 72.9694 33.9544H71.057C70.8635 33.9544 70.8076 33.9544 70.8216 34.1807C70.8974 34.9465 70.8974 35.7151 70.8216 36.4809C70.8216 36.6946 70.8216 36.7199 71.0859 36.7199H73.2737C73.3705 36.8331 73.2737 36.9462 73.2737 37.0603C73.2877 37.206 73.2877 37.3536 73.2737 37.4993V39.021C73.2737 39.2347 73.2049 39.2981 72.9964 39.2981H70.3776C70.195 39.2664 70.0175 39.3723 69.9756 39.537C69.352 41.0081 68.3544 42.327 67.0655 43.3843C66.5946 43.7691 66.0998 44.1312 65.583 44.4652C65.0283 44.7549 64.4886 45.0563 63.92 45.2953C62.8735 45.7226 61.7761 46.0376 60.6497 46.2377C59.5803 46.4115 58.4959 46.4903 57.4075 46.4767H47.7913V46.464L47.7953 46.4613Z" fill="#FEFEFD"/>
</g>
<path d="M98.4081 21.3725H101.474C103.266 21.3725 104.638 21.8345 105.59 22.7585C106.542 23.6825 107.018 25.0031 107.018 26.7205C107.018 28.4285 106.537 29.7445 105.576 30.6685C104.624 31.5925 103.252 32.0545 101.46 32.0545H98.4081V21.3725ZM101.446 30.4585C102.631 30.4585 103.56 30.1785 104.232 29.6185C104.904 29.0491 105.24 28.0831 105.24 26.7205C105.24 25.4325 104.904 24.4851 104.232 23.8785C103.569 23.2718 102.641 22.9685 101.446 22.9685H100.186V30.4585H101.446ZM107.397 32.0545L111.219 21.3725H113.179L117.001 32.0545H115.153L114.369 29.7165H110.043L109.245 32.0545H107.397ZM113.837 28.1625L112.577 24.4105C112.4 23.8598 112.311 23.4305 112.311 23.1225H112.087C112.087 23.4585 112.003 23.8878 111.835 24.4105L110.561 28.1625H113.837ZM118.123 32.0545V21.3725H119.901V32.0545H118.123Z" fill="#1A2B41"/>
<rect x="97.4141" y="43.9185" width="63.3408" height="7.6634" rx="3.8317" fill="url(#paint0_linear_1207_41987)"/>
<path d="M290.2 32.2086C289.136 32.0966 288.231 31.7512 287.484 31.1726C286.747 30.5939 286.313 29.7586 286.182 28.6666H287.974C288.133 29.3012 288.464 29.8099 288.968 30.1926C289.052 30.2486 289.146 30.3046 289.248 30.3606C289.351 30.4072 289.426 30.4446 289.472 30.4726C289.771 30.6126 290.009 30.7619 290.186 30.9206L290.34 30.7946C290.275 30.5146 290.233 30.2812 290.214 30.0946C290.205 29.8986 290.2 29.6839 290.2 29.4506V27.2666C289.426 27.1079 288.777 26.9212 288.254 26.7066C287.741 26.4919 287.326 26.1886 287.008 25.7966C286.7 25.3952 286.546 24.8772 286.546 24.2426C286.546 23.6172 286.7 23.0759 287.008 22.6186C287.326 22.1612 287.76 21.8112 288.31 21.5686C288.861 21.3259 289.491 21.1999 290.2 21.1906V19.5106H291.04V21.2326C291.927 21.4006 292.669 21.7552 293.266 22.2966C293.864 22.8286 294.228 23.5519 294.358 24.4666H292.608C292.506 24.0186 292.296 23.6359 291.978 23.3186C291.932 23.2719 291.815 23.1739 291.628 23.0246L291.054 22.5346L290.9 22.6466C290.994 22.9826 291.04 23.3046 291.04 23.6126V25.7966C291.815 25.9646 292.459 26.1652 292.972 26.3986C293.495 26.6226 293.91 26.9446 294.218 27.3646C294.526 27.7846 294.68 28.3259 294.68 28.9886C294.68 29.9499 294.358 30.7199 293.714 31.2986C293.08 31.8679 292.188 32.1759 291.04 32.2226V34.0426H290.2V32.2086ZM290.354 25.7406C290.289 25.4979 290.247 25.3019 290.228 25.1526C290.21 24.9939 290.2 24.8259 290.2 24.6486V23.5146C290.2 23.3559 290.205 23.2112 290.214 23.0806C290.233 22.9406 290.275 22.7539 290.34 22.5206L290.186 22.3946C289.934 22.5626 289.71 22.6839 289.514 22.7586C289.318 22.8332 289.188 22.8846 289.122 22.9126C288.572 23.1739 288.296 23.5659 288.296 24.0886C288.296 24.3779 288.376 24.6206 288.534 24.8166C288.693 25.0032 288.926 25.1619 289.234 25.2926C289.281 25.3206 289.393 25.3766 289.57 25.4606C289.748 25.5352 289.958 25.6659 290.2 25.8526L290.354 25.7406ZM291.054 30.9766C291.222 30.8366 291.456 30.7152 291.754 30.6126C291.792 30.5939 291.866 30.5612 291.978 30.5146C292.1 30.4586 292.202 30.4026 292.286 30.3466C292.706 30.0572 292.916 29.6466 292.916 29.1146C292.916 28.8346 292.856 28.5919 292.734 28.3866C292.622 28.1812 292.45 27.9992 292.216 27.8406C292.16 27.8032 292.09 27.7659 292.006 27.7286C291.922 27.6819 291.862 27.6492 291.824 27.6306C291.507 27.4906 291.25 27.3459 291.054 27.1966L290.9 27.3086C290.966 27.5699 291.003 27.7846 291.012 27.9526C291.031 28.1112 291.04 28.2886 291.04 28.4846V29.5626C291.04 29.7866 291.031 29.9872 291.012 30.1646C291.003 30.3419 290.966 30.5659 290.9 30.8366L291.054 30.9766ZM300.105 32.2366C298.807 32.2366 297.818 31.7792 297.137 30.8646C296.465 29.9499 296.129 28.6759 296.129 27.0426C296.129 25.2226 296.469 23.7946 297.151 22.7586C297.832 21.7226 298.831 21.2046 300.147 21.2046C301.145 21.2046 301.953 21.4799 302.569 22.0306C303.194 22.5719 303.577 23.3232 303.717 24.2846H302.093C301.971 23.7806 301.747 23.3979 301.421 23.1366C301.094 22.8659 300.669 22.7306 300.147 22.7306C299.484 22.7306 298.971 22.9452 298.607 23.3746C298.252 23.8039 298.014 24.4106 297.893 25.1946C297.809 25.6426 297.711 26.0159 297.599 26.3146L297.781 26.4126C298.35 25.4792 299.19 25.0126 300.301 25.0126C300.973 25.0126 301.565 25.1572 302.079 25.4466C302.592 25.7359 302.989 26.1466 303.269 26.6786C303.558 27.2106 303.703 27.8266 303.703 28.5266C303.703 29.2359 303.549 29.8752 303.241 30.4446C302.942 31.0046 302.517 31.4432 301.967 31.7606C301.416 32.0779 300.795 32.2366 300.105 32.2366ZM300.077 30.6966C300.646 30.6966 301.094 30.4959 301.421 30.0946C301.757 29.6932 301.925 29.1799 301.925 28.5546C301.925 27.9292 301.761 27.4252 301.435 27.0426C301.108 26.6599 300.655 26.4686 300.077 26.4686C299.47 26.4686 298.975 26.6646 298.593 27.0566C298.219 27.4392 298.033 27.9386 298.033 28.5546C298.033 29.1892 298.219 29.7072 298.593 30.1086C298.975 30.5006 299.47 30.6966 300.077 30.6966ZM306.267 32.2086C305.977 32.2086 305.73 32.1106 305.525 31.9146C305.319 31.7092 305.217 31.4619 305.217 31.1726C305.217 30.8926 305.319 30.6546 305.525 30.4586C305.73 30.2626 305.977 30.1646 306.267 30.1646C306.537 30.1646 306.771 30.2672 306.967 30.4726C307.163 30.6686 307.261 30.9019 307.261 31.1726C307.261 31.4526 307.163 31.6952 306.967 31.9006C306.771 32.1059 306.537 32.2086 306.267 32.2086ZM312.373 21.1906C313.671 21.1906 314.655 21.6479 315.327 22.5626C316.009 23.4772 316.349 24.7512 316.349 26.3846C316.349 28.2046 316.009 29.6326 315.327 30.6686C314.646 31.7046 313.647 32.2226 312.331 32.2226C311.333 32.2226 310.521 31.9519 309.895 31.4106C309.279 30.8599 308.901 30.1039 308.761 29.1426H310.385C310.507 29.6466 310.731 30.0339 311.057 30.3046C311.384 30.5659 311.809 30.6966 312.331 30.6966C312.994 30.6966 313.503 30.4819 313.857 30.0526C314.221 29.6232 314.464 29.0166 314.585 28.2326C314.669 27.7846 314.767 27.4112 314.879 27.1126L314.697 27.0146C314.128 27.9479 313.288 28.4146 312.177 28.4146C311.505 28.4146 310.913 28.2699 310.399 27.9806C309.886 27.6912 309.485 27.2806 309.195 26.7486C308.915 26.2166 308.775 25.6006 308.775 24.9006C308.775 24.1912 308.925 23.5566 309.223 22.9966C309.531 22.4272 309.961 21.9839 310.511 21.6666C311.062 21.3492 311.683 21.1906 312.373 21.1906ZM312.401 22.7306C311.832 22.7306 311.379 22.9312 311.043 23.3326C310.717 23.7339 310.553 24.2472 310.553 24.8726C310.553 25.4979 310.717 26.0019 311.043 26.3846C311.37 26.7672 311.823 26.9586 312.401 26.9586C313.008 26.9586 313.498 26.7672 313.871 26.3846C314.254 25.9926 314.445 25.4886 314.445 24.8726C314.445 24.2379 314.254 23.7246 313.871 23.3326C313.498 22.9312 313.008 22.7306 312.401 22.7306ZM321.62 32.2366C320.864 32.2366 320.192 32.0966 319.604 31.8166C319.025 31.5272 318.573 31.1306 318.246 30.6266C317.929 30.1132 317.77 29.5346 317.77 28.8906C317.77 28.2839 317.938 27.7426 318.274 27.2666C318.61 26.7812 319.1 26.4546 319.744 26.2866V26.1186C319.249 25.9879 318.871 25.7359 318.61 25.3626C318.358 24.9799 318.232 24.5552 318.232 24.0886C318.232 23.5286 318.377 23.0292 318.666 22.5906C318.955 22.1519 319.357 21.8112 319.87 21.5686C320.383 21.3259 320.967 21.2046 321.62 21.2046C322.283 21.2046 322.871 21.3259 323.384 21.5686C323.897 21.8112 324.294 22.1519 324.574 22.5906C324.863 23.0292 325.008 23.5286 325.008 24.0886C325.008 24.5552 324.877 24.9799 324.616 25.3626C324.364 25.7452 323.991 25.9972 323.496 26.1186V26.2866C324.149 26.4546 324.639 26.7766 324.966 27.2526C325.302 27.7286 325.47 28.2746 325.47 28.8906C325.47 29.5439 325.311 30.1226 324.994 30.6266C324.677 31.1306 324.224 31.5272 323.636 31.8166C323.057 32.0966 322.385 32.2366 321.62 32.2366ZM321.62 25.6566C322.152 25.6566 322.563 25.5212 322.852 25.2506C323.141 24.9799 323.286 24.6206 323.286 24.1726C323.286 23.7339 323.137 23.3746 322.838 23.0946C322.539 22.8146 322.133 22.6746 321.62 22.6746C321.107 22.6746 320.701 22.8146 320.402 23.0946C320.103 23.3746 319.954 23.7339 319.954 24.1726C319.954 24.6206 320.099 24.9799 320.388 25.2506C320.677 25.5212 321.088 25.6566 321.62 25.6566ZM321.62 30.6966C322.245 30.6966 322.745 30.5239 323.118 30.1786C323.501 29.8332 323.692 29.3712 323.692 28.7926C323.692 28.2326 323.505 27.7799 323.132 27.4346C322.768 27.0799 322.264 26.9026 321.62 26.9026C320.976 26.9026 320.467 27.0799 320.094 27.4346C319.73 27.7799 319.548 28.2326 319.548 28.7926C319.548 29.3712 319.739 29.8332 320.122 30.1786C320.505 30.5239 321.004 30.6966 321.62 30.6966ZM331.814 23.8506C331.935 23.6266 332.052 23.4399 332.164 23.2906C332.285 23.1412 332.467 22.9546 332.71 22.7306L332.598 22.5766C332.318 22.7259 332.075 22.8286 331.87 22.8846C331.674 22.9406 331.454 22.9686 331.212 22.9686H326.718V21.3726H334.11V22.9126L329.574 32.0546H327.642L331.814 23.8506Z" fill="#1A2B41"/>
<rect x="275.824" y="43.9185" width="63.3408" height="7.6634" rx="3.8317" fill="url(#paint1_linear_1207_41987)"/>
</g>
<defs>
<filter id="filter0_d_1207_41987" x="0.349365" y="0.811829" width="374.651" height="115.971" filterUnits="userSpaceOnUse" color-interpolation-filters="sRGB">
<feFlood flood-opacity="0" result="BackgroundImageFix"/>
<feColorMatrix in="SourceAlpha" type="matrix" values="0 0 0 0 0 0 0 0 0 0 0 0 0 0 0 0 0 0 127 0" result="hardAlpha"/>
<feOffset dy="27"/>
<feGaussianBlur stdDeviation="10"/>
<feComposite in2="hardAlpha" operator="out"/>
<feColorMatrix type="matrix" values="0 0 0 0 0 0 0 0 0 0 0 0 0 0 0 0 0 0 0.02 0"/>
<feBlend mode="normal" in2="BackgroundImageFix" result="effect1_dropShadow_1207_41987"/>
<feBlend mode="normal" in="SourceGraphic" in2="effect1_dropShadow_1207_41987" result="shape"/>
</filter>
<linearGradient id="paint0_linear_1207_41987" x1="97.4141" y1="47.7502" x2="160.755" y2="47.7503" gradientUnits="userSpaceOnUse">
<stop stop-color="#011154"/>
<stop offset="1" stop-color="#011154" stop-opacity="0"/>
</linearGradient>
<linearGradient id="paint1_linear_1207_41987" x1="339.165" y1="47.7503" x2="269.49" y2="47.7503" gradientUnits="userSpaceOnUse">
<stop stop-color="#D23030"/>
<stop offset="1" stop-color="#D23030" stop-opacity="0"/>
</linearGradient>
<clipPath id="clip0_1207_41987">
<rect width="44.3386" height="40.2329" fill="white" transform="translate(36.1846 15.1807)"/>
</clipPath>
</defs>
</svg>
