<svg width="114" height="78" viewBox="0 0 114 78" fill="none" xmlns="http://www.w3.org/2000/svg">
<g clip-path="url(#clip0_4140_73615)">
<path d="M20.1948 42.3679L35.1466 76.9829C40.6173 76.4573 46.5941 75.3086 52.8435 73.5565L34.8157 31.8354C29.2671 35.1645 24.3221 38.7468 20.1948 42.3679Z" fill="#000900"/>
<path d="M35.0882 77.0801L35.0687 77.0217L20.0974 42.3483L20.1558 42.3094C24.361 38.6298 29.2865 35.0671 34.7961 31.7574L34.8935 31.699L52.9992 73.6147L52.9018 73.6342C46.7109 75.3864 40.7535 76.535 35.1855 77.0607L35.0882 77.0801ZM20.3116 42.3872L35.205 76.866C40.7146 76.3403 46.5941 75.1917 52.7266 73.4785L34.7961 31.9521C29.345 35.2423 24.4778 38.7466 20.3116 42.3872Z" fill="#39B70F"/>
<path d="M34.835 31.8357L52.8628 73.5567C58.2556 72.0381 63.843 70.0524 69.4889 67.6188L50.546 23.7952C44.9002 26.2287 39.6242 28.9543 34.835 31.8357Z" fill="#001D00"/>
<path d="M52.8045 73.6537L52.7656 73.5758L34.7183 31.7964L34.7961 31.7575C39.7022 28.8177 44.9976 26.1116 50.5267 23.717L50.6046 23.678L69.6058 67.6574L69.528 67.6963C63.9989 70.091 58.4114 72.0768 52.9019 73.6342L52.8045 73.6537ZM34.9519 31.8743L52.9019 73.4396C58.353 71.9015 63.8821 69.9158 69.3527 67.5601L50.5072 23.9117C45.0366 26.2868 39.7995 28.954 34.9519 31.8743Z" fill="#39B70F"/>
<path d="M1.27148 54.5164L7.28725 68.4754C8.61111 71.5319 11.3562 73.7903 15.2109 75.2504L5.47668 52.7059L1.27148 54.5164Z" fill="black"/>
<path d="M15.386 75.4058L15.1719 75.3279C11.1808 73.8094 8.49417 71.5121 7.18978 68.4945L1.15454 54.4771L5.53496 52.5887L15.386 75.4058ZM1.38816 54.5745L7.38446 68.4361C8.64992 71.3369 11.2198 73.5758 15.0551 75.0748L5.43761 52.8223L1.38816 54.5745Z" fill="#39B70F"/>
<path d="M13.3419 49.3177L5.49609 52.7052L15.2303 75.2497C20.2532 77.1577 27.1645 77.7417 35.1661 76.9824L20.2143 42.3674C17.5666 44.6842 15.2693 47.0009 13.3419 49.3177Z" fill="black"/>
<path d="M28.5858 77.3914C23.3098 77.3914 18.7542 76.6906 15.172 75.3278L15.1331 75.3083L15.1136 75.2693L5.35986 52.6469L13.2835 49.2205C15.2109 46.9232 17.5277 44.587 20.1365 42.2897L20.2338 42.2118L35.283 77.0605L35.1662 77.0799C32.8689 77.2746 30.6689 77.3914 28.5858 77.3914ZM15.2888 75.172C20.2338 77.041 27.0478 77.6445 35.0104 76.8852L20.1559 42.5039C17.5666 44.7817 15.2888 47.0789 13.4004 49.3568L13.3809 49.3762H13.3614L5.59349 52.7248L15.2888 75.172Z" fill="#39B70F"/>
<path d="M84.8691 14.4306L99.821 49.0457C105.856 43.7502 110.178 38.338 112.222 33.354L102.488 10.8095L94.6423 14.197C91.6247 14.0218 88.354 14.0997 84.8691 14.4306Z" fill="#308C00"/>
<path d="M99.7821 49.2013L84.7329 14.3527L84.8497 14.3332C88.3346 14.0022 91.6053 13.9244 94.6034 14.0996L102.527 10.6731L112.32 33.3539L112.3 33.3929C110.256 38.3379 105.973 43.7696 99.8599 49.1234L99.7821 49.2013ZM85.0055 14.5084L99.8599 48.8898C105.876 43.5944 110.12 38.2211 112.125 33.3539L102.449 10.9262L94.6619 14.2943H94.6424C91.6637 14.1191 88.4319 14.1969 85.0055 14.5084Z" fill="#39B70F"/>
<path d="M112.729 22.9385L106.713 8.97954L102.508 10.7901L112.242 33.3346C113.799 29.5383 114.052 25.995 112.729 22.9385Z" fill="#389600"/>
<path d="M112.222 33.5875L102.371 10.7509L106.752 8.8625L112.806 22.8993C114.111 25.8975 113.936 29.4407 112.3 33.3928L112.222 33.5875ZM102.605 10.8483L112.222 33.1008C113.76 29.285 113.897 25.878 112.631 22.9577L106.635 9.09613L102.605 10.8483Z" fill="#39B70F"/>
<path d="M69.4695 67.6182C75.1154 65.1847 80.3914 62.4591 85.1806 59.5778L67.1722 17.8567C61.7795 19.3753 56.192 21.3611 50.5461 23.7946L69.4695 67.6182Z" fill="#004800"/>
<path d="M69.4307 67.7351L50.4294 23.7557L50.5073 23.7168C56.0364 21.3221 61.6238 19.3363 67.1334 17.7789L67.2113 17.7594L67.2502 17.8373L85.2975 59.6362L85.2197 59.6751C80.3136 62.6149 75.0182 65.321 69.4891 67.7156L69.4307 67.7351ZM50.6631 23.8336L69.5086 67.482C74.9598 65.1263 80.1968 62.4396 85.0639 59.5388L67.114 17.9736C61.6628 19.5116 56.1337 21.4779 50.6631 23.8336Z" fill="#39B70F"/>
<path d="M67.1726 17.8565L85.2004 59.5775C90.7684 56.229 95.7134 52.6662 99.8408 49.0451L84.8695 14.4301C79.3988 14.9557 73.422 16.1043 67.1726 17.8565Z" fill="#0F6600"/>
<path d="M85.1418 59.7141L67.0361 17.7984L67.1335 17.779C73.3245 16.0268 79.2818 14.8781 84.8498 14.3525H84.9082L84.9277 14.4109L99.899 49.0843L99.8406 49.1232C95.6354 52.8028 90.7098 56.3655 85.2003 59.6752L85.1418 59.7141ZM67.2892 17.9152L85.2197 59.4416C90.6709 56.1709 95.538 52.647 99.7043 49.0064L84.8109 14.5277C79.3013 15.0534 73.4218 16.202 67.2892 17.9152Z" fill="#39B70F"/>
<path d="M106.694 8.97924C111.911 21.0887 92.5594 41.0828 63.4345 53.6595C34.3291 66.2361 6.48908 66.6255 1.25205 54.5161C-3.96551 42.4261 15.4057 22.4125 44.5306 9.83585C73.636 -2.72134 101.476 -3.11071 106.694 8.97924Z" fill="url(#paint0_linear_4140_73615)"/>
<path d="M22.531 63.4522C11.2198 63.4522 3.66598 60.3178 1.17401 54.5746C-1.37636 48.6951 1.7386 40.7714 9.93484 32.3221C18.1116 23.8728 30.3768 15.8712 44.472 9.77756C58.5672 3.66445 72.8181 0.237987 84.5771 0.0627709C96.375 -0.0929772 104.26 3.06092 106.791 8.94041C109.341 14.8199 106.226 22.7436 98.0299 31.1929C89.8531 39.6423 77.5879 47.6438 63.4927 53.7375C49.3975 59.8311 35.166 63.2576 23.4071 63.4328C23.115 63.4328 22.823 63.4522 22.531 63.4522ZM85.4337 0.237987C85.1417 0.237987 84.8691 0.237987 84.5771 0.237987C72.8376 0.393736 58.6256 3.83966 44.5693 9.91384C15.5418 22.471 -3.84886 42.4457 1.34923 54.4773C3.86067 60.2983 11.687 63.4133 23.3876 63.2381C35.1271 63.0823 49.3391 59.6364 63.3954 53.5622C77.4516 47.4881 89.7168 39.4865 97.8741 31.0566C106.031 22.6657 109.127 14.8394 106.615 9.01829C104.162 3.35295 96.6671 0.237987 85.4337 0.237987Z" fill="#39B70F"/>
<path d="M102.06 10.6339C106.713 21.4195 88.8992 39.4668 62.2858 50.9727C35.6529 62.4786 10.3049 63.0626 5.65188 52.2771C0.998907 41.4915 18.7931 23.4442 45.426 11.9383C72.059 0.432426 97.407 -0.151629 102.06 10.6339Z" fill="url(#paint1_linear_4140_73615)"/>
<path d="M24.4194 60.084C14.4126 60.084 7.73493 57.339 5.57393 52.3161C3.31558 47.0596 6.21639 39.9731 13.7507 32.322C21.2655 24.6903 32.5183 17.4285 45.4065 11.8606C58.2947 6.29256 71.2996 3.09972 82.0073 2.84663C92.7539 2.59354 99.8989 5.35807 102.177 10.5951C104.435 15.8516 101.534 22.9381 93.9999 30.5893C86.4851 38.2209 75.2323 45.4827 62.3441 51.0507C49.456 56.6187 36.451 59.8115 25.7433 60.0646C25.2761 60.0841 24.8478 60.084 24.4194 60.084ZM83.3117 3.00238C82.8834 3.00238 82.4356 3.00238 81.9878 3.02185C71.2996 3.27494 58.3336 6.46778 45.4649 12.0358C32.5962 17.5843 21.3824 24.8266 13.8675 32.4388C6.37214 40.0315 3.4908 47.0596 5.72968 52.2382C7.87121 57.2027 14.4905 59.8894 24.4 59.8894C24.8283 59.8894 25.2761 59.8894 25.7238 59.8699C36.412 59.6168 49.3781 56.424 62.2468 50.8754C75.1154 45.3269 86.3293 38.0652 93.8441 30.453C101.32 22.8603 104.221 15.8321 101.982 10.6535C99.8405 5.70851 93.2212 3.00238 83.3117 3.00238Z" fill="#39B70F"/>
<path d="M101.203 13.1062C105.545 23.1715 88.2179 40.3232 62.4806 51.4397C36.7627 62.5563 12.3881 63.4129 8.02714 53.3476C3.68567 43.2824 21.0321 26.1307 46.75 15.0141C72.4874 3.89763 96.8619 3.04101 101.203 13.1062Z" fill="url(#paint2_linear_4140_73615)"/>
<path d="M25.3345 60.4539C16.087 60.4539 9.93496 57.962 7.96864 53.3674C5.84657 48.4613 8.72791 41.7642 16.0675 34.4829C23.3877 27.2407 34.2706 20.2709 46.7304 14.8976C59.1903 9.52431 71.7085 6.35095 82.0074 6.00051C92.3257 5.63061 99.1786 8.14205 101.301 13.0481C103.423 17.9542 100.541 24.6513 93.2018 31.9326C85.8816 39.1749 74.9987 46.1446 62.5389 51.5179C50.079 56.8912 37.5608 60.0646 27.2619 60.415C26.6 60.4539 25.9575 60.4539 25.3345 60.4539ZM83.9153 6.17573C83.2923 6.17573 82.6498 6.1952 81.9879 6.21467C71.7085 6.5651 59.2098 9.73847 46.7694 15.0923C34.3485 20.4656 23.485 27.4159 16.1843 34.6387C8.90312 41.842 6.04125 48.4808 8.12438 53.309C12.4464 63.3158 36.821 62.4397 62.461 51.3621C88.101 40.2846 105.447 23.1328 101.125 13.1455C99.1591 8.62876 93.085 6.17573 83.9153 6.17573Z" fill="#39B70F"/>
<path d="M84.7328 17.3507L50.4683 17.6816L66.6077 25.177L84.7328 17.3507Z" fill="white"/>
<path d="M63.1035 26.6957L47.8596 19.2198L51.5586 31.6796L63.1035 26.6957Z" fill="white"/>
<path d="M47.8596 19.2198L42.9341 35.4176L51.5586 31.6796L47.8596 19.2198Z" fill="#ADCDAD"/>
<path d="M45.134 19.979L21.5576 44.6456L39.5076 36.8777L45.134 19.979Z" fill="white"/>
<path d="M62.8696 44.6845L84.7328 17.3507L66.6076 25.177L62.8696 44.6845Z" fill="#ADCDAD"/>
<path d="M51.5586 31.6794L59.2097 45.6383L63.1034 26.6955L51.5586 31.6794Z" fill="#ADCDAD"/>
<path d="M42.9341 35.4174L59.2098 45.6383L51.5586 31.6794L42.9341 35.4174Z" fill="#5B9C5B"/>
<path d="M21.5576 44.6456L56.27 47.5464L39.5076 36.8776L21.5576 44.6456Z" fill="#ADCDAD"/>
</g>
<path d="M89.4224 40.7583C86.8817 36.5333 84.0783 27.7952 83.465 24.1463C83.465 24.1463 80.0483 36.5333 77.2449 40.7583C73.9158 45.6555 62.3516 47.864 62.3516 47.864C62.3516 47.864 73.9158 49.8805 77.2449 54.3936C80.1359 58.3305 83.7279 68.7971 83.7279 68.7971C84.2535 65.4362 86.8817 58.2345 89.4224 54.3936C92.401 49.8805 102.826 47.864 102.826 47.864C102.826 47.864 92.4886 45.7515 89.4224 40.7583Z" fill="white"/>
<defs>
<linearGradient id="paint0_linear_4140_73615" x1="1.64688" y1="54.3583" x2="101.894" y2="11.0597" gradientUnits="userSpaceOnUse">
<stop offset="1e-08" stop-color="#358600"/>
<stop offset="1" stop-color="#319000"/>
</linearGradient>
<linearGradient id="paint1_linear_4140_73615" x1="1.87313" y1="53.9092" x2="85.283" y2="17.883" gradientUnits="userSpaceOnUse">
<stop stop-color="#42A100"/>
<stop offset="1" stop-color="#000C00"/>
</linearGradient>
<linearGradient id="paint2_linear_4140_73615" x1="8.83625" y1="53.0028" x2="75.6049" y2="24.1643" gradientUnits="userSpaceOnUse">
<stop stop-color="#105D00"/>
<stop offset="0.5362" stop-color="#378E00"/>
<stop offset="1" stop-color="#3DA800"/>
</linearGradient>
<clipPath id="clip0_4140_73615">
<rect width="113.365" height="77.3289" fill="white" transform="translate(0.317383 0.0627747)"/>
</clipPath>
</defs>
</svg>
