<svg width="114" height="78" viewBox="0 0 114 78" fill="none" xmlns="http://www.w3.org/2000/svg">
<g clip-path="url(#clip0_7408_54563)">
<path d="M20.3926 42.3679L35.3444 76.9829C40.815 76.4573 46.7919 75.3086 53.0413 73.5565L35.0134 31.8354C29.4649 35.1646 24.5199 38.7468 20.3926 42.3679Z" fill="#000900"/>
<path d="M35.2857 77.0801L35.2662 77.0217L20.2949 42.3483L20.3533 42.3094C24.5585 38.6298 29.4841 35.0671 34.9936 31.7574L35.091 31.699L53.1967 73.6147L53.0994 73.6342C46.9084 75.3864 40.951 76.535 35.383 77.0607L35.2857 77.0801ZM20.5091 42.3872L35.4025 76.866C40.9121 76.3403 46.7916 75.1917 52.9241 73.4785L34.9936 31.9521C29.5425 35.2423 24.6753 38.7466 20.5091 42.3872Z" fill="#39B70F"/>
<path d="M35.0332 31.8357L53.061 73.5567C58.4538 72.0381 64.0413 70.0523 69.6871 67.6188L50.7443 23.7952C45.0984 26.2287 39.8225 28.9543 35.0332 31.8357Z" fill="#001D00"/>
<path d="M53.0023 73.6537L52.9633 73.5758L34.916 31.7964L34.9939 31.7575C39.9 28.8177 45.1954 26.1116 50.7244 23.717L50.8023 23.678L69.8036 67.6574L69.7257 67.6963C64.1967 70.091 58.6092 72.0768 53.0996 73.6342L53.0023 73.6537ZM35.1496 31.8743L53.0996 73.4396C58.5508 71.9015 64.0798 69.9158 69.5505 67.5601L50.705 23.9117C45.2343 26.2868 39.9973 28.954 35.1496 31.8743Z" fill="#39B70F"/>
<path d="M1.46875 54.5164L7.48452 68.4753C8.80838 71.5319 11.5534 73.7902 15.4082 75.2504L5.67395 52.7058L1.46875 54.5164Z" fill="black"/>
<path d="M15.583 75.4058L15.3689 75.3279C11.3778 73.8094 8.69119 71.5121 7.3868 68.4945L1.35156 54.4771L5.73198 52.5887L15.583 75.4058ZM1.58518 54.5745L7.58149 68.4361C8.84694 71.3369 11.4168 73.5757 15.2521 75.0748L5.63463 52.8223L1.58518 54.5745Z" fill="#39B70F"/>
<path d="M13.5392 49.3177L5.69336 52.7052L15.4276 75.2497C20.4505 77.1577 27.3618 77.7417 35.3634 76.9824L20.4116 42.3674C17.7638 44.6842 15.4666 47.0009 13.5392 49.3177Z" fill="black"/>
<path d="M28.7826 77.3914C23.5066 77.3914 18.951 76.6905 15.3688 75.3277L15.3298 75.3083L15.3104 75.2693L5.55664 52.6469L13.4803 49.2205C15.4077 46.9232 17.7245 44.5869 20.3332 42.2897L20.4306 42.2118L35.4797 77.0604L35.3629 77.0799C33.0656 77.2746 30.8657 77.3914 28.7826 77.3914ZM15.4856 75.172C20.4306 77.041 27.2446 77.6445 35.2072 76.8852L20.3527 42.5038C17.7634 44.7816 15.4856 47.0789 13.5971 49.3567L13.5777 49.3762H13.5582L5.79026 52.7248L15.4856 75.172Z" fill="#39B70F"/>
<path d="M85.0664 14.4306L100.018 49.0456C106.053 43.7502 110.375 38.3379 112.42 33.354L102.685 10.8094L94.8396 14.197C91.822 14.0218 88.5513 14.0996 85.0664 14.4306Z" fill="#308C00"/>
<path d="M99.9808 49.2013L84.9316 14.3526L85.0485 14.3332C88.5333 14.0022 91.804 13.9243 94.8022 14.0996L102.726 10.6731L112.519 33.3539L112.499 33.3928C110.455 38.3378 106.172 43.7696 100.059 49.1234L99.9808 49.2013ZM85.2042 14.5084L100.059 48.8898C106.074 43.5943 110.319 38.221 112.324 33.3539L102.648 10.9262L94.8606 14.2942H94.8411C91.8624 14.119 88.6307 14.1969 85.2042 14.5084Z" fill="#39B70F"/>
<path d="M112.924 22.9384L106.908 8.97949L102.703 10.7901L112.437 33.3346C113.995 29.5382 114.248 25.995 112.924 22.9384Z" fill="#389600"/>
<path d="M112.419 33.5875L102.568 10.7509L106.949 8.86249L113.003 22.8993C114.308 25.8974 114.133 29.4407 112.497 33.3928L112.419 33.5875ZM102.802 10.8483L112.419 33.1008C113.957 29.285 114.094 25.878 112.828 22.9577L106.832 9.09611L102.802 10.8483Z" fill="#39B70F"/>
<path d="M69.6675 67.6183C75.3134 65.1847 80.5894 62.4591 85.3786 59.5778L67.3702 17.8568C61.9775 19.3753 56.39 21.3611 50.7441 23.7946L69.6675 67.6183Z" fill="#004800"/>
<path d="M69.6282 67.7351L50.627 23.7557L50.7048 23.7168C56.2339 21.3221 61.8214 19.3363 67.3309 17.7789L67.4088 17.7594L67.4477 17.8373L85.4951 59.6362L85.4172 59.6751C80.5111 62.6149 75.2157 65.321 69.6866 67.7156L69.6282 67.7351ZM50.8606 23.8336L69.7061 67.482C75.1573 65.1263 80.3943 62.4396 85.2614 59.5388L67.3115 17.9736C61.8603 19.5116 56.3312 21.4779 50.8606 23.8336Z" fill="#39B70F"/>
<path d="M67.3711 17.8565L85.3989 59.5775C90.9669 56.229 95.9119 52.6662 100.039 49.0451L85.068 14.4301C79.5973 14.9557 73.6205 16.1043 67.3711 17.8565Z" fill="#0F6600"/>
<path d="M85.3401 59.7141L67.2344 17.7984L67.3317 17.7789C73.5227 16.0268 79.4801 14.8781 85.0481 14.3525H85.1065L85.1259 14.4109L100.097 49.0843L100.039 49.1232C95.8336 52.8028 90.9081 56.3655 85.3985 59.6752L85.3401 59.7141ZM67.4875 17.9152L85.418 59.4415C90.8691 56.1708 95.7363 52.647 99.9025 49.0064L85.0091 14.5277C79.4995 15.0533 73.62 16.202 67.4875 17.9152Z" fill="#39B70F"/>
<path d="M106.892 8.97921C112.11 21.0886 92.7579 41.0828 63.633 53.6594C34.5275 66.2361 6.68757 66.6255 1.45054 54.5161C-3.76702 42.4261 15.6041 22.4125 44.729 9.83582C73.8345 -2.72137 101.674 -3.11074 106.892 8.97921Z" fill="url(#paint0_linear_7408_54563)"/>
<path d="M22.7287 63.4522C11.4175 63.4522 3.86373 60.3178 1.37177 54.5746C-1.17861 48.6951 1.93635 40.7714 10.1326 32.3221C18.3094 23.8727 30.5745 15.8712 44.6697 9.77754C58.7649 3.66443 73.0159 0.237972 84.7749 0.0627556C96.5728 -0.0929925 104.458 3.06091 106.988 8.9404C109.539 14.8199 106.424 22.7436 98.2276 31.1929C90.0508 39.6422 77.7857 47.6438 63.6905 53.7374C49.5953 59.8311 35.3638 63.2575 23.6048 63.4328C23.3128 63.4328 23.0208 63.4522 22.7287 63.4522ZM85.6315 0.237972C85.3395 0.237972 85.0669 0.237972 84.7749 0.237972C73.0354 0.39372 58.8233 3.83965 44.7671 9.91382C15.7395 22.471 -3.65111 42.4457 1.54698 54.4772C4.05842 60.2983 11.8848 63.4133 23.5853 63.2381C35.3248 63.0823 49.5369 59.6364 63.5931 53.5622C77.6494 47.488 89.9146 39.4865 98.0719 31.0566C106.229 22.6657 109.325 14.8394 106.813 9.01827C104.36 3.35293 96.8648 0.237972 85.6315 0.237972Z" fill="#39B70F"/>
<path d="M102.257 10.634C106.91 21.4195 89.096 39.4668 62.4826 50.9727C35.8496 62.4786 10.5016 63.0627 5.84866 52.2771C1.19568 41.4915 18.9899 23.4442 45.6228 11.9383C72.2557 0.432457 97.6037 -0.151599 102.257 10.634Z" fill="url(#paint1_linear_7408_54563)"/>
<path d="M24.616 60.0841C14.6092 60.0841 7.93147 57.339 5.77046 52.3161C3.51212 47.0596 6.41292 39.9731 13.9472 32.322C21.4621 24.6903 32.7149 17.4286 45.603 11.8606C58.4912 6.29257 71.4961 3.09974 82.2038 2.84665C92.9504 2.59356 100.095 5.35809 102.373 10.5951C104.632 15.8516 101.731 22.9382 94.1964 30.5893C86.6816 38.2209 75.4288 45.4827 62.5406 51.0507C49.6525 56.6187 36.6475 59.8115 25.9398 60.0646C25.4726 60.0841 25.0443 60.0841 24.616 60.0841ZM83.5082 3.0024C83.0799 3.0024 82.6321 3.0024 82.1844 3.02187C71.4961 3.27496 58.5301 6.46779 45.6614 12.0358C32.7928 17.5843 21.5789 24.8266 14.064 32.4388C6.56867 40.0315 3.68733 47.0596 5.92621 52.2383C8.06775 57.2027 14.687 59.8894 24.5965 59.8894C25.0248 59.8894 25.4726 59.8894 25.9204 59.8699C36.6086 59.6168 49.5746 56.424 62.4433 50.8755C75.312 45.3269 86.5258 38.0652 94.0407 30.453C101.517 22.8603 104.417 15.8321 102.179 10.6535C100.037 5.70852 93.4177 3.0024 83.5082 3.0024Z" fill="#39B70F"/>
<path d="M101.401 13.1062C105.742 23.1714 88.4152 40.3232 62.6778 51.4397C36.9599 62.5562 12.5854 63.4128 8.22441 53.3476C3.88293 43.2824 21.2294 26.1306 46.9473 15.0141C72.6846 3.89758 97.0592 3.04097 101.401 13.1062Z" fill="url(#paint2_linear_7408_54563)"/>
<path d="M25.5325 60.4539C16.285 60.4539 10.133 57.9619 8.16663 53.3674C6.04457 48.4613 8.92591 41.7641 16.2655 34.4829C23.5857 27.2406 34.4686 20.2709 46.9284 14.8976C59.3883 9.52427 71.9065 6.3509 82.2054 6.00047C92.5237 5.63057 99.3766 8.142 101.499 13.0481C103.621 17.9541 100.739 24.6513 93.3998 31.9325C86.0796 39.1748 75.1967 46.1445 62.7369 51.5178C50.277 56.8912 37.7588 60.0645 27.4599 60.415C26.798 60.4539 26.1555 60.4539 25.5325 60.4539ZM84.1133 6.17568C83.4903 6.17568 82.8478 6.19515 82.1859 6.21462C71.9065 6.56505 59.4078 9.73842 46.9674 15.0923C34.5465 20.4656 23.683 27.4158 16.3823 34.6386C9.10112 41.842 6.23925 48.4808 8.32238 53.3089C12.6444 63.3158 37.019 62.4397 62.659 51.3621C88.299 40.2845 105.645 23.1328 101.323 13.1454C99.3571 8.62872 93.283 6.17568 84.1133 6.17568Z" fill="#39B70F"/>
<path d="M84.9286 17.3507L50.6641 17.6817L66.8035 25.177L84.9286 17.3507Z" fill="white"/>
<path d="M63.3005 26.6957L48.0566 19.2198L51.7557 31.6796L63.3005 26.6957Z" fill="white"/>
<path d="M48.0544 19.2198L43.1289 35.4176L51.7535 31.6796L48.0544 19.2198Z" fill="#ADCDAD"/>
<path d="M45.3303 19.9791L21.7539 44.6457L39.7039 36.8777L45.3303 19.9791Z" fill="white"/>
<path d="M63.0664 44.6845L84.9295 17.3507L66.8044 25.177L63.0664 44.6845Z" fill="#ADCDAD"/>
<path d="M51.7539 31.6794L59.405 45.6384L63.2987 26.6955L51.7539 31.6794Z" fill="#ADCDAD"/>
<path d="M43.1289 35.4173L59.4046 45.6383L51.7535 31.6794L43.1289 35.4173Z" fill="#5B9C5B"/>
<path d="M21.7539 44.6456L56.4663 47.5464L39.7039 36.8777L21.7539 44.6456Z" fill="#ADCDAD"/>
</g>
<path d="M89.6216 40.7583C87.081 36.5333 84.2775 27.7952 83.6643 24.1463C83.6643 24.1463 80.2476 36.5333 77.4441 40.7583C74.115 45.6555 62.5508 47.864 62.5508 47.864C62.5508 47.864 74.115 49.8805 77.4441 54.3936C80.3352 58.3305 83.9271 68.7971 83.9271 68.7971C84.4527 65.4362 87.081 58.2345 89.6216 54.3936C92.6003 49.8805 103.026 47.864 103.026 47.864C103.026 47.864 92.6879 45.7515 89.6216 40.7583Z" fill="white"/>
<defs>
<linearGradient id="paint0_linear_7408_54563" x1="1.84537" y1="54.3582" x2="102.093" y2="11.0597" gradientUnits="userSpaceOnUse">
<stop offset="1e-08" stop-color="#358600"/>
<stop offset="1" stop-color="#319000"/>
</linearGradient>
<linearGradient id="paint1_linear_7408_54563" x1="2.06991" y1="53.9092" x2="85.4798" y2="17.8831" gradientUnits="userSpaceOnUse">
<stop stop-color="#42A100"/>
<stop offset="1" stop-color="#000C00"/>
</linearGradient>
<linearGradient id="paint2_linear_7408_54563" x1="9.03351" y1="53.0028" x2="75.8021" y2="24.1643" gradientUnits="userSpaceOnUse">
<stop stop-color="#105D00"/>
<stop offset="0.5362" stop-color="#378E00"/>
<stop offset="1" stop-color="#3DA800"/>
</linearGradient>
<clipPath id="clip0_7408_54563">
<rect width="113.365" height="77.3289" fill="white" transform="translate(0.515625 0.0627441)"/>
</clipPath>
</defs>
</svg>
