<svg width="375" height="117" viewBox="0 0 375 117" fill="none" xmlns="http://www.w3.org/2000/svg">
<g filter="url(#filter0_d_1207_41963)">
<rect x="20.3494" y="0.514771" width="334.651" height="68.9706" rx="10" fill="white"/>
</g>
<g clip-path="url(#clip0_1207_41963)">
<path d="M79.8549 39.8664C76.894 50.6431 64.865 57.2017 52.9871 54.5143C41.1142 51.8276 33.8863 40.9118 36.8485 30.1359C39.8081 19.358 51.8371 12.7989 63.7113 15.4856C75.5884 18.1723 82.8158 29.0893 79.8546 39.8666L79.8548 39.8664H79.8549Z" fill="#F7931A"/>
<path d="M68.1432 32.1145C68.5844 29.4375 66.3383 27.9985 63.2669 27.0385L64.2633 23.4122L61.8306 22.8621L60.8607 26.393C60.2211 26.2482 59.5643 26.1118 58.9116 25.9766L59.8885 22.4225L57.4573 21.8725L56.4604 25.4976C55.9312 25.3883 55.4114 25.2802 54.9071 25.1663L54.9099 25.1549L51.5551 24.3948L50.908 26.7525C50.908 26.7525 52.7129 27.1279 52.6748 27.151C53.6599 27.3741 53.8381 27.9658 53.8085 28.4348L52.6735 32.5661C52.7414 32.5817 52.8293 32.6043 52.9264 32.6397C52.8453 32.6214 52.7589 32.6014 52.6693 32.582L51.0784 38.3692C50.958 38.6408 50.6525 39.0484 49.9637 38.8936C49.9881 38.9257 48.1956 38.4932 48.1956 38.4932L46.9878 41.02L50.1536 41.7361C50.7425 41.8702 51.3197 42.0104 51.888 42.1422L50.8813 45.8101L53.3112 46.3602L54.3081 42.7312C54.972 42.8947 55.6162 43.0456 56.2468 43.1878L55.2533 46.7996L57.6861 47.3497L58.6927 43.6886C62.841 44.401 65.9601 44.1138 67.2731 40.7091C68.331 37.968 67.2204 36.3869 65.038 35.3558C66.6275 35.0232 67.8248 34.0745 68.1441 32.1148L68.1433 32.1143L68.1432 32.1145ZM62.585 39.1868C61.8332 41.928 56.7469 40.4462 55.0979 40.0746L56.4338 35.2153C58.0827 35.5888 63.3707 36.3281 62.5851 39.1868H62.585ZM63.3374 32.0748C62.6515 34.5682 58.4182 33.3014 57.0449 32.9908L58.2561 28.5837C59.6293 28.8943 64.0518 29.4741 63.3376 32.0748H63.3374Z" fill="white"/>
</g>
<path d="M98.4078 21.075H102.566C103.835 21.075 104.75 21.355 105.31 21.915C105.767 22.3443 105.996 22.9557 105.996 23.749C105.996 24.4117 105.828 24.9623 105.492 25.401C105.165 25.8303 104.74 26.045 104.218 26.045V26.269C104.899 26.269 105.454 26.493 105.884 26.941C106.313 27.3797 106.528 27.963 106.528 28.691C106.528 29.615 106.229 30.343 105.632 30.875C105.249 31.211 104.796 31.4443 104.274 31.575C103.751 31.6963 103.242 31.757 102.748 31.757H98.4078V21.075ZM102.482 25.583C103.042 25.583 103.471 25.457 103.77 25.205C104.068 24.9437 104.218 24.5797 104.218 24.113C104.218 23.6743 104.082 23.3337 103.812 23.091C103.494 22.811 102.953 22.671 102.188 22.671H100.186V25.583H102.482ZM102.538 30.161C102.911 30.161 103.247 30.133 103.546 30.077C103.844 30.021 104.101 29.895 104.316 29.699C104.614 29.4283 104.764 29.0457 104.764 28.551C104.764 27.9163 104.572 27.5103 104.19 27.333C103.816 27.1463 103.345 27.053 102.776 27.053H100.186V30.161H102.538ZM110.457 31.757V22.671H107.097V21.075H115.623V22.671H112.235V31.757H110.457ZM121.008 31.939C119.888 31.939 118.945 31.6917 118.18 31.197C117.424 30.693 116.859 30.021 116.486 29.181C116.113 28.341 115.926 27.417 115.926 26.409C115.926 25.401 116.113 24.4817 116.486 23.651C116.859 22.811 117.424 22.1437 118.18 21.649C118.945 21.1543 119.888 20.907 121.008 20.907C122.268 20.907 123.285 21.215 124.06 21.831C124.844 22.447 125.315 23.2683 125.474 24.295H123.528C123.416 23.7257 123.131 23.2823 122.674 22.965C122.226 22.6477 121.661 22.489 120.98 22.489C119.953 22.489 119.16 22.8483 118.6 23.567C118.04 24.2763 117.76 25.2237 117.76 26.409C117.76 27.5943 118.04 28.551 118.6 29.279C119.16 29.9977 119.953 30.357 120.98 30.357C121.671 30.357 122.24 30.189 122.688 29.853C123.136 29.517 123.416 29.0223 123.528 28.369H125.474C125.306 29.4703 124.835 30.343 124.06 30.987C123.285 31.6217 122.268 31.939 121.008 31.939Z" fill="#1A2B41"/>
<rect x="97.4138" y="43.621" width="63.3408" height="7.6634" rx="3.8317" fill="url(#paint0_linear_1207_41963)"/>
<path d="M286.973 31.911C285.909 31.799 285.003 31.4537 284.257 30.875C283.519 30.2963 283.085 29.461 282.955 28.369H284.747C284.905 29.0037 285.237 29.5123 285.741 29.895C285.825 29.951 285.918 30.007 286.021 30.063C286.123 30.1097 286.198 30.147 286.245 30.175C286.543 30.315 286.781 30.4643 286.959 30.623L287.113 30.497C287.047 30.217 287.005 29.9837 286.987 29.797C286.977 29.601 286.973 29.3863 286.973 29.153V26.969C286.198 26.8103 285.549 26.6237 285.027 26.409C284.513 26.1943 284.098 25.891 283.781 25.499C283.473 25.0977 283.319 24.5797 283.319 23.945C283.319 23.3197 283.473 22.7783 283.781 22.321C284.098 21.8637 284.532 21.5137 285.083 21.271C285.633 21.0283 286.263 20.9023 286.973 20.893V19.213H287.813V20.935C288.699 21.103 289.441 21.4577 290.039 21.999C290.636 22.531 291 23.2543 291.131 24.169H289.381C289.278 23.721 289.068 23.3383 288.751 23.021C288.704 22.9743 288.587 22.8763 288.401 22.727L287.827 22.237L287.673 22.349C287.766 22.685 287.813 23.007 287.813 23.315V25.499C288.587 25.667 289.231 25.8677 289.745 26.101C290.267 26.325 290.683 26.647 290.991 27.067C291.299 27.487 291.453 28.0283 291.453 28.691C291.453 29.6523 291.131 30.4223 290.487 31.001C289.852 31.5703 288.961 31.8783 287.813 31.925V33.745H286.973V31.911ZM287.127 25.443C287.061 25.2003 287.019 25.0043 287.001 24.855C286.982 24.6963 286.973 24.5283 286.973 24.351V23.217C286.973 23.0583 286.977 22.9137 286.987 22.783C287.005 22.643 287.047 22.4563 287.113 22.223L286.959 22.097C286.707 22.265 286.483 22.3863 286.287 22.461C286.091 22.5357 285.96 22.587 285.895 22.615C285.344 22.8763 285.069 23.2683 285.069 23.791C285.069 24.0803 285.148 24.323 285.307 24.519C285.465 24.7057 285.699 24.8643 286.007 24.995C286.053 25.023 286.165 25.079 286.343 25.163C286.52 25.2377 286.73 25.3683 286.973 25.555L287.127 25.443ZM287.827 30.679C287.995 30.539 288.228 30.4177 288.527 30.315C288.564 30.2963 288.639 30.2637 288.751 30.217C288.872 30.161 288.975 30.105 289.059 30.049C289.479 29.7597 289.689 29.349 289.689 28.817C289.689 28.537 289.628 28.2943 289.507 28.089C289.395 27.8837 289.222 27.7017 288.989 27.543C288.933 27.5057 288.863 27.4683 288.779 27.431C288.695 27.3843 288.634 27.3517 288.597 27.333C288.279 27.193 288.023 27.0483 287.827 26.899L287.673 27.011C287.738 27.2723 287.775 27.487 287.785 27.655C287.803 27.8137 287.813 27.991 287.813 28.187V29.265C287.813 29.489 287.803 29.6897 287.785 29.867C287.775 30.0443 287.738 30.2683 287.673 30.539L287.827 30.679ZM295.547 24.197C295.547 23.833 295.594 23.4923 295.687 23.175L295.519 23.105C295.304 23.4503 295.066 23.735 294.805 23.959C294.478 24.239 294.114 24.4723 293.713 24.659C293.312 24.8457 292.934 24.967 292.579 25.023V23.371C293.26 23.231 293.867 22.9463 294.399 22.517C294.931 22.0877 295.332 21.607 295.603 21.075H297.325V31.757H295.547V24.197ZM303.029 31.939C301.732 31.939 300.743 31.4817 300.061 30.567C299.389 29.6523 299.053 28.3783 299.053 26.745C299.053 24.925 299.394 23.497 300.075 22.461C300.757 21.425 301.755 20.907 303.071 20.907C304.07 20.907 304.877 21.1823 305.493 21.733C306.119 22.2743 306.501 23.0257 306.641 23.987H305.017C304.896 23.483 304.672 23.1003 304.345 22.839C304.019 22.5683 303.594 22.433 303.071 22.433C302.409 22.433 301.895 22.6477 301.531 23.077C301.177 23.5063 300.939 24.113 300.817 24.897C300.733 25.345 300.635 25.7183 300.523 26.017L300.705 26.115C301.275 25.1817 302.115 24.715 303.225 24.715C303.897 24.715 304.49 24.8597 305.003 25.149C305.517 25.4383 305.913 25.849 306.193 26.381C306.483 26.913 306.627 27.529 306.627 28.229C306.627 28.9383 306.473 29.5777 306.165 30.147C305.867 30.707 305.442 31.1457 304.891 31.463C304.341 31.7803 303.72 31.939 303.029 31.939ZM303.001 30.399C303.571 30.399 304.019 30.1983 304.345 29.797C304.681 29.3957 304.849 28.8823 304.849 28.257C304.849 27.6317 304.686 27.1277 304.359 26.745C304.033 26.3623 303.58 26.171 303.001 26.171C302.395 26.171 301.9 26.367 301.517 26.759C301.144 27.1417 300.957 27.641 300.957 28.257C300.957 28.8917 301.144 29.4097 301.517 29.811C301.9 30.203 302.395 30.399 303.001 30.399ZM309.191 31.911C308.902 31.911 308.655 31.813 308.449 31.617C308.244 31.4117 308.141 31.1643 308.141 30.875C308.141 30.595 308.244 30.357 308.449 30.161C308.655 29.965 308.902 29.867 309.191 29.867C309.462 29.867 309.695 29.9697 309.891 30.175C310.087 30.371 310.185 30.6043 310.185 30.875C310.185 31.155 310.087 31.3977 309.891 31.603C309.695 31.8083 309.462 31.911 309.191 31.911ZM315.298 20.893C316.595 20.893 317.58 21.3503 318.252 22.265C318.933 23.1797 319.274 24.4537 319.274 26.087C319.274 27.907 318.933 29.335 318.252 30.371C317.571 31.407 316.572 31.925 315.256 31.925C314.257 31.925 313.445 31.6543 312.82 31.113C312.204 30.5623 311.826 29.8063 311.686 28.845H313.31C313.431 29.349 313.655 29.7363 313.982 30.007C314.309 30.2683 314.733 30.399 315.256 30.399C315.919 30.399 316.427 30.1843 316.782 29.755C317.146 29.3257 317.389 28.719 317.51 27.935C317.594 27.487 317.692 27.1137 317.804 26.815L317.622 26.717C317.053 27.6503 316.213 28.117 315.102 28.117C314.43 28.117 313.837 27.9723 313.324 27.683C312.811 27.3937 312.409 26.983 312.12 26.451C311.84 25.919 311.7 25.303 311.7 24.603C311.7 23.8937 311.849 23.259 312.148 22.699C312.456 22.1297 312.885 21.6863 313.436 21.369C313.987 21.0517 314.607 20.893 315.298 20.893ZM315.326 22.433C314.757 22.433 314.304 22.6337 313.968 23.035C313.641 23.4363 313.478 23.9497 313.478 24.575C313.478 25.2003 313.641 25.7043 313.968 26.087C314.295 26.4697 314.747 26.661 315.326 26.661C315.933 26.661 316.423 26.4697 316.796 26.087C317.179 25.695 317.37 25.191 317.37 24.575C317.37 23.9403 317.179 23.427 316.796 23.035C316.423 22.6337 315.933 22.433 315.326 22.433ZM324.545 31.939C323.789 31.939 323.117 31.799 322.529 31.519C321.95 31.2297 321.497 30.833 321.171 30.329C320.853 29.8157 320.695 29.237 320.695 28.593C320.695 27.9863 320.863 27.445 321.199 26.969C321.535 26.4837 322.025 26.157 322.669 25.989V25.821C322.174 25.6903 321.796 25.4383 321.535 25.065C321.283 24.6823 321.157 24.2577 321.157 23.791C321.157 23.231 321.301 22.7317 321.591 22.293C321.88 21.8543 322.281 21.5137 322.795 21.271C323.308 21.0283 323.891 20.907 324.545 20.907C325.207 20.907 325.795 21.0283 326.309 21.271C326.822 21.5137 327.219 21.8543 327.499 22.293C327.788 22.7317 327.933 23.231 327.933 23.791C327.933 24.2577 327.802 24.6823 327.541 25.065C327.289 25.4477 326.915 25.6997 326.421 25.821V25.989C327.074 26.157 327.564 26.479 327.891 26.955C328.227 27.431 328.395 27.977 328.395 28.593C328.395 29.2463 328.236 29.825 327.919 30.329C327.601 30.833 327.149 31.2297 326.561 31.519C325.982 31.799 325.31 31.939 324.545 31.939ZM324.545 25.359C325.077 25.359 325.487 25.2237 325.777 24.953C326.066 24.6823 326.211 24.323 326.211 23.875C326.211 23.4363 326.061 23.077 325.763 22.797C325.464 22.517 325.058 22.377 324.545 22.377C324.031 22.377 323.625 22.517 323.327 22.797C323.028 23.077 322.879 23.4363 322.879 23.875C322.879 24.323 323.023 24.6823 323.313 24.953C323.602 25.2237 324.013 25.359 324.545 25.359ZM324.545 30.399C325.17 30.399 325.669 30.2263 326.043 29.881C326.425 29.5357 326.617 29.0737 326.617 28.495C326.617 27.935 326.43 27.4823 326.057 27.137C325.693 26.7823 325.189 26.605 324.545 26.605C323.901 26.605 323.392 26.7823 323.019 27.137C322.655 27.4823 322.473 27.935 322.473 28.495C322.473 29.0737 322.664 29.5357 323.047 29.881C323.429 30.2263 323.929 30.399 324.545 30.399ZM334.738 23.553C334.86 23.329 334.976 23.1423 335.088 22.993C335.21 22.8437 335.392 22.657 335.634 22.433L335.522 22.279C335.242 22.4283 335 22.531 334.794 22.587C334.598 22.643 334.379 22.671 334.136 22.671H329.642V21.075H337.034V22.615L332.498 31.757H330.566L334.738 23.553Z" fill="#1A2B41"/>
<rect x="275.824" y="43.621" width="63.3408" height="7.6634" rx="3.8317" fill="url(#paint1_linear_1207_41963)"/>
<defs>
<filter id="filter0_d_1207_41963" x="0.349365" y="0.514771" width="374.651" height="115.971" filterUnits="userSpaceOnUse" color-interpolation-filters="sRGB">
<feFlood flood-opacity="0" result="BackgroundImageFix"/>
<feColorMatrix in="SourceAlpha" type="matrix" values="0 0 0 0 0 0 0 0 0 0 0 0 0 0 0 0 0 0 127 0" result="hardAlpha"/>
<feOffset dy="27"/>
<feGaussianBlur stdDeviation="10"/>
<feComposite in2="hardAlpha" operator="out"/>
<feColorMatrix type="matrix" values="0 0 0 0 0 0 0 0 0 0 0 0 0 0 0 0 0 0 0.02 0"/>
<feBlend mode="normal" in2="BackgroundImageFix" result="effect1_dropShadow_1207_41963"/>
<feBlend mode="normal" in="SourceGraphic" in2="effect1_dropShadow_1207_41963" result="shape"/>
</filter>
<linearGradient id="paint0_linear_1207_41963" x1="97.4138" y1="47.4527" x2="160.755" y2="47.4527" gradientUnits="userSpaceOnUse">
<stop stop-color="#011154"/>
<stop offset="1" stop-color="#011154" stop-opacity="0"/>
</linearGradient>
<linearGradient id="paint1_linear_1207_41963" x1="339.165" y1="47.4527" x2="269.49" y2="47.4527" gradientUnits="userSpaceOnUse">
<stop stop-color="#30D299"/>
<stop offset="1" stop-color="#30D299" stop-opacity="0"/>
</linearGradient>
<clipPath id="clip0_1207_41963">
<rect width="44.3386" height="40.2329" fill="white" transform="translate(36.1846 14.8837)"/>
</clipPath>
</defs>
</svg>
