<svg width="41" height="40" viewBox="0 0 41 40" fill="none" xmlns="http://www.w3.org/2000/svg">
<path d="M34.5316 23.1998C34.5149 23.1998 34.5149 23.1832 34.5149 23.1832V23.1665C33.0483 21.6332 30.9983 20.6665 28.7149 20.6665C24.2983 20.6665 20.7149 24.2498 20.7149 28.6665C20.7149 30.7165 21.4983 32.5832 22.7649 33.9998C24.2316 35.6332 26.3483 36.6665 28.7149 36.6665C33.1316 36.6665 36.7149 33.0832 36.7149 28.6665C36.7149 26.5498 35.8816 24.6332 34.5316 23.1998ZM31.7316 31.7832C31.4983 32.0165 31.1649 32.1498 30.8483 32.1498C30.5316 32.1498 30.2149 32.0165 29.9649 31.7832L28.7316 30.5498L27.4649 31.8332C27.2149 32.0665 26.8983 32.1998 26.5816 32.1998C26.4149 32.1998 26.2649 32.1665 26.1149 32.0998C25.9649 32.0498 25.8149 31.9498 25.6983 31.8332C25.1983 31.3332 25.1983 30.5498 25.6983 30.0665L26.9649 28.7832L25.7483 27.5498C25.2483 27.0665 25.2483 26.2665 25.7483 25.7832C26.2316 25.2998 27.0149 25.2998 27.5149 25.7832L28.7316 27.0165L29.9149 25.8332C30.4149 25.3498 31.1983 25.3498 31.6816 25.8332C31.9649 26.1165 32.0816 26.4832 32.0316 26.8498C32.0149 27.1332 31.8983 27.3998 31.6816 27.5998L30.4983 28.7832L31.7316 30.0165C32.2316 30.4998 32.2316 31.2832 31.7316 31.7832Z" fill="#E33E38"/>
<path d="M36.715 14.5501C36.715 16.5334 36.3983 18.3667 35.8483 20.0667C35.7483 20.4167 35.3316 20.5167 35.0316 20.3001C33.215 18.9501 30.9983 18.2334 28.715 18.2334C22.9316 18.2334 18.215 22.9501 18.215 28.7334C18.215 30.5334 18.6816 32.3001 19.565 33.8667C19.8316 34.3334 19.515 34.9334 19.015 34.7501C14.9983 33.3834 6.88162 28.4001 4.24829 20.0667C3.69829 18.3667 3.38162 16.5334 3.38162 14.5501C3.38162 9.40006 7.53162 5.2334 12.6483 5.2334C15.665 5.2334 18.365 6.70006 20.0483 8.95006C21.7316 6.70006 24.4316 5.2334 27.4483 5.2334C32.565 5.2334 36.715 9.40006 36.715 14.5501Z" fill="#E33E38"/>
</svg>
