<svg xmlns="http://www.w3.org/2000/svg" width="41" height="40" viewBox="0 0 41 40" fill="none">
  <path d="M28.7149 20.6665C24.2983 20.6665 20.7149 24.2498 20.7149 28.6665C20.7149 30.1665 21.1316 31.5832 21.8816 32.7832C23.2649 35.0998 25.7983 36.6665 28.7149 36.6665C31.6316 36.6665 34.1816 35.0998 35.5483 32.7832C36.2816 31.5832 36.7149 30.1665 36.7149 28.6665C36.7149 24.2498 33.1316 20.6665 28.7149 20.6665ZM32.6816 27.6165L28.4149 31.5498C28.1816 31.7665 27.8649 31.8832 27.5649 31.8832C27.2483 31.8832 26.9316 31.7665 26.6816 31.5165L24.7149 29.5498C24.2316 29.0665 24.2316 28.2665 24.7149 27.7832C25.1983 27.2998 25.9983 27.2998 26.4816 27.7832L27.5983 28.8998L30.9816 25.7665C31.4816 25.2998 32.2816 25.3332 32.7483 25.8332C33.2149 26.3498 33.1816 27.1498 32.6816 27.6165Z" fill="#2873FF"/>
  <path d="M28.7149 20.6665C24.2983 20.6665 20.7149 24.2498 20.7149 28.6665C20.7149 30.1665 21.1316 31.5832 21.8816 32.7832C23.2649 35.0998 25.7983 36.6665 28.7149 36.6665C31.6316 36.6665 34.1816 35.0998 35.5483 32.7832C36.2816 31.5832 36.7149 30.1665 36.7149 28.6665C36.7149 24.2498 33.1316 20.6665 28.7149 20.6665ZM32.6816 27.6165L28.4149 31.5498C28.1816 31.7665 27.8649 31.8832 27.5649 31.8832C27.2483 31.8832 26.9316 31.7665 26.6816 31.5165L24.7149 29.5498C24.2316 29.0665 24.2316 28.2665 24.7149 27.7832C25.1983 27.2998 25.9983 27.2998 26.4816 27.7832L27.5983 28.8998L30.9816 25.7665C31.4816 25.2998 32.2816 25.3332 32.7483 25.8332C33.2149 26.3498 33.1816 27.1498 32.6816 27.6165Z" fill="url(#paint0_linear_7291_22569)"/>
  <path d="M36.715 14.5501C36.715 16.5334 36.3983 18.3667 35.8483 20.0667C35.7483 20.4167 35.3316 20.5167 35.0316 20.3001C33.215 18.9501 30.9983 18.2334 28.715 18.2334C22.9316 18.2334 18.215 22.9501 18.215 28.7334C18.215 30.5334 18.6816 32.3001 19.565 33.8667C19.8316 34.3334 19.515 34.9334 19.015 34.7501C14.9983 33.3834 6.88162 28.4001 4.24829 20.0667C3.69829 18.3667 3.38162 16.5334 3.38162 14.5501C3.38162 9.40006 7.53162 5.2334 12.6483 5.2334C15.665 5.2334 18.365 6.70006 20.0483 8.95006C21.7316 6.70006 24.4316 5.2334 27.4483 5.2334C32.565 5.2334 36.715 9.40006 36.715 14.5501Z" fill="#2873FF"/>
  <path d="M36.715 14.5501C36.715 16.5334 36.3983 18.3667 35.8483 20.0667C35.7483 20.4167 35.3316 20.5167 35.0316 20.3001C33.215 18.9501 30.9983 18.2334 28.715 18.2334C22.9316 18.2334 18.215 22.9501 18.215 28.7334C18.215 30.5334 18.6816 32.3001 19.565 33.8667C19.8316 34.3334 19.515 34.9334 19.015 34.7501C14.9983 33.3834 6.88162 28.4001 4.24829 20.0667C3.69829 18.3667 3.38162 16.5334 3.38162 14.5501C3.38162 9.40006 7.53162 5.2334 12.6483 5.2334C15.665 5.2334 18.365 6.70006 20.0483 8.95006C21.7316 6.70006 24.4316 5.2334 27.4483 5.2334C32.565 5.2334 36.715 9.40006 36.715 14.5501Z" fill="url(#paint1_linear_7291_22569)"/>
  <defs>
    <linearGradient id="paint0_linear_7291_22569" x1="28.7149" y1="20.6665" x2="28.7149" y2="36.6665" gradientUnits="userSpaceOnUse">
      <stop stop-color="#2873FF"/>
      <stop offset="1" stop-color="#0B6B96"/>
    </linearGradient>
    <linearGradient id="paint1_linear_7291_22569" x1="20.0483" y1="5.2334" x2="20.0483" y2="34.7839" gradientUnits="userSpaceOnUse">
      <stop stop-color="#2873FF"/>
      <stop offset="1" stop-color="#0B6B96"/>
    </linearGradient>
  </defs>
</svg>
