<svg width="24" height="25" viewBox="0 0 24 25" fill="none" xmlns="http://www.w3.org/2000/svg">
<path d="M7.79999 13.9988V9.79883" stroke="#969696" stroke-width="1.5" stroke-linecap="round" stroke-linejoin="round"/>
<path d="M7.95001 18.1988C9.02697 18.1988 9.90002 17.3258 9.90002 16.2488C9.90002 15.1719 9.02697 14.2988 7.95001 14.2988C6.87306 14.2988 6 15.1719 6 16.2488C6 17.3258 6.87306 18.1988 7.95001 18.1988Z" stroke="#969696" stroke-width="1.5" stroke-linecap="round" stroke-linejoin="round"/>
<path d="M7.79999 9.79922C8.7941 9.79922 9.59998 8.99332 9.59998 7.99921C9.59998 7.00509 8.7941 6.19922 7.79999 6.19922C6.80588 6.19922 6 7.00509 6 7.99921C6 8.99332 6.80588 9.79922 7.79999 9.79922Z" stroke="#969696" stroke-width="1.5" stroke-linecap="round" stroke-linejoin="round"/>
<path d="M16.2 9.79922C17.1941 9.79922 18 8.99332 18 7.99921C18 7.00509 17.1941 6.19922 16.2 6.19922C15.2059 6.19922 14.4 7.00509 14.4 7.99921C14.4 8.99332 15.2059 9.79922 16.2 9.79922Z" stroke="#969696" stroke-width="1.5" stroke-linecap="round" stroke-linejoin="round"/>
<path d="M7.88 13.9993C8.15 12.9493 9.10999 12.1693 10.24 12.1793L12.3 12.1893C13.87 12.1993 15.21 11.1893 15.7 9.7793" stroke="#969696" stroke-width="1.5" stroke-linecap="round" stroke-linejoin="round"/>
<path d="M9 2.19922H15C20 2.19922 22 4.19922 22 9.19922V15.1992C22 20.1992 20 22.1992 15 22.1992H9C4 22.1992 2 20.1992 2 15.1992V9.19922C2 4.19922 4 2.19922 9 2.19922Z" stroke="#969696" stroke-width="1.5" stroke-linecap="round" stroke-linejoin="round"/>
</svg>
