<svg width="411" height="414" viewBox="0 0 411 414" fill="none" xmlns="http://www.w3.org/2000/svg">
<g filter="url(#filter0_f_1207_42237)">
<ellipse cx="110.063" cy="13.2897" rx="110.063" ry="13.2897" transform="matrix(0.998896 0.00443529 0.00441155 1.0011 89.7031 351.369)" fill="#1A2B41" fill-opacity="0.15"/>
</g>
<path d="M28.1354 233.828C32.9898 280.891 114.107 310.785 209.315 300.6C304.523 290.415 377.769 244.007 372.914 196.944" stroke="#538FFF" stroke-width="0.841107"/>
<path d="M66.6261 333.829C36.8451 298.579 70.7968 216.175 142.459 149.773C214.122 83.3717 296.358 58.1179 326.139 93.3674" stroke="#538FFF" stroke-width="0.841107"/>
<mask id="mask0_1207_42237" style="mask-type:alpha" maskUnits="userSpaceOnUse" x="58" y="133" width="275" height="190">
<rect width="260.073" height="159.975" rx="10.8377" transform="matrix(0.991681 0.129009 -0.115118 0.993386 75.8636 131.71)" fill="#011154"/>
</mask>
<g mask="url(#mask0_1207_42237)">
<rect width="260.073" height="159.975" rx="10.8377" transform="matrix(0.991681 0.129009 -0.115118 0.993386 75.8636 131.71)" fill="url(#paint0_linear_1207_42237)"/>
<path d="M258.992 332.255C249.755 416.487 94.6473 397.029 44.6698 328.379C9.73863 280.397 -13.7632 204.59 37.493 176.598C77.4263 154.789 136.3 176.149 183.729 211.453C228.105 244.485 265.968 268.63 258.992 332.255Z" fill="#6374BD" fill-opacity="0.15"/>
</g>
<g clip-path="url(#clip0_1207_42237)">
<path d="M295.146 186.203C291.584 185.745 288.183 187.183 287.783 190.595C287.324 194.509 292.94 195.506 292.709 197.472C292.612 198.3 291.577 198.919 289.957 198.71C287.658 198.415 286.061 197.158 286.061 197.158L284.922 200.507C284.922 200.507 286.799 201.637 289.427 201.975C293.322 202.476 296.614 200.932 297.021 197.461C297.506 193.325 291.866 192.334 292.08 190.509C292.156 189.861 293.018 189.25 294.634 189.458C296.456 189.692 297.855 190.637 297.855 190.637L298.964 187.403C298.964 187.403 297.428 186.497 295.146 186.203ZM262.52 182.262L262.375 182.753C262.375 182.753 263.842 183.22 265.128 183.941C266.792 184.792 266.873 185.173 267.033 186.346L268.781 199.057L273.058 199.607L281.492 184.702L277.226 184.153L271.737 194.319L271.074 185.018C271.037 183.959 270.304 183.263 269.322 183.137L262.52 182.262ZM283.208 184.923L278.014 200.244L282.083 200.767L287.264 185.444L283.208 184.923ZM305.899 187.841C304.918 187.715 304.337 188.173 303.848 189.042L296.21 202.584L300.476 203.133L301.581 200.854L306.779 201.523L307.002 203.972L310.766 204.456L309.328 188.282L305.899 187.841ZM305.955 192.168L306.527 198.242L303.139 197.806L305.955 192.168Z" fill="white"/>
</g>
<path d="M92.821 154.454L94.0212 154.609L96.0443 160.097C96.1554 160.39 96.2357 160.689 96.2851 160.993L96.4315 160.984C96.4384 160.718 96.4582 160.445 96.4911 160.164L97.0936 155.005L97.9087 155.111L97.1092 161.955L95.9089 161.8L93.8859 156.312C93.8264 156.147 93.7794 156.004 93.7449 155.885C93.7104 155.765 93.6794 155.615 93.6519 155.435L93.5055 155.444C93.4986 155.71 93.4784 155.987 93.4449 156.274L92.8455 161.405L92.0214 161.299L92.821 154.454ZM99.8537 162.4C99.358 162.336 98.9786 162.16 98.7153 161.871C98.458 161.583 98.3549 161.221 98.4058 160.784C98.4561 160.353 98.6572 160.033 99.009 159.824C99.2962 159.648 99.6936 159.542 100.201 159.504L102.005 159.391C102.056 159.009 101.989 158.7 101.805 158.464C101.604 158.207 101.313 158.054 100.931 158.005C100.626 157.965 100.351 158.015 100.104 158.153C99.8645 158.286 99.6987 158.486 99.6068 158.754L98.8454 158.655C98.987 158.17 99.259 157.813 99.6614 157.586C100.07 157.353 100.523 157.269 101.018 157.333C101.311 157.371 101.577 157.451 101.818 157.573C102.059 157.689 102.256 157.842 102.41 158.032C102.612 158.276 102.726 158.543 102.753 158.832C102.78 159.121 102.776 159.414 102.741 159.713L102.399 162.638L101.638 162.54L101.665 162.306C101.682 162.157 101.732 161.99 101.814 161.807L101.695 161.737C101.504 161.973 101.292 162.149 101.061 162.265C100.899 162.347 100.721 162.397 100.525 162.414C100.334 162.438 100.11 162.434 99.8537 162.4ZM100.022 161.739C100.308 161.776 100.578 161.753 100.83 161.671C101.14 161.559 101.378 161.386 101.545 161.153C101.668 160.986 101.753 160.824 101.802 160.667C101.857 160.51 101.889 160.414 101.899 160.379C101.928 160.291 101.959 160.229 101.994 160.191C102.029 160.153 102.076 160.135 102.137 160.136L102.127 159.989L100.943 160.082L100.292 160.126C99.9135 160.15 99.6282 160.231 99.4361 160.371C99.2827 160.49 99.1938 160.655 99.1693 160.864C99.1428 161.092 99.2051 161.285 99.3562 161.444C99.5133 161.604 99.7352 161.702 100.022 161.739ZM104.198 157.835L104.96 157.933L104.922 158.256C104.912 158.34 104.895 158.41 104.87 158.468C104.852 158.52 104.819 158.57 104.77 158.619L104.886 158.716C105.15 158.434 105.399 158.242 105.636 158.138C105.873 158.029 106.141 157.994 106.439 158.033C106.78 158.077 107.063 158.195 107.289 158.388C107.515 158.575 107.632 158.818 107.64 159.117L107.756 159.132C108.096 158.556 108.637 158.316 109.377 158.412C109.927 158.483 110.32 158.694 110.558 159.047C110.796 159.393 110.881 159.86 110.813 160.446L110.435 163.675L109.674 163.577L110.03 160.527C110.08 160.102 110.028 159.765 109.876 159.514C109.73 159.259 109.499 159.111 109.182 159.07C108.854 159.027 108.572 159.103 108.337 159.298C108.149 159.455 108.002 159.673 107.897 159.951C107.798 160.23 107.722 160.593 107.67 161.042L107.408 163.284L106.646 163.186L107.003 160.136C107.052 159.717 106.997 159.38 106.839 159.122C106.687 158.866 106.456 158.718 106.146 158.678C105.817 158.635 105.534 158.72 105.297 158.933C105.129 159.081 104.989 159.29 104.879 159.561C104.775 159.827 104.696 160.19 104.642 160.651L104.38 162.894L103.619 162.795L104.198 157.835ZM113.868 164.209C113.402 164.149 112.997 163.984 112.653 163.715C112.314 163.447 112.066 163.106 111.909 162.691C111.751 162.276 111.701 161.826 111.757 161.342C111.811 160.881 111.956 160.469 112.193 160.105C112.43 159.735 112.742 159.453 113.128 159.26C113.52 159.068 113.961 159.003 114.451 159.067C114.875 159.121 115.258 159.268 115.6 159.506C115.941 159.745 116.201 160.064 116.379 160.463C116.557 160.856 116.616 161.31 116.556 161.824L116.525 162.093L112.987 161.637C112.945 161.631 112.861 161.621 112.736 161.604C112.616 161.589 112.507 161.569 112.407 161.544L112.363 161.684C112.415 161.703 112.449 161.728 112.463 161.76C112.484 161.787 112.497 161.835 112.501 161.902C112.512 161.964 112.523 162.023 112.535 162.079C112.616 162.478 112.78 162.809 113.028 163.072C113.282 163.335 113.585 163.49 113.938 163.535C114.296 163.581 114.615 163.525 114.894 163.367C115.173 163.209 115.386 162.991 115.534 162.712L116.349 162.817C116.129 163.299 115.807 163.67 115.383 163.931C114.958 164.192 114.453 164.285 113.868 164.209ZM112.615 161.079C112.688 161.028 112.759 160.994 112.827 160.979C112.902 160.958 112.991 160.954 113.092 160.967L115.314 161.254C115.427 161.269 115.521 161.296 115.595 161.336C115.67 161.37 115.74 161.421 115.804 161.491L115.915 161.396C115.86 161.346 115.826 161.305 115.811 161.273C115.804 161.235 115.797 161.189 115.791 161.134C115.786 161.024 115.768 160.918 115.737 160.817C115.645 160.52 115.476 160.277 115.232 160.087C114.993 159.899 114.712 159.783 114.39 159.742C114.062 159.699 113.763 159.74 113.494 159.863C113.231 159.987 113.014 160.18 112.844 160.444C112.777 160.55 112.732 160.648 112.71 160.736C112.698 160.789 112.681 160.829 112.659 160.857C112.638 160.885 112.595 160.918 112.529 160.959L112.615 161.079ZM122.773 165.358C122.081 165.269 121.517 165.035 121.082 164.658C120.648 164.274 120.346 163.801 120.175 163.238C120.004 162.676 119.956 162.075 120.031 161.435C120.106 160.795 120.291 160.224 120.586 159.722C120.881 159.22 121.283 158.841 121.792 158.584C122.3 158.328 122.901 158.245 123.594 158.334C124.09 158.398 124.522 158.539 124.89 158.757C125.259 158.974 125.545 159.248 125.749 159.578C125.953 159.908 126.068 160.272 126.094 160.67L125.199 160.554C125.16 160.16 124.986 159.831 124.677 159.567C124.375 159.297 123.98 159.131 123.49 159.068C122.994 159.004 122.559 159.069 122.185 159.264C121.812 159.452 121.511 159.744 121.283 160.14C121.061 160.536 120.918 161.003 120.855 161.541C120.792 162.086 120.822 162.578 120.946 163.019C121.077 163.461 121.301 163.824 121.619 164.108C121.938 164.386 122.346 164.557 122.841 164.621C123.343 164.685 123.769 164.619 124.119 164.421C124.476 164.218 124.724 163.889 124.862 163.434L125.758 163.549C125.572 164.205 125.215 164.696 124.686 165.022C124.163 165.344 123.526 165.456 122.773 165.358ZM127.915 166.022C127.42 165.958 127.04 165.782 126.777 165.493C126.52 165.205 126.417 164.842 126.468 164.406C126.518 163.975 126.719 163.655 127.071 163.445C127.358 163.27 127.755 163.163 128.263 163.126L130.067 163.013C130.118 162.631 130.051 162.321 129.866 162.085C129.666 161.829 129.375 161.676 128.993 161.626C128.688 161.587 128.412 161.636 128.166 161.775C127.926 161.908 127.76 162.108 127.668 162.375L126.907 162.277C127.049 161.791 127.321 161.435 127.723 161.208C128.132 160.975 128.584 160.891 129.08 160.955C129.373 160.992 129.639 161.072 129.879 161.194C130.12 161.311 130.318 161.464 130.471 161.653C130.673 161.898 130.788 162.165 130.814 162.453C130.841 162.742 130.837 163.036 130.802 163.335L130.461 166.26L129.699 166.161L129.727 165.928C129.744 165.778 129.794 165.612 129.876 165.428L129.757 165.358C129.565 165.595 129.354 165.771 129.122 165.886C128.961 165.969 128.783 166.019 128.587 166.036C128.396 166.06 128.172 166.055 127.915 166.022ZM128.083 165.361C128.37 165.398 128.639 165.375 128.892 165.292C129.202 165.18 129.44 165.008 129.607 164.774C129.729 164.608 129.815 164.446 129.864 164.288C129.918 164.132 129.951 164.036 129.961 164C129.989 163.913 130.021 163.85 130.056 163.812C130.09 163.774 130.138 163.756 130.198 163.758L130.188 163.611L129.004 163.704L128.354 163.748C127.975 163.772 127.69 163.853 127.498 163.992C127.344 164.112 127.255 164.277 127.231 164.486C127.204 164.713 127.267 164.906 127.418 165.065C127.575 165.225 127.797 165.324 128.083 165.361ZM132.26 161.456L133.021 161.554L132.984 161.877C132.974 161.961 132.956 162.032 132.932 162.089C132.913 162.141 132.88 162.192 132.832 162.24L132.948 162.337C133.187 162.058 133.436 161.866 133.697 161.76C133.964 161.655 134.283 161.626 134.653 161.674L134.689 161.679L134.6 162.441L134.34 162.408C133.94 162.356 133.607 162.434 133.34 162.643C133.014 162.886 132.817 163.307 132.747 163.905L132.442 166.515L131.68 166.417L132.26 161.456ZM136.782 167.166C136.346 167.11 135.973 166.953 135.664 166.694C135.355 166.436 135.13 166.1 134.991 165.688C134.857 165.276 134.819 164.819 134.878 164.316C134.937 163.814 135.078 163.38 135.303 163.014C135.534 162.644 135.827 162.372 136.18 162.199C136.54 162.027 136.94 161.969 137.382 162.026C137.747 162.073 138.038 162.178 138.255 162.339C138.479 162.502 138.688 162.756 138.884 163.103L139.019 163.039C138.983 162.98 138.96 162.922 138.948 162.866C138.943 162.804 138.946 162.732 138.955 162.648L139.213 160.441L139.975 160.54L139.175 167.384L138.414 167.286L138.451 166.963C138.461 166.879 138.475 166.811 138.493 166.759C138.518 166.701 138.555 166.648 138.603 166.6L138.487 166.503C138.217 166.79 137.955 166.984 137.701 167.085C137.452 167.186 137.146 167.213 136.782 167.166ZM136.932 166.503C137.237 166.542 137.518 166.496 137.776 166.366C138.033 166.235 138.245 166.035 138.41 165.765C138.581 165.489 138.688 165.172 138.73 164.813C138.772 164.449 138.742 164.114 138.638 163.809C138.54 163.505 138.381 163.257 138.161 163.065C137.942 162.866 137.68 162.748 137.375 162.708C137.071 162.669 136.792 162.718 136.54 162.855C136.294 162.988 136.092 163.189 135.933 163.46C135.78 163.732 135.682 164.05 135.64 164.415C135.598 164.773 135.62 165.104 135.705 165.407C135.797 165.71 135.947 165.96 136.154 166.157C136.368 166.348 136.628 166.464 136.932 166.503Z" fill="white" fill-opacity="0.7"/>
<path d="M89.0563 181.559L90.2602 181.714C90.6949 181.77 91.0285 181.711 91.261 181.537C91.5028 181.356 91.6497 181.044 91.7015 180.6L92.5499 173.341L93.7036 173.49L92.8538 180.761C92.7931 181.28 92.6721 181.698 92.4909 182.015C92.3096 182.331 92.029 182.554 91.6489 182.684C91.2772 182.814 90.7737 182.839 90.1383 182.757L88.9344 182.601L89.0563 181.559ZM96.7551 183.738C95.777 183.611 95.1382 183.159 94.8388 182.381C94.7289 182.087 94.6698 181.794 94.6612 181.504C94.662 181.207 94.6825 180.887 94.7226 180.543L95.2114 176.361L96.2773 176.499L95.7885 180.681C95.7024 181.418 95.7755 181.954 96.0078 182.29C96.2116 182.58 96.5517 182.755 97.0283 182.817C97.555 182.885 97.9972 182.768 98.355 182.465C98.6081 182.26 98.8047 181.958 98.9446 181.56C99.0928 181.162 99.2086 180.608 99.2917 179.896L99.6381 176.932L100.704 177.07L99.8924 184.015L98.8264 183.877L98.8793 183.425C98.893 183.308 98.9126 183.213 98.9381 183.14C98.973 183.059 99.0241 182.985 99.0914 182.917L98.9291 182.781C98.5605 183.176 98.2103 183.449 97.8785 183.602C97.5476 183.746 97.1732 183.792 96.7551 183.738ZM103.292 184.453C102.732 184.381 102.333 184.202 102.095 183.916C101.857 183.631 101.776 183.157 101.854 182.496L102.77 174.659L103.835 174.797L102.939 182.47C102.91 182.713 102.905 182.903 102.923 183.042C102.942 183.172 103.005 183.282 103.113 183.372C103.222 183.454 103.402 183.511 103.653 183.544L103.992 183.588L103.882 184.529L103.292 184.453ZM105.153 184.693L105.964 177.748L107.03 177.886L106.219 184.831L105.153 184.693ZM106.643 176.625C106.417 176.596 106.234 176.496 106.093 176.324C105.952 176.145 105.895 175.946 105.92 175.728C105.946 175.511 106.047 175.337 106.223 175.207C106.4 175.076 106.601 175.026 106.827 175.055C107.052 175.084 107.236 175.184 107.377 175.355C107.518 175.527 107.576 175.721 107.551 175.939C107.525 176.156 107.424 176.335 107.246 176.473C107.07 176.603 106.869 176.654 106.643 176.625ZM109.948 185.439C109.254 185.35 108.723 185.103 108.354 184.698C107.994 184.295 107.85 183.788 107.921 183.176C107.992 182.574 108.273 182.126 108.766 181.832C109.168 181.587 109.724 181.437 110.435 181.385L112.961 181.226C113.032 180.691 112.938 180.258 112.68 179.928C112.399 179.569 111.992 179.354 111.456 179.285C111.03 179.23 110.644 179.3 110.299 179.493C109.964 179.679 109.731 179.96 109.603 180.334L108.537 180.196C108.735 179.517 109.116 179.017 109.679 178.699C110.252 178.374 110.885 178.256 111.579 178.345C111.989 178.398 112.362 178.51 112.698 178.681C113.036 178.843 113.312 179.057 113.527 179.323C113.809 179.665 113.969 180.039 114.007 180.443C114.045 180.847 114.039 181.259 113.99 181.677L113.512 185.772L112.446 185.634L112.484 185.308C112.508 185.098 112.578 184.865 112.693 184.608L112.526 184.51C112.258 184.841 111.962 185.087 111.638 185.249C111.412 185.365 111.162 185.435 110.888 185.459C110.621 185.492 110.307 185.486 109.948 185.439ZM110.183 184.514C110.585 184.565 110.962 184.533 111.315 184.417C111.749 184.261 112.083 184.019 112.316 183.692C112.488 183.46 112.608 183.233 112.676 183.012C112.752 182.793 112.798 182.658 112.812 182.609C112.852 182.487 112.896 182.399 112.945 182.346C112.993 182.292 113.06 182.267 113.144 182.269L113.13 182.064L111.473 182.194L110.562 182.255C110.032 182.289 109.632 182.403 109.364 182.598C109.149 182.765 109.024 182.996 108.99 183.289C108.953 183.607 109.04 183.877 109.252 184.1C109.472 184.324 109.782 184.462 110.183 184.514ZM118.166 185.314L119.37 185.469C119.805 185.525 120.138 185.466 120.371 185.292C120.613 185.111 120.759 184.799 120.811 184.355L121.66 177.096L122.813 177.245L121.964 184.516C121.903 185.035 121.782 185.453 121.601 185.77C121.419 186.086 121.139 186.309 120.759 186.439C120.387 186.569 119.884 186.594 119.248 186.512L118.044 186.356L118.166 185.314ZM125.489 187.444C124.795 187.355 124.264 187.108 123.895 186.703C123.535 186.3 123.39 185.792 123.462 185.181C123.532 184.578 123.814 184.13 124.306 183.837C124.709 183.591 125.265 183.442 125.975 183.389L128.502 183.231C128.573 182.696 128.479 182.263 128.221 181.932C127.94 181.573 127.532 181.359 126.997 181.29C126.571 181.235 126.185 181.304 125.84 181.498C125.504 181.684 125.272 181.964 125.143 182.338L124.078 182.201C124.276 181.521 124.657 181.022 125.22 180.704C125.793 180.378 126.426 180.26 127.12 180.35C127.529 180.403 127.903 180.514 128.239 180.685C128.576 180.848 128.853 181.062 129.068 181.328C129.35 181.67 129.51 182.043 129.548 182.448C129.585 182.852 129.58 183.263 129.531 183.682L129.052 187.776L127.986 187.639L128.025 187.312C128.049 187.103 128.119 186.87 128.234 186.613L128.067 186.515C127.799 186.845 127.503 187.092 127.179 187.254C126.953 187.369 126.703 187.439 126.428 187.463C126.161 187.497 125.848 187.49 125.489 187.444ZM125.724 186.518C126.126 186.57 126.503 186.538 126.856 186.422C127.29 186.266 127.624 186.024 127.857 185.697C128.028 185.464 128.148 185.237 128.216 185.017C128.293 184.797 128.338 184.663 128.353 184.614C128.392 184.491 128.437 184.404 128.485 184.35C128.534 184.297 128.601 184.272 128.685 184.274L128.671 184.068L127.014 184.199L126.103 184.26C125.573 184.293 125.173 184.408 124.904 184.602C124.69 184.77 124.565 185 124.531 185.294C124.494 185.612 124.581 185.882 124.792 186.105C125.012 186.329 125.323 186.467 125.724 186.518ZM131.572 181.051L132.638 181.189L132.585 181.641C132.571 181.758 132.547 181.857 132.512 181.938C132.486 182.011 132.44 182.081 132.373 182.149L132.535 182.285C132.904 181.89 133.253 181.621 133.584 181.477C133.916 181.324 134.291 181.275 134.709 181.329C135.185 181.39 135.582 181.556 135.898 181.826C136.216 182.088 136.38 182.428 136.39 182.846L136.553 182.867C137.029 182.061 137.785 181.726 138.822 181.859C139.591 181.958 140.142 182.255 140.475 182.748C140.809 183.233 140.928 183.886 140.832 184.706L140.303 189.227L139.237 189.09L139.736 184.82C139.806 184.226 139.734 183.753 139.52 183.403C139.316 183.045 138.992 182.837 138.549 182.78C138.089 182.721 137.695 182.827 137.366 183.099C137.103 183.32 136.897 183.625 136.75 184.014C136.611 184.404 136.505 184.913 136.432 185.541L136.065 188.681L134.999 188.543L135.498 184.273C135.566 183.687 135.49 183.214 135.269 182.854C135.056 182.495 134.733 182.288 134.298 182.232C133.838 182.172 133.442 182.291 133.111 182.589C132.874 182.796 132.679 183.089 132.524 183.469C132.379 183.841 132.268 184.35 132.193 184.994L131.826 188.134L130.76 187.996L131.572 181.051ZM145.109 189.975C144.457 189.891 143.89 189.66 143.408 189.284C142.934 188.908 142.587 188.43 142.366 187.849C142.146 187.268 142.075 186.639 142.154 185.961C142.23 185.316 142.433 184.739 142.764 184.229C143.096 183.711 143.532 183.317 144.073 183.047C144.622 182.777 145.24 182.687 145.925 182.775C146.519 182.852 147.055 183.057 147.534 183.391C148.012 183.725 148.376 184.171 148.625 184.73C148.874 185.281 148.957 185.916 148.873 186.636L148.829 187.013L143.875 186.374C143.817 186.366 143.7 186.351 143.524 186.328C143.357 186.307 143.203 186.279 143.063 186.243L143.002 186.44C143.075 186.466 143.122 186.502 143.142 186.547C143.172 186.585 143.189 186.651 143.195 186.745C143.211 186.832 143.227 186.915 143.243 186.993C143.356 187.552 143.586 188.015 143.933 188.383C144.289 188.752 144.714 188.968 145.207 189.031C145.708 189.096 146.155 189.018 146.545 188.796C146.936 188.575 147.235 188.269 147.442 187.879L148.583 188.026C148.275 188.701 147.824 189.22 147.23 189.586C146.635 189.951 145.929 190.081 145.109 189.975ZM143.356 185.593C143.457 185.521 143.556 185.474 143.652 185.453C143.757 185.424 143.881 185.418 144.023 185.437L147.133 185.838C147.292 185.858 147.423 185.897 147.527 185.952C147.632 186 147.729 186.072 147.82 186.169L147.975 186.036C147.899 185.966 147.85 185.909 147.83 185.864C147.819 185.812 147.81 185.747 147.802 185.669C147.794 185.515 147.769 185.368 147.726 185.226C147.597 184.81 147.361 184.469 147.018 184.204C146.684 183.94 146.292 183.779 145.84 183.721C145.38 183.661 144.962 183.718 144.586 183.89C144.217 184.064 143.914 184.335 143.676 184.704C143.582 184.853 143.519 184.989 143.488 185.113C143.471 185.187 143.447 185.243 143.417 185.282C143.387 185.321 143.327 185.368 143.235 185.424L143.356 185.593ZM152.708 190.955C151.83 190.842 151.139 190.54 150.637 190.05C150.134 189.561 149.867 188.94 149.836 188.188L150.952 188.332C150.992 188.788 151.165 189.162 151.47 189.457C151.783 189.752 152.237 189.938 152.83 190.015C153.315 190.077 153.71 190.035 154.016 189.887C154.33 189.741 154.507 189.496 154.548 189.153C154.579 188.885 154.516 188.66 154.359 188.478C154.211 188.289 154.009 188.136 153.751 188.017C153.502 187.9 153.164 187.772 152.739 187.632C152.209 187.453 151.783 187.287 151.461 187.135C151.149 186.976 150.89 186.756 150.685 186.475C150.481 186.193 150.404 185.831 150.456 185.387C150.529 184.759 150.821 184.299 151.33 184.008C151.848 183.718 152.474 183.62 153.21 183.715C153.962 183.812 154.566 184.09 155.022 184.548C155.478 185.006 155.724 185.586 155.761 186.288L154.77 186.16C154.72 185.72 154.548 185.375 154.255 185.125C153.961 184.874 153.576 184.719 153.1 184.657C152.64 184.598 152.27 184.639 151.991 184.782C151.72 184.917 151.567 185.135 151.532 185.436C151.505 185.671 151.563 185.865 151.706 186.02C151.849 186.174 152.033 186.304 152.259 186.41C152.485 186.507 152.806 186.625 153.223 186.764C153.77 186.945 154.212 187.121 154.549 187.292C154.886 187.454 155.164 187.69 155.383 187.998C155.602 188.299 155.683 188.692 155.627 189.177C155.55 189.83 155.256 190.319 154.742 190.644C154.23 190.96 153.552 191.064 152.708 190.955Z" fill="white"/>
<path d="M80.5791 256.516L81.377 249.671L85.7928 250.242L85.706 250.987L82.1142 250.522L81.8465 252.819L85.0173 253.229L84.9316 253.964L81.7608 253.554L81.49 255.878L85.0817 256.342L84.9949 257.087L80.5791 256.516ZM88.3005 254.018L86.368 250.317L87.3532 250.444L88.6488 252.979C88.7329 253.142 88.7873 253.273 88.812 253.374C88.8373 253.468 88.8434 253.572 88.8302 253.686L88.9735 253.704C88.9867 253.59 89.0165 253.491 89.0628 253.406C89.1097 253.315 89.1927 253.201 89.3117 253.065L91.151 250.935L92.1363 251.063L89.4111 254.161L91.3743 257.912L90.3979 257.786L89.1177 255.353C89.0086 255.144 88.9361 254.986 88.9002 254.878C88.871 254.765 88.8637 254.646 88.8783 254.52L88.735 254.502C88.7204 254.628 88.6829 254.741 88.6226 254.843C88.5689 254.939 88.4652 255.074 88.3116 255.248L86.5106 257.283L85.5343 257.157L88.3005 254.018ZM93.0194 251.177L95.5632 251.506C96.238 251.593 96.7469 251.829 97.09 252.213C97.4398 252.592 97.5774 253.102 97.5028 253.742C97.4303 254.364 97.1761 254.829 96.7402 255.137C96.3109 255.439 95.7649 255.548 95.102 255.462L93.3823 255.24L93.0456 258.128L92.2215 258.022L93.0194 251.177ZM95.0803 254.712C95.5521 254.773 95.9255 254.716 96.2007 254.539C96.4766 254.356 96.6379 254.064 96.6846 253.663C96.7306 253.269 96.6378 252.947 96.4061 252.698C96.1745 252.45 95.8287 252.296 95.3689 252.236L93.7567 252.028L93.468 254.504L95.0803 254.712ZM101.259 252.242L103.14 252.486C104.275 252.632 105.109 253.044 105.642 253.72C106.175 254.396 106.378 255.284 106.25 256.385C106.124 257.467 105.721 258.265 105.043 258.778C104.371 259.292 103.468 259.476 102.333 259.329L100.461 259.087L101.259 252.242ZM102.411 258.584C103.235 258.69 103.915 258.581 104.45 258.255C104.985 257.93 105.31 257.271 105.426 256.278C105.636 254.478 104.842 253.462 103.044 253.229L101.996 253.094L101.372 258.449L102.411 258.584ZM106.186 259.828L109.501 253.308L110.432 253.429L112.151 260.599L111.318 260.491L110.914 258.736L107.814 258.335L107.019 259.935L106.186 259.828ZM110.722 257.965L110.025 254.897C109.989 254.734 109.962 254.6 109.944 254.495C109.932 254.39 109.933 254.275 109.948 254.149L109.805 254.131C109.79 254.256 109.762 254.368 109.72 254.466C109.685 254.564 109.631 254.688 109.559 254.837L108.178 257.636L110.722 257.965ZM113.885 260.823L114.596 254.723L112.285 254.424L112.372 253.68L117.827 254.385L117.74 255.13L115.42 254.83L114.709 260.93L113.885 260.823ZM117.859 261.337L118.657 254.493L123.073 255.064L122.986 255.808L119.394 255.344L119.127 257.64L122.298 258.05L122.212 258.786L119.041 258.376L118.77 260.699L122.362 261.164L122.275 261.908L117.859 261.337Z" fill="white" fill-opacity="0.7"/>
<path d="M80.7306 268.821C80.7521 268.636 80.8031 268.457 80.8837 268.286L80.7814 268.227C80.6156 268.454 80.4215 268.638 80.199 268.779C79.9692 268.932 79.7127 269.053 79.4294 269.144C79.1528 269.229 78.9039 269.285 78.6827 269.311L78.7764 268.504C79.2041 268.474 79.6111 268.336 79.9974 268.089C80.3897 267.842 80.6997 267.573 80.9276 267.28L81.7337 267.385L80.9391 274.23L80.1151 274.123L80.7306 268.821ZM82.2393 273.652L84.6351 272.124C85.1719 271.781 85.5802 271.448 85.86 271.127C86.1405 270.799 86.3058 270.419 86.3558 269.989C86.4037 269.576 86.3334 269.242 86.1448 268.987C85.9569 268.726 85.657 268.568 85.245 268.515C84.7971 268.457 84.4319 268.549 84.1491 268.792C83.8671 269.028 83.677 269.413 83.5786 269.947L82.7546 269.84C82.8685 269.12 83.1531 268.574 83.6084 268.202C84.0638 267.83 84.6347 267.689 85.3214 267.778C85.7394 267.832 86.0972 267.961 86.3949 268.163C86.6927 268.366 86.9107 268.628 87.0492 268.95C87.1876 269.271 87.2336 269.632 87.1871 270.033C87.1232 270.583 86.9089 271.071 86.5443 271.498C86.1796 271.924 85.6929 272.331 85.0842 272.72L83.9052 273.477C83.82 273.533 83.7287 273.588 83.6315 273.642C83.5403 273.697 83.4245 273.755 83.2841 273.815L83.3254 273.93C83.4809 273.896 83.6104 273.876 83.714 273.871C83.8183 273.861 83.9272 273.863 84.0406 273.877L87.0321 274.266L86.9456 275.01L82.1539 274.388L82.2393 273.652ZM88.0077 276.159L87.3001 276.067L91.3093 268.629L92.0169 268.721L88.0077 276.159ZM92.0967 274.933L94.4925 273.404C95.0293 273.061 95.4376 272.729 95.7174 272.407C95.9979 272.079 96.1632 271.7 96.2132 271.269C96.2611 270.856 96.1907 270.522 96.0022 270.267C95.8143 270.006 95.5144 269.849 95.1024 269.795C94.6545 269.737 94.2893 269.829 94.0065 270.072C93.7245 270.308 93.5343 270.693 93.436 271.227L92.612 271.12C92.7259 270.4 93.0105 269.854 93.4658 269.482C93.9211 269.11 94.4921 268.969 95.1788 269.058C95.5968 269.113 95.9546 269.241 96.2523 269.444C96.5501 269.646 96.7681 269.908 96.9066 270.23C97.045 270.551 97.091 270.912 97.0445 271.313C96.9806 271.863 96.7663 272.352 96.4017 272.778C96.037 273.204 95.5503 273.611 94.9416 274L93.7626 274.757C93.6774 274.813 93.5861 274.868 93.4889 274.922C93.3977 274.977 93.2819 275.035 93.1415 275.096L93.1827 275.21C93.3383 275.176 93.4678 275.156 93.5714 275.151C93.6757 275.141 93.7846 275.143 93.898 275.157L96.8895 275.546L96.803 276.29L92.0113 275.668L92.0967 274.933ZM100.615 272.068C101.033 272.123 101.395 272.27 101.7 272.51C102.006 272.744 102.232 273.046 102.377 273.417C102.522 273.782 102.569 274.186 102.518 274.628C102.464 275.089 102.315 275.491 102.069 275.836C101.823 276.18 101.505 276.437 101.116 276.605C100.732 276.773 100.314 276.828 99.8602 276.769C99.4482 276.716 99.0847 276.584 98.7698 276.373C98.4615 276.157 98.2239 275.88 98.057 275.543C97.8901 275.205 97.809 274.834 97.8137 274.427L98.6467 274.536C98.6592 274.95 98.7892 275.292 99.0368 275.561C99.2851 275.824 99.6092 275.981 100.009 276.033C100.469 276.093 100.849 275.981 101.148 275.698C101.454 275.416 101.635 275.03 101.692 274.539C101.747 274.067 101.653 273.672 101.411 273.355C101.169 273.039 100.821 272.851 100.367 272.792C100.081 272.755 99.8064 272.795 99.5442 272.913C99.288 273.031 99.0793 273.211 98.9181 273.451L98.0135 273.333L99.1326 269.645L102.715 270.11L102.629 270.854L99.6642 270.469L99.2378 271.871C99.229 271.894 99.2088 271.965 99.177 272.082C99.1459 272.193 99.0858 272.319 98.9968 272.459L99.088 272.535C99.5328 272.149 100.042 271.994 100.615 272.068Z" fill="white"/>
<path d="M162.282 266.865C161.589 266.776 161.025 266.543 160.59 266.165C160.157 265.781 159.854 265.308 159.684 264.746C159.513 264.184 159.465 263.583 159.54 262.943C159.615 262.303 159.8 261.732 160.095 261.23C160.39 260.727 160.792 260.348 161.301 260.092C161.81 259.836 162.411 259.752 163.104 259.841C163.599 259.905 164.031 260.046 164.4 260.263C164.769 260.481 165.055 260.754 165.259 261.084C165.463 261.414 165.578 261.778 165.604 262.176L164.708 262.06C164.669 261.667 164.495 261.338 164.187 261.074C163.885 260.804 163.489 260.638 163 260.575C162.504 260.511 162.069 260.576 161.695 260.771C161.321 260.96 161.02 261.252 160.792 261.647C160.57 262.043 160.427 262.511 160.364 263.049C160.3 263.593 160.331 264.086 160.455 264.527C160.585 264.968 160.809 265.331 161.128 265.615C161.447 265.893 161.854 266.064 162.35 266.127C162.851 266.192 163.277 266.125 163.628 265.928C163.985 265.725 164.233 265.396 164.371 264.94L165.267 265.055C165.081 265.711 164.723 266.202 164.194 266.529C163.671 266.85 163.034 266.962 162.282 266.865ZM166.275 260.341L167.108 260.448L168.4 266.033C168.44 266.208 168.466 266.351 168.477 266.461C168.489 266.566 168.489 266.672 168.476 266.78L168.619 266.798C168.632 266.691 168.656 266.588 168.692 266.489C168.728 266.384 168.786 266.252 168.866 266.092L171.407 261.002L172.24 261.109L168.922 267.63L167.991 267.51L166.275 260.341ZM172.494 261.142L173.327 261.249L174.619 266.834C174.66 267.009 174.685 267.152 174.697 267.262C174.709 267.367 174.708 267.473 174.696 267.581L174.839 267.599C174.852 267.492 174.876 267.389 174.912 267.29C174.948 267.185 175.006 267.053 175.085 266.894L177.627 261.803L178.46 261.91L175.142 268.431L174.21 268.311L172.494 261.142ZM181.807 262.341L183.007 262.496L185.029 267.983C185.14 268.277 185.22 268.575 185.269 268.879L185.416 268.871C185.423 268.604 185.443 268.331 185.476 268.05L186.079 262.892L186.895 262.997L186.093 269.841L184.893 269.687L182.871 264.2C182.812 264.034 182.765 263.891 182.73 263.772C182.696 263.652 182.665 263.502 182.637 263.323L182.491 263.331C182.484 263.597 182.464 263.874 182.43 264.161L181.83 269.292L181.005 269.186L181.807 262.341ZM189.976 270.432C189.134 270.324 188.526 270.027 188.152 269.542C187.779 269.057 187.637 268.425 187.728 267.648L188.252 263.172L189.076 263.278L188.552 267.754C188.488 268.304 188.579 268.747 188.824 269.082C189.07 269.417 189.482 269.622 190.062 269.697C190.641 269.771 191.088 269.677 191.404 269.414C191.72 269.151 191.91 268.745 191.974 268.195L192.498 263.718L193.322 263.825L192.798 268.301C192.707 269.078 192.425 269.655 191.95 270.031C191.476 270.407 190.818 270.541 189.976 270.432ZM194.683 264L196.161 264.19L197.153 269.39C197.198 269.626 197.224 269.815 197.232 269.955C197.246 270.097 197.239 270.287 197.211 270.526L197.354 270.545C197.382 270.306 197.416 270.119 197.456 269.984C197.502 269.851 197.574 269.675 197.672 269.457L199.834 264.663L201.321 264.855L200.52 271.699L199.696 271.593L200.315 266.301C200.347 266.031 200.394 265.728 200.458 265.39L200.317 265.354C200.227 265.652 200.11 265.952 199.966 266.256L197.608 271.324L196.793 271.219L195.657 265.701C195.6 265.414 195.558 265.093 195.533 264.738L195.397 264.738C195.381 265.082 195.357 265.389 195.326 265.658L194.706 270.95L193.882 270.844L194.683 264ZM202.74 265.038L205.311 265.369C206.057 265.465 206.587 265.703 206.9 266.083C207.171 266.41 207.276 266.833 207.215 267.353C207.166 267.772 207.018 268.108 206.77 268.361C206.528 268.615 206.231 268.72 205.878 268.674L205.862 268.818C206.339 268.879 206.693 269.071 206.922 269.391C207.152 269.706 207.238 270.109 207.181 270.599C207.116 271.15 206.897 271.571 206.524 271.862C206.271 272.048 205.976 272.168 205.636 272.222C205.297 272.269 204.957 272.271 204.617 272.227L201.939 271.882L202.74 265.038ZM204.963 268.338C205.363 268.389 205.685 268.331 205.929 268.162C206.179 267.994 206.325 267.733 206.366 267.38C206.404 267.057 206.338 266.794 206.168 266.59C205.956 266.326 205.582 266.159 205.044 266.09L203.477 265.888L203.216 268.113L204.963 268.338ZM204.615 271.471C204.853 271.502 205.086 271.51 205.312 271.497C205.537 271.483 205.743 271.41 205.929 271.276C206.173 271.101 206.318 270.822 206.363 270.439C206.421 269.943 206.312 269.607 206.035 269.432C205.759 269.257 205.438 269.146 205.074 269.099L203.13 268.848L202.85 271.244L204.615 271.471ZM208.123 272.679L208.924 265.834L213.34 266.403L213.253 267.147L209.661 266.685L209.393 268.981L212.564 269.39L212.477 270.125L209.306 269.717L209.034 272.04L212.626 272.503L212.539 273.247L208.123 272.679ZM214.444 266.545L216.988 266.873C217.663 266.96 218.172 267.195 218.515 267.579C218.864 267.958 219.002 268.468 218.927 269.107C218.865 269.634 218.671 270.049 218.345 270.353C218.067 270.602 217.8 270.711 217.543 270.677C217.507 270.673 217.46 270.661 217.402 270.641L217.334 270.751C217.413 270.803 217.466 270.865 217.495 270.935C217.529 271.006 217.566 271.102 217.606 271.223L218.444 274.008L217.566 273.895L216.688 270.831L214.807 270.589L214.467 273.496L213.643 273.389L214.444 266.545ZM216.504 270.079C216.975 270.14 217.349 270.082 217.624 269.905C217.9 269.722 218.062 269.43 218.109 269.029C218.155 268.635 218.062 268.313 217.831 268.065C217.599 267.816 217.253 267.663 216.793 267.603L215.181 267.396L214.891 269.872L216.504 270.079Z" fill="white" fill-opacity="0.7"/>
<path d="M159.556 278.709C159.577 278.524 159.628 278.345 159.709 278.174L159.607 278.115C159.441 278.342 159.247 278.526 159.024 278.668C158.795 278.82 158.538 278.941 158.255 279.032C157.978 279.117 157.729 279.173 157.508 279.199L157.602 278.392C158.029 278.362 158.436 278.224 158.823 277.977C159.215 277.73 159.525 277.461 159.753 277.169L160.559 277.273L159.765 284.119L158.941 284.012L159.556 278.709ZM161.065 283.541L163.461 282.013C163.997 281.67 164.406 281.337 164.685 281.016C164.966 280.688 165.131 280.309 165.181 279.878C165.229 279.465 165.159 279.131 164.97 278.876C164.782 278.615 164.482 278.457 164.07 278.404C163.622 278.346 163.257 278.438 162.974 278.68C162.692 278.917 162.502 279.302 162.404 279.836L161.58 279.728C161.694 279.009 161.978 278.463 162.434 278.091C162.889 277.719 163.46 277.578 164.146 277.667C164.564 277.721 164.922 277.85 165.22 278.052C165.518 278.255 165.736 278.517 165.874 278.839C166.013 279.16 166.059 279.521 166.012 279.922C165.949 280.472 165.734 280.961 165.37 281.387C165.005 281.813 164.519 282.22 163.91 282.609L162.731 283.366C162.646 283.422 162.555 283.477 162.457 283.531C162.366 283.586 162.25 283.643 162.11 283.704L162.151 283.819C162.307 283.784 162.436 283.765 162.54 283.76C162.644 283.749 162.753 283.751 162.866 283.766L165.858 284.155L165.772 284.9L160.98 284.277L161.065 283.541ZM168.945 285.394C168.193 285.296 167.615 285.027 167.212 284.586C166.809 284.139 166.628 283.584 166.668 282.922L167.492 283.029C167.488 283.484 167.612 283.852 167.864 284.134C168.117 284.409 168.509 284.582 169.041 284.651C169.488 284.709 169.86 284.639 170.156 284.441C170.452 284.236 170.624 283.931 170.671 283.524C170.723 283.076 170.597 282.731 170.291 282.491C169.986 282.251 169.576 282.098 169.063 282.031L168.642 281.976L168.728 281.232L169.131 281.284C169.507 281.333 169.838 281.279 170.123 281.121C170.413 280.965 170.581 280.698 170.624 280.322C170.662 279.999 170.584 279.73 170.39 279.517C170.198 279.298 169.922 279.165 169.564 279.118C169.17 279.067 168.837 279.139 168.566 279.334C168.295 279.53 168.113 279.84 168.022 280.265L167.198 280.158C167.261 279.766 167.41 279.424 167.644 279.133C167.878 278.841 168.166 278.63 168.508 278.498C168.858 278.362 169.226 278.318 169.614 278.369C170.02 278.422 170.37 278.546 170.662 278.742C170.955 278.932 171.17 279.172 171.306 279.463C171.442 279.754 171.49 280.07 171.45 280.411C171.421 280.662 171.338 280.885 171.2 281.079C171.069 281.269 170.901 281.414 170.695 281.515C170.496 281.616 170.279 281.658 170.044 281.639L170.028 281.783C170.503 281.869 170.878 282.079 171.155 282.412C171.438 282.74 171.55 283.156 171.492 283.658C171.447 284.047 171.305 284.384 171.066 284.668C170.833 284.954 170.53 285.16 170.158 285.288C169.785 285.415 169.381 285.451 168.945 285.394Z" fill="white"/>
<path d="M86.0659 215.284C86.3365 215.047 86.5935 214.842 86.837 214.669C87.0912 214.488 87.4151 214.291 87.8087 214.079L87.7734 213.886C87.4654 213.866 87.254 213.848 87.1393 213.834C86.738 213.782 86.2658 213.674 85.7229 213.507L86.2986 212.328C86.6245 212.525 86.8943 212.705 87.1078 212.868C87.3309 213.033 87.5849 213.264 87.8697 213.563L88.0409 213.468C87.963 213.06 87.9112 212.718 87.8855 212.443C87.8705 212.16 87.86 211.838 87.854 211.478L89.187 211.648C89.0975 211.996 89.0076 212.305 88.9175 212.575C88.8286 212.836 88.6941 213.153 88.514 213.529L88.6581 213.664C89.0135 213.447 89.3185 213.287 89.5733 213.183C89.828 213.08 90.1364 212.973 90.4985 212.864L90.7667 214.166C90.2226 214.174 89.7498 214.153 89.3485 214.101C89.0618 214.065 88.8378 214.031 88.6765 214.001L88.5971 214.18C88.9404 214.476 89.2095 214.744 89.4045 214.982C89.6005 215.211 89.8064 215.481 90.0221 215.79L88.8286 216.409C88.5727 215.619 88.3873 214.93 88.2724 214.343L88.0717 214.317C87.8083 214.905 87.4681 215.527 87.0512 216.182L86.0659 215.284ZM92.0851 216.053C92.3556 215.816 92.6127 215.611 92.8562 215.438C93.1104 215.257 93.4343 215.06 93.8279 214.848L93.7926 214.654C93.4845 214.634 93.2732 214.617 93.1585 214.602C92.7571 214.551 92.285 214.442 91.742 214.276L92.3178 213.097C92.6437 213.294 92.9134 213.474 93.127 213.637C93.3501 213.801 93.604 214.033 93.8889 214.331L94.0601 214.237C93.9822 213.829 93.9304 213.487 93.9047 213.212C93.8896 212.928 93.8791 212.606 93.8731 212.246L95.2062 212.417C95.1166 212.764 95.0268 213.073 94.9367 213.344C94.8478 213.604 94.7132 213.922 94.5331 214.297L94.6773 214.432C95.0327 214.215 95.3377 214.055 95.5924 213.952C95.8471 213.848 96.1555 213.742 96.5176 213.633L96.7859 214.934C96.2417 214.943 95.769 214.921 95.3676 214.87C95.0809 214.833 94.8569 214.8 94.6956 214.77L94.6163 214.949C94.9596 215.245 95.2287 215.513 95.4236 215.751C95.6197 215.98 95.8256 216.249 96.0413 216.558L94.8478 217.178C94.5919 216.388 94.4064 215.699 94.2915 215.111L94.0908 215.086C93.8274 215.674 93.4873 216.295 93.0704 216.951L92.0851 216.053ZM98.1043 216.822C98.3748 216.584 98.6318 216.379 98.8753 216.206C99.1295 216.025 99.4534 215.829 99.8471 215.617L99.8117 215.423C99.5037 215.403 99.2923 215.386 99.1777 215.371C98.7763 215.32 98.3042 215.211 97.7612 215.044L98.3369 213.865C98.6629 214.062 98.9326 214.242 99.1461 214.406C99.3692 214.57 99.6232 214.802 99.908 215.1L100.079 215.005C100.001 214.597 99.9495 214.256 99.9238 213.98C99.9088 213.697 99.8983 213.375 99.8923 213.015L101.225 213.185C101.136 213.533 101.046 213.842 100.956 214.112C100.867 214.373 100.732 214.691 100.552 215.066L100.696 215.201C101.052 214.984 101.357 214.824 101.612 214.72C101.866 214.617 102.175 214.511 102.537 214.402L102.805 215.703C102.261 215.711 101.788 215.69 101.387 215.639C101.1 215.602 100.876 215.568 100.715 215.538L100.635 215.717C100.979 216.014 101.248 216.281 101.443 216.52C101.639 216.749 101.845 217.018 102.06 217.327L100.867 217.947C100.611 217.156 100.426 216.468 100.311 215.88L100.11 215.854C99.8466 216.442 99.5064 217.064 99.0895 217.72L98.1043 216.822ZM104.123 217.59C104.394 217.353 104.651 217.148 104.894 216.975C105.149 216.794 105.473 216.597 105.866 216.385L105.831 216.191C105.523 216.172 105.311 216.154 105.197 216.14C104.795 216.088 104.323 215.98 103.78 215.813L104.356 214.634C104.682 214.831 104.952 215.011 105.165 215.174C105.388 215.339 105.642 215.57 105.927 215.869L106.098 215.774C106.021 215.366 105.969 215.024 105.943 214.749C105.928 214.466 105.917 214.144 105.911 213.784L107.245 213.954C107.155 214.302 107.065 214.611 106.975 214.881C106.886 215.141 106.752 215.459 106.571 215.834L106.716 215.969C107.071 215.753 107.376 215.592 107.631 215.489C107.885 215.386 108.194 215.279 108.556 215.17L108.824 216.472C108.28 216.48 107.807 216.458 107.406 216.407C107.119 216.371 106.895 216.337 106.734 216.307L106.655 216.486C106.998 216.782 107.267 217.05 107.462 217.288C107.658 217.517 107.864 217.786 108.08 218.096L106.886 218.715C106.63 217.925 106.445 217.236 106.33 216.649L106.129 216.623C105.866 217.211 105.526 217.833 105.109 218.488L104.123 217.59ZM121.943 219.866C122.214 219.629 122.471 219.423 122.714 219.251C122.968 219.069 123.292 218.873 123.686 218.661L123.65 218.467C123.342 218.447 123.131 218.43 123.016 218.415C122.615 218.364 122.143 218.255 121.6 218.089L122.176 216.909C122.502 217.106 122.771 217.286 122.985 217.45C123.208 217.614 123.462 217.846 123.747 218.144L123.918 218.05C123.84 217.641 123.788 217.3 123.763 217.025C123.748 216.741 123.737 216.419 123.731 216.059L125.064 216.229C124.975 216.577 124.885 216.886 124.795 217.156C124.706 217.417 124.571 217.735 124.391 218.11L124.535 218.245C124.891 218.028 125.196 217.868 125.45 217.765C125.705 217.661 126.013 217.555 126.375 217.446L126.644 218.747C126.1 218.755 125.627 218.734 125.225 218.683C124.939 218.646 124.715 218.613 124.553 218.582L124.474 218.762C124.817 219.058 125.087 219.325 125.282 219.564C125.478 219.793 125.683 220.062 125.899 220.371L124.706 220.991C124.45 220.201 124.264 219.512 124.149 218.924L123.949 218.898C123.685 219.486 123.345 220.108 122.928 220.764L121.943 219.866ZM127.962 220.635C128.233 220.397 128.49 220.192 128.733 220.019C128.987 219.838 129.311 219.641 129.705 219.429L129.67 219.236C129.362 219.216 129.15 219.198 129.036 219.184C128.634 219.133 128.162 219.024 127.619 218.857L128.195 217.678C128.521 217.875 128.79 218.055 129.004 218.218C129.227 218.383 129.481 218.614 129.766 218.913L129.937 218.818C129.859 218.41 129.807 218.068 129.782 217.793C129.767 217.51 129.756 217.188 129.75 216.828L131.083 216.998C130.994 217.346 130.904 217.655 130.814 217.925C130.725 218.186 130.59 218.503 130.41 218.879L130.554 219.014C130.91 218.797 131.215 218.637 131.469 218.533C131.724 218.43 132.033 218.323 132.395 218.214L132.663 219.516C132.119 219.524 131.646 219.503 131.245 219.451C130.958 219.415 130.734 219.381 130.573 219.351L130.493 219.53C130.837 219.827 131.106 220.094 131.301 220.332C131.497 220.561 131.703 220.831 131.918 221.14L130.725 221.759C130.469 220.969 130.283 220.28 130.169 219.693L129.968 219.667C129.704 220.255 129.364 220.877 128.947 221.532L127.962 220.635ZM133.981 221.403C134.252 221.166 134.509 220.961 134.752 220.788C135.007 220.607 135.33 220.41 135.724 220.198L135.689 220.004C135.381 219.984 135.169 219.967 135.055 219.952C134.653 219.901 134.181 219.792 133.638 219.626L134.214 218.447C134.54 218.644 134.81 218.824 135.023 218.987C135.246 219.151 135.5 219.383 135.785 219.682L135.956 219.587C135.878 219.179 135.827 218.837 135.801 218.562C135.786 218.278 135.775 217.956 135.769 217.596L137.102 217.767C137.013 218.115 136.923 218.424 136.833 218.694C136.744 218.954 136.609 219.272 136.429 219.647L136.573 219.782C136.929 219.565 137.234 219.405 137.489 219.302C137.743 219.198 138.052 219.092 138.414 218.983L138.682 220.285C138.138 220.293 137.665 220.271 137.264 220.22C136.977 220.183 136.753 220.15 136.592 220.12L136.512 220.299C136.856 220.595 137.125 220.863 137.32 221.101C137.516 221.33 137.722 221.599 137.938 221.908L136.744 222.528C136.488 221.738 136.303 221.049 136.188 220.461L135.987 220.436C135.724 221.024 135.383 221.645 134.967 222.301L133.981 221.403ZM140 222.172C140.271 221.934 140.528 221.729 140.772 221.556C141.026 221.375 141.35 221.179 141.743 220.967L141.708 220.773C141.4 220.753 141.189 220.736 141.074 220.721C140.673 220.67 140.2 220.561 139.657 220.394L140.233 219.215C140.559 219.412 140.829 219.592 141.042 219.756C141.265 219.92 141.519 220.152 141.804 220.45L141.975 220.355C141.898 219.947 141.846 219.606 141.82 219.33C141.805 219.047 141.795 218.725 141.789 218.365L143.122 218.535C143.032 218.883 142.942 219.192 142.852 219.462C142.763 219.723 142.629 220.041 142.449 220.416L142.593 220.551C142.948 220.334 143.253 220.174 143.508 220.07C143.763 219.967 144.071 219.861 144.433 219.752L144.701 221.053C144.157 221.061 143.684 221.04 143.283 220.989C142.996 220.952 142.772 220.919 142.611 220.888L142.532 221.067C142.875 221.364 143.144 221.631 143.339 221.87C143.535 222.099 143.741 222.368 143.957 222.677L142.763 223.297C142.507 222.506 142.322 221.818 142.207 221.23L142.006 221.204C141.743 221.792 141.403 222.414 140.986 223.07L140 222.172ZM157.82 224.447C158.091 224.21 158.348 224.005 158.591 223.832C158.845 223.651 159.169 223.454 159.563 223.242L159.527 223.048C159.219 223.028 159.008 223.011 158.893 222.997C158.492 222.945 158.02 222.836 157.477 222.67L158.053 221.491C158.379 221.688 158.648 221.868 158.862 222.031C159.085 222.196 159.339 222.427 159.624 222.726L159.795 222.631C159.717 222.223 159.665 221.881 159.64 221.606C159.625 221.322 159.614 221.001 159.608 220.641L160.941 220.811C160.852 221.159 160.762 221.468 160.672 221.738C160.583 221.998 160.448 222.316 160.268 222.691L160.412 222.826C160.768 222.609 161.073 222.449 161.327 222.346C161.582 222.242 161.89 222.136 162.253 222.027L162.521 223.329C161.977 223.337 161.504 223.315 161.103 223.264C160.816 223.227 160.592 223.194 160.431 223.164L160.351 223.343C160.694 223.639 160.964 223.907 161.159 224.145C161.355 224.374 161.561 224.643 161.776 224.952L160.583 225.572C160.327 224.782 160.141 224.093 160.026 223.505L159.826 223.48C159.562 224.068 159.222 224.689 158.805 225.345L157.82 224.447ZM163.839 225.216C164.11 224.979 164.367 224.773 164.61 224.601C164.864 224.419 165.188 224.223 165.582 224.011L165.547 223.817C165.239 223.797 165.027 223.78 164.913 223.765C164.511 223.714 164.039 223.605 163.496 223.439L164.072 222.259C164.398 222.456 164.668 222.636 164.881 222.8C165.104 222.964 165.358 223.196 165.643 223.494L165.814 223.4C165.736 222.991 165.684 222.65 165.659 222.375C165.644 222.091 165.633 221.769 165.627 221.409L166.96 221.579C166.871 221.927 166.781 222.236 166.691 222.506C166.602 222.767 166.467 223.085 166.287 223.46L166.431 223.595C166.787 223.378 167.092 223.218 167.346 223.115C167.601 223.011 167.91 222.905 168.272 222.796L168.54 224.097C167.996 224.105 167.523 224.084 167.122 224.033C166.835 223.996 166.611 223.963 166.45 223.932L166.37 224.112C166.714 224.408 166.983 224.675 167.178 224.914C167.374 225.143 167.58 225.412 167.795 225.721L166.602 226.341C166.346 225.551 166.161 224.862 166.046 224.274L165.845 224.248C165.582 224.836 165.241 225.458 164.824 226.114L163.839 225.216ZM169.858 225.985C170.129 225.747 170.386 225.542 170.629 225.369C170.884 225.188 171.208 224.991 171.601 224.78L171.566 224.586C171.258 224.566 171.046 224.548 170.932 224.534C170.53 224.483 170.058 224.374 169.515 224.207L170.091 223.028C170.417 223.225 170.687 223.405 170.9 223.568C171.123 223.733 171.377 223.964 171.662 224.263L171.833 224.168C171.755 223.76 171.704 223.418 171.678 223.143C171.663 222.86 171.652 222.538 171.646 222.178L172.979 222.348C172.89 222.696 172.8 223.005 172.71 223.275C172.621 223.536 172.486 223.853 172.306 224.229L172.45 224.364C172.806 224.147 173.111 223.987 173.366 223.883C173.62 223.78 173.929 223.673 174.291 223.564L174.559 224.866C174.015 224.874 173.542 224.853 173.141 224.801C172.854 224.765 172.63 224.731 172.469 224.701L172.39 224.88C172.733 225.177 173.002 225.444 173.197 225.683C173.393 225.911 173.599 226.181 173.815 226.49L172.621 227.109C172.365 226.319 172.18 225.63 172.065 225.043L171.864 225.017C171.601 225.605 171.261 226.227 170.844 226.882L169.858 225.985ZM175.878 226.753C176.148 226.516 176.405 226.311 176.649 226.138C176.903 225.957 177.227 225.76 177.62 225.548L177.585 225.354C177.277 225.334 177.066 225.317 176.951 225.302C176.55 225.251 176.077 225.142 175.534 224.976L176.11 223.797C176.436 223.994 176.706 224.174 176.919 224.337C177.142 224.501 177.396 224.733 177.681 225.032L177.853 224.937C177.775 224.529 177.723 224.187 177.697 223.912C177.682 223.628 177.672 223.307 177.666 222.946L178.999 223.117C178.909 223.465 178.819 223.774 178.729 224.044C178.64 224.304 178.506 224.622 178.326 224.997L178.47 225.132C178.825 224.915 179.13 224.755 179.385 224.652C179.64 224.548 179.948 224.442 180.31 224.333L180.578 225.635C180.034 225.643 179.561 225.621 179.16 225.57C178.873 225.533 178.649 225.5 178.488 225.47L178.409 225.649C178.752 225.945 179.021 226.213 179.216 226.451C179.412 226.68 179.618 226.949 179.834 227.258L178.64 227.878C178.384 227.088 178.199 226.399 178.084 225.811L177.883 225.786C177.62 226.374 177.28 226.995 176.863 227.651L175.878 226.753ZM196.376 228.395C196.418 228.041 196.505 227.712 196.638 227.409L196.475 227.315C196.222 227.652 195.933 227.921 195.608 228.122C195.24 228.366 194.834 228.562 194.39 228.709C193.956 228.848 193.559 228.924 193.199 228.936L193.387 227.343C194.092 227.287 194.743 227.074 195.339 226.704C195.947 226.325 196.425 225.886 196.775 225.387L198.424 225.597L197.131 236.547L195.439 236.331L196.376 228.395ZM199.148 235.406L202.952 232.891C203.761 232.363 204.373 231.858 204.789 231.377C205.206 230.887 205.449 230.345 205.519 229.752C205.588 229.168 205.485 228.689 205.209 228.314C204.943 227.94 204.508 227.714 203.906 227.637C202.559 227.465 201.747 228.182 201.47 229.788L199.85 229.581C200.043 228.363 200.509 227.456 201.248 226.861C201.989 226.256 202.933 226.027 204.079 226.174C204.758 226.26 205.339 226.471 205.824 226.804C206.319 227.13 206.681 227.555 206.91 228.079C207.15 228.595 207.231 229.179 207.154 229.829C207.053 230.69 206.709 231.462 206.124 232.145C205.539 232.828 204.795 233.466 203.89 234.06L202.327 235.098C202.2 235.189 202.063 235.278 201.917 235.366C201.772 235.445 201.592 235.534 201.377 235.632L201.442 235.815C201.692 235.75 201.896 235.708 202.054 235.69C202.211 235.671 202.39 235.674 202.591 235.7L206.905 236.251L206.726 237.772L198.985 236.784L199.148 235.406ZM211.813 238.582C211.011 238.479 210.325 238.246 209.757 237.882C209.189 237.518 208.764 237.051 208.482 236.481C208.201 235.902 208.084 235.251 208.131 234.528L209.822 234.744C209.794 236.129 210.526 236.917 212.017 237.107C212.666 237.19 213.197 237.088 213.61 236.801C214.023 236.504 214.265 236.059 214.335 235.466C214.409 234.835 214.239 234.347 213.824 234.002C213.41 233.648 212.825 233.423 212.07 233.327L211.396 233.241L211.566 231.806L212.182 231.884C212.727 231.954 213.197 231.873 213.593 231.642C214 231.403 214.234 231.02 214.296 230.494C214.35 230.035 214.24 229.651 213.966 229.345C213.703 229.029 213.313 228.839 212.797 228.773C212.243 228.702 211.775 228.803 211.394 229.074C211.013 229.337 210.753 229.774 210.613 230.388L209.007 230.183C209.113 229.536 209.353 228.979 209.729 228.512C210.104 228.045 210.57 227.707 211.129 227.496C211.698 227.278 212.302 227.209 212.943 227.291C213.612 227.376 214.185 227.576 214.662 227.889C215.148 228.204 215.504 228.604 215.728 229.089C215.953 229.564 216.033 230.079 215.967 230.634C215.898 231.218 215.662 231.698 215.259 232.073C214.866 232.441 214.392 232.599 213.835 232.547L213.808 232.777C214.568 232.913 215.149 233.249 215.552 233.786C215.964 234.315 216.126 234.957 216.037 235.713C215.96 236.363 215.724 236.925 215.329 237.399C214.944 237.865 214.443 238.204 213.826 238.417C213.22 238.621 212.549 238.676 211.813 238.582ZM221.926 239.713L222.226 237.173L217.324 236.547L217.519 234.897L223.234 228.765L224.911 228.979L224.097 235.868L225.631 236.064L225.452 237.585L223.918 237.389L223.618 239.929L221.926 239.713ZM218.955 235.43C219.204 235.374 219.421 235.343 219.606 235.338C219.791 235.332 219.988 235.343 220.199 235.37L222.406 235.652L222.811 232.222C222.839 231.983 222.868 231.783 222.896 231.621C222.935 231.461 223.002 231.261 223.098 231.021L222.933 230.941C222.715 231.224 222.461 231.527 222.171 231.849L219.895 234.37C219.749 234.536 219.606 234.682 219.464 234.81C219.323 234.938 219.131 235.083 218.889 235.246L218.955 235.43Z" fill="white"/>
<defs>
<filter id="filter0_f_1207_42237" x="59.7617" y="321.848" width="279.883" height="86.6271" filterUnits="userSpaceOnUse" color-interpolation-filters="sRGB">
<feFlood flood-opacity="0" result="BackgroundImageFix"/>
<feBlend mode="normal" in="SourceGraphic" in2="BackgroundImageFix" result="shape"/>
<feGaussianBlur stdDeviation="15" result="effect1_foregroundBlur_1207_42237"/>
</filter>
<linearGradient id="paint0_linear_1207_42237" x1="3.97749e-06" y1="-6.39903" x2="298.092" y2="206.863" gradientUnits="userSpaceOnUse">
<stop offset="0.188358" stop-color="#011154"/>
<stop offset="1" stop-color="#011154"/>
</linearGradient>
<clipPath id="clip0_1207_42237">
<rect width="50.6413" height="16.4234" fill="white" transform="matrix(0.991851 0.127567 -0.116421 0.993219 262.44 181.969)"/>
</clipPath>
</defs>
</svg>
