 <svg xmlns="http://www.w3.org/2000/svg" width="17" height="17" viewBox="0 0 17 17" fill="none">
                  <path d="M10.3561 6.9924L6.95581 10.2237C6.51901 9.80864 6.25021 9.24028 6.25021 8.60807C6.25021 7.34363 7.32541 6.32187 8.65597 6.32187C9.32125 6.32187 9.91933 6.57731 10.3561 6.9924Z" stroke="#8E9BAE" stroke-width="1.5" stroke-linecap="round" stroke-linejoin="round"/>
                  <path d="M12.567 4.62956C11.391 3.78661 10.047 3.32681 8.656 3.32681C6.28384 3.32681 4.07295 4.65511 2.53407 6.95408C1.92927 7.85451 1.92927 9.368 2.53407 10.2684C3.06495 11.0603 3.68319 11.7436 4.35519 12.2928" stroke="#8E9BAE" stroke-width="1.5" stroke-linecap="round" stroke-linejoin="round"/>
                  <path d="M6.25021 13.4167C7.01629 13.7233 7.82941 13.8893 8.65597 13.8893C11.0281 13.8893 13.239 12.561 14.7779 10.262C15.3827 9.36161 15.3827 7.84812 14.7779 6.94769C14.5561 6.61561 14.3142 6.3027 14.0656 6.00894" stroke="#8E9BAE" stroke-width="1.5" stroke-linecap="round" stroke-linejoin="round"/>
                  <path d="M11.0147 9.05508C10.84 9.95551 10.0672 10.6899 9.11966 10.8559" stroke="#8E9BAE" stroke-width="1.5" stroke-linecap="round" stroke-linejoin="round"/>
                  <path d="M6.95581 10.2237L1.93597 14.9941" stroke="#8E9BAE" stroke-width="1.5" stroke-linecap="round" stroke-linejoin="round"/>
                  <path d="M15.376 2.22202L10.3561 6.99238" stroke="#8E9BAE" stroke-width="1.5" stroke-linecap="round" stroke-linejoin="round"/>
                </svg>