<svg width="348" height="130" viewBox="0 0 348 130" fill="none" xmlns="http://www.w3.org/2000/svg">
<g filter="url(#filter0_d_12939_63616)">
<rect x="23" y="27.1506" width="298.836" height="70.3682" rx="9.13872" transform="rotate(-2.52217 23 27.1506)" fill="#1B2537" shape-rendering="crispEdges"/>
<rect x="43.5872" y="42.1052" width="37.0803" height="37.0803" rx="18.5401" fill="#10192D"/>
<path d="M56.0281 57.2576L58.4161 59.5936L62.4897 55.6225L66.6102 59.5936L68.9514 57.2576L62.4897 50.8572L56.0281 57.2576Z" fill="white"/>
<path d="M56.075 65.3869L58.463 63.0509L62.5366 67.022L66.6571 63.0509L68.9982 65.3869L62.5366 71.7874L56.075 65.3869Z" fill="white"/>
<path d="M56.6836 61.3221L54.3424 58.9395L52.0481 61.3221L54.3424 63.7048L56.6836 61.3221Z" fill="white"/>
<path d="M64.8308 61.3224L62.4897 58.9397L60.1953 61.3224L62.4897 63.705L64.8308 61.3224Z" fill="white"/>
<path d="M72.9781 61.3224L70.6369 58.9397L68.3425 61.3224L70.6369 63.705L72.9781 61.3224Z" fill="white"/>
<path d="M96.7366 54.2883L96.3313 45.0854L99.9805 44.9247C100.603 44.8973 101.117 45.0005 101.525 45.2345C101.936 45.4639 102.246 45.7683 102.455 46.1476C102.668 46.5267 102.783 46.9228 102.802 47.3361C102.824 47.8431 102.722 48.2788 102.494 48.6431C102.271 49.0073 101.956 49.2602 101.548 49.402L101.534 49.0824C102.119 49.189 102.57 49.4445 102.887 49.8489C103.208 50.2531 103.38 50.7215 103.403 51.2541C103.427 51.7994 103.344 52.2812 103.153 52.6994C102.962 53.1176 102.666 53.4509 102.262 53.6992C101.863 53.9472 101.362 54.0846 100.757 54.1113L96.7366 54.2883ZM98.2321 52.7689L100.501 52.669C100.769 52.6571 101.008 52.5933 101.216 52.4774C101.424 52.3572 101.584 52.1965 101.694 51.9953C101.809 51.7896 101.86 51.5504 101.848 51.2777C101.837 51.0306 101.774 50.8114 101.659 50.6201C101.544 50.4288 101.382 50.2802 101.172 50.1741C100.962 50.0638 100.715 50.015 100.429 50.0276L98.1159 50.1295L98.2321 52.7689ZM98.0525 48.6915L100.123 48.6003C100.345 48.5905 100.541 48.5392 100.712 48.4463C100.883 48.3534 101.016 48.2216 101.111 48.0509C101.206 47.8803 101.248 47.6735 101.237 47.4307C101.223 47.1111 101.109 46.8493 100.895 46.6453C100.681 46.4413 100.391 46.3473 100.025 46.3635L97.954 46.4547L98.0525 48.6915ZM104.578 45.9772L104.516 44.5648L106.056 44.497L106.118 45.9094L104.578 45.9772ZM104.928 53.9275L104.624 47.0253L106.164 46.9575L106.468 53.8597L104.928 53.9275ZM113.157 53.5651L113.01 50.2418C113.001 50.0245 112.975 49.7844 112.934 49.5216C112.892 49.2587 112.811 49.0083 112.689 48.7704C112.572 48.5279 112.401 48.3327 112.177 48.1846C111.957 48.0364 111.664 47.9703 111.297 47.9864C111.101 47.9951 110.909 48.0356 110.72 48.1079C110.531 48.1803 110.361 48.2987 110.21 48.4633C110.064 48.6235 109.95 48.8419 109.868 49.1187C109.786 49.3913 109.754 49.7385 109.773 50.1603L108.842 49.8107C108.816 49.2227 108.905 48.6852 109.11 48.198C109.319 47.7107 109.639 47.3167 110.07 47.016C110.5 46.711 111.039 46.5442 111.687 46.5157C112.198 46.4932 112.624 46.5598 112.964 46.7156C113.304 46.8714 113.577 47.0771 113.785 47.3326C113.993 47.5881 114.15 47.8629 114.257 48.157C114.364 48.4511 114.436 48.7318 114.473 48.9991C114.515 49.262 114.539 49.4765 114.546 49.6427L114.716 53.4964L113.157 53.5651ZM108.37 53.7759L108.066 46.8737L109.44 46.8132L109.534 48.9542L109.719 48.946L109.929 53.7072L108.37 53.7759ZM118.322 53.5296C117.824 53.5516 117.398 53.4764 117.044 53.3042C116.691 53.1276 116.418 52.8857 116.225 52.5783C116.036 52.2707 115.934 51.9273 115.917 51.5481C115.902 51.2158 115.945 50.9151 116.044 50.646C116.143 50.3727 116.303 50.1352 116.525 49.9333C116.746 49.7272 117.037 49.5543 117.398 49.4146C117.671 49.3129 117.991 49.2177 118.359 49.1289C118.731 49.04 119.132 48.9561 119.564 48.8773C120 48.7941 120.455 48.7057 120.929 48.6123L120.394 48.9497C120.377 48.4723 120.255 48.1255 120.028 47.9092C119.8 47.693 119.429 47.5962 118.913 47.6189C118.602 47.6326 118.305 47.7183 118.022 47.8759C117.739 48.0335 117.547 48.2917 117.448 48.6504L116.022 48.2714C116.167 47.6801 116.47 47.1972 116.932 46.8226C117.398 46.4477 118.037 46.2424 118.851 46.2065C119.465 46.1795 120.008 46.2559 120.481 46.4357C120.959 46.6153 121.321 46.9281 121.566 47.374C121.701 47.6114 121.786 47.8574 121.823 48.1119C121.86 48.3621 121.885 48.6364 121.898 48.9346L122.084 53.1718L120.736 53.2312L120.67 51.7357L120.904 51.9687C120.615 52.4809 120.267 52.8634 119.86 53.1161C119.457 53.3644 118.944 53.5022 118.322 53.5296ZM118.575 52.2891C118.924 52.2737 119.22 52.1987 119.461 52.0643C119.703 51.9299 119.892 51.77 120.029 51.5847C120.171 51.3991 120.263 51.2264 120.308 51.0665C120.38 50.867 120.415 50.6413 120.412 50.3896C120.414 50.1334 120.411 49.9265 120.404 49.7688L120.883 49.8886C120.422 49.9815 120.026 50.0629 119.697 50.133C119.367 50.203 119.084 50.2688 118.847 50.3305C118.611 50.3878 118.402 50.4504 118.222 50.5181C118.045 50.5899 117.897 50.6711 117.778 50.7618C117.658 50.8524 117.566 50.9546 117.503 51.0684C117.444 51.182 117.418 51.3134 117.424 51.4625C117.432 51.6329 117.481 51.7823 117.572 51.9106C117.663 52.0347 117.791 52.1315 117.956 52.201C118.126 52.2704 118.332 52.2997 118.575 52.2891ZM128.522 52.8882L128.376 49.5649C128.366 49.3477 128.341 49.1076 128.299 48.8447C128.258 48.5819 128.176 48.3315 128.055 48.0935C127.937 47.8511 127.767 47.6558 127.542 47.5078C127.322 47.3595 127.029 47.2935 126.663 47.3096C126.467 47.3182 126.274 47.3587 126.086 47.4311C125.897 47.5034 125.727 47.6219 125.576 47.7865C125.429 47.9466 125.315 48.1651 125.234 48.4419C125.152 48.7145 125.12 49.0616 125.139 49.4834L124.208 49.1338C124.182 48.5459 124.271 48.0083 124.476 47.5212C124.685 47.0339 125.005 46.6399 125.435 46.3391C125.866 46.0342 126.405 45.8674 127.053 45.8389C127.564 45.8164 127.99 45.883 128.329 46.0388C128.669 46.1946 128.943 46.4002 129.151 46.6557C129.358 46.9113 129.515 47.1861 129.622 47.4802C129.729 47.7743 129.801 48.055 129.839 48.3223C129.88 48.5851 129.905 48.7997 129.912 48.9658L130.082 52.8195L128.522 52.8882ZM123.735 53.0991L123.431 46.1969L124.805 46.1364L124.9 48.2773L125.085 48.2692L125.295 53.0304L123.735 53.0991ZM134.643 52.8107C133.931 52.8421 133.317 52.7112 132.801 52.418C132.284 52.1206 131.879 51.703 131.586 51.1652C131.298 50.6272 131.136 50.0111 131.102 49.3168C131.075 48.6094 131.186 47.977 131.434 47.4196C131.687 46.8578 132.06 46.4102 132.553 46.0768C133.046 45.7392 133.642 45.555 134.341 45.5242C135.125 45.4897 135.796 45.6586 136.355 46.031C136.917 46.399 137.297 46.9202 137.493 47.5945L135.977 48.0775C135.842 47.7121 135.631 47.4332 135.345 47.2409C135.059 47.0443 134.739 46.9539 134.385 46.9694C133.985 46.9871 133.659 47.0975 133.408 47.3007C133.156 47.4996 132.976 47.7679 132.867 48.1057C132.758 48.4435 132.713 48.8232 132.731 49.245C132.76 49.9012 132.93 50.4251 133.242 50.8169C133.554 51.2088 134 51.3919 134.579 51.3664C134.988 51.3484 135.306 51.2405 135.532 51.0427C135.762 50.8447 135.929 50.5663 136.033 50.2074L137.621 50.4896C137.438 51.202 137.089 51.7595 136.574 52.1622C136.058 52.5606 135.414 52.7767 134.643 52.8107ZM141.948 52.4889C141.249 52.5197 140.629 52.3955 140.088 52.1162C139.546 51.837 139.114 51.4355 138.792 50.9119C138.475 50.388 138.3 49.7767 138.27 49.0779C138.236 48.3238 138.353 47.6634 138.618 47.0968C138.883 46.5259 139.267 46.0757 139.769 45.7462C140.271 45.4167 140.86 45.2371 141.538 45.2072C142.254 45.1757 142.868 45.3173 143.381 45.6319C143.899 45.9421 144.292 46.3964 144.562 46.995C144.832 47.5936 144.955 48.3075 144.932 49.1366L143.404 49.2039L143.38 48.6415C143.342 47.8918 143.186 47.3502 142.911 47.0165C142.636 46.6829 142.219 46.5283 141.661 46.5529C141.031 46.5807 140.57 46.7973 140.281 47.2028C139.991 47.604 139.863 48.1796 139.896 48.9294C139.927 49.6282 140.104 50.1625 140.428 50.5325C140.751 50.9024 141.207 51.0744 141.795 51.0485C142.174 51.0318 142.497 50.9344 142.762 50.7562C143.031 50.5736 143.234 50.3192 143.369 49.9931L144.91 50.3862C144.673 51.0199 144.285 51.5215 143.747 51.891C143.212 52.2603 142.613 52.4596 141.948 52.4889ZM139.429 49.379L139.378 48.2159L144.126 48.0067L144.178 49.1699L139.429 49.379Z" fill="white"/>
<path d="M97.4737 73.9304L97.1262 66.0422L100.172 65.9081C100.614 65.8886 101.003 65.9629 101.34 66.131C101.677 66.2992 101.943 66.5344 102.139 66.8368C102.335 67.1355 102.442 67.4711 102.458 67.8436C102.477 68.2672 102.38 68.6502 102.168 68.9925C101.956 69.3311 101.663 69.5727 101.289 69.7173L101.266 69.4494C101.784 69.5729 102.197 69.8109 102.505 70.1632C102.814 70.5155 102.979 70.951 103.002 71.4695C103.022 71.926 102.943 72.3247 102.764 72.6656C102.585 73.0028 102.324 73.2685 101.981 73.4629C101.638 73.6573 101.235 73.7647 100.771 73.7852L97.4737 73.9304ZM98.2504 73.1223L100.54 73.0215C100.862 73.0073 101.148 72.938 101.398 72.8135C101.649 72.6854 101.842 72.5122 101.979 72.294C102.119 72.0756 102.183 71.8166 102.17 71.5172C102.157 71.225 102.078 70.965 101.932 70.7373C101.787 70.5095 101.594 70.3314 101.355 70.2029C101.118 70.0706 100.852 70.011 100.556 70.024L98.1187 70.1314L98.2504 73.1223ZM98.0851 69.3699L100.315 69.2717C100.567 69.2606 100.794 69.1939 100.997 69.0715C101.2 68.9455 101.358 68.7794 101.469 68.5732C101.585 68.3669 101.637 68.1323 101.625 67.8693C101.609 67.4968 101.466 67.1994 101.196 66.9771C100.93 66.7547 100.598 66.6522 100.2 66.6697L97.9705 66.7679L98.0851 69.3699ZM104.193 73.6345L103.845 65.7463L104.656 65.7105L109.285 71.9831L109 65.5192L109.811 65.4835L110.158 73.3717L109.347 73.4074L104.718 67.1293L105.003 73.5987L104.193 73.6345ZM111.693 73.3041L111.345 65.4159L114.391 65.2817C114.833 65.2623 115.222 65.3366 115.559 65.5047C115.896 65.6728 116.162 65.9081 116.358 66.2104C116.555 66.5092 116.661 66.8448 116.677 67.2173C116.696 67.6409 116.599 68.0239 116.387 68.3662C116.176 68.7048 115.882 68.9464 115.508 69.091L115.486 68.823C116.003 68.9466 116.416 69.1845 116.724 69.5368C117.033 69.8892 117.198 70.3246 117.221 70.8432C117.241 71.2997 117.162 71.6984 116.983 72.0392C116.804 72.3764 116.543 72.6422 116.2 72.8366C115.858 73.031 115.454 73.1384 114.99 73.1588L111.693 73.3041ZM112.469 72.496L114.759 72.3951C115.081 72.381 115.367 72.3117 115.617 72.1872C115.868 72.0591 116.061 71.8859 116.198 71.6676C116.339 71.4492 116.402 71.1903 116.389 70.8908C116.376 70.5987 116.297 70.3387 116.151 70.1109C116.006 69.8832 115.813 69.705 115.574 69.5766C115.337 69.4443 115.071 69.3846 114.775 69.3977L112.338 69.505L112.469 72.496ZM112.304 68.7436L114.534 68.6454C114.786 68.6343 115.013 68.5676 115.216 68.4452C115.419 68.3192 115.577 68.1531 115.688 67.9469C115.804 67.7406 115.856 67.5059 115.844 67.243C115.828 66.8705 115.685 66.5731 115.415 66.3508C115.149 66.1283 114.817 66.0259 114.419 66.0434L112.19 66.1416L112.304 68.7436Z" fill="#8E9BAE"/>
<path d="M168.059 59.8834C173.548 59.2503 176.934 66.5458 179.993 66.4217C184.888 66.2232 183.388 58.4265 188.175 57.351C193.541 55.8195 192.136 49.8568 195.757 48.5774C199.379 47.298 200.906 54.1322 203.965 53.9974C208.247 53.8088 209.945 59.3004 214.805 58.3037C219.127 57.4174 217.036 42.8463 221.853 42.6412C226.202 42.456 226.109 49.2993 231.615 49.0568" stroke="#F65556" stroke-width="1.82774" stroke-linecap="round"/>
<rect x="250.335" y="37.9441" width="53.9185" height="9.13872" rx="4.56936" transform="rotate(-2.52217 250.335 37.9441)" fill="#64748B"/>
<path d="M268.241 58.9163L268.205 58.111L271.492 57.9662L271.527 58.7715L268.241 58.9163ZM272.866 61.7642L272.833 60.8875L276.194 57.5835C276.475 57.3077 276.659 57.0507 276.748 56.8127C276.839 56.5708 276.88 56.3257 276.869 56.0773C276.856 55.7742 276.774 55.5034 276.625 55.2648C276.475 55.0262 276.277 54.8411 276.029 54.7092C275.786 54.5773 275.512 54.518 275.209 54.5313C274.895 54.5452 274.619 54.6323 274.381 54.7928C274.143 54.9497 273.958 55.1536 273.826 55.4045C273.698 55.6553 273.642 55.9249 273.659 56.2133L272.662 56.2572C272.64 55.7605 272.736 55.3172 272.949 54.9273C273.162 54.5337 273.461 54.2205 273.846 53.9876C274.234 53.751 274.681 53.6216 275.185 53.5994C275.674 53.5778 276.117 53.6717 276.514 53.8811C276.911 54.0868 277.23 54.3783 277.469 54.7556C277.713 55.1291 277.845 55.5587 277.866 56.0444C277.882 56.3877 277.851 56.6872 277.774 56.9431C277.701 57.1987 277.58 57.4383 277.411 57.6616C277.241 57.8813 277.027 58.1176 276.767 58.3706L273.973 61.1117L273.833 60.7885L278.067 60.602L278.108 61.5333L272.866 61.7642ZM279.364 62.7129L279.404 62.2556C279.558 62.2598 279.671 62.2255 279.745 62.1527C279.819 62.0799 279.864 61.9828 279.88 61.8613C279.897 61.7399 279.895 61.6064 279.874 61.461L279.309 61.4858L279.255 60.2478L280.329 60.2005L280.39 61.6029C280.407 61.9863 280.325 62.279 280.144 62.4809C279.966 62.6827 279.706 62.76 279.364 62.7129ZM285.138 61.3938C284.626 61.4163 284.165 61.3213 283.753 61.109C283.345 60.8928 283.015 60.5908 282.764 60.203C282.516 59.8115 282.381 59.36 282.358 58.8488L282.231 55.9564C282.208 55.4451 282.303 54.9836 282.516 54.5717C282.732 54.1597 283.034 53.8299 283.422 53.5823C283.813 53.3345 284.265 53.1994 284.776 53.1769C285.287 53.1543 285.749 53.2493 286.16 53.4617C286.572 53.674 286.902 53.976 287.15 54.3676C287.398 54.7592 287.533 55.2106 287.555 55.7219L287.683 58.6142C287.705 59.1255 287.61 59.587 287.398 59.9989C287.185 60.4071 286.883 60.7369 286.492 60.9883C286.1 61.2361 285.649 61.3712 285.138 61.3938ZM285.096 60.457C285.407 60.4434 285.685 60.3561 285.93 60.1953C286.176 60.0344 286.368 59.8247 286.506 59.5662C286.645 59.3039 286.707 59.0194 286.694 58.7127L286.561 55.7053C286.548 55.3949 286.46 55.117 286.299 54.8716C286.139 54.6262 285.929 54.4342 285.67 54.2956C285.412 54.1569 285.127 54.0944 284.817 54.1081C284.51 54.1216 284.232 54.2089 283.983 54.3699C283.738 54.5307 283.546 54.7404 283.407 54.999C283.268 55.2576 283.206 55.5421 283.22 55.8525L283.352 58.8599C283.366 59.1666 283.453 59.4445 283.614 59.6936C283.775 59.939 283.984 60.131 284.243 60.2696C284.505 60.4081 284.79 60.4705 285.096 60.457ZM291.996 61.0917C291.485 61.1142 291.023 61.0193 290.611 60.8069C290.203 60.5907 289.873 60.2887 289.622 59.9009C289.374 59.5094 289.239 59.0579 289.216 58.5467L289.089 55.6543C289.066 55.143 289.161 54.6815 289.374 54.2696C289.59 53.8576 289.892 53.5278 290.28 53.2802C290.671 53.0324 291.123 52.8973 291.634 52.8748C292.145 52.8523 292.607 52.9472 293.019 53.1596C293.43 53.3719 293.76 53.6739 294.008 54.0655C294.256 54.4571 294.391 54.9085 294.413 55.4198L294.541 58.3121C294.563 58.8234 294.468 59.285 294.256 59.6968C294.044 60.105 293.742 60.4348 293.35 60.6862C292.959 60.934 292.507 61.0691 291.996 61.0917ZM291.955 60.1549C292.265 60.1413 292.543 60.054 292.788 59.8932C293.034 59.7324 293.226 59.5226 293.364 59.2641C293.503 59.0018 293.565 58.7173 293.552 58.4106L293.419 55.4032C293.406 55.0928 293.318 54.8149 293.158 54.5695C292.997 54.3241 292.787 54.1321 292.528 53.9935C292.27 53.8548 291.985 53.7924 291.675 53.806C291.368 53.8195 291.09 53.9068 290.841 54.0678C290.596 54.2286 290.404 54.4383 290.265 54.6969C290.127 54.9555 290.064 55.24 290.078 55.5504L290.21 58.5578C290.224 58.8645 290.311 59.1424 290.472 59.3915C290.633 59.6369 290.843 59.8289 291.101 59.9675C291.363 60.106 291.648 60.1684 291.955 60.1549ZM297.061 60.7039L296.375 60.0755L303.298 52.5257L303.984 53.154L297.061 60.7039ZM302.667 60.6216C302.305 60.6376 301.971 60.5645 301.664 60.4024C301.36 60.2364 301.112 60.0095 300.92 59.7216C300.728 59.43 300.624 59.1016 300.608 58.7364C300.592 58.3786 300.669 58.0459 300.838 57.7384C301.008 57.4309 301.238 57.181 301.53 56.9889C301.821 56.7968 302.142 56.693 302.493 56.6775C302.854 56.6616 303.189 56.7365 303.496 56.9023C303.803 57.0644 304.051 57.2913 304.24 57.583C304.432 57.871 304.536 58.1975 304.552 58.5627C304.568 58.9279 304.493 59.2642 304.327 59.5715C304.165 59.875 303.938 60.1229 303.647 60.315C303.355 60.5035 303.028 60.6057 302.667 60.6216ZM302.629 59.7616C302.83 59.7527 303.012 59.6935 303.175 59.5838C303.342 59.474 303.472 59.333 303.563 59.1606C303.658 58.9881 303.701 58.8015 303.692 58.6006C303.683 58.3997 303.624 58.2176 303.514 58.0541C303.408 57.8868 303.267 57.7576 303.091 57.6666C302.918 57.5717 302.732 57.5287 302.531 57.5376C302.33 57.5464 302.148 57.6057 301.984 57.7153C301.821 57.8213 301.691 57.9624 301.597 58.1385C301.502 58.311 301.459 58.4977 301.468 58.6986C301.477 58.8994 301.536 59.0816 301.645 59.2451C301.755 59.4086 301.896 59.5377 302.069 59.6326C302.241 59.7274 302.428 59.7704 302.629 59.7616ZM297.866 56.552C297.504 56.5679 297.17 56.4949 296.863 56.3328C296.556 56.167 296.306 55.9402 296.114 55.6522C295.925 55.3605 295.823 55.032 295.807 54.6668C295.791 54.3089 295.868 53.9762 296.038 53.6687C296.207 53.3612 296.437 53.1114 296.729 52.9193C297.021 52.7272 297.342 52.6234 297.692 52.6079C298.054 52.592 298.386 52.667 298.69 52.8329C298.997 52.995 299.247 53.2218 299.439 53.5134C299.631 53.8013 299.735 54.1279 299.751 54.4931C299.767 54.8583 299.692 55.1946 299.527 55.5019C299.361 55.8056 299.132 56.0535 298.84 56.2456C298.552 56.434 298.228 56.5361 297.866 56.552ZM297.828 55.692C298.029 55.6831 298.211 55.6239 298.375 55.5142C298.542 55.4044 298.671 55.2633 298.762 55.091C298.857 54.9185 298.9 54.7318 298.891 54.531C298.882 54.3301 298.823 54.148 298.713 53.9845C298.607 53.8172 298.466 53.688 298.29 53.597C298.118 53.5021 297.931 53.4591 297.73 53.468C297.529 53.4768 297.347 53.5361 297.184 53.6457C297.02 53.7517 296.891 53.8928 296.796 54.0689C296.701 54.2414 296.658 54.4281 296.667 54.629C296.676 54.8298 296.735 55.012 296.845 55.1755C296.954 55.339 297.096 55.4681 297.268 55.563C297.441 55.6578 297.627 55.7008 297.828 55.692Z" fill="#F65556"/>
</g>
<defs>
<filter id="filter0_d_12939_63616" x="0.153196" y="0.291918" width="347.337" height="129.144" filterUnits="userSpaceOnUse" color-interpolation-filters="sRGB">
<feFlood flood-opacity="0" result="BackgroundImageFix"/>
<feColorMatrix in="SourceAlpha" type="matrix" values="0 0 0 0 0 0 0 0 0 0 0 0 0 0 0 0 0 0 127 0" result="hardAlpha"/>
<feOffset dy="9.13872"/>
<feGaussianBlur stdDeviation="11.4234"/>
<feComposite in2="hardAlpha" operator="out"/>
<feColorMatrix type="matrix" values="0 0 0 0 0.0235294 0 0 0 0 0.0392157 0 0 0 0 0.113725 0 0 0 0.25 0"/>
<feBlend mode="normal" in2="BackgroundImageFix" result="effect1_dropShadow_12939_63616"/>
<feBlend mode="normal" in="SourceGraphic" in2="effect1_dropShadow_12939_63616" result="shape"/>
</filter>
</defs>
</svg>
