<svg width="348" height="135" viewBox="0 0 348 135" fill="none" xmlns="http://www.w3.org/2000/svg">
<g filter="url(#filter0_d_12938_63602)">
<rect x="27.4626" y="13.3745" width="298.836" height="70.3682" rx="9.13872" transform="rotate(3.7013 27.4626 13.3745)" fill="#1B2537" shape-rendering="crispEdges"/>
<path d="M79.0779 56.4018C76.0096 66.0153 65.7272 71.3216 56.1114 68.2527C46.4996 65.1848 41.1927 54.9028 44.2621 45.2901C47.3294 35.6754 57.6118 30.3687 67.2247 33.4368C76.8398 36.505 82.1463 46.7879 79.0777 56.4019L79.0778 56.4018L79.0779 56.4018Z" fill="#23292F"/>
<path d="M71.3294 40.7855L75.0105 41.0237L66.8593 48.1123C63.9075 50.6779 59.4096 50.3869 56.8109 47.4622L49.6379 39.3823L53.322 39.6206L58.7694 45.7584C60.4214 47.6113 63.2552 47.7947 65.1322 46.17L71.3294 40.7855Z" fill="white"/>
<path d="M51.9105 60.7068L48.2269 60.4685L56.4309 53.3364C59.3828 50.7708 63.8806 51.0618 66.4793 53.9864L73.696 62.1161L70.0149 61.878L64.5208 55.6903C62.8689 53.8373 60.035 53.654 58.158 55.2787L51.9105 60.7068Z" fill="white"/>
<path d="M94.94 48.1595L98.3559 43.7136L95.624 38.9726L97.5072 39.0945L99.3917 42.4665L101.676 39.3641L103.572 39.4868L100.252 43.8363L103.054 48.6844L101.171 48.5625L99.2224 45.0838L96.8359 48.2821L94.94 48.1595ZM104.072 48.7502L104.667 39.5576L108.465 39.8033C108.555 39.8091 108.669 39.8208 108.809 39.8384C108.949 39.8517 109.078 39.8729 109.196 39.9019C109.723 40.0172 110.15 40.2221 110.477 40.5168C110.808 40.8118 111.043 41.1732 111.182 41.601C111.326 42.0248 111.381 42.4899 111.349 42.9964C111.3 43.7454 111.069 44.3779 110.655 44.8939C110.242 45.4056 109.639 45.7 108.848 45.777L108.187 45.7919L105.818 45.6387L105.611 48.8498L104.072 48.7502ZM109.352 49.0918L107.781 45.2336L109.367 44.9901L111.094 49.2045L109.352 49.0918ZM105.911 44.2024L108.107 44.3444C108.192 44.35 108.289 44.3519 108.395 44.3503C108.502 44.3486 108.601 44.3379 108.692 44.3182C108.952 44.2709 109.159 44.171 109.314 44.0187C109.474 43.8666 109.59 43.6903 109.663 43.4899C109.74 43.2897 109.785 43.0918 109.797 42.896C109.81 42.7003 109.791 42.4982 109.74 42.2898C109.694 42.0774 109.602 41.8855 109.463 41.7141C109.329 41.543 109.137 41.4173 108.885 41.337C108.798 41.3057 108.701 41.2844 108.595 41.2733C108.489 41.2579 108.393 41.2474 108.308 41.2419L106.112 41.0999L105.911 44.2024ZM112.501 49.2955L113.095 40.1029L116.894 40.3486C116.983 40.3544 117.098 40.3661 117.238 40.3836C117.378 40.397 117.507 40.4182 117.625 40.4471C118.151 40.5624 118.578 40.7674 118.905 41.0621C119.237 41.357 119.472 41.7184 119.611 42.1462C119.754 42.57 119.81 43.0352 119.777 43.5416C119.745 44.0438 119.63 44.4979 119.433 44.904C119.236 45.3058 118.954 45.6316 118.587 45.8814C118.225 46.1315 117.777 46.2799 117.244 46.3266C117.124 46.3359 116.991 46.3401 116.846 46.3393C116.705 46.3387 116.592 46.3357 116.507 46.3302L114.247 46.184L114.039 49.395L112.501 49.2955ZM114.34 44.7476L116.536 44.8897C116.621 44.8952 116.717 44.8971 116.824 44.8955C116.931 44.8939 117.03 44.8832 117.121 44.8634C117.38 44.8161 117.588 44.7163 117.743 44.5639C117.902 44.4118 118.018 44.2356 118.091 44.0351C118.168 43.835 118.213 43.637 118.226 43.4413C118.239 43.2455 118.22 43.0434 118.169 42.835C118.123 42.6226 118.031 42.4307 117.892 42.2594C117.758 42.0883 117.565 41.9626 117.314 41.8822C117.226 41.8509 117.129 41.8297 117.023 41.8185C116.917 41.8031 116.822 41.7927 116.737 41.7872L114.541 41.6451L114.34 44.7476Z" fill="white"/>
<path d="M93.6529 67.7728L96.6414 63.9605L94.2337 59.898L95.2077 59.961L97.1609 63.3183L99.5304 60.2407L100.51 60.304L97.5989 64.0225L100.066 68.1877L99.0919 68.1247L97.0735 64.6698L94.6323 67.8362L93.6529 67.7728ZM100.946 68.2446L101.456 60.3652L104.498 60.562C104.575 60.567 104.66 60.5762 104.755 60.5896C104.853 60.5996 104.951 60.617 105.048 60.6416C105.456 60.7302 105.795 60.8969 106.065 61.1414C106.339 61.3826 106.538 61.6775 106.662 62.0262C106.789 62.3752 106.84 62.7557 106.813 63.1679C106.775 63.7625 106.585 64.2686 106.243 64.686C105.9 65.1035 105.434 65.3498 104.843 65.4252L104.56 65.4728L101.944 65.3036L101.751 68.2967L100.946 68.2446ZM105.718 68.5533L104.371 65.2463L105.162 65.0007L106.642 68.6131L105.718 68.5533ZM101.994 64.5375L104.21 64.6809C104.275 64.6851 104.352 64.6864 104.44 64.6848C104.528 64.6832 104.615 64.676 104.7 64.6631C104.974 64.6222 105.202 64.5253 105.384 64.3722C105.569 64.2194 105.712 64.0326 105.81 63.8118C105.912 63.5913 105.971 63.3589 105.987 63.1145C106.003 62.8701 105.974 62.632 105.901 62.4001C105.832 62.1649 105.716 61.9595 105.551 61.784C105.39 61.6088 105.177 61.4833 104.911 61.4074C104.828 61.3838 104.743 61.3673 104.656 61.358C104.568 61.345 104.492 61.3364 104.426 61.3322L102.21 61.1888L101.994 64.5375ZM107.85 68.6912L108.36 60.8118L111.402 61.0087C111.479 61.0136 111.564 61.0228 111.659 61.0362C111.757 61.0463 111.855 61.0636 111.952 61.0882C112.36 61.1769 112.699 61.3435 112.969 61.5881C113.243 61.8292 113.442 62.1241 113.566 62.4728C113.693 62.8218 113.744 63.2023 113.717 63.6145C113.691 64.0231 113.592 64.3922 113.42 64.7217C113.249 65.0513 113.012 65.3199 112.709 65.5274C112.41 65.7315 112.054 65.8514 111.641 65.8869C111.542 65.8952 111.443 65.8997 111.344 65.9007C111.249 65.9018 111.163 65.8999 111.086 65.895L108.848 65.7502L108.654 68.7433L107.85 68.6912ZM108.898 64.9841L111.114 65.1275C111.179 65.1317 111.256 65.1331 111.344 65.1314C111.432 65.1298 111.519 65.1226 111.604 65.1098C111.878 65.0689 112.105 64.9719 112.288 64.8188C112.473 64.666 112.615 64.4792 112.714 64.2585C112.816 64.038 112.875 63.8055 112.891 63.5611C112.907 63.3167 112.878 63.0786 112.805 62.8467C112.736 62.6115 112.619 62.4061 112.455 62.2306C112.294 62.0554 112.081 61.9299 111.814 61.854C111.732 61.8304 111.647 61.8139 111.559 61.8046C111.472 61.7916 111.396 61.783 111.33 61.7788L109.114 61.6354L108.898 64.9841Z" fill="#8E9BAE"/>
<path d="M168.118 61.6398C173.643 61.6054 176.219 69.225 179.273 69.4333C184.161 69.7666 183.515 61.8532 188.391 61.303C193.891 60.3622 193.14 54.2823 196.879 53.4031C200.618 52.5238 201.395 59.4832 204.45 59.6809C208.728 59.9576 209.82 65.6009 214.76 65.1369C219.152 64.7243 218.653 50.0125 223.465 50.3308C227.808 50.6182 226.974 57.411 232.474 57.7668" stroke="#F65556" stroke-width="1.82774" stroke-linecap="round"/>
<rect x="252.288" y="48.749" width="53.9185" height="9.13872" rx="4.56936" transform="rotate(3.7013 252.288 48.749)" fill="#64748B"/>
<path d="M270.657 71.7228L270.709 70.9184L273.992 71.1308L273.94 71.9351L270.657 71.7228ZM276.538 75.1638L276.978 68.3623L275.437 69.1638L275.508 68.0749L277.048 67.2844L278.038 67.3484L277.529 75.2278L276.538 75.1638ZM278.984 76.5528L279.073 76.1025C279.226 76.1234 279.343 76.1016 279.424 76.0373C279.505 75.9729 279.56 75.8812 279.59 75.7623C279.62 75.6433 279.632 75.5104 279.627 75.3635L279.063 75.3271L279.143 74.0905L280.216 74.1598L280.125 75.5606C280.1 75.9436 279.987 76.2257 279.784 76.4068C279.586 76.5881 279.319 76.6367 278.984 76.5528ZM282 75.5116L282.062 74.6364L285.762 71.7163C286.071 71.4726 286.282 71.2371 286.396 71.01C286.513 70.7795 286.58 70.5403 286.596 70.2922C286.615 69.9894 286.564 69.7114 286.441 69.458C286.318 69.2046 286.141 68.999 285.909 68.8412C285.682 68.6836 285.416 68.595 285.113 68.5754C284.8 68.5551 284.516 68.6118 284.262 68.7456C284.008 68.8757 283.802 69.0583 283.644 69.2935C283.489 69.529 283.405 69.7909 283.39 70.0793L282.394 70.0149C282.426 69.5188 282.569 69.0885 282.824 68.724C283.078 68.3558 283.409 68.0769 283.817 67.8871C284.229 67.694 284.687 67.6137 285.19 67.6462C285.679 67.6779 286.109 67.8193 286.481 68.0704C286.854 68.318 287.138 68.6423 287.336 69.0433C287.537 69.441 287.622 69.8824 287.591 70.3676C287.569 70.7105 287.506 71.0049 287.402 71.251C287.302 71.4973 287.155 71.7222 286.963 71.9259C286.77 72.1259 286.531 72.3376 286.246 72.5609L283.171 74.9829L283.067 74.6465L287.296 74.9201L287.236 75.8503L282 75.5116ZM291.194 76.2767C290.683 76.2436 290.234 76.0992 289.848 75.8434C289.466 75.5843 289.17 75.2483 288.963 74.8356C288.759 74.4195 288.673 73.956 288.706 73.4453L288.893 70.5562C288.926 70.0455 289.071 69.597 289.327 69.2106C289.586 68.8244 289.922 68.5293 290.334 68.3252C290.751 68.1213 291.214 68.0359 291.725 68.069C292.235 68.102 292.684 68.2464 293.07 68.5022C293.457 68.758 293.752 69.0939 293.956 69.51C294.16 69.9262 294.245 70.3896 294.212 70.9003L294.025 73.7894C293.992 74.3001 293.848 74.7486 293.592 75.135C293.336 75.5178 293 75.8129 292.584 76.0204C292.168 76.2243 291.704 76.3097 291.194 76.2767ZM291.254 75.341C291.564 75.361 291.85 75.3044 292.111 75.1711C292.373 75.0379 292.586 74.8502 292.752 74.6082C292.918 74.3625 293.011 74.0865 293.031 73.78L293.225 70.776C293.246 70.466 293.189 70.1802 293.056 69.9189C292.922 69.6575 292.735 69.4439 292.493 69.278C292.251 69.1122 291.975 69.0192 291.665 68.9992C291.358 68.9793 291.072 69.036 290.807 69.169C290.546 69.3023 290.332 69.4899 290.167 69.732C290.001 69.974 289.908 70.25 289.888 70.5601L289.693 73.5641C289.674 73.8705 289.73 74.1563 289.863 74.4213C289.996 74.6827 290.184 74.8963 290.426 75.0621C290.672 75.2282 290.948 75.3212 291.254 75.341ZM296.271 76.4403L295.657 75.7412L303.358 68.9863L303.972 69.6854L296.271 76.4403ZM301.853 76.9662C301.491 76.9428 301.167 76.8339 300.879 76.6395C300.595 76.4416 300.373 76.1891 300.214 75.8821C300.054 75.5714 299.987 75.2337 300.01 74.8689C300.033 74.5114 300.146 74.189 300.347 73.9017C300.549 73.6143 300.805 73.391 301.116 73.2316C301.427 73.0722 301.757 73.0038 302.107 73.0265C302.469 73.0498 302.793 73.1606 303.08 73.3587C303.368 73.5531 303.59 73.8056 303.746 74.116C303.905 74.4231 303.973 74.759 303.95 75.1238C303.926 75.4885 303.815 75.8147 303.617 76.1023C303.423 76.3864 303.171 76.6082 302.86 76.7676C302.549 76.9233 302.214 76.9895 301.853 76.9662ZM301.908 76.1071C302.109 76.1201 302.296 76.0809 302.471 75.9896C302.649 75.8986 302.792 75.7724 302.902 75.6109C303.015 75.4497 303.078 75.2688 303.091 75.0682C303.104 74.8675 303.065 74.68 302.973 74.5056C302.886 74.3278 302.76 74.1841 302.595 74.0745C302.433 73.9615 302.252 73.8985 302.052 73.8856C301.851 73.8726 301.664 73.9117 301.489 74.003C301.315 74.0906 301.171 74.2169 301.058 74.3817C300.945 74.5429 300.882 74.7238 300.869 74.9245C300.856 75.1251 300.895 75.3126 300.987 75.487C301.078 75.6614 301.204 75.8051 301.365 75.9181C301.527 76.0311 301.707 76.0941 301.908 76.1071ZM297.521 72.4001C297.16 72.3768 296.836 72.2679 296.548 72.0734C296.26 71.8753 296.037 71.6228 295.877 71.3157C295.721 71.0053 295.655 70.6676 295.679 70.3029C295.702 69.9454 295.815 69.623 296.016 69.3356C296.218 69.0483 296.474 68.8249 296.785 68.6655C297.096 68.5062 297.426 68.4378 297.776 68.4604C298.137 68.4838 298.46 68.5944 298.744 68.7923C299.032 68.9867 299.255 69.2393 299.415 69.55C299.574 69.857 299.642 70.1929 299.619 70.5577C299.595 70.9225 299.484 71.2487 299.286 71.5362C299.088 71.8201 298.834 72.0418 298.523 72.2012C298.217 72.3572 297.883 72.4235 297.521 72.4001ZM297.577 71.5411C297.778 71.554 297.965 71.5149 298.14 71.4236C298.318 71.3325 298.461 71.2063 298.571 71.0449C298.684 70.8837 298.747 70.7028 298.76 70.5021C298.773 70.3015 298.733 70.114 298.642 69.9396C298.555 69.7618 298.428 69.6181 298.263 69.5085C298.102 69.3955 297.921 69.3325 297.721 69.3195C297.52 69.3065 297.333 69.3457 297.158 69.437C296.984 69.5246 296.84 69.6508 296.727 69.8157C296.614 69.9769 296.551 70.1578 296.538 70.3584C296.525 70.5591 296.564 70.7466 296.656 70.921C296.747 71.0954 296.873 71.2391 297.034 71.3521C297.195 71.4651 297.376 71.5281 297.577 71.5411Z" fill="#F65556"/>
</g>
<defs>
<filter id="filter0_d_12938_63602" x="0.0731182" y="-0.33357" width="348.449" height="135.206" filterUnits="userSpaceOnUse" color-interpolation-filters="sRGB">
<feFlood flood-opacity="0" result="BackgroundImageFix"/>
<feColorMatrix in="SourceAlpha" type="matrix" values="0 0 0 0 0 0 0 0 0 0 0 0 0 0 0 0 0 0 127 0" result="hardAlpha"/>
<feOffset dy="9.13872"/>
<feGaussianBlur stdDeviation="11.4234"/>
<feComposite in2="hardAlpha" operator="out"/>
<feColorMatrix type="matrix" values="0 0 0 0 0.0235294 0 0 0 0 0.0392157 0 0 0 0 0.113725 0 0 0 0.25 0"/>
<feBlend mode="normal" in2="BackgroundImageFix" result="effect1_dropShadow_12938_63602"/>
<feBlend mode="normal" in="SourceGraphic" in2="effect1_dropShadow_12938_63602" result="shape"/>
</filter>
</defs>
</svg>
