<svg width="348" height="132" viewBox="0 0 348 132" fill="none" xmlns="http://www.w3.org/2000/svg">
<g filter="url(#filter0_d_5100_42221)">
<rect x="23.2148" y="29.8625" width="298.836" height="70.3682" rx="9.13872" transform="rotate(-3.11 23.2148 29.8625)" fill="#1B2537" shape-rendering="crispEdges"/>
<rect x="23.478" y="30.0986" width="298.336" height="69.8682" rx="8.88872" transform="rotate(-3.11 23.478 30.0986)" stroke="url(#paint0_linear_5100_42221)" stroke-width="0.5" shape-rendering="crispEdges"/>
<path d="M79.5688 66.4646C77.6622 76.3742 68.0817 82.8625 58.1698 80.9557C48.2621 79.0493 41.7731 69.4694 43.6808 59.5605C45.5862 49.6499 55.1667 43.1611 65.0755 45.0674C74.9867 46.9736 81.4753 56.5547 79.5685 66.4647L79.5687 66.4646L79.5688 66.4646Z" fill="#23292F"/>
<path d="M70.0227 51.8776L73.706 51.6775L66.453 59.6828C63.8263 62.5804 59.3257 62.8249 56.3985 60.2291L48.3179 53.0569L52.0042 52.8566L58.1411 58.305C60.0012 59.9489 62.8368 59.7948 64.5078 57.959L70.0227 51.8776Z" fill="white"/>
<path d="M53.1037 73.9612L49.4179 74.1615L56.7182 66.1067C59.3449 63.2091 63.8455 62.9646 66.7727 65.5604L74.9027 72.7768L71.2193 72.977L65.0301 67.4845C63.17 65.8406 60.3344 65.9946 58.6634 67.8304L53.1037 73.9612Z" fill="white"/>
<path d="M94.3414 56.3992L97.2059 51.5796L93.9311 47.1961L95.8154 47.0937L98.0865 50.2184L99.9866 46.8671L101.884 46.764L99.1031 51.4765L102.46 55.9581L100.576 56.0605L98.2288 52.8374L96.2385 56.2961L94.3414 56.3992ZM103.479 55.9027L102.98 46.7044L106.78 46.4979C106.87 46.4931 106.985 46.4911 107.126 46.492C107.267 46.4886 107.397 46.4943 107.518 46.5091C108.054 46.5611 108.502 46.714 108.862 46.9678C109.226 47.2214 109.503 47.5523 109.691 47.9606C109.884 48.3644 109.994 48.8197 110.022 49.3265C110.063 50.076 109.908 50.7314 109.558 51.2928C109.209 51.85 108.645 52.2137 107.869 52.3841L107.214 52.4773L104.844 52.6061L105.019 55.8191L103.479 55.9027ZM108.762 55.6157L106.744 51.9711L108.291 51.5411L110.506 55.5209L108.762 55.6157ZM104.766 51.1688L106.963 51.0494C107.049 51.0448 107.144 51.0354 107.25 51.021C107.356 51.0067 107.453 50.9844 107.541 50.954C107.793 50.8762 107.987 50.7525 108.123 50.5828C108.264 50.4129 108.358 50.2241 108.406 50.0165C108.459 49.8086 108.48 49.6067 108.47 49.4108C108.459 49.2149 108.416 49.0165 108.341 48.8156C108.27 48.6102 108.156 48.4306 107.998 48.2769C107.844 48.1229 107.638 48.0209 107.379 47.9709C107.288 47.9502 107.19 47.9407 107.083 47.9422C106.976 47.9395 106.88 47.9404 106.795 47.945L104.597 48.0644L104.766 51.1688ZM111.913 55.4445L111.413 46.2462L115.214 46.0397C115.303 46.0349 115.419 46.0329 115.56 46.0337C115.7 46.0304 115.831 46.0361 115.951 46.0509C116.488 46.1029 116.936 46.2558 117.296 46.5096C117.66 46.7632 117.936 47.0941 118.125 47.5024C118.318 47.9062 118.428 48.3615 118.456 48.8682C118.483 49.3707 118.423 49.8353 118.275 50.2619C118.127 50.6842 117.886 51.0411 117.552 51.3326C117.221 51.6239 116.795 51.8244 116.271 51.934C116.153 51.9575 116.021 51.9774 115.877 51.9938C115.737 52.01 115.624 52.0203 115.539 52.025L113.278 52.1478L113.452 55.3608L111.913 55.4445ZM113.2 50.7106L115.397 50.5912C115.482 50.5866 115.578 50.5771 115.684 50.5628C115.79 50.5485 115.887 50.5262 115.975 50.4958C116.227 50.418 116.421 50.2943 116.557 50.1246C116.697 49.9547 116.792 49.7659 116.84 49.5582C116.893 49.3504 116.914 49.1485 116.903 48.9526C116.893 48.7567 116.85 48.5583 116.775 48.3573C116.704 48.1519 116.59 47.9724 116.432 47.8186C116.278 47.6647 116.072 47.5627 115.813 47.5127C115.722 47.492 115.623 47.4824 115.517 47.484C115.41 47.4812 115.314 47.4822 115.228 47.4868L113.031 47.6062L113.2 50.7106Z" fill="white"/>
<path d="M95.3894 76.0267L97.9047 71.8868L95.0322 68.1386L96.0068 68.0856L98.3444 71.1875L100.332 67.8506L101.312 67.7974L98.8628 71.8348L101.806 75.678L100.832 75.731L98.4179 72.5399L96.3695 75.9734L95.3894 76.0267ZM102.687 75.6302L102.259 67.7459L105.303 67.5805C105.38 67.5764 105.466 67.5754 105.561 67.5775C105.66 67.5758 105.759 67.5814 105.858 67.5943C106.274 67.6339 106.631 67.7592 106.928 67.97C107.228 68.177 107.461 68.4463 107.625 68.7778C107.793 69.1091 107.888 69.481 107.911 69.8935C107.943 70.4884 107.814 71.0135 107.524 71.4685C107.234 71.9236 106.8 72.2236 106.222 72.3684L105.946 72.4493L103.329 72.5915L103.492 75.5864L102.687 75.6302ZM107.462 75.3708L105.732 72.2468L106.488 71.9092L108.387 75.3205L107.462 75.3708ZM103.288 71.825L105.505 71.7045C105.571 71.7009 105.647 71.6931 105.735 71.6811C105.822 71.669 105.907 71.6516 105.99 71.6288C106.257 71.5557 106.471 71.4324 106.634 71.2588C106.8 71.085 106.919 70.8827 106.991 70.6518C107.066 70.4208 107.097 70.1829 107.084 69.9384C107.071 69.6938 107.014 69.4608 106.914 69.2392C106.818 69.0138 106.678 68.8238 106.493 68.669C106.313 68.5141 106.086 68.4148 105.813 68.371C105.728 68.3574 105.641 68.3511 105.554 68.3522C105.466 68.3496 105.389 68.3501 105.323 68.3537L103.106 68.4742L103.288 71.825ZM109.595 75.2548L109.167 67.3706L112.211 67.2052C112.288 67.201 112.374 67.2 112.469 67.2022C112.568 67.2005 112.667 67.2061 112.767 67.2189C113.182 67.2586 113.539 67.3838 113.836 67.5947C114.136 67.8017 114.369 68.0709 114.533 68.4024C114.701 68.7338 114.796 69.1057 114.819 69.5181C114.841 69.9269 114.787 70.3051 114.655 70.6527C114.524 71.0003 114.321 71.2951 114.044 71.5371C113.772 71.7752 113.433 71.9364 113.027 72.0207C112.93 72.0406 112.832 72.0569 112.734 72.0696C112.639 72.082 112.553 72.0903 112.477 72.0945L110.237 72.2162L110.4 75.2111L109.595 75.2548ZM110.196 71.4497L112.413 71.3292C112.479 71.3256 112.555 71.3178 112.643 71.3057C112.73 71.2937 112.815 71.2762 112.898 71.2534C113.165 71.1803 113.38 71.057 113.542 70.8834C113.708 70.7097 113.827 70.5073 113.899 70.2765C113.974 70.0454 114.005 69.8076 113.992 69.563C113.979 69.3185 113.922 69.0854 113.822 68.8639C113.726 68.6385 113.586 68.4484 113.402 68.2937C113.221 68.1388 112.994 68.0394 112.721 67.9957C112.636 67.982 112.55 67.9757 112.462 67.9768C112.374 67.9743 112.297 67.9748 112.231 67.9784L110.014 68.0989L110.196 71.4497Z" fill="#8E9BAE"/>
<path d="M168.602 61.1054C174.084 60.4161 177.545 67.6764 180.603 67.5209C185.496 67.2722 183.915 59.4913 188.691 58.3667C194.041 56.7803 192.575 50.8323 196.183 49.5158C199.791 48.1994 201.388 55.0175 204.445 54.8514C208.726 54.6188 210.48 60.0927 215.329 59.0463C219.642 58.1156 217.401 43.5667 222.217 43.3122C226.563 43.0825 226.541 49.9263 232.044 49.6273" stroke="#F65556" stroke-width="1.82774" stroke-linecap="round"/>
<rect x="250.649" y="38.3232" width="53.9185" height="9.13872" rx="4.56936" transform="rotate(-3.11 250.649 38.3232)" fill="#64748B"/>
<path d="M271.613 58.9561L271.569 58.1513L274.854 57.9728L274.898 58.7776L271.613 58.9561ZM277.861 61.6753L277.491 54.8697L276.056 55.8483L275.997 54.7587L277.432 53.7911L278.423 53.7373L278.852 61.6215L277.861 61.6753ZM280.454 62.7645L280.489 62.3068C280.643 62.3094 280.757 62.274 280.83 62.2004C280.902 62.1269 280.947 62.0293 280.962 61.9077C280.977 61.7861 280.974 61.6526 280.951 61.5074L280.387 61.5381L280.32 60.3007L281.393 60.2424L281.469 61.644C281.49 62.0273 281.411 62.3208 281.232 62.5246C281.056 62.7281 280.797 62.8081 280.454 62.7645ZM283.325 61.3729L283.283 60.4966L286.611 57.1583C286.888 56.8796 287.07 56.6208 287.156 56.3819C287.245 56.1391 287.283 55.8935 287.27 55.6453C287.253 55.3424 287.169 55.0724 287.017 54.8354C286.865 54.5983 286.665 54.4152 286.416 54.2859C286.171 54.1565 285.897 54.1 285.594 54.1164C285.28 54.1335 285.005 54.2235 284.769 54.3864C284.532 54.5457 284.349 54.7515 284.22 55.0038C284.095 55.2559 284.042 55.526 284.061 55.8142L283.064 55.8683C283.037 55.3719 283.129 54.9277 283.338 54.5356C283.547 54.1398 283.843 53.8235 284.225 53.5868C284.611 53.3461 285.056 53.2121 285.56 53.1848C286.049 53.1582 286.493 53.2475 286.892 53.4528C287.291 53.6545 287.613 53.9427 287.856 54.3175C288.104 54.6885 288.24 55.1167 288.267 55.6021C288.285 55.9453 288.258 56.2451 288.184 56.5017C288.114 56.7582 287.995 56.9989 287.828 57.224C287.66 57.4454 287.448 57.6839 287.191 57.9395L284.426 60.7091L284.282 60.3874L288.514 60.1575L288.565 61.0883L283.325 61.3729ZM292.545 61.0422C292.034 61.07 291.571 60.9798 291.157 60.7717C290.747 60.5597 290.414 60.2611 290.159 59.8759C289.907 59.4869 289.767 59.0369 289.739 58.5259L289.582 55.635C289.555 55.124 289.645 54.6615 289.853 54.2475C290.065 53.8333 290.363 53.5004 290.749 53.2488C291.138 52.997 291.588 52.8573 292.099 52.8295C292.61 52.8017 293.072 52.8919 293.486 53.1001C293.9 53.3082 294.233 53.6068 294.485 53.9958C294.737 54.3848 294.876 54.8348 294.904 55.3459L295.061 58.2367C295.089 58.7477 294.999 59.2103 294.791 59.6243C294.582 60.0346 294.284 60.3675 293.895 60.6229C293.506 60.8747 293.056 61.0145 292.545 61.0422ZM292.494 60.106C292.804 60.0891 293.081 59.999 293.325 59.8357C293.569 59.6724 293.759 59.4607 293.895 59.2007C294.03 58.9371 294.09 58.6519 294.073 58.3453L293.91 55.3395C293.893 55.0292 293.803 54.7522 293.64 54.5085C293.476 54.2648 293.265 54.0749 293.005 53.9389C292.745 53.803 292.459 53.7434 292.149 53.7603C291.843 53.7769 291.566 53.867 291.318 54.0306C291.075 54.1939 290.885 54.4056 290.749 54.6656C290.613 54.9255 290.553 55.2107 290.57 55.5209L290.733 58.5268C290.75 58.8334 290.84 59.1104 291.004 59.3578C291.167 59.6015 291.379 59.7913 291.639 59.9273C291.902 60.0631 292.187 60.1226 292.494 60.106ZM297.606 60.6025L296.913 59.9812L303.758 52.3607L304.451 52.982L297.606 60.6025ZM303.21 60.4628C302.849 60.4824 302.514 60.4127 302.205 60.2538C301.9 60.091 301.649 59.8666 301.454 59.5807C301.259 59.2911 301.152 58.9638 301.132 58.5988C301.113 58.2411 301.186 57.9076 301.352 57.5984C301.519 57.2892 301.746 57.037 302.036 56.8419C302.326 56.6468 302.646 56.5397 302.996 56.5206C303.357 56.501 303.693 56.5725 304.002 56.7351C304.31 56.894 304.561 57.1184 304.752 57.4082C304.947 57.6941 305.054 58.0196 305.074 58.3846C305.094 58.7496 305.023 59.0866 304.86 59.3957C304.701 59.7008 304.477 59.951 304.187 60.1461C303.897 60.3376 303.572 60.4431 303.21 60.4628ZM303.164 59.6032C303.364 59.5922 303.546 59.5311 303.708 59.4198C303.874 59.3083 304.002 59.1659 304.091 58.9926C304.184 58.8192 304.225 58.6321 304.215 58.4313C304.204 58.2306 304.143 58.049 304.031 57.8866C303.923 57.7204 303.781 57.5927 303.604 57.5035C303.431 57.4104 303.243 57.3693 303.043 57.3802C302.842 57.3911 302.66 57.4523 302.498 57.5636C302.336 57.6713 302.208 57.8137 302.115 57.9908C302.022 58.1642 301.981 58.3513 301.992 58.5521C302.003 58.7528 302.064 58.9344 302.175 59.0967C302.286 59.2591 302.429 59.3868 302.602 59.4799C302.776 59.573 302.963 59.6141 303.164 59.6032ZM298.368 56.4426C298.007 56.4622 297.672 56.3926 297.363 56.2336C297.054 56.0711 296.802 55.8468 296.607 55.5608C296.415 55.2711 296.31 54.9437 296.29 54.5786C296.271 54.2209 296.344 53.8875 296.51 53.5782C296.676 53.269 296.904 53.0169 297.194 52.8217C297.483 52.6266 297.803 52.5195 298.154 52.5005C298.515 52.4809 298.849 52.5524 299.154 52.7152C299.463 52.8742 299.715 53.0984 299.91 53.388C300.105 53.674 300.212 53.9995 300.232 54.3645C300.252 54.7295 300.181 55.0665 300.018 55.3755C299.855 55.6809 299.629 55.9311 299.339 56.1263C299.053 56.3175 298.729 56.423 298.368 56.4426ZM298.321 55.583C298.522 55.5721 298.704 55.511 298.866 55.3997C299.032 55.2881 299.16 55.1457 299.249 54.9725C299.342 54.799 299.383 54.6119 299.372 54.4112C299.362 54.2104 299.3 54.0289 299.189 53.8665C299.081 53.7003 298.939 53.5726 298.762 53.4834C298.588 53.3903 298.401 53.3492 298.201 53.3601C298 53.371 297.818 53.4321 297.656 53.5434C297.493 53.6511 297.366 53.7935 297.273 53.9706C297.18 54.1441 297.139 54.3312 297.15 54.5319C297.16 54.7327 297.222 54.9143 297.333 55.0766C297.444 55.239 297.587 55.3667 297.76 55.4598C297.934 55.5528 298.121 55.5939 298.321 55.583Z" fill="#F65556"/>
</g>
<defs>
<filter id="filter0_d_5100_42221" x="0.36804" y="-0.058424" width="347.907" height="132.171" filterUnits="userSpaceOnUse" color-interpolation-filters="sRGB">
<feFlood flood-opacity="0" result="BackgroundImageFix"/>
<feColorMatrix in="SourceAlpha" type="matrix" values="0 0 0 0 0 0 0 0 0 0 0 0 0 0 0 0 0 0 127 0" result="hardAlpha"/>
<feOffset dy="9.13872"/>
<feGaussianBlur stdDeviation="11.4234"/>
<feComposite in2="hardAlpha" operator="out"/>
<feColorMatrix type="matrix" values="0 0 0 0 0.0235294 0 0 0 0 0.0392157 0 0 0 0 0.113725 0 0 0 0.25 0"/>
<feBlend mode="normal" in2="BackgroundImageFix" result="effect1_dropShadow_5100_42221"/>
<feBlend mode="normal" in="SourceGraphic" in2="effect1_dropShadow_5100_42221" result="shape"/>
</filter>
<linearGradient id="paint0_linear_5100_42221" x1="172.633" y1="29.8625" x2="172.633" y2="100.231" gradientUnits="userSpaceOnUse">
<stop stop-color="#64748B"/>
<stop offset="0.485" stop-color="#64748B" stop-opacity="0"/>
<stop offset="1" stop-color="#64748B" stop-opacity="0.35"/>
</linearGradient>
</defs>
</svg>
