<svg width="349" height="136" viewBox="0 0 349 136" fill="none" xmlns="http://www.w3.org/2000/svg">
<g filter="url(#filter0_d_4140_74220)">
<rect x="27.9053" y="14" width="298.836" height="69.4543" rx="9.13872" transform="rotate(4.05 27.9053 14)" fill="#1B2537" shape-rendering="crispEdges"/>
<circle cx="61.9163" cy="51.2221" r="18.2774" transform="rotate(4.05 61.9163 51.2221)" fill="#EDF0F4"/>
<path d="M62.6411 40.2796L62.4612 40.7619L61.4491 55.0562L61.5839 55.2111L68.4967 51.7589L62.6411 40.2796Z" fill="#343434"/>
<path d="M62.6411 40.2794L55.2263 50.8191L61.5839 55.211L62.0752 48.2729L62.6411 40.2794Z" fill="#8C8C8C"/>
<path d="M61.4949 56.4673L61.4061 56.5612L61.0455 61.653L61.1104 61.8975L68.4116 53.0174L61.4949 56.4673Z" fill="#3C3C3B"/>
<path d="M61.1104 61.8974L61.4949 56.4672L55.1372 52.0774L61.1104 61.8974Z" fill="#8C8C8C"/>
<path d="M61.584 55.211L68.4968 51.7587L62.0752 48.2729L61.584 55.211Z" fill="#141414"/>
<path d="M55.2264 50.8192L61.584 55.2111L62.0752 48.273L55.2264 50.8192Z" fill="#393939"/>
<path d="M95.9678 48.7934L96.6184 39.6046L102.553 40.0248L102.451 41.4669L98.0542 41.1556L97.8938 43.4209L101.525 43.678L101.423 45.1201L97.7917 44.8631L97.6078 47.4602L102.004 47.7715L101.902 49.2136L95.9678 48.7934ZM107.472 49.608C107.011 49.6609 106.562 49.6654 106.125 49.6216C105.691 49.5824 105.308 49.4761 104.974 49.3028C104.64 49.1253 104.395 48.8664 104.24 48.5262C104.104 48.2173 104.042 47.9072 104.056 47.5961C104.069 47.2849 104.09 46.9336 104.117 46.5423L104.542 40.5504L106.073 40.6588L105.655 46.5614C105.636 46.8379 105.621 47.0805 105.61 47.2893C105.604 47.4983 105.636 47.6716 105.708 47.8092C105.843 48.0753 106.078 48.2352 106.412 48.2887C106.746 48.3423 107.13 48.3524 107.564 48.319L107.472 49.608ZM103.07 43.5822L103.155 42.3762L107.96 42.7164L107.875 43.9224L103.07 43.5822ZM113.721 50.0504L113.956 46.7322C113.971 46.5153 113.974 46.2739 113.962 46.008C113.951 45.7422 113.899 45.4841 113.806 45.2337C113.717 44.9795 113.569 44.766 113.364 44.5932C113.162 44.4207 112.878 44.3216 112.512 44.2957C112.317 44.2818 112.121 44.3 111.925 44.3503C111.729 44.4005 111.547 44.4988 111.378 44.645C111.214 44.7873 111.076 44.9913 110.963 45.2569C110.85 45.5183 110.779 45.8596 110.749 46.2807L109.864 45.8269C109.906 45.2398 110.056 44.716 110.316 44.2555C110.579 43.7954 110.942 43.4405 111.404 43.1911C111.867 42.9374 112.421 42.8334 113.068 42.8792C113.579 42.9154 113.994 43.0303 114.313 43.2239C114.633 43.4176 114.882 43.6532 115.059 43.9308C115.236 44.2084 115.36 44.4994 115.433 44.8039C115.505 45.1083 115.545 45.3954 115.552 45.6652C115.563 45.9311 115.562 46.1469 115.551 46.3128L115.278 50.1607L113.721 50.0504ZM108.942 49.712L109.592 40.5232L110.964 40.6203L110.622 45.4572L110.807 45.4703L110.499 49.8223L108.942 49.712ZM120.063 50.6918C119.365 50.6424 118.763 50.4481 118.257 50.1087C117.751 49.7693 117.368 49.321 117.108 48.7639C116.853 48.2071 116.75 47.5799 116.799 46.8822C116.852 46.1293 117.043 45.4865 117.372 44.9539C117.7 44.4171 118.133 44.0138 118.669 43.744C119.206 43.4741 119.812 43.3631 120.489 43.411C121.203 43.4616 121.798 43.6726 122.272 44.0439C122.75 44.4113 123.089 44.9077 123.288 45.5332C123.488 46.1587 123.528 46.882 123.41 47.7031L121.885 47.5951L121.925 47.0335C121.974 46.2845 121.881 45.7285 121.646 45.3656C121.411 45.0026 121.014 44.8014 120.457 44.762C119.827 44.7174 119.346 44.8799 119.012 45.2496C118.678 45.6151 118.485 46.1721 118.432 46.9209C118.382 47.6185 118.497 48.1696 118.776 48.5742C119.055 48.9788 119.489 49.2018 120.076 49.2434C120.454 49.2702 120.786 49.2103 121.07 49.0636C121.358 48.9131 121.588 48.6835 121.76 48.375L123.246 48.942C122.938 49.5444 122.496 49.9983 121.918 50.3037C121.345 50.6095 120.727 50.7388 120.063 50.6918ZM117.916 47.3141L117.999 46.1527L122.74 46.4884L122.658 47.6498L117.916 47.3141ZM124.621 50.8222L125.109 43.9305L126.468 44.0268L126.349 45.705L126.198 45.4763C126.3 45.2526 126.427 45.0521 126.581 44.8749C126.739 44.6937 126.922 44.5485 127.131 44.4393C127.309 44.3365 127.503 44.2604 127.712 44.211C127.925 44.1577 128.14 44.1324 128.358 44.135C128.576 44.1333 128.786 44.1567 128.988 44.2052L128.887 45.641C128.687 45.567 128.452 45.5311 128.182 45.5334C127.917 45.536 127.674 45.5936 127.452 45.7061C127.231 45.8059 127.046 45.9404 126.897 46.1094C126.753 46.2787 126.641 46.476 126.561 46.7012C126.481 46.9221 126.432 47.1645 126.413 47.4283L126.165 50.9315L124.621 50.8222ZM132.713 51.5875C132.015 51.5381 131.413 51.3437 130.907 51.0043C130.401 50.6649 130.018 50.2167 129.758 49.6596C129.503 49.1028 129.4 48.4756 129.449 47.7779C129.502 47.0249 129.693 46.3822 130.022 45.8496C130.35 45.3128 130.783 44.9095 131.319 44.6396C131.856 44.3698 132.462 44.2588 133.139 44.3067C133.853 44.3573 134.448 44.5683 134.922 44.9396C135.4 45.3069 135.739 45.8034 135.938 46.4289C136.138 47.0544 136.179 47.7777 136.061 48.5987L134.535 48.4908L134.575 47.9292C134.624 47.1802 134.531 46.6242 134.296 46.2613C134.061 45.8983 133.664 45.6971 133.107 45.6576C132.478 45.6131 131.996 45.7756 131.662 46.1453C131.328 46.5107 131.135 47.0678 131.082 47.8165C131.032 48.5142 131.147 49.0653 131.426 49.4699C131.706 49.8744 132.139 50.0975 132.726 50.1391C133.104 50.1659 133.436 50.106 133.72 49.9593C134.008 49.8087 134.238 49.5792 134.41 49.2707L135.896 49.8376C135.588 50.4401 135.146 50.894 134.568 51.1994C133.995 51.5051 133.377 51.6345 132.713 51.5875ZM130.566 48.2097L130.649 47.0484L135.39 47.3841L135.308 48.5454L130.566 48.2097ZM139.841 52.0986C139.331 52.0625 138.915 51.9476 138.596 51.7539C138.276 51.5603 138.027 51.3246 137.85 51.047C137.673 50.7694 137.549 50.4784 137.476 50.174C137.404 49.8696 137.362 49.5844 137.351 49.3186C137.344 49.0488 137.347 48.8309 137.359 48.665L137.631 44.8172L139.188 44.9274L138.953 48.2456C138.938 48.4583 138.936 48.6997 138.947 48.9698C138.958 49.2357 139.008 49.4958 139.097 49.75C139.19 50.0003 139.338 50.2117 139.539 50.3842C139.745 50.557 140.031 50.6563 140.397 50.6822C140.592 50.696 140.788 50.6778 140.984 50.6276C141.18 50.5773 141.36 50.481 141.524 50.3387C141.693 50.1925 141.833 49.9865 141.946 49.7209C142.059 49.4553 142.13 49.114 142.16 48.6971L143.045 49.151C143.003 49.738 142.851 50.2617 142.587 50.7218C142.328 51.1823 141.967 51.5394 141.504 51.7931C141.042 52.0426 140.488 52.1444 139.841 52.0986ZM142.108 52.0603L142.259 49.9226L142.074 49.9095L142.41 45.1556L143.955 45.2649L143.467 52.1565L142.108 52.0603ZM153.536 52.8695L153.832 48.6834C153.866 48.2112 153.775 47.835 153.559 47.5547C153.344 47.2701 153.037 47.1136 152.637 47.0853C152.39 47.0679 152.165 47.1096 151.961 47.2106C151.758 47.3074 151.591 47.4623 151.46 47.6754C151.33 47.8842 151.254 48.1396 151.233 48.4417L150.579 47.9913C150.608 47.5146 150.744 47.1031 150.987 46.7568C151.234 46.4066 151.552 46.1427 151.94 45.965C152.329 45.7873 152.753 45.7147 153.213 45.7473C153.974 45.8012 154.541 46.0722 154.912 46.5602C155.289 47.0443 155.45 47.6586 155.398 48.4031L155.074 52.9784L153.536 52.8695ZM145.247 52.2826L145.735 45.3909L147.094 45.4872L146.943 47.6249L147.134 47.6384L146.797 52.3924L145.247 52.2826ZM149.401 52.5767L149.696 48.4098C149.73 47.9291 149.639 47.5465 149.424 47.2619C149.209 46.9773 148.9 46.8207 148.496 46.7921C148.104 46.7644 147.78 46.8761 147.523 47.1272C147.27 47.3787 147.128 47.7192 147.098 48.1489L146.441 47.6407C146.473 47.194 146.612 46.7998 146.858 46.4581C147.105 46.1164 147.423 45.8568 147.811 45.6791C148.205 45.4974 148.635 45.4232 149.103 45.4563C149.618 45.4928 150.04 45.6338 150.369 45.8794C150.702 46.121 150.941 46.4372 151.084 46.8279C151.232 47.2146 151.289 47.644 151.256 48.1162L150.932 52.6851L149.401 52.5767Z" fill="white"/>
<path d="M94.4519 68.3907L95.0096 60.5146L99.9321 60.8631L99.8775 61.6343L95.759 61.3427L95.5661 64.0665L99.0283 64.3117L98.9737 65.0829L95.5115 64.8377L95.3105 67.6764L99.4291 67.968L99.3745 68.7392L94.4519 68.3907ZM102.785 68.9808L103.288 61.8758L100.537 61.681L100.592 60.9098L106.898 61.3563L106.844 62.1275L104.093 61.9327L103.589 69.0377L102.785 68.9808ZM107.218 69.2946L107.775 61.4184L108.579 61.4754L108.328 65.0251L112.682 65.3334L112.933 61.7836L113.732 61.8402L113.174 69.7163L112.375 69.6598L112.627 66.1046L108.273 65.7963L108.022 69.3515L107.218 69.2946Z" fill="#8E9BAE"/>
<path d="M165.943 57.087C171.518 58.8637 176.592 48.3477 180.32 48.6117C185.539 48.9812 183.79 60.7441 187.44 62.1066C191.513 64.0486 193.914 51.1841 197.195 51.8051C201.414 52.6036 201.389 60.5817 203.187 61.106C205.98 61.9204 206.433 73.4776 209.307 72.5775C212.644 71.5321 217.222 58.2195 220.95 58.4835C224.678 58.7474 225.85 63.8268 229.579 64.0909" stroke="#22C36B" stroke-width="1.82774" stroke-linecap="round"/>
<rect x="252.544" y="50.2861" width="53.9185" height="9.13872" rx="4.56936" transform="rotate(4.05 252.544 50.2861)" fill="#64748B"/>
<path d="M271.082 74.9984L271.23 72.9091L269.141 72.7611L269.198 71.9571L271.287 72.105L271.435 70.0211L272.239 70.0781L272.091 72.162L274.175 72.3095L274.118 73.1135L272.034 72.966L271.886 75.0554L271.082 74.9984ZM276.665 76.8504L277.146 70.0517L275.6 70.8438L275.677 69.7554L277.222 68.9742L278.212 69.0443L277.655 76.9205L276.665 76.8504ZM279.102 78.2542L279.194 77.8045C279.346 77.8263 279.463 77.8053 279.545 77.7414C279.626 77.6776 279.682 77.5862 279.713 77.4675C279.743 77.3487 279.756 77.2158 279.752 77.069L279.188 77.0291L279.276 75.793L280.348 75.8689L280.249 77.2691C280.222 77.6519 280.106 77.9333 279.903 78.1131C279.704 78.2932 279.436 78.3402 279.102 78.2542ZM284.661 77.5814C284.256 77.5528 283.885 77.4422 283.546 77.2497C283.212 77.0574 282.931 76.8067 282.704 76.4974C282.48 76.1847 282.329 75.8332 282.251 75.4429L283.204 75.2575C283.251 75.521 283.352 75.7536 283.506 75.955C283.661 76.1529 283.845 76.3126 284.06 76.434C284.279 76.5521 284.511 76.6199 284.755 76.6371C285.076 76.6599 285.369 76.6037 285.636 76.4686C285.906 76.3302 286.124 76.1386 286.292 75.8939C286.46 75.6456 286.554 75.3683 286.576 75.062C286.599 74.7448 286.54 74.453 286.402 74.1867C286.267 73.9169 286.075 73.6981 285.827 73.5303C285.579 73.3625 285.301 73.2677 284.995 73.246C284.649 73.2215 284.346 73.2734 284.088 73.4017C283.834 73.5266 283.628 73.6879 283.471 73.8857L282.63 73.4964L283.163 69.3948L287.39 69.6942L287.325 70.6185L283.567 70.3525L284.028 69.9783L283.592 73.2621L283.399 72.9681C283.634 72.7502 283.908 72.5882 284.219 72.482C284.535 72.376 284.851 72.3343 285.168 72.3568C285.657 72.3914 286.086 72.5372 286.456 72.7943C286.827 73.0477 287.111 73.3794 287.309 73.7892C287.508 74.1953 287.59 74.6427 287.555 75.1314C287.521 75.6163 287.366 76.0506 287.089 76.4341C286.813 76.814 286.46 77.1097 286.031 77.3212C285.606 77.5293 285.149 77.616 284.661 77.5814ZM291.362 78.0559C290.862 78.0205 290.417 77.8681 290.025 77.5985C289.638 77.3292 289.338 76.9781 289.127 76.5454C288.92 76.1093 288.835 75.6287 288.872 75.1036L289.057 72.4837C289.096 71.9331 289.249 71.4547 289.516 71.0485C289.787 70.6389 290.139 70.3304 290.571 70.1228C291.008 69.9118 291.494 69.8253 292.03 69.8633C292.464 69.894 292.86 70.0118 293.22 70.2168C293.583 70.4185 293.88 70.6942 294.112 71.0441L293.339 71.638C293.198 71.3972 293.007 71.2004 292.765 71.0477C292.523 70.895 292.256 70.8083 291.964 70.7876C291.618 70.7631 291.304 70.8251 291.022 70.9738C290.744 71.119 290.519 71.3229 290.347 71.5856C290.174 71.8446 290.077 72.1308 290.055 72.4444L289.943 74.0251L289.747 73.7694C290 73.4575 290.31 73.2156 290.678 73.0437C291.045 72.8719 291.435 72.8005 291.847 72.8297C292.336 72.8643 292.765 73.0101 293.136 73.2672C293.509 73.5246 293.794 73.858 293.988 74.2676C294.187 74.6737 294.269 75.1211 294.234 75.6097C294.199 76.0983 294.046 76.5327 293.773 76.9129C293.501 77.293 293.152 77.5872 292.727 77.7953C292.305 78.0036 291.85 78.0905 291.362 78.0559ZM291.428 77.1151C291.742 77.1373 292.034 77.0829 292.303 76.9517C292.573 76.8169 292.791 76.6271 292.959 76.3825C293.13 76.1344 293.227 75.8536 293.249 75.54C293.272 75.2264 293.215 74.9348 293.081 74.665C292.949 74.3956 292.76 74.1769 292.511 74.0091C292.267 73.8379 291.988 73.7411 291.674 73.7189C291.361 73.6967 291.069 73.753 290.799 73.8879C290.534 74.0193 290.315 74.209 290.143 74.4571C289.972 74.7051 289.875 74.9859 289.853 75.2995C289.831 75.6095 289.886 75.8992 290.017 76.1687C290.152 76.4347 290.342 76.6534 290.586 76.8246C290.834 76.9961 291.115 77.0929 291.428 77.1151ZM296.357 78.2447L295.747 77.5419L303.489 70.834L304.099 71.5369L296.357 78.2447ZM301.935 78.8046C301.574 78.779 301.251 78.6681 300.964 78.4719C300.681 78.2723 300.461 78.0185 300.303 77.7105C300.146 77.3989 300.08 77.0607 300.106 76.6961C300.131 76.3388 300.246 76.017 300.449 75.731C300.652 75.4449 300.91 75.2231 301.222 75.0656C301.533 74.9081 301.864 74.8417 302.214 74.8665C302.575 74.892 302.899 75.0047 303.185 75.2046C303.472 75.4008 303.692 75.6546 303.846 75.966C304.004 76.274 304.07 76.6103 304.044 76.9749C304.018 77.3396 303.905 77.6651 303.705 77.9514C303.509 78.2344 303.256 78.4546 302.944 78.6121C302.633 78.766 302.296 78.8301 301.935 78.8046ZM301.996 77.9458C302.197 77.96 302.385 77.922 302.559 77.8318C302.738 77.7418 302.883 77.6165 302.993 77.4557C303.107 77.2952 303.171 77.1147 303.185 76.9141C303.199 76.7136 303.161 76.5258 303.071 76.3509C302.985 76.1725 302.859 76.0281 302.695 75.9175C302.535 75.8035 302.354 75.7394 302.153 75.7252C301.953 75.711 301.765 75.749 301.59 75.8392C301.415 75.9258 301.271 76.0512 301.157 76.2153C301.043 76.3758 300.979 76.5564 300.965 76.7569C300.95 76.9575 300.988 77.1452 301.079 77.3202C301.169 77.4951 301.294 77.6396 301.455 77.7536C301.615 77.8676 301.796 77.9316 301.996 77.9458ZM297.632 74.2122C297.271 74.1867 296.947 74.0758 296.661 73.8796C296.374 73.6798 296.152 73.4258 295.995 73.1178C295.841 72.8064 295.777 72.4684 295.803 72.1038C295.828 71.7464 295.942 71.4247 296.146 71.1386C296.349 70.8525 296.607 70.6307 296.918 70.4732C297.23 70.3157 297.561 70.2494 297.911 70.2742C298.272 70.2997 298.594 70.4123 298.877 70.6119C299.163 70.8081 299.385 71.062 299.543 71.3737C299.7 71.6817 299.766 72.018 299.741 72.3826C299.715 72.7473 299.602 73.0727 299.402 73.3591C299.203 73.6418 298.947 73.8619 298.635 74.0194C298.327 74.1735 297.993 74.2378 297.632 74.2122ZM297.693 73.3535C297.893 73.3677 298.081 73.3297 298.256 73.2395C298.435 73.1495 298.579 73.0242 298.69 72.8634C298.804 72.7029 298.868 72.5224 298.882 72.3218C298.896 72.1213 298.858 71.9335 298.768 71.7586C298.682 71.5802 298.556 71.4357 298.392 71.3251C298.231 71.2112 298.051 71.1471 297.85 71.1329C297.65 71.1187 297.462 71.1567 297.287 71.2469C297.112 71.3335 296.968 71.4589 296.853 71.623C296.74 71.7835 296.675 71.964 296.661 72.1646C296.647 72.3651 296.685 72.5529 296.775 72.7279C296.865 72.9028 296.991 73.0473 297.151 73.1613C297.312 73.2752 297.492 73.3393 297.693 73.3535Z" fill="#22C36B"/>
</g>
<defs>
<filter id="filter0_d_4140_74220" x="0.153196" y="0.291918" width="348.689" height="136.08" filterUnits="userSpaceOnUse" color-interpolation-filters="sRGB">
<feFlood flood-opacity="0" result="BackgroundImageFix"/>
<feColorMatrix in="SourceAlpha" type="matrix" values="0 0 0 0 0 0 0 0 0 0 0 0 0 0 0 0 0 0 127 0" result="hardAlpha"/>
<feOffset dy="9.13872"/>
<feGaussianBlur stdDeviation="11.4234"/>
<feComposite in2="hardAlpha" operator="out"/>
<feColorMatrix type="matrix" values="0 0 0 0 0.0235294 0 0 0 0 0.0392157 0 0 0 0 0.113725 0 0 0 0.25 0"/>
<feBlend mode="normal" in2="BackgroundImageFix" result="effect1_dropShadow_4140_74220"/>
<feBlend mode="normal" in="SourceGraphic" in2="effect1_dropShadow_4140_74220" result="shape"/>
</filter>
</defs>
</svg>
