<svg width="348" height="136" viewBox="0 0 348 136" fill="none" xmlns="http://www.w3.org/2000/svg">
<g filter="url(#filter0_d_5303_43094)">
<rect x="27.3701" y="13.5925" width="298.836" height="69.4543" rx="9.13872" transform="rotate(4.05 27.3701 13.5925)" fill="white" shape-rendering="crispEdges"/>
<circle cx="61.3809" cy="50.8147" r="18.2774" transform="rotate(4.05 61.3809 50.8147)" fill="#EDF0F4"/>
<path d="M62.1055 39.8721L61.9256 40.3545L60.9135 54.6487L61.0483 54.8037L67.9611 51.3514L62.1055 39.8721Z" fill="#343434"/>
<path d="M62.1055 39.8719L54.6907 50.4116L61.0483 54.8035L61.5395 47.8655L62.1055 39.8719Z" fill="#8C8C8C"/>
<path d="M60.9595 56.0599L60.8707 56.1537L60.5101 61.2456L60.575 61.49L67.8762 52.6099L60.9595 56.0599Z" fill="#3C3C3B"/>
<path d="M60.5748 61.4899L60.9593 56.0598L54.6016 51.6699L60.5748 61.4899Z" fill="#8C8C8C"/>
<path d="M61.0483 54.8035L67.9611 51.3512L61.5396 47.8655L61.0483 54.8035Z" fill="#141414"/>
<path d="M54.6908 50.4117L61.0483 54.8036L61.5396 47.8656L54.6908 50.4117Z" fill="#393939"/>
<path d="M95.4324 48.386L96.083 39.1971L102.017 39.6173L101.915 41.0594L97.5188 40.7482L97.3584 43.0135L100.989 43.2705L100.887 44.7127L97.2563 44.4556L97.0724 47.0527L101.469 47.364L101.367 48.8061L95.4324 48.386ZM106.937 49.2005C106.476 49.2534 106.027 49.2579 105.589 49.2141C105.156 49.1749 104.772 49.0686 104.438 48.8954C104.105 48.7178 103.86 48.4589 103.705 48.1187C103.568 47.8098 103.507 47.4997 103.52 47.1886C103.534 46.8774 103.554 46.5262 103.582 46.1348L104.006 40.1429L105.538 40.2514L105.12 46.1539C105.1 46.4304 105.085 46.673 105.075 46.8818C105.068 47.0908 105.101 47.2642 105.173 47.4018C105.308 47.6679 105.542 47.8277 105.876 47.8813C106.21 47.9348 106.594 47.9449 107.028 47.9115L106.937 49.2005ZM102.535 43.1747L102.62 41.9687L107.425 42.3089L107.34 43.5149L102.535 43.1747ZM113.186 49.643L113.421 46.3248C113.436 46.1078 113.438 45.8664 113.427 45.6005C113.416 45.3347 113.364 45.0766 113.27 44.8263C113.181 44.572 113.034 44.3585 112.828 44.1857C112.627 44.0133 112.343 43.9141 111.977 43.8882C111.781 43.8743 111.586 43.8925 111.39 43.9428C111.194 43.993 111.011 44.0913 110.843 44.2376C110.679 44.3799 110.54 44.5838 110.428 44.8495C110.315 45.1108 110.244 45.4521 110.214 45.8733L109.329 45.4194C109.371 44.8323 109.521 44.3086 109.78 43.8481C110.044 43.3879 110.407 43.0331 110.869 42.7836C111.331 42.5299 111.886 42.426 112.533 42.4717C113.043 42.5079 113.458 42.6228 113.778 42.8164C114.098 43.0101 114.346 43.2457 114.523 43.5233C114.7 43.801 114.825 44.092 114.898 44.3964C114.97 44.7008 115.01 44.9879 115.016 45.2577C115.027 45.5236 115.027 45.7395 115.015 45.9054L114.743 49.7532L113.186 49.643ZM108.406 49.3046L109.057 40.1157L110.429 40.2129L110.086 45.0498L110.271 45.0629L109.963 49.4148L108.406 49.3046ZM119.527 50.2844C118.83 50.235 118.228 50.0406 117.722 49.7012C117.216 49.3618 116.833 48.9136 116.573 48.3565C116.317 47.7997 116.214 47.1724 116.264 46.4748C116.317 45.7218 116.508 45.079 116.836 44.5465C117.165 44.0097 117.598 43.6063 118.134 43.3365C118.67 43.0666 119.277 42.9557 119.953 43.0036C120.668 43.0542 121.262 43.2651 121.736 43.6364C122.215 44.0038 122.554 44.5002 122.753 45.1257C122.952 45.7512 122.993 46.4745 122.875 47.2956L121.35 47.1876L121.39 46.6261C121.439 45.8771 121.345 45.3211 121.11 44.9581C120.875 44.5952 120.479 44.394 119.922 44.3545C119.292 44.3099 118.81 44.4725 118.476 44.8422C118.143 45.2076 117.949 45.7647 117.896 46.5134C117.847 47.2111 117.962 47.7622 118.241 48.1667C118.52 48.5713 118.953 48.7943 119.54 48.8359C119.919 48.8627 120.25 48.8028 120.534 48.6562C120.823 48.5056 121.053 48.276 121.224 47.9675L122.71 48.5345C122.403 49.1369 121.96 49.5908 121.383 49.8963C120.81 50.202 120.191 50.3314 119.527 50.2844ZM117.381 46.9066L117.463 45.7452L122.204 46.0809L122.122 47.2423L117.381 46.9066ZM124.085 50.4147L124.573 43.5231L125.932 43.6193L125.813 45.2975L125.663 45.0688C125.764 44.8451 125.892 44.6447 126.045 44.4674C126.204 44.2862 126.387 44.141 126.596 44.0318C126.774 43.929 126.968 43.8529 127.176 43.8036C127.39 43.7503 127.605 43.7249 127.823 43.7275C128.041 43.7259 128.251 43.7493 128.453 43.7978L128.351 45.2335C128.151 45.1595 127.916 45.1236 127.647 45.1259C127.382 45.1285 127.138 45.1861 126.916 45.2987C126.696 45.3985 126.511 45.5329 126.362 45.7019C126.218 45.8713 126.105 46.0685 126.025 46.2937C125.945 46.5147 125.896 46.757 125.877 47.0208L125.629 50.524L124.085 50.4147ZM132.178 51.18C131.48 51.1307 130.878 50.9363 130.372 50.5969C129.866 50.2575 129.483 49.8092 129.223 49.2521C128.967 48.6953 128.864 48.0681 128.914 47.3704C128.967 46.6175 129.158 45.9747 129.486 45.4421C129.815 44.9053 130.248 44.502 130.784 44.2322C131.32 43.9623 131.927 43.8513 132.603 43.8992C133.318 43.9498 133.912 44.1608 134.386 44.5321C134.865 44.8995 135.204 45.3959 135.403 46.0214C135.602 46.6469 135.643 47.3702 135.525 48.1913L134 48.0833L134.04 47.5218C134.089 46.7727 133.995 46.2167 133.76 45.8538C133.525 45.4908 133.129 45.2896 132.572 45.2502C131.942 45.2056 131.46 45.3681 131.126 45.7378C130.793 46.1033 130.599 46.6603 130.546 47.4091C130.497 48.1067 130.612 48.6579 130.891 49.0624C131.17 49.467 131.603 49.69 132.19 49.7316C132.569 49.7584 132.9 49.6985 133.184 49.5518C133.473 49.4013 133.703 49.1717 133.874 48.8632L135.361 49.4302C135.053 50.0326 134.61 50.4865 134.033 50.7919C133.46 51.0977 132.841 51.227 132.178 51.18ZM130.031 47.8023L130.113 46.6409L134.854 46.9766L134.772 48.138L130.031 47.8023ZM139.306 51.6912C138.795 51.655 138.38 51.5401 138.06 51.3465C137.74 51.1528 137.492 50.9172 137.315 50.6396C137.138 50.3619 137.013 50.0709 136.941 49.7665C136.868 49.4621 136.826 49.177 136.815 48.9111C136.809 48.6413 136.811 48.4234 136.823 48.2575L137.096 44.4097L138.653 44.5199L138.418 47.8381C138.403 48.0508 138.4 48.2922 138.411 48.5624C138.422 48.8282 138.472 49.0883 138.561 49.3426C138.655 49.5929 138.802 49.8043 139.004 49.9767C139.21 50.1495 139.495 50.2488 139.861 50.2747C140.057 50.2886 140.253 50.2704 140.449 50.2201C140.645 50.1699 140.825 50.0736 140.989 49.9313C141.157 49.785 141.298 49.5791 141.411 49.3134C141.524 49.0478 141.595 48.7065 141.624 48.2896L142.509 48.7435C142.468 49.3306 142.315 49.8542 142.052 50.3144C141.793 50.7749 141.432 51.132 140.969 51.3857C140.507 51.6351 139.952 51.7369 139.306 51.6912ZM141.572 51.6528L141.724 49.5151L141.538 49.502L141.875 44.7481L143.419 44.8574L142.931 51.7491L141.572 51.6528ZM153 52.462L153.297 48.276C153.33 47.8038 153.239 47.4275 153.024 47.1472C152.809 46.8626 152.502 46.7062 152.102 46.6779C151.855 46.6604 151.63 46.7022 151.426 46.8032C151.222 46.8999 151.055 47.0548 150.925 47.2679C150.795 47.4767 150.719 47.7322 150.697 48.0342L150.043 47.5839C150.073 47.1071 150.209 46.6956 150.451 46.3494C150.698 45.9992 151.016 45.7352 151.405 45.5575C151.794 45.3799 152.218 45.3073 152.677 45.3398C153.439 45.3937 154.005 45.6647 154.377 46.1528C154.753 46.6369 154.915 47.2511 154.862 47.9956L154.538 52.5709L153 52.462ZM144.711 51.8751L145.199 44.9835L146.559 45.0797L146.407 47.2174L146.599 47.2309L146.262 51.9849L144.711 51.8751ZM148.866 52.1692L149.161 48.0023C149.195 47.5216 149.104 47.139 148.889 46.8544C148.674 46.5698 148.365 46.4132 147.96 46.3846C147.569 46.3569 147.245 46.4686 146.988 46.7198C146.735 46.9712 146.593 47.3118 146.562 47.7414L145.906 47.2332C145.937 46.7865 146.077 46.3923 146.323 46.0507C146.57 45.709 146.887 45.4493 147.276 45.2716C147.669 45.09 148.1 45.0157 148.568 45.0488C149.083 45.0853 149.505 45.2263 149.834 45.4719C150.167 45.7136 150.405 46.0297 150.549 46.4204C150.697 46.8071 150.754 47.2366 150.72 47.7088L150.397 52.2777L148.866 52.1692Z" fill="#10192D"/>
<path d="M93.9167 67.9832L94.4744 60.1071L99.397 60.4556L99.3424 61.2268L95.2238 60.9352L95.031 63.6591L98.4932 63.9042L98.4386 64.6754L94.9764 64.4303L94.7754 67.269L98.8939 67.5606L98.8393 68.3318L93.9167 67.9832ZM102.25 68.5733L102.753 61.4683L100.002 61.2736L100.057 60.5023L106.363 60.9489L106.309 61.7201L103.557 61.5253L103.054 68.6302L102.25 68.5733ZM106.683 68.8871L107.24 61.011L108.044 61.0679L107.793 64.6176L112.147 64.9259L112.398 61.3762L113.197 61.4327L112.639 69.3088L111.84 69.2523L112.092 65.6971L107.738 65.3888L107.487 68.944L106.683 68.8871Z" fill="#8E9BAE"/>
<path d="M165.408 56.6795C170.983 58.4562 176.056 47.9402 179.785 48.2042C185.004 48.5738 183.254 60.3366 186.905 61.6991C190.978 63.6412 193.379 50.7766 196.66 51.3976C200.879 52.1961 200.854 60.1742 202.652 60.6985C205.445 61.513 205.898 73.0702 208.772 72.17C212.109 71.1246 216.686 57.812 220.415 58.076C224.143 58.34 225.315 63.4194 229.043 63.6835" stroke="#22C36B" stroke-width="1.82774" stroke-linecap="round"/>
<rect x="252.009" y="49.8787" width="53.9185" height="9.13872" rx="4.56936" transform="rotate(4.05 252.009 49.8787)" fill="#E2E8F0"/>
<path d="M270.547 74.591L270.695 72.5016L268.606 72.3537L268.663 71.5496L270.752 71.6976L270.9 69.6137L271.704 69.6706L271.556 71.7545L273.64 71.902L273.583 72.7061L271.499 72.5585L271.351 74.6479L270.547 74.591ZM276.13 76.4429L276.611 69.6443L275.065 70.4363L275.142 69.3479L276.687 68.5668L277.677 68.6369L277.12 76.513L276.13 76.4429ZM278.567 77.8468L278.659 77.3971C278.811 77.4188 278.928 77.3978 279.01 77.3339C279.091 77.2701 279.147 77.1788 279.178 77.06C279.208 76.9412 279.221 76.8084 279.217 76.6615L278.653 76.6216L278.741 75.3855L279.813 75.4614L279.714 76.8616C279.687 77.2445 279.572 77.5258 279.368 77.7056C279.169 77.8857 278.901 77.9328 278.567 77.8468ZM284.126 77.174C283.721 77.1453 283.35 77.0347 283.011 76.8422C282.677 76.6499 282.396 76.3992 282.169 76.0899C281.945 75.7773 281.794 75.4258 281.716 75.0354L282.669 74.85C282.716 75.1136 282.817 75.3461 282.971 75.5476C283.126 75.7454 283.311 75.9051 283.525 76.0266C283.744 76.1447 283.976 76.2124 284.22 76.2297C284.541 76.2524 284.835 76.1962 285.101 76.0611C285.371 75.9227 285.589 75.7311 285.757 75.4865C285.925 75.2382 286.02 74.9609 286.041 74.6546C286.064 74.3373 286.006 74.0455 285.867 73.7792C285.732 73.5095 285.54 73.2907 285.292 73.1228C285.044 72.955 284.767 72.8602 284.46 72.8386C284.114 72.814 283.812 72.8659 283.553 72.9942C283.299 73.1191 283.093 73.2805 282.936 73.4782L282.095 73.0889L282.628 68.9874L286.856 69.2867L286.79 70.2111L283.033 69.945L283.493 69.5709L283.057 72.8547L282.864 72.5606C283.099 72.3427 283.373 72.1807 283.684 72.0745C284 71.9686 284.316 71.9268 284.633 71.9493C285.122 71.9839 285.551 72.1297 285.921 72.3868C286.292 72.6403 286.576 72.9719 286.775 73.3817C286.973 73.7879 287.055 74.2353 287.02 74.7239C286.986 75.2088 286.831 75.6431 286.554 76.0266C286.278 76.4065 285.926 76.7022 285.497 76.9137C285.071 77.1218 284.614 77.2086 284.126 77.174ZM290.827 77.6484C290.327 77.6131 289.882 77.4606 289.491 77.191C289.103 76.9217 288.803 76.5707 288.592 76.1379C288.385 75.7018 288.3 75.2212 288.337 74.6962L288.522 72.0763C288.561 71.5257 288.714 71.0473 288.981 70.6411C289.252 70.2315 289.604 69.9229 290.036 69.7153C290.473 69.5043 290.959 69.4178 291.495 69.4558C291.929 69.4865 292.325 69.6044 292.685 69.8094C293.048 70.011 293.345 70.2868 293.577 70.6366L292.804 71.2305C292.663 70.9897 292.472 70.7929 292.23 70.6402C291.988 70.4875 291.721 70.4008 291.429 70.3801C291.083 70.3556 290.769 70.4177 290.487 70.5663C290.209 70.7115 289.984 70.9155 289.812 71.1781C289.64 71.4371 289.542 71.7234 289.52 72.037L289.408 73.6177L289.212 73.3619C289.465 73.05 289.775 72.8081 290.143 72.6362C290.51 72.4644 290.9 72.393 291.312 72.4222C291.801 72.4568 292.23 72.6027 292.601 72.8597C292.975 73.1171 293.259 73.4505 293.453 73.8601C293.652 74.2663 293.734 74.7136 293.699 75.2023C293.664 75.6909 293.511 76.1253 293.239 76.5054C292.966 76.8856 292.617 77.1797 292.192 77.3878C291.771 77.5961 291.315 77.683 290.827 77.6484ZM290.893 76.7077C291.207 76.7299 291.499 76.6754 291.768 76.5442C292.038 76.4094 292.256 76.2197 292.424 75.975C292.596 75.727 292.692 75.4461 292.715 75.1326C292.737 74.819 292.68 74.5273 292.546 74.2576C292.414 73.9881 292.225 73.7694 291.976 73.6016C291.732 73.4304 291.453 73.3337 291.139 73.3115C290.826 73.2893 290.534 73.3456 290.264 73.4804C289.999 73.6118 289.78 73.8016 289.608 74.0496C289.437 74.2977 289.34 74.5785 289.318 74.8921C289.296 75.202 289.351 75.4917 289.482 75.7612C289.617 76.0273 289.807 76.2459 290.051 76.4171C290.299 76.5886 290.58 76.6855 290.893 76.7077ZM295.822 77.8372L295.212 77.1344L302.954 70.4266L303.564 71.1294L295.822 77.8372ZM301.401 78.3971C301.04 78.3715 300.716 78.2606 300.429 78.0645C300.146 77.8649 299.926 77.6111 299.768 77.3031C299.611 76.9914 299.545 76.6533 299.571 76.2886C299.596 75.9313 299.711 75.6096 299.914 75.3235C300.118 75.0374 300.375 74.8156 300.687 74.6581C300.998 74.5006 301.329 74.4342 301.679 74.459C302.04 74.4846 302.364 74.5973 302.65 74.7971C302.937 74.9933 303.157 75.2471 303.311 75.5585C303.469 75.8665 303.535 76.2028 303.509 76.5675C303.483 76.9321 303.37 77.2576 303.17 77.5439C302.975 77.8269 302.721 78.0471 302.409 78.2046C302.098 78.3585 301.762 78.4226 301.401 78.3971ZM301.461 77.5384C301.662 77.5526 301.85 77.5146 302.025 77.4243C302.203 77.3344 302.348 77.209 302.458 77.0482C302.572 76.8877 302.636 76.7072 302.65 76.5067C302.664 76.3061 302.626 76.1184 302.536 75.9434C302.45 75.765 302.325 75.6206 302.16 75.51C302 75.396 301.819 75.3319 301.619 75.3177C301.418 75.3035 301.23 75.3415 301.055 75.4318C300.881 75.5183 300.736 75.6437 300.622 75.8079C300.508 75.9684 300.444 76.1489 300.43 76.3494C300.415 76.55 300.453 76.7377 300.544 76.9127C300.634 77.0877 300.759 77.2321 300.92 77.3461C301.08 77.4601 301.261 77.5242 301.461 77.5384ZM297.097 73.8048C296.736 73.7792 296.412 73.6683 296.126 73.4721C295.839 73.2723 295.617 73.0184 295.46 72.7104C295.306 72.399 295.242 72.061 295.268 71.6963C295.293 71.339 295.407 71.0173 295.611 70.7312C295.814 70.4451 296.072 70.2233 296.384 70.0658C296.695 69.9083 297.026 69.8419 297.376 69.8667C297.737 69.8923 298.059 70.0048 298.342 70.2044C298.628 70.4006 298.85 70.6545 299.008 70.9662C299.166 71.2742 299.231 71.6105 299.206 71.9751C299.18 72.3398 299.067 72.6653 298.867 72.9516C298.668 73.2343 298.412 73.4544 298.1 73.6119C297.793 73.766 297.458 73.8303 297.097 73.8048ZM297.158 72.946C297.359 72.9602 297.546 72.9222 297.721 72.832C297.9 72.7421 298.044 72.6167 298.155 72.4559C298.269 72.2954 298.333 72.1149 298.347 71.9143C298.361 71.7138 298.323 71.526 298.233 71.3511C298.147 71.1727 298.021 71.0283 297.857 70.9177C297.696 70.8037 297.516 70.7396 297.315 70.7254C297.115 70.7112 296.927 70.7492 296.752 70.8394C296.577 70.926 296.433 71.0514 296.319 71.2155C296.205 71.376 296.141 71.5566 296.126 71.7571C296.112 71.9577 296.15 72.1454 296.24 72.3204C296.331 72.4953 296.456 72.6398 296.616 72.7538C296.777 72.8678 296.957 72.9318 297.158 72.946Z" fill="#22C36B"/>
</g>
<defs>
<filter id="filter0_d_5303_43094" x="-0.38196" y="-0.115553" width="348.689" height="136.08" filterUnits="userSpaceOnUse" color-interpolation-filters="sRGB">
<feFlood flood-opacity="0" result="BackgroundImageFix"/>
<feColorMatrix in="SourceAlpha" type="matrix" values="0 0 0 0 0 0 0 0 0 0 0 0 0 0 0 0 0 0 127 0" result="hardAlpha"/>
<feOffset dy="9.13872"/>
<feGaussianBlur stdDeviation="11.4234"/>
<feComposite in2="hardAlpha" operator="out"/>
<feColorMatrix type="matrix" values="0 0 0 0 0.105882 0 0 0 0 0.145098 0 0 0 0 0.215686 0 0 0 0.05 0"/>
<feBlend mode="normal" in2="BackgroundImageFix" result="effect1_dropShadow_5303_43094"/>
<feBlend mode="normal" in="SourceGraphic" in2="effect1_dropShadow_5303_43094" result="shape"/>
</filter>
</defs>
</svg>
