<svg width="347" height="129" viewBox="0 0 347 129" fill="none" xmlns="http://www.w3.org/2000/svg">
<g filter="url(#filter0_d_5100_42186)">
<rect x="22.541" y="27.9722" width="298.836" height="69.4543" rx="9.13872" transform="rotate(-2.85 22.541 27.9722)" fill="#1B2537" shape-rendering="crispEdges"/>
<rect x="22.8031" y="28.2094" width="298.336" height="68.9543" rx="8.88872" transform="rotate(-2.85 22.8031 28.2094)" stroke="url(#paint0_linear_5100_42186)" stroke-width="0.5" shape-rendering="crispEdges"/>
<path d="M78.7059 64.3731C76.7544 74.2739 67.1445 80.7187 57.2414 78.767C47.3424 76.8157 40.897 67.2063 42.8496 57.3062C44.7999 47.4043 54.4098 40.9591 64.3098 42.9104C74.2122 44.8615 80.6573 54.4719 78.7056 64.3733L78.7058 64.3731L78.7059 64.3731Z" fill="#F7931A"/>
<path fill-rule="evenodd" clip-rule="evenodd" d="M68.6986 57.8371C68.941 55.3897 67.0263 54.1759 64.4536 53.4307L65.1103 50.0991L63.0821 49.6997L62.4428 52.9436C61.9096 52.8384 61.3625 52.7416 60.8189 52.6457L61.4629 49.3804L59.4359 48.9809L58.7787 52.3115C58.3379 52.2339 57.9049 52.1572 57.4845 52.0745L57.4863 52.0641L54.6892 51.5118L54.2628 53.6778C54.2628 53.6778 55.7661 53.9445 55.7358 53.967C56.5572 54.1291 56.7306 54.6588 56.7274 55.0856L55.9794 58.881C56.0359 58.8924 56.1094 58.9094 56.191 58.9375L56.1321 58.9259C56.082 58.916 56.03 58.9057 55.9766 58.8957L54.928 64.2126C54.8411 64.464 54.6078 64.8463 54.0337 64.7341C54.0552 64.7622 52.5595 64.4433 52.5595 64.4433L51.679 66.7858L54.3184 67.3058C54.6075 67.3632 54.8933 67.4227 55.1762 67.4816C55.3738 67.5228 55.5701 67.5636 55.7651 67.6032L55.1018 70.973L57.1277 71.3725L57.7848 68.0385C58.3388 68.1597 58.8761 68.2701 59.4019 68.3733L58.7469 71.6917L60.7752 72.0911L61.4388 68.7276C64.8872 69.204 67.4429 68.8154 68.3703 65.672C69.1177 63.1411 68.1317 61.7519 66.2878 60.9057C67.5818 60.5387 68.525 59.6287 68.6993 57.8373L68.6987 57.8369L68.6986 57.8371ZM64.4408 64.4828C63.9864 66.7933 60.3668 66.0276 58.7107 65.6773L58.7106 65.6773C58.5616 65.6458 58.4286 65.6176 58.3151 65.5954L59.1957 61.131C59.334 61.1583 59.5028 61.1874 59.694 61.2204L59.694 61.2204C61.4037 61.5157 64.9067 62.1205 64.4409 64.4828L64.4408 64.4828ZM59.9312 59.1569C61.3121 59.4527 64.3245 60.098 64.739 57.998L64.7392 57.998C65.1623 55.8503 62.2412 55.3545 60.8146 55.1124C60.6541 55.0851 60.5125 55.0611 60.3967 55.0383L59.5984 59.0872C59.6938 59.106 59.8057 59.13 59.9312 59.1569Z" fill="white"/>
<path d="M94.2903 54.3366L93.8323 45.1362L97.4805 44.9545C98.1024 44.9236 98.6176 45.0239 99.0263 45.2555C99.439 45.4826 99.7508 45.7852 99.9618 46.1633C100.177 46.5411 100.295 46.9366 100.315 47.3498C100.341 47.8567 100.241 48.2929 100.016 48.6585C99.7946 49.0239 99.4806 49.2787 99.0736 49.4228L99.0577 49.1033C99.6436 49.2065 100.096 49.4594 100.415 49.862C100.738 50.2644 100.913 50.7318 100.939 51.2642C100.967 51.8094 100.886 52.2917 100.698 52.711C100.509 53.1303 100.214 53.4652 99.8125 53.7158C99.4151 53.9662 98.9139 54.1064 98.3091 54.1365L94.2903 54.3366ZM95.7771 52.8086L98.0452 52.6957C98.3136 52.6824 98.5516 52.6171 98.7592 52.5C98.9667 52.3787 99.1252 52.2171 99.2347 52.0152C99.3483 51.8089 99.3983 51.5694 99.3847 51.2968C99.3724 51.0497 99.3081 50.8309 99.1919 50.6403C99.0756 50.4496 98.9124 50.3019 98.7022 50.1971C98.4918 50.088 98.244 50.0405 97.9586 50.0548L95.6457 50.1699L95.7771 52.8086ZM95.5741 48.7323L97.6442 48.6293C97.8657 48.6182 98.0617 48.5658 98.2321 48.4719C98.4025 48.378 98.5346 48.2455 98.6286 48.0743C98.7225 47.9031 98.7635 47.6961 98.7514 47.4533C98.7355 47.1338 98.62 46.8727 98.405 46.6699C98.1899 46.4671 97.8992 46.3748 97.5329 46.3931L95.4628 46.4961L95.5741 48.7323ZM102.084 45.9808L102.013 44.5687L103.553 44.4921L103.624 45.9041L102.084 45.9808ZM102.479 53.9289L102.136 47.0286L103.676 46.9519L104.019 53.8523L102.479 53.9289ZM109.977 53.5556C109.526 53.6635 109.08 53.722 108.641 53.731C108.206 53.7442 107.813 53.6848 107.46 53.5529C107.107 53.4167 106.834 53.1891 106.638 52.87C106.466 52.5797 106.368 52.2793 106.344 51.9688C106.32 51.6582 106.298 51.307 106.278 50.9152L105.98 44.9157L107.513 44.8394L107.807 50.7494C107.821 51.0262 107.835 51.2689 107.85 51.4774C107.869 51.6857 107.922 51.8539 108.01 51.9819C108.176 52.2298 108.428 52.3603 108.766 52.3734C109.104 52.3865 109.486 52.3503 109.913 52.265L109.977 53.5556ZM104.883 48.1024L104.823 46.8948L109.634 46.6553L109.694 47.8629L104.883 48.1024ZM114.118 53.5417C113.407 53.5771 112.792 53.4497 112.273 53.1595C111.755 52.8651 111.348 52.4498 111.052 51.9137C110.761 51.3774 110.596 50.7622 110.557 50.0681C110.526 49.3608 110.633 48.7278 110.879 48.169C111.128 47.6057 111.498 47.156 111.99 46.8198C112.481 46.4794 113.076 46.2918 113.774 46.257C114.558 46.218 115.23 46.3831 115.791 46.7523C116.356 47.117 116.738 47.636 116.938 48.3093L115.426 48.8009C115.288 48.4363 115.075 48.1586 114.788 47.9679C114.501 47.773 114.181 47.6843 113.827 47.7019C113.427 47.7219 113.101 47.8341 112.851 48.0388C112.601 48.2391 112.422 48.5085 112.315 48.8469C112.208 49.1853 112.165 49.5653 112.186 49.987C112.219 50.6429 112.392 51.1659 112.706 51.5559C113.02 51.946 113.467 52.1265 114.046 52.0977C114.455 52.0774 114.772 51.9676 114.997 51.7686C115.226 51.5693 115.391 51.2899 115.493 50.9304L117.082 51.2036C116.904 51.917 116.559 52.4765 116.045 52.8821C115.531 53.2834 114.889 53.5033 114.118 53.5417ZM121.332 53.1825C120.642 53.2169 120.031 53.0914 119.501 52.8061C118.97 52.5209 118.548 52.1127 118.235 51.5817C117.927 51.0462 117.755 50.4228 117.72 49.7115C117.684 48.9874 117.797 48.3455 118.059 47.7859C118.322 47.2263 118.703 46.7803 119.203 46.4479C119.703 46.1156 120.292 45.9326 120.969 45.8989C121.664 45.8643 122.276 45.9896 122.807 46.2749C123.338 46.5602 123.76 46.9705 124.072 47.5057C124.385 48.0368 124.559 48.6579 124.594 49.3692C124.63 50.0848 124.517 50.7246 124.254 51.2885C123.996 51.8479 123.617 52.2959 123.117 52.6325C122.617 52.9648 122.022 53.1482 121.332 53.1825ZM121.26 51.7386C121.873 51.708 122.319 51.4809 122.597 51.0571C122.875 50.6334 122.997 50.0978 122.965 49.4504C122.932 48.7816 122.754 48.2567 122.432 47.8756C122.11 47.4903 121.646 47.3127 121.041 47.3428C120.628 47.3634 120.292 47.474 120.033 47.6748C119.778 47.8711 119.595 48.1386 119.484 48.4772C119.372 48.8115 119.327 49.1959 119.349 49.6304C119.382 50.2991 119.56 50.8262 119.882 51.2115C120.209 51.5924 120.668 51.768 121.26 51.7386ZM125.906 44.7948L125.836 43.3828L127.375 43.3061L127.446 44.7182L125.906 44.7948ZM126.302 52.743L125.958 45.8426L127.498 45.766L127.841 52.6663L126.302 52.743ZM134.528 52.3334L134.363 49.0111C134.352 48.7938 134.325 48.5539 134.282 48.2913C134.239 48.0287 134.156 47.7788 134.033 47.5415C133.914 47.2997 133.743 47.1055 133.517 46.9587C133.297 46.8117 133.003 46.7473 132.637 46.7655C132.441 46.7753 132.249 46.8169 132.06 46.8903C131.872 46.9638 131.703 47.0832 131.553 47.2486C131.407 47.4096 131.294 47.6287 131.214 47.906C131.134 48.179 131.104 48.5264 131.125 48.9481L130.192 48.6038C130.163 48.016 130.249 47.4779 130.451 46.9897C130.657 46.5011 130.975 46.1053 131.404 45.8021C131.833 45.4947 132.371 45.3248 133.018 45.2926C133.529 45.2672 133.955 45.3314 134.296 45.4852C134.637 45.639 134.912 45.8431 135.121 46.0975C135.33 46.3518 135.489 46.6257 135.597 46.9192C135.706 47.2127 135.779 47.493 135.818 47.7601C135.861 48.0227 135.887 48.237 135.895 48.4031L136.087 52.2558L134.528 52.3334ZM129.743 52.5717L129.399 45.6713L130.773 45.603L130.879 47.7433L131.065 47.7341L131.301 52.4941L129.743 52.5717Z" fill="white"/>
<path d="M95.1397 73.9741L94.7471 66.088L97.792 65.9364C98.2338 65.9144 98.6235 65.9865 98.9612 66.1527C99.2989 66.3189 99.5667 66.5526 99.7647 66.8539C99.9625 67.1515 100.071 67.4865 100.089 67.8589C100.11 68.2824 100.016 68.6659 99.8061 69.0094C99.5961 69.3492 99.3045 69.5925 98.9311 69.7392L98.9068 69.4714C99.4252 69.592 99.8396 69.8276 100.15 70.1781C100.46 70.5287 100.628 70.9632 100.654 71.4816C100.677 71.938 100.599 72.3371 100.423 72.679C100.245 73.0172 99.986 73.2845 99.6444 73.4808C99.3029 73.6772 98.9002 73.7869 98.4366 73.81L95.1397 73.9741ZM95.9118 73.1616L98.201 73.0476C98.5222 73.0316 98.8079 72.9607 99.0578 72.8348C99.3075 72.7052 99.5002 72.5309 99.6357 72.3119C99.7748 72.0927 99.8369 71.8334 99.822 71.534C99.8075 71.2419 99.7269 70.9824 99.5801 70.7555C99.4334 70.5285 99.2398 70.3515 98.9992 70.2244C98.7621 70.0935 98.4957 70.0354 98.2 70.0501L95.7629 70.1714L95.9118 73.1616ZM95.725 69.4102L97.954 69.2992C98.2059 69.2867 98.4331 69.2186 98.6355 69.0951C98.8378 68.9679 98.9942 68.8009 99.1047 68.5941C99.2188 68.3871 99.2694 68.1522 99.2563 67.8893C99.2377 67.5169 99.093 67.2204 98.8222 66.9996C98.555 66.7787 98.2224 66.6781 97.8245 66.6979L95.5955 66.8089L95.725 69.4102ZM103.74 73.5459L103.386 66.432L100.632 66.5691L100.593 65.797L106.908 65.4826L106.946 66.2548L104.191 66.3919L104.546 73.5058L103.74 73.5459ZM111.379 73.3303C110.594 73.3694 109.923 73.229 109.365 72.909C108.808 72.5854 108.375 72.122 108.067 71.5188C107.758 70.9156 107.584 70.2106 107.544 69.4038C107.504 68.5969 107.607 67.878 107.854 67.2472C108.101 66.6164 108.486 66.1141 109.009 65.7404C109.532 65.363 110.185 65.1547 110.97 65.1157C111.887 65.07 112.647 65.2683 113.251 65.7103C113.855 66.1488 114.284 66.7569 114.539 67.5348L113.728 67.7893C113.529 67.1733 113.203 66.6936 112.75 66.3501C112.298 66.0067 111.717 65.8526 111.009 65.8878C110.392 65.9186 109.886 66.0847 109.491 66.3861C109.096 66.6876 108.807 67.0955 108.624 67.6096C108.444 68.12 108.367 68.704 108.393 69.3615C108.422 70.0188 108.551 70.5925 108.78 71.0825C109.013 71.5724 109.343 71.9494 109.77 72.2136C110.2 72.474 110.724 72.5889 111.341 72.5582C112.049 72.5229 112.611 72.3119 113.028 71.9252C113.444 71.5348 113.72 71.0251 113.857 70.3961L114.69 70.5688C114.513 71.3681 114.147 72.0177 113.59 72.5176C113.033 73.0138 112.296 73.2847 111.379 73.3303Z" fill="#8E9BAE"/>
<path d="M164.904 57.154C170.515 55.4945 175.367 66.1144 179.1 65.9286C184.326 65.6684 182.823 53.8715 186.501 52.5858C190.614 50.7294 192.745 63.6414 196.039 63.0893C200.274 62.3794 200.416 54.4025 202.224 53.9159C205.033 53.1602 205.728 41.615 208.583 42.5751C211.898 43.6902 216.195 57.0957 219.928 56.9099C223.661 56.724 224.94 51.6703 228.672 51.4843" stroke="#22C36B" stroke-width="1.82774" stroke-linecap="round"/>
<rect x="249.912" y="37.0083" width="53.9185" height="9.13872" rx="4.56936" transform="rotate(-2.85 249.912 37.0083)" fill="#64748B"/>
<path d="M268.911 59.4326L268.806 57.3406L266.714 57.4447L266.674 56.6397L268.766 56.5355L268.662 54.449L269.468 54.4089L269.571 56.4954L271.658 56.3916L271.698 57.1966L269.611 57.3005L269.716 59.3925L268.911 59.4326ZM275.97 60.7007C275.459 60.7261 274.997 60.6338 274.584 60.4238C274.174 60.21 273.843 59.9099 273.589 59.5236C273.339 59.1334 273.202 58.6828 273.176 58.1716L273.032 55.2801C273.007 54.7689 273.099 54.3068 273.309 53.8938C273.523 53.4805 273.823 53.149 274.209 52.8992C274.599 52.6492 275.05 52.5114 275.561 52.486C276.072 52.4605 276.534 52.5528 276.947 52.7629C277.361 52.9729 277.692 53.273 277.942 53.6631C278.192 54.0533 278.33 54.5039 278.355 55.0151L278.499 57.9066C278.525 58.4178 278.432 58.8798 278.222 59.2929C278.012 59.7023 277.712 60.0338 277.322 60.2875C276.932 60.5375 276.481 60.6752 275.97 60.7007ZM275.924 59.7642C276.234 59.7487 276.511 59.6599 276.756 59.4977C277 59.3354 277.191 59.1246 277.328 58.8653C277.465 58.6023 277.526 58.3174 277.511 58.0107L277.361 55.0042C277.346 54.6938 277.257 54.4164 277.095 54.172C276.932 53.9275 276.721 53.7367 276.462 53.5995C276.203 53.4624 275.918 53.4015 275.608 53.417C275.301 53.4323 275.023 53.5211 274.775 53.6835C274.531 53.8457 274.34 54.0565 274.203 54.3159C274.066 54.5753 274.005 54.8601 274.02 55.1705L274.17 58.177C274.185 58.4837 274.274 58.7611 274.437 59.0092C274.599 59.2537 274.81 59.4445 275.069 59.5816C275.332 59.7186 275.617 59.7795 275.924 59.7642ZM280.108 61.5597L280.146 61.1022C280.3 61.1055 280.413 61.0706 280.486 60.9974C280.56 60.9242 280.604 60.8268 280.62 60.7053C280.636 60.5837 280.633 60.4502 280.611 60.3049L280.047 60.333L279.986 59.0953L281.059 59.0419L281.129 60.4439C281.148 60.8272 281.067 61.1204 280.887 61.3233C280.71 61.5261 280.451 61.6049 280.108 61.5597ZM282.986 60.1812L282.948 59.3047L286.29 55.9815C286.569 55.7041 286.752 55.4461 286.839 55.2076C286.93 54.9652 286.969 54.7198 286.956 54.4716C286.941 54.1685 286.858 53.8982 286.707 53.6605C286.556 53.4228 286.357 53.2387 286.109 53.1083C285.864 52.9777 285.591 52.92 285.288 52.9351C284.974 52.9507 284.698 53.0395 284.461 53.2013C284.224 53.3595 284.04 53.5645 283.91 53.8162C283.783 54.0677 283.729 54.3376 283.747 54.6259L282.75 54.6755C282.725 54.179 282.819 53.7351 283.03 53.344C283.241 52.9492 283.538 52.6342 283.921 52.3992C284.308 52.1603 284.754 52.0284 285.258 52.0033C285.747 51.9789 286.191 52.0703 286.589 52.2774C286.987 52.4808 287.307 52.7705 287.549 53.1464C287.795 53.5185 287.929 53.9473 287.954 54.4329C287.971 54.7761 287.942 55.0758 287.867 55.3321C287.795 55.5882 287.675 55.8284 287.507 56.0527C287.339 56.2734 287.126 56.5109 286.867 56.7653L284.089 59.5224L283.947 59.2001L288.18 58.9893L288.227 59.9203L282.986 60.1812ZM291.878 59.9087C291.473 59.9289 291.091 59.8637 290.732 59.7132C290.377 59.5626 290.068 59.3474 289.805 59.0676C289.546 58.7841 289.354 58.4533 289.229 58.0752L290.153 57.7767C290.231 58.0326 290.359 58.2513 290.537 58.4328C290.714 58.6106 290.917 58.747 291.145 58.8418C291.376 58.9327 291.614 58.9721 291.859 58.9599C292.18 58.9439 292.464 58.8529 292.712 58.6868C292.964 58.5169 293.158 58.3005 293.295 58.0375C293.432 57.7708 293.493 57.4841 293.477 57.1774C293.461 56.8598 293.369 56.5771 293.199 56.3294C293.033 56.0778 292.816 55.8836 292.55 55.7468C292.283 55.61 291.996 55.5493 291.69 55.5645C291.343 55.5818 291.049 55.6696 290.808 55.828C290.57 55.9826 290.386 56.1675 290.253 56.3827L289.372 56.0971L289.408 51.9614L293.641 51.7506L293.687 52.6762L289.925 52.8635L290.337 52.4367L290.299 55.7491L290.071 55.4804C290.279 55.2358 290.531 55.0421 290.827 54.8992C291.128 54.7562 291.437 54.6767 291.754 54.6609C292.244 54.6366 292.687 54.7298 293.086 54.9405C293.484 55.1476 293.806 55.4427 294.052 55.8257C294.298 56.2051 294.433 56.6394 294.458 57.1286C294.482 57.6142 294.38 58.064 294.151 58.478C293.923 58.8883 293.608 59.2242 293.208 59.4857C292.811 59.7433 292.368 59.8844 291.878 59.9087ZM296.767 59.5006L296.077 58.8762L302.957 51.2868L303.647 51.9113L296.767 59.5006ZM302.372 59.3863C302.011 59.4043 301.676 59.3331 301.368 59.1728C301.063 59.0086 300.814 58.7831 300.62 58.4963C300.427 58.2058 300.321 57.878 300.302 57.5129C300.285 57.1551 300.36 56.822 300.527 56.5135C300.695 56.2051 300.924 55.9539 301.214 55.7601C301.505 55.5663 301.825 55.4607 302.176 55.4433C302.537 55.4253 302.872 55.4983 303.18 55.6623C303.489 55.8226 303.738 56.0481 303.928 56.3388C304.121 56.6256 304.227 56.9515 304.245 57.3166C304.264 57.6817 304.191 58.0184 304.027 58.3267C303.866 58.6312 303.641 58.8803 303.35 59.0741C303.06 59.2642 302.734 59.3683 302.372 59.3863ZM302.329 58.5265C302.53 58.5165 302.712 58.4562 302.875 58.3456C303.041 58.2349 303.17 58.093 303.26 57.9202C303.354 57.7472 303.396 57.5602 303.386 57.3594C303.376 57.1586 303.315 56.9768 303.205 56.8139C303.098 56.6473 302.956 56.5189 302.779 56.4289C302.606 56.335 302.419 56.2931 302.219 56.3031C302.018 56.3131 301.836 56.3734 301.673 56.4839C301.51 56.5909 301.382 56.7327 301.288 56.9094C301.194 57.0824 301.152 57.2693 301.162 57.4701C301.172 57.6709 301.233 57.8528 301.343 58.0156C301.454 58.1785 301.596 58.3068 301.769 58.4007C301.942 58.4946 302.129 58.5365 302.329 58.5265ZM297.548 55.3442C297.187 55.3622 296.852 55.291 296.544 55.1307C296.236 54.9667 295.985 54.7413 295.791 54.4545C295.601 54.1638 295.497 53.836 295.479 53.4709C295.461 53.1131 295.536 52.7799 295.703 52.4715C295.871 52.163 296.1 51.9119 296.391 51.7181C296.681 51.5243 297.002 51.4186 297.352 51.4012C297.713 51.3832 298.046 51.4563 298.351 51.6205C298.659 51.7808 298.91 52.0062 299.104 52.2967C299.298 52.5835 299.403 52.9095 299.422 53.2746C299.44 53.6397 299.367 53.9763 299.203 54.2846C299.039 54.5893 298.811 54.8385 298.521 55.0323C298.234 55.2223 297.91 55.3262 297.548 55.3442ZM297.505 54.4844C297.706 54.4744 297.888 54.4141 298.051 54.3036C298.217 54.1928 298.346 54.051 298.436 53.8781C298.53 53.7051 298.572 53.5182 298.562 53.3174C298.552 53.1166 298.492 52.9347 298.381 52.7719C298.274 52.6052 298.132 52.4768 297.956 52.3868C297.783 52.2929 297.596 52.251 297.395 52.261C297.194 52.271 297.012 52.3313 296.849 52.4419C296.686 52.5488 296.558 52.6906 296.464 52.8673C296.37 53.0403 296.328 53.2272 296.338 53.4281C296.348 53.6289 296.409 53.8107 296.519 53.9735C296.63 54.1364 296.772 54.2648 296.945 54.3586C297.118 54.4525 297.305 54.4944 297.505 54.4844Z" fill="#22C36B"/>
</g>
<defs>
<filter id="filter0_d_5100_42186" x="-0.305788" y="-0.594557" width="347.614" height="129.921" filterUnits="userSpaceOnUse" color-interpolation-filters="sRGB">
<feFlood flood-opacity="0" result="BackgroundImageFix"/>
<feColorMatrix in="SourceAlpha" type="matrix" values="0 0 0 0 0 0 0 0 0 0 0 0 0 0 0 0 0 0 127 0" result="hardAlpha"/>
<feOffset dy="9.13872"/>
<feGaussianBlur stdDeviation="11.4234"/>
<feComposite in2="hardAlpha" operator="out"/>
<feColorMatrix type="matrix" values="0 0 0 0 0.0235294 0 0 0 0 0.0392157 0 0 0 0 0.113725 0 0 0 0.25 0"/>
<feBlend mode="normal" in2="BackgroundImageFix" result="effect1_dropShadow_5100_42186"/>
<feBlend mode="normal" in="SourceGraphic" in2="effect1_dropShadow_5100_42186" result="shape"/>
</filter>
<linearGradient id="paint0_linear_5100_42186" x1="171.959" y1="27.9722" x2="171.959" y2="97.4264" gradientUnits="userSpaceOnUse">
<stop stop-color="#64748B"/>
<stop offset="0.485" stop-color="#64748B" stop-opacity="0"/>
<stop offset="1" stop-color="#64748B" stop-opacity="0.35"/>
</linearGradient>
</defs>
</svg>
