<svg width="348" height="130" viewBox="0 0 348 130" fill="none" xmlns="http://www.w3.org/2000/svg">
<g filter="url(#filter0_d_4140_74204)">
<rect x="23" y="28.8586" width="298.836" height="69.4543" rx="9.13872" transform="rotate(-2.85 23 28.8586)" fill="#1B2537" shape-rendering="crispEdges"/>
<path d="M79.1648 65.2596C77.2134 75.1604 67.6035 81.6052 57.7004 79.6534C47.8014 77.7021 41.356 68.0928 43.3086 58.1927C45.2589 48.2908 54.8687 41.8456 64.7688 43.7969C74.6712 45.748 81.1163 55.3584 79.1646 65.2597L79.1648 65.2596L79.1648 65.2596Z" fill="#F7931A"/>
<path fill-rule="evenodd" clip-rule="evenodd" d="M69.1573 58.7236C69.3998 56.2762 67.485 55.0624 64.9123 54.3172L65.569 50.9856L63.5408 50.5862L62.9015 53.83C62.3683 53.7249 61.8213 53.6281 61.2776 53.5322L61.9216 50.2669L59.8946 49.8674L59.2374 53.1979C58.7966 53.1204 58.3637 53.0437 57.9432 52.961L57.945 52.9505L55.1479 52.3983L54.7215 54.5643C54.7215 54.5643 56.2248 54.831 56.1946 54.8535C57.0159 55.0156 57.1893 55.5452 57.1862 55.9721L56.4381 59.7675C56.4947 59.7789 56.5682 59.7958 56.6497 59.824L56.5908 59.8124C56.5408 59.8024 56.4887 59.7921 56.4354 59.7821L55.3867 65.0991C55.2998 65.3504 55.0666 65.7328 54.4924 65.6206C54.5139 65.6487 53.0182 65.3298 53.0182 65.3298L52.1377 67.6723L54.7772 68.1923C55.0662 68.2497 55.352 68.3092 55.6349 68.3681C55.8326 68.4092 56.0289 68.4501 56.2238 68.4897L55.5605 71.8595L57.5864 72.259L58.2435 68.925C58.7976 69.0462 59.3349 69.1566 59.8607 69.2598L59.2056 72.5781L61.234 72.9775L61.8975 69.614C65.3459 70.0904 67.9016 69.7019 68.829 66.5585C69.5764 64.0276 68.5904 62.6384 66.7466 61.7922C68.0406 61.4252 68.9837 60.5152 69.1581 58.7238L69.1574 58.7234L69.1573 58.7236ZM64.8996 65.3693C64.4452 67.6797 60.8255 66.9141 59.1694 66.5638L59.1693 66.5637C59.0204 66.5322 58.8873 66.5041 58.7739 66.4818L59.6545 62.0174C59.7928 62.0447 59.9615 62.0739 60.1527 62.1069L60.1528 62.1069C61.8625 62.4021 65.3654 63.007 64.8997 65.3692L64.8996 65.3693ZM60.3899 60.0434C61.7708 60.3392 64.7832 60.9845 65.1977 58.8845L65.1979 58.8845C65.621 56.7367 62.7 56.241 61.2733 55.9989C61.1128 55.9716 60.9713 55.9476 60.8555 55.9248L60.0572 59.9737C60.1525 59.9925 60.2645 60.0165 60.3899 60.0434Z" fill="white"/>
<path d="M94.7495 55.2231L94.2915 46.0226L97.9397 45.841C98.5616 45.81 99.0769 45.9104 99.4855 46.142C99.8982 46.3691 100.21 46.6717 100.421 47.0497C100.636 47.4276 100.754 47.8231 100.775 48.2363C100.8 48.7431 100.7 49.1794 100.475 49.545C100.254 49.9104 99.9399 50.1652 99.5328 50.3093L99.5169 49.9898C100.103 50.093 100.555 50.3459 100.874 50.7485C101.197 51.1509 101.372 51.6183 101.399 52.1507C101.426 52.6959 101.345 53.1782 101.157 53.5975C100.969 54.0168 100.673 54.3517 100.272 54.6023C99.8743 54.8526 99.3732 54.9929 98.7683 55.023L94.7495 55.2231ZM96.2363 53.6951L98.5044 53.5822C98.7728 53.5688 99.0108 53.5036 99.2185 53.3865C99.4259 53.2652 99.5844 53.1036 99.6939 52.9017C99.8075 52.6953 99.8575 52.4559 99.8439 52.1833C99.8316 51.9362 99.7673 51.7174 99.6511 51.5267C99.5349 51.3361 99.3716 51.1884 99.1615 51.0835C98.9511 50.9745 98.7032 50.927 98.4178 50.9412L96.1049 51.0564L96.2363 53.6951ZM96.0334 49.6188L98.1035 49.5157C98.3249 49.5047 98.5209 49.4523 98.6913 49.3584C98.8617 49.2645 98.9939 49.132 99.0878 48.9607C99.1818 48.7895 99.2227 48.5825 99.2106 48.3398C99.1947 48.0203 99.0792 47.7592 98.8642 47.5564C98.6491 47.3536 98.3584 47.2613 97.9921 47.2795L95.922 47.3826L96.0334 49.6188ZM102.543 46.8672L102.473 45.4552L104.012 45.3786L104.083 46.7906L102.543 46.8672ZM102.939 54.8154L102.595 47.9151L104.135 47.8384L104.478 54.7387L102.939 54.8154ZM110.437 54.4421C109.985 54.55 109.54 54.6085 109.1 54.6175C108.665 54.6306 108.272 54.5712 107.919 54.4393C107.567 54.3032 107.293 54.0755 107.098 53.7565C106.925 53.4662 106.827 53.1657 106.803 52.8552C106.779 52.5447 106.757 52.1935 106.738 51.8016L106.439 45.8022L107.972 45.7259L108.267 51.6359C108.28 51.9127 108.295 52.1554 108.309 52.3639C108.328 52.5722 108.381 52.7404 108.469 52.8684C108.635 53.1163 108.887 53.2468 109.225 53.2599C109.563 53.2729 109.945 53.2368 110.372 53.1515L110.437 54.4421ZM105.342 48.9889L105.282 47.7813L110.093 47.5418L110.153 48.7493L105.342 48.9889ZM114.577 54.4281C113.866 54.4636 113.251 54.3362 112.733 54.046C112.214 53.7516 111.807 53.3363 111.511 52.8002C111.22 52.2638 111.055 51.6486 111.016 50.9546C110.985 50.2473 111.092 49.6142 111.338 49.0555C111.587 48.4922 111.958 48.0425 112.449 47.7063C112.94 47.3659 113.535 47.1783 114.234 47.1435C115.017 47.1045 115.69 47.2696 116.25 47.6388C116.815 48.0035 117.197 48.5225 117.397 49.1957L115.885 49.6874C115.747 49.3227 115.535 49.0451 115.248 48.8544C114.96 48.6595 114.64 48.5708 114.286 48.5884C113.886 48.6083 113.561 48.7206 113.31 48.9252C113.06 49.1256 112.881 49.395 112.774 49.7333C112.667 50.0717 112.624 50.4518 112.645 50.8735C112.678 51.5294 112.851 52.0524 113.165 52.4424C113.479 52.8324 113.926 53.013 114.505 52.9842C114.914 52.9638 115.231 52.8541 115.456 52.655C115.685 52.4557 115.851 52.1764 115.952 51.8169L117.542 52.09C117.364 52.8035 117.018 53.363 116.504 53.7686C115.99 54.1699 115.348 54.3898 114.577 54.4281ZM121.791 54.069C121.101 54.1034 120.491 53.9779 119.96 53.6926C119.429 53.4073 119.007 52.9992 118.695 52.4682C118.386 51.9327 118.214 51.3093 118.179 50.598C118.143 49.8739 118.256 49.232 118.519 48.6724C118.781 48.1127 119.162 47.6667 119.662 47.3344C120.163 47.0021 120.751 46.819 121.429 46.7853C122.123 46.7508 122.735 46.8761 123.266 47.1614C123.797 47.4467 124.219 47.857 124.532 48.3922C124.844 48.9232 125.018 49.5444 125.054 50.2557C125.089 50.9713 124.976 51.6111 124.714 52.1749C124.455 52.7344 124.076 53.1824 123.576 53.519C123.076 53.8513 122.481 54.0347 121.791 54.069ZM121.719 52.625C122.333 52.5945 122.778 52.3674 123.056 51.9436C123.334 51.5199 123.457 50.9843 123.424 50.3368C123.391 49.6681 123.213 49.1432 122.891 48.7621C122.569 48.3768 122.105 48.1992 121.5 48.2293C121.087 48.2499 120.751 48.3605 120.492 48.5613C120.237 48.7576 120.054 49.0251 119.943 49.3637C119.831 49.698 119.786 50.0824 119.808 50.5169C119.841 51.1856 120.019 51.7126 120.342 52.098C120.668 52.4788 121.127 52.6545 121.719 52.625ZM126.365 45.6813L126.295 44.2693L127.835 44.1926L127.905 45.6046L126.365 45.6813ZM126.761 53.6294L126.417 46.7291L127.957 46.6525L128.301 53.5528L126.761 53.6294ZM134.987 53.2199L134.822 49.8975C134.811 49.6803 134.784 49.4404 134.741 49.1778C134.698 48.9152 134.615 48.6652 134.493 48.428C134.374 48.1862 134.202 47.9919 133.977 47.8452C133.756 47.6982 133.462 47.6338 133.096 47.652C132.9 47.6618 132.708 47.7034 132.519 47.7768C132.331 47.8502 132.162 47.9697 132.012 48.1351C131.866 48.2961 131.753 48.5152 131.673 48.7925C131.593 49.0655 131.563 49.4129 131.584 49.8345L130.651 49.4903C130.622 48.9025 130.708 48.3644 130.91 47.8761C131.117 47.3876 131.434 46.9918 131.863 46.6886C132.292 46.3812 132.83 46.2113 133.477 46.1791C133.989 46.1536 134.414 46.2178 134.755 46.3717C135.096 46.5255 135.371 46.7296 135.58 46.9839C135.789 47.2383 135.948 47.5122 136.056 47.8057C136.165 48.0992 136.239 48.3795 136.278 48.6465C136.321 48.9091 136.346 49.1235 136.354 49.2896L136.546 53.1423L134.987 53.2199ZM130.202 53.4581L129.858 46.5578L131.232 46.4894L131.338 48.6298L131.524 48.6206L131.761 53.3805L130.202 53.4581Z" fill="white"/>
<path d="M95.599 74.8606L95.2064 66.9745L98.2513 66.8229C98.693 66.8009 99.0828 66.873 99.4204 67.0392C99.7581 67.2054 100.026 67.4391 100.224 67.7403C100.422 68.0379 100.53 68.3729 100.548 68.7453C100.57 69.1688 100.475 69.5523 100.265 69.8959C100.055 70.2357 99.7637 70.479 99.3904 70.6257L99.366 70.3579C99.8845 70.4785 100.299 70.714 100.609 71.0646C100.919 71.4151 101.087 71.8496 101.113 72.3681C101.136 72.8245 101.059 73.2236 100.882 73.5654C100.705 73.9037 100.445 74.1709 100.104 74.3673C99.7621 74.5636 99.3595 74.6734 98.8958 74.6964L95.599 74.8606ZM96.371 74.048L98.6602 73.9341C98.9815 73.9181 99.2671 73.8471 99.517 73.7212C99.7668 73.5917 99.9594 73.4174 100.095 73.1984C100.234 72.9791 100.296 72.7199 100.281 72.4205C100.267 72.1284 100.186 71.8689 100.039 71.642C99.8926 71.415 99.699 71.238 99.4584 71.1109C99.2213 70.98 98.9549 70.9218 98.6592 70.9366L96.2222 71.0579L96.371 74.048ZM96.1843 70.2967L98.4132 70.1857C98.6651 70.1732 98.8923 70.1051 99.0948 69.9816C99.2971 69.8544 99.4534 69.6874 99.5639 69.4806C99.6781 69.2736 99.7286 69.0387 99.7155 68.7758C99.697 68.4034 99.5523 68.1068 99.2814 67.8861C99.0142 67.6651 98.6816 67.5646 98.2837 67.5844L96.0548 67.6954L96.1843 70.2967ZM104.2 74.4324L103.846 67.3185L101.091 67.4556L101.052 66.6834L107.367 66.3691L107.405 67.1413L104.651 67.2784L105.005 74.3923L104.2 74.4324ZM111.839 74.2168C111.054 74.2559 110.382 74.1155 109.825 73.7955C109.267 73.4719 108.834 73.0085 108.526 72.4053C108.218 71.8021 108.043 71.0971 108.003 70.2902C107.963 69.4834 108.066 68.7645 108.313 68.1337C108.56 67.5029 108.945 67.0006 109.468 66.6268C109.991 66.2494 110.645 66.0412 111.43 66.0021C112.346 65.9565 113.106 66.1547 113.71 66.5968C114.314 67.0352 114.743 67.6434 114.998 68.4213L114.187 68.6758C113.988 68.0598 113.662 67.5801 113.209 67.2366C112.757 66.8932 112.176 66.7391 111.468 66.7743C110.851 66.805 110.345 66.9711 109.95 67.2726C109.555 67.5741 109.266 67.9819 109.083 68.4961C108.904 69.0065 108.827 69.5904 108.852 70.248C108.881 70.9053 109.01 71.479 109.24 71.969C109.473 72.4588 109.803 72.8359 110.229 73.1001C110.659 73.3605 111.183 73.4753 111.8 73.4446C112.508 73.4094 113.071 73.1984 113.487 72.8116C113.903 72.4213 114.18 71.9116 114.317 71.2825L115.149 71.4552C114.973 72.2546 114.606 72.9042 114.049 73.404C113.492 73.9003 112.755 74.1712 111.839 74.2168Z" fill="#8E9BAE"/>
<path d="M165.363 58.0405C170.974 56.381 175.826 67.0009 179.559 66.8151C184.785 66.5549 183.282 54.758 186.96 53.4723C191.073 51.6159 193.204 64.5279 196.498 63.9758C200.733 63.2658 200.875 55.2889 202.683 54.8024C205.492 54.0466 206.187 42.5014 209.042 43.4616C212.357 44.5767 216.654 57.9822 220.387 57.7963C224.12 57.6105 225.399 52.5568 229.131 52.3708" stroke="#22C36B" stroke-width="1.82774" stroke-linecap="round"/>
<rect x="250.371" y="37.8948" width="53.9185" height="9.13872" rx="4.56936" transform="rotate(-2.85 250.371 37.8948)" fill="#64748B"/>
<path d="M269.369 60.319L269.265 58.227L267.173 58.3312L267.133 57.5261L269.225 57.422L269.121 55.3355L269.926 55.2954L270.03 57.3819L272.116 57.278L272.157 58.0831L270.07 58.187L270.174 60.279L269.369 60.319ZM276.429 61.5871C275.918 61.6126 275.455 61.5203 275.042 61.3103C274.633 61.0964 274.301 60.7964 274.048 60.41C273.798 60.0199 273.66 59.5692 273.635 59.0581L273.491 56.1665C273.465 55.6554 273.557 55.1933 273.768 54.7802C273.981 54.367 274.281 54.0355 274.668 53.7856C275.058 53.5356 275.509 53.3979 276.02 53.3725C276.531 53.347 276.993 53.4393 277.406 53.6493C277.819 53.8593 278.151 54.1594 278.401 54.5496C278.651 54.9397 278.788 55.3904 278.814 55.9015L278.958 58.7931C278.983 59.3042 278.891 59.7663 278.681 60.1794C278.471 60.5888 278.171 60.9203 277.781 61.174C277.39 61.424 276.94 61.5617 276.429 61.5871ZM276.382 60.6507C276.692 60.6352 276.97 60.5464 277.214 60.3842C277.459 60.2219 277.649 60.0111 277.787 59.7518C277.924 59.4887 277.984 59.2039 277.969 58.8972L277.82 55.8906C277.804 55.5803 277.715 55.3029 277.553 55.0584C277.391 54.814 277.18 54.6232 276.921 54.486C276.661 54.3489 276.376 54.288 276.066 54.3035C275.759 54.3187 275.482 54.4076 275.234 54.57C274.989 54.7322 274.799 54.943 274.661 55.2024C274.524 55.4618 274.463 55.7466 274.479 56.0569L274.629 59.0635C274.644 59.3702 274.733 59.6476 274.895 59.8957C275.057 60.1402 275.268 60.331 275.527 60.4681C275.79 60.6051 276.075 60.6659 276.382 60.6507ZM280.567 62.4462L280.604 61.9887C280.758 61.992 280.872 61.957 280.945 61.8839C281.018 61.8107 281.063 61.7133 281.079 61.5917C281.095 61.4702 281.092 61.3367 281.07 61.1914L280.506 61.2195L280.444 59.9818L281.517 59.9284L281.587 61.3303C281.606 61.7137 281.526 62.0068 281.346 62.2098C281.169 62.4126 280.909 62.4914 280.567 62.4462ZM283.444 61.0677L283.406 60.1912L286.749 56.868C287.028 56.5906 287.211 56.3326 287.298 56.0941C287.388 55.8516 287.427 55.6063 287.415 55.3581C287.4 55.055 287.317 54.7847 287.166 54.5469C287.015 54.3092 286.815 54.1252 286.567 53.9948C286.323 53.8642 286.049 53.8065 285.746 53.8216C285.432 53.8372 285.157 53.9259 284.919 54.0878C284.682 54.246 284.498 54.451 284.368 54.7027C284.242 54.9542 284.187 55.2241 284.205 55.5123L283.209 55.562C283.184 55.0654 283.277 54.6216 283.488 54.2304C283.699 53.8356 283.996 53.5207 284.38 53.2857C284.767 53.0468 285.212 52.9148 285.716 52.8897C286.205 52.8654 286.649 52.9568 287.048 53.1639C287.446 53.3673 287.766 53.657 288.008 54.0329C288.253 54.405 288.388 54.8338 288.412 55.3194C288.429 55.6626 288.4 55.9623 288.325 56.2186C288.254 56.4747 288.134 56.7149 287.966 56.9392C287.797 57.1599 287.584 57.3974 287.326 57.6518L284.548 60.4089L284.406 60.0865L288.639 59.8758L288.685 60.8068L283.444 61.0677ZM292.337 60.7952C291.932 60.8154 291.55 60.7502 291.191 60.5997C290.836 60.449 290.527 60.2338 290.264 59.9541C290.004 59.6706 289.812 59.3397 289.687 58.9617L290.611 58.6631C290.69 58.9191 290.818 59.1378 290.995 59.3193C291.172 59.4971 291.375 59.6334 291.603 59.7282C291.834 59.8192 292.072 59.8586 292.317 59.8464C292.638 59.8304 292.923 59.7394 293.171 59.5733C293.422 59.4034 293.617 59.187 293.753 58.9239C293.89 58.6573 293.951 58.3706 293.936 58.0639C293.92 57.7463 293.827 57.4636 293.657 57.2158C293.491 56.9642 293.275 56.7701 293.008 56.6333C292.741 56.4965 292.455 56.4357 292.148 56.451C291.801 56.4683 291.507 56.5561 291.266 56.7145C291.029 56.8691 290.844 57.0539 290.712 57.2691L289.83 56.9836L289.866 52.8479L294.099 52.6371L294.145 53.5626L290.383 53.7499L290.796 53.3231L290.757 56.6355L290.53 56.3669C290.737 56.1223 290.989 55.9286 291.286 55.7857C291.586 55.6427 291.895 55.5632 292.213 55.5474C292.702 55.5231 293.146 55.6162 293.544 55.827C293.943 56.0341 294.265 56.3292 294.511 56.7122C294.757 57.0916 294.892 57.5259 294.916 58.0151C294.94 58.5007 294.838 58.9505 294.61 59.3644C294.381 59.7747 294.067 60.1106 293.666 60.3722C293.269 60.6298 292.826 60.7708 292.337 60.7952ZM297.226 60.3871L296.536 59.7627L303.416 52.1733L304.105 52.7978L297.226 60.3871ZM302.831 60.2728C302.469 60.2908 302.134 60.2196 301.826 60.0593C301.522 59.8951 301.273 59.6696 301.079 59.3828C300.885 59.0923 300.779 58.7645 300.761 58.3994C300.743 58.0416 300.818 57.7085 300.986 57.4C301.153 57.0915 301.382 56.8404 301.673 56.6466C301.963 56.4528 302.284 56.3472 302.634 56.3297C302.996 56.3117 303.331 56.3847 303.639 56.5487C303.947 56.7091 304.196 56.9346 304.386 57.2252C304.58 57.5121 304.686 57.838 304.704 58.2031C304.722 58.5682 304.649 58.9049 304.485 59.2132C304.325 59.5176 304.099 59.7668 303.809 59.9606C303.518 60.1507 303.192 60.2548 302.831 60.2728ZM302.788 59.413C302.989 59.403 303.17 59.3427 303.333 59.2321C303.5 59.1213 303.628 58.9795 303.718 58.8067C303.812 58.6336 303.854 58.4467 303.844 58.2459C303.834 58.0451 303.774 57.8633 303.663 57.7004C303.556 57.5337 303.414 57.4054 303.238 57.3153C303.065 57.2215 302.878 57.1795 302.677 57.1895C302.476 57.1995 302.294 57.2598 302.132 57.3704C301.969 57.4774 301.84 57.6192 301.747 57.7958C301.653 57.9689 301.611 58.1558 301.621 58.3566C301.631 58.5574 301.691 58.7392 301.802 58.9021C301.912 59.0649 302.054 59.1933 302.227 59.2872C302.4 59.381 302.587 59.423 302.788 59.413ZM298.007 56.2307C297.645 56.2487 297.311 56.1775 297.002 56.0172C296.694 55.8532 296.443 55.6278 296.25 55.341C296.059 55.0503 295.955 54.7224 295.937 54.3573C295.919 53.9995 295.994 53.6664 296.162 53.3579C296.33 53.0495 296.559 52.7983 296.849 52.6045C297.14 52.4107 297.46 52.3051 297.81 52.2877C298.172 52.2697 298.505 52.3428 298.81 52.5069C299.118 52.6673 299.369 52.8927 299.562 53.1832C299.756 53.47 299.862 53.7959 299.88 54.161C299.898 54.5261 299.825 54.8628 299.661 55.1711C299.497 55.4757 299.27 55.725 298.979 55.9188C298.692 56.1087 298.368 56.2127 298.007 56.2307ZM297.964 55.3709C298.165 55.3609 298.347 55.3006 298.509 55.19C298.676 55.0793 298.804 54.9374 298.895 54.7646C298.988 54.5916 299.03 54.4046 299.02 54.2038C299.01 54.003 298.95 53.8212 298.839 53.6583C298.732 53.4917 298.591 53.3633 298.414 53.2733C298.241 53.1794 298.054 53.1375 297.853 53.1475C297.652 53.1575 297.471 53.2178 297.308 53.3283C297.145 53.4353 297.016 53.5771 296.923 53.7538C296.829 53.9268 296.787 54.1137 296.797 54.3145C296.807 54.5153 296.867 54.6972 296.978 54.86C297.088 55.0229 297.23 55.1512 297.403 55.2451C297.576 55.339 297.763 55.3809 297.964 55.3709Z" fill="#22C36B"/>
</g>
<defs>
<filter id="filter0_d_4140_74204" x="0.153196" y="0.291918" width="347.614" height="129.921" filterUnits="userSpaceOnUse" color-interpolation-filters="sRGB">
<feFlood flood-opacity="0" result="BackgroundImageFix"/>
<feColorMatrix in="SourceAlpha" type="matrix" values="0 0 0 0 0 0 0 0 0 0 0 0 0 0 0 0 0 0 127 0" result="hardAlpha"/>
<feOffset dy="9.13872"/>
<feGaussianBlur stdDeviation="11.4234"/>
<feComposite in2="hardAlpha" operator="out"/>
<feColorMatrix type="matrix" values="0 0 0 0 0.0235294 0 0 0 0 0.0392157 0 0 0 0 0.113725 0 0 0 0.25 0"/>
<feBlend mode="normal" in2="BackgroundImageFix" result="effect1_dropShadow_4140_74204"/>
<feBlend mode="normal" in="SourceGraphic" in2="effect1_dropShadow_4140_74204" result="shape"/>
</filter>
</defs>
</svg>
