<svg xmlns="http://www.w3.org/2000/svg" width="16" height="16" viewBox="0 0 16 16" fill="#8E9BAE">
  <path d="M7.89022 9.7494L7.89042 9.74952L9.94834 10.9776C10.1213 11.0891 10.3041 11.1268 10.4666 11.1268C10.8052 11.1268 11.1404 10.9566 11.3293 10.6365C11.6192 10.1568 11.4575 9.54276 10.981 9.26304L8.91621 8.03081L8.91623 8.03078L8.91297 8.02889C8.91298 8.02889 8.91297 8.02889 8.91297 8.02889C8.91279 8.02862 8.90177 8.0208 8.88283 7.99951C8.86073 7.97467 8.83629 7.9409 8.81377 7.9013C8.79127 7.86174 8.77447 7.82301 8.76405 7.79041C8.75448 7.76048 8.75343 7.74567 8.75332 7.74568C8.75332 7.74568 8.75331 7.74572 8.75331 7.7458V5.0135C8.75331 4.46402 8.30279 4.0135 7.75331 4.0135C7.20384 4.0135 6.75331 4.46402 6.75331 5.0135V7.74683C6.75331 8.51574 7.22548 9.35228 7.89022 9.7494ZM1.83331 8.00016C1.83331 4.60297 4.60279 1.8335 7.99998 1.8335C11.3972 1.8335 14.1666 4.60297 14.1666 8.00016C14.1666 11.3974 11.3972 14.1668 7.99998 14.1668C4.60279 14.1668 1.83331 11.3974 1.83331 8.00016Z" stroke="#8E9BAE"/>
</svg>