<svg width="25" height="24" viewBox="0 0 25 24" fill="none" xmlns="http://www.w3.org/2000/svg">
<path d="M4 20.4995C4.83 21.3295 6.17 21.3295 7 20.4995L20 7.49945C20.83 6.66945 20.83 5.32945 20 4.49945C19.17 3.66945 17.83 3.66945 17 4.49945L4 17.4995C3.17 18.3295 3.17 19.6695 4 20.4995Z" stroke="#2873FF" stroke-width="1.5" stroke-linecap="round" stroke-linejoin="round"/>
<path d="M4 20.4995C4.83 21.3295 6.17 21.3295 7 20.4995L20 7.49945C20.83 6.66945 20.83 5.32945 20 4.49945C19.17 3.66945 17.83 3.66945 17 4.49945L4 17.4995C3.17 18.3295 3.17 19.6695 4 20.4995Z" stroke="url(#paint0_linear_2656_55684)" stroke-width="1.5" stroke-linecap="round" stroke-linejoin="round"/>
<path d="M18.51 8.99023L15.51 5.99023" stroke="#2873FF" stroke-width="1.5" stroke-linecap="round" stroke-linejoin="round"/>
<path d="M18.51 8.99023L15.51 5.99023" stroke="url(#paint1_linear_2656_55684)" stroke-width="1.5" stroke-linecap="round" stroke-linejoin="round"/>
<path d="M9 2.44L10.5 2L10.06 3.5L10.5 5L9 4.56L7.5 5L7.94 3.5L7.5 2L9 2.44Z" stroke="#2873FF" stroke-width="1.5" stroke-linecap="round" stroke-linejoin="round"/>
<path d="M9 2.44L10.5 2L10.06 3.5L10.5 5L9 4.56L7.5 5L7.94 3.5L7.5 2L9 2.44Z" stroke="url(#paint2_linear_2656_55684)" stroke-width="1.5" stroke-linecap="round" stroke-linejoin="round"/>
<path d="M5 8.44L6.5 8L6.06 9.5L6.5 11L5 10.56L3.5 11L3.94 9.5L3.5 8L5 8.44Z" stroke="#2873FF" stroke-width="1.5" stroke-linecap="round" stroke-linejoin="round"/>
<path d="M5 8.44L6.5 8L6.06 9.5L6.5 11L5 10.56L3.5 11L3.94 9.5L3.5 8L5 8.44Z" stroke="url(#paint3_linear_2656_55684)" stroke-width="1.5" stroke-linecap="round" stroke-linejoin="round"/>
<path d="M20 13.44L21.5 13L21.06 14.5L21.5 16L20 15.56L18.5 16L18.94 14.5L18.5 13L20 13.44Z" stroke="#2873FF" stroke-width="1.5" stroke-linecap="round" stroke-linejoin="round"/>
<path d="M20 13.44L21.5 13L21.06 14.5L21.5 16L20 15.56L18.5 16L18.94 14.5L18.5 13L20 13.44Z" stroke="url(#paint4_linear_2656_55684)" stroke-width="1.5" stroke-linecap="round" stroke-linejoin="round"/>
<defs>
<linearGradient id="paint0_linear_2656_55684" x1="12" y1="3.87695" x2="12" y2="21.122" gradientUnits="userSpaceOnUse">
<stop stop-color="#2873FF"/>
<stop offset="1" stop-color="#0B6B96"/>
</linearGradient>
<linearGradient id="paint1_linear_2656_55684" x1="17.01" y1="5.99023" x2="17.01" y2="8.99023" gradientUnits="userSpaceOnUse">
<stop stop-color="#2873FF"/>
<stop offset="1" stop-color="#0B6B96"/>
</linearGradient>
<linearGradient id="paint2_linear_2656_55684" x1="9" y1="2" x2="9" y2="5" gradientUnits="userSpaceOnUse">
<stop stop-color="#2873FF"/>
<stop offset="1" stop-color="#0B6B96"/>
</linearGradient>
<linearGradient id="paint3_linear_2656_55684" x1="5" y1="8" x2="5" y2="11" gradientUnits="userSpaceOnUse">
<stop stop-color="#2873FF"/>
<stop offset="1" stop-color="#0B6B96"/>
</linearGradient>
<linearGradient id="paint4_linear_2656_55684" x1="20" y1="13" x2="20" y2="16" gradientUnits="userSpaceOnUse">
<stop stop-color="#2873FF"/>
<stop offset="1" stop-color="#0B6B96"/>
</linearGradient>
</defs>
</svg>
