<svg width="26" height="26" viewBox="0 0 26 26" fill="none" xmlns="http://www.w3.org/2000/svg">
<g clip-path="url(#clip0_6318_3866)">
<path d="M7.04163 12.4585C6.40143 12.4585 5.76751 12.3324 5.17604 12.0874C4.58458 11.8424 4.04717 11.4833 3.59448 11.0306C3.14179 10.578 2.7827 10.0405 2.53771 9.44908C2.29272 8.85761 2.16663 8.22369 2.16663 7.5835C2.16663 6.9433 2.29272 6.30938 2.53771 5.71791C2.7827 5.12645 3.14179 4.58904 3.59448 4.13635C4.04717 3.68366 4.58458 3.32458 5.17604 3.07958C5.76751 2.83459 6.40143 2.7085 7.04163 2.7085C8.33456 2.7085 9.57453 3.22211 10.4888 4.13635C11.403 5.05059 11.9166 6.29057 11.9166 7.5835C11.9166 8.87643 11.403 10.1164 10.4888 11.0306C9.57453 11.9449 8.33456 12.4585 7.04163 12.4585ZM7.58329 23.2918C6.29036 23.2918 5.05039 22.7782 4.13615 21.864C3.22191 20.9497 2.70829 19.7098 2.70829 18.4168C2.70829 17.1239 3.22191 15.8839 4.13615 14.9697C5.05039 14.0554 6.29036 13.5418 7.58329 13.5418C8.87622 13.5418 10.1162 14.0554 11.0304 14.9697C11.9447 15.8839 12.4583 17.1239 12.4583 18.4168C12.4583 19.7098 11.9447 20.9497 11.0304 21.864C10.1162 22.7782 8.87622 23.2918 7.58329 23.2918ZM18.4166 12.4585C17.7764 12.4585 17.1425 12.3324 16.551 12.0874C15.9596 11.8424 15.4222 11.4833 14.9695 11.0306C14.5168 10.578 14.1577 10.0405 13.9127 9.44908C13.6677 8.85761 13.5416 8.22369 13.5416 7.5835C13.5416 6.9433 13.6677 6.30938 13.9127 5.71791C14.1577 5.12645 14.5168 4.58904 14.9695 4.13635C15.4222 3.68366 15.9596 3.32458 16.551 3.07958C17.1425 2.83459 17.7764 2.7085 18.4166 2.7085C19.7096 2.7085 20.9495 3.22211 21.8638 4.13635C22.778 5.05059 23.2916 6.29057 23.2916 7.5835C23.2916 8.87643 22.778 10.1164 21.8638 11.0306C20.9495 11.9449 19.7096 12.4585 18.4166 12.4585ZM18.4166 23.2918C17.1237 23.2918 15.8837 22.7782 14.9695 21.864C14.0552 20.9497 13.5416 19.7098 13.5416 18.4168C13.5416 17.1239 14.0552 15.8839 14.9695 14.9697C15.8837 14.0554 17.1237 13.5418 18.4166 13.5418C19.7096 13.5418 20.9495 14.0554 21.8638 14.9697C22.778 15.8839 23.2916 17.1239 23.2916 18.4168C23.2916 19.7098 22.778 20.9497 21.8638 21.864C20.9495 22.7782 19.7096 23.2918 18.4166 23.2918ZM7.04163 10.2918C7.75992 10.2918 8.4488 10.0065 8.95671 9.49858C9.46462 8.99067 9.74996 8.30179 9.74996 7.5835C9.74996 6.8652 9.46462 6.17633 8.95671 5.66842C8.4488 5.1605 7.75992 4.87516 7.04163 4.87516C6.32333 4.87516 5.63446 5.1605 5.12655 5.66842C4.61863 6.17633 4.33329 6.8652 4.33329 7.5835C4.33329 8.30179 4.61863 8.99067 5.12655 9.49858C5.63446 10.0065 6.32333 10.2918 7.04163 10.2918ZM7.58329 21.1252C8.30159 21.1252 8.99046 20.8398 9.49837 20.3319C10.0063 19.824 10.2916 19.1351 10.2916 18.4168C10.2916 17.6985 10.0063 17.0097 9.49837 16.5017C8.99046 15.9938 8.30159 15.7085 7.58329 15.7085C6.865 15.7085 6.17612 15.9938 5.66821 16.5017C5.1603 17.0097 4.87496 17.6985 4.87496 18.4168C4.87496 19.1351 5.1603 19.824 5.66821 20.3319C6.17612 20.8398 6.865 21.1252 7.58329 21.1252ZM18.4166 10.2918C19.1349 10.2918 19.8238 10.0065 20.3317 9.49858C20.8396 8.99067 21.125 8.30179 21.125 7.5835C21.125 6.8652 20.8396 6.17633 20.3317 5.66842C19.8238 5.1605 19.1349 4.87516 18.4166 4.87516C17.6983 4.87516 17.0095 5.1605 16.5015 5.66842C15.9936 6.17633 15.7083 6.8652 15.7083 7.5835C15.7083 8.30179 15.9936 8.99067 16.5015 9.49858C17.0095 10.0065 17.6983 10.2918 18.4166 10.2918ZM18.4166 21.1252C19.1349 21.1252 19.8238 20.8398 20.3317 20.3319C20.8396 19.824 21.125 19.1351 21.125 18.4168C21.125 17.6985 20.8396 17.0097 20.3317 16.5017C19.8238 15.9938 19.1349 15.7085 18.4166 15.7085C17.6983 15.7085 17.0095 15.9938 16.5015 16.5017C15.9936 17.0097 15.7083 17.6985 15.7083 18.4168C15.7083 19.1351 15.9936 19.824 16.5015 20.3319C17.0095 20.8398 17.6983 21.1252 18.4166 21.1252Z" fill="white"/>
</g>
<defs>
<clipPath id="clip0_6318_3866">
<rect width="26" height="26" fill="white"/>
</clipPath>
</defs>
</svg>
