<?xml version="1.0" encoding="UTF-8"?>
<svg id="Layer_1" data-name="Layer 1" xmlns="http://www.w3.org/2000/svg" viewBox="0 0 5765 1169.26">
  <defs>
    <style>
      .cls-1 {
        fill: #fff;
      }

      .cls-1, .cls-2 {
        stroke-width: 0px;
      }

      .cls-2 {
        fill: #131b2d;
      }
    </style>
  </defs>
  <g>
    <path class="cls-2" d="M812.62,545.53c-1.98-10.79-4.84-21.33-8.82-31.56-5.18-13.3-11.96-25.68-20.69-36.98-6.49-8.39-13.82-15.95-22.06-22.59-11.04-8.9-23.15-16.1-36.4-21.23-7.54-2.92-15.22-5.55-22.99-7.82-5.62-1.64-11.46-2.56-17.23-3.62-5.87-1.08-11.82-1.75-17.67-2.91-4.36-.88-8.81-1.81-12.84-3.57-4.07-1.76-5.67-4.82-2.74-9.02,1.82-2.63,3.91-5.14,6.16-7.42,13.32-13.5,23.65-28.87,30.3-46.72,4.12-11.03,6.94-22.38,7.88-34.03,1.34-16.68.98-33.35-2.79-49.81-3.24-14.15-7.92-27.75-15.63-40.06-4.97-7.94-10.44-15.62-16.41-22.82-4.41-5.33-9.82-9.86-15.1-14.41-4.55-3.92-9.27-7.75-14.36-10.9-7.19-4.45-14.65-8.51-22.23-12.24-10.69-5.26-21.87-9.37-33.45-12.28-6.49-1.63-13.01-3.19-19.58-4.49-5.85-1.16-11.76-2.16-17.68-2.79-7.19-.77-14.42-1.25-21.64-1.52-5.22-.2-10.44-.33-15.67-.33-2.59,0-5.19.03-7.78.1-13.13.37-26.23,1.5-39.12,4.03-8.6,1.69-17.19,3.64-25.51,6.35-9.48,3.1-18.92,6.63-27.89,10.97-8.53,4.13-16.63,9.23-24.55,14.48-5.91,3.91-11.51,8.44-16.75,13.22-5.63,5.15-10.84,10.78-15.97,16.44-10.12,11.21-18.34,23.8-25.71,36.94-3.64,6.48-6.71,13.29-9.76,20.07-2.91,6.47-5.67,13.03-8.13,19.68-2.32,6.27-4.19,12.7-6.2,19.09-1.22,3.87-2.51,7.73-3.47,11.67-1.98,8.21-3.87,16.45-5.58,24.72-1.78,8.61-3.53,17.23-4.91,25.91-1.45,9.1-2.52,18.26-3.6,27.41-1.06,8.99-2.1,17.99-2.8,27.01-.85,11.11-1.63,22.24-1.89,33.37-.44,18.05-.66,36.11-.54,54.16.1,15.21.58,30.43,1.35,45.63.57,11.12,1.79,22.2,2.91,33.28.99,9.66,2.07,19.32,3.48,28.92,1.08,7.38,2.44,14.74,4.15,21.99,2.9,12.35,5.7,24.74,9.12,36.95.49,1.75.99,3.48,1.51,5.22.61,2.02,1.25,4.05,1.91,6.05.45,1.35.9,2.68,1.37,4.01.47,1.34.95,2.67,1.44,4,2.21,5.97,4.63,11.88,7.16,17.7,7.65,17.61,17.15,34.23,29.75,48.81,6.87,7.97,14.02,15.85,21.97,22.7,7.88,6.77,16.75,12.46,25.52,18.13,5.67,3.68,11.73,6.94,17.97,9.54,8.9,3.72,18.05,6.92,27.25,9.84,7.55,2.38,15.25,4.52,23.04,5.89,11.1,1.96,22.31,3.48,33.53,4.54,12.08,1.15,24.22,1.55,36.35,2.26,0-.21,0-.43.02-.65.6,0,1.21,0,1.8,0,3.22.03,6.45.12,9.67-.04,9.71-.49,19.44-1.01,29.13-1.77,6.95-.56,13.89-1.35,20.78-2.38,7.05-1.06,14.05-2.4,21.02-3.88,7.94-1.69,15.94-3.21,23.67-5.58,11.12-3.42,22.12-7.33,33.02-11.42,15.4-5.77,29.97-13.28,44.07-21.73,12.68-7.6,24.66-16.24,35.65-26.05,8.35-7.44,16.18-15.57,23.41-24.08,7.11-8.38,13.71-17.29,19.53-26.6,6.04-9.67,11.2-19.95,16.13-30.25,2.93-6.12,4.89-12.75,6.9-19.27,2.17-7,4.24-14.07,5.75-21.23,2.43-11.46,3.91-23.07,4.76-34.78,1.52-20.92.5-41.66-3.3-62.27ZM418.89,305.25c2.75-9.87,8.71-17.6,16.76-23.98,6.85-5.42,14.25-9.72,22.49-12.36,6.43-2.05,13.07-3.65,19.74-4.72,5.87-.94,11.91-1.06,17.87-1.18.38,0,.76,0,1.13,0,1.41,0,2.8.05,4.19.14.83.06,1.66.13,2.47.21.55.06,1.1.12,1.65.18.78.1,1.55.21,2.32.32.07,0,.13.02.2.03.89.14,1.79.29,2.67.45.9.16,1.79.34,2.67.52.89.18,1.78.37,2.66.57.89.2,1.78.41,2.66.62,8.8,2.09,17.08,5.35,24.73,10.07,9.68,5.98,17.79,13.54,22.27,24.31,3.29,7.89,4.1,16.05,1.67,24.32-3.45,11.75-11.02,20.28-21.01,27.1-7.7,5.27-16.04,8.98-24.93,11.44-1.02.28-2.04.55-3.07.81-1.97.49-3.94.93-5.91,1.31-1.12.22-2.22.41-3.33.59-1.54.24-3.06.44-4.58.6-2.53.26-5.04.4-7.49.4-1,0-1.98-.03-2.96-.07-3.86.06-7.61-.07-11.27-.39-1.08-.09-2.15-.21-3.22-.34-.43-.04-.86-.1-1.29-.16-1.07-.14-2.12-.3-3.17-.48-1.16-.19-2.3-.41-3.44-.65-1.01-.21-2.01-.43-3-.68-2.42-.57-4.81-1.25-7.17-2.03-1.58-.51-3.14-1.07-4.7-1.67-6.55-2.52-12.73-5.62-18.27-9.63-.65-.47-1.29-.95-1.91-1.45-.96-.74-1.88-1.52-2.78-2.32-.91-.8-1.79-1.64-2.64-2.5-2-2.03-3.87-4.24-5.58-6.64-7.05-9.89-9.72-20.85-6.42-32.73ZM639.32,597.44c-.65,8.9-3.65,17.07-8.28,24.78-4.3,7.17-9.63,13.34-15.96,18.65-8.98,7.55-18.82,13.83-29.94,17.77-7.63,2.69-15.28,5.54-23.13,7.33-1.8.41-3.61.79-5.41,1.14-1.21.23-2.41.45-3.61.65-1.81.3-3.62.57-5.43.8-1.8.23-3.6.42-5.38.57-2.99.25-5.95.38-8.88.38-1.39,0-2.76-.03-4.13-.09-3.44.07-6.8,0-10.09-.19-.07,0-.14,0-.21,0-1.16-.06-2.3-.14-3.45-.24-.1,0-.21-.02-.31-.02-1.72-.15-3.41-.32-5.1-.53-4.31-.52-8.55-1.23-12.77-2.07-14.16-2.84-27.6-7.53-40.11-14.8-10.86-6.31-20.47-14.08-27.91-24.32-8.63-11.87-12.84-25.08-11.39-39.75.83-8.33,3.66-16.05,8.02-23.33,4.33-7.25,9.68-13.51,16.06-18.89,8.98-7.57,18.86-13.85,30.01-17.79,7.55-2.67,15.1-5.6,22.91-7.2,9.22-1.89,18.7-3.03,28.11-3.46,2.27-.1,4.56-.15,6.85-.15,6.44,0,12.92.42,19.27,1.31,8.96,1.26,17.81,3.69,26.58,6.05,10.81,2.91,20.76,7.85,30.03,14.1,10.13,6.83,18.87,14.97,25.3,25.6,6.35,10.47,9.26,21.63,8.38,33.73Z"/>
    <g>
      <path class="cls-1" d="M869.5,535.05c-2.72-14.78-6.69-28.92-11.79-42.04-7.31-18.8-17.01-36.09-28.85-51.4-9.3-12.04-19.9-22.88-31.5-32.23-15.94-12.85-33.37-22.99-51.79-30.14-1.86-.72-3.73-1.43-5.6-2.11.65-1.61,1.28-3.21,1.88-4.84,6.2-16.65,10.02-33.34,11.33-49.6,1.99-24.69.66-46.73-4.06-67.36-5.14-22.42-12.65-41.33-22.99-57.84-6.48-10.35-13.51-20.12-20.91-29.05-7.22-8.7-14.75-15.18-20.8-20.38l-1.06-.91c-5.45-4.7-12.84-10.8-21.68-16.27-8.39-5.19-17.52-10.22-27.14-14.95-14.35-7.06-29.46-12.6-44.9-16.48-6.03-1.51-14.03-3.46-22.43-5.13-8.51-1.69-15.76-2.81-22.8-3.56-8.13-.87-16.73-1.48-25.59-1.8-6.58-.25-12.42-.37-17.83-.37-3.21,0-6.37.04-9.38.13-17.83.5-33.75,2.15-48.65,5.09-12.86,2.52-22.84,5.03-32.31,8.12-13.27,4.34-24.77,8.87-35.13,13.89-11.87,5.73-22.49,12.47-31.3,18.31-7.96,5.28-15.98,11.58-23.82,18.76-7.41,6.76-13.94,13.79-19.89,20.38-11.95,13.24-22.51,28.3-33.22,47.4-4.93,8.78-8.72,17.2-12.07,24.63-3.76,8.35-6.91,15.99-9.64,23.38-2.29,6.2-4.12,12.13-5.73,17.35-.46,1.47-.91,2.92-1.37,4.38-.2.63-.4,1.26-.6,1.88-1.19,3.71-2.66,8.34-3.93,13.6-2.35,9.73-4.32,18.43-6,26.56-1.77,8.52-3.79,18.46-5.4,28.59-1.64,10.29-2.79,20.17-3.92,29.74-1.04,8.89-2.22,18.97-3.02,29.34-.83,10.81-1.74,23.43-2.04,36.39-.5,20.31-.68,38.61-.56,55.94.1,15.45.58,31.66,1.43,48.19.58,11.43,1.7,22.26,2.77,32.73l.36,3.48c.87,8.49,2.08,19.71,3.79,31.39,1.35,9.22,3.05,18.28,5.08,26.88.44,1.83.87,3.68,1.3,5.51,3.01,12.88,6.13,26.21,10.21,39.91,3.54,11.9,8.08,24.06,14.25,38.29,10.81,24.89,23.57,45.68,39.02,63.57,7.66,8.87,16.98,19.23,28.02,28.73,10.59,9.11,21.38,16.09,30.89,22.26l.91.59c8.8,5.69,17.93,10.53,27.15,14.38,9.67,4.03,20.16,7.83,32.05,11.59,11.39,3.61,21.06,6.05,30.43,7.72,12.55,2.21,25.39,3.95,38.14,5.16,9.64.92,18.85,1.39,27.76,1.84,3.67.19,7.13.37,10.58.58,0,0,44.57-2.3,59.39-3.55,4.75-.4,9.43-1.13,14.07-1.82,7.45-1.12,15.2-2.55,24.4-4.5l3.56-.75c7.52-1.57,16.03-3.34,25.11-6.13,10.85-3.33,22.4-7.32,36.34-12.54,17.35-6.5,34.85-15.1,53.5-26.28,16.17-9.7,31.12-20.63,44.42-32.51,10.1-9.01,19.86-19.05,29-29.81,9.12-10.76,17.36-21.98,24.48-33.37,7.72-12.34,13.81-24.56,19.26-35.94,4.54-9.46,7.29-18.4,9.51-25.58l.47-1.54c2.34-7.57,5.03-16.62,7.09-26.36,2.84-13.38,4.76-27.31,5.86-42.59,1.88-26.02.5-51.89-4.11-76.94ZM815.92,607.81c-.85,11.72-2.32,23.32-4.76,34.78-1.52,7.16-3.58,14.23-5.75,21.23-2.01,6.51-3.97,13.14-6.9,19.27-4.94,10.3-10.09,20.58-16.13,30.25-5.82,9.3-12.42,18.22-19.53,26.6-7.23,8.52-15.07,16.64-23.41,24.08-10.99,9.8-22.97,18.45-35.65,26.05-14.1,8.45-28.67,15.96-44.07,21.73-10.9,4.09-21.9,8-33.02,11.42-7.74,2.37-15.74,3.9-23.67,5.58-6.97,1.48-13.97,2.82-21.02,3.88-6.89,1.04-13.83,1.82-20.78,2.38-9.69.77-19.42,1.29-29.13,1.77-1.43.07-2.86.1-4.29.1-1.79,0-3.59-.04-5.38-.06-.6,0-1.21,0-1.8,0,0,.22-.02.44-.02.65-12.13-.72-24.27-1.12-36.35-2.26-11.22-1.06-22.43-2.57-33.53-4.54-7.79-1.38-15.49-3.51-23.04-5.89-9.2-2.92-18.35-6.12-27.25-9.84-6.24-2.6-12.3-5.86-17.97-9.54-8.77-5.66-17.64-11.36-25.52-18.13-7.95-6.85-15.1-14.73-21.97-22.7-12.59-14.58-22.1-31.2-29.75-48.81-2.53-5.82-4.95-11.73-7.16-17.7-.49-1.33-.97-2.66-1.44-4-.47-1.33-.92-2.66-1.37-4.01-.66-2-1.3-4.03-1.9-6.05-.52-1.74-1.02-3.47-1.52-5.22-3.42-12.21-6.22-24.6-9.12-36.95-1.71-7.25-3.07-14.61-4.15-21.99-1.41-9.6-2.49-19.26-3.48-28.92-1.13-11.08-2.34-22.16-2.91-33.28-.77-15.2-1.25-30.42-1.35-45.63-.12-18.05.1-36.11.54-54.16.27-11.13,1.05-22.26,1.89-33.37.7-9.02,1.75-18.02,2.8-27.01,1.08-9.15,2.15-18.31,3.6-27.41,1.38-8.68,3.12-17.3,4.91-25.91,1.72-8.27,3.6-16.51,5.58-24.72.96-3.94,2.25-7.8,3.47-11.67,2.01-6.38,3.88-12.81,6.2-19.09,2.45-6.65,5.22-13.21,8.13-19.68,3.05-6.78,6.12-13.59,9.76-20.07,7.37-13.13,15.59-25.73,25.71-36.94,5.13-5.66,10.33-11.3,15.97-16.44,5.25-4.79,10.84-9.31,16.75-13.22,7.92-5.25,16.02-10.35,24.55-14.48,8.97-4.34,18.41-7.87,27.89-10.97,8.32-2.71,16.91-4.67,25.51-6.35,12.89-2.53,25.99-3.66,39.12-4.03,2.59-.07,5.19-.1,7.78-.1,5.23,0,10.45.13,15.67.33,7.22.27,14.45.75,21.64,1.52,5.92.63,11.83,1.64,17.68,2.79,6.57,1.3,13.09,2.86,19.58,4.49,11.58,2.9,22.76,7.02,33.45,12.28,7.58,3.73,15.04,7.79,22.23,12.24,5.09,3.15,9.81,6.98,14.36,10.9,5.28,4.55,10.69,9.08,15.1,14.41,5.97,7.2,11.45,14.88,16.41,22.82,7.71,12.31,12.39,25.91,15.63,40.06,3.77,16.46,4.13,33.13,2.79,49.81-.94,11.66-3.76,23.01-7.88,34.03-6.65,17.85-16.98,33.22-30.3,46.72-2.25,2.28-4.34,4.79-6.16,7.42-2.93,4.21-1.33,7.27,2.74,9.02,4.04,1.76,8.49,2.69,12.84,3.57,5.85,1.17,11.8,1.83,17.67,2.91,5.77,1.06,11.61,1.98,17.23,3.62,7.77,2.26,15.45,4.9,22.99,7.82,13.24,5.13,25.36,12.33,36.4,21.23,8.24,6.64,15.57,14.2,22.06,22.59,8.74,11.3,15.52,23.67,20.69,36.98,3.98,10.23,6.83,20.77,8.82,31.56,3.8,20.61,4.82,41.35,3.3,62.27ZM543.11,276.11c-7.65-4.72-15.94-7.98-24.73-10.07-.89-.21-1.77-.42-2.66-.62-.89-.2-1.78-.39-2.66-.57-.89-.18-1.79-.36-2.67-.52-.89-.16-1.78-.31-2.67-.45-.07,0-.13-.02-.2-.03-.78-.11-1.55-.22-2.32-.32-.55-.06-1.1-.12-1.65-.18-.82-.08-1.65-.15-2.47-.21-1.39-.09-2.78-.14-4.19-.14-.37,0-.75,0-1.13,0-5.96.12-12,.24-17.87,1.18-6.67,1.07-13.31,2.66-19.74,4.72-8.24,2.63-15.64,6.93-22.49,12.36-8.06,6.38-14.01,14.11-16.76,23.98-3.3,11.88-.63,22.84,6.42,32.73,1.72,2.4,3.58,4.61,5.58,6.64.86.86,1.74,1.7,2.64,2.5.9.8,1.82,1.58,2.78,2.32.63.49,1.27.98,1.91,1.45,5.53,4.01,11.72,7.11,18.27,9.63,1.56.6,3.12,1.16,4.7,1.67,2.36.78,4.75,1.46,7.17,2.03.99.25,1.99.47,3,.68,1.14.24,2.28.45,3.44.65,1.05.18,2.1.34,3.17.48.43.06.85.11,1.29.16,1.07.13,2.14.25,3.22.34,3.04.27,6.14.4,9.31.4.65,0,1.3,0,1.95,0,.98.04,1.96.07,2.96.07,2.45,0,4.96-.14,7.49-.4,1.52-.16,3.04-.36,4.58-.6,1.11-.18,2.21-.37,3.33-.59,1.96-.38,3.94-.82,5.91-1.31,1.03-.26,2.05-.53,3.07-.81,8.89-2.45,17.23-6.17,24.93-11.44,9.99-6.82,17.56-15.36,21.01-27.1,2.43-8.27,1.63-16.43-1.67-24.32-4.48-10.77-12.58-18.33-22.27-24.31ZM547.56,668.55c-1.8.23-3.6.42-5.38.57,1.79-.15,3.59-.34,5.38-.57ZM547.56,668.55c-1.8.23-3.6.42-5.38.57,1.79-.15,3.59-.34,5.38-.57ZM565.38,300.42c-4.48-10.77-12.58-18.33-22.27-24.31-7.65-4.72-15.94-7.98-24.73-10.07-.89-.21-1.77-.42-2.66-.62-.89-.2-1.78-.39-2.66-.57-.89-.18-1.79-.36-2.67-.52-.89-.16-1.78-.31-2.67-.45-.07,0-.13-.02-.2-.03-.78-.11-1.55-.22-2.32-.32-.55-.06-1.1-.12-1.65-.18-.82-.08-1.65-.15-2.47-.21-1.39-.09-2.78-.14-4.19-.14-.37,0-.75,0-1.13,0-5.96.12-12,.24-17.87,1.18-6.67,1.07-13.31,2.66-19.74,4.72-8.24,2.63-15.64,6.93-22.49,12.36-8.06,6.38-14.01,14.11-16.76,23.98-3.3,11.88-.63,22.84,6.42,32.73,1.72,2.4,3.58,4.61,5.58,6.64.86.86,1.74,1.7,2.64,2.5.9.8,1.82,1.58,2.78,2.32.63.49,1.27.98,1.91,1.45,5.53,4.01,11.72,7.11,18.27,9.63,1.56.6,3.12,1.16,4.7,1.67,2.36.78,4.75,1.46,7.17,2.03.99.25,1.99.47,3,.68,1.14.24,2.28.45,3.44.65,1.05.18,2.1.34,3.17.48.43.06.85.11,1.29.16,1.07.13,2.14.25,3.22.34,3.04.27,6.14.4,9.31.4.65,0,1.3,0,1.95,0,.98.04,1.96.07,2.96.07,2.45,0,4.96-.14,7.49-.4,1.52-.16,3.04-.36,4.58-.6,1.11-.18,2.21-.37,3.33-.59,1.96-.38,3.94-.82,5.91-1.31,1.03-.26,2.05-.53,3.07-.81,8.89-2.45,17.23-6.17,24.93-11.44,9.99-6.82,17.56-15.36,21.01-27.1,2.43-8.27,1.63-16.43-1.67-24.32ZM565.38,300.42c-4.48-10.77-12.58-18.33-22.27-24.31-7.65-4.72-15.94-7.98-24.73-10.07-.89-.21-1.77-.42-2.66-.62-.89-.2-1.78-.39-2.66-.57-.89-.18-1.79-.36-2.67-.52-.89-.16-1.78-.31-2.67-.45-.07,0-.13-.02-.2-.03-.78-.11-1.55-.22-2.32-.32-.55-.06-1.1-.12-1.65-.18-.82-.08-1.65-.15-2.47-.21-1.39-.09-2.78-.14-4.19-.14-.37,0-.75,0-1.13,0-5.96.12-12,.24-17.87,1.18-6.67,1.07-13.31,2.66-19.74,4.72-8.24,2.63-15.64,6.93-22.49,12.36-8.06,6.38-14.01,14.11-16.76,23.98-3.3,11.88-.63,22.84,6.42,32.73,1.72,2.4,3.58,4.61,5.58,6.64.86.86,1.74,1.7,2.64,2.5.9.8,1.82,1.58,2.78,2.32.63.49,1.27.98,1.91,1.45,5.53,4.01,11.72,7.11,18.27,9.63,1.56.6,3.12,1.16,4.7,1.67,2.36.78,4.75,1.46,7.17,2.03.99.25,1.99.47,3,.68,1.14.24,2.28.45,3.44.65,1.05.18,2.1.34,3.17.48.43.06.85.11,1.29.16,1.07.13,2.14.25,3.22.34,3.04.27,6.14.4,9.31.4.65,0,1.3,0,1.95,0,.98.04,1.96.07,2.96.07,2.45,0,4.96-.14,7.49-.4,1.52-.16,3.04-.36,4.58-.6,1.11-.18,2.21-.37,3.33-.59,1.96-.38,3.94-.82,5.91-1.31,1.03-.26,2.05-.53,3.07-.81,8.89-2.45,17.23-6.17,24.93-11.44,9.99-6.82,17.56-15.36,21.01-27.1,2.43-8.27,1.63-16.43-1.67-24.32ZM547.56,668.55c-1.8.23-3.6.42-5.38.57,1.79-.15,3.59-.34,5.38-.57Z"/>
      <path class="cls-1" d="M639.32,597.44c-.65,8.9-3.65,17.07-8.28,24.78-4.3,7.17-9.63,13.34-15.96,18.65-8.98,7.55-18.82,13.83-29.94,17.77-7.63,2.69-15.28,5.54-23.13,7.33-1.8.41-3.61.79-5.41,1.14-1.21.23-2.4.44-3.61.65-1.81.3-3.62.57-5.43.8-1.8.23-3.6.42-5.38.57-2.99.25-5.95.38-8.88.38-1.39,0-2.76-.03-4.13-.09-.88,0-1.76.02-2.62.02-2.53,0-5.02-.07-7.47-.21-.07,0-.14,0-.21,0-1.16-.06-2.3-.15-3.45-.24-.1,0-.21-.02-.31-.02-1.72-.15-3.41-.33-5.1-.53-4.31-.52-8.55-1.23-12.77-2.07-14.16-2.84-27.6-7.53-40.11-14.8-10.86-6.31-20.47-14.08-27.91-24.32-8.63-11.87-12.84-25.08-11.39-39.75.83-8.33,3.66-16.05,8.02-23.33,4.33-7.25,9.68-13.51,16.06-18.89,8.98-7.57,18.86-13.85,30.01-17.79,7.55-2.67,15.1-5.6,22.91-7.2,9.22-1.89,18.7-3.03,28.11-3.46,2.27-.1,4.56-.15,6.85-.15,6.44,0,12.92.42,19.27,1.31,8.96,1.26,17.81,3.69,26.58,6.05,10.81,2.91,20.76,7.85,30.03,14.1,10.13,6.83,18.87,14.97,25.3,25.6,6.35,10.47,9.26,21.63,8.38,33.73Z"/>
    </g>
  </g>
  <g>
    <path class="cls-2" d="M876.97,584.34c0-164.6,95.45-266.86,248.35-266.86,112,0,178.23,55.51,178.23,125.64,0,123.69-97.39,179.2-272.7,179.2,15.58,58.44,58.44,97.39,119.79,97.39,67.2,0,91.55-48.7,126.61-48.7,12.66,0,26.3,10.71,26.3,33.11,0,67.2-68.18,147.06-178.23,147.06-152.91,0-248.35-102.26-248.35-266.86ZM1030.85,545.38c95.45,0,135.38-39.93,135.38-76.94,0-20.45-14.61-35.06-43.83-35.06-54.54,0-89.6,44.8-91.55,112Z"/>
    <path class="cls-1" d="M1125.32,317.48c112,0,178.23,55.51,178.23,125.64,0,123.69-97.39,179.2-272.7,179.2,15.58,58.44,58.44,97.39,119.79,97.39,67.2,0,91.55-48.7,126.61-48.7,12.66,0,26.3,10.71,26.3,33.11,0,67.2-68.18,147.06-178.23,147.06-152.91,0-248.35-102.26-248.35-266.86s95.45-266.86,248.35-266.86h0ZM1030.85,545.38c95.45,0,135.38-39.93,135.38-76.94,0-20.45-14.61-35.06-43.83-35.06-54.54,0-89.6,44.8-91.55,112h0ZM1125.32,257.48c-45.38,0-87.63,7.68-125.56,22.83-38.6,15.41-72.2,38.29-99.86,67.98-54.25,58.25-82.93,139.87-82.93,236.05s28.68,177.8,82.93,236.05c27.66,29.7,61.26,52.57,99.86,67.98,37.94,15.15,80.18,22.83,125.56,22.83,33.79,0,66.12-5.93,96.1-17.64,28.08-10.96,53.29-26.63,74.93-46.56,20.79-19.15,37.26-41.23,48.94-65.62,11.94-24.94,18.26-51.65,18.26-77.24s-8.32-48.1-24.05-65.37c-13.25-14.54-31-23.97-49.99-26.83,48.57-40.76,74.04-98.54,74.04-168.82,0-27.33-6.41-53.32-19.05-77.24-12.27-23.22-29.88-43.43-52.35-60.08-42.65-31.61-100.35-48.32-166.84-48.32h0ZM1124.6,493.5s0,0,0,0h0Z"/>
  </g>
  <g>
    <path class="cls-2" d="M1438.48,645.7v-204.53h-20.45c-33.11,0-49.67-19.48-49.67-56.49s16.56-57.46,49.67-57.46h20.45v-76.94c0-40.91,32.14-57.46,76.94-57.46s77.92,16.56,77.92,57.46v76.94h86.68c32.14,0,49.67,19.48,49.67,57.46s-17.53,56.49-49.67,56.49h-86.68v204.53c0,55.51,15.58,74.02,49.67,74.02,29.22,0,41.88-15.58,59.41-15.58,13.64,0,27.27,10.71,27.27,34.09,0,55.51-52.59,112.98-137.33,112.98-109.08,0-153.88-60.38-153.88-205.5Z"/>
    <path class="cls-1" d="M1515.42,192.81c45.78,0,77.92,16.56,77.92,57.46v76.94h86.68c32.14,0,49.67,19.48,49.67,57.46s-17.53,56.49-49.67,56.49h-86.68v204.53c0,55.51,15.58,74.02,49.67,74.02,29.22,0,41.88-15.58,59.41-15.58,13.64,0,27.27,10.71,27.27,34.09,0,55.51-52.59,112.98-137.33,112.98-109.08,0-153.88-60.38-153.88-205.5v-204.53h-20.45c-33.11,0-49.67-19.48-49.67-56.49s16.56-57.46,49.67-57.46h20.45v-76.94c0-40.91,32.14-57.46,76.94-57.46h0ZM1515.42,132.81c-35.81,0-65.74,7.99-88.96,23.74-30.94,21-47.98,54.28-47.98,93.72v23.18c-20.35,6.98-34.21,18.69-43.18,29.11-17.88,20.77-26.94,48.4-26.94,82.12s9.15,60.85,27.19,81.55c8.95,10.27,22.75,21.8,42.93,28.71v150.75c0,87.93,15.24,149.29,47.97,193.09,18.91,25.31,43.57,44.25,73.29,56.31,26.71,10.84,57,16.1,92.62,16.1,27.51,0,53.79-4.57,78.09-13.6,23.46-8.71,44.46-21.3,62.42-37.42,36.11-32.4,56.81-76.86,56.81-121.96,0-32.85-13.17-54.17-24.21-66.27-16.14-17.68-39.13-27.82-63.06-27.82-20.31,0-35.88,6.88-46.19,11.43-.94.42-1.8.79-2.59,1.13-.18-3.07-.3-6.71-.3-11v-144.53h26.68c15.48,0,29.99-2.6,43.13-7.72,15.11-5.9,28.14-14.94,38.7-26.89,9.93-11.23,17.33-24.66,21.99-39.92,3.89-12.73,5.85-26.84,5.85-41.95,0-33.74-9.28-61.48-27.59-82.45-10.57-12.1-23.64-21.27-38.83-27.23-13.16-5.17-27.71-7.79-43.25-7.79h-26.68v-16.94c0-39.57-17.16-72.91-48.31-93.86-23.29-15.66-53.44-23.6-89.61-23.6h0Z"/>
  </g>
  <g>
    <path class="cls-2" d="M2202.8,323.32c-45.78,0-69.15,16.56-69.15,57.47v46.75c-35.07-64.28-96.42-110.06-164.6-110.06-113.95,0-193.81,88.63-193.81,266.86s79.86,266.86,193.81,266.86c83.76,0,131.48-56.49,164.6-138.3v74.99c0,40.91,23.37,57.46,69.15,57.46s69.15-16.55,69.15-57.46v-407.1c0-40.91-23.38-57.47-69.15-57.47ZM1998.27,719.72c-37.99,0-69.15-35.07-69.15-135.38s31.16-135.38,77.91-135.38c43.83,0,91.55,41.88,111.03,108.11-25.32,105.18-79.86,162.65-119.79,162.65Z"/>
    <path class="cls-1" d="M2292.02,289.86c-22.32-17.85-51.51-26.54-89.22-26.54s-66.9,8.69-89.23,26.54c-4,3.21-8.18,7.04-12.26,11.6-1.15-.83-2.31-1.65-3.48-2.45-39.4-27.17-83.93-41.53-128.78-41.53-37.52,0-72.5,7.53-103.96,22.37-31.25,14.75-58.37,36.38-80.64,64.33-.87,1.08-1.73,2.18-2.58,3.29-22.14,28.75-39.02,63.72-50.19,103.93-3.75,13.49-6.86,27.62-9.33,42.35-4.73,28.16-7.11,58.47-7.11,90.59,0,21.26,1.04,41.73,3.12,61.31,2.7,25.46,7.15,49.41,13.32,71.63,9.57,34.43,23.32,65.02,40.98,91.15,2.96,4.39,6.03,8.65,9.21,12.78,22.75,29.54,50.75,52.3,83.22,67.62,31.46,14.84,66.44,22.37,103.96,22.37,50.03,0,94.12-15.17,131.25-45.13,4.4,5.06,8.93,9.27,13.27,12.75,22.33,17.85,51.51,26.53,89.23,26.53s66.9-8.68,89.22-26.53c18.21-14.58,39.93-42.18,39.93-90.93v-407.1c0-48.75-21.72-76.35-39.93-90.93ZM2271.95,787.89c0,40.91-23.38,57.46-69.15,57.46s-69.15-16.55-69.15-57.46v-74.99c-33.12,81.81-80.84,138.3-164.6,138.3-113.95,0-193.81-88.63-193.81-266.86s79.86-266.86,193.81-266.86c68.18,0,129.53,45.78,164.6,110.06v-46.75c0-40.91,23.37-57.47,69.15-57.47s69.15,16.56,69.15,57.47v407.1Z"/>
    <path class="cls-1" d="M2118.06,557.07c-25.32,105.18-79.86,162.65-119.79,162.65s-69.15-35.07-69.15-135.38,31.16-135.38,77.91-135.38c43.83,0,91.55,41.88,111.03,108.11Z"/>
  </g>
  <g>
    <path class="cls-2" d="M2507.62,519.08c0-210.37,115.9-332.11,289.26-332.11,136.35,0,219.14,72.07,219.14,153.88,0,37.98-36.04,95.45-89.6,95.45-28.24,0-37.98-11.69-37.98-31.17,0-48.7-37.01-78.89-91.55-78.89-76.94,0-127.59,64.28-127.59,192.84,0,121.74,52.59,192.84,151.93,192.84,87.65,0,124.66-70.12,161.67-70.12,16.56,0,33.11,13.64,33.11,41.88,0,77.92-74.02,167.52-219.14,167.52-173.36,0-289.26-121.74-289.26-332.11Z"/>
    <path class="cls-1" d="M2796.88,186.97c136.35,0,219.14,72.07,219.14,153.88,0,37.98-36.04,95.45-89.6,95.45-28.24,0-37.98-11.69-37.98-31.17,0-48.7-37.01-78.89-91.55-78.89-76.94,0-127.59,64.28-127.59,192.84,0,121.74,52.59,192.84,151.93,192.84,87.65,0,124.66-70.12,161.67-70.12,16.56,0,33.11,13.64,33.11,41.88,0,77.92-74.02,167.52-219.14,167.52-173.36,0-289.26-121.74-289.26-332.11s115.9-332.11,289.26-332.11h0ZM2796.88,126.97c-51,0-98.58,9.06-141.43,26.93-43.67,18.21-81.68,45.22-112.97,80.28-31.09,34.83-54.98,77.02-71,125.4-15.83,47.81-23.86,101.48-23.86,159.5s8.03,111.69,23.86,159.5c16.02,48.38,39.91,90.57,71,125.4,31.29,35.05,69.3,62.06,112.97,80.28,42.85,17.87,90.43,26.93,141.43,26.93,41.43,0,80.24-6.26,115.37-18.62,33.5-11.78,63.17-28.88,88.18-50.82,48.04-42.13,75.59-99.75,75.59-158.08,0-28.06-8.86-52.8-25.63-71.54-17.25-19.28-41.85-30.34-67.48-30.34-34.5,0-60.11,19.11-82.71,35.98-23.53,17.56-45.75,34.14-78.96,34.14-39.86,0-56.64-15.7-65.79-27.52-17.1-22.07-26.14-58.49-26.14-105.32s8.61-87.89,24.25-110.45c10.73-15.49,24.1-22.39,43.33-22.39,12.05,0,22.29,2.59,27.41,6.93,1.34,1.14,4.14,3.51,4.14,11.96,0,34.8,15.4,55.93,28.31,67.53,17.47,15.68,40.91,23.64,69.67,23.64,22.89,0,44.91-5.71,65.44-16.96,17.18-9.42,32.59-22.35,45.81-38.43,24.02-29.23,38.36-66.63,38.36-100.06,0-30.49-7.51-59.81-22.31-87.14-14.2-26.21-34.44-49.26-60.18-68.52-25.08-18.77-54.6-33.3-87.74-43.18-33.46-9.98-70.11-15.04-108.91-15.04h0Z"/>
  </g>
  <g>
    <path class="cls-2" d="M3095.75,787.89v-407.11c0-40.91,23.38-57.46,69.15-57.46s69.15,16.56,69.15,57.46v62.33c23.38-79.86,75.97-125.64,141.22-125.64,28.24,0,51.62,21.43,51.62,89.6s-23.37,89.6-51.62,89.6c-18.5,0-39.93-9.74-57.46-9.74-45.77,0-68.18,51.62-68.18,112v188.94c0,40.91-31.17,57.46-76.94,57.46s-76.94-16.56-76.94-57.46Z"/>
    <path class="cls-1" d="M3375.27,317.48c28.24,0,51.62,21.43,51.62,89.6s-23.37,89.6-51.62,89.6c-18.5,0-39.93-9.74-57.46-9.74-45.77,0-68.18,51.62-68.18,112v188.94c0,40.91-31.17,57.46-76.94,57.46s-76.94-16.56-76.94-57.46v-407.11c0-40.91,23.38-57.46,69.15-57.46s69.15,16.56,69.15,57.46v62.33c23.38-79.86,75.97-125.64,141.22-125.64h0ZM3375.27,257.48c-41.97,0-81.2,13.2-114.35,38.33-2.29-2.19-4.57-4.16-6.79-5.95-22.32-17.86-51.51-26.54-89.22-26.54s-66.9,8.68-89.22,26.54c-18.22,14.57-39.93,42.17-39.93,90.92v407.11c0,39.41,16.84,72.65,47.41,93.58,23.15,15.85,53.27,23.88,89.53,23.88s66.39-8.04,89.53-23.88c30.57-20.93,47.41-54.16,47.41-93.58v-188.94c0-15.02,1.82-28.69,5.26-39.55,1.91-6.01,3.93-9.87,5.35-12.02,3.21.62,7.8,1.76,11.15,2.59,12.12,2.99,27.2,6.72,43.88,6.72s32.5-3.61,46.76-10.72c15.78-7.87,29.02-19.62,39.36-34.93,17.16-25.4,25.5-59.4,25.5-103.95s-8.34-78.55-25.5-103.95c-10.34-15.31-23.58-27.06-39.36-34.93-14.26-7.11-30-10.72-46.76-10.72h0Z"/>
  </g>
  <g>
    <path class="cls-2" d="M3497.06,636.93v-256.15c0-40.91,31.17-57.46,76.94-57.46s76.94,16.56,76.94,57.46v204.53c0,74.02,22.4,95.45,54.54,95.45,52.59,0,95.45-50.65,95.45-215.24v-84.73c0-40.91,31.17-57.46,76.94-57.46s76.94,16.56,76.94,57.46v376.91c0,164.6-85.71,262.96-210.37,262.96-107.13,0-161.67-51.62-161.67-113.95,0-23.37,13.64-34.09,26.3-34.09,13.63,0,44.8,16.56,92.52,16.56,54.54,0,99.34-50.65,99.34-131.48v-52.59c-32.14,63.31-76.94,107.13-149.01,107.13-105.19,0-154.86-54.54-154.86-175.31Z"/>
    <path class="cls-1" d="M3877.87,323.32c45.78,0,76.94,16.56,76.94,57.46v376.91c0,164.6-85.71,262.96-210.37,262.96-107.13,0-161.67-51.62-161.67-113.95,0-23.37,13.64-34.09,26.3-34.09,13.63,0,44.8,16.56,92.52,16.56,54.54,0,99.34-50.65,99.34-131.48v-52.59c-32.14,63.31-76.94,107.13-149.01,107.13-105.19,0-154.86-54.54-154.86-175.31v-256.15c0-40.91,31.17-57.46,76.94-57.46s76.94,16.56,76.94,57.46v204.53c0,74.02,22.4,95.45,54.54,95.45,52.59,0,95.45-50.65,95.45-215.24v-84.73c0-40.91,31.17-57.46,76.94-57.46h0ZM3877.87,263.32c-36.26,0-66.39,8.04-89.53,23.88-30.57,20.93-47.41,54.17-47.41,93.58v84.73c0,83.35-11.54,123.04-21.23,141.66-2.5,4.81-4.74,7.88-6.44,9.8-1.21-6.64-2.32-16.77-2.32-31.66v-204.53c0-39.41-16.84-72.65-47.41-93.58-23.15-15.85-53.27-23.88-89.53-23.88s-66.39,8.04-89.53,23.88c-30.57,20.93-47.41,54.17-47.41,93.58v256.15c0,36.16,3.83,67.17,11.7,94.79,8.75,30.7,22.7,56.96,41.46,78.03,14.11,15.86,30.92,28.82,50.18,38.71-9.03,12.66-17.63,31.69-17.63,58.24,0,25.08,5.55,48.93,16.51,70.89,11.03,22.11,27.07,41.32,47.68,57.1,19.85,15.2,43.55,26.84,70.42,34.58,26.22,7.55,55.52,11.38,87.07,11.38,39.64,0,76.85-7.89,110.6-23.46,33.93-15.65,63.45-38.62,87.75-68.27,47.12-57.51,72.03-137.46,72.03-231.23v-376.91c0-39.41-16.84-72.65-47.41-93.58-23.15-15.85-53.27-23.88-89.53-23.88h0Z"/>
  </g>
  <g>
    <path class="cls-2" d="M4353.83,317.48c-83.76,0-131.48,56.49-164.6,138.3v-74.99c0-40.91-23.37-57.47-69.15-57.47s-69.15,16.56-69.15,57.47v576.57c0,40.9,31.17,57.46,76.95,57.46s76.94-16.56,76.94-57.46v-195.76c36.03,57.46,93.49,89.6,149.01,89.6,113.95,0,193.81-88.63,193.81-266.86s-79.86-266.86-193.81-266.86ZM4315.84,719.72c-43.82,0-91.55-41.88-111.02-108.11,25.32-105.19,79.86-162.65,119.79-162.65s69.15,35.06,69.15,135.38-31.17,135.38-77.92,135.38Z"/>
    <path class="cls-1" d="M4591.19,451.4c-11.16-40.21-28.05-75.18-50.18-103.93-2.23-2.9-4.52-5.74-6.85-8.51-21.44-25.44-47.09-45.29-76.37-59.11-31.46-14.84-66.44-22.37-103.96-22.37-50.03,0-94.12,15.17-131.25,45.13-4.4-5.06-8.93-9.27-13.27-12.75-22.33-17.85-51.51-26.54-89.23-26.54s-66.9,8.69-89.22,26.54c-9.86,7.9-20.76,19.62-28.67,36.45-6.7,14.24-11.26,32.13-11.26,54.48v576.57c0,39.41,16.84,72.64,47.41,93.58,23.15,15.84,53.27,23.88,89.54,23.88s66.38-8.04,89.53-23.88c30.57-20.94,47.41-54.17,47.41-93.58v-65.68c28.56,12.82,58.91,19.52,89.01,19.52,37.52,0,72.5-7.53,103.96-22.37,32.47-15.32,60.47-38.08,83.22-67.62,22.13-28.75,39.02-63.72,50.18-103.93,2.88-10.37,5.39-21.12,7.51-32.22,5.94-30.97,8.94-64.71,8.94-100.72,0-48.92-5.53-93.64-16.45-132.94ZM4353.83,851.2c-55.52,0-112.98-32.14-149.01-89.6v195.76c0,40.9-31.17,57.46-76.94,57.46s-76.95-16.56-76.95-57.46V380.79c0-40.91,23.38-57.47,69.15-57.47s69.15,16.56,69.15,57.47v74.99c33.12-81.81,80.84-138.3,164.6-138.3,113.95,0,193.81,88.63,193.81,266.86s-79.86,266.86-193.81,266.86Z"/>
    <path class="cls-1" d="M4393.76,584.34c0,95.45-31.17,135.38-77.92,135.38-43.82,0-91.55-41.88-111.02-108.11,25.32-105.19,79.86-162.65,119.79-162.65s69.15,35.06,69.15,135.38Z"/>
  </g>
  <g>
    <path class="cls-2" d="M4657.57,645.7v-204.53h-20.45c-33.11,0-49.67-19.48-49.67-56.49s16.56-57.46,49.67-57.46h20.45v-76.94c0-40.91,32.14-57.46,76.94-57.46s77.92,16.56,77.92,57.46v76.94h86.68c32.14,0,49.67,19.48,49.67,57.46s-17.53,56.49-49.67,56.49h-86.68v204.53c0,55.51,15.58,74.02,49.67,74.02,29.22,0,41.88-15.58,59.41-15.58,13.64,0,27.27,10.71,27.27,34.09,0,55.51-52.59,112.98-137.33,112.98-109.08,0-153.88-60.38-153.88-205.5Z"/>
    <path class="cls-1" d="M4734.51,192.81c45.78,0,77.92,16.56,77.92,57.46v76.94h86.68c32.14,0,49.67,19.48,49.67,57.46s-17.53,56.49-49.67,56.49h-86.68v204.53c0,55.51,15.58,74.02,49.67,74.02,29.22,0,41.88-15.58,59.41-15.58,13.64,0,27.27,10.71,27.27,34.09,0,55.51-52.59,112.98-137.33,112.98-109.08,0-153.88-60.38-153.88-205.5v-204.53h-20.45c-33.11,0-49.67-19.48-49.67-56.49s16.56-57.46,49.67-57.46h20.45v-76.94c0-40.91,32.14-57.46,76.94-57.46h0ZM4734.51,132.81c-35.81,0-65.74,7.99-88.96,23.74-30.94,21-47.98,54.28-47.98,93.72v23.18c-20.35,6.98-34.21,18.69-43.18,29.11-17.88,20.77-26.94,48.4-26.94,82.12s9.15,60.85,27.19,81.55c8.95,10.27,22.75,21.8,42.93,28.71v150.75c0,87.93,15.24,149.29,47.97,193.09,18.91,25.31,43.57,44.25,73.29,56.31,26.71,10.84,57,16.1,92.62,16.1,27.51,0,53.79-4.57,78.09-13.6,23.46-8.71,44.46-21.3,62.42-37.42,36.11-32.4,56.81-76.86,56.81-121.96,0-32.85-13.17-54.17-24.21-66.27-16.14-17.68-39.13-27.82-63.06-27.82-20.31,0-35.88,6.88-46.19,11.43-.94.42-1.8.79-2.59,1.13-.18-3.07-.3-6.71-.3-11v-144.53h26.68c15.48,0,29.99-2.6,43.13-7.72,15.11-5.9,28.14-14.94,38.7-26.89,9.93-11.23,17.33-24.66,21.99-39.92,3.88-12.73,5.85-26.84,5.85-41.95,0-33.74-9.28-61.48-27.59-82.45-10.57-12.1-23.64-21.27-38.83-27.23-13.16-5.17-27.71-7.79-43.25-7.79h-26.68v-16.94c0-39.57-17.16-72.91-48.31-93.86-23.29-15.66-53.44-23.6-89.61-23.6h0Z"/>
  </g>
  <g>
    <path class="cls-2" d="M5243.69,317.48c-152.91,0-248.36,102.26-248.36,266.86s95.45,266.86,248.36,266.86,248.35-102.26,248.35-266.86-95.44-266.86-248.35-266.86ZM5243.69,719.72c-58.44,0-94.48-49.67-94.48-135.38s36.04-135.38,94.48-135.38,94.47,49.67,94.47,135.38-36.04,135.38-94.47,135.38Z"/>
    <path class="cls-1" d="M5469.11,348.29c-27.66-29.69-61.26-52.57-99.86-67.98-37.94-15.15-80.18-22.83-125.56-22.83s-87.63,7.68-125.57,22.83c-38.6,15.41-72.2,38.29-99.86,67.98-3.84,4.13-7.56,8.37-11.14,12.73-29.96,36.41-50.88,80.79-62.12,131.31-6.41,28.79-9.67,59.57-9.67,92.01,0,21.33,1.41,41.94,4.2,61.73,8.07,57.38,27.71,107.94,58.08,149.35,6.41,8.74,13.29,17.07,20.65,24.97,27.66,29.69,61.26,52.57,99.86,67.98,37.94,15.15,80.18,22.83,125.57,22.83s87.62-7.68,125.56-22.83c38.6-15.41,72.2-38.29,99.86-67.98,54.25-58.25,82.93-139.88,82.93-236.05s-28.68-177.8-82.93-236.05ZM5243.69,851.2c-152.91,0-248.36-102.26-248.36-266.86s95.45-266.86,248.36-266.86,248.35,102.26,248.35,266.86-95.44,266.86-248.35,266.86Z"/>
    <path class="cls-1" d="M5338.16,584.34c0,85.71-36.04,135.38-94.47,135.38s-94.48-49.67-94.48-135.38,36.04-135.38,94.48-135.38,94.47,49.67,94.47,135.38Z"/>
  </g>
</svg>