<svg width="24" height="25" viewBox="0 0 24 25" fill="none" xmlns="http://www.w3.org/2000/svg">
<path d="M20 7.40039V17.4004C20 21.4004 19 22.4004 15 22.4004H9C5 22.4004 4 21.4004 4 17.4004V7.40039C4 3.40039 5 2.40039 9 2.40039H15C19 2.40039 20 3.40039 20 7.40039Z" stroke="#969696" stroke-width="1.5" stroke-linecap="round" stroke-linejoin="round"/>
<path d="M14 5.90039H10" stroke="#969696" stroke-width="1.5" stroke-linecap="round" stroke-linejoin="round"/>
<path d="M12 19.5004C12.8561 19.5004 13.55 18.8064 13.55 17.9504C13.55 17.0943 12.8561 16.4004 12 16.4004C11.144 16.4004 10.45 17.0943 10.45 17.9504C10.45 18.8064 11.144 19.5004 12 19.5004Z" stroke="#969696" stroke-width="1.5" stroke-linecap="round" stroke-linejoin="round"/>
</svg>
