<svg xmlns="http://www.w3.org/2000/svg" width="62" height="62" viewBox="0 0 70 71" fill="none">
  <path d="M54.8333 35.2005C54.8333 24.2469 45.9536 15.3672 35 15.3672C24.0463 15.3672 15.1667 24.2469 15.1667 35.2005C15.1667 46.1542 24.0463 55.0339 35 55.0339C45.9536 55.0339 54.8333 46.1542 54.8333 35.2005Z" fill="#2873FF"/>
  <path d="M54.8333 35.2005C54.8333 24.2469 45.9536 15.3672 35 15.3672C24.0463 15.3672 15.1667 24.2469 15.1667 35.2005C15.1667 46.1542 24.0463 55.0339 35 55.0339C45.9536 55.0339 54.8333 46.1542 54.8333 35.2005Z" fill="url(#paint0_linear_4469_73367)"/>
  <path d="M63 35.1992C63 19.7352 50.464 7.19922 35 7.19922C19.536 7.19922 7 19.7352 7 35.1992C7 50.6632 19.536 63.1992 35 63.1992C50.464 63.1992 63 50.6632 63 35.1992Z" stroke="#10192D" stroke-width="14"/>
  <path d="M29.1667 36.3659H39.6667V38.6992H35V42.1992L29.1667 36.3659ZM35 31.6992V28.1992L40.8333 34.0326H30.3333V31.6992H35Z" fill="white"/>
  <defs>
    <linearGradient id="paint0_linear_4469_73367" x1="35" y1="15.3672" x2="35" y2="55.0339" gradientUnits="userSpaceOnUse">
      <stop stop-color="#2873FF"/>
      <stop offset="1" stop-color="#0B6B96"/>
    </linearGradient>
  </defs>
</svg>