<svg xmlns="http://www.w3.org/2000/svg" width="33" height="32" viewBox="0 0 33 32" fill="none">
  <path d="M21.3662 16C21.3662 16.9889 21.073 17.9556 20.5236 18.7779C19.9742 19.6001 19.1933 20.241 18.2796 20.6194C17.366 20.9978 16.3607 21.0969 15.3908 20.9039C14.4209 20.711 13.5299 20.2348 12.8307 19.5355C12.1314 18.8363 11.6552 17.9454 11.4623 16.9755C11.2694 16.0055 11.3684 15.0002 11.7468 14.0866C12.1253 13.173 12.7661 12.3921 13.5884 11.8427C14.4106 11.2932 15.3773 11 16.3662 11C17.6923 11 18.9641 11.5268 19.9017 12.4645C20.8394 13.4021 21.3662 14.6739 21.3662 16ZM31.3662 8V24C31.3662 24.2652 31.2609 24.5196 31.0733 24.7071C30.8858 24.8946 30.6314 25 30.3662 25H2.36621C2.10099 25 1.84664 24.8946 1.6591 24.7071C1.47157 24.5196 1.36621 24.2652 1.36621 24V8C1.36621 7.73478 1.47157 7.48043 1.6591 7.29289C1.84664 7.10536 2.10099 7 2.36621 7H30.3662C30.6314 7 30.8858 7.10536 31.0733 7.29289C31.2609 7.48043 31.3662 7.73478 31.3662 8ZM29.3662 13.7937C28.2307 13.458 27.1973 12.8435 26.36 12.0062C25.5227 11.1689 24.9082 10.1355 24.5725 9H8.15996C7.82422 10.1355 7.20972 11.1689 6.37244 12.0062C5.53516 12.8435 4.50171 13.458 3.36621 13.7937V18.2062C4.50171 18.542 5.53516 19.1565 6.37244 19.9938C7.20972 20.8311 7.82422 21.8645 8.15996 23H24.5725C24.9082 21.8645 25.5227 20.8311 26.36 19.9938C27.1973 19.1565 28.2307 18.542 29.3662 18.2062V13.7937Z" fill="#2873FF"/>
</svg>