<svg xmlns="http://www.w3.org/2000/svg" width="20" height="21" viewBox="0 0 20 21" fill="none">
  <path d="M14.167 3.4165H5.83366C3.33366 3.4165 1.66699 4.6665 1.66699 7.58317V13.4165C1.66699 16.3332 3.33366 17.5832 5.83366 17.5832H14.167C16.667 17.5832 18.3337 16.3332 18.3337 13.4165V7.58317C18.3337 4.6665 16.667 3.4165 14.167 3.4165ZM14.5587 8.4915L11.9503 10.5748C11.4003 11.0165 10.7003 11.2332 10.0003 11.2332C9.30033 11.2332 8.59199 11.0165 8.05033 10.5748L5.44199 8.4915C5.17533 8.27484 5.13366 7.87484 5.34199 7.60817C5.55866 7.3415 5.95033 7.2915 6.21699 7.50817L8.82533 9.5915C9.45866 10.0998 10.5337 10.0998 11.167 9.5915L13.7753 7.50817C14.042 7.2915 14.442 7.33317 14.6503 7.60817C14.867 7.87484 14.8253 8.27484 14.5587 8.4915Z" fill="#969696"/>
</svg>