<svg width="33" height="32" viewBox="0 0 33 32" fill="none" xmlns="http://www.w3.org/2000/svg">
<path d="M20.12 22.49L19.12 20.83C18.91 20.46 18.72 19.76 18.72 19.35V16.82C18.72 14.47 17.34 12.44 15.35 11.49C14.83 10.57 13.87 10 12.77 10C11.68 10 10.7 10.59 10.18 11.52C8.22997 12.49 6.87997 14.5 6.87997 16.82V19.35C6.87997 19.76 6.68997 20.46 6.47997 20.82L5.46997 22.49C5.06997 23.16 4.97997 23.9 5.22997 24.58C5.46997 25.25 6.03997 25.77 6.77997 26.02C8.71997 26.68 10.76 27 12.8 27C14.84 27 16.88 26.68 18.82 26.03C19.52 25.8 20.06 25.27 20.32 24.58C20.58 23.89 20.51 23.13 20.12 22.49Z" fill="#FAFAFA"/>
<path d="M15.61 28.01C15.19 29.17 14.08 30 12.78 30C11.99 30 11.21 29.68 10.66 29.11C10.34 28.81 10.1 28.41 9.95996 28C10.09 28.02 10.22 28.03 10.36 28.05C10.59 28.08 10.83 28.11 11.07 28.13C11.64 28.18 12.22 28.21 12.8 28.21C13.37 28.21 13.94 28.18 14.5 28.13C14.71 28.11 14.92 28.1 15.12 28.07C15.28 28.05 15.44 28.03 15.61 28.01Z" fill="#FAFAFA"/>
<path d="M13 10.2202C13 6.48175 13 4.61252 13.8038 3.22022C14.3305 2.3081 15.0879 1.55067 16 1.02406C17.3923 0.220215 19.2615 0.220215 23 0.220215C26.7385 0.220215 28.6077 0.220215 30 1.02406C30.9121 1.55067 31.6695 2.3081 32.1962 3.22022C33 4.61252 33 6.48175 33 10.2202V10.6202C33 14.3587 33 16.2279 32.1962 17.6202C31.6695 18.5323 30.9121 19.2898 30 19.8164C28.6077 20.6202 26.7385 20.6202 23 20.6202C19.2615 20.6202 17.3923 20.6202 16 19.8164C15.0879 19.2898 14.3305 18.5323 13.8038 17.6202C13 16.2279 13 14.3587 13 10.6202V10.2202Z" fill="#FF3E46"/>
<path d="M26.1642 12.5669C26.1642 13.173 26.0229 13.688 25.7403 14.1118C25.4623 14.5311 25.0841 14.8501 24.6056 15.0688C24.1316 15.2876 23.5961 15.397 22.9991 15.397C22.4021 15.397 21.8644 15.2876 21.3859 15.0688C20.9073 14.8501 20.5291 14.5311 20.2511 14.1118C19.9731 13.688 19.8341 13.173 19.8341 12.5669C19.8341 12.1704 19.9093 11.8081 20.0597 11.48C20.2146 11.1473 20.4311 10.8579 20.7091 10.6118C20.9916 10.3657 21.3243 10.1766 21.7071 10.0444C22.0945 9.90771 22.5206 9.83936 22.9855 9.83936C23.5961 9.83936 24.1407 9.95785 24.6192 10.1948C25.0978 10.4272 25.4737 10.7485 25.7472 11.1587C26.0252 11.5688 26.1642 12.0382 26.1642 12.5669ZM24.8927 12.5396C24.8927 12.1704 24.8129 11.8446 24.6534 11.562C24.4939 11.2749 24.2706 11.0516 23.9835 10.8921C23.6964 10.7326 23.3637 10.6528 22.9855 10.6528C22.5981 10.6528 22.2631 10.7326 21.9806 10.8921C21.7026 11.0516 21.4861 11.2749 21.3312 11.562C21.1762 11.8446 21.0987 12.1704 21.0987 12.5396C21.0987 12.9224 21.1739 13.2505 21.3243 13.5239C21.4793 13.7928 21.698 14.0002 21.9806 14.146C22.2677 14.2873 22.6072 14.3579 22.9991 14.3579C23.3911 14.3579 23.7283 14.2873 24.0109 14.146C24.2934 14.0002 24.5099 13.7928 24.6603 13.5239C24.8152 13.2505 24.8927 12.9224 24.8927 12.5396ZM25.9317 7.89795C25.9317 8.38102 25.8041 8.81624 25.5489 9.20361C25.2937 9.59098 24.9451 9.89632 24.503 10.1196C24.061 10.3429 23.5597 10.4546 22.9991 10.4546C22.4295 10.4546 21.9213 10.3429 21.4747 10.1196C21.0327 9.89632 20.6863 9.59098 20.4357 9.20361C20.185 8.81624 20.0597 8.38102 20.0597 7.89795C20.0597 7.31917 20.185 6.82699 20.4357 6.42139C20.6909 6.01579 21.0395 5.70589 21.4816 5.4917C21.9236 5.27751 22.4272 5.17041 22.9923 5.17041C23.562 5.17041 24.0678 5.27751 24.5099 5.4917C24.9519 5.70589 25.2983 6.01579 25.5489 6.42139C25.8041 6.82699 25.9317 7.31917 25.9317 7.89795ZM24.6671 7.91846C24.6671 7.58577 24.5965 7.29183 24.4552 7.03662C24.3139 6.78141 24.1179 6.58089 23.8673 6.43506C23.6166 6.28467 23.325 6.20947 22.9923 6.20947C22.6596 6.20947 22.3679 6.28011 22.1173 6.42139C21.8712 6.55811 21.6775 6.75407 21.5362 7.00928C21.3995 7.26449 21.3312 7.56755 21.3312 7.91846C21.3312 8.26025 21.3995 8.55876 21.5362 8.81396C21.6775 9.06917 21.8735 9.26742 22.1241 9.40869C22.3748 9.54997 22.6664 9.62061 22.9991 9.62061C23.3318 9.62061 23.6212 9.54997 23.8673 9.40869C24.1179 9.26742 24.3139 9.06917 24.4552 8.81396C24.5965 8.55876 24.6671 8.26025 24.6671 7.91846Z" fill="white"/>
</svg>
