<svg xmlns="http://www.w3.org/2000/svg" width="16" height="16" viewBox="0 0 16 16" fill="none">
  <path d="M8.00001 14.6668C11.6819 14.6668 14.6667 11.6821 14.6667 8.00016C14.6667 4.31826 11.6819 1.3335 8.00001 1.3335C4.31811 1.3335 1.33334 4.31826 1.33334 8.00016C1.33334 11.6821 4.31811 14.6668 8.00001 14.6668Z" stroke="#2873FF" stroke-width="1.5" stroke-linecap="round" stroke-linejoin="round"/>
  <path d="M8.00001 14.6668C11.6819 14.6668 14.6667 11.6821 14.6667 8.00016C14.6667 4.31826 11.6819 1.3335 8.00001 1.3335C4.31811 1.3335 1.33334 4.31826 1.33334 8.00016C1.33334 11.6821 4.31811 14.6668 8.00001 14.6668Z" stroke="url(#paint0_linear_7312_22612)" stroke-width="1.5" stroke-linecap="round" stroke-linejoin="round"/>
  <path d="M5.33333 2H5.99999C4.69999 5.89333 4.69999 10.1067 5.99999 14H5.33333" stroke="#2873FF" stroke-width="1.5" stroke-linecap="round" stroke-linejoin="round"/>
  <path d="M5.33333 2H5.99999C4.69999 5.89333 4.69999 10.1067 5.99999 14H5.33333" stroke="url(#paint1_linear_7312_22612)" stroke-width="1.5" stroke-linecap="round" stroke-linejoin="round"/>
  <path d="M10 2C11.3 5.89333 11.3 10.1067 10 14" stroke="#2873FF" stroke-width="1.5" stroke-linecap="round" stroke-linejoin="round"/>
  <path d="M10 2C11.3 5.89333 11.3 10.1067 10 14" stroke="url(#paint2_linear_7312_22612)" stroke-width="1.5" stroke-linecap="round" stroke-linejoin="round"/>
  <path d="M2 10.6667V10C5.89333 11.3 10.1067 11.3 14 10V10.6667" stroke="#2873FF" stroke-width="1.5" stroke-linecap="round" stroke-linejoin="round"/>
  <path d="M2 10.6667V10C5.89333 11.3 10.1067 11.3 14 10V10.6667" stroke="url(#paint3_linear_7312_22612)" stroke-width="1.5" stroke-linecap="round" stroke-linejoin="round"/>
  <path d="M2 5.9999C5.89333 4.6999 10.1067 4.6999 14 5.9999" stroke="#2873FF" stroke-width="1.5" stroke-linecap="round" stroke-linejoin="round"/>
  <path d="M2 5.9999C5.89333 4.6999 10.1067 4.6999 14 5.9999" stroke="url(#paint4_linear_7312_22612)" stroke-width="1.5" stroke-linecap="round" stroke-linejoin="round"/>
  <defs>
    <linearGradient id="paint0_linear_7312_22612" x1="8.00001" y1="1.3335" x2="8.00001" y2="14.6668" gradientUnits="userSpaceOnUse">
      <stop stop-color="#2873FF"/>
      <stop offset="1" stop-color="#0B6B96"/>
    </linearGradient>
    <linearGradient id="paint1_linear_7312_22612" x1="5.51249" y1="2" x2="5.51249" y2="14" gradientUnits="userSpaceOnUse">
      <stop stop-color="#2873FF"/>
      <stop offset="1" stop-color="#0B6B96"/>
    </linearGradient>
    <linearGradient id="paint2_linear_7312_22612" x1="10.4875" y1="2" x2="10.4875" y2="14" gradientUnits="userSpaceOnUse">
      <stop stop-color="#2873FF"/>
      <stop offset="1" stop-color="#0B6B96"/>
    </linearGradient>
    <linearGradient id="paint3_linear_7312_22612" x1="8" y1="10" x2="8" y2="10.975" gradientUnits="userSpaceOnUse">
      <stop stop-color="#2873FF"/>
      <stop offset="1" stop-color="#0B6B96"/>
    </linearGradient>
    <linearGradient id="paint4_linear_7312_22612" x1="8" y1="5.0249" x2="8" y2="5.9999" gradientUnits="userSpaceOnUse">
      <stop stop-color="#2873FF"/>
      <stop offset="1" stop-color="#0B6B96"/>
    </linearGradient>
  </defs>
</svg>