<svg xmlns="http://www.w3.org/2000/svg" width="24" height="25" viewBox="0 0 24 25" fill="none">
  <path d="M2 12.8105H19" stroke="#D8D8D8" stroke-width="1.5" stroke-miterlimit="10" stroke-linecap="round" stroke-linejoin="round"/>
  <path d="M19 10.48V17.63C18.97 20.48 18.19 21.2 15.22 21.2H5.78003C2.76003 21.2 2 20.45 2 17.47V10.48C2 7.78 2.63 6.91 5 6.77C5.24 6.76 5.50003 6.75 5.78003 6.75H15.22C18.24 6.75 19 7.5 19 10.48Z" stroke="#D8D8D8" stroke-width="1.5" stroke-linecap="round" stroke-linejoin="round"/>
  <path d="M22 6.93019V13.9202C22 16.6202 21.37 17.4902 19 17.6302V10.4802C19 7.50019 18.24 6.75019 15.22 6.75019H5.78003C5.50003 6.75019 5.24 6.7602 5 6.7702C5.03 3.9202 5.81003 3.2002 8.78003 3.2002H18.22C21.24 3.2002 22 3.95019 22 6.93019Z" stroke="#D8D8D8" stroke-width="1.5" stroke-linecap="round" stroke-linejoin="round"/>
  <path d="M5.25 18.0098H6.96997" stroke="#D8D8D8" stroke-width="1.5" stroke-miterlimit="10" stroke-linecap="round" stroke-linejoin="round"/>
  <path d="M9.10999 18.0098H12.55" stroke="#D8D8D8" stroke-width="1.5" stroke-miterlimit="10" stroke-linecap="round" stroke-linejoin="round"/>
</svg>