<svg xmlns="http://www.w3.org/2000/svg" width="122" height="41" viewBox="0 0 122 41" fill="none">
  <rect x="0.541992" y="0.760254" width="120.958" height="39.4799" rx="6.63526" fill="#1B2537"/>
  <rect x="0.707874" y="0.926135" width="120.626" height="39.1481" rx="6.46938" stroke="#6F767E" stroke-opacity="0.4" stroke-width="0.331763"/>
  <path d="M45.4977 29.5621H44.4361L44.3152 28.1112C44.0822 28.5658 43.7015 28.9576 43.1729 29.2864C42.6444 29.6153 42.0083 29.7797 41.2647 29.7797C40.4495 29.7797 39.697 29.5814 39.0072 29.1849C38.3174 28.7786 37.7485 28.1596 37.3005 27.3277C36.8616 26.4959 36.6421 25.5238 36.6421 24.4114C36.6421 23.2991 36.875 22.327 37.3409 21.4951C37.8067 20.6633 38.389 20.0491 39.0878 19.6525C39.7955 19.2559 40.5525 19.0576 41.3588 19.0576C42.3801 19.0576 43.267 19.343 44.0195 19.9136C44.781 20.4747 45.3006 21.2243 45.5783 22.1625L44.3823 22.7139C44.1673 21.9691 43.7911 21.3936 43.2536 20.9873C42.725 20.5714 42.0934 20.3634 41.3588 20.3634C40.4361 20.3634 39.6432 20.7165 38.9803 21.4226C38.3174 22.1287 37.9859 23.125 37.9859 24.4114C37.9859 25.7075 38.3084 26.7135 38.9534 27.4293C39.6074 28.1354 40.3913 28.4884 41.3051 28.4884C41.8067 28.4884 42.2502 28.4014 42.6354 28.2273C43.0296 28.0532 43.3342 27.8259 43.5492 27.5454C43.7732 27.2552 43.9389 26.965 44.0464 26.6748C44.1629 26.3846 44.2301 26.0945 44.248 25.8043H40.9422V24.5275H45.4977V29.5621ZM48.7181 27.9081C49.1122 28.3433 49.5915 28.561 50.1559 28.561C50.7203 28.561 51.1951 28.3433 51.5803 27.9081C51.9745 27.4631 52.1716 26.8489 52.1716 26.0654C52.1716 25.2916 51.9745 24.6871 51.5803 24.2518C51.1951 23.8069 50.7203 23.5844 50.1559 23.5844C49.5915 23.5844 49.1122 23.8069 48.7181 24.2518C48.3328 24.6871 48.1402 25.2916 48.1402 26.0654C48.1402 26.8489 48.3328 27.4631 48.7181 27.9081ZM47.7774 23.4248C48.4045 22.7187 49.1974 22.3657 50.1559 22.3657C51.1145 22.3657 51.9029 22.7187 52.521 23.4248C53.1481 24.1212 53.4617 25.0014 53.4617 26.0654C53.4617 27.1391 53.1526 28.029 52.5344 28.7351C51.9163 29.4315 51.1235 29.7797 50.1559 29.7797C49.1884 29.7797 48.3956 29.4315 47.7774 28.7351C47.1593 28.029 46.8502 27.1391 46.8502 26.0654C46.8502 25.0014 47.1593 24.1212 47.7774 23.4248ZM56.4082 27.9081C56.8023 28.3433 57.2816 28.561 57.846 28.561C58.4104 28.561 58.8852 28.3433 59.2704 27.9081C59.6646 27.4631 59.8617 26.8489 59.8617 26.0654C59.8617 25.2916 59.6646 24.6871 59.2704 24.2518C58.8852 23.8069 58.4104 23.5844 57.846 23.5844C57.2816 23.5844 56.8023 23.8069 56.4082 24.2518C56.0229 24.6871 55.8303 25.2916 55.8303 26.0654C55.8303 26.8489 56.0229 27.4631 56.4082 27.9081ZM55.4675 23.4248C56.0946 22.7187 56.8874 22.3657 57.846 22.3657C58.8046 22.3657 59.5929 22.7187 60.2111 23.4248C60.8382 24.1212 61.1518 25.0014 61.1518 26.0654C61.1518 27.1391 60.8427 28.029 60.2245 28.7351C59.6064 29.4315 58.8135 29.7797 57.846 29.7797C56.8785 29.7797 56.0856 29.4315 55.4675 28.7351C54.8494 28.029 54.5403 27.1391 54.5403 26.0654C54.5403 25.0014 54.8494 24.1212 55.4675 23.4248ZM62.2976 29.9393L63.5204 29.6346C63.5652 30.1279 63.7489 30.5342 64.0714 30.8534C64.3939 31.1823 64.797 31.3467 65.2808 31.3467C66.5977 31.3467 67.2562 30.5922 67.2562 29.0833V28.0822C67.0949 28.4207 66.8396 28.6964 66.4902 28.9092C66.1498 29.122 65.7466 29.2284 65.2808 29.2284C64.4208 29.2284 63.7085 28.914 63.1442 28.2853C62.5887 27.6469 62.311 26.8344 62.311 25.8478C62.311 24.8902 62.5887 24.0874 63.1442 23.4393C63.6996 22.7816 64.4118 22.4527 65.2808 22.4527C66.2662 22.4527 66.9292 22.8203 67.2696 23.5554V22.5833H68.5195V29.0398C68.5195 29.5041 68.4612 29.9345 68.3448 30.3311C68.2373 30.7373 68.0626 31.1097 67.8206 31.4483C67.5787 31.7868 67.2382 32.0528 66.7993 32.2462C66.3693 32.4397 65.8631 32.5364 65.2808 32.5364C64.4835 32.5364 63.8071 32.2898 63.2517 31.7965C62.6962 31.3128 62.3782 30.6938 62.2976 29.9393ZM65.4689 28.0822C66.0154 28.0822 66.4588 27.8791 66.7993 27.4728C67.1397 27.0569 67.3099 26.5152 67.3099 25.8478C67.3099 25.1804 67.1397 24.6436 66.7993 24.2373C66.4588 23.8214 66.0154 23.6134 65.4689 23.6134C64.9135 23.6134 64.4611 23.8166 64.1117 24.2228C63.7713 24.6291 63.601 25.1707 63.601 25.8478C63.601 26.5346 63.7668 27.0811 64.0982 27.4873C64.4387 27.8839 64.8956 28.0822 65.4689 28.0822ZM71.7996 29.5621H70.5364V19.0576H71.7996V29.5621ZM74.7681 25.3545H78.3023C78.2844 24.8322 78.1231 24.4066 77.8185 24.0777C77.5139 23.7392 77.0839 23.5699 76.5285 23.5699C76.0268 23.5699 75.6147 23.7488 75.2922 24.1067C74.9697 24.4549 74.795 24.8709 74.7681 25.3545ZM78.4904 27.1681L79.5789 27.5744C79.3908 28.2224 79.0414 28.7544 78.5307 29.1704C78.0201 29.5766 77.4019 29.7797 76.6763 29.7797C75.7715 29.7797 75.001 29.446 74.365 28.7786C73.7379 28.1015 73.4243 27.1923 73.4243 26.0509C73.4243 24.9869 73.7289 24.1067 74.3381 23.4103C74.9473 22.7139 75.6729 22.3657 76.515 22.3657C77.4915 22.3657 78.253 22.6994 78.7995 23.3668C79.346 24.0245 79.6192 24.9096 79.6192 26.0219C79.6192 26.196 79.6102 26.3411 79.5923 26.4572H74.7278C74.7367 27.0762 74.9249 27.584 75.2922 27.9806C75.6684 28.3772 76.1298 28.5755 76.6763 28.5755C77.599 28.5755 78.2037 28.1064 78.4904 27.1681ZM86.0425 24.0777H87.9507C88.5151 24.0777 88.9631 23.9229 89.2945 23.6134C89.626 23.2942 89.7917 22.8686 89.7917 22.3366C89.7917 21.795 89.626 21.3645 89.2945 21.0453C88.9631 20.7165 88.5151 20.552 87.9507 20.552H86.0425V24.0777ZM88.1926 25.3545H86.0425V29.5621H84.7256V19.2753H88.1926C89.0616 19.2753 89.7693 19.5654 90.3158 20.1458C90.8623 20.7261 91.1355 21.4516 91.1355 22.3221C91.1355 23.2023 90.8623 23.9278 90.3158 24.4985C89.7693 25.0692 89.0616 25.3545 88.1926 25.3545ZM93.7412 29.5621H92.478V19.0576H93.7412V29.5621ZM95.4869 27.6904C95.4869 27.0907 95.666 26.6119 96.0244 26.2541C96.3827 25.8865 96.8575 25.6592 97.4488 25.5721L99.1957 25.2965C99.5272 25.2481 99.6929 25.074 99.6929 24.7741C99.6929 24.4066 99.5765 24.1067 99.3435 23.8746C99.1106 23.6424 98.7612 23.5264 98.2954 23.5264C97.8654 23.5264 97.5249 23.657 97.2741 23.9181C97.0233 24.1696 96.8754 24.5081 96.8306 24.9337L95.6212 24.6291C95.6839 23.9616 95.9661 23.42 96.4678 23.004C96.9695 22.5785 97.5697 22.3657 98.2685 22.3657C99.1823 22.3657 99.8587 22.6075 100.298 23.0911C100.737 23.5651 100.956 24.1744 100.956 24.9192V28.4159C100.956 28.8318 100.983 29.2139 101.037 29.5621H99.8004C99.7556 29.2719 99.7332 28.9576 99.7332 28.619C99.5541 28.9285 99.2898 29.1994 98.9404 29.4315C98.6 29.6637 98.17 29.7797 97.6504 29.7797C97.0143 29.7797 96.4947 29.5766 96.0916 29.1704C95.6884 28.7544 95.4869 28.2611 95.4869 27.6904ZM97.8251 28.6335C98.3895 28.6335 98.8419 28.4691 99.1823 28.1402C99.5227 27.8113 99.6929 27.289 99.6929 26.5732V26.2541L97.7176 26.5732C97.4309 26.6216 97.2024 26.7328 97.0322 26.907C96.862 27.0811 96.7769 27.318 96.7769 27.6179C96.7769 27.8887 96.871 28.1257 97.0591 28.3288C97.2562 28.532 97.5115 28.6335 97.8251 28.6335ZM104.406 32.4784H103.022L104.634 28.7931L101.853 22.5833H103.304L105.32 27.4003L107.255 22.5833H108.612L104.406 32.4784Z" fill="white"/>
  <path d="M40.38 13.6711V11.6316H38.5678V12.2949H39.7145C39.6735 12.5712 39.4124 13.0576 38.7418 13.0576C38.1326 13.0576 37.5951 12.5989 37.5951 11.7145C37.5951 10.7859 38.1889 10.3824 38.7367 10.3824C39.3254 10.3824 39.6274 10.7859 39.7196 11.1341L40.3953 10.8744C40.2161 10.2719 39.6889 9.66943 38.7367 9.66943C37.7538 9.66943 36.8784 10.4488 36.8784 11.7145C36.8784 12.9802 37.7129 13.754 38.6906 13.754C39.2384 13.754 39.5967 13.4887 39.7605 13.2234L39.8066 13.6711H40.38ZM44.3256 13.6711V12.9526H42.7591V12.0461H44.1771V11.3663H42.7591V10.4709H44.3256V9.75234H42.0527V13.6711H44.3256ZM48.7243 10.4764V9.75234H45.7193V10.4764H46.866V13.6711H47.5776V10.4764H48.7243ZM53.1228 13.6711V9.75234H52.4061V13.6711H53.1228ZM57.583 10.4764V9.75234H54.578V10.4764H55.7247V13.6711H56.4363V10.4764H57.583ZM61.7818 11.709C61.7818 10.8246 62.3551 10.4046 62.9131 10.4046C63.4762 10.4046 64.0496 10.8246 64.0496 11.709C64.0496 12.5933 63.4762 13.0134 62.9131 13.0134C62.3551 13.0134 61.7818 12.5933 61.7818 11.709ZM61.0497 11.7145C61.0497 12.9747 61.9302 13.754 62.9131 13.754C63.9011 13.754 64.7816 12.9747 64.7816 11.7145C64.7816 10.4488 63.9011 9.66943 62.9131 9.66943C61.9302 9.66943 61.0497 10.4488 61.0497 11.7145ZM69.4514 13.6711V9.75234H68.7449V12.3446L67.2345 9.75234H66.354V13.6711H67.0604V10.8909L68.7091 13.6711H69.4514Z" fill="white"/>
  <path d="M16.2374 29.2798C15.8584 29.5442 15.4031 29.6242 14.9761 29.5153L22.4803 21.4131L24.9123 24.039L16.2374 29.2798Z" fill="#F44336"/>
  <path d="M14.0456 28.8557C13.8363 28.5553 13.7158 28.1864 13.7158 27.7962V13.3637C13.7158 12.9735 13.8363 12.6046 14.0456 12.3042L21.7104 20.5799L14.0456 28.8557Z" fill="#2196F3"/>
  <path d="M28.0866 22.1208L25.9007 23.4413L23.251 20.5803L25.9009 17.7192L28.087 19.0398C28.6107 19.3566 28.9233 19.9325 28.9233 20.5803C28.9233 21.2282 28.6107 21.804 28.0866 22.1208Z" fill="#FFC107"/>
  <path d="M22.4798 19.748L14.9761 11.6462C15.0991 11.6149 15.2243 11.5981 15.3495 11.5981C15.6589 11.5981 15.9672 11.6931 16.2369 11.8813L24.912 17.122L22.4798 19.748Z" fill="#4CAF50"/>
</svg>