<svg width="277" height="133" viewBox="0 0 277 133" fill="none" xmlns="http://www.w3.org/2000/svg">
<g filter="url(#filter0_d_5100_42165)">
<rect x="29.9287" y="17.5" width="205" height="51" rx="11.5909" fill="#2873FF" shape-rendering="crispEdges"/>
<path d="M59.3594 48.7086C58.6269 48.7086 57.9662 48.5811 57.3774 48.3261C56.7932 48.0711 56.311 47.7072 55.9308 47.2343C55.5553 46.7567 55.3165 46.1911 55.2145 45.5374L56.9532 45.2731C57.1015 45.8665 57.4052 46.3255 57.8642 46.6501C58.3278 46.9746 58.861 47.1369 59.4637 47.1369C59.8207 47.1369 60.1569 47.0813 60.4722 46.97C60.7874 46.8587 61.0424 46.6965 61.2372 46.4832C61.4365 46.2699 61.5362 46.008 61.5362 45.6973C61.5362 45.5582 61.513 45.4307 61.4667 45.3148C61.4203 45.1943 61.3507 45.0876 61.258 44.9949C61.1699 44.9022 61.054 44.8187 60.9103 44.7445C60.7712 44.6657 60.6089 44.5985 60.4235 44.5429L57.8364 43.7779C57.6138 43.713 57.3727 43.6272 57.1131 43.5205C56.8581 43.4093 56.6147 43.2586 56.3829 43.0685C56.1557 42.8738 55.9679 42.628 55.8196 42.3313C55.6758 42.03 55.604 41.659 55.604 41.2186C55.604 40.5741 55.7662 40.034 56.0908 39.5982C56.42 39.1577 56.8604 38.8285 57.4122 38.6106C57.9685 38.3927 58.5852 38.2861 59.2621 38.2907C59.9482 38.2954 60.5602 38.4136 61.0981 38.6454C61.6359 38.8726 62.0856 39.2041 62.4472 39.6399C62.8089 40.0757 63.0639 40.602 63.2122 41.2186L61.411 41.5315C61.3368 41.1792 61.1931 40.8801 60.9798 40.6344C60.7712 40.384 60.5139 40.194 60.2079 40.0641C59.9065 39.9343 59.5843 39.8648 59.2412 39.8555C58.9074 39.8509 58.5967 39.9019 58.3093 40.0085C58.0265 40.1105 57.797 40.2589 57.6208 40.4536C57.4492 40.6483 57.3635 40.8755 57.3635 41.1351C57.3635 41.3809 57.4377 41.5825 57.586 41.7402C57.7344 41.8932 57.9175 42.016 58.1354 42.1088C58.358 42.1969 58.5828 42.271 58.81 42.3313L60.6043 42.832C60.85 42.897 61.1259 42.985 61.4319 43.0963C61.7379 43.2076 62.0323 43.3629 62.3151 43.5623C62.5979 43.7616 62.8297 44.0236 63.0106 44.3481C63.196 44.6727 63.2887 45.0853 63.2887 45.586C63.2887 46.1053 63.1798 46.562 62.9619 46.9561C62.7486 47.3455 62.4588 47.6701 62.0926 47.9297C61.7263 48.1894 61.3067 48.3841 60.8338 48.5139C60.3655 48.6437 59.8741 48.7086 59.3594 48.7086ZM68.2088 48.7086C67.4484 48.7086 66.7808 48.544 66.2059 48.2149C65.6309 47.8857 65.1812 47.429 64.8567 46.8448C64.5368 46.2606 64.3768 45.5884 64.3768 44.828C64.3768 44.0074 64.5344 43.2957 64.8497 42.693C65.165 42.0856 65.6031 41.615 66.1641 41.2812C66.7251 40.9474 67.3742 40.7805 68.1114 40.7805C68.8903 40.7805 69.551 40.9636 70.0934 41.3299C70.6405 41.6915 71.0462 42.2038 71.3105 42.8668C71.5748 43.5298 71.6744 44.311 71.6095 45.2105H69.9474V44.5985C69.9428 43.7825 69.799 43.1867 69.5162 42.8112C69.2334 42.4356 68.7883 42.2479 68.1809 42.2479C67.4948 42.2479 66.9848 42.4611 66.6509 42.8877C66.3171 43.3096 66.1502 43.9285 66.1502 44.7445C66.1502 45.5049 66.3171 46.0937 66.6509 46.511C66.9848 46.9283 67.4716 47.1369 68.1114 47.1369C68.524 47.1369 68.8787 47.0465 69.1754 46.8657C69.4768 46.6802 69.7086 46.4136 69.8709 46.0659L71.5261 46.5666C71.2386 47.2435 70.7935 47.7698 70.1908 48.1453C69.5927 48.5209 68.932 48.7086 68.2088 48.7086ZM65.6217 45.2105V43.9448H70.7889V45.2105H65.6217ZM73.3004 48.5V38.2768H74.9764V48.5H73.3004ZM77.1987 48.5V38.2768H78.8748V48.5H77.1987ZM87.3519 48.7086C86.6194 48.7086 86.005 48.5348 85.509 48.187C85.0129 47.8393 84.6396 47.3664 84.3893 46.7683C84.1389 46.1656 84.0137 45.491 84.0137 44.7445C84.0137 43.9888 84.1389 43.3119 84.3893 42.7138C84.6396 42.1157 85.0059 41.6451 85.4881 41.302C85.9749 40.9543 86.5753 40.7805 87.2893 40.7805C87.9987 40.7805 88.613 40.9543 89.1323 41.302C89.6562 41.6451 90.0619 42.1157 90.3493 42.7138C90.6368 43.3073 90.7805 43.9842 90.7805 44.7445C90.7805 45.4956 90.6391 46.1702 90.3563 46.7683C90.0735 47.3664 89.6747 47.8393 89.1601 48.187C88.6455 48.5348 88.0427 48.7086 87.3519 48.7086ZM83.7286 48.5V38.4855H85.4185V43.2285H85.2099V48.5H83.7286ZM87.0946 47.2065C87.5304 47.2065 87.8897 47.0975 88.1725 46.8796C88.4554 46.6617 88.664 46.3673 88.7985 45.9964C88.9375 45.6208 89.0071 45.2035 89.0071 44.7445C89.0071 44.2902 88.9375 43.8775 88.7985 43.5066C88.6594 43.1311 88.4438 42.8344 88.1517 42.6165C87.8596 42.3939 87.4887 42.2826 87.039 42.2826C86.6124 42.2826 86.2647 42.387 85.9958 42.5956C85.7269 42.7996 85.5275 43.087 85.3977 43.458C85.2725 43.8242 85.2099 44.2531 85.2099 44.7445C85.2099 45.2314 85.2725 45.6602 85.3977 46.0311C85.5275 46.402 85.7292 46.6918 86.0027 46.9005C86.2809 47.1045 86.6449 47.2065 87.0946 47.2065ZM92.4525 39.8485V38.3116H94.1286V39.8485H92.4525ZM92.4525 48.5V40.9891H94.1286V48.5H92.4525ZM100.614 48.5C100.118 48.5927 99.6311 48.6321 99.1536 48.6182C98.6806 48.609 98.2564 48.5232 97.8809 48.3609C97.5053 48.194 97.2202 47.932 97.0255 47.575C96.8539 47.2505 96.7635 46.919 96.7542 46.5805C96.745 46.2421 96.7403 45.8596 96.7403 45.433V38.9027H98.4094V45.3357C98.4094 45.637 98.4117 45.9013 98.4164 46.1285C98.4256 46.3557 98.4743 46.5411 98.5624 46.6849C98.7293 46.963 98.9959 47.1184 99.3622 47.1508C99.7285 47.1833 100.146 47.1647 100.614 47.0952V48.5ZM95.3772 42.3035V40.9891H100.614V42.3035H95.3772ZM105.11 48.7086C104.336 48.7086 103.675 48.5371 103.128 48.194C102.581 47.8463 102.162 47.3734 101.87 46.7753C101.582 46.1772 101.436 45.5003 101.431 44.7445C101.436 43.9749 101.587 43.2934 101.884 42.6999C102.185 42.1018 102.611 41.6335 103.163 41.2951C103.715 40.952 104.371 40.7805 105.131 40.7805C105.984 40.7805 106.705 40.996 107.294 41.4272C107.888 41.8538 108.275 42.438 108.456 43.1798L106.786 43.6318C106.657 43.2285 106.441 42.9155 106.14 42.693C105.838 42.4658 105.495 42.3522 105.11 42.3522C104.675 42.3522 104.315 42.4565 104.032 42.6651C103.75 42.8691 103.541 43.152 103.407 43.5136C103.272 43.8752 103.205 44.2855 103.205 44.7445C103.205 45.4585 103.365 46.0358 103.685 46.4762C104.005 46.9167 104.48 47.1369 105.11 47.1369C105.556 47.1369 105.906 47.0349 106.161 46.8309C106.42 46.6269 106.615 46.3325 106.745 45.9477L108.456 46.3302C108.224 47.0952 107.818 47.684 107.239 48.0966C106.659 48.5046 105.95 48.7086 105.11 48.7086ZM112.963 48.7086C112.212 48.7086 111.556 48.5394 110.995 48.201C110.434 47.8625 109.998 47.3965 109.687 46.8031C109.381 46.205 109.228 45.5188 109.228 44.7445C109.228 43.9564 109.386 43.2655 109.701 42.6721C110.016 42.0786 110.455 41.615 111.016 41.2812C111.577 40.9474 112.226 40.7805 112.963 40.7805C113.719 40.7805 114.377 40.9497 114.938 41.2881C115.499 41.6266 115.935 42.0949 116.245 42.693C116.556 43.2864 116.711 43.9703 116.711 44.7445C116.711 45.5235 116.554 46.212 116.238 46.81C115.928 47.4035 115.492 47.8695 114.931 48.2079C114.37 48.5417 113.714 48.7086 112.963 48.7086ZM112.963 47.1369C113.63 47.1369 114.127 46.9144 114.451 46.4693C114.776 46.0242 114.938 45.4493 114.938 44.7445C114.938 44.0166 114.773 43.4371 114.444 43.0059C114.115 42.5701 113.621 42.3522 112.963 42.3522C112.513 42.3522 112.142 42.4542 111.85 42.6582C111.563 42.8575 111.349 43.138 111.21 43.4997C111.071 43.8567 111.002 44.2716 111.002 44.7445C111.002 45.4725 111.166 46.0543 111.495 46.4901C111.829 46.9213 112.318 47.1369 112.963 47.1369ZM118.383 39.8485V38.3116H120.059V39.8485H118.383ZM118.383 48.5V40.9891H120.059V48.5H118.383ZM127.337 48.5V44.8836C127.337 44.6472 127.321 44.3852 127.288 44.0978C127.256 43.8103 127.179 43.5345 127.059 43.2702C126.943 43.0013 126.767 42.781 126.53 42.6095C126.298 42.438 125.983 42.3522 125.584 42.3522C125.371 42.3522 125.16 42.387 124.952 42.4565C124.743 42.526 124.553 42.6466 124.381 42.8181C124.214 42.985 124.08 43.2169 123.978 43.5136C123.876 43.8057 123.825 44.1812 123.825 44.6402L122.83 44.216C122.83 43.5762 122.953 42.9966 123.199 42.4774C123.449 41.9581 123.816 41.5455 124.298 41.2395C124.78 40.9288 125.373 40.7735 126.078 40.7735C126.635 40.7735 127.094 40.8662 127.455 41.0517C127.817 41.2371 128.104 41.4736 128.318 41.761C128.531 42.0485 128.688 42.3545 128.79 42.679C128.892 43.0036 128.957 43.3119 128.985 43.604C129.018 43.8915 129.034 44.1256 129.034 44.3064V48.5H127.337ZM122.128 48.5V40.9891H123.623V43.3189H123.825V48.5H122.128ZM133.494 44.7724V43.458H137.667V44.7724H133.494ZM141.98 48.4861V47.0256L146.264 43.2076C146.598 42.9109 146.83 42.6304 146.96 42.3661C147.09 42.1018 147.154 41.8468 147.154 41.6011C147.154 41.2673 147.083 40.9705 146.939 40.7109C146.795 40.4466 146.596 40.238 146.341 40.085C146.09 39.932 145.801 39.8555 145.471 39.8555C145.124 39.8555 144.815 39.9366 144.547 40.0989C144.282 40.2565 144.076 40.4675 143.928 40.7318C143.779 40.996 143.71 41.2812 143.719 41.5872H141.994C141.994 40.9195 142.143 40.3377 142.439 39.8416C142.741 39.3455 143.153 38.9607 143.677 38.6871C144.206 38.4136 144.815 38.2768 145.506 38.2768C146.146 38.2768 146.721 38.4205 147.231 38.708C147.741 38.9908 148.142 39.3849 148.434 39.8903C148.726 40.391 148.872 40.9682 148.872 41.622C148.872 42.0995 148.807 42.5005 148.678 42.8251C148.548 43.1496 148.353 43.4487 148.093 43.7222C147.838 43.9958 147.521 44.2995 147.141 44.6333L144.101 47.3247L143.948 46.9074H148.872V48.4861H141.98ZM153.409 48.6878C152.909 48.6878 152.436 48.5904 151.991 48.3957C151.546 48.201 151.158 47.9251 150.829 47.5681C150.505 47.2111 150.271 46.7892 150.127 46.3024L151.747 45.8642C151.863 46.263 152.074 46.5713 152.38 46.7892C152.691 47.0025 153.032 47.1068 153.402 47.1021C153.732 47.1021 154.026 47.0256 154.286 46.8726C154.545 46.7196 154.749 46.5133 154.898 46.2537C155.046 45.9894 155.12 45.695 155.12 45.3705C155.12 44.8744 154.96 44.4594 154.64 44.1256C154.32 43.7918 153.908 43.6249 153.402 43.6249C153.249 43.6249 153.099 43.6457 152.95 43.6875C152.807 43.7292 152.668 43.7871 152.533 43.8613L151.768 42.54L155.134 39.6608L155.28 40.0641H150.516V38.4855H156.657V40.0711L153.952 42.6721L153.938 42.1783C154.545 42.22 155.062 42.3893 155.489 42.686C155.92 42.9827 156.249 43.3652 156.476 43.8335C156.708 44.3018 156.824 44.8141 156.824 45.3705C156.824 46.001 156.669 46.5666 156.358 47.0674C156.052 47.5681 155.64 47.9645 155.12 48.2566C154.606 48.544 154.035 48.6878 153.409 48.6878ZM158.904 48.5V46.7822H160.622V48.5H158.904ZM166.453 48.7086C165.744 48.7086 165.118 48.558 164.575 48.2566C164.033 47.9506 163.609 47.5264 163.303 46.9839C163.001 46.4415 162.85 45.8155 162.85 45.1062V41.8793C162.85 41.1699 163.001 40.544 163.303 40.0015C163.609 39.4591 164.033 39.0372 164.575 38.7358C165.118 38.4298 165.744 38.2768 166.453 38.2768C167.162 38.2768 167.786 38.4298 168.324 38.7358C168.866 39.0372 169.29 39.4591 169.596 40.0015C169.902 40.544 170.055 41.1699 170.055 41.8793V45.1062C170.055 45.8155 169.902 46.4415 169.596 46.9839C169.29 47.5264 168.866 47.9506 168.324 48.2566C167.786 48.558 167.162 48.7086 166.453 48.7086ZM166.453 47.116C166.805 47.116 167.125 47.0326 167.413 46.8657C167.7 46.6941 167.927 46.467 168.094 46.1841C168.261 45.8967 168.345 45.5768 168.345 45.2244V41.7541C168.345 41.3971 168.261 41.0772 168.094 40.7944C167.927 40.5069 167.7 40.2797 167.413 40.1128C167.125 39.9413 166.805 39.8555 166.453 39.8555C166.101 39.8555 165.781 39.9413 165.493 40.1128C165.206 40.2797 164.979 40.5069 164.812 40.7944C164.645 41.0772 164.561 41.3971 164.561 41.7541V45.2244C164.561 45.5768 164.645 45.8967 164.812 46.1841C164.979 46.467 165.206 46.6941 165.493 46.8657C165.781 47.0326 166.101 47.116 166.453 47.116ZM175.608 48.7086C174.899 48.7086 174.273 48.558 173.73 48.2566C173.188 47.9506 172.764 47.5264 172.458 46.9839C172.156 46.4415 172.005 45.8155 172.005 45.1062V41.8793C172.005 41.1699 172.156 40.544 172.458 40.0015C172.764 39.4591 173.188 39.0372 173.73 38.7358C174.273 38.4298 174.899 38.2768 175.608 38.2768C176.317 38.2768 176.941 38.4298 177.479 38.7358C178.021 39.0372 178.445 39.4591 178.751 40.0015C179.057 40.544 179.21 41.1699 179.21 41.8793V45.1062C179.21 45.8155 179.057 46.4415 178.751 46.9839C178.445 47.5264 178.021 47.9506 177.479 48.2566C176.941 48.558 176.317 48.7086 175.608 48.7086ZM175.608 47.116C175.96 47.116 176.28 47.0326 176.568 46.8657C176.855 46.6941 177.082 46.467 177.249 46.1841C177.416 45.8967 177.5 45.5768 177.5 45.2244V41.7541C177.5 41.3971 177.416 41.0772 177.249 40.7944C177.082 40.5069 176.855 40.2797 176.568 40.1128C176.28 39.9413 175.96 39.8555 175.608 39.8555C175.256 39.8555 174.936 39.9413 174.648 40.1128C174.361 40.2797 174.134 40.5069 173.967 40.7944C173.8 41.0772 173.716 41.3971 173.716 41.7541V45.2244C173.716 45.5768 173.8 45.8967 173.967 46.1841C174.134 46.467 174.361 46.6941 174.648 46.8657C174.936 47.0326 175.256 47.116 175.608 47.116ZM183.945 48.5V38.4855H187.916C188.593 38.4855 189.147 38.6222 189.578 38.8958C190.014 39.1647 190.336 39.5101 190.545 39.932C190.758 40.3539 190.865 40.7897 190.865 41.2395C190.865 41.7912 190.733 42.2595 190.468 42.6443C190.209 43.0291 189.854 43.2887 189.404 43.4232V43.0755C190.035 43.2192 190.512 43.5182 190.837 43.9726C191.166 44.427 191.331 44.9439 191.331 45.5235C191.331 46.1169 191.217 46.6362 190.99 47.0813C190.763 47.5264 190.424 47.8741 189.975 48.1245C189.53 48.3748 188.978 48.5 188.319 48.5H183.945ZM185.642 46.9213H188.111C188.403 46.9213 188.665 46.8634 188.897 46.7475C189.128 46.6269 189.309 46.46 189.439 46.2467C189.574 46.0288 189.641 45.7715 189.641 45.4748C189.641 45.2059 189.583 44.9648 189.467 44.7515C189.351 44.5382 189.182 44.369 188.959 44.2438C188.737 44.114 188.47 44.0491 188.159 44.0491H185.642V46.9213ZM185.642 42.4843H187.895C188.136 42.4843 188.352 42.438 188.542 42.3452C188.732 42.2525 188.883 42.1157 188.994 41.9349C189.105 41.7541 189.161 41.5315 189.161 41.2673C189.161 40.9195 189.05 40.6298 188.827 40.398C188.605 40.1661 188.294 40.0502 187.895 40.0502H185.642V42.4843ZM194.854 48.5V40.0572H191.613V38.4855H199.771V40.0572H196.53V48.5H194.854ZM205.118 48.7086C204.117 48.7086 203.259 48.4907 202.545 48.0549C201.831 47.6145 201.282 47.0025 200.897 46.2189C200.517 45.4354 200.327 44.5266 200.327 43.4927C200.327 42.4588 200.517 41.5501 200.897 40.7665C201.282 39.983 201.831 39.3733 202.545 38.9375C203.259 38.497 204.117 38.2768 205.118 38.2768C206.273 38.2768 207.235 38.5666 208.005 39.1461C208.774 39.721 209.314 40.4976 209.625 41.4759L207.935 41.9419C207.74 41.2881 207.409 40.7781 206.941 40.4119C206.472 40.041 205.865 39.8555 205.118 39.8555C204.446 39.8555 203.885 40.0062 203.435 40.3075C202.99 40.6089 202.654 41.0331 202.427 41.5802C202.205 42.1227 202.091 42.7602 202.086 43.4927C202.086 44.2253 202.198 44.8651 202.42 45.4122C202.647 45.9546 202.986 46.3765 203.435 46.6779C203.885 46.9793 204.446 47.13 205.118 47.13C205.865 47.13 206.472 46.9445 206.941 46.5736C207.409 46.2027 207.74 45.6927 207.935 45.0436L209.625 45.5095C209.314 46.4878 208.774 47.2667 208.005 47.8463C207.235 48.4212 206.273 48.7086 205.118 48.7086Z" fill="white"/>
<path d="M215.366 75.6501C214.8 74.9226 214.092 73.4472 212.859 71.608C212.152 70.5975 210.414 68.6775 209.888 67.6872C209.51 67.0854 209.4 66.3526 209.585 65.6661C209.903 64.3609 211.141 63.4951 212.475 63.6451C213.508 63.8524 214.457 64.3584 215.204 65.1002C215.726 65.5917 216.206 66.1257 216.639 66.6969C216.962 67.1011 217.043 67.2627 217.407 67.7276C217.771 68.1924 218.013 68.6573 217.831 67.9701C217.69 66.9596 217.447 65.2619 217.104 63.7461C216.841 62.5941 216.78 62.4122 216.538 61.5432C216.295 60.6741 216.154 59.9465 215.891 58.9562C215.651 57.9832 215.462 56.9983 215.325 56.0055C215.07 54.7356 215.256 53.4169 215.851 52.2665C216.557 51.6023 217.593 51.427 218.478 51.8219C219.368 52.4794 220.032 53.3976 220.378 54.4492C220.907 55.7435 221.261 57.103 221.429 58.4914C221.752 60.5124 222.379 63.4632 222.399 64.0695C222.399 63.3217 222.257 61.7453 222.399 61.0379C222.539 60.3005 223.052 59.6885 223.753 59.421C224.355 59.2364 224.992 59.1948 225.612 59.2998C226.239 59.4308 226.794 59.7912 227.169 60.3103C227.637 61.4894 227.897 62.7408 227.937 64.0088C227.991 62.8985 228.181 61.7989 228.502 60.7347C228.84 60.2589 229.333 59.9158 229.897 59.7646C230.565 59.6425 231.25 59.6425 231.918 59.7646C232.466 59.9478 232.945 60.2932 233.292 60.7549C233.72 61.8268 233.979 62.9586 234.06 64.1099C234.06 64.3928 234.202 63.3217 234.646 62.6143C234.877 61.9284 235.457 61.4178 236.167 61.2749C236.876 61.132 237.608 61.3786 238.087 61.9217C238.565 62.4647 238.717 63.2218 238.486 63.9078C238.486 65.2215 238.486 65.1608 238.486 66.0501C238.486 66.9394 238.486 67.7276 238.486 68.4754C238.413 69.6581 238.251 70.8336 238.001 71.992C237.65 73.0169 237.16 73.9892 236.546 74.8821C235.565 75.9734 234.754 77.2067 234.141 78.5402C233.989 79.2028 233.921 79.8818 233.939 80.5613C233.937 81.1891 234.019 81.8144 234.182 82.4207C233.355 82.508 232.522 82.508 231.696 82.4207C230.907 82.2994 229.937 80.723 229.675 80.2379C229.545 79.9775 229.279 79.8129 228.987 79.8129C228.696 79.8129 228.43 79.9775 228.3 80.2379C227.856 81.0059 226.865 82.4005 226.178 82.4813C224.824 82.643 222.035 82.4813 219.832 82.4813C219.832 82.4813 220.196 80.4603 219.367 79.7327C218.539 79.0051 217.69 78.1562 217.063 77.5903L215.366 75.6501Z" fill="white"/>
<path fill-rule="evenodd" clip-rule="evenodd" d="M215.366 75.6501C214.8 74.9226 214.092 73.4472 212.859 71.608C212.152 70.5975 210.414 68.6775 209.888 67.6872C209.51 67.0854 209.4 66.3526 209.585 65.6661C209.903 64.3609 211.141 63.4951 212.475 63.6451C213.508 63.8524 214.457 64.3584 215.204 65.1002C215.726 65.5917 216.206 66.1257 216.639 66.6969C216.962 67.1011 217.043 67.2627 217.407 67.7276C217.771 68.1924 218.013 68.6573 217.831 67.9701C217.69 66.9596 217.447 65.2619 217.104 63.7461C216.841 62.5941 216.78 62.4122 216.538 61.5432C216.295 60.6741 216.154 59.9465 215.891 58.9562C215.651 57.9832 215.462 56.9983 215.325 56.0055C215.07 54.7356 215.256 53.4169 215.851 52.2665C216.557 51.6023 217.593 51.427 218.478 51.8219C219.368 52.4794 220.032 53.3976 220.378 54.4492C220.907 55.7435 221.261 57.103 221.429 58.4914C221.752 60.5124 222.379 63.4632 222.399 64.0695C222.399 63.3217 222.257 61.7453 222.399 61.0379C222.539 60.3005 223.052 59.6885 223.753 59.421C224.355 59.2364 224.992 59.1948 225.612 59.2998C226.239 59.4308 226.794 59.7912 227.169 60.3103C227.637 61.4894 227.897 62.7408 227.937 64.0088C227.991 62.8985 228.181 61.7989 228.502 60.7347C228.84 60.2589 229.333 59.9158 229.897 59.7646C230.565 59.6425 231.25 59.6425 231.918 59.7646C232.466 59.9478 232.945 60.2932 233.292 60.7549C233.72 61.8268 233.979 62.9586 234.06 64.1099C234.06 64.3928 234.202 63.3217 234.646 62.6143C234.877 61.9284 235.457 61.4178 236.167 61.2749C236.876 61.132 237.608 61.3786 238.087 61.9217C238.565 62.4647 238.717 63.2218 238.486 63.9078C238.486 65.2215 238.486 65.1608 238.486 66.0501C238.486 66.9394 238.486 67.7276 238.486 68.4754C238.413 69.6581 238.251 70.8336 238.001 71.992C237.65 73.0169 237.16 73.9892 236.546 74.8821C235.565 75.9734 234.754 77.2067 234.141 78.5402C233.989 79.2028 233.921 79.8818 233.939 80.5613C233.937 81.1891 234.019 81.8144 234.182 82.4207C233.355 82.508 232.522 82.508 231.696 82.4207C230.907 82.2994 229.937 80.723 229.675 80.2379C229.545 79.9775 229.279 79.8129 228.987 79.8129C228.696 79.8129 228.43 79.9775 228.3 80.2379C227.856 81.0059 226.865 82.4005 226.178 82.4813C224.824 82.643 222.035 82.4813 219.832 82.4813C219.832 82.4813 220.196 80.4603 219.367 79.7327C218.539 79.0051 217.69 78.1562 217.063 77.5904L215.366 75.6501Z" stroke="#202125" stroke-width="1.51579" stroke-linecap="round" stroke-linejoin="round"/>
<path d="M232.504 76.7536V69.7773C232.504 69.3598 232.165 69.0212 231.746 69.0212C231.328 69.0212 230.988 69.3598 230.988 69.7773V76.7536C230.988 77.1712 231.328 77.5097 231.746 77.5097C232.165 77.5097 232.504 77.1712 232.504 76.7536Z" fill="#202125"/>
<path d="M228.502 76.751L228.462 69.7712C228.46 69.3546 228.118 69.0189 227.7 69.0213C227.281 69.0237 226.944 69.3633 226.946 69.7799L226.987 76.7597C226.989 77.1763 227.33 77.5121 227.749 77.5097C228.168 77.5073 228.505 77.1676 228.502 76.751Z" fill="#202125"/>
<path d="M222.904 69.7872L222.945 76.7526C222.947 77.1732 223.288 77.5121 223.707 77.5097C224.126 77.5072 224.463 77.1643 224.46 76.7437L224.42 69.7783C224.418 69.3578 224.076 69.0188 223.658 69.0213C223.239 69.0237 222.902 69.3666 222.904 69.7872Z" fill="#202125"/>
</g>
<defs>
<filter id="filter0_d_5100_42165" x="0.951437" y="0.113636" width="275.436" height="131.96" filterUnits="userSpaceOnUse" color-interpolation-filters="sRGB">
<feFlood flood-opacity="0" result="BackgroundImageFix"/>
<feColorMatrix in="SourceAlpha" type="matrix" values="0 0 0 0 0 0 0 0 0 0 0 0 0 0 0 0 0 0 127 0" result="hardAlpha"/>
<feOffset dy="11.5909"/>
<feGaussianBlur stdDeviation="14.4886"/>
<feComposite in2="hardAlpha" operator="out"/>
<feColorMatrix type="matrix" values="0 0 0 0 0.0627451 0 0 0 0 0.0980392 0 0 0 0 0.176471 0 0 0 0.25 0"/>
<feBlend mode="normal" in2="BackgroundImageFix" result="effect1_dropShadow_5100_42165"/>
<feBlend mode="normal" in="SourceGraphic" in2="effect1_dropShadow_5100_42165" result="shape"/>
</filter>
</defs>
</svg>
