<svg xmlns="http://www.w3.org/2000/svg" width="24" height="25" viewBox="0 0 24 25" fill="none">
  <path d="M12.12 12.9807C12.05 12.9707 11.96 12.9707 11.88 12.9807C10.12 12.9207 8.72 11.4807 8.72 9.71066C8.72 7.90066 10.18 6.43066 12 6.43066C13.81 6.43066 15.28 7.90066 15.28 9.71066C15.27 11.4807 13.88 12.9207 12.12 12.9807Z" stroke="#8E9BAE" stroke-width="1.5" stroke-linecap="round" stroke-linejoin="round"/>
  <path d="M18.74 19.5798C16.96 21.2098 14.6 22.1998 12 22.1998C9.40001 22.1998 7.04001 21.2098 5.26001 19.5798C5.36001 18.6398 5.96001 17.7198 7.03001 16.9998C9.77001 15.1798 14.25 15.1798 16.97 16.9998C18.04 17.7198 18.64 18.6398 18.74 19.5798Z" stroke="#8E9BAE" stroke-width="1.5" stroke-linecap="round" stroke-linejoin="round"/>
  <path d="M12 22.2002C17.5228 22.2002 22 17.723 22 12.2002C22 6.67735 17.5228 2.2002 12 2.2002C6.47715 2.2002 2 6.67735 2 12.2002C2 17.723 6.47715 22.2002 12 22.2002Z" stroke="#8E9BAE" stroke-width="1.5" stroke-linecap="round" stroke-linejoin="round"/>
</svg>