<svg width="98" height="98" viewBox="0 0 98 98" fill="none" xmlns="http://www.w3.org/2000/svg">
<path d="M41.9836 13.6629H39.1731V16.4735H41.9836V13.6629Z" fill="white"/>
<path d="M39.1738 16.4736H36.3633V19.2843H39.1738V16.4736Z" fill="white"/>
<path d="M58.6535 16.4736H55.843V19.2843H58.6535V16.4736Z" fill="white"/>
<path d="M61.3583 16.4736H58.5479V19.2843H61.3583V16.4736Z" fill="white"/>
<path d="M41.9836 16.4736H39.1731V19.2843H41.9836V16.4736Z" fill="white"/>
<path d="M47.6054 16.4736H44.7949V19.2843H47.6054V16.4736Z" fill="white"/>
<path d="M50.4167 16.4736H47.6062V19.2843H50.4167V16.4736Z" fill="white"/>
<path d="M41.9836 19.2843H39.1731V22.095H41.9836V19.2843Z" fill="white"/>
<path d="M44.7941 19.2843H41.9836V22.095H44.7941V19.2843Z" fill="white"/>
<path d="M47.6054 19.2843H44.7949V22.095H47.6054V19.2843Z" fill="white"/>
<path d="M56.0363 19.2843H53.2258V22.095H56.0363V19.2843Z" fill="white"/>
<path d="M39.1738 22.0947H36.3633V24.9053H39.1738V22.0947Z" fill="white"/>
<path d="M58.6535 22.0947H55.843V24.9053H58.6535V22.0947Z" fill="white"/>
<path d="M41.9836 22.0947H39.1731V24.9053H41.9836V22.0947Z" fill="white"/>
<path d="M47.6054 22.0947H44.7949V24.9053H47.6054V22.0947Z" fill="white"/>
<path d="M53.2265 22.0947H50.416V24.9053H53.2265V22.0947Z" fill="white"/>
<path d="M56.0363 22.0947H53.2258V24.9053H56.0363V22.0947Z" fill="white"/>
<path d="M44.7941 24.9057H41.9836V27.7164H44.7941V24.9057Z" fill="white"/>
<path d="M50.4167 24.9057H47.6062V27.7164H50.4167V24.9057Z" fill="white"/>
<path d="M61.7795 24.9057H58.969V27.7164H61.7795V24.9057Z" fill="white"/>
<path d="M56.0363 24.9057H53.2258V27.7164H56.0363V24.9057Z" fill="white"/>
<path d="M39.1738 27.7164H36.3633V30.5271H39.1738V27.7164Z" fill="white"/>
<path d="M58.6535 27.7164H55.843V30.5271H58.6535V27.7164Z" fill="white"/>
<path d="M44.7941 27.7164H41.9836V30.5271H44.7941V27.7164Z" fill="white"/>
<path d="M53.2265 27.7164H50.416V30.5271H53.2265V27.7164Z" fill="white"/>
<path d="M39.1738 30.5274H36.3633V33.3381H39.1738V30.5274Z" fill="white"/>
<path d="M58.6535 30.5274H55.843V33.3381H58.6535V30.5274Z" fill="white"/>
<path d="M44.7941 30.5274H41.9836V33.3381H44.7941V30.5274Z" fill="white"/>
<path d="M50.4167 30.5274H47.6062V33.3381H50.4167V30.5274Z" fill="white"/>
<path d="M56.0363 30.5274H53.2258V33.3381H56.0363V30.5274Z" fill="white"/>
<path d="M50.4167 33.3385H47.6062V36.1492H50.4167V33.3385Z" fill="white"/>
<path d="M61.7795 33.3385H58.969V36.1492H61.7795V33.3385Z" fill="white"/>
<path d="M56.0363 33.3385H53.2258V36.1492H56.0363V33.3385Z" fill="white"/>
<path d="M16.6896 36.1486H13.8792V38.9592H16.6896V36.1486Z" fill="white"/>
<path d="M19.4994 36.1486H16.689V38.9592H19.4994V36.1486Z" fill="white"/>
<path d="M22.3097 36.1486H19.4993V38.9592H22.3097V36.1486Z" fill="white"/>
<path d="M25.121 36.1486H22.3105V38.9592H25.121V36.1486Z" fill="white"/>
<path d="M27.9308 36.1486H25.1204V38.9592H27.9308V36.1486Z" fill="white"/>
<path d="M33.5527 36.1486H30.7422V38.9592H33.5527V36.1486Z" fill="white"/>
<path d="M36.3625 36.1486H33.552V38.9592H36.3625V36.1486Z" fill="white"/>
<path d="M39.1738 36.1486H36.3633V38.9592H39.1738V36.1486Z" fill="white"/>
<path d="M41.9836 36.1486H39.1731V38.9592H41.9836V36.1486Z" fill="white"/>
<path d="M44.7941 36.1486H41.9836V38.9592H44.7941V36.1486Z" fill="white"/>
<path d="M50.4167 36.1486H47.6062V38.9592H50.4167V36.1486Z" fill="white"/>
<path d="M61.7795 36.1486H58.969V38.9592H61.7795V36.1486Z" fill="white"/>
<path d="M53.2265 36.1486H50.416V38.9592H53.2265V36.1486Z" fill="white"/>
<path d="M56.0363 36.1486H53.2258V38.9592H56.0363V36.1486Z" fill="white"/>
<path d="M19.4994 38.9593H16.689V41.7699H19.4994V38.9593Z" fill="white"/>
<path d="M30.7414 38.9593H27.9309V41.7699H30.7414V38.9593Z" fill="white"/>
<path d="M41.9836 38.9593H39.1731V41.7699H41.9836V38.9593Z" fill="white"/>
<path d="M22.3097 41.7703H19.4993V44.581H22.3097V41.7703Z" fill="white"/>
<path d="M25.121 41.7703H22.3105V44.581H25.121V41.7703Z" fill="white"/>
<path d="M30.7414 41.7703H27.9309V44.581H30.7414V41.7703Z" fill="white"/>
<path d="M33.5527 41.7703H30.7422V44.581H33.5527V41.7703Z" fill="white"/>
<path d="M36.3625 41.7703H33.552V44.581H36.3625V41.7703Z" fill="white"/>
<path d="M39.1738 41.7703H36.3633V44.581H39.1738V41.7703Z" fill="white"/>
<path d="M41.9836 41.7703H39.1731V44.581H41.9836V41.7703Z" fill="white"/>
<path d="M47.6054 41.7703H44.7949V44.581H47.6054V41.7703Z" fill="white"/>
<path d="M50.4167 41.7703H47.6062V44.581H50.4167V41.7703Z" fill="white"/>
<path d="M53.2265 41.7703H50.416V44.581H53.2265V41.7703Z" fill="white"/>
<path d="M56.0363 41.7703H53.2258V44.581H56.0363V41.7703Z" fill="white"/>
<path d="M58.8473 41.7703H56.0369V44.581H58.8473V41.7703Z" fill="white"/>
<path d="M61.6586 41.7703H58.8481V44.581H61.6586V41.7703Z" fill="white"/>
<path d="M64.4692 41.7703H61.6587V44.581H64.4692V41.7703Z" fill="white"/>
<path d="M67.279 41.7703H64.4685V44.581H67.279V41.7703Z" fill="white"/>
<path d="M72.9008 41.7703H70.0903V44.581H72.9008V41.7703Z" fill="white"/>
<path d="M75.7099 41.7703H72.8994V44.581H75.7099V41.7703Z" fill="white"/>
<path d="M81.3325 41.7703H78.522V44.581H81.3325V41.7703Z" fill="white"/>
<path d="M84.1423 41.7703H81.3318V44.581H84.1423V41.7703Z" fill="white"/>
<path d="M22.3097 44.5813H19.4993V47.392H22.3097V44.5813Z" fill="white"/>
<path d="M25.121 44.5813H22.3105V47.392H25.121V44.5813Z" fill="white"/>
<path d="M39.1738 44.5813H36.3633V47.392H39.1738V44.5813Z" fill="white"/>
<path d="M41.9836 44.5813H39.1731V47.392H41.9836V44.5813Z" fill="white"/>
<path d="M44.7941 44.5813H41.9836V47.392H44.7941V44.5813Z" fill="white"/>
<path d="M47.6054 44.5813H44.7949V47.392H47.6054V44.5813Z" fill="white"/>
<path d="M58.8473 44.5813H56.0369V47.392H58.8473V44.5813Z" fill="white"/>
<path d="M61.6586 44.5813H58.8481V47.392H61.6586V44.5813Z" fill="white"/>
<path d="M64.4692 44.5813H61.6587V47.392H64.4692V44.5813Z" fill="white"/>
<path d="M67.279 44.5813H64.4685V47.392H67.279V44.5813Z" fill="white"/>
<path d="M70.0903 44.5813H67.2798V47.392H70.0903V44.5813Z" fill="white"/>
<path d="M72.9008 44.5813H70.0903V47.392H72.9008V44.5813Z" fill="white"/>
<path d="M84.1423 44.5813H81.3318V47.392H84.1423V44.5813Z" fill="white"/>
<path d="M30.7414 47.3921H27.9309V50.2027H30.7414V47.3921Z" fill="white"/>
<path d="M33.5527 47.3921H30.7422V50.2027H33.5527V47.3921Z" fill="white"/>
<path d="M41.9836 47.3921H39.1731V50.2027H41.9836V47.3921Z" fill="white"/>
<path d="M47.6054 47.3921H44.7949V50.2027H47.6054V47.3921Z" fill="white"/>
<path d="M56.0363 47.3921H53.2258V50.2027H56.0363V47.3921Z" fill="white"/>
<path d="M58.8473 47.3921H56.0369V50.2027H58.8473V47.3921Z" fill="white"/>
<path d="M64.4692 47.3921H61.6587V50.2027H64.4692V47.3921Z" fill="white"/>
<path d="M67.279 47.3921H64.4685V50.2027H67.279V47.3921Z" fill="white"/>
<path d="M72.9008 47.3921H70.0903V50.2027H72.9008V47.3921Z" fill="white"/>
<path d="M78.5212 47.3921H75.7107V50.2027H78.5212V47.3921Z" fill="white"/>
<path d="M81.3325 47.3921H78.522V50.2027H81.3325V47.3921Z" fill="white"/>
<path d="M84.1423 47.3921H81.3318V50.2027H84.1423V47.3921Z" fill="white"/>
<path d="M16.6896 50.2028H13.8792V53.0134H16.6896V50.2028Z" fill="white"/>
<path d="M19.4994 50.2028H16.689V53.0134H19.4994V50.2028Z" fill="white"/>
<path d="M22.3097 50.2028H19.4993V53.0134H22.3097V50.2028Z" fill="white"/>
<path d="M27.9308 50.2028H25.1204V53.0134H27.9308V50.2028Z" fill="white"/>
<path d="M39.1738 50.2028H36.3633V53.0134H39.1738V50.2028Z" fill="white"/>
<path d="M41.9836 50.2028H39.1731V53.0134H41.9836V50.2028Z" fill="white"/>
<path d="M44.7941 50.2028H41.9836V53.0134H44.7941V50.2028Z" fill="white"/>
<path d="M50.4167 50.2028H47.6062V53.0134H50.4167V50.2028Z" fill="white"/>
<path d="M61.6586 50.2028H58.8481V53.0134H61.6586V50.2028Z" fill="white"/>
<path d="M75.7099 50.2028H72.8994V53.0134H75.7099V50.2028Z" fill="white"/>
<path d="M81.3325 50.2028H78.522V53.0134H81.3325V50.2028Z" fill="white"/>
<path d="M16.6896 53.0132H13.8792V55.8238H16.6896V53.0132Z" fill="white"/>
<path d="M22.3097 53.0132H19.4993V55.8238H22.3097V53.0132Z" fill="white"/>
<path d="M25.121 53.0132H22.3105V55.8238H25.121V53.0132Z" fill="white"/>
<path d="M30.7414 53.0132H27.9309V55.8238H30.7414V53.0132Z" fill="white"/>
<path d="M33.5527 53.0132H30.7422V55.8238H33.5527V53.0132Z" fill="white"/>
<path d="M58.8473 53.0132H56.0369V55.8238H58.8473V53.0132Z" fill="white"/>
<path d="M61.6586 53.0132H58.8481V55.8238H61.6586V53.0132Z" fill="white"/>
<path d="M67.279 55.7187H64.4685V58.5293H67.279V55.7187Z" fill="white"/>
<path d="M75.7099 53.0132H72.8994V55.8238H75.7099V53.0132Z" fill="white"/>
<path d="M81.3325 53.0132H78.522V55.8238H81.3325V53.0132Z" fill="white"/>
<path d="M84.1423 53.0132H81.3318V55.8238H84.1423V53.0132Z" fill="white"/>
<path d="M16.6896 55.8245H13.8792V58.6352H16.6896V55.8245Z" fill="white"/>
<path d="M39.1738 55.8245H36.3633V58.6352H39.1738V55.8245Z" fill="white"/>
<path d="M50.4167 55.8245H47.6062V58.6352H50.4167V55.8245Z" fill="white"/>
<path d="M56.0363 55.8245H53.2258V58.6352H56.0363V55.8245Z" fill="white"/>
<path d="M58.8473 55.8245H56.0369V58.6352H58.8473V55.8245Z" fill="white"/>
<path d="M61.6586 55.8245H58.8481V58.6352H61.6586V55.8245Z" fill="white"/>
<path d="M64.4692 55.8245H61.6587V58.6352H64.4692V55.8245Z" fill="white"/>
<path d="M67.279 58.53H64.4685V61.3407H67.279V58.53Z" fill="white"/>
<path d="M70.0903 55.8245H67.2798V58.6352H70.0903V55.8245Z" fill="white"/>
<path d="M72.9008 55.8245H70.0903V58.6352H72.9008V55.8245Z" fill="white"/>
<path d="M75.7099 55.8245H72.8994V58.6352H75.7099V55.8245Z" fill="white"/>
<path d="M84.1423 55.8245H81.3318V58.6352H84.1423V55.8245Z" fill="white"/>
<path d="M16.6896 58.6356H13.8792V61.4462H16.6896V58.6356Z" fill="white"/>
<path d="M25.121 58.6356H22.3105V61.4462H25.121V58.6356Z" fill="white"/>
<path d="M27.9308 58.6356H25.1204V61.4462H27.9308V58.6356Z" fill="white"/>
<path d="M30.7414 58.6356H27.9309V61.4462H30.7414V58.6356Z" fill="white"/>
<path d="M33.5527 58.6356H30.7422V61.4462H33.5527V58.6356Z" fill="white"/>
<path d="M41.9836 58.6356H39.1731V61.4462H41.9836V58.6356Z" fill="white"/>
<path d="M44.7941 58.6356H41.9836V61.4462H44.7941V58.6356Z" fill="white"/>
<path d="M50.4167 58.6356H47.6062V61.4462H50.4167V58.6356Z" fill="white"/>
<path d="M53.2265 58.6356H50.416V61.4462H53.2265V58.6356Z" fill="white"/>
<path d="M56.0363 58.6356H53.2258V61.4462H56.0363V58.6356Z" fill="white"/>
<path d="M61.6586 58.6356H58.8481V61.4462H61.6586V58.6356Z" fill="white"/>
<path d="M64.4692 58.6356H61.6587V61.4462H64.4692V58.6356Z" fill="white"/>
<path d="M67.279 61.3411H64.4685V64.1517H67.279V61.3411Z" fill="white"/>
<path d="M67.279 39.1543H64.4685V41.965H67.279V39.1543Z" fill="white"/>
<path d="M70.0903 58.6356H67.2798V61.4462H70.0903V58.6356Z" fill="white"/>
<path d="M70.0903 36.4488H67.2798V39.2595H70.0903V36.4488Z" fill="white"/>
<path d="M72.9008 58.6356H70.0903V61.4462H72.9008V58.6356Z" fill="white"/>
<path d="M72.9008 36.4488H70.0903V39.2595H72.9008V36.4488Z" fill="white"/>
<path d="M78.5212 58.6356H75.7107V61.4462H78.5212V58.6356Z" fill="white"/>
<path d="M78.5212 36.4488H75.7107V39.2595H78.5212V36.4488Z" fill="white"/>
<path d="M39.1738 61.4459H36.3633V64.2566H39.1738V61.4459Z" fill="white"/>
<path d="M44.7941 61.4459H41.9836V64.2566H44.7941V61.4459Z" fill="white"/>
<path d="M56.0363 61.4459H53.2258V64.2566H56.0363V61.4459Z" fill="white"/>
<path d="M58.8473 61.4459H56.0369V64.2566H58.8473V61.4459Z" fill="white"/>
<path d="M61.6586 61.4459H58.8481V64.2566H61.6586V61.4459Z" fill="white"/>
<path d="M39.1738 64.2563H36.3633V67.067H39.1738V64.2563Z" fill="white"/>
<path d="M41.9836 64.2563H39.1731V67.067H41.9836V64.2563Z" fill="white"/>
<path d="M44.7941 64.2563H41.9836V67.067H44.7941V64.2563Z" fill="white"/>
<path d="M47.6054 64.2563H44.7949V67.067H47.6054V64.2563Z" fill="white"/>
<path d="M50.4167 64.2563H47.6062V67.067H50.4167V64.2563Z" fill="white"/>
<path d="M47.6054 67.0674H44.7949V69.878H47.6054V67.0674Z" fill="white"/>
<path d="M61.6586 67.0674H58.8481V69.878H61.6586V67.0674Z" fill="white"/>
<path d="M39.1738 69.8784H36.3633V72.6891H39.1738V69.8784Z" fill="white"/>
<path d="M44.7941 69.8784H41.9836V72.6891H44.7941V69.8784Z" fill="white"/>
<path d="M47.6054 69.8784H44.7949V72.6891H47.6054V69.8784Z" fill="white"/>
<path d="M58.8473 69.8784H56.0369V72.6891H58.8473V69.8784Z" fill="white"/>
<path d="M39.1738 72.6891H36.3633V75.4998H39.1738V72.6891Z" fill="white"/>
<path d="M44.7941 72.6891H41.9836V75.4998H44.7941V72.6891Z" fill="white"/>
<path d="M50.4167 72.6891H47.6062V75.4998H50.4167V72.6891Z" fill="white"/>
<path d="M53.2265 72.6891H50.416V75.4998H53.2265V72.6891Z" fill="white"/>
<path d="M58.8473 72.6891H56.0369V75.4998H58.8473V72.6891Z" fill="white"/>
<path d="M39.1738 75.5002H36.3633V78.3108H39.1738V75.5002Z" fill="white"/>
<path d="M41.9836 75.5002H39.1731V78.3108H41.9836V75.5002Z" fill="white"/>
<path d="M53.2265 75.5002H50.416V78.3108H53.2265V75.5002Z" fill="white"/>
<path d="M56.0363 75.5002H53.2258V78.3108H56.0363V75.5002Z" fill="white"/>
<path d="M61.6586 75.5002H58.8481V78.3108H61.6586V75.5002Z" fill="white"/>
<path d="M39.1738 78.3102H36.3633V81.1209H39.1738V78.3102Z" fill="white"/>
<path d="M50.4167 78.3102H47.6062V81.1209H50.4167V78.3102Z" fill="white"/>
<path d="M53.2265 78.3102H50.416V81.1209H53.2265V78.3102Z" fill="white"/>
<path d="M58.8473 78.3102H56.0369V81.1209H58.8473V78.3102Z" fill="white"/>
<path d="M61.6586 78.3102H58.8481V81.1209H61.6586V78.3102Z" fill="white"/>
<path d="M39.1738 81.1212H36.3633V83.9319H39.1738V81.1212Z" fill="white"/>
<path d="M50.4167 81.1212H47.6062V83.9319H50.4167V81.1212Z" fill="white"/>
<path d="M56.0363 81.1212H53.2258V83.9319H56.0363V81.1212Z" fill="white"/>
<path d="M58.8473 81.1212H56.0369V83.9319H58.8473V81.1212Z" fill="white"/>
<path d="M26.6463 63.9888H20.4524C19.0211 63.9856 17.6268 64.4427 16.4754 65.2928C15.324 66.143 14.4765 67.3409 14.0582 68.7097C13.9729 68.9935 13.9073 69.2828 13.8617 69.5755C13.8104 69.9079 13.7847 70.2436 13.7849 70.5799V76.922C13.7969 78.6799 14.5056 80.3612 15.7556 81.5973C17.0055 82.8333 18.6946 83.523 20.4524 83.5153H26.6463C28.4042 83.523 30.0934 82.8332 31.3433 81.5971C32.5933 80.3609 33.3019 78.6795 33.3138 76.9215V70.5799C33.3013 68.8224 32.5924 67.1415 31.3425 65.9059C30.0926 64.6703 28.4038 63.9809 26.6463 63.9888ZM30.3843 76.922C30.3733 77.9035 29.9734 78.8404 29.2724 79.5273C28.5715 80.2143 27.6266 80.595 26.6453 80.5861H20.4529C19.4716 80.595 18.5269 80.2143 17.8259 79.5275C17.1249 78.8407 16.725 77.9039 16.7139 76.9226V70.5799C16.7133 69.9692 16.8688 69.3684 17.1657 68.8347C17.4448 68.3347 17.8358 67.906 18.308 67.582C18.9387 67.1483 19.6864 66.9169 20.4518 66.9186H26.6463C27.6272 66.9096 28.5716 67.2901 29.2724 67.9766C29.9731 68.6631 30.373 69.5995 30.3843 70.5804V76.922Z" fill="white"/>
<path d="M26.6463 14.2038H20.4524C19.0211 14.2005 17.6268 14.6577 16.4754 15.5078C15.324 16.3579 14.4765 17.5559 14.0582 18.9247C13.9729 19.2085 13.9073 19.4977 13.8617 19.7905C13.8104 20.1228 13.7847 20.4586 13.7849 20.7949V27.137C13.7969 28.8949 14.5056 30.5762 15.7556 31.8122C17.0055 33.0482 18.6946 33.738 20.4524 33.7302H26.6463C28.4042 33.738 30.0934 33.0482 31.3433 31.812C32.5933 30.5759 33.3019 28.8944 33.3138 27.1365V20.7949C33.3013 19.0373 32.5924 17.3565 31.3425 16.1209C30.0926 14.8853 28.4038 14.1959 26.6463 14.2038ZM30.3843 27.137C30.3733 28.1184 29.9734 29.0554 29.2724 29.7423C28.5715 30.4292 27.6266 30.81 26.6453 30.8011H20.4529C19.4716 30.81 18.5269 30.4293 17.8259 29.7425C17.1249 29.0557 16.725 28.1189 16.7139 27.1375V20.7949C16.7133 20.1841 16.8688 19.5834 17.1657 19.0497C17.4448 18.5497 17.8358 18.1209 18.308 17.797C18.9387 17.3633 19.6864 17.1319 20.4518 17.1335H26.6463C27.6272 17.1246 28.5716 17.5051 29.2724 18.1916C29.9731 18.878 30.373 19.8145 30.3843 20.7954V27.137Z" fill="white"/>
<path d="M77.5116 64.5292H71.3176C69.8864 64.5259 68.4921 64.9831 67.3406 65.8332C66.1892 66.6833 65.3417 67.8813 64.9234 69.2501C64.8382 69.5338 64.7726 69.8231 64.727 70.1159C64.6756 70.4482 64.65 70.784 64.6501 71.1202V77.4624C64.6622 79.2203 65.3709 80.9016 66.6208 82.1376C67.8707 83.3736 69.5598 84.0634 71.3176 84.0556H77.5116C79.2694 84.0634 80.9586 83.3735 82.2086 82.1374C83.4585 80.9013 84.1672 79.2198 84.179 77.4618V71.1202C84.1666 69.3627 83.4577 67.6818 82.2078 66.4463C80.9579 65.2107 79.269 64.5213 77.5116 64.5292ZM81.2495 77.4624C81.2385 78.4438 80.8387 79.3808 80.1377 80.0677C79.4367 80.7546 78.4919 81.1354 77.5105 81.1264H71.3181C70.3369 81.1354 69.3921 80.7547 68.6911 80.0679C67.9902 79.3811 67.5903 78.4442 67.5791 77.4629V71.1202C67.5785 70.5095 67.7341 69.9088 68.0309 69.3751C68.3101 68.875 68.701 68.4463 69.1732 68.1223C69.8039 67.6887 70.5517 67.4573 71.3171 67.4589H77.5116C78.4925 67.45 79.4369 67.8305 80.1376 68.5169C80.8384 69.2034 81.2382 70.1398 81.2495 71.1208V77.4624Z" fill="white"/>
<path d="M77.5116 13.6626H71.3176C69.8864 13.6593 68.4921 14.1165 67.3406 14.9666C66.1892 15.8167 65.3417 17.0147 64.9234 18.3835C64.8382 18.6673 64.7726 18.9566 64.727 19.2493C64.6756 19.5816 64.65 19.9174 64.6501 20.2537V26.5958C64.6622 28.3537 65.3709 30.035 66.6208 31.271C67.8707 32.507 69.5598 33.1968 71.3176 33.189H77.5116C79.2694 33.1968 80.9586 32.507 82.2086 31.2708C83.4585 30.0347 84.1672 28.3532 84.179 26.5953V20.2537C84.1666 18.4961 83.4577 16.8153 82.2078 15.5797C80.9579 14.3441 79.269 13.6547 77.5116 13.6626ZM81.2495 26.5958C81.2385 27.5772 80.8387 28.5142 80.1377 29.2011C79.4367 29.888 78.4919 30.2688 77.5105 30.2599H71.3181C70.3369 30.2688 69.3921 29.8881 68.6911 29.2013C67.9902 28.5145 67.5903 27.5777 67.5791 26.5963V20.2537C67.5785 19.6429 67.7341 19.0422 68.0309 18.5085C68.3101 18.0085 68.701 17.5797 69.1732 17.2558C69.8039 16.8221 70.5517 16.5907 71.3171 16.5923H77.5116C78.4925 16.5834 79.4369 16.9639 80.1376 17.6504C80.8384 18.3369 81.2382 19.2733 81.2495 20.2542V26.5958Z" fill="white"/>
<path d="M21.655 77.9374C21.0541 77.9423 20.4756 77.709 20.0462 77.2884C19.6169 76.8679 19.3716 76.2943 19.364 75.6933V71.8096C19.3641 71.436 19.4592 71.0686 19.6405 70.7419C19.8111 70.4352 20.0506 70.1723 20.3402 69.974C20.7269 69.708 21.1856 69.566 21.655 69.5671H25.4487C26.0494 69.5616 26.6278 69.7946 27.057 70.215C27.4861 70.6354 27.7311 71.2088 27.7381 71.8096V75.6933C27.7305 76.294 27.4855 76.8673 27.0564 77.2878C26.6274 77.7084 26.0494 77.9419 25.4487 77.9374H21.655Z" fill="white"/>
<path d="M21.655 28.1523C21.0541 28.1572 20.4756 27.9239 20.0462 27.5033C19.6169 27.0827 19.3716 26.5092 19.364 25.9082V22.0245C19.3641 21.6509 19.4592 21.2834 19.6405 20.9568C19.8111 20.6501 20.0506 20.3872 20.3402 20.1889C20.7269 19.9228 21.1856 19.7809 21.655 19.782H25.4487C26.0494 19.7765 26.6278 20.0095 27.057 20.4299C27.4861 20.8503 27.7311 21.4237 27.7381 22.0245V25.9082C27.7305 26.5089 27.4855 27.0822 27.0564 27.5027C26.6274 27.9232 26.0494 28.1568 25.4487 28.1523H21.655Z" fill="white"/>
<path d="M72.5173 78.4794C71.9164 78.4843 71.3379 78.251 70.9085 77.8304C70.4792 77.4098 70.2339 76.8363 70.2263 76.2353V72.3515C70.2264 71.978 70.3215 71.6105 70.5028 71.2839C70.6734 70.9772 70.9129 70.7143 71.2025 70.516C71.5892 70.2499 72.0479 70.108 72.5173 70.1091H76.311C76.9117 70.1036 77.4901 70.3366 77.9193 70.757C78.3485 71.1774 78.5934 71.7508 78.6004 72.3515V76.2353C78.5928 76.836 78.3478 77.4093 77.9188 77.8298C77.4897 78.2503 76.9117 78.4839 76.311 78.4794H72.5173Z" fill="white"/>
<path d="M72.5173 27.6112C71.9164 27.6161 71.3379 27.3828 70.9085 26.9622C70.4792 26.5416 70.2339 25.9681 70.2263 25.3671V21.4834C70.2264 21.1098 70.3215 20.7423 70.5028 20.4157C70.6734 20.109 70.9129 19.8461 71.2025 19.6478C71.5892 19.3817 72.0479 19.2398 72.5173 19.2409H76.311C76.9117 19.2354 77.4901 19.4684 77.9193 19.8888C78.3485 20.3092 78.5934 20.8826 78.6004 21.4834V25.3671C78.5928 25.9678 78.3478 26.5411 77.9188 26.9616C77.4897 27.3821 76.9117 27.6157 76.311 27.6112H72.5173Z" fill="white"/>
<path d="M2.17871 48.6674H95.7809" stroke="#2873FF" stroke-width="1.85246" stroke-linecap="round"/>
<path d="M0.817627 48.3679H97.1456V87.2334H0.817627V48.3679Z" fill="url(#paint0_linear_1207_41952)"/>
<path d="M85.3896 0.820893H87.5742C88.2672 0.820656 88.9534 0.970652 89.5937 1.26233C90.234 1.55401 90.8158 1.98167 91.3059 2.52085C91.796 3.06003 92.1848 3.70018 92.4501 4.40476C92.7154 5.10933 92.852 5.86452 92.852 6.62719V8.70186" stroke="#2873FF" stroke-width="1.11148" stroke-miterlimit="10" stroke-linecap="round"/>
<path d="M12.4885 0.820893H10.304C9.61101 0.820656 8.92477 0.970652 8.28448 1.26233C7.64419 1.55401 7.06237 1.98167 6.57226 2.52085C6.08215 3.06003 5.69334 3.70018 5.42805 4.40476C5.16276 5.10933 5.02619 5.86452 5.02612 6.62719V8.70186" stroke="#2873FF" stroke-width="1.11148" stroke-miterlimit="10" stroke-linecap="round"/>
<path d="M12.4885 97.1488H10.304C9.61101 97.1491 8.92477 96.999 8.28448 96.7074C7.64419 96.4157 7.06237 95.988 6.57226 95.4489C6.08215 94.9097 5.69334 94.2695 5.42805 93.565C5.16276 92.8604 5.02619 92.1052 5.02612 91.3425V89.2679" stroke="#2873FF" stroke-width="1.11148" stroke-miterlimit="10" stroke-linecap="round"/>
<path d="M85.3896 97.1488H87.5742C88.2672 97.1491 88.9535 96.9992 89.5939 96.7075C90.2342 96.4159 90.8161 95.9883 91.3063 95.4491C91.7964 94.9099 92.1853 94.2697 92.4506 93.5651C92.7159 92.8605 92.8525 92.1052 92.8526 91.3425V89.2679" stroke="#2873FF" stroke-width="1.11148" stroke-miterlimit="10" stroke-linecap="round"/>
<defs>
<linearGradient id="paint0_linear_1207_41952" x1="48.9816" y1="48.3679" x2="48.9816" y2="87.2334" gradientUnits="userSpaceOnUse">
<stop stop-color="#1257BE" stop-opacity="0.6"/>
<stop offset="0.247" stop-color="#1261BE" stop-opacity="0.29"/>
<stop offset="1" stop-color="#124CBE" stop-opacity="0"/>
</linearGradient>
</defs>
</svg>
