<svg width="250" height="262" viewBox="0 0 250 262" fill="none" xmlns="http://www.w3.org/2000/svg">
<g filter="url(#filter0_d_4429_56277)">
<rect x="19.5" y="0.5" width="223" height="223" rx="18.5401" fill="#12181F"/>
<rect x="19.75" y="0.75" width="222.5" height="222.5" rx="18.2901" stroke="url(#paint0_linear_4429_56277)" stroke-width="0.5"/>
<rect x="44.75" y="27.25" width="174.5" height="171.055" rx="23.75" stroke="#64748B" stroke-width="0.5"/>
<path d="M116.329 37.2852H110.218V43.2321H116.329V37.2852Z" fill="#8E9BAE"/>
<path d="M110.219 43.2305H104.107V49.1774H110.219V43.2305Z" fill="#8E9BAE"/>
<path d="M152.575 43.2305H146.464V49.1774H152.575V43.2305Z" fill="#8E9BAE"/>
<path d="M158.458 43.2305H152.347V49.1774H158.458V43.2305Z" fill="#8E9BAE"/>
<path d="M116.329 43.2305H110.218V49.1774H116.329V43.2305Z" fill="#8E9BAE"/>
<path d="M128.553 43.2305H122.441V49.1774H128.553V43.2305Z" fill="#8E9BAE"/>
<path d="M134.665 43.2305H128.553V49.1774H134.665V43.2305Z" fill="#8E9BAE"/>
<path d="M116.329 49.1758H110.218V55.1227H116.329V49.1758Z" fill="#8E9BAE"/>
<path d="M122.439 49.1758H116.328V55.1227H122.439V49.1758Z" fill="#8E9BAE"/>
<path d="M128.553 49.1758H122.441V55.1227H128.553V49.1758Z" fill="#8E9BAE"/>
<path d="M146.885 49.1758H140.774V55.1227H146.885V49.1758Z" fill="#8E9BAE"/>
<path d="M110.219 55.125H104.107V61.0719H110.219V55.125Z" fill="#8E9BAE"/>
<path d="M152.575 55.125H146.464V61.0719H152.575V55.125Z" fill="#8E9BAE"/>
<path d="M116.329 55.125H110.218V61.0719H116.329V55.125Z" fill="#8E9BAE"/>
<path d="M128.553 55.125H122.441V61.0719H128.553V55.125Z" fill="#8E9BAE"/>
<path d="M140.775 55.125H134.664V61.0719H140.775V55.125Z" fill="#8E9BAE"/>
<path d="M146.885 55.125H140.774V61.0719H146.885V55.125Z" fill="#8E9BAE"/>
<path d="M122.439 61.0742H116.328V67.0211H122.439V61.0742Z" fill="#8E9BAE"/>
<path d="M134.665 61.0742H128.553V67.0211H134.665V61.0742Z" fill="#8E9BAE"/>
<path d="M159.373 61.0742H153.262V67.0211H159.373V61.0742Z" fill="#8E9BAE"/>
<path d="M146.885 61.0742H140.774V67.0211H146.885V61.0742Z" fill="#8E9BAE"/>
<path d="M110.219 67.0195H104.107V72.9664H110.219V67.0195Z" fill="#8E9BAE"/>
<path d="M152.575 67.0195H146.464V72.9664H152.575V67.0195Z" fill="#8E9BAE"/>
<path d="M122.439 67.0195H116.328V72.9664H122.439V67.0195Z" fill="#8E9BAE"/>
<path d="M140.775 67.0195H134.664V72.9664H140.775V67.0195Z" fill="#8E9BAE"/>
<path d="M110.219 72.9688H104.107V78.9156H110.219V72.9688Z" fill="#8E9BAE"/>
<path d="M152.575 72.9688H146.464V78.9156H152.575V72.9688Z" fill="#8E9BAE"/>
<path d="M122.439 72.9688H116.328V78.9156H122.439V72.9688Z" fill="#8E9BAE"/>
<path d="M134.665 72.9688H128.553V78.9156H134.665V72.9688Z" fill="#8E9BAE"/>
<path d="M146.885 72.9688H140.774V78.9156H146.885V72.9688Z" fill="#8E9BAE"/>
<path d="M134.665 78.9141H128.553V84.861H134.665V78.9141Z" fill="#8E9BAE"/>
<path d="M159.373 78.9141H153.262V84.861H159.373V78.9141Z" fill="#8E9BAE"/>
<path d="M146.885 78.9141H140.774V84.861H146.885V78.9141Z" fill="#8E9BAE"/>
<path d="M61.3266 84.8633H55.2153V90.8102H61.3266V84.8633Z" fill="#8E9BAE"/>
<path d="M67.4376 84.8633H61.3264V90.8102H67.4376V84.8633Z" fill="#8E9BAE"/>
<path d="M73.5478 84.8633H67.4365V90.8102H73.5478V84.8633Z" fill="#8E9BAE"/>
<path d="M79.661 84.8633H73.5497V90.8102H79.661V84.8633Z" fill="#8E9BAE"/>
<path d="M85.7715 84.8633H79.6603V90.8102H85.7715V84.8633Z" fill="#8E9BAE"/>
<path d="M97.9952 84.8633H91.8839V90.8102H97.9952V84.8633Z" fill="#8E9BAE"/>
<path d="M104.106 84.8633H97.9943V90.8102H104.106V84.8633Z" fill="#8E9BAE"/>
<path d="M110.219 84.8633H104.107V90.8102H110.219V84.8633Z" fill="#8E9BAE"/>
<path d="M116.329 84.8633H110.218V90.8102H116.329V84.8633Z" fill="#8E9BAE"/>
<path d="M122.439 84.8633H116.328V90.8102H122.439V84.8633Z" fill="#8E9BAE"/>
<path d="M134.665 84.8633H128.553V90.8102H134.665V84.8633Z" fill="#8E9BAE"/>
<path d="M159.373 84.8633H153.262V90.8102H159.373V84.8633Z" fill="#8E9BAE"/>
<path d="M140.775 84.8633H134.664V90.8102H140.775V84.8633Z" fill="#8E9BAE"/>
<path d="M146.885 84.8633H140.774V90.8102H146.885V84.8633Z" fill="#8E9BAE"/>
<path d="M67.4376 90.8086H61.3264V96.7555H67.4376V90.8086Z" fill="#8E9BAE"/>
<path d="M91.8848 90.8086H85.7736V96.7555H91.8848V90.8086Z" fill="#8E9BAE"/>
<path d="M116.329 90.8086H110.218V96.7555H116.329V90.8086Z" fill="#8E9BAE"/>
<path d="M73.5478 96.7539H67.4365V102.701H73.5478V96.7539Z" fill="#8E9BAE"/>
<path d="M79.661 96.7539H73.5497V102.701H79.661V96.7539Z" fill="#8E9BAE"/>
<path d="M91.8848 96.7539H85.7736V102.701H91.8848V96.7539Z" fill="#8E9BAE"/>
<path d="M97.9952 96.7539H91.8839V102.701H97.9952V96.7539Z" fill="#8E9BAE"/>
<path d="M104.106 96.7539H97.9943V102.701H104.106V96.7539Z" fill="#8E9BAE"/>
<path d="M110.219 96.7539H104.107V102.701H110.219V96.7539Z" fill="#8E9BAE"/>
<path d="M116.329 96.7539H110.218V102.701H116.329V96.7539Z" fill="#8E9BAE"/>
<path d="M128.553 96.7539H122.441V102.701H128.553V96.7539Z" fill="#8E9BAE"/>
<path d="M134.665 96.7539H128.553V102.701H134.665V96.7539Z" fill="#8E9BAE"/>
<path d="M140.775 96.7539H134.664V102.701H140.775V96.7539Z" fill="#8E9BAE"/>
<path d="M146.885 96.7539H140.774V102.701H146.885V96.7539Z" fill="#8E9BAE"/>
<path d="M152.998 96.7539H146.887V102.701H152.998V96.7539Z" fill="#8E9BAE"/>
<path d="M159.109 96.7539H152.998V102.701H159.109V96.7539Z" fill="#8E9BAE"/>
<path d="M165.222 96.7539H159.111V102.701H165.222V96.7539Z" fill="#8E9BAE"/>
<path d="M171.333 96.7539H165.221V102.701H171.333V96.7539Z" fill="#8E9BAE"/>
<path d="M183.556 96.7539H177.445V102.701H183.556V96.7539Z" fill="#8E9BAE"/>
<path d="M189.667 96.7539H183.555V102.701H189.667V96.7539Z" fill="#8E9BAE"/>
<path d="M201.89 96.7539H195.779V102.701H201.89V96.7539Z" fill="#8E9BAE"/>
<path d="M208 96.7539H201.889V102.701H208V96.7539Z" fill="#8E9BAE"/>
<path d="M73.5478 102.703H67.4365V108.65H73.5478V102.703Z" fill="#8E9BAE"/>
<path d="M79.661 102.703H73.5497V108.65H79.661V102.703Z" fill="#8E9BAE"/>
<path d="M110.219 102.703H104.107V108.65H110.219V102.703Z" fill="#8E9BAE"/>
<path d="M116.329 102.703H110.218V108.65H116.329V102.703Z" fill="#8E9BAE"/>
<path d="M122.439 102.703H116.328V108.65H122.439V102.703Z" fill="#8E9BAE"/>
<path d="M128.553 102.703H122.441V108.65H128.553V102.703Z" fill="#8E9BAE"/>
<path d="M152.998 102.703H146.887V108.65H152.998V102.703Z" fill="#8E9BAE"/>
<path d="M159.109 102.703H152.998V108.65H159.109V102.703Z" fill="#8E9BAE"/>
<path d="M165.222 102.703H159.111V108.65H165.222V102.703Z" fill="#8E9BAE"/>
<path d="M171.333 102.703H165.221V108.65H171.333V102.703Z" fill="#8E9BAE"/>
<path d="M177.446 102.703H171.335V108.65H177.446V102.703Z" fill="#8E9BAE"/>
<path d="M183.556 102.703H177.445V108.65H183.556V102.703Z" fill="#8E9BAE"/>
<path d="M208 102.703H201.889V108.65H208V102.703Z" fill="#8E9BAE"/>
<path d="M91.8848 108.648H85.7736V114.595H91.8848V108.648Z" fill="#8E9BAE"/>
<path d="M97.9952 108.648H91.8839V114.595H97.9952V108.648Z" fill="#8E9BAE"/>
<path d="M116.329 108.648H110.218V114.595H116.329V108.648Z" fill="#8E9BAE"/>
<path d="M128.553 108.648H122.441V114.595H128.553V108.648Z" fill="#8E9BAE"/>
<path d="M146.885 108.648H140.774V114.595H146.885V108.648Z" fill="#8E9BAE"/>
<path d="M152.998 108.648H146.887V114.595H152.998V108.648Z" fill="#8E9BAE"/>
<path d="M165.222 108.648H159.111V114.595H165.222V108.648Z" fill="#8E9BAE"/>
<path d="M171.333 108.648H165.221V114.595H171.333V108.648Z" fill="#8E9BAE"/>
<path d="M183.556 108.648H177.445V114.595H183.556V108.648Z" fill="#8E9BAE"/>
<path d="M195.78 108.648H189.669V114.595H195.78V108.648Z" fill="#8E9BAE"/>
<path d="M201.89 108.648H195.779V114.595H201.89V108.648Z" fill="#8E9BAE"/>
<path d="M208 108.648H201.889V114.595H208V108.648Z" fill="#8E9BAE"/>
<path d="M61.3266 114.598H55.2153V120.545H61.3266V114.598Z" fill="#8E9BAE"/>
<path d="M67.4376 114.598H61.3264V120.545H67.4376V114.598Z" fill="#8E9BAE"/>
<path d="M73.5478 114.598H67.4365V120.545H73.5478V114.598Z" fill="#8E9BAE"/>
<path d="M85.7715 114.598H79.6603V120.545H85.7715V114.598Z" fill="#8E9BAE"/>
<path d="M110.219 114.598H104.107V120.545H110.219V114.598Z" fill="#8E9BAE"/>
<path d="M116.329 114.598H110.218V120.545H116.329V114.598Z" fill="#8E9BAE"/>
<path d="M122.439 114.598H116.328V120.545H122.439V114.598Z" fill="#8E9BAE"/>
<path d="M134.665 114.598H128.553V120.545H134.665V114.598Z" fill="#8E9BAE"/>
<path d="M159.109 114.598H152.998V120.545H159.109V114.598Z" fill="#8E9BAE"/>
<path d="M189.667 114.598H183.555V120.545H189.667V114.598Z" fill="#8E9BAE"/>
<path d="M201.89 114.598H195.779V120.545H201.89V114.598Z" fill="#8E9BAE"/>
<path d="M61.3266 120.543H55.2153V126.49H61.3266V120.543Z" fill="#8E9BAE"/>
<path d="M73.5478 120.543H67.4365V126.49H73.5478V120.543Z" fill="#8E9BAE"/>
<path d="M79.661 120.543H73.5497V126.49H79.661V120.543Z" fill="#8E9BAE"/>
<path d="M91.8848 120.543H85.7736V126.49H91.8848V120.543Z" fill="#8E9BAE"/>
<path d="M97.9952 120.543H91.8839V126.49H97.9952V120.543Z" fill="#8E9BAE"/>
<path d="M152.998 120.543H146.887V126.49H152.998V120.543Z" fill="#8E9BAE"/>
<path d="M159.109 120.543H152.998V126.49H159.109V120.543Z" fill="#8E9BAE"/>
<path d="M171.333 126.27H165.221V132.216H171.333V126.27Z" fill="#8E9BAE"/>
<path d="M189.667 120.543H183.555V126.49H189.667V120.543Z" fill="#8E9BAE"/>
<path d="M201.89 120.543H195.779V126.49H201.89V120.543Z" fill="#8E9BAE"/>
<path d="M208 120.543H201.889V126.49H208V120.543Z" fill="#8E9BAE"/>
<path d="M61.3266 126.492H55.2153V132.439H61.3266V126.492Z" fill="#8E9BAE"/>
<path d="M110.219 126.492H104.107V132.439H110.219V126.492Z" fill="#8E9BAE"/>
<path d="M134.665 126.492H128.553V132.439H134.665V126.492Z" fill="#8E9BAE"/>
<path d="M146.885 126.492H140.774V132.439H146.885V126.492Z" fill="#8E9BAE"/>
<path d="M152.998 126.492H146.887V132.439H152.998V126.492Z" fill="#8E9BAE"/>
<path d="M159.109 126.492H152.998V132.439H159.109V126.492Z" fill="#8E9BAE"/>
<path d="M165.222 126.492H159.111V132.439H165.222V126.492Z" fill="#8E9BAE"/>
<path d="M171.333 132.219H165.221V138.166H171.333V132.219Z" fill="#8E9BAE"/>
<path d="M177.446 126.492H171.335V132.439H177.446V126.492Z" fill="#8E9BAE"/>
<path d="M183.556 126.492H177.445V132.439H183.556V126.492Z" fill="#8E9BAE"/>
<path d="M189.667 126.492H183.555V132.439H189.667V126.492Z" fill="#8E9BAE"/>
<path d="M208 126.492H201.889V132.439H208V126.492Z" fill="#8E9BAE"/>
<path d="M61.3266 132.438H55.2153V138.384H61.3266V132.438Z" fill="#8E9BAE"/>
<path d="M79.661 132.438H73.5497V138.384H79.661V132.438Z" fill="#8E9BAE"/>
<path d="M85.7715 132.438H79.6603V138.384H85.7715V132.438Z" fill="#8E9BAE"/>
<path d="M91.8848 132.438H85.7736V138.384H91.8848V132.438Z" fill="#8E9BAE"/>
<path d="M97.9952 132.438H91.8839V138.384H97.9952V132.438Z" fill="#8E9BAE"/>
<path d="M116.329 132.438H110.218V138.384H116.329V132.438Z" fill="#8E9BAE"/>
<path d="M122.439 132.438H116.328V138.384H122.439V132.438Z" fill="#8E9BAE"/>
<path d="M134.665 132.438H128.553V138.384H134.665V132.438Z" fill="#8E9BAE"/>
<path d="M140.775 132.438H134.664V138.384H140.775V132.438Z" fill="#8E9BAE"/>
<path d="M146.885 132.438H140.774V138.384H146.885V132.438Z" fill="#8E9BAE"/>
<path d="M159.109 132.438H152.998V138.384H159.109V132.438Z" fill="#8E9BAE"/>
<path d="M165.222 132.438H159.111V138.384H165.222V132.438Z" fill="#8E9BAE"/>
<path d="M171.333 138.164H165.221V144.111H171.333V138.164Z" fill="#8E9BAE"/>
<path d="M171.333 91.2227H165.221V97.1696H171.333V91.2227Z" fill="#8E9BAE"/>
<path d="M177.446 132.438H171.335V138.384H177.446V132.438Z" fill="#8E9BAE"/>
<path d="M177.446 85.4961H171.335V91.443H177.446V85.4961Z" fill="#8E9BAE"/>
<path d="M183.556 132.438H177.445V138.384H183.556V132.438Z" fill="#8E9BAE"/>
<path d="M183.556 85.4961H177.445V91.443H183.556V85.4961Z" fill="#8E9BAE"/>
<path d="M195.78 132.438H189.669V138.384H195.78V132.438Z" fill="#8E9BAE"/>
<path d="M195.78 85.4961H189.669V91.443H195.78V85.4961Z" fill="#8E9BAE"/>
<path d="M110.219 138.387H104.107V144.334H110.219V138.387Z" fill="#8E9BAE"/>
<path d="M122.439 138.387H116.328V144.334H122.439V138.387Z" fill="#8E9BAE"/>
<path d="M146.885 138.387H140.774V144.334H146.885V138.387Z" fill="#8E9BAE"/>
<path d="M152.998 138.387H146.887V144.334H152.998V138.387Z" fill="#8E9BAE"/>
<path d="M159.109 138.387H152.998V144.334H159.109V138.387Z" fill="#8E9BAE"/>
<path d="M110.219 144.336H104.107V150.283H110.219V144.336Z" fill="#8E9BAE"/>
<path d="M116.329 144.336H110.218V150.283H116.329V144.336Z" fill="#8E9BAE"/>
<path d="M122.439 144.336H116.328V150.283H122.439V144.336Z" fill="#8E9BAE"/>
<path d="M128.553 144.336H122.441V150.283H128.553V144.336Z" fill="#8E9BAE"/>
<path d="M134.665 144.336H128.553V150.283H134.665V144.336Z" fill="#8E9BAE"/>
<path d="M128.553 150.281H122.441V156.228H128.553V150.281Z" fill="#8E9BAE"/>
<path d="M159.109 150.281H152.998V156.228H159.109V150.281Z" fill="#8E9BAE"/>
<path d="M110.219 156.23H104.107V162.177H110.219V156.23Z" fill="#8E9BAE"/>
<path d="M122.439 156.23H116.328V162.177H122.439V156.23Z" fill="#8E9BAE"/>
<path d="M128.553 156.23H122.441V162.177H128.553V156.23Z" fill="#8E9BAE"/>
<path d="M152.998 156.23H146.887V162.177H152.998V156.23Z" fill="#8E9BAE"/>
<path d="M110.219 162.176H104.107V168.123H110.219V162.176Z" fill="#8E9BAE"/>
<path d="M122.439 162.176H116.328V168.123H122.439V162.176Z" fill="#8E9BAE"/>
<path d="M134.665 162.176H128.553V168.123H134.665V162.176Z" fill="#8E9BAE"/>
<path d="M140.775 162.176H134.664V168.123H140.775V162.176Z" fill="#8E9BAE"/>
<path d="M152.998 162.176H146.887V168.123H152.998V162.176Z" fill="#8E9BAE"/>
<path d="M110.219 168.121H104.107V174.068H110.219V168.121Z" fill="#8E9BAE"/>
<path d="M116.329 168.121H110.218V174.068H116.329V168.121Z" fill="#8E9BAE"/>
<path d="M140.775 168.121H134.664V174.068H140.775V168.121Z" fill="#8E9BAE"/>
<path d="M146.885 168.121H140.774V174.068H146.885V168.121Z" fill="#8E9BAE"/>
<path d="M159.109 168.121H152.998V174.068H159.109V168.121Z" fill="#8E9BAE"/>
<path d="M110.219 174.07H104.107V180.017H110.219V174.07Z" fill="#8E9BAE"/>
<path d="M134.665 174.07H128.553V180.017H134.665V174.07Z" fill="#8E9BAE"/>
<path d="M140.775 174.07H134.664V180.017H140.775V174.07Z" fill="#8E9BAE"/>
<path d="M152.998 174.07H146.887V180.017H152.998V174.07Z" fill="#8E9BAE"/>
<path d="M159.109 174.07H152.998V180.017H159.109V174.07Z" fill="#8E9BAE"/>
<path d="M110.219 180.016H104.107V185.963H110.219V180.016Z" fill="#8E9BAE"/>
<path d="M134.665 180.016H128.553V185.963H134.665V180.016Z" fill="#8E9BAE"/>
<path d="M146.885 180.016H140.774V185.963H146.885V180.016Z" fill="#8E9BAE"/>
<path d="M152.998 180.016H146.887V185.963H152.998V180.016Z" fill="#8E9BAE"/>
<path d="M82.9817 143.766H69.5132C66.401 143.759 63.3692 144.726 60.8654 146.525C58.3617 148.324 56.5189 150.858 55.6093 153.754C55.424 154.355 55.2812 154.967 55.1822 155.586C55.0705 156.289 55.0147 157 55.0151 157.711V171.13C55.0412 174.85 56.5822 178.407 59.3002 181.022C62.0181 183.637 65.6909 185.097 69.5132 185.08H82.9817C86.8041 185.097 90.4772 183.637 93.1951 181.022C95.9131 178.406 97.454 174.849 97.4798 171.129V157.711C97.4527 153.993 95.9112 150.436 93.1934 147.822C90.4755 145.208 86.8032 143.749 82.9817 143.766ZM91.1097 171.13C91.0858 173.207 90.2163 175.189 88.692 176.643C87.1678 178.096 85.1133 178.902 82.9794 178.883H69.5143C67.3806 178.902 65.3263 178.096 63.802 176.643C62.2778 175.19 61.4082 173.208 61.384 171.131V157.711C61.3827 156.419 61.7209 155.148 62.3665 154.019C62.9734 152.961 63.8235 152.054 64.8503 151.368C66.2217 150.451 67.8477 149.961 69.512 149.965H82.9817C85.1146 149.946 87.1682 150.751 88.6919 152.203C90.2156 153.656 91.0851 155.637 91.1097 157.712V171.13Z" fill="#8E9BAE"/>
<path d="M82.9817 38.4337H69.5132C66.401 38.4268 63.3692 39.3941 60.8654 41.1928C58.3617 42.9915 56.5189 45.5262 55.6093 48.4223C55.424 49.0227 55.2812 49.6348 55.1822 50.2543C55.0705 50.9574 55.0147 51.6678 55.0151 52.3793V65.7982C55.0412 69.5175 56.5822 73.075 59.3002 75.6902C62.0181 78.3053 65.6909 79.7648 69.5132 79.7483H82.9817C86.8041 79.7648 90.4772 78.3052 93.1951 75.6897C95.9131 73.0743 97.454 69.5166 97.4798 65.797V52.3793C97.4527 48.6606 95.9112 45.1042 93.1934 42.4899C90.4755 39.8757 86.8032 38.417 82.9817 38.4337ZM91.1097 65.7982C91.0858 67.8747 90.2163 69.8571 88.692 71.3106C87.1678 72.764 85.1133 73.5696 82.9794 73.5507H69.5143C67.3806 73.5696 65.3263 72.7641 63.802 71.311C62.2778 69.8578 61.4082 67.8756 61.384 65.7993V52.3793C61.3827 51.0871 61.7209 49.816 62.3665 48.6868C62.9734 47.6288 63.8235 46.7217 64.8503 46.0362C66.2217 45.1187 67.8477 44.6291 69.512 44.6325H82.9817C85.1146 44.6136 87.1682 45.4187 88.6919 46.8712C90.2156 48.3236 91.0851 50.3049 91.1097 52.3804V65.7982Z" fill="#8E9BAE"/>
<path d="M193.582 144.906H180.114C177.002 144.899 173.97 145.867 171.466 147.665C168.962 149.464 167.119 151.999 166.21 154.895C166.025 155.495 165.882 156.107 165.783 156.727C165.671 157.43 165.615 158.14 165.616 158.852V172.271C165.642 175.99 167.183 179.548 169.901 182.163C172.619 184.778 176.292 186.237 180.114 186.221H193.582C197.405 186.237 201.078 184.778 203.796 182.162C206.514 179.547 208.055 175.989 208.08 172.27V158.852C208.053 155.133 206.512 151.577 203.794 148.963C201.076 146.348 197.404 144.89 193.582 144.906ZM201.71 172.271C201.686 174.347 200.817 176.33 199.293 177.783C197.768 179.237 195.714 180.042 193.58 180.023H180.115C177.981 180.042 175.927 179.237 174.403 177.784C172.878 176.33 172.009 174.348 171.985 172.272V158.852C171.983 157.56 172.321 156.289 172.967 155.159C173.574 154.101 174.424 153.194 175.451 152.509C176.822 151.591 178.448 151.102 180.113 151.105H193.582C195.715 151.086 197.769 151.891 199.292 153.344C200.816 154.796 201.686 156.778 201.71 158.853V172.271Z" fill="#8E9BAE"/>
<path d="M193.582 37.2853H180.114C177.002 37.2783 173.97 38.2457 171.466 40.0444C168.962 41.8431 167.119 44.3777 166.21 47.2739C166.024 47.8743 165.882 48.4864 165.783 49.1058C165.671 49.8089 165.615 50.5194 165.616 51.2309V64.6497C165.642 68.3691 167.183 71.9265 169.901 74.5417C172.619 77.1569 176.291 78.6163 180.114 78.5999H193.582C197.405 78.6163 201.078 77.1567 203.796 74.5413C206.514 71.9259 208.054 68.3681 208.08 64.6486V51.2309C208.053 47.5122 206.512 43.9558 203.794 41.3415C201.076 38.7272 197.404 37.2685 193.582 37.2853ZM201.71 64.6497C201.686 66.7262 200.817 68.7087 199.293 70.1621C197.768 71.6155 195.714 72.4212 193.58 72.4022H180.115C177.981 72.4212 175.927 71.6157 174.403 70.1625C172.878 68.7094 172.009 66.7272 171.984 64.6509V51.2309C171.983 49.9387 172.321 48.6676 172.967 47.5384C173.574 46.4804 174.424 45.5733 175.451 44.8878C176.822 43.9702 178.448 43.4806 180.112 43.4841H193.582C195.715 43.4652 197.769 44.2702 199.292 45.7227C200.816 47.1752 201.686 49.1565 201.71 51.232V64.6497Z" fill="#8E9BAE"/>
<path d="M72.1313 173.277C70.8245 173.287 69.5667 172.793 68.6331 171.904C67.6994 171.014 67.166 169.8 67.1496 168.529V160.311C67.1497 159.521 67.3566 158.743 67.7508 158.052C68.1218 157.403 68.6426 156.847 69.2722 156.428C70.1132 155.865 71.1105 155.564 72.1313 155.567H80.3805C81.6867 155.555 82.9444 156.048 83.8776 156.937C84.8108 157.827 85.3435 159.04 85.3587 160.311V168.529C85.3422 169.8 84.8093 171.013 83.8765 171.902C82.9436 172.792 81.6867 173.286 80.3805 173.277H72.1313Z" fill="#8E9BAE"/>
<path d="M72.1312 67.9447C70.8244 67.9551 69.5666 67.4614 68.6329 66.5716C67.6993 65.6817 67.1659 64.4682 67.1495 63.1966V54.9793C67.1496 54.1888 67.3565 53.4114 67.7507 52.7203C68.1216 52.0713 68.6425 51.5151 69.2721 51.0956C70.1131 50.5326 71.1104 50.2323 72.1312 50.2346H80.3804C81.6866 50.223 82.9442 50.716 83.8775 51.6054C84.8107 52.4949 85.3433 53.7082 85.3586 54.9793V63.1966C85.3421 64.4676 84.8092 65.6806 83.8763 66.5703C82.9435 67.4601 81.6865 67.9542 80.3804 67.9447H72.1312Z" fill="#8E9BAE"/>
<path d="M182.721 174.421C181.414 174.432 180.157 173.938 179.223 173.048C178.289 172.158 177.756 170.945 177.74 169.673V161.456C177.74 160.665 177.947 159.888 178.341 159.197C178.712 158.548 179.233 157.992 179.862 157.572C180.703 157.009 181.7 156.709 182.721 156.711H190.97C192.277 156.7 193.534 157.193 194.468 158.082C195.401 158.971 195.933 160.185 195.949 161.456V169.673C195.932 170.944 195.399 172.157 194.466 173.047C193.534 173.937 192.277 174.431 190.97 174.421H182.721Z" fill="#8E9BAE"/>
<path d="M182.721 66.7963C181.414 66.8067 180.157 66.313 179.223 65.4231C178.289 64.5333 177.756 63.3198 177.74 62.0482V53.8308C177.74 53.0404 177.947 52.263 178.341 51.5718C178.712 50.9229 179.233 50.3667 179.862 49.9471C180.703 49.3842 181.7 49.0838 182.721 49.0861H190.97C192.277 49.0745 193.534 49.5675 194.468 50.457C195.401 51.3464 195.933 52.5598 195.949 53.8308V62.0482C195.932 63.3192 195.399 64.5321 194.466 65.4219C193.534 66.3116 192.277 66.8058 190.97 66.7963H182.721Z" fill="#8E9BAE"/>
<path d="M137.371 89.7383H126.782C118.318 89.7383 111.339 96.4325 111.339 104.833V115.137C111.339 123.538 118.318 130.232 126.782 130.232H137.371C145.836 130.232 152.814 123.538 152.814 115.137V104.833C152.814 96.4325 145.836 89.7383 137.371 89.7383Z" fill="#2873FF"/>
<path d="M137.371 89.7383H126.782C118.318 89.7383 111.339 96.4325 111.339 104.833V115.137C111.339 123.538 118.318 130.232 126.782 130.232H137.371C145.836 130.232 152.814 123.538 152.814 115.137V104.833C152.814 96.4325 145.836 89.7383 137.371 89.7383Z" fill="url(#paint1_linear_4429_56277)"/>
<path d="M137.371 89.7383H126.782C118.318 89.7383 111.339 96.4325 111.339 104.833V115.137C111.339 123.538 118.318 130.232 126.782 130.232H137.371C145.836 130.232 152.814 123.538 152.814 115.137V104.833C152.814 96.4325 145.836 89.7383 137.371 89.7383Z" stroke="#12181F" stroke-width="5"/>
<path d="M137.373 89.375H126.783C118.011 89.375 110.899 96.2953 110.899 104.832V115.136C110.899 123.673 118.011 130.593 126.783 130.593H137.373C146.145 130.593 153.257 123.673 153.257 115.136V104.832C153.257 96.2953 146.145 89.375 137.373 89.375Z" stroke="#12181F" stroke-width="3.00347"/>
<path d="M141.493 109.413C141.549 109.012 141.576 108.607 141.576 108.202C141.576 108.115 141.576 108.029 141.576 107.944C141.576 107.8 141.566 107.68 141.557 107.566C141.535 107.254 141.496 106.943 141.439 106.635C141.43 106.585 141.422 106.536 141.412 106.488C141.397 106.403 141.379 106.317 141.359 106.235C141.348 106.184 141.337 106.134 141.324 106.087C141.308 106.017 141.29 105.946 141.27 105.879C140.791 104.113 139.776 102.53 138.358 101.334L138.254 101.246L138.191 101.361C138.104 101.522 138.031 101.69 137.971 101.863C137.842 102.235 137.776 102.624 137.777 103.016C137.777 103.216 137.794 103.415 137.827 103.613V103.648L137.835 103.656C137.868 103.834 137.914 104.009 137.974 104.179C137.211 104.059 136.428 104.14 135.707 104.413C134.987 104.686 134.354 105.142 133.875 105.733L133.757 105.884L133.955 105.904C133.973 105.904 135.739 106.078 137.32 106.318C137.982 106.414 138.634 106.562 139.271 106.762H139.278C139.369 106.786 139.448 106.841 139.501 106.917C139.553 106.993 139.576 107.085 139.564 107.176C139.552 107.267 139.506 107.35 139.436 107.411C139.365 107.471 139.274 107.505 139.18 107.506H123.02C123.011 107.505 123.003 107.505 122.995 107.506H122.983C122.973 107.509 122.964 107.515 122.955 107.522H122.948C122.941 107.528 122.935 107.535 122.93 107.542C122.927 107.546 122.924 107.55 122.922 107.555C122.919 107.562 122.917 107.569 122.916 107.577C122.916 107.582 122.916 107.587 122.916 107.593C122.903 107.786 122.896 107.984 122.896 108.181C122.901 108.683 122.944 109.183 123.024 109.679L123.04 109.767H128.328C129.213 109.765 130.079 110.015 130.819 110.487C131.933 111.499 132.729 112.799 133.113 114.234C133.4 115.242 133.954 116.159 134.717 116.894C135.072 117.22 135.467 117.5 135.894 117.729C137.157 118.408 138.634 118.606 140.039 118.285H140.047L140.066 118.277C140.073 118.274 140.079 118.27 140.085 118.265H140.093C140.093 118.262 140.093 118.259 140.093 118.257C140.098 118.251 140.102 118.245 140.105 118.238C140.108 118.233 140.11 118.226 140.112 118.22C140.113 118.214 140.113 118.207 140.112 118.201C140.113 118.194 140.113 118.187 140.112 118.18C140.112 118.18 140.112 118.173 140.112 118.17C140.112 118.167 140.112 118.164 140.112 118.162C140.11 118.155 140.107 118.148 140.103 118.142C140.099 118.136 140.095 118.131 140.091 118.126L140.085 118.118C139.214 117.32 138.546 116.336 138.134 115.243C139.979 113.789 141.181 111.703 141.493 109.413Z" fill="#EDF4FF"/>
<path d="M134.005 117.13C134.006 117.123 134.006 117.116 134.005 117.108C134.006 117.105 134.006 117.101 134.005 117.097C134.006 117.095 134.006 117.092 134.005 117.09C134.004 117.083 134.002 117.076 133.998 117.069C133.995 117.063 133.992 117.057 133.988 117.051V117.044C133.761 116.771 133.558 116.48 133.382 116.173C133.377 116.165 133.37 116.158 133.363 116.151L133.357 116.144C133.348 116.137 133.338 116.131 133.327 116.127H133.321C133.311 116.126 133.302 116.126 133.292 116.127H133.279C133.216 116.127 132.927 116.135 132.739 116.137H132.565H132.505C132.232 116.142 131.953 116.134 131.67 116.112C130.519 116.021 129.402 115.691 128.394 115.144C126.802 114.279 125.552 112.923 124.84 111.29C124.715 111 124.608 110.704 124.52 110.402C124.517 110.395 124.513 110.389 124.509 110.383C124.506 110.377 124.502 110.372 124.499 110.367C124.493 110.362 124.488 110.357 124.482 110.353L124.466 110.343L124.446 110.336H124.424H123.296H123.283H123.263H123.255L123.235 110.345L123.218 110.357C123.213 110.361 123.208 110.366 123.204 110.371C123.2 110.376 123.196 110.382 123.192 110.387C123.189 110.393 123.187 110.399 123.185 110.406C123.185 110.413 123.185 110.42 123.185 110.426C123.185 110.429 123.185 110.432 123.185 110.434C123.185 110.439 123.185 110.443 123.185 110.447C123.185 110.447 123.185 110.455 123.185 110.46C123.364 111.146 123.626 111.809 123.964 112.436C124.87 114.104 126.282 115.46 128.008 116.318C128.042 116.872 128.281 117.395 128.682 117.789C129.083 118.184 129.618 118.422 130.186 118.461H130.2C130.214 118.461 130.228 118.458 130.24 118.454L130.253 118.446C130.26 118.442 130.267 118.438 130.273 118.433C130.277 118.429 130.281 118.425 130.284 118.42C130.289 118.415 130.293 118.409 130.297 118.403C130.297 118.398 130.297 118.392 130.297 118.386C130.299 118.38 130.301 118.374 130.303 118.368C130.358 117.946 130.513 117.543 130.755 117.188C131.123 117.247 131.495 117.283 131.869 117.296C131.986 117.296 132.104 117.304 132.232 117.304H132.306C132.731 117.304 133.535 117.273 133.91 117.225H133.918L133.942 117.217L133.956 117.209H133.964C133.964 117.209 133.964 117.203 133.973 117.2C133.978 117.195 133.983 117.189 133.987 117.183C133.994 117.171 133.999 117.159 134.002 117.146L134.005 117.13Z" fill="#EDF4FF"/>
<path d="M126.578 110.383C126.575 110.376 126.57 110.368 126.564 110.362C126.562 110.357 126.559 110.352 126.555 110.348C126.55 110.344 126.545 110.341 126.54 110.338C126.534 110.333 126.527 110.328 126.52 110.325H126.507C126.497 110.324 126.488 110.324 126.479 110.325H125.242L125.284 110.461C125.314 110.556 125.347 110.653 125.381 110.745C125.995 112.44 127.231 113.855 128.852 114.716C130.108 115.309 131.487 115.615 132.884 115.61H132.922C132.95 115.61 132.978 115.599 132.998 115.579C133.018 115.56 133.03 115.533 133.03 115.505V115.461L133.013 115.445C132.901 115.175 132.806 114.898 132.727 114.616C132.727 114.616 132.727 114.611 132.727 114.607C132.728 114.602 132.728 114.596 132.727 114.591C132.724 114.584 132.72 114.578 132.716 114.572L132.705 114.559C132.699 114.554 132.693 114.549 132.686 114.545L132.672 114.537C132.664 114.534 132.656 114.532 132.647 114.53H132.636C132.563 114.53 132.491 114.518 132.419 114.51C131.605 114.433 130.805 114.255 130.038 113.979C128.451 113.269 127.212 111.983 126.587 110.396L126.578 110.383Z" fill="#EDF4FF"/>
<path d="M127.377 110.44C127.376 110.447 127.376 110.454 127.377 110.461C127.837 111.298 128.493 112.018 129.291 112.562C130.09 113.106 131.01 113.46 131.975 113.593H132C132.031 113.593 132.062 113.586 132.09 113.573C132.117 113.56 132.142 113.541 132.161 113.518C132.184 113.491 132.199 113.459 132.205 113.425C132.211 113.391 132.208 113.356 132.197 113.323L131.909 112.501C131.893 112.453 131.863 112.41 131.824 112.375C131.785 112.341 131.738 112.318 131.687 112.306C130.465 112.021 129.384 111.331 128.628 110.354L128.621 110.347C128.616 110.341 128.611 110.336 128.606 110.331L128.588 110.32L128.57 110.313H128.548H127.473C127.465 110.312 127.458 110.312 127.45 110.313H127.43C127.426 110.316 127.422 110.319 127.418 110.322C127.412 110.326 127.405 110.331 127.4 110.336C127.395 110.341 127.391 110.346 127.388 110.352C127.384 110.358 127.38 110.364 127.377 110.37C127.376 110.377 127.376 110.385 127.377 110.392C127.377 110.397 127.377 110.402 127.377 110.407C127.376 110.418 127.376 110.429 127.377 110.44Z" fill="#EDF4FF"/>
</g>
<defs>
<filter id="filter0_d_4429_56277" x="0.959854" y="0.5" width="260.08" height="266.569" filterUnits="userSpaceOnUse" color-interpolation-filters="sRGB">
<feFlood flood-opacity="0" result="BackgroundImageFix"/>
<feColorMatrix in="SourceAlpha" type="matrix" values="0 0 0 0 0 0 0 0 0 0 0 0 0 0 0 0 0 0 127 0" result="hardAlpha"/>
<feOffset dy="25.0292"/>
<feGaussianBlur stdDeviation="9.27007"/>
<feComposite in2="hardAlpha" operator="out"/>
<feColorMatrix type="matrix" values="0 0 0 0 0 0 0 0 0 0 0 0 0 0 0 0 0 0 0.02 0"/>
<feBlend mode="normal" in2="BackgroundImageFix" result="effect1_dropShadow_4429_56277"/>
<feBlend mode="normal" in="SourceGraphic" in2="effect1_dropShadow_4429_56277" result="shape"/>
</filter>
<linearGradient id="paint0_linear_4429_56277" x1="27.0704" y1="0.50001" x2="274.479" y2="170.925" gradientUnits="userSpaceOnUse">
<stop stop-color="#64748B"/>
<stop offset="0.515" stop-color="#64748B" stop-opacity="0"/>
<stop offset="1" stop-color="#64748B" stop-opacity="0.35"/>
</linearGradient>
<linearGradient id="paint1_linear_4429_56277" x1="132.077" y1="92.2383" x2="132.077" y2="127.732" gradientUnits="userSpaceOnUse">
<stop stop-color="#2873FF"/>
<stop offset="1" stop-color="#0B6B96"/>
</linearGradient>
</defs>
</svg>
