<svg xmlns="http://www.w3.org/2000/svg" width="24" height="25" viewBox="0 0 24 25" fill="none">
  <g clip-path="url(#clip0_4469_73337)">
    <path d="M12 2.19922C17.523 2.19922 22 6.67622 22 12.1992C22 17.7222 17.523 22.1992 12 22.1992C6.477 22.1992 2 17.7222 2 12.1992H4C4 16.6172 7.582 20.1992 12 20.1992C16.418 20.1992 20 16.6172 20 12.1992C20 7.78122 16.418 4.19922 12 4.19922C9.25 4.19922 6.824 5.58622 5.385 7.69922H8V9.69922H2V3.69922H4V6.19922C5.824 3.76922 8.729 2.19922 12 2.19922ZM13 7.19922V11.7842L16.243 15.0272L14.828 16.4422L11 12.6122V7.19922H13Z" fill="white"/>
  </g>
  <defs>
    <clipPath id="clip0_4469_73337">
      <rect width="24" height="24" fill="white" transform="translate(0 0.199219)"/>
    </clipPath>
  </defs>
</svg>