<svg width="24" height="25" viewBox="0 0 24 25" fill="none" xmlns="http://www.w3.org/2000/svg">
<path d="M2 9.19922V6.69922C2 4.20922 4.01 2.19922 6.5 2.19922H9" stroke="#2873FF" stroke-width="1.5" stroke-linecap="round" stroke-linejoin="round"/>
<path d="M2 9.19922V6.69922C2 4.20922 4.01 2.19922 6.5 2.19922H9" stroke="url(#paint0_linear_12325_82920)" stroke-width="1.5" stroke-linecap="round" stroke-linejoin="round"/>
<path d="M15 2.19922H17.5C19.99 2.19922 22 4.20922 22 6.69922V9.19922" stroke="#2873FF" stroke-width="1.5" stroke-linecap="round" stroke-linejoin="round"/>
<path d="M15 2.19922H17.5C19.99 2.19922 22 4.20922 22 6.69922V9.19922" stroke="url(#paint1_linear_12325_82920)" stroke-width="1.5" stroke-linecap="round" stroke-linejoin="round"/>
<path d="M22 16.1992V17.6992C22 20.1892 19.99 22.1992 17.5 22.1992H16" stroke="#2873FF" stroke-width="1.5" stroke-linecap="round" stroke-linejoin="round"/>
<path d="M22 16.1992V17.6992C22 20.1892 19.99 22.1992 17.5 22.1992H16" stroke="url(#paint2_linear_12325_82920)" stroke-width="1.5" stroke-linecap="round" stroke-linejoin="round"/>
<path d="M9 22.1992H6.5C4.01 22.1992 2 20.1892 2 17.6992V15.1992" stroke="#2873FF" stroke-width="1.5" stroke-linecap="round" stroke-linejoin="round"/>
<path d="M9 22.1992H6.5C4.01 22.1992 2 20.1892 2 17.6992V15.1992" stroke="url(#paint3_linear_12325_82920)" stroke-width="1.5" stroke-linecap="round" stroke-linejoin="round"/>
<path d="M10.5 7.19922V9.19922C10.5 10.1992 10 10.6992 9 10.6992H7C6 10.6992 5.5 10.1992 5.5 9.19922V7.19922C5.5 6.19922 6 5.69922 7 5.69922H9C10 5.69922 10.5 6.19922 10.5 7.19922Z" stroke="#2873FF" stroke-width="1.5" stroke-linecap="round" stroke-linejoin="round"/>
<path d="M10.5 7.19922V9.19922C10.5 10.1992 10 10.6992 9 10.6992H7C6 10.6992 5.5 10.1992 5.5 9.19922V7.19922C5.5 6.19922 6 5.69922 7 5.69922H9C10 5.69922 10.5 6.19922 10.5 7.19922Z" stroke="url(#paint4_linear_12325_82920)" stroke-width="1.5" stroke-linecap="round" stroke-linejoin="round"/>
<path d="M18.5 7.19922V9.19922C18.5 10.1992 18 10.6992 17 10.6992H15C14 10.6992 13.5 10.1992 13.5 9.19922V7.19922C13.5 6.19922 14 5.69922 15 5.69922H17C18 5.69922 18.5 6.19922 18.5 7.19922Z" stroke="#2873FF" stroke-width="1.5" stroke-linecap="round" stroke-linejoin="round"/>
<path d="M18.5 7.19922V9.19922C18.5 10.1992 18 10.6992 17 10.6992H15C14 10.6992 13.5 10.1992 13.5 9.19922V7.19922C13.5 6.19922 14 5.69922 15 5.69922H17C18 5.69922 18.5 6.19922 18.5 7.19922Z" stroke="url(#paint5_linear_12325_82920)" stroke-width="1.5" stroke-linecap="round" stroke-linejoin="round"/>
<path d="M10.5 15.1992V17.1992C10.5 18.1992 10 18.6992 9 18.6992H7C6 18.6992 5.5 18.1992 5.5 17.1992V15.1992C5.5 14.1992 6 13.6992 7 13.6992H9C10 13.6992 10.5 14.1992 10.5 15.1992Z" stroke="#2873FF" stroke-width="1.5" stroke-linecap="round" stroke-linejoin="round"/>
<path d="M10.5 15.1992V17.1992C10.5 18.1992 10 18.6992 9 18.6992H7C6 18.6992 5.5 18.1992 5.5 17.1992V15.1992C5.5 14.1992 6 13.6992 7 13.6992H9C10 13.6992 10.5 14.1992 10.5 15.1992Z" stroke="url(#paint6_linear_12325_82920)" stroke-width="1.5" stroke-linecap="round" stroke-linejoin="round"/>
<path d="M18.5 15.1992V17.1992C18.5 18.1992 18 18.6992 17 18.6992H15C14 18.6992 13.5 18.1992 13.5 17.1992V15.1992C13.5 14.1992 14 13.6992 15 13.6992H17C18 13.6992 18.5 14.1992 18.5 15.1992Z" stroke="#2873FF" stroke-width="1.5" stroke-linecap="round" stroke-linejoin="round"/>
<path d="M18.5 15.1992V17.1992C18.5 18.1992 18 18.6992 17 18.6992H15C14 18.6992 13.5 18.1992 13.5 17.1992V15.1992C13.5 14.1992 14 13.6992 15 13.6992H17C18 13.6992 18.5 14.1992 18.5 15.1992Z" stroke="url(#paint7_linear_12325_82920)" stroke-width="1.5" stroke-linecap="round" stroke-linejoin="round"/>
<defs>
<linearGradient id="paint0_linear_12325_82920" x1="5.5" y1="2.19922" x2="5.5" y2="9.19922" gradientUnits="userSpaceOnUse">
<stop stop-color="#2873FF"/>
<stop offset="1" stop-color="#0B6B96"/>
</linearGradient>
<linearGradient id="paint1_linear_12325_82920" x1="18.5" y1="2.19922" x2="18.5" y2="9.19922" gradientUnits="userSpaceOnUse">
<stop stop-color="#2873FF"/>
<stop offset="1" stop-color="#0B6B96"/>
</linearGradient>
<linearGradient id="paint2_linear_12325_82920" x1="19" y1="16.1992" x2="19" y2="22.1992" gradientUnits="userSpaceOnUse">
<stop stop-color="#2873FF"/>
<stop offset="1" stop-color="#0B6B96"/>
</linearGradient>
<linearGradient id="paint3_linear_12325_82920" x1="5.5" y1="15.1992" x2="5.5" y2="22.1992" gradientUnits="userSpaceOnUse">
<stop stop-color="#2873FF"/>
<stop offset="1" stop-color="#0B6B96"/>
</linearGradient>
<linearGradient id="paint4_linear_12325_82920" x1="8" y1="5.69922" x2="8" y2="10.6992" gradientUnits="userSpaceOnUse">
<stop stop-color="#2873FF"/>
<stop offset="1" stop-color="#0B6B96"/>
</linearGradient>
<linearGradient id="paint5_linear_12325_82920" x1="16" y1="5.69922" x2="16" y2="10.6992" gradientUnits="userSpaceOnUse">
<stop stop-color="#2873FF"/>
<stop offset="1" stop-color="#0B6B96"/>
</linearGradient>
<linearGradient id="paint6_linear_12325_82920" x1="8" y1="13.6992" x2="8" y2="18.6992" gradientUnits="userSpaceOnUse">
<stop stop-color="#2873FF"/>
<stop offset="1" stop-color="#0B6B96"/>
</linearGradient>
<linearGradient id="paint7_linear_12325_82920" x1="16" y1="13.6992" x2="16" y2="18.6992" gradientUnits="userSpaceOnUse">
<stop stop-color="#2873FF"/>
<stop offset="1" stop-color="#0B6B96"/>
</linearGradient>
</defs>
</svg>
