<svg width="24" height="25" viewBox="0 0 24 25" fill="none" xmlns="http://www.w3.org/2000/svg">
<path d="M12 15.1992C13.6569 15.1992 15 13.8561 15 12.1992C15 10.5424 13.6569 9.19922 12 9.19922C10.3431 9.19922 9 10.5424 9 12.1992C9 13.8561 10.3431 15.1992 12 15.1992Z" stroke="#969696" stroke-width="1.5" stroke-miterlimit="10" stroke-linecap="round" stroke-linejoin="round"/>
<path d="M2 13.0787V11.3187C2 10.2787 2.85 9.41867 3.9 9.41867C5.71 9.41867 6.45 8.13867 5.54 6.56867C5.02 5.66867 5.33 4.49867 6.24 3.97867L7.97 2.98867C8.76 2.51867 9.78 2.79867 10.25 3.58867L10.36 3.77867C11.26 5.34867 12.74 5.34867 13.65 3.77867L13.76 3.58867C14.23 2.79867 15.25 2.51867 16.04 2.98867L17.77 3.97867C18.68 4.49867 18.99 5.66867 18.47 6.56867C17.56 8.13867 18.3 9.41867 20.11 9.41867C21.15 9.41867 22.01 10.2687 22.01 11.3187V13.0787C22.01 14.1187 21.16 14.9787 20.11 14.9787C18.3 14.9787 17.56 16.2587 18.47 17.8287C18.99 18.7387 18.68 19.8987 17.77 20.4187L16.04 21.4087C15.25 21.8787 14.23 21.5987 13.76 20.8087L13.65 20.6187C12.75 19.0487 11.27 19.0487 10.36 20.6187L10.25 20.8087C9.78 21.5987 8.76 21.8787 7.97 21.4087L6.24 20.4187C5.33 19.8987 5.02 18.7287 5.54 17.8287C6.45 16.2587 5.71 14.9787 3.9 14.9787C2.85 14.9787 2 14.1187 2 13.0787Z" stroke="#969696" stroke-width="1.5" stroke-miterlimit="10" stroke-linecap="round" stroke-linejoin="round"/>
</svg>
