<svg xmlns="http://www.w3.org/2000/svg" width="24" height="25" viewBox="0 0 24 25" fill="none">
  <path d="M12 15.2002C13.6569 15.2002 15 13.857 15 12.2002C15 10.5433 13.6569 9.2002 12 9.2002C10.3431 9.2002 9 10.5433 9 12.2002C9 13.857 10.3431 15.2002 12 15.2002Z" stroke="#8E9BAE" stroke-width="1.5" stroke-miterlimit="10" stroke-linecap="round" stroke-linejoin="round"/>
  <path d="M2 13.0806V11.3206C2 10.2806 2.85 9.42062 3.9 9.42062C5.71 9.42062 6.45 8.14062 5.54 6.57062C5.02 5.67062 5.33 4.50062 6.24 3.98062L7.97 2.99062C8.76 2.52062 9.78 2.80062 10.25 3.59062L10.36 3.78062C11.26 5.35062 12.74 5.35062 13.65 3.78062L13.76 3.59062C14.23 2.80062 15.25 2.52062 16.04 2.99062L17.77 3.98062C18.68 4.50062 18.99 5.67062 18.47 6.57062C17.56 8.14062 18.3 9.42062 20.11 9.42062C21.15 9.42062 22.01 10.2706 22.01 11.3206V13.0806C22.01 14.1206 21.16 14.9806 20.11 14.9806C18.3 14.9806 17.56 16.2606 18.47 17.8306C18.99 18.7406 18.68 19.9006 17.77 20.4206L16.04 21.4106C15.25 21.8806 14.23 21.6006 13.76 20.8106L13.65 20.6206C12.75 19.0506 11.27 19.0506 10.36 20.6206L10.25 20.8106C9.78 21.6006 8.76 21.8806 7.97 21.4106L6.24 20.4206C5.33 19.9006 5.02 18.7306 5.54 17.8306C6.45 16.2606 5.71 14.9806 3.9 14.9806C2.85 14.9806 2 14.1206 2 13.0806Z" stroke="#8E9BAE" stroke-width="1.5" stroke-miterlimit="10" stroke-linecap="round" stroke-linejoin="round"/>
</svg>