<svg width="16" height="16" viewBox="0 0 16 16" fill="none" xmlns="http://www.w3.org/2000/svg">
<path d="M6.99332 1.48703L3.66665 2.74036C2.89998 3.02703 2.27332 3.9337 2.27332 4.74703V9.70036C2.27332 10.487 2.79332 11.5204 3.42665 11.9937L6.29332 14.1337C7.23332 14.8404 8.77998 14.8404 9.71998 14.1337L12.5866 11.9937C13.22 11.5204 13.74 10.487 13.74 9.70036V4.74703C13.74 3.92703 13.1133 3.02036 12.3466 2.7337L9.01998 1.48703C8.45332 1.28036 7.54665 1.28036 6.99332 1.48703Z" stroke="#2873FF" stroke-width="1.5" stroke-linecap="round" stroke-linejoin="round"/>
<path d="M6.99332 1.48703L3.66665 2.74036C2.89998 3.02703 2.27332 3.9337 2.27332 4.74703V9.70036C2.27332 10.487 2.79332 11.5204 3.42665 11.9937L6.29332 14.1337C7.23332 14.8404 8.77998 14.8404 9.71998 14.1337L12.5866 11.9937C13.22 11.5204 13.74 10.487 13.74 9.70036V4.74703C13.74 3.92703 13.1133 3.02036 12.3466 2.7337L9.01998 1.48703C8.45332 1.28036 7.54665 1.28036 6.99332 1.48703Z" stroke="url(#paint0_linear_3874_64648)" stroke-width="1.5" stroke-linecap="round" stroke-linejoin="round"/>
<defs>
<linearGradient id="paint0_linear_3874_64648" x1="8.00665" y1="1.33203" x2="8.00665" y2="14.6637" gradientUnits="userSpaceOnUse">
<stop stop-color="#2873FF"/>
<stop offset="1" stop-color="#0B6B96"/>
</linearGradient>
</defs>
</svg>
