<svg width="21" height="21" viewBox="0 0 21 21" fill="none" xmlns="http://www.w3.org/2000/svg">
<path fill-rule="evenodd" clip-rule="evenodd" d="M10.6097 2.3759C10.2837 2.04983 9.75502 2.04983 9.42896 2.3759C8.75314 3.05171 7.78185 3.45347 6.77178 3.6619C5.76753 3.86913 4.8122 3.86691 4.26699 3.80633C4.03095 3.7801 3.79491 3.85564 3.61794 4.01403C3.44098 4.17242 3.33984 4.39867 3.33984 4.63616V12.1506C3.33984 13.2357 3.81421 14.195 4.42894 14.9854C5.04476 15.7772 5.84532 16.4572 6.61177 17.0047C7.38271 17.5554 8.14852 17.9925 8.71872 18.2912C9.00482 18.4411 9.24414 18.5574 9.41344 18.6368C9.49815 18.6766 9.5655 18.7072 9.61259 18.7283L9.66774 18.7527L9.68328 18.7595L9.68793 18.7615L9.69002 18.7624C9.90005 18.8524 10.1382 18.8526 10.3482 18.7626L10.0193 17.9952C10.3482 18.7626 10.349 18.7623 10.3492 18.7622L10.3508 18.7615L10.3554 18.7595L10.371 18.7527L10.4261 18.7283C10.4732 18.7072 10.5405 18.6766 10.6253 18.6368C10.7946 18.5574 11.0339 18.4411 11.32 18.2912C11.8902 17.9925 12.656 17.5554 13.4269 17.0047C14.1934 16.4572 14.9939 15.7772 15.6098 14.9854C16.2245 14.195 16.6989 13.2357 16.6989 12.1506V4.63616C16.6989 4.39867 16.5977 4.17242 16.4208 4.01403C16.2438 3.85564 16.0078 3.7801 15.7717 3.80633C15.2265 3.86691 14.2712 3.86913 13.2669 3.6619C12.2568 3.45347 11.2856 3.05171 10.6097 2.3759ZM10.0193 17.9952L9.69002 18.7624C9.69025 18.7625 9.69045 18.7626 10.0193 17.9952Z" fill="#2873FF"/>
</svg>
