<svg xmlns="http://www.w3.org/2000/svg" width="20" height="21" viewBox="0 0 20 21" fill="none">
  <path d="M14.1667 3.4165H5.83342C3.33341 3.4165 1.66675 4.6665 1.66675 7.58317V13.4165C1.66675 16.3332 3.33341 17.5832 5.83342 17.5832H14.1667C16.6667 17.5832 18.3334 16.3332 18.3334 13.4165V7.58317C18.3334 4.6665 16.6667 3.4165 14.1667 3.4165ZM14.5584 8.4915L11.9501 10.5748C11.4001 11.0165 10.7001 11.2332 10.0001 11.2332C9.30008 11.2332 8.59175 11.0165 8.05008 10.5748L5.44175 8.4915C5.17508 8.27484 5.13341 7.87484 5.34175 7.60817C5.55841 7.3415 5.95008 7.2915 6.21675 7.50817L8.82508 9.5915C9.45842 10.0998 10.5334 10.0998 11.1667 9.5915L13.7751 7.50817C14.0417 7.2915 14.4417 7.33317 14.6501 7.60817C14.8667 7.87484 14.8251 8.27484 14.5584 8.4915Z" fill="#D8D8D8"/>
</svg>
