<svg width="24" height="25" viewBox="0 0 24 25" fill="none" xmlns="http://www.w3.org/2000/svg">
<g clip-path="url(#clip0_4140_73989)">
<path fill-rule="evenodd" clip-rule="evenodd" d="M12 0.259766C5.3724 0.259766 0 5.64057 0 12.2802C0 17.5902 3.438 22.0962 8.2068 23.685C8.8068 23.7954 9.0252 23.4246 9.0252 23.1054C9.0252 22.821 9.0156 22.0638 9.0096 21.0618C5.6712 21.7878 4.9668 19.4502 4.9668 19.4502C4.422 18.0606 3.6348 17.691 3.6348 17.691C2.5452 16.947 3.7176 16.9614 3.7176 16.9614C4.9212 17.0454 5.5548 18.1998 5.5548 18.1998C6.6252 20.0358 8.364 19.5054 9.0468 19.1982C9.1572 18.4218 9.4668 17.8926 9.81 17.5926C7.146 17.289 4.344 16.257 4.344 11.6514C4.344 10.3398 4.812 9.26577 5.5788 8.42577C5.4552 8.12217 5.0436 6.89937 5.6964 5.24577C5.6964 5.24577 6.7044 4.92177 8.9964 6.47697C9.97532 6.20998 10.9853 6.074 12 6.07257C13.02 6.07736 14.046 6.21057 15.0048 6.47697C17.2956 4.92177 18.3012 5.24457 18.3012 5.24457C18.9564 6.89936 18.5436 8.12217 18.4212 8.42577C19.1892 9.26577 19.6548 10.3398 19.6548 11.6514C19.6548 16.269 16.848 17.2854 14.1756 17.583C14.6064 17.9538 14.9892 18.687 14.9892 19.809C14.9892 21.4146 14.9748 22.7118 14.9748 23.1054C14.9748 23.427 15.1908 23.8014 15.8004 23.6838C18.19 22.8823 20.2672 21.3501 21.7386 19.3038C23.2099 17.2575 24.001 14.8005 24 12.2802C24 5.64057 18.6264 0.259766 12 0.259766Z" fill="#8E9BAE"/>
</g>
<defs>
<clipPath id="clip0_4140_73989">
<rect width="24" height="24" fill="white" transform="translate(0 0.259766)"/>
</clipPath>
</defs>
</svg>
