<svg width="24" height="25" viewBox="0 0 24 25" fill="none" xmlns="http://www.w3.org/2000/svg">
<g clip-path="url(#clip0_4140_73988)">
<path d="M24 12.2598C24 5.63234 18.6274 0.259766 12 0.259766C5.37258 0.259766 0 5.63234 0 12.2598C0 18.2492 4.3882 23.2138 10.125 24.114V15.7285H7.07812V12.2598H10.125V9.61602C10.125 6.60852 11.9166 4.94727 14.6576 4.94727C15.9701 4.94727 17.3438 5.18164 17.3438 5.18164V8.13477H15.8306C14.34 8.13477 13.875 9.05984 13.875 10.0098V12.2598H17.2031L16.6711 15.7285H13.875V24.114C19.6118 23.2138 24 18.2492 24 12.2598Z" fill="#8E9BAE"/>
</g>
<defs>
<clipPath id="clip0_4140_73988">
<rect width="24" height="24" fill="white" transform="translate(0 0.259766)"/>
</clipPath>
</defs>
</svg>
