<svg width="24" height="25" viewBox="0 0 24 25" fill="none" xmlns="http://www.w3.org/2000/svg">
<g clip-path="url(#clip0_4140_73987)">
<path d="M22.2234 0.259766H1.77187C0.792187 0.259766 0 1.0332 0 1.98945V22.5254C0 23.4816 0.792187 24.2598 1.77187 24.2598H22.2234C23.2031 24.2598 24 23.4816 24 22.5301V1.98945C24 1.0332 23.2031 0.259766 22.2234 0.259766ZM7.12031 20.7113H3.55781V9.25508H7.12031V20.7113ZM5.33906 7.69414C4.19531 7.69414 3.27188 6.7707 3.27188 5.63164C3.27188 4.49258 4.19531 3.56914 5.33906 3.56914C6.47813 3.56914 7.40156 4.49258 7.40156 5.63164C7.40156 6.76602 6.47813 7.69414 5.33906 7.69414ZM20.4516 20.7113H16.8937V15.1426C16.8937 13.816 16.8703 12.1051 15.0422 12.1051C13.1906 12.1051 12.9094 13.5535 12.9094 15.0488V20.7113H9.35625V9.25508H12.7687V10.8207H12.8156C13.2891 9.9207 14.4516 8.96914 16.1813 8.96914C19.7859 8.96914 20.4516 11.341 20.4516 14.4254V20.7113Z" fill="#8E9BAE"/>
</g>
<defs>
<clipPath id="clip0_4140_73987">
<rect width="24" height="24" fill="white" transform="translate(0 0.259766)"/>
</clipPath>
</defs>
</svg>
