<svg width="24" height="25" viewBox="0 0 24 25" fill="none" xmlns="http://www.w3.org/2000/svg">
<path fill-rule="evenodd" clip-rule="evenodd" d="M12 0.259766C5.37527 0.259766 0 5.63504 0 12.2598C0 18.8845 5.37527 24.2598 12 24.2598C18.6117 24.2598 24 18.8845 24 12.2598C24 5.63504 18.6117 0.259766 12 0.259766ZM19.9262 5.79122C21.3579 7.53525 22.217 9.76084 22.243 12.1686C21.9046 12.1036 18.5206 11.4138 15.1106 11.8433C15.0325 11.6741 14.9675 11.4918 14.8894 11.3097C14.6811 10.8151 14.4469 10.3075 14.2126 9.82594C17.9869 8.29017 19.705 6.07755 19.9262 5.79122ZM12 2.02983C14.603 2.02983 16.9848 3.00597 18.7939 4.60684C18.6117 4.86714 17.0629 6.93656 13.4186 8.30314C11.7397 5.21855 9.87855 2.69361 9.5922 2.30315C10.3601 2.12094 11.1671 2.02983 12 2.02983ZM7.63995 2.99295C7.91325 3.35738 9.73538 5.89534 11.4404 8.91484C6.65076 10.1904 2.42083 10.1643 1.96529 10.1643C2.62907 6.98862 4.77657 4.34653 7.63995 2.99295ZM1.74404 12.2728C1.74404 12.1686 1.74404 12.0645 1.74404 11.9604C2.18655 11.9734 7.15835 12.0385 12.2733 10.5027C12.5727 11.0754 12.846 11.661 13.1063 12.2467C12.9761 12.2858 12.8329 12.3249 12.7028 12.3639C7.41865 14.0688 4.60738 18.7283 4.3731 19.1187C2.7462 17.3097 1.74404 14.9019 1.74404 12.2728ZM12 22.5157C9.6312 22.5157 7.44469 21.7088 5.71367 20.3552C5.89588 19.9778 7.97827 15.9691 13.757 13.9518C13.783 13.9387 13.7961 13.9387 13.8221 13.9257C15.2668 17.661 15.8525 20.7977 16.0087 21.6957C14.7722 22.2294 13.4186 22.5157 12 22.5157ZM17.7136 20.7587C17.6096 20.1339 17.0629 17.1405 15.7223 13.4571C18.9371 12.9495 21.7484 13.7826 22.0998 13.8997C21.6573 16.75 20.0173 19.2099 17.7136 20.7587Z" fill="#8E9BAE"/>
</svg>
