<svg width="24" height="25" viewBox="0 0 24 25" fill="none" xmlns="http://www.w3.org/2000/svg">
<g clip-path="url(#clip0_4140_73990)">
<path d="M17.7703 10.3566C18.3187 8.82852 19.8984 4.4082 19.8984 2.99258C19.8984 1.7457 19.1625 0.700391 17.85 0.700391C15.7593 0.700391 13.8843 6.87383 13.2984 8.3457C12.8437 7.00977 10.7156 0.259766 8.84058 0.259766C7.38277 0.259766 6.69839 1.3332 6.69839 2.6832C6.69839 4.33789 8.30152 8.62695 8.88277 10.277C8.58746 10.1691 8.26871 10.0754 7.94527 10.0754C6.84839 10.0754 5.68121 11.4395 5.68121 12.541C5.68121 12.9582 5.91089 13.5441 6.05621 13.9332C4.32652 14.402 3.66089 15.5551 3.66089 17.2941C3.65621 20.6785 6.86246 24.2598 11.3718 24.2598C16.9031 24.2598 20.3437 20.1066 20.3437 14.7488C20.3437 12.7285 20.0203 10.9051 17.7703 10.3566ZM16.1109 5.32227C16.2984 4.7457 17.1 2.3082 17.85 2.3082C18.2531 2.3082 18.3609 2.72539 18.3609 3.0582C18.3609 3.95352 16.5515 8.89883 16.1531 9.9957L14.5593 9.71445L16.1109 5.32227ZM8.17027 2.52383C8.17027 1.96602 8.84996 0.381641 10.3406 4.73164L11.9625 9.4332C11.2312 9.37227 10.664 9.29258 10.3031 9.49883C9.79214 8.14883 8.17027 3.88789 8.17027 2.52383ZM8.06246 11.6973C9.43589 11.6973 11.2078 16.1316 11.2078 16.7316C11.2078 16.9707 10.9781 17.266 10.7109 17.266C9.73121 17.266 7.10621 13.6613 7.10621 12.6863C7.11089 12.3254 7.70152 11.6973 8.06246 11.6973ZM16.7015 20.4301C15.3375 21.9301 13.5937 22.7082 11.5593 22.7082C8.77496 22.7082 6.57652 21.1801 5.51714 18.5691C4.71558 16.5348 5.69527 15.3676 6.48277 15.3676C7.01714 15.3676 9.02808 18.1941 9.02808 18.7941C9.02808 19.0238 8.66714 19.1832 8.47964 19.1832C7.72496 19.1832 7.42964 18.4566 6.08433 16.7738C4.69214 18.166 7.04527 20.8473 8.81714 20.8473C10.0406 20.8473 10.8375 19.7129 10.5984 18.8785C10.7718 18.8785 10.9875 18.8926 11.1468 18.8504C11.1984 20.1207 11.5734 21.6348 13.1015 21.7426C13.1015 21.7004 13.1953 21.4098 13.1953 21.3957C13.1953 20.5801 12.6984 19.8676 12.6984 19.0379C12.6984 17.7113 13.7156 16.427 14.7468 15.677C15.1218 15.3957 15.5765 15.2223 16.0171 15.0629C16.4718 14.8895 16.9546 14.6879 17.3015 14.341C17.25 13.816 17.0343 13.352 16.5093 13.352C15.2109 13.352 10.8562 13.5395 10.8562 11.491C10.8562 11.177 10.8609 10.877 11.6718 10.877C13.1859 10.877 17.0296 11.252 18.1546 12.241C19.0031 12.9957 19.2937 17.5473 16.7015 20.4301ZM12.0796 14.5238C12.5343 14.6691 13.0031 14.7113 13.4718 14.8051C13.125 15.0582 12.8156 15.3676 12.5203 15.7004C12.389 15.302 12.2296 14.9129 12.0796 14.5238Z" fill="#8E9BAE"/>
</g>
<defs>
<clipPath id="clip0_4140_73990">
<rect width="24" height="24" fill="white" transform="translate(0 0.259766)"/>
</clipPath>
</defs>
</svg>
