<svg width="80" height="81" viewBox="0 0 80 81" fill="none" xmlns="http://www.w3.org/2000/svg">
<path d="M60 7.4668H20C14.4667 7.4668 10 11.9001 10 17.3668V53.7335C10 59.2001 14.4667 63.6668 20 63.6668H22.5333C25.1667 63.6668 27.7333 64.7001 29.6 66.5668L35.3 72.2001C37.9 74.7668 42.1 74.7668 44.7 72.2001L50.4 66.5668C52.2667 64.7001 54.8333 63.6668 57.4667 63.6668H60C65.5333 63.6668 70 59.2001 70 53.7335V17.3668C70 11.9001 65.5333 7.4668 60 7.4668ZM40 19.3001C43.6 19.3001 46.5 22.2335 46.5 25.8001C46.5 29.3335 43.7 32.1668 40.2333 32.3001C40.1 32.3001 39.9 32.3001 39.7333 32.3001C36.2333 32.1668 33.4667 29.3335 33.4667 25.8001C33.5 22.2335 36.4 19.3001 40 19.3001ZM49.1667 49.7668C44.1333 53.1335 35.8667 53.1335 30.8333 49.7668C26.4 46.8335 26.4 41.9668 30.8333 39.0001C35.9 35.6335 44.1667 35.6335 49.1667 39.0001C53.6 41.9668 53.6 46.8001 49.1667 49.7668Z" fill="url(#paint0_linear_12325_82421)"/>
<defs>
<linearGradient id="paint0_linear_12325_82421" x1="77.0522" y1="40.796" x2="-1.97761" y2="40.796" gradientUnits="userSpaceOnUse">
<stop stop-color="#1DA1DB"/>
<stop offset="1" stop-color="#2873FF"/>
</linearGradient>
</defs>
</svg>
