<svg width="24" height="25" viewBox="0 0 24 25" fill="none" xmlns="http://www.w3.org/2000/svg">
<g clip-path="url(#clip0_2362_35708)">
<path d="M4.75 13.1436C6.1336 12.2631 7.13985 11.6342 8.20899 11.0053C10.7246 9.6217 13.1774 8.23811 15.6301 6.72874C16.5735 6.16272 16.825 6.28849 16.825 7.42052C16.7621 8.2381 16.6363 8.9928 16.5106 9.81038C16.1332 12.1373 15.693 14.4643 15.3156 16.7912C15.1899 17.483 14.9383 17.6717 14.3094 17.2944C13.9949 17.1057 13.6805 17.0428 13.366 16.917C11.7309 16.2252 11.5422 16.2252 10.3473 17.5459C10.0957 17.7975 10.0328 18.1748 9.5297 18.2377C9.34102 17.0428 9.08946 15.9737 9.96993 14.9045C10.8504 13.7725 11.668 12.7033 12.6113 11.5713C12.8629 11.2569 13.0516 10.9424 13.1774 10.5651C11.7309 11.5084 10.2844 12.5147 9.08946 13.7725C8.64923 14.2756 8.27188 14.3385 7.64298 14.0869C6.8254 13.7725 5.94492 13.5209 4.75 13.1436Z" fill="#969696"/>
<path fill-rule="evenodd" clip-rule="evenodd" d="M12 23.4004C18.0751 23.4004 23 18.4755 23 12.4004C23 6.32526 18.0751 1.40039 12 1.40039C5.92487 1.40039 1 6.32526 1 12.4004C1 18.4755 5.92487 23.4004 12 23.4004ZM12 24.4004C18.6274 24.4004 24 19.0278 24 12.4004C24 5.77297 18.6274 0.400391 12 0.400391C5.37258 0.400391 0 5.77297 0 12.4004C0 19.0278 5.37258 24.4004 12 24.4004Z" fill="#969696"/>
</g>
<defs>
<clipPath id="clip0_2362_35708">
<rect width="24" height="24" fill="white" transform="translate(0 0.400391)"/>
</clipPath>
</defs>
</svg>
