<svg width="99" height="99" viewBox="0 0 99 99" fill="none" xmlns="http://www.w3.org/2000/svg">
<rect x="0.0878906" y="0.427734" width="98.012" height="98.012" rx="49.006" fill="white" fill-opacity="0.1"/>
<rect x="0.546569" y="0.886413" width="97.0946" height="97.0946" rx="48.5473" stroke="url(#paint0_linear_7408_55682)" stroke-opacity="0.5" stroke-width="0.917357"/>
<rect x="22.3633" y="22.7031" width="53.4611" height="53.4611" rx="26.7306" fill="black"/>
<path d="M35.5945 37.7743C35.8158 37.4957 36.0503 37.2287 36.2849 36.9604C36.2955 36.9475 36.3193 36.9449 36.3299 36.9319C36.3511 36.906 36.3856 36.8892 36.4068 36.8632L36.428 36.8373C36.591 36.6857 36.7646 36.5211 36.966 36.3772C37.6351 35.8572 38.3854 35.4459 39.1882 35.159C41.6793 34.2855 44.4514 34.8246 46.6259 36.8775C49.6604 39.7222 49.3887 44.3075 46.9664 47.3544C43.9028 51.8956 38.6409 58.2331 45.9276 63.9096C47.2381 64.9308 48.2094 65.7719 52.3357 66.9642C49.6378 67.4619 47.1347 67.3077 44.3494 66.5962C42.379 65.4829 39.2809 63.1021 38.2275 59.8855C36.6334 55.0086 41.0314 47.7173 43.1568 44.9101C46.0747 41.0221 41.3534 36.8166 37.8776 41.5133C36.0596 43.9602 32.882 50.8873 33.9858 56.0247C34.6312 58.9381 35.4925 61.0622 38.9059 63.9795C38.2619 63.5983 37.646 63.1735 37.0627 62.7082C29.1307 55.3209 30.0516 43.898 35.5945 37.7743Z" fill="url(#paint1_linear_7408_55682)"/>
<path d="M62.5951 61.0936C62.3738 61.3723 62.1393 61.6392 61.9047 61.9075C61.8941 61.9205 61.8703 61.9231 61.8597 61.936C61.8385 61.962 61.804 61.9788 61.7828 62.0047L61.7616 62.0306C61.5986 62.1823 61.425 62.3469 61.2236 62.4907C60.5545 63.0107 59.8042 63.4221 59.0014 63.709C56.5103 64.5825 53.7382 64.0433 51.5637 61.9905C48.5292 59.1457 48.8009 54.5605 51.2231 51.5136C54.2854 46.9724 59.5487 40.6349 52.262 34.9584C50.9515 33.9372 49.9802 33.096 45.8525 31.9037C48.5518 31.4061 51.0549 31.5603 53.8402 32.2718C55.8106 33.3851 58.9087 35.7658 59.9621 38.9825C61.5562 43.8594 57.1582 51.1507 55.0328 53.9578C52.1149 57.8458 56.8362 62.0514 60.3119 57.3547C62.13 54.9078 65.3075 47.9807 64.2037 42.8433C63.5571 39.9299 62.6971 37.8057 59.2837 34.8884C59.9157 35.2617 60.5306 35.6855 61.1269 36.1598C69.0576 43.547 68.1379 54.97 62.5951 61.0936Z" fill="url(#paint2_linear_7408_55682)"/>
<defs>
<linearGradient id="paint0_linear_7408_55682" x1="49.0939" y1="0.427734" x2="49.0939" y2="98.4397" gradientUnits="userSpaceOnUse">
<stop stop-color="white"/>
<stop offset="0.485" stop-color="white" stop-opacity="0"/>
<stop offset="0.99" stop-color="white" stop-opacity="0.31"/>
</linearGradient>
<linearGradient id="paint1_linear_7408_55682" x1="31.2734" y1="49.4345" x2="66.9144" y2="49.4345" gradientUnits="userSpaceOnUse">
<stop stop-color="#0082FA"/>
<stop offset="1" stop-color="#00F2FE"/>
</linearGradient>
<linearGradient id="paint2_linear_7408_55682" x1="31.2752" y1="49.4335" x2="66.9162" y2="49.4335" gradientUnits="userSpaceOnUse">
<stop stop-color="#0082FA"/>
<stop offset="1" stop-color="#00F2FE"/>
</linearGradient>
</defs>
</svg>
