<svg xmlns="http://www.w3.org/2000/svg" width="32" height="32" viewBox="0 0 32 32" fill="none">
  <g clip-path="url(#clip0_4469_72227)">
    <path d="M16 32C24.8366 32 32 24.8366 32 16C32 7.16344 24.8366 0 16 0C7.16344 0 0 7.16344 0 16C0 24.8366 7.16344 32 16 32Z" fill="#26A17B"/>
    <path fill-rule="evenodd" clip-rule="evenodd" d="M17.922 17.3843V17.3823C17.812 17.3903 17.245 17.4243 15.98 17.4243C14.97 17.4243 14.259 17.3943 14.009 17.3823V17.3853C10.121 17.2143 7.219 16.5373 7.219 15.7273C7.219 14.9183 10.121 14.2413 14.009 14.0673V16.7113C14.263 16.7293 14.991 16.7723 15.997 16.7723C17.204 16.7723 17.809 16.7223 17.922 16.7123V14.0693C21.802 14.2423 24.697 14.9193 24.697 15.7273C24.697 16.5373 21.802 17.2123 17.922 17.3843ZM17.922 13.7943V11.4283H23.336V7.82031H8.595V11.4283H14.009V13.7933C9.609 13.9953 6.3 14.8673 6.3 15.9113C6.3 16.9553 9.609 17.8263 14.009 18.0293V25.6113H17.922V18.0273C22.315 17.8253 25.616 16.9543 25.616 15.9113C25.616 14.8683 22.315 13.9973 17.922 13.7943Z" fill="white"/>
  </g>
  <defs>
    <clipPath id="clip0_4469_72227">
      <rect width="32" height="32" fill="white"/>
    </clipPath>
  </defs>
</svg>