<svg width="51" height="50" viewBox="0 0 51 50" fill="none" xmlns="http://www.w3.org/2000/svg">
<rect x="0.318359" width="50" height="50" rx="15" fill="#F8FAFC"/>
<rect x="13.3184" y="13" width="24" height="24" rx="12" fill="#50AF95"/>
<path d="M25.3772 18.075C27.2336 18.075 29.0156 18.075 30.872 18.075C31.0205 18.075 31.0947 18.1502 31.0947 18.2254C32.1343 20.5568 33.1738 22.8129 34.2876 25.0691C34.3619 25.1443 34.2876 25.2195 34.2134 25.2947C32.951 26.5732 31.6887 27.8517 30.3522 29.1302C28.7186 30.7095 27.0108 32.3641 25.3772 33.9434C25.2287 34.0186 25.2287 34.0186 25.1545 33.9434C23.5209 32.3641 21.8873 30.7847 20.2538 29.1302C18.9915 27.8517 17.6549 26.5732 16.3926 25.2947C16.3184 25.2195 16.3184 25.1443 16.3184 25.0691C16.8381 23.8658 17.4322 22.7377 17.9519 21.5345C18.4717 20.4064 18.9915 19.3535 19.5112 18.2254C19.5855 18.075 19.6597 17.9998 19.8825 17.9998C21.7388 18.075 23.5209 17.9998 25.3772 18.075ZM25.4515 20.1055C24.1149 20.1055 22.7041 20.1055 21.3676 20.1055C21.2933 20.1055 21.2933 20.1055 21.2191 20.1055C21.1448 20.1055 21.1448 20.1055 21.1448 20.1807C21.1448 20.8576 21.1448 21.5345 21.0706 22.2865C21.0706 22.3617 21.0706 22.3617 21.1448 22.3617C21.3676 22.3617 21.5903 22.3617 21.8131 22.3617C22.5556 22.3617 23.2981 22.3617 24.0407 22.3617C24.1149 22.3617 24.1149 22.3617 24.1892 22.3617C24.2634 22.3617 24.2634 22.4369 24.2634 22.5121C24.2634 22.8129 24.2634 23.189 24.2634 23.4898C24.2634 23.565 24.2634 23.565 24.1892 23.6402C23.6694 23.7154 23.1496 23.7154 22.6299 23.7906C21.9616 23.8658 21.2933 24.0162 20.6993 24.2419C20.4023 24.3171 20.1795 24.4675 19.9568 24.6179C19.734 24.8435 19.734 25.1443 19.9568 25.2947C20.1053 25.4451 20.2538 25.5204 20.4023 25.5956C20.922 25.8212 21.4418 25.8964 21.9616 26.0468C22.7041 26.1972 23.4467 26.2724 24.1892 26.3476C24.3377 26.3476 24.3377 26.3476 24.3377 26.498C24.3377 27.8517 24.3377 29.2806 24.3377 30.6343C24.3377 30.7847 24.3377 30.7847 24.4862 30.7847C25.1545 30.7847 25.897 30.7847 26.5653 30.7847C26.788 30.7847 26.788 30.7847 26.788 30.5591C26.788 29.431 26.788 28.3782 26.788 27.2501C26.788 26.9493 26.788 26.6484 26.788 26.3476C26.788 26.1972 26.8623 26.1972 26.9365 26.1972C27.6791 26.1972 28.3474 26.122 29.0899 25.9716C29.6839 25.8964 30.2037 25.746 30.7235 25.5204C30.872 25.4451 31.0205 25.2947 31.169 25.2195C31.3175 25.0691 31.3175 24.9187 31.169 24.7683C31.0205 24.6931 30.9462 24.5427 30.7977 24.4675C29.9067 23.941 28.8671 23.7154 27.8276 23.6402C27.5306 23.6402 27.2336 23.6402 26.9365 23.565C26.8623 23.565 26.8623 23.565 26.8623 23.4146C26.8623 23.1138 26.8623 22.7377 26.8623 22.4369C26.8623 22.3617 26.8623 22.2865 27.0108 22.2865C27.2336 22.2865 27.4563 22.2865 27.6791 22.2865C28.4216 22.2865 29.0899 22.2865 29.8324 22.2865C29.9809 22.2865 29.9809 22.2113 29.9809 22.1361C29.9809 22.0609 29.9809 22.0609 29.9809 21.9857C29.9809 21.384 29.9809 20.7824 29.9809 20.1055C29.9809 19.9551 29.9809 19.9551 29.8324 19.9551C28.1989 20.1055 26.788 20.1055 25.4515 20.1055Z" fill="white"/>
<path d="M25.0803 25.8211C24.5605 25.8211 24.115 25.8211 23.5952 25.7459C22.7785 25.6707 21.8874 25.5955 21.0706 25.2947C20.9221 25.2195 20.7736 25.1443 20.5509 25.0691C20.3281 24.9186 20.3281 24.7682 20.5509 24.693C20.8479 24.5426 21.1449 24.4674 21.4419 24.3922C22.0359 24.2418 22.6299 24.1666 23.2982 24.0914C23.521 24.0914 23.818 24.0162 24.0408 24.0162C24.115 24.0162 24.1893 24.0162 24.1893 24.1666C24.1893 24.6178 24.1893 24.9938 24.1893 25.4451C24.1893 25.5955 24.2635 25.5955 24.3378 25.5955C24.9318 25.5955 25.5258 25.5955 26.0456 25.5955C26.1941 25.5955 26.3426 25.5955 26.4911 25.5955C26.6396 25.5955 26.6396 25.5955 26.6396 25.4451C26.6396 25.0691 26.6396 24.693 26.6396 24.317C26.6396 24.0914 26.6396 24.0914 26.8624 24.0914C27.8277 24.1666 28.793 24.2418 29.7582 24.5426C29.9068 24.6178 30.1295 24.693 30.278 24.7682C30.4265 24.8434 30.4265 24.9938 30.278 25.0691C29.981 25.2947 29.684 25.3699 29.3127 25.4451C28.5702 25.5955 27.8277 25.7459 27.0851 25.7459C26.4911 25.7459 25.7486 25.8211 25.0803 25.8211Z" fill="white"/>
</svg>
