<svg xmlns="http://www.w3.org/2000/svg" width="24" height="25" viewBox="0 0 24 25" fill="none">
  <path d="M7.48 18.8505L10.58 21.2505C10.98 21.6505 11.88 21.8505 12.48 21.8505H16.28C17.48 21.8505 18.78 20.9505 19.08 19.7505L21.48 12.4505C21.98 11.0505 21.08 9.85046 19.58 9.85046H15.58C14.98 9.85046 14.48 9.35046 14.58 8.65046L15.08 5.45046C15.28 4.55046 14.68 3.55046 13.78 3.25046C12.98 2.95046 11.98 3.35046 11.58 3.95046L7.48 10.0505" stroke="white" stroke-width="2" stroke-miterlimit="10"/>
  <path d="M2.38 18.8484V9.04844C2.38 7.64844 2.98 7.14844 4.38 7.14844H5.38C6.78 7.14844 7.38 7.64844 7.38 9.04844V18.8484C7.38 20.2484 6.78 20.7484 5.38 20.7484H4.38C2.98 20.7484 2.38 20.2484 2.38 18.8484Z" stroke="white" stroke-width="2" stroke-linecap="round" stroke-linejoin="round"/>
</svg>