        <svg xmlns="http://www.w3.org/2000/svg" width="90" height="85" viewBox="0 0 70 71" fill="none">
                        <path
                            d="M54.8337 35.2005C54.8337 24.2469 45.954 15.3672 35.0003 15.3672C24.0467 15.3672 15.167 24.2469 15.167 35.2005C15.167 46.1542 24.0467 55.0339 35.0003 55.0339C45.954 55.0339 54.8337 46.1542 54.8337 35.2005Z"
                            fill="#4284FF"/>
                        <path
                            d="M54.8337 35.2005C54.8337 24.2469 45.954 15.3672 35.0003 15.3672C24.0467 15.3672 15.167 24.2469 15.167 35.2005C15.167 46.1542 24.0467 55.0339 35.0003 55.0339C45.954 55.0339 54.8337 46.1542 54.8337 35.2005Z"
                            fill="url(#paint0_linear_5037_31025)"/>
                        <path
                            d="M63 35.1992C63 19.7352 50.464 7.19922 35 7.19922C19.536 7.19922 7 19.7352 7 35.1992C7 50.6632 19.536 63.1992 35 63.1992C50.464 63.1992 63 50.6632 63 35.1992Z"
                            stroke="#fff"
                            stroke-width="14"/>
                        <path
                            d="M29.167 36.3659H39.667V38.6992H35.0003V42.1992L29.167 36.3659ZM35.0003 31.6992V28.1992L40.8337 34.0326H30.3337V31.6992H35.0003Z"
                            fill="white"/>
                        <defs>
                            <linearGradient id="paint0_linear_5037_31025" x1="35.0003" y1="15.3672" x2="35.0003" y2="55.0339" gradientUnits="userSpaceOnUse">
                            <stop stop-color="#2873FF" />
                            <stop offset="1" stop-color="#0B6B96" />
                            </linearGradient>
                        </defs>
                        </svg>