<svg xmlns="http://www.w3.org/2000/svg" width="40" height="40" viewBox="0 0 40 40" fill="none">
  <path fill-rule="evenodd" clip-rule="evenodd" d="M20 40C9 40 0 31.0002 0 19.9004C0.1 8.90064 9 -0.0991726 20.1 0.00082534C31.1 0.100823 40 9.00064 40 20.2004C39.9 31.1002 31 40 20 40Z" fill="#F65556"/>
  <path fill-rule="evenodd" clip-rule="evenodd" d="M32.4124 14.0127L32.4123 14.0126C31.4861 13.1133 30.5073 12.163 29.6435 11.3963L29.556 11.335C29.4105 11.2181 29.2463 11.1265 29.0704 11.0638L28.4037 10.9394C23.8038 10.0811 8.89345 7.29901 8.58674 7.33631C8.49602 7.34901 8.40931 7.3819 8.33299 7.43256L8.24986 7.49818C8.14751 7.60213 8.06977 7.72771 8.02236 7.86568L8.00049 7.92256V8.23318V8.28131C9.01278 11.1001 11.6424 17.395 14.0705 23.2074L14.0705 23.2074C16.1232 28.1215 18.0319 32.6906 18.6973 34.5225L18.6976 34.5232C18.7851 34.7947 18.9514 35.31 19.2617 35.3362H19.3317C19.498 35.3362 20.2067 34.4 20.2067 34.4C20.2067 34.4 32.8767 19.035 34.1585 17.3988C34.3245 17.1972 34.4709 16.9804 34.596 16.7513C34.661 16.3866 34.5298 16.0146 34.2504 15.7713C33.7046 15.2673 33.0718 14.6529 32.4124 14.0127ZM23.457 17.56L28.8645 13.0757L32.0364 15.9982L23.457 17.56ZM12.0459 9.63574L21.3559 17.2657L27.109 12.4139L12.0459 9.63574ZM22.1975 19.2671L31.7262 17.7314L20.8325 30.8564L22.1975 19.2671ZM20.5768 18.7099L10.7812 10.3975L19.1593 30.8636L20.5768 18.7099Z" fill="white"/>
</svg>