<svg xmlns="http://www.w3.org/2000/svg" width="16" height="16" viewBox="0 0 16 16" fill="none">
  <path d="M6.99335 1.48654L3.66668 2.73988C2.90001 3.02654 2.27335 3.93321 2.27335 4.74654V9.69988C2.27335 10.4865 2.79335 11.5199 3.42668 11.9932L6.29335 14.1332C7.23335 14.8399 8.78001 14.8399 9.72001 14.1332L12.5867 11.9932C13.22 11.5199 13.74 10.4865 13.74 9.69988V4.74654C13.74 3.92654 13.1133 3.01988 12.3467 2.73321L9.02001 1.48654C8.45335 1.27988 7.54668 1.27988 6.99335 1.48654Z" stroke="#2873FF" stroke-width="1.5" stroke-linecap="round" stroke-linejoin="round"/>
  <path d="M6.99335 1.48654L3.66668 2.73988C2.90001 3.02654 2.27335 3.93321 2.27335 4.74654V9.69988C2.27335 10.4865 2.79335 11.5199 3.42668 11.9932L6.29335 14.1332C7.23335 14.8399 8.78001 14.8399 9.72001 14.1332L12.5867 11.9932C13.22 11.5199 13.74 10.4865 13.74 9.69988V4.74654C13.74 3.92654 13.1133 3.01988 12.3467 2.73321L9.02001 1.48654C8.45335 1.27988 7.54668 1.27988 6.99335 1.48654Z" stroke="url(#paint0_linear_7312_31149)" stroke-width="1.5" stroke-linecap="round" stroke-linejoin="round"/>
  <defs>
    <linearGradient id="paint0_linear_7312_31149" x1="8.00668" y1="1.33154" x2="8.00668" y2="14.6632" gradientUnits="userSpaceOnUse">
      <stop stop-color="#2873FF"/>
      <stop offset="1" stop-color="#0B6B96"/>
    </linearGradient>
  </defs>
</svg>