<svg width="20" height="21" viewBox="0 0 20 21" fill="none" xmlns="http://www.w3.org/2000/svg">
<path d="M12.8492 15.7835C12.9107 15.8778 12.9456 15.987 12.9502 16.0995C12.9548 16.212 12.9289 16.3236 12.8753 16.4226C12.8217 16.5216 12.7423 16.6043 12.6456 16.6619C12.5489 16.7195 12.4384 16.7499 12.3258 16.7499H0.79924C0.686659 16.7499 0.576171 16.7195 0.479451 16.6619C0.382731 16.6043 0.303369 16.5216 0.249751 16.4226C0.196133 16.3236 0.17025 16.212 0.174835 16.0995C0.179421 15.987 0.214305 15.8778 0.275803 15.7835C1.15557 14.4293 2.44962 13.3959 3.96487 12.8374C3.12721 12.2798 2.49125 11.4674 2.15104 10.5203C1.81082 9.57325 1.78441 8.54185 2.07572 7.57862C2.36702 6.6154 2.96057 5.77149 3.76859 5.17169C4.57662 4.57189 5.55621 4.24805 6.56252 4.24805C7.56883 4.24805 8.54843 4.57189 9.35645 5.17169C10.1645 5.77149 10.758 6.6154 11.0493 7.57862C11.3406 8.54185 11.3142 9.57325 10.974 10.5203C10.6338 11.4674 9.99784 12.2798 9.16018 12.8374C10.6754 13.3959 11.9695 14.4293 12.8492 15.7835ZM19.7172 15.7718C18.8372 14.4233 17.546 13.3943 16.0352 12.8374C17.0241 12.1713 17.722 11.1534 17.9868 9.99084C18.2516 8.8283 18.0635 7.60853 17.4607 6.57981C16.8578 5.5511 15.8857 4.79076 14.742 4.45357C13.5984 4.11637 12.3692 4.22766 11.3047 4.76479C11.264 4.78581 11.2284 4.81552 11.2005 4.85182C11.1725 4.88811 11.1529 4.93011 11.143 4.97483C11.1331 5.01956 11.1331 5.06592 11.1431 5.11062C11.1531 5.15533 11.1728 5.19729 11.2008 5.23354C11.9923 6.22089 12.4469 7.43576 12.498 8.70019C12.549 9.96463 12.1938 11.2122 11.4844 12.2601C11.4385 12.3286 11.4216 12.4124 11.4373 12.4933C11.4529 12.5742 11.4999 12.6457 11.568 12.6921C12.4929 13.3377 13.2847 14.1554 13.9 15.1007C14.1482 15.4808 14.2495 15.9381 14.1852 16.3874C14.1779 16.4321 14.1805 16.4779 14.1927 16.5215C14.2048 16.5651 14.2263 16.6055 14.2557 16.64C14.285 16.6745 14.3215 16.7022 14.3626 16.7212C14.4038 16.7401 14.4485 16.75 14.4938 16.7499H19.2047C19.3423 16.75 19.4761 16.7046 19.5853 16.6208C19.6945 16.5371 19.773 16.4196 19.8086 16.2867C19.8303 16.1992 19.8334 16.1082 19.8177 16.0195C19.8019 15.9308 19.7677 15.8464 19.7172 15.7718Z" fill="#2873FF"/>
</svg>
