<svg xmlns="http://www.w3.org/2000/svg" width="20" height="18" viewBox="0 0 16 15" fill="none">
  <g clip-path="url(#clip0_11217_69643)">
    <path fill-rule="evenodd" clip-rule="evenodd" d="M10.2323 1.43719L7.89367 0.138672L5.55504 1.43719L2.9832 2.17265L2.24773 4.7445L0.949219 7.08312L2.24773 9.42171L2.9832 11.9935L5.55504 12.729L7.89367 14.0275L10.2323 12.729L12.8042 11.9935L13.5396 9.42171L14.8381 7.08312L13.5396 4.7445L12.8042 2.17265L10.2323 1.43719ZM11.3012 5.54556C11.6026 5.19777 11.565 4.67146 11.2172 4.37004C10.8694 4.06861 10.3431 4.10622 10.0417 4.45401L7.06033 7.89405L5.74563 6.37708C5.4442 6.02929 4.91791 5.9917 4.57011 6.29312C4.22232 6.59454 4.18472 7.12084 4.48614 7.46863L6.43059 9.71221C6.58888 9.89488 6.81865 9.9998 7.06033 9.9998C7.30201 9.9998 7.53178 9.89488 7.69007 9.71221L11.3012 5.54556Z" fill="#2873FF"/>
    <path fill-rule="evenodd" clip-rule="evenodd" d="M10.2323 1.43719L7.89367 0.138672L5.55504 1.43719L2.9832 2.17265L2.24773 4.7445L0.949219 7.08312L2.24773 9.42171L2.9832 11.9935L5.55504 12.729L7.89367 14.0275L10.2323 12.729L12.8042 11.9935L13.5396 9.42171L14.8381 7.08312L13.5396 4.7445L12.8042 2.17265L10.2323 1.43719ZM11.3012 5.54556C11.6026 5.19777 11.565 4.67146 11.2172 4.37004C10.8694 4.06861 10.3431 4.10622 10.0417 4.45401L7.06033 7.89405L5.74563 6.37708C5.4442 6.02929 4.91791 5.9917 4.57011 6.29312C4.22232 6.59454 4.18472 7.12084 4.48614 7.46863L6.43059 9.71221C6.58888 9.89488 6.81865 9.9998 7.06033 9.9998C7.30201 9.9998 7.53178 9.89488 7.69007 9.71221L11.3012 5.54556Z" fill="url(#paint0_linear_11217_69643)"/>
  </g>
  <defs>
    <linearGradient id="paint0_linear_11217_69643" x1="7.89365" y1="0.138672" x2="7.89365" y2="14.0275" gradientUnits="userSpaceOnUse">
      <stop stop-color="#2873FF"/>
      <stop offset="1" stop-color="#0B6B96"/>
    </linearGradient>
    <clipPath id="clip0_11217_69643">
      <rect width="15" height="15" fill="white" transform="translate(0.5)"/>
    </clipPath>
  </defs>
</svg>