<svg width="25" height="24" viewBox="0 0 25 24" fill="none" xmlns="http://www.w3.org/2000/svg">
<path d="M22.78 12.6201V14.6801C22.78 15.2401 22.32 15.7001 21.75 15.7001H19.82C18.74 15.7001 17.75 14.9101 17.66 13.8301C17.6 13.2001 17.84 12.6101 18.26 12.2001C18.63 11.8201 19.14 11.6001 19.7 11.6001H21.75C22.32 11.6001 22.78 12.0601 22.78 12.6201Z" fill="#FAFAFA"/>
<path d="M16.16 13.9599C16.07 12.9099 16.45 11.8799 17.21 11.1299C17.85 10.4799 18.74 10.0999 19.7 10.0999H20.27C20.55 10.0999 20.78 9.8699 20.74 9.5899C20.47 7.6499 18.79 6.1499 16.78 6.1499H6.78003C4.57003 6.1499 2.78003 7.9399 2.78003 10.1499V17.1499C2.78003 19.3599 4.57003 21.1499 6.78003 21.1499H16.78C18.8 21.1499 20.47 19.6499 20.74 17.7099C20.78 17.4299 20.55 17.1999 20.27 17.1999H19.82C17.92 17.1999 16.32 15.7799 16.16 13.9599ZM13.78 11.8999H7.78003C7.37003 11.8999 7.03003 11.5699 7.03003 11.1499C7.03003 10.7299 7.37003 10.3999 7.78003 10.3999H13.78C14.19 10.3999 14.53 10.7399 14.53 11.1499C14.53 11.5599 14.19 11.8999 13.78 11.8999Z" fill="#FAFAFA"/>
<path d="M14.9899 3.9801C15.2499 4.2501 15.0199 4.6501 14.6399 4.6501H6.80994C5.71994 4.6501 4.69994 4.9701 3.84994 5.5201C3.45994 5.7701 2.92994 5.5001 3.11994 5.0701C3.67994 3.7601 4.98994 2.8501 6.49994 2.8501H12.1199C13.2799 2.8501 14.3099 3.2601 14.9899 3.9801Z" fill="#FAFAFA"/>
</svg>
