<svg xmlns="http://www.w3.org/2000/svg" width="82" height="63" viewBox="0 0 82 63" fill="none">
  <g clip-path="url(#clip0_5100_42029)">
    <path d="M23.3663 11.1614L9.13345 34.5858C11.748 37.6045 14.9402 40.6757 18.6149 43.6423L35.7748 15.3987C31.4416 13.499 27.2493 12.0821 23.3663 11.1614Z" fill="#AD4800"/>
    <path d="M18.6257 43.7387L18.5778 43.7023C14.9391 40.748 11.7346 37.7008 9.08444 34.6216L9.06063 34.5853L9.08499 34.5493L23.3301 11.0889L23.3662 11.1012C27.3213 12.0346 31.5015 13.4634 35.7867 15.3507L35.8467 15.3752L18.6257 43.7387ZM9.1931 34.5863C11.8315 37.6292 14.988 40.6521 18.5908 43.5699L35.6776 15.4342C31.4284 13.5833 27.2962 12.1669 23.3772 11.2338L9.1931 34.5863Z" fill="#FFF800"/>
    <path d="M35.7731 15.3989L18.6132 43.6425C21.7853 46.1957 25.3071 48.6794 29.1312 51.0088L47.1571 21.3386C43.3329 19.0213 39.5062 17.0291 35.7731 15.3989Z" fill="#AF5C00"/>
    <path d="M29.143 51.093L29.0951 51.0685C25.3548 48.8 21.8089 46.3162 18.577 43.7022L18.5412 43.6658L18.5656 43.6179L35.75 15.3263L35.798 15.3508C39.6151 17.0177 43.4417 19.0219 47.1819 21.2905L47.2299 21.3149L29.143 51.093ZM18.686 43.6308C21.8939 46.2205 25.4039 48.6799 29.1082 50.9241L47.0731 21.3498C43.3688 19.1057 39.5781 17.1258 35.7972 15.4592L18.686 43.6308Z" fill="#FFF800"/>
    <path d="M8.17791 5.04848L2.44566 14.495C1.1895 16.5569 1.01325 19.1449 1.76198 22.041L11.0311 6.78034L8.17791 5.04848Z" fill="#AD2B00"/>
    <path d="M1.73639 22.1849L1.70127 22.0522C0.929267 19.0475 1.15351 16.484 2.3853 14.458L8.15405 4.96357L11.1031 6.75639L1.73639 22.1849ZM8.20103 5.1205L2.49323 14.519C1.29793 16.4971 1.05024 18.9762 1.78675 21.8962L10.9583 6.79141L8.20103 5.1205Z" fill="#FFF800"/>
    <path d="M16.353 10.0123L11.0303 6.78034L1.76128 22.041C2.74409 25.8301 5.30045 30.161 9.1327 34.586L23.3655 11.1616C20.8891 10.5647 18.5315 10.1855 16.353 10.0123Z" fill="#AD3E00"/>
    <path d="M9.13229 34.682L9.08458 34.6214C5.22852 30.1601 2.68429 25.8172 1.7013 22.0522L1.68944 22.028L1.70167 22.004L11.0193 6.69559L16.3779 9.95194C18.5564 10.1251 20.9139 10.5164 23.3784 11.1011L23.4505 11.1137L23.4138 11.1857L9.13229 34.682ZM1.82173 22.0531C2.79304 25.7699 5.31346 30.0765 9.12171 34.4892L23.2692 11.1967C20.8288 10.6241 18.4953 10.245 16.3408 10.0721L16.3288 10.072L11.0542 6.85242L1.82173 22.0531Z" fill="#FFF800"/>
    <path d="M67.1573 37.761L52.9244 61.1974C58.6106 62.5534 63.6426 62.8326 67.455 61.9463L76.7241 46.6856L71.4014 43.4537C70.2474 41.5902 68.8167 39.6885 67.1573 37.761Z" fill="#FFCB00"/>
    <path d="M62.3199 62.5099C59.514 62.4885 56.3377 62.0669 52.9115 61.258L52.8394 61.2454L52.8761 61.1735L67.1576 37.6772L67.2053 37.7377C68.8647 39.6653 70.2953 41.579 71.4495 43.4184L76.8081 46.6747L67.4903 62.0073L67.4663 62.0071C65.9341 62.3567 64.2106 62.5242 62.3199 62.5099ZM53.0087 61.1504C58.6829 62.4942 63.667 62.7489 67.407 61.8862L76.6394 46.6855L71.3527 43.4778L71.3408 43.4657C70.1985 41.6385 68.7797 39.7489 67.1443 37.8457L53.0087 61.1504Z" fill="#FFF800"/>
    <path d="M73.8338 57.8645L79.5661 48.418L76.713 46.6861L67.4439 61.9468C70.3756 61.2705 72.5777 59.9264 73.8338 57.8645Z" fill="#FFD500"/>
    <path d="M67.3341 62.0295L67.4073 61.9096L76.7129 46.589L79.662 48.3818L73.8811 57.8882C72.6492 59.9262 70.4829 61.3068 67.4547 62.0063L67.3341 62.0295ZM76.7478 46.7579L67.5763 61.8627C70.5081 61.1624 72.5899 59.8053 73.7972 57.8274L79.505 48.4288L76.7478 46.7579Z" fill="#FFF800"/>
    <path d="M29.1326 51.0089C32.9568 53.3263 36.7834 55.3184 40.5165 56.9486L57.6644 28.705C54.4923 26.1517 50.9705 23.6681 47.1464 21.3387L29.1326 51.0089Z" fill="#E08700"/>
    <path d="M40.5278 57.0204L40.4798 56.9959C36.6627 55.329 32.8361 53.3248 29.0958 51.0562L29.0479 51.0318L29.0723 50.9838L47.1226 21.2657L47.1706 21.2901C50.9108 23.5587 54.4568 26.0425 57.6886 28.6564L57.7244 28.6928L57.7 28.7408L40.5278 57.0204ZM29.2048 50.9848C32.9091 53.229 36.6997 55.2088 40.4807 56.8755L57.5918 28.7159C54.3839 26.1262 50.8739 23.6668 47.1696 21.4226L29.2048 50.9848Z" fill="#FFF800"/>
    <path d="M57.6637 28.7049L40.5038 56.9484C44.837 58.8481 49.0294 60.265 52.9123 61.1978L67.1452 37.7613C64.5428 34.7307 61.3505 31.6715 57.6637 28.7049Z" fill="#FFA500"/>
    <path d="M52.9482 61.258L52.9121 61.2457C48.957 60.3123 44.7768 58.8835 40.4917 56.9962L40.4316 56.9717L40.4682 56.9117L57.6647 28.6082L57.7126 28.6447C61.3514 31.5869 64.5438 34.6341 67.206 37.7134L67.2298 37.7497L67.2055 37.7856L52.9482 61.258ZM40.5886 56.9247C44.8378 58.7756 48.9699 60.192 52.889 61.1251L67.0852 37.7606C64.4468 34.7176 61.2904 31.6948 57.6875 28.777L40.5886 56.9247Z" fill="#FFF800"/>
    <path d="M79.5781 48.4179C74.6021 56.6057 54.5853 53.5389 34.865 41.5743C15.157 29.5857 3.20193 13.2362 8.17791 5.0485C13.166 -3.15119 33.1828 -0.0843894 52.891 11.8921C72.6111 23.8688 84.5542 40.2182 79.5781 48.4179Z" fill="url(#paint0_linear_5100_42029)"/>
    <path d="M68.0891 53.0632C66.4393 53.0506 64.6459 52.9045 62.7333 52.6009C54.2767 51.3082 44.3707 47.403 34.8282 41.6098C25.2858 35.8166 17.258 28.8186 12.2041 21.9154C7.15035 15.0002 5.7027 8.99158 8.11756 5.01156C10.5565 1.03173 16.5533 -0.452145 25.0219 0.852758C33.4665 2.14544 43.3846 6.05069 52.915 11.8438C62.4574 17.637 70.4853 24.6351 75.5391 31.5382C80.5929 38.4534 82.0405 44.462 79.6257 48.442C77.7475 51.5229 73.7371 53.1062 68.0891 53.0632ZM19.6653 0.498872C14.0655 0.456262 10.0914 2.01574 8.23753 5.07269C5.83498 9.01667 7.283 14.9771 12.313 21.856C17.3428 28.7469 25.3707 35.7329 34.9012 41.514C44.4316 47.3071 54.3257 51.2001 62.7582 52.4927C71.1788 53.7852 77.1393 52.3252 79.5298 48.3811C81.9203 44.437 80.4723 38.4766 75.4544 31.5978C70.4245 24.7068 62.3966 17.7208 52.8661 11.9398C43.3356 6.15871 33.4416 2.25364 24.997 0.960959C23.0964 0.6695 21.3031 0.511334 19.6653 0.498872Z" fill="#FFF800"/>
    <path d="M76.6419 46.3603C72.2146 53.661 54.0035 50.6922 35.9737 39.7401C17.9438 28.788 6.91625 13.9992 11.3556 6.69854C15.7829 -0.602171 33.9939 2.36659 52.0238 13.3187C70.0536 24.2708 81.0812 39.0597 76.6419 46.3603Z" fill="url(#paint1_linear_5100_42029)"/>
    <path d="M66.5791 50.4264C65.0015 50.4144 63.2684 50.2567 61.404 49.9535C53.7178 48.7027 44.6766 45.0932 35.9495 39.7879C27.2223 34.4827 19.8519 28.1279 15.2026 21.8782C10.5292 15.6162 9.14915 10.2223 11.3079 6.66186C13.4666 3.11346 18.8958 1.84205 26.606 3.10505C34.2921 4.35582 43.3333 7.96536 52.0605 13.2706C60.7877 18.5759 68.158 24.9306 72.8074 31.1804C77.4687 37.4423 78.8487 42.8482 76.69 46.3966C75.0557 49.0819 71.5406 50.4642 66.5791 50.4264ZM21.4541 2.75272C16.6611 2.71625 13.0624 4.00159 11.4038 6.72281C6.98883 13.9875 18.0284 28.7764 35.9984 39.6919C53.9683 50.6075 72.1792 53.5883 76.5942 46.3236C81.0092 39.0589 69.9696 24.27 51.9996 13.3545C40.7669 6.53676 29.4384 2.81347 21.4541 2.75272Z" fill="#FFF800"/>
    <path d="M74.8201 46.888C70.6856 53.6972 53.2098 50.6497 35.7793 40.0635C18.3609 29.4773 7.59302 15.3769 11.7275 8.56776C15.862 1.7586 33.3378 4.80606 50.7683 15.3923C68.1988 25.9786 78.9546 40.0789 74.8201 46.888Z" fill="url(#paint2_linear_5100_42029)"/>
    <path d="M65.603 50.5755C63.9893 50.5632 62.1961 50.393 60.2597 50.0531C52.8749 48.7685 44.1704 45.2337 35.7429 40.1114C27.3154 34.9891 20.1599 28.8889 15.6167 22.929C11.0615 16.969 9.66725 11.852 11.6797 8.5313C13.6921 5.21061 18.8791 4.10596 26.276 5.39066C33.6609 6.67528 42.3654 10.21 50.7929 15.3323C59.2204 20.4547 66.3759 26.5549 70.9191 32.5148C75.4742 38.4868 76.8805 43.5918 74.8681 46.9125C73.3801 49.3701 70.1672 50.6102 65.603 50.5755ZM20.9558 5.00092C16.5482 4.96739 13.2757 6.12273 11.7755 8.60429C7.66541 15.3655 18.4453 29.4659 35.8038 40.0155C46.8327 46.7112 57.9087 50.3965 65.5798 50.4549C69.9874 50.4884 73.26 49.333 74.7602 46.8515C76.7482 43.5788 75.3536 38.51 70.8222 32.5863C66.2789 26.6384 59.1474 20.5505 50.7319 15.4403C39.703 8.73249 28.627 5.05929 20.9558 5.00092Z" fill="#FFF800"/>
    <path d="M53.2714 31.5254C54.9219 31.4537 55.986 30.8957 56.4877 29.8518C57.0508 28.6517 56.7489 27.1802 55.606 25.4372C54.7011 24.0694 53.4701 22.8316 51.9128 21.7239L52.6698 20.3808L49.6009 18.5148L48.8325 19.7855L47.6097 19.0416L44.9603 17.4437L45.7767 16.1974L42.7078 14.3315L41.8554 15.5534L39.9973 14.4192L37.2401 12.7483L35.4643 15.0471L38.2934 16.7668L37.3076 18.1202L31.6485 25.8691L28.5556 23.9909L26.3297 26.8764C26.3175 26.9004 26.3175 26.9004 26.3175 26.9004L29.4943 28.8275L31.6401 30.1324L30.4713 31.7975L34.1157 34.0051L35.2366 32.3035L39.6961 35.0111L38.6471 36.7614L42.2915 38.969L43.2927 37.1701C45.5835 38.4159 47.7946 39.059 49.8898 39.0991C52.238 39.141 53.7367 38.4298 54.4103 36.9657C55.0841 35.4654 54.7004 33.6559 53.2714 31.5254ZM43.3643 19.8523L47.3443 22.2672L49.2144 23.4014C49.6939 23.6941 50.101 24.0103 50.4356 24.3501C50.6747 24.5808 50.8655 24.8351 51.0442 25.0894C51.4608 25.7309 51.5531 26.2735 51.3209 26.7053C51.0888 27.1371 50.5936 27.326 49.8473 27.2722C49.5344 27.2457 49.2217 27.1951 48.9093 27.0964C48.4406 26.9604 47.9606 26.7399 47.4571 26.435L45.5391 25.2643L41.4511 22.7884L41.4391 22.7883L43.3643 19.8523ZM47.095 34.4531C46.4449 34.4241 45.7837 34.2625 45.0875 33.9561C44.7754 33.8213 44.4636 33.6503 44.1399 33.4551L41.5625 31.894L37.2228 29.2596L37.2109 29.2475L39.6723 25.4846L39.6842 25.4967L43.88 28.0457L46.2296 29.4727C46.5773 29.68 46.9129 29.8994 47.2242 30.1306C47.3919 30.2523 47.5596 30.374 47.7152 30.4956C48.9946 31.7097 49.3961 32.7605 48.9317 33.6482C48.6263 34.2119 48.0221 34.4843 47.095 34.4531Z" fill="white"/>
    <path d="M49.9973 39.1601C49.9612 39.1598 49.913 39.1595 49.8769 39.1592C47.7937 39.1192 45.5826 38.4762 43.3036 37.2545L42.2904 39.0533L38.5501 36.7848L39.5991 35.0344L35.2355 32.3878L34.1146 34.0894L30.3743 31.8209L31.5431 30.1558L26.2085 26.9117L28.5195 23.9184L31.6124 25.7966L38.1845 16.778L35.3673 15.0705L37.216 12.6879L41.8313 15.493L42.6837 14.2711L45.8484 16.198L45.0321 17.4443L48.7962 19.7371L49.5646 18.4663L52.7295 20.3812L51.9726 21.7243C53.5057 22.8319 54.7367 24.0697 55.6297 25.4254C56.7845 27.1804 57.0862 28.6882 56.5231 29.8882C56.0334 30.9322 54.9692 31.5022 53.3668 31.5864C54.7719 33.6926 55.1313 35.5259 54.4336 37.002C53.7722 38.4542 52.2733 39.1774 49.9973 39.1601ZM43.2567 37.0976L43.3046 37.122C45.5835 38.3557 47.7825 38.9987 49.8778 39.0388C52.1777 39.0803 53.6764 38.3812 54.3377 36.941C55.0113 35.4769 54.6397 33.6555 53.2226 31.5492L53.163 31.4644L53.2594 31.4651C54.8736 31.4052 55.9377 30.8472 56.4151 29.8272C56.9659 28.6632 56.676 27.2037 55.533 25.4728C54.64 24.1172 53.409 22.8794 51.8638 21.7717L51.8279 21.7473L52.5728 20.4041L49.5997 18.5991L48.8313 19.8698L44.8634 17.455L45.6798 16.2088L42.7187 14.4158L41.8664 15.6378L37.251 12.8327L35.5482 15.0357L38.3773 16.7554L31.6714 25.9536L28.5666 24.0633L26.3894 26.8769L31.7121 30.1089L30.5432 31.7861L34.0796 33.9326L35.2006 32.231L35.2485 32.2554L39.768 34.9996L38.719 36.7499L42.2554 38.8964L43.2567 37.0976ZM47.2145 34.5143C47.1784 34.514 47.1302 34.5136 47.0941 34.5134C46.4439 34.4843 45.7587 34.3225 45.0625 34.0162C44.7504 33.8813 44.4265 33.7102 44.1149 33.5152L37.138 29.271L39.6723 25.4123L39.7323 25.4489L46.2657 29.4248C46.6133 29.6321 46.9488 29.8635 47.2603 30.0827C47.4279 30.2044 47.5956 30.3261 47.7512 30.4598C49.0424 31.698 49.4557 32.785 48.9791 33.6847C48.6859 34.2364 48.0936 34.521 47.2145 34.5143ZM47.095 34.3929C47.998 34.4239 48.5901 34.1634 48.8832 33.6237C49.3353 32.7721 48.9217 31.7332 47.6784 30.5315C47.5227 30.4098 47.3671 30.2882 47.1874 30.1664C46.876 29.9352 46.5404 29.7159 46.1928 29.5085L39.6953 25.557L37.2949 29.224L44.1759 33.4073C44.4876 33.6023 44.8115 33.7613 45.1116 33.8961C45.7837 34.2023 46.4568 34.376 47.095 34.3929ZM50.0631 27.3461C49.9908 27.3455 49.9186 27.345 49.8344 27.3323C49.5214 27.3058 49.2088 27.2432 48.8843 27.1565C48.4157 27.0084 47.9236 26.7878 47.4201 26.4829L41.3542 22.7997L43.3403 19.7678L43.4003 19.8044L49.2384 23.3534C49.7179 23.6461 50.137 23.9625 50.4715 24.3143C50.7106 24.5569 50.9134 24.8114 51.08 25.0656C51.5085 25.7312 51.6007 26.2859 51.3563 26.7417C51.1485 27.1496 50.7134 27.351 50.0631 27.3461ZM41.5231 22.7648L47.4931 26.3871C47.9847 26.6799 48.4647 26.9004 48.9212 27.0483C49.2336 27.1471 49.5464 27.1976 49.8472 27.224C50.5694 27.2777 51.0525 27.1007 51.2724 26.6929C51.4924 26.273 51.4 25.7545 50.9953 25.1251C50.8286 24.871 50.6257 24.6286 50.3987 24.386C50.0641 24.0462 49.657 23.73 49.1895 23.4494L43.3873 19.9247L41.5231 22.7648Z" fill="#FFF800"/>
  </g>
  <defs>
    <linearGradient id="paint0_linear_5100_42029" x1="8.43947" y1="5.20195" x2="76.3225" y2="46.4332" gradientUnits="userSpaceOnUse">
      <stop offset="1e-08" stop-color="#FFC500"/>
      <stop offset="1" stop-color="#FFCF00"/>
    </linearGradient>
    <linearGradient id="paint1_linear_5100_42029" x1="8.79975" y1="5.14719" x2="65.2813" y2="39.4533" gradientUnits="userSpaceOnUse">
      <stop stop-color="#FFE000"/>
      <stop offset="1" stop-color="#AD4B00"/>
    </linearGradient>
    <linearGradient id="paint2_linear_5100_42029" x1="12.2692" y1="8.89525" x2="57.482" y2="36.3569" gradientUnits="userSpaceOnUse">
      <stop stop-color="#FF9C00"/>
      <stop offset="0.5362" stop-color="#FFCD00"/>
      <stop offset="1" stop-color="#FFE700"/>
    </linearGradient>
    <clipPath id="clip0_5100_42029">
      <rect width="79.7006" height="61.7926" fill="white" transform="translate(1.39746 0.251953) rotate(0.435963)"/>
    </clipPath>
  </defs>
</svg>